<?xml version="1.0" encoding="UTF-8"?>
<svg id="_アイコン" data-name="アイコン" xmlns="http://www.w3.org/2000/svg" version="1.1" viewBox="0 0 500 500">
  <defs>
    <style>
      .cls-1 {
        fill: #fff;
        stroke-width: 0px;
      }
    </style>
  </defs>
  <path class="cls-1" d="M69.4,77.8c.7,0,.7.5,1.4.5s.7.1,1.4.1.7,0,1.4,0,.7,0,1.4,0,.7-.5,1.4-.5.7.4,1.4.4.7-.2,1.4-.2.7.2,1.4.2.7,0,1.4,0,.7-.3,1.4-.3.7.6,1.4.6.7-.9,1.4-.9.7.8,1.4.8.7,0,1.4,0,.7-.2,1.4-.2.7-.3,1.4-.3.7.5,1.4.5.7-.6,1.4-.6.7.5,1.4.5.7.2,1.4.2.7-.6,1.4-.6.7,0,1.4,0,.7.5,1.4.5.7-.6,1.4-.6.7.7,1.4.7.7-.8,1.4-.8.7.6,1.4.6.7-.4,1.4-.4.7,0,1.4,0,.7.8,1.4.8.7-.5,1.4-.5.7.4,1.4.4.7-.3,1.4-.3.7,0,1.4,0,.7.3,1.4.3.7,0,1.4,0,.7.2,1.4.2.7,0,1.4,0,.7-.7,1.4-.7.7.3,1.4.3.7.4,1.4.4.7,0,1.4,0,.7,0,1.4,0,.7-.3,1.4-.3.7,0,1.4,0,.7,0,1.4,0,.7.5,1.4.5.7-.4,1.4-.4.7.1,1.4.1.7-.6,1.4-.6.7.9,1.4.9.7-.6,1.4-.6.7-.3,1.4-.3.7.5,1.4.5.7-.1,1.4-.1.7.3,1.4.3.7,0,1.4,0,.7-.6,1.4-.6.7.7,1.4.7.7,0,1.4,0,.7.2,1.4.2.7-.2,1.4-.2.7-.6,1.4-.6.7.8,1.4.8.7-.3,1.4-.3.7-.6,1.4-.6.7,0,1.4,0,.7.2,1.4.2.7.4,1.4.4.7-.6,1.4-.6.7.1,1.4.1.7,0,1.4,0,.7.3,1.4.3.7.4,1.4.4.7,0,1.4,0,.7,0,1.4,0,.7-.6,1.4-.6.7.5,1.4.5.7-.5,1.4-.5.7.3,1.4.3.7-.2,1.4-.2.7,0,1.4,0,.7.2,1.4.2.7-.5,1.4-.5.7.6,1.4.6.7-.6,1.4-.6.7.4,1.4.4.7-.1,1.4-.1.7,0,1.4,0,.7.5,1.4.5.7-.8,1.4-.8.7.6,1.4.6.7-.4,1.4-.4.7-.2,1.4-.2.7.8,1.4.8.7-.7,1.4-.7.7-.2,1.4-.2.7.6,1.4.6.7,0,1.4,0,.7-.3,1.4-.3.7.4,1.4.4.7-.6,1.4-.6.7.6,1.4.6.7.2,1.4.2.7-.4,1.4-.4.7,0,1.4,0,.7-.2,1.4-.2.7-.2,1.4-.2.7.8,1.4.8.7-.6,1.4-.6.7,0,1.4,0,.7.2,1.4.2.7.6,1.4.6.7-.2,1.4-.2.7-.1,1.4-.1.7-.6,1.4-.6.7,0,1.4,0,.7.8,1.4.8.7-.5,1.4-.5.7.5,1.4.5.7-.3,1.4-.3.7,0,1.4,0,.7-.1,1.4-.1.7.5,1.4.5.7-.3,1.4-.3.7.1,1.4.1.7-.6,1.4-.6.7.6,1.4.6.7-.3,1.4-.3.7-.4,1.4-.4.7.5,1.4.5.7-.1,1.4-.1.7,0,1.4,0,.7.4,1.4.4.7-.8,1.4-.8.7.2,1.4.2.7-.2,1.4-.2.7,0,1.4,0,.7.5,1.4.5.7-.3,1.4-.3.7,0,1.4,0,.7.2,1.4.2.7.3,1.4.3.7-.2,1.4-.2.7-.4,1.4-.4.7,0,1.4,0,.7.7,1.4.7.7-.6,1.4-.6.7,0,1.4,0,.7.6,1.4.6.7-.4,1.4-.4.7.5,1.4.5.7-.4,1.4-.4.7.5,1.4.5.7-.6,1.4-.6.7.5,1.4.5.7-.6,1.4-.6.7-.1,1.4-.1.7.3,1.4.3.7.5,1.4.5.7,0,1.4,0,.7-.5,1.4-.5.7,0,1.4,0,.7-.1,1.4-.1.7.4,1.4.4.7-.2,1.4-.2.7.2,1.4.2.7-.1,1.4-.1.7.1,1.4.1.7-.2,1.4-.2.7-.2,1.4-.2.7.4,1.4.4.7.1,1.4.1.7-.5,1.4-.5.7.2,1.4.2.7-.5,1.4-.5.7.8,1.4.8.7,0,1.4,0,.7,0,1.4,0,.7-.6,1.4-.6.7.6,1.4.6.7-.7,1.4-.7.7.2,1.4.2.7.4,1.4.4.7,0,1.4,0,.7-.5,1.4-.5.7,0,1.4,0,.7.7,1.4.7.7-.2,1.4-.2.7-.4,1.4-.4.7.3,1.4.3.7.1,1.4.1.7-.6,1.4-.6.7.5,1.4.5.7,0,1.4,0,.7-.5,1.4-.5.7.7,1.4.7.7-.7,1.4-.7.7.4,1.4.4.7-.2,1.4-.2.7.4,1.4.4.7,0,1.4,0,.7,0,1.4,0,.7,0,1.4,0,.7-.1,1.4-.1.7,0,1.4,0,.7.3,1.4.3.7-.6,1.4-.6.7.7,1.4.7.7-.5,1.4-.5.7.2,1.4.2.7,0,1.4,0,.7-.4,1.4-.4.7.7,1.4.7.7.1,1.4.1.7-.1,1.4-.1.7-.2,1.4-.2.7-.2,1.4-.2.7.4,1.4.4.7-.4,1.4-.4.7,0,1.4,0,.7.4,1.4.4.7-.8,1.4-.8.7.1,1.4.1.7.7,1.4.7.7-.6,1.4-.6.7,0,1.4,0,.7,0,1.4,0,.7-.2,1.4-.2.7,0,1.4,0,.7.5,1.4.5.7.2,1.4.2.7,0,1.4,0,.7-.3,1.4-.3.7-.2,1.4-.2.7.3,1.4.3.7-.1,1.4-.1.7.2,1.4.2.7-.7,1.4-.7.7,0,1.4,0,.7.8,1.5.8.7-.7,1.4-.7h1.5c.7,0,.7.2,1.5.2s1-.4,1.5,0c.5.5.1.7.1,1.5s-.1.7-.1,1.4.2.7.2,1.4-.5.7-.5,1.4.7.7.7,1.4-.3.7-.3,1.4-.1.7-.1,1.4-.3.7-.3,1.4.6.7.6,1.4-.5.7-.5,1.4,0,.7,0,1.4-.2.7-.2,1.4.6.7.6,1.4,0,.7,0,1.4-.5.7-.5,1.4.3.7.3,1.4-.2.7-.2,1.4.5.7.5,1.4,0,.7,0,1.4-.2.7-.2,1.4-.1.7-.1,1.4,0,.7,0,1.4.3.7.3,1.4-.9.7-.9,1.4.5.7.5,1.4,0,.7,0,1.4.5.7.5,1.4-.6.7-.6,1.4-.1.7-.1,1.4.5.7.5,1.4-.1.7-.1,1.4.2.7.2,1.4.1.7.1,1.4-.2.7-.2,1.4.3.7.3,1.5-.1.7-.1,1.4-.1.7-.1,1.4-.5.7-.5,1.5,0,.7,0,1.4,0,.7,0,1.5.1.7.1,1.5.7.9.4,1.5c-.3.7-.6.6-1.1,1.1-.5.5-.4.6-.9,1.1-.5.5-.8.2-1.3.7-.5.5-.7.3-1.2.8-.5.5-.3.7-.9,1.2-.5.5-.8.2-1.3.7-.5.5-.3.8-.8,1.3-.5.5-.6.4-1.2.9-.5.5-.8.2-1.3.7-.5.5,0,1-.6,1.5-.5.5-.5.6-1,1.1-.5.5-.8.2-1.4.6-.5.5-.7.3-1.3.8-.5.5-.6.5-1.1.9-.5.5-.2.9-.7,1.3-.5.5-.4.6-1,1.1-.5.5-.4.6-1,1.1-.5.5-.5.6-1,1-.5.5-.7.3-1.2.8-.5.5-.6.4-1.1.9-.5.5-.6.4-1.1.9-.5.5-.8.2-1.4.6-.5.5-.4.6-.9,1.1-.5.5-.1.9-.7,1.4-.5.5-.6.5-1.1.9-.5.5-.9,0-1.4.6-.5.5-.7.3-1.2.8-.5.5-.5.5-1.1,1-.5.5-.4.7-.9,1.2-.5.5-.2.8-.7,1.3q-.5.5-1.1,1c-.5.5-.7.3-1.3.8s-.8.2-1.4.6c-.5.5-.4.6-1,1.1-.5.5-.6.5-1.1,1-.5.5-.3.8-.8,1.3-.5.5-.3.7-.9,1.2-.5.5-.8.2-1.3.7s-.7.4-1.2.8-.4.6-1,1.1-.4.6-.9,1.1c-.5.5-.4.6-1,1.1-.5.5-.6.5-1.1.9-.5.5-.7.3-1.2.8-.5.5-.2.8-.8,1.3-.5.5-.7.3-1.2.8-.5.5-.9,0-1.5.5-.5.5-.3.8-.8,1.3-.5.5-.3.8-.8,1.3-.5.5-.8.2-1.3.7-.5.5-.8.2-1.3.7-.5.5-.2.8-.7,1.3-.5.5-.6.4-1.1.9-.5.5-.5.6-1,1-.5.5-.6.4-1.1.9-.5.5-.4.6-1,1.1-.5.5-.9,0-1.5.5-.5.5-.5.5-1,1-.5.5,0,1-.6,1.5-.5.5-.5.6-1,1.1-.5.5-.6.4-1.2.9-.5.5-.9,0-1.4.6-.5.5-.2.8-.8,1.3-.5.5-.5.5-1.1,1-.5.5-.5.5-1,1-.5.5-.7.1-1.4.4-.7.3-.6.5-1.3.5s-.7-.4-1.4-.4-.7.5-1.4.5-.7,0-1.4,0-.7,0-1.4,0-.7-.6-1.4-.6-.7.2-1.4.2-.7.4-1.4.4-.7-.5-1.4-.5-.7.4-1.4.4-.7,0-1.4,0-.7.3-1.4.3-.7,0-1.4,0-.7-.7-1.4-.7-.7.2-1.4.2-.7,0-1.4,0-.7-.2-1.4-.2-.7.7-1.4.7-.7,0-1.4,0-.7,0-1.4,0-.7,0-1.4,0-.7,0-1.4,0-.7,0-1.4,0-.7-.5-1.4-.5-.7-.1-1.4-.1-.7.6-1.4.6-.7,0-1.4,0-.7,0-1.4,0-.7-.7-1.4-.7-.7,0-1.4,0-.7.7-1.4.7-.7,0-1.4,0-.7-.4-1.4-.4-.7.4-1.4.4-.7-.4-1.4-.4-.7.2-1.4.2-.7-.6-1.4-.6-.7.8-1.4.8-.7-.6-1.4-.6-.7-.3-1.4-.3-.7.2-1.4.2-.7.4-1.4.4-.7-.4-1.4-.4-.7.3-1.4.3-.7-.3-1.4-.3-.7.3-1.4.3-.7,0-1.4,0-.7,0-1.4,0-.7.2-1.4.2-.7-.2-1.4-.2-.7.1-1.4.1-.7,0-1.4,0-.7-.5-1.4-.5-.7.8-1.4.8-.7-.3-1.4-.3-.7-.6-1.4-.6-.7.2-1.4.2-.7.3-1.4.3-.7-.3-1.4-.3-.7.4-1.4.4-.7-.6-1.4-.6-.7.3-1.4.3-.7,0-1.4,0-.7-.2-1.4-.2-.7.4-1.4.4-.7.2-1.4.2-.7-.7-1.4-.7-.7.6-1.4.6-.7,0-1.4,0-.7-.6-1.4-.6-.7.6-1.4.6-.7.1-1.4.1-.7,0-1.4,0-.7-.6-1.4-.6-.7.5-1.4.5-.7.2-1.4.2-.7-.8-1.4-.8-.7.2-1.4.2-.7,0-1.4,0-.7.5-1.4.5-.7.1-1.4.1-.7-.2-1.4-.2-.7.2-1.4.2-.7-.2-1.4-.2-.7,0-1.4,0-.7,0-1.4,0-.7-.4-1.4-.4-.7.3-1.4.3-.7-.5-1.4-.5-.7.5-1.4.5-.7,0-1.4,0-.7-.2-1.4-.2-.7,0-1.4,0-.7.3-1.4.3-.7-.2-1.4-.2-.7-.2-1.4-.2-.7.3-1.4.3-.7-.2-1.4-.2-.7-.2-1.4-.2-.7.4-1.4.4-.7-.1-1.4-.1-.7,0-1.4,0-.7-.5-1.4-.5-.7.5-1.4.5-.7-.6-1.4-.6-.7.5-1.4.5-.7,0-1.4,0-.7-.4-1.4-.4-.7.5-1.4.5-.7,0-1.4,0-.7-.3-1.4-.3-.7.2-1.4.2-.7.2-1.4.2-.7-.5-1.4-.5-.7.6-1.4.6-.7-.6-1.4-.6-.7.6-1.4.6-.7,0-1.4,0-.7-.5-1.4-.5-.7.5-1.4.5-.7-.5-1.4-.5-.7-.2-1.4-.2-.7.3-1.4.3-.7-.2-1.4-.2-.7.2-1.4.2-.7,0-1.4,0-.7,0-1.4,0-.7.1-1.4.1-.7-.6-1.4-.6-.7.1-1.4.1-.7-.2-1.4-.2-.7.7-1.4.7-.7-.2-1.4-.2-.7-.6-1.4-.6-.7.6-1.4.6-.7,0-1.4,0-.7-.3-1.4-.3-.7.4-1.4.4-.7-.3-1.4-.3-.7-.3-1.4-.3-.7.3-1.4.3-.7,0-1.4,0-.7,0-1.4,0-.7-.3-1.4-.3-.7.4-1.4.4-.7-.1-1.4-.1-.7.2-1.4.2-.7,0-1.4,0-.7-.4-1.4-.4-.7-.4-1.4-.4-.7.2-1.4.2-.7.4-1.4.4-.7-.3-1.4-.3-.7.4-1.4.4-.7-.3-1.4-.3-.7.2-1.4.2-.7,0-1.4,0-.7,0-1.4,0-.7-.4-1.4-.4-.7-.2-1.4-.2-.7.4-1.4.4-.7,0-1.4,0-.7.2-1.4.2-.7-.4-1.4-.4-.7.6-1.4.6-.7-.7-1.4-.7-.7.3-1.4.3-.7-.1-1.4-.1-.7.2-1.4.2-.7.3-1.4.3-.7-.2-1.4-.2-.7-.4-1.4-.4-.7.3-1.4.3-.7-.5-1.4-.5-.7.1-1.4.1-.7.3-1.4.3-.7.2-1.4.2-.7-.4-1.4-.4-.7.2-1.4.2c-.7,0-.7,0-1.5,0s-1-.3-1.5-.5c-.5-.2-1.2,0-1.6-.3-.4-.3-1-.6-1.3-1-.3-.4-.5-1.1-.7-1.6-.2-.5-.3-1.1-.3-1.7s.5-1.1.7-1.6c.2-.5.6-.9.9-1.3.3-.4.6-.8,1-1.1.4-.3.8-.8,1.3-1,.5-.2,1.1-.5,1.6-.5s.7.6,1.4.6.7-.4,1.4-.4.7,0,1.4,0,.7.3,1.4.3.7-.2,1.4-.2.7.3,1.4.3.7-.5,1.4-.5.7.9,1.4.9.7-.1,1.4-.1.7-.5,1.4-.5.7.6,1.4.6.7-.4,1.4-.4.7-.4,1.4-.4.7.2,1.4.2.7-.2,1.4-.2.7.8,1.4.8.7-.1,1.4-.1.7-.4,1.4-.4.7,0,1.4,0,.7,0,1.4,0,.7-.2,1.4-.2.7.7,1.4.7.7-.1,1.4-.1.7,0,1.4,0,.7-.7,1.4-.7.7.3,1.4.3.7.2,1.4.2.7.2,1.4.2.7-.2,1.4-.2.7-.2,1.4-.2.7.2,1.4.2.7-.1,1.4-.1.7-.3,1.4-.3.7,0,1.4,0,.7.4,1.4.4.7,0,1.4,0,.7,0,1.4,0,.7,0,1.4,0,.7,0,1.4,0,.7-.6,1.4-.6.7.1,1.4.1.7.6,1.4.6.7,0,1.4,0,.7-.2,1.4-.2.7-.5,1.4-.5.7.3,1.4.3.7.4,1.4.4.7,0,1.4,0,.7-.5,1.4-.5.7.1,1.4.1.7,0,1.4,0,.7.1,1.4.1.7,0,1.4,0,.7-.5,1.4-.5.7.8,1.4.8.7-.8,1.4-.8.7.5,1.4.5.7,0,1.4,0,.7-.2,1.4-.2.7.4,1.4.4.7-.4,1.4-.4.7.5,1.4.5.7-.8,1.4-.8.7.8,1.4.8.7,0,1.4,0,.7-.2,1.4-.2.7,0,1.4,0,.7-.1,1.4-.1.7-.1,1.4-.1.7-.1,1.4-.1.7.2,1.4.2.7-.2,1.4-.2.7.2,1.4.2.7-.2,1.4-.2.7,0,1.4,0,.7.4,1.4.4.7.3,1.4.3.7-.5,1.4-.5.7-.3,1.4-.3.7.6,1.4.6.7.2,1.4.2.7-.8,1.4-.8.7.1,1.4.1.7-.2,1.4-.2.7.4,1.4.4.7.4,1.4.4.7-.3,1.4-.3.7.2,1.4.2.7-.2,1.4-.2.7,0,1.4,0,.7.4,1.4.4.7,0,1.4,0,.7-.6,1.4-.6.7.7,1.4.7.7-.6,1.4-.6.7.2,1.4.2.7,0,1.4,0,.7,0,1.4,0,.7,0,1.4,0,.7-.3,1.4-.3.7,0,1.4,0,.7.2,1.4.2.7.2,1.4.2.7-.2,1.4-.2.7.2,1.4.2.7-.7,1.4-.7.7,0,1.4,0,.7.4,1.4.4.7-.3,1.4-.3.7,0,1.4,0,.7.4,1.4.4.7.3,1.4.3.7-.6,1.4-.6.7.3,1.4.3.7-.4,1.4-.4.7.7,1.4.7.7-.4,1.4-.4.7.5,1.4.5.7-.3,1.4-.3.7.2,1.4.2.7-.3,1.4-.3.7,0,1.4,0,.7,0,1.4,0,.7,0,1.4,0,.7.5,1.4.5.7-.5,1.4-.5.7.2,1.4.2.7-.2,1.4-.2.7,0,1.4,0,.7-.2,1.4-.2.7.2,1.4.2.7,0,1.4,0,.7-.2,1.4-.2.7.7,1.4.7.7-.5,1.4-.5.7.3,1.4.3.7-.3,1.4-.3.7.3,1.4.3.7,0,1.4,0,.7,0,1.4,0,.7-.4,1.4-.4.7.3,1.4.3.7-.4,1.4-.4.7-.2,1.4-.2.7,0,1.4,0,.7.3,1.4.3.7,0,1.4,0,.7.5,1.4.5.7-.3,1.4-.3.7.2,1.4.2.7-.3,1.4-.3.7-.1,1.4-.1.7-.2,1.4-.2.7.1,1.4.1.7.6,1.4.6.7-.3,1.4-.3.7,0,1.4,0,.7-.4,1.4-.4.7.6,1.4.6.7-.5,1.4-.5.7-.1,1.4-.1.7.4,1.4.4.7.3,1.4.3.7-.3,1.4-.3.7,0,1.4,0,.7-.6,1.4-.6.7,0,1.4,0,.7.3,1.4.3.7,0,1.4,0,.7-.1,1.4-.1.7.5,1.4.5.7-.6,1.5-.6.7,0,1.5,0,.9.1,1.4,0c.5,0,.9.1,1.4,0,.5,0,.9,0,1.4-.2.4-.1.8-.5,1.3-.7s.8-.4,1.3-.6c.4-.2,1,0,1.4-.3.4-.2.8-.5,1.2-.8.4-.3.3-1.1.6-1.5.5-.5,1.1,0,1.6-.4.5-.5,0-1,.5-1.5.5-.5.6-.4,1.1-.9s.6-.4,1.1-.9c.5-.5.9,0,1.4-.6.5-.5.2-.8.7-1.3.5-.5.8-.2,1.3-.7.5-.5.2-.8.7-1.3.5-.5.8-.2,1.3-.7.5-.5,0-1,.6-1.4.5-.5.7-.3,1.2-.8.5-.5.6-.5,1.1-.9.5-.5.8-.2,1.3-.7.5-.5.6-.5,1.1-.9s.3-.8.8-1.3c.5-.5.7-.3,1.2-.8.5-.5.6-.5,1.1-.9.5-.5.5-.5,1-1,.5-.5.3-.7.9-1.2.5-.5.4-.6.9-1.1.5-.5.7-.3,1.3-.7.5-.5.4-.6.9-1.1.5-.5.6-.4,1.2-.9.5-.5.8-.2,1.3-.7.5-.5,0-1.1.5-1.6.5-.5.8-.1,1.4-.6.5-.5.8-.2,1.3-.7.5-.5.5-.6,1-1.1.5-.5.1-.9.6-1.4.5-.5.6-.4,1.1-.9.5-.5.7-.3,1.2-.8.5-.5.3-.7.9-1.2.5-.5,1,0,1.6-.4.5-.5,0-1,.6-1.5s.6-.4,1.2-.9c.5-.5.7-.3,1.3-.8.5-.5.3-.8.8-1.3.5-.5.5-.5,1.1-1,.5-.5.4-.6.9-1.1.5-.5.7-.3,1.2-.8.5-.5.7-.3,1.2-.8.5-.5.2-.8.8-1.3.5-.5.7-.3,1.2-.8.5-.5.9,0,1.4-.6.5-.5,0-1,.6-1.5.5-.5.9-.1,1.4-.6.5-.5.3-.7.9-1.2.5-.5.4-.7.9-1.2.5-.5,1,0,1.5-.5.5-.5.2-.9.7-1.4.5-.5,1,0,1.5-.5s.3-.7.9-1.2c.3-.3.4-.8.7-1.2.3-.3.4-.8.7-1.2.3-.4,1.2-.3,1.4-.7.2-.4.2-.9.4-1.4.2-.4.5-.8.6-1.2.2-.4.2-.9.4-1.3.1-.4,0-.9,0-1.4,0-.5.4-.9.4-1.3,0-.5-.4-.9-.4-1.4,0-.7.4-.7.4-1.5s.2-.7.2-1.5,0-.7,0-1.5-.2-.7-.2-1.5-.3-.7-.3-1.5.1-.7.1-1.5.7-.7.7-1.5-.5-.7-.5-1.5.4-.7.4-1.5-.5-.7-.5-1.5,0-.7,0-1.5.4-.7.4-1.5.2-.7.2-1.5-.3-.7-.3-1.5.2-.7.2-1.5-.4-.7-.4-1.5-.3-.7-.3-1.5,0-1,0-1.4c0-.5,0-1,0-1.5,0-.5.4-1.1.2-1.6-.1-.5-.7-.8-.9-1.3-.2-.5-.8-.7-1-1.1-.2-.4.1-1.2-.1-1.6-.3-.4-.7-.7-1-1.1-.3-.4-.6-.8-1-1.1-.3-.3-.7-.7-1.1-1-.4-.3-.9-.4-1.3-.7-.4-.3-.8-.5-1.2-.8-.4-.2-1-.1-1.4-.3-.5-.2-.8-.7-1.2-.9-.5-.1-.9-.7-1.4-.8-.5,0-1,.1-1.5,0-.5,0-1,.4-1.5.4-.7,0-.7-.2-1.4-.2s-.7.1-1.4.1-.7-.5-1.4-.5-.7.3-1.4.3-.7-.4-1.4-.4-.7.7-1.4.7-.7.1-1.4.1-.7-.4-1.4-.4-.7,0-1.4,0-.7-.5-1.4-.5-.7.6-1.4.6-.7.2-1.4.2-.7,0-1.4,0-.7-.2-1.4-.2-.7-.2-1.4-.2-.7.1-1.4.1-.7-.2-1.4-.2-.7,0-1.4,0-.7-.2-1.4-.2-.7,0-1.4,0-.7.3-1.4.3-.7.2-1.4.2-.7.1-1.4.1-.7-.5-1.4-.5-.7.4-1.4.4-.7.3-1.4.3-.7,0-1.4,0-.7-.5-1.4-.5-.7,0-1.4,0-.7.4-1.4.4-.7-.3-1.4-.3-.7-.1-1.4-.1-.7.4-1.4.4-.7-.4-1.4-.4-.7.1-1.4.1-.7-.4-1.4-.4-.7.4-1.4.4-.7-.3-1.4-.3-.7.6-1.4.6-.7-.6-1.4-.6-.7.7-1.4.7-.7-.7-1.4-.7-.7,0-1.4,0-.7.6-1.4.6-.7.2-1.4.2-.7-.6-1.4-.6-.7,0-1.4,0-.7.7-1.4.7-.7-.4-1.4-.4-.7-.2-1.4-.2-.7.3-1.4.3-.7-.2-1.4-.2-.7.3-1.4.3-.7-.1-1.4-.1-.7,0-1.4,0-.7,0-1.4,0-.7-.4-1.4-.4-.7.4-1.4.4-.7-.3-1.4-.3-.7,0-1.4,0-.7,0-1.4,0-.7.6-1.4.6-.7.2-1.4.2-.7-.7-1.4-.7-.7.3-1.4.3-.7-.4-1.4-.4-.7,0-1.4,0-.7.5-1.4.5-.7-.1-1.4-.1-.7-.4-1.4-.4-.7.3-1.4.3-.7,0-1.4,0-.7-.4-1.4-.4-.7.4-1.4.4-.7.2-1.4.2-.7-.8-1.4-.8-.7.4-1.4.4-.7,0-1.4,0-.7-.2-1.4-.2-.7.4-1.4.4-.7-.1-1.4-.1-.7-.4-1.4-.4-.7.2-1.4.2-.7.1-1.4.1-.7-.2-1.4-.2-.7.2-1.4.2-.7.5-1.4.5-.7,0-1.4,0-.7-.6-1.4-.6-.7,0-1.4,0-.7.7-1.4.7-.7-.3-1.4-.3-.7-.2-1.4-.2-.7-.3-1.4-.3-.7.3-1.4.3-.7-.3-1.4-.3-.7.8-1.4.8-.7-.5-1.4-.5-.7.3-1.4.3-.7,0-1.4,0-.7.2-1.4.2-.7,0-1.4,0-.7-.7-1.4-.7-.7.9-1.4.9-.7-.5-1.4-.5-.7-.1-1.4-.1-.7,0-1.4,0-.7.5-1.4.5-.7,0-1.4,0-.7-.5-1.4-.5-.7,0-1.4,0-.7-.1-1.4-.1-.7,0-1.4,0-.7-.1-1.4-.1-.7.9-1.4.9-.7-.6-1.4-.6-.7,0-1.4,0-.7-.3-1.4-.3-.7,0-1.4,0-.7.5-1.4.5-.7-.4-1.4-.4-.7-.1-1.4-.1-.7.7-1.4.7-.7,0-1.4,0-.7-.3-1.4-.3-.7-.4-1.4-.4-.7.1-1.4.1-.7.4-1.4.4-.7.2-1.4.2-.7-.7-1.4-.7-.7.5-1.4.5-.7.2-1.4.2-.7-.4-1.4-.4-.7.2-1.4.2-.7-.6-1.4-.6-.7.6-1.4.6-.7.3-1.4.3-.7-.6-1.4-.6-.7.7-1.4.7-.7-.4-1.4-.4-.7-.3-1.4-.3-.7,0-1.4,0-.7.6-1.4.6-.7-.9-1.4-.9-.7,0-1.4,0-.7.9-1.4.9-.7-.4-1.4-.4-.7.3-1.4.3-.7,0-1.4,0-.7,0-1.4,0-.7-.7-1.4-.7-.7,0-1.4,0-.7,0-1.4,0-.7.3-1.4.3-.7,0-1.4,0-.7-.2-1.4-.2-.7.6-1.4.6-.7-.2-1.4-.2-.7-.1-1.4-.1-.7.2-1.4.2-.7-.2-1.4-.2-.7.2-1.4.2-.7.3-1.4.3-.7-.4-1.4-.4-.7,0-1.4,0-.7.3-1.4.3-.7-.4-1.4-.4-.7.2-1.4.2-.7.5-1.4.5-.7-.7-1.4-.7-.7,0-1.4,0-.7-.1-1.4-.1-.7.8-1.4.8-.7,0-1.4,0-.7-.9-1.4-.9-.7.5-1.4.5-.7.1-1.4.1-.7.2-1.4.2-.7-.8-1.4-.8-.7.2-1.4.2-.7-.3-1.4-.3-.7.3-1.4.3-.7.2-1.4.2-.7.3-1.4.3-.7.2-1.4.2-.7-.3-1.4-.3-.7-.1-1.4-.1-.7-.2-1.4-.2-.7.6-1.4.6-.7,0-1.4,0-.7-.4-1.4-.4-.7.2-1.4.2-.7.3-1.4.3-.7,0-1.4,0-.7-.8-1.4-.8-.7,0-1.4,0-.7.2-1.4.2-.7.7-1.4.7-.7-.3-1.4-.3-.7,0-1.4,0-.7-.3-1.4-.3-.7.4-1.4.4-.7-.5-1.4-.5-.7,0-1.4,0-.7.2-1.4.2-.7-.5-1.4-.5-.7.7-1.4.7-.7,0-1.4,0-.7-.6-1.4-.6-.7.4-1.4.4-.7-.3-1.4-.3-.7.7-1.4.7-.7-.9-1.4-.9-.7,0-1.4,0-.7.2-1.4.2-.7.3-1.4.3-.7-.4-1.4-.4-.7.1-1.4.1-.7.5-1.4.5-.7-.5-1.4-.5-.7.5-1.4.5-.7,0-1.4,0-.7,0-1.4,0-.7-.1-1.4-.1-.7,0-1.4,0-.7-.4-1.4-.4-.7.5-1.4.5-.7-.3-1.4-.3-.7.2-1.4.2-.7,0-1.4,0-.7.1-1.4.1-.7-.8-1.4-.8-.7.3-1.4.3-.7,0-1.4,0-.7,0-1.4,0C23,130.9.7,186.4,0,247.2c.5.2.6.8,1.2.8s.7-1.1,1.4-1.1.7.8,1.4.8.7-.1,1.4-.1.7.6,1.4.6.7,0,1.4,0,.7-.3,1.4-.3.7-1,1.4-1,.7.7,1.4.7.7-.7,1.4-.7.7,0,1.4,0,.7.7,1.4.7.7,0,1.4,0,.7.5,1.4.5.7-.4,1.4-.4.7-.8,1.4-.8.7.1,1.4.1.7.3,1.4.3.7-.6,1.4-.6.7,1,1.4,1,.7-.8,1.4-.8.7.6,1.4.6.7-.6,1.4-.6.7.4,1.4.4.7-.2,1.4-.2.7.2,1.4.2.7-.2,1.4-.2.7-.2,1.4-.2.7.4,1.4.4.7.8,1.4.8.7-.4,1.4-.4.7-.1,1.4-.1.7-.2,1.4-.2.7-.3,1.4-.3.7.3,1.4.3.7.6,1.4.6.7-.4,1.4-.4.7-.9,1.4-.9.7,1.4,1.4,1.4.7-.3,1.4-.3.7-.5,1.4-.5.7,0,1.4,0,.7.2,1.4.2.7.3,1.4.3.7-.6,1.4-.6.7.6,1.4.6.7-.3,1.4-.3.7,0,1.4,0,.7-.8,1.4-.8.7.3,1.4.3.7-.2,1.4-.2.7.7,1.4.7.7.4,1.4.4.7-1,1.4-1,.7,1.2,1.4,1.2.7-.2,1.4-.2.7-.6,1.4-.6.7.6,1.4.6.7-.4,1.4-.4.7.3,1.4.3.7.2,1.4.2.7-1.2,1.4-1.2.7,0,1.4,0,.7.5,1.4.5.7-.2,1.4-.2.7.7,1.4.7.7,0,1.4,0,.7-.8,1.4-.8.7.8,1.4.8.7,0,1.4,0,.7-.6,1.4-.6.7-.6,1.4-.6.7,1.4,1.4,1.4.7-.4,1.4-.4.7.1,1.4.1.7.2,1.4.2.7,0,1.4,0,.7-.3,1.4-.3.7-.2,1.4-.2.7,0,1.4,0,.7-.3,1.4-.3.7-.4,1.4-.4.7.2,1.4.2.7,1.1,1.4,1.1.7-1.3,1.4-1.3.7,0,1.4,0,.7.3,1.4.3.7.3,1.4.3.7.2,1.4.2.7-.5,1.4-.5.7.9,1.4.9.7-1.1,1.4-1.1.7.1,1.4.1.7.3,1.4.3.7.2,1.4.2.7.4,1.4.4.7-.7,1.4-.7.7,0,1.4,0,.7-.4,1.4-.4.7.3,1.4.3.7,1.1,1.4,1.1.7-.7,1.4-.7.7.1,1.4.1.7.2,1.4.2.7.3,1.4.3.7-.1,1.4-.1.7.1,1.4.1.7-1.1,1.4-1.1.7.7,1.4.7.7,0,1.4,0,.7.1,1.4.1.7,0,1.4,0,.7.1,1.4.1.7-1.1,1.4-1.1.7,0,1.4,0,.7.3,1.4.3.7.9,1.4.9.7-1.1,1.4-1.1.7.7,1.4.7.7,0,1.4,0,.7-.9,1.4-.9.7,1,1.4,1,.7-1.1,1.4-1.1.7.1,1.4.1.7.6,1.4.6.7,0,1.4,0,.7,0,1.4,0,.7-.7,1.4-.7.7,0,1.4,0,.7.7,1.4.7.7.6,1.4.6.7-.6,1.4-.6.7.4,1.4.4.7-.8,1.4-.8.7,0,1.4,0,.7.8,1.4.8.7-.6,1.4-.6.7.2,1.4.2.7.5,1.4.5.7.1,1.4.1.7-.3,1.4-.3.7-.7,1.4-.7.7,1,1.4,1,.7-1,1.4-1,.7.6,1.4.6.7-.3,1.4-.3.7,0,1.4,0,.7,0,1.4,0,.7.1,1.4.1.7.1,1.4.1.7-.3,1.4-.3.7-.4,1.4-.4.7.9,1.4.9.7-.1,1.4-.1.7-.8,1.4-.8.7,1,1.4,1,.7-.4,1.4-.4.7-.3,1.4-.3.7.4,1.4.4.7-.5,1.4-.5.7.5,1.4.5.7,0,1.4,0,.7,0,1.4,0,.7.3,1.4.3.7.2,1.4.2.7-.5,1.4-.5.7-.3,1.4-.3.7.9,1.4.9.7-1.1,1.4-1.1.7,1,1.4,1,.7-1.1,1.4-1.1.7-.2,1.4-.2.7.5,1.4.5.7,0,1.4,0,.7.3,1.4.3.7-.2,1.4-.2.7.2,1.4.2.7,0,1.4,0,.7-.5,1.4-.5.7-.1,1.4-.1.7.7,1.4.7.7-1,1.4-1,.7.6,1.4.6.7.7,1.4.7.7-1.2,1.4-1.2.7.8,1.4.8.7.3,1.4.3.7-.7,1.4-.7.7-.4,1.4-.4.7.2,1.4.2.7,0,1.4,0,.7,0,1.4,0,.7,0,1.4,0,.7-.2,1.4-.2.7,0,1.4,0,.7.2,1.4.2.7.9,1.4.9.7-.4,1.4-.4.7-.8,1.4-.8.7.9,1.4.9.7-.5,1.4-.5.7.8,1.4.8.7-.9,1.4-.9.7.4,1.4.4.7,0,1.4,0,.7,0,1.4,0,.7,0,1.4,0,.7.2,1.4.2.7-.6,1.4-.6.7.6,1.4.6.7,0,1.4,0,.7-.7,1.4-.7.7.2,1.4.2.7.5,1.4.5.7-.7,1.4-.7.7-.3,1.4-.3.7.4,1.4.4.7.4,1.4.4.7-.5,1.4-.5.7,1.1,1.4,1.1.7-1.1,1.4-1.1.7.5,1.4.5.7.5,1.4.5.7-1,1.4-1,.7.5,1.4.5.7.6,1.4.6.7-.6,1.4-.6.7.2,1.4.2.7.1,1.4.1.7-.1,1.4-.1.7-.5,1.4-.5.7.9,1.4.9.7-1.1,1.4-1.1.7.4,1.4.4.7.5,1.4.5.7-.1,1.4-.1.7-.7,1.4-.7.7,1,1.4,1,.7-.2,1.4-.2.7-1,1.4-1,.7.4,1.4.4.7-.2,1.4-.2.7,1,1.4,1,.7-.2,1.4-.2.7-.8,1.4-.8.7.3,1.4.3.7.9,1.4.9.7-1.3,1.4-1.3.7.9,1.4.9.7-.7,1.4-.7.7-.2,1.4-.2.7,0,1.4,0,.7.1,1.4.1.7.7,1.4.7.7-.8,1.4-.8.7,0,1.4,0,.7,0,1.4,0,.7.5,1.4.5.7.4,1.4.4.7-.5,1.4-.5.7-.1,1.4-.1.7.1,1.4.1.7.8,1.4.8.7-1.2,1.4-1.2.7.8,1.4.8.7,0,1.4,0,.7-.2,1.4-.2.7-.4,1.4-.4.7,0,1.4,0,.7,1.2,1.4,1.2.7-.7,1.4-.7.7.1,1.4.1.7-.2,1.4-.2.7-.2,1.4-.2.7,0,1.4,0,.7.9,1.4.9.7,0,1.4,0,.7-.7,1.4-.7.7.4,1.4.4.7.3,1.4.3.7-.2,1.4-.2.7.3,1.4.3.7-1.2,1.4-1.2.7,1.2,1.4,1.2.7-.9,1.4-.9.7,0,1.4,0,.7.9,1.4.9.7-1.2,1.4-1.2.7,1,1.4,1,.7,0,1.4,0,.7-.5,1.4-.5.7-.3,1.4-.3.7,1.1,1.4,1.1.7-.4,1.4-.4.7.2,1.4.2.7-.7,1.4-.7.7.5,1.4.5.7-.7,1.4-.7.7-.1,1.4-.1.7.7,1.4.7.7.6,1.4.6.7-.3,1.4-.3.7-.2,1.4-.2.7-.2,1.4-.2.7,0,1.4,0,.7-.4,1.4-.4.7-.1,1.4-.1.7.2,1.4.2.7.4,1.4.4.7-.5,1.4-.5.7.3,1.4.3.7-.4,1.4-.4.7-.4,1.4-.4.7,1.3,1.4,1.3.7-1.2,1.4-1.2.7,0,1.4,0,.7.5,1.4.5.7.2,1.4.2.7-.8,1.4-.8.7.7,1.4.7.7.2,1.4.2.7-.6,1.4-.6.7.7,1.4.7.7,0,1.4,0,.7-1,1.4-1,.7,1.2,1.4,1.2.7-.3,1.4-.3.7-.8,1.4-.8.7.7,1.4.7.7.4,1.4.4.7-.8,1.4-.8.7.6,1.4.6.7-1.1,1.4-1.1.7.8,1.4.8.7,0,1.4,0,.7-.5,1.4-.5.7-.3,1.4-.3.7.4,1.4.4.7-.2,1.4-.2.7.7,1.4.7.7.4,1.4.4.7-.7,1.4-.7.7.2,1.4.2.7-.3,1.4-.3.7.3,1.4.3h1.4c.7,0,.7.4,1.4.4s.2,0,.3,0C498.8,110.7,387.3,0,250,0S114.2,29.9,68.6,78c.2,0,.4-.2.8-.2ZM163.4,139.3c.2-.5.5-.9.8-1.3.3-.4.5-1,.9-1.3.4-.3.9-.5,1.5-.7.5-.2,1,0,1.6,0s.7,0,1.4,0,.7-.3,1.4-.3.7.3,1.4.3.7-.2,1.4-.2.7,0,1.4,0,.7,0,1.4,0,.7,0,1.4,0,.7,0,1.4,0,.7.1,1.4.1.7-.1,1.4-.1.7,0,1.4,0,.7,0,1.4,0,.7.2,1.4.2.7-.1,1.4-.1.7,0,1.4,0,.7,0,1.4,0,.7-.1,1.4-.1.7,0,1.4,0,.7-.2,1.4-.2.7.3,1.4.3.7,0,1.4,0,.7-.1,1.4-.1.7.1,1.4.1.7-.1,1.4-.1.7,0,1.4,0,.7,0,1.4,0,.7-.2,1.4-.2.7,0,1.4,0,.7,0,1.4,0,.7,0,1.4,0,.7,0,1.4,0,.7,0,1.4,0,.7.2,1.4.2.7,0,1.4,0,.7,0,1.4,0,.7-.2,1.4-.2.7.2,1.4.2.7,0,1.4,0,.7,0,1.4,0,.7,0,1.4,0,.7,0,1.4,0,.7,0,1.4,0,.7,0,1.4,0,.7-.2,1.4-.2.7,0,1.4,0,.7,0,1.4,0,.7,0,1.4,0,.7.2,1.4.2.7,0,1.4,0,.7,0,1.4,0,.7-.1,1.4-.1.7,0,1.4,0,.7.2,1.4.2.7-.2,1.4-.2.7,0,1.4,0,.7.1,1.4.1.7,0,1.4,0,.7.1,1.4.1.7-.2,1.4-.2.7.4,1.4.4.7,0,1.4,0,.7-.2,1.4-.2.7.2,1.4.2.7-.2,1.4-.2.7-.2,1.4-.2.7,0,1.4,0,.7,0,1.4,0,.7.3,1.4.3.7,0,1.4,0,.7-.2,1.4-.2.7,0,1.4,0,.7,0,1.4,0,.7,0,1.4,0,.7.3,1.4.3.7,0,1.4,0,.7,0,1.4,0,.7-.3,1.4-.3.7.1,1.4.1.7,0,1.4,0,.7,0,1.4,0,.7,0,1.4,0,.7,0,1.4,0,.7,0,1.4,0,.7,0,1.4,0,.7-.1,1.4-.1.7,0,1.4,0,.7.2,1.4.2.7,0,1.4,0h1.4c.7,0,.7,0,1.4,0s.7,0,1.4,0,.7-.2,1.4-.2.7,0,1.4,0,.7.2,1.4.2.7,0,1.4,0,.7,0,1.4,0,.7-.2,1.4-.2.7.1,1.4.1.7.2,1.4.2.7,0,1.4,0,.7-.2,1.4-.2.7,0,1.4,0,.7,0,1.4,0,.7,0,1.4,0,.7,0,1.4,0,.7-.2,1.4-.2.7.3,1.4.3.7-.3,1.4-.3.7.2,1.4.2.7,0,1.4,0,.7,0,1.4,0,.7.1,1.4.1.7-.1,1.4-.1.7.2,1.4.2.7-.3,1.4-.3.7.3,1.4.3.7,0,1.4,0,.7,0,1.5,0,.7,0,1.5,0,.7,0,1.5,0,1.1,0,1.6.2c.5.2,1,.4,1.4.7.4.3.8.8,1.1,1.2.3.4.6.9.8,1.4.2.5.2,1,.2,1.6s0,1.1-.2,1.6c-.2.5-.4,1-.8,1.4-.3.4-.8.7-1.2,1-.4.3-.9.4-1.4.6-.5.2-1,.4-1.5.4s-.7.1-1.4.1-.7-.2-1.4-.2-.7,0-1.4,0-.7.3-1.4.3-.7,0-1.4,0-.7,0-1.4,0-.7-.2-1.4-.2-.7-.1-1.4-.1-.7.1-1.4.1-.7,0-1.4,0-.7,0-1.4,0-.7,0-1.4,0-.7-.1-1.4-.1-.7,0-1.4,0-.7.2-1.4.2-.7-.3-1.4-.3-.7.2-1.4.2-.7,0-1.4,0-.7,0-1.4,0-.7,0-1.4,0-.7,0-1.4,0-.7.1-1.4.1-.7,0-1.4,0-.7,0-1.4,0-.7,0-1.4,0-.7,0-1.4,0-.7,0-1.4,0-.7.3-1.4.3-.7,0-1.4,0-.7-.1-1.4-.1-.7.1-1.4.1-.7,0-1.4,0-.7-.2-1.4-.2-.7-.1-1.4-.1-.7.2-1.4.2-.7-.1-1.4-.1-.7.2-1.4.2-.7-.3-1.4-.3-.7.1-1.4.1-.7-.2-1.4-.2-.7.1-1.4.1-.7,0-1.4,0-.7.1-1.4.1-.7,0-1.4,0-.7,0-1.4,0-.7,0-1.4,0-.7-.2-1.4-.2-.7.2-1.4.2-.7,0-1.4,0-.7,0-1.4,0-.7,0-1.4,0-.7,0-1.4,0-.7,0-1.4,0-.7,0-1.4,0-.7,0-1.4,0-.7-.3-1.4-.3-.7.2-1.4.2-.7-.1-1.4-.1-.7.1-1.4.1-.7-.1-1.4-.1-.7,0-1.4,0-.7,0-1.4,0-.7.1-1.4.1-.7-.1-1.4-.1-.7.2-1.4.2-.7,0-1.4,0-.7,0-1.4,0-.7-.1-1.4-.1-.7,0-1.4,0-.7-.2-1.4-.2-.7.1-1.4.1-.7,0-1.4,0-.7.1-1.4.1-.7,0-1.4,0-.7,0-1.4,0-.7,0-1.4,0-.7-.2-1.4-.2-.7.1-1.4.1-.7,0-1.4,0-.7.1-1.4.1-.7-.2-1.4-.2-.7.2-1.4.2-.7,0-1.4,0-.7-.2-1.4-.2-.7-.1-1.4-.1-.7.1-1.4.1-.7,0-1.4,0-.7.2-1.4.2-.7,0-1.4,0-.7-.1-1.4-.1-.7,0-1.4,0-.7,0-1.4,0-.7-.2-1.4-.2-.7.2-1.4.2-.7,0-1.4,0-.7,0-1.4,0-.7,0-1.4,0-.7,0-1.4,0-.7,0-1.4,0-.7,0-1.4,0-.7-.2-1.4-.2-.7,0-1.4,0-.7.3-1.4.3-.7-.3-1.4-.3-.7.3-1.4.3-.7,0-1.4,0-.7,0-1.4,0-.7-.2-1.4-.2-.7.2-1.4.2-.7-.2-1.4-.2-.7.2-1.4.2-.7-.2-1.4-.2-.7.2-1.4.2-.7,0-1.4,0-.7,0-1.4,0-.7-.1-1.4-.1-.7,0-1.4,0-.7.2-1.5.2-.7-.1-1.5-.1-.7,0-1.5,0-1-.1-1.5-.3c-.5-.2-1-.3-1.4-.6-.4-.3-.6-.8-.9-1.3-.3-.4-.8-.7-1-1.2-.2-.5-.2-1.1-.2-1.6s.2-1.1.3-1.6Z"/>
  <path class="cls-1" d="M498.8,257.7c-.7,0-.7.2-1.4.2s-.7-.3-1.4-.3-.7.4-1.4.4-.7-.3-1.4-.3-.7.3-1.4.3-.7-.1-1.4-.1-.7-.6-1.4-.6-.7-.5-1.4-.5-.7.8-1.4.8-.7.5-1.4.5-.7-.9-1.4-.9-.7-.3-1.4-.3-.7,1.2-1.4,1.2-.7-.2-1.4-.2-.7.2-1.4.2-.7-.6-1.4-.6-.7-.6-1.4-.6-.7.4-1.4.4-.7-.4-1.4-.4-.7.3-1.4.3-.7,0-1.4,0-.7-.6-1.4-.6-.7.1-1.4.1-.7.9-1.4.9-.7-1-1.4-1-.7.9-1.4.9-.7-.3-1.4-.3-.7,0-1.4,0-.7,0-1.4,0-.7,0-1.4,0-.7.4-1.4.4-.7,0-1.4,0-.7-.3-1.4-.3-.7-.3-1.4-.3-.7.3-1.4.3-.7-.3-1.4-.3-.7,1.1-1.4,1.1-.7,0-1.4,0-.7-.5-1.4-.5-.7.5-1.4.5-.7,0-1.4,0-.7-.6-1.4-.6-.7-.4-1.4-.4-.7.9-1.4.9-.7-.4-1.4-.4-.7.6-1.4.6-.7-1-1.4-1-.7.6-1.4.6-.7-.8-1.4-.8-.7.4-1.4.4-.7-.3-1.4-.3-.7.4-1.4.4-.7,0-1.4,0-.7,0-1.4,0-.7.1-1.4.1-.7-.8-1.4-.8-.7.8-1.4.8-.7-.3-1.4-.3-.7.3-1.4.3-.7,0-1.4,0-.7.3-1.4.3-.7-.3-1.4-.3-.7,0-1.4,0-.7.3-1.4.3-.7-1.1-1.4-1.1-.7.8-1.4.8-.7-.5-1.4-.5-.7.4-1.4.4-.7-.5-1.4-.5-.7,0-1.4,0-.7,0-1.4,0-.7.6-1.4.6-.7-.5-1.4-.5-.7.7-1.4.7-.7.3-1.4.3-.7,0-1.4,0-.7-.4-1.4-.4-.7.1-1.4.1-.7-.7-1.4-.7-.7.5-1.4.5-.7-.4-1.4-.4-.7.4-1.4.4-.7.2-1.4.2-.7.3-1.4.3-.7-.2-1.4-.2-.7-.9-1.4-.9-.7.5-1.4.5-.7,0-1.4,0-.7.6-1.4.6-.7-.9-1.4-.9-.7.8-1.4.8-.7.2-1.4.2-.7-.6-1.4-.6-.7-.5-1.4-.5-.7.4-1.4.4-.7,0-1.4,0-.7.9-1.4.9-.7-.1-1.4-.1-.7-.5-1.4-.5-.7,0-1.4,0-.7.2-1.4.2-.7-.7-1.4-.7-.7.9-1.4.9-.7,0-1.4,0-.7-.2-1.4-.2-.7-.3-1.4-.3-.7-.2-1.4-.2-.7.3-1.4.3-.7,0-1.4,0-.7-.7-1.4-.7-.7,0-1.4,0-.7,1.1-1.4,1.1-.7-1.2-1.4-1.2-.7,1.2-1.4,1.2-.7-.2-1.4-.2-.7-.2-1.4-.2-.7-.8-1.4-.8-.7.7-1.4.7-.7-.6-1.4-.6-.7.7-1.4.7-.7-.7-1.4-.7-.7,1-1.4,1-.7-.3-1.4-.3-.7,0-1.4,0-.7-.6-1.4-.6-.7,0-1.4,0-.7.6-1.4.6-.7-.4-1.4-.4-.7,0-1.4,0-.7,0-1.4,0-.7.4-1.4.4-.7.3-1.4.3-.7-.5-1.4-.5-.7.3-1.4.3-.7-.3-1.4-.3-.7-.6-1.4-.6-.7,1.3-1.4,1.3-.7-.7-1.4-.7-.7-.5-1.4-.5-.7.2-1.4.2-.7.9-1.4.9-.7-.2-1.4-.2-.7-.3-1.4-.3-.7.4-1.4.4-.7-1.1-1.4-1.1-.7,1.1-1.4,1.1-.7-.2-1.4-.2-.7-.4-1.4-.4-.7.6-1.4.6-.7,0-1.4,0-.7.2-1.4.2-.7-.3-1.4-.3-.7-.4-1.4-.4-.7.7-1.4.7-.7-.3-1.4-.3-.7-.8-1.4-.8-.7,1.2-1.4,1.2-.7-.8-1.4-.8-.7.5-1.4.5-.7.4-1.4.4-.7-1-1.4-1-.7.8-1.4.8-.7-1-1.4-1-.7.5-1.4.5-.7.5-1.4.5-.7.3-1.4.3-.7-1.2-1.4-1.2-.7.4-1.4.4-.7-.1-1.4-.1-.7.1-1.4.1-.7.4-1.4.4-.7-.4-1.4-.4-.7.7-1.4.7-.7-.6-1.4-.6-.7-.3-1.4-.3-.7,0-1.4,0-.7.3-1.4.3-.7.5-1.4.5-.7-.2-1.4-.2-.7-1-1.4-1-.7.7-1.4.7-.7-.6-1.4-.6-.7.8-1.4.8-.7-.1-1.4-.1-.7-.6-1.4-.6-.7-.3-1.4-.3-.7.4-1.4.4-.7-.3-1.4-.3-.7.7-1.4.7-.7.5-1.4.5-.7-.2-1.4-.2-.7-.2-1.4-.2-.7-1-1.4-1-.7.6-1.4.6-.7.7-1.4.7-.7-1.1-1.4-1.1-.7.3-1.4.3-.7,0-1.4,0-.7,0-1.4,0-.7.4-1.4.4-.7,0-1.4,0-.7.5-1.4.5-.7-.6-1.4-.6-.7-.6-1.4-.6-.7.4-1.4.4-.7.7-1.4.7-.7-.3-1.4-.3-.7.2-1.4.2-.7-.7-1.4-.7-.7.4-1.4.4-.7-.7-1.4-.7-.7,1.1-1.4,1.1-.7.2-1.4.2-.7-.6-1.4-.6-.7,0-1.4,0-.7-.8-1.4-.8-.7.9-1.4.9-.7.4-1.4.4-.7,0-1.4,0-.7-.3-1.4-.3-.7-.3-1.4-.3-.7.2-1.4.2-.7-.3-1.4-.3-.7,0-1.4,0-.7-.3-1.4-.3-.7,0-1.4,0-.7.4-1.4.4-.7.3-1.4.3-.7.2-1.4.2-.7-.7-1.4-.7-.7.6-1.4.6-.7.4-1.4.4-.7,0-1.4,0-.7-.8-1.4-.8-.7,0-1.4,0-.7.6-1.4.6-.7-.4-1.4-.4-.7-.2-1.4-.2-.7.7-1.4.7-.7-.6-1.4-.6-.7.2-1.4.2-.7-.6-1.4-.6-.7.6-1.4.6-.7-.5-1.4-.5-.7.9-1.4.9-.7-.9-1.4-.9-.7,1-1.4,1-.7-1.1-1.4-1.1-.7,0-1.4,0-.7.9-1.4.9-.7.3-1.4.3-.7-.9-1.4-.9-.7-.1-1.4-.1-.7,1-1.4,1-.7-.6-1.4-.6-.7-.2-1.4-.2-.7.5-1.4.5-.7-.3-1.4-.3-.7.4-1.4.4-.7-.2-1.4-.2-.7,0-1.4,0-.7-.1-1.4-.1-.7-.7-1.4-.7-.7.6-1.4.6-.7-.5-1.4-.5-.7-.1-1.4-.1-.7-.1-1.4-.1-.7.9-1.4.9-.7.3-1.4.3-.7-1.1-1.4-1.1-.7.5-1.4.5-.7-.7-1.4-.7-.7.1-1.4.1-.7.8-1.4.8-.7-.2-1.4-.2-.7-.5-1.4-.5-.7.4-1.4.4-.7.1-1.4.1-.7-.6-1.4-.6-.7.7-1.4.7-.7.3-1.4.3-.7-1.2-1.4-1.2-.7.6-1.4.6-.7,0-1.4,0-.7-.4-1.4-.4-.7.6-1.4.6-.7-.2-1.4-.2-.7-.7-1.4-.7-.7.4-1.4.4-.7.2-1.4.2-.7-.3-1.4-.3-.7.3-1.4.3-.7.7-1.4.7-.7-.1-1.4-.1-.7-1-1.4-1-.7,0-1.4,0-.7,1.1-1.4,1.1-.7-.5-1.4-.5-.7-.4-1.4-.4-.7-.5-1.4-.5-.7.4-1.4.4-.7-.5-1.4-.5-.7,1.2-1.4,1.2-.7-.8-1.4-.8-.7.4-1.4.4-.7.1-1.4.1-.7.3-1.4.3-.7,0-1.4,0-.7-1.1-1.4-1.1-.7,1.3-1.4,1.3-.7-.7-1.4-.7-.7-.2-1.4-.2-.7.1-1.4.1-.7.7-1.4.7-.7-.1-1.4-.1-.7-.7-1.4-.7-.7.1-1.4.1-.7-.2-1.4-.2-.7,0-1.4,0-.7-.2-1.4-.2-.7,1.3-1.4,1.3-.7-.9-1.4-.9-.7,0-1.4,0-.7-.5-1.4-.5-.7.1-1.4.1-.7.7-1.4.7-.7-.6-1.4-.6-.7-.2-1.4-.2-.7,1.1-1.4,1.1-.7.1-1.4.1-.7-.5-1.4-.5-.7-.6-1.4-.6-.7.2-1.4.2-.7.6-1.4.6-.7.4-1.4.4-.7-1.1-1.4-1.1-.7.7-1.4.7-.7.3-1.4.3-.7-.7-1.4-.7-.7.3-1.4.3-.7-.9-1.4-.9-.7.9-1.4.9-.7.4-1.4.4-.7-1-1.4-1-.7,1.1-1.4,1.1-.7-.5-1.4-.5-.2,0-.2,0c2.2,73.8,36.3,139.6,89.1,184,.1,0,.3,0,.6,0,.7,0,.7.3,1.4.3s.7.3,1.4.3.7-.3,1.4-.3.7.2,1.4.2.7-.4,1.4-.4.7,0,1.4,0,.7.4,1.4.4.7-.3,1.4-.3.7,0,1.4,0,.7.2,1.4.2.7,0,1.4,0,.7-.2,1.4-.2.7-.3,1.4-.3.7.5,1.4.5.7-.4,1.4-.4.7.3,1.4.3.7-.2,1.4-.2.7,0,1.4,0,.7,0,1.4,0,.7,0,1.4,0,.7,0,1.4,0,.7-.1,1.4-.1.7-.2,1.4-.2.7.4,1.4.4.7,0,1.4,0,.7-.4,1.4-.4.7.5,1.4.5.7-.2,1.4-.2.7-.1,1.4-.1.7.2,1.4.2.7-.2,1.4-.2.7.2,1.4.2.7,0,1.4,0,.7,0,1.4,0,.7.1,1.4.1.7,0,1.4,0,.7-.3,1.4-.3.7-.1,1.4-.1.7.4,1.4.4.7-.5,1.4-.5.7.5,1.4.5.7-.5,1.4-.5.7-.1,1.4-.1.7.2,1.4.2.7,0,1.4,0,.7.1,1.4.1.7,0,1.4,0,.7.1,1.4.1.7,0,1.4,0,.7-.2,1.4-.2.7,0,1.4,0,.7.3,1.4.3.7-.5,1.4-.5.7.3,1.4.3.7.3,1.4.3.7-.6,1.4-.6.7.4,1.4.4.7.2,1.4.2.7-.3,1.4-.3.7-.2,1.4-.2.7,0,1.4,0,.7,0,1.4,0,.7,0,1.4,0,.7,0,1.4,0,.7,0,1.4,0,.7,0,1.4,0,.7,0,1.4,0,.7.4,1.4.4.7-.2,1.4-.2.7-.4,1.4-.4.7.4,1.4.4.7-.2,1.4-.2.7.4,1.4.4.7-.4,1.4-.4.7.2,1.4.2.7,0,1.4,0,.7,0,1.4,0,.7,0,1.4,0,.7.1,1.4.1.7-.3,1.4-.3.7.3,1.4.3.7,0,1.4,0,.7-.3,1.4-.3.7.1,1.4.1.7.2,1.4.2.7-.3,1.4-.3.7-.1,1.4-.1.7.2,1.4.2.7.2,1.4.2.7-.3,1.4-.3.7.5,1.4.5.7-.5,1.4-.5.7.3,1.4.3.7.2,1.4.2.7-.5,1.4-.5.7.2,1.4.2.7.3,1.4.3.7-.3,1.4-.3.7,0,1.4,0,.7,0,1.4,0,.7,0,1.4,0,.7-.2,1.4-.2.7.4,1.4.4.7-.5,1.4-.5.7.2,1.4.2.7.2,1.4.2.7,0,1.4,0,.7-.3,1.4-.3.7.5,1.4.5.7,0,1.4,0,.7-.5,1.4-.5.7.2,1.4.2.7-.1,1.4-.1.7.5,1.4.5.7-.1,1.4-.1.7-.4,1.4-.4.7.1,1.4.1.7.4,1.4.4.7-.6,1.4-.6.7.4,1.4.4.7-.3,1.4-.3.7-.1,1.4-.1.7,0,1.4,0,.7,0,1.4,0,.7.3,1.4.3.7-.4,1.4-.4.7,0,1.4,0,.7,0,1.4,0,.7.2,1.4.2.7.2,1.4.2.7-.2,1.4-.2.7,0,1.4,0,.7,0,1.4,0,.7.4,1.4.4.7-.6,1.4-.6.7.4,1.4.4.7,0,1.4,0,.7,0,1.4,0,.7-.2,1.4-.2.7,0,1.4,0,.7.6,1.4.6.7-.3,1.4-.3.7,0,1.4,0,.7,0,1.4,0,.7,0,1.4,0,.7,0,1.4,0,.7.4,1.4.4.7,0,1.4,0,.7-.3,1.4-.3.7.2,1.4.2.7.1,1.4.1.7,0,1.4,0,.7.1,1.4.1.7-.5,1.4-.5.7.5,1.4.5.7-.4,1.4-.4.7,0,1.4,0,.7.4,1.4.4.7-.6,1.4-.6.7.4,1.4.4.7,0,1.4,0,.7-.2,1.4-.2.7-.2,1.4-.2.7.5,1.4.5.7-.2,1.4-.2.7.1,1.4.1.7-.3,1.4-.3.7.2,1.4.2.7-.3,1.4-.3.7,0,1.4,0,.7.3,1.4.3.7.3,1.4.3,1-.2,1.5-.2c.5,0,1-.2,1.5-.3.5,0,.9-.3,1.4-.5.5-.1,1-.3,1.4-.5.5-.2.8-.5,1.3-.8.4-.2.8-.5,1.2-.8.4-.3.9-.5,1.2-.8.4-.3.9-.5,1.2-.8.5-.5.4-.7.9-1.2s.6-.4,1.1-.9c.5-.5.4-.6.9-1.2.5-.5.4-.6.9-1.1.5-.5.9,0,1.4-.6s.1-.9.6-1.4c.5-.5.5-.5,1-1,.5-.5.7-.3,1.2-.8.5-.5.6-.4,1.1-.9.5-.5.2-.8.7-1.3.5-.5.7-.3,1.2-.8.5-.5.6-.4,1.1-.9.5-.5.3-.7.8-1.2.5-.5.7-.3,1.2-.8.5-.5.5-.5,1-1,.5-.5.2-.9.7-1.4.5-.5.9,0,1.4-.6.5-.5.4-.6.9-1.1.5-.5.2-.8.8-1.3.5-.5.7-.3,1.2-.8.5-.5.6-.4,1.1-.9.5-.5.2-.8.7-1.3.5-.5.7-.3,1.2-.8.5-.5.1-.9.6-1.4.5-.5.8-.2,1.3-.7.5-.5.5-.5,1-1,.5-.5.3-.7.8-1.2.5-.5.4-.6.9-1.1.5-.5.6-.4,1.1-.9.5-.5.4-.6.9-1.1.5-.5.7-.3,1.2-.8.5-.5.6-.4,1.1-.9.5-.5.3-.7.8-1.2.5-.5.6-.4,1.1-.9.5-.5.4-.6.9-1.1s.6-.4,1.1-.9q.5-.5,1-1c.5-.5.6-.4,1.2-.9s.2-.8.7-1.3c.5-.5.6-.4,1.1-.9.5-.5.4-.6.9-1.2.5-.5.7-.3,1.2-.8.5-.5.7-.3,1.2-.8.5-.5.2-.8.7-1.3.5-.5.7-.3,1.3-.8.5-.5.4-.7.9-1.2.5-.5.4-.6.9-1.1.5-.5.7-.3,1.2-.9.5-.5.6-.4,1.2-.9.5-.5.4-.6.9-1.1.5-.5.3-.7.8-1.2.5-.5.5-.5,1-1,.5-.5.7-.3,1.2-.8.5-.5.3-.7.8-1.2.5-.5.7-.3,1.2-.8.3-.3.5-.9.8-1.3.3-.4.5-.8.8-1.3.3-.4.5-.8.7-1.2.2-.4.5-.8.7-1.3.2-.5.4-.9.5-1.4.1-.5.2-.9.3-1.4,0-.5.3-.9.4-1.4,0-.5.2-1,.2-1.5,0-.7-.2-.7-.2-1.4s.4-.7.4-1.4-.6-.7-.6-1.4.1-.7.1-1.4.2-.7.2-1.4.2-.7.2-1.4-.4-.7-.4-1.4,0-.7,0-1.4.4-.7.4-1.4,0-.7,0-1.4-.5-.7-.5-1.4.5-.7.5-1.4-.4-.7-.4-1.4.1-.7.1-1.4,0-.7,0-1.4,0-.7,0-1.4,0-.7,0-1.4.2-.7.2-1.4-.2-.7-.2-1.4,0-.7,0-1.4,0-.7,0-1.4.3-.7.3-1.4-.2-.7-.2-1.4.2-.7.2-1.4.1-.7.1-1.4-.2-.7-.2-1.4,0-1,0-1.5c0-.5-.5-.9-.6-1.4,0-.5.4-1.1.2-1.6-.1-.5-.4-.9-.6-1.4-.2-.5-.6-.8-.9-1.2-.2-.4-.3-1-.6-1.4-.3-.4-.8-.7-1.1-1.1-.3-.4-.6-.8-.9-1.1-.3-.3-.7-.7-1.1-1-.4-.3-1-.3-1.4-.6-.4-.3-.8-.5-1.2-.8-.4-.2-.8-.5-1.3-.7-.5-.2-.9-.4-1.4-.5-.5-.1-.9-.3-1.4-.4-.5,0-1,0-1.5,0-.5,0-.9-.4-1.4-.4,0,0-.5.1-1.4.1-.4,0-.9,0-1.4,0-.4,0-.9.4-1.4.4-.5,0-.9-.3-1.4-.3-.5,0-.9,0-1.4,0-.5,0-.9,0-1.4,0-.5,0-.9,0-1.4,0-.5,0-1,0-1.4,0-.5,0-1,0-1.4,0-.5,0-1-.2-1.4-.2-.5,0-1,.4-1.4.4s-1,.2-1.4.2c-.5,0-1,0-1.4,0-.5,0-1,0-1.4,0-.5,0-1-.3-1.4-.3-.5,0-1-.1-1.4-.1-.5,0-1,0-1.4,0-.5,0-1,.2-1.4.2-.5,0-1,.2-1.4.2-.5,0-1-.4-1.4-.4-.5,0-1,.3-1.4.3-.5,0-1,0-1.4,0-.5,0-1-.2-1.4-.2-.5,0-1,.2-1.4.2-.5,0-1-.2-1.5-.2-.5,0-1,.4-1.5.4-.5,0-1-.6-1.5-.6-.5,0-1,0-1.5,0-.5,0-1,.3-1.5.3-.5,0-1-.4-1.5-.4-.5,0-1,.3-1.5.3-.5,0-1,.3-1.5.3-.5,0-1-.1-1.4-.1-.5,0-1,.2-1.4.2-.5,0-1-.6-1.4-.6-.5,0-1,.1-1.4.1-.5,0-1,.3-1.4.3-.5,0-1,0-1.4,0-.5,0-1,0-1.4,0-.5,0-1,.2-1.4.2-.5,0-1-.5-1.4-.5-.5,0-1,0-1.5,0-.5,0-1,0-1.5,0-.5,0-1,.5-1.5.5-.5,0-1-.2-1.4-.2-.5,0-1-.2-1.4-.2-.5,0-1-.2-1.4-.2-.6,0-1,.1-1.4.1-.9,0-.7.1-1.4.1-.5,0-1-.1-1.5,0-.5,0-1,.2-1.5.3-.5,0-.9.4-1.4.6-.5.1-.9.3-1.4.5-.5.2-1,.1-1.5.3-.4.2-.8.5-1.2.8-.4.3-.8.6-1.2.9-.4.3-.8.6-1.1,1-.5.5-.5.5-1,1.1-.5.5-.2.8-.7,1.3s-.6.5-1.1,1-.8.2-1.3.7-.5.5-1,1-.4.6-.9,1.1c-.5.5-.3.8-.8,1.3s-.6.4-1.2.9-.7.3-1.2.8-.6.5-1.1,1-.3.7-.8,1.2-.6.5-1.1,1c-.5.5-.5.5-1,1-.5.5-.6.4-1.1,1-.5.5-.5.5-1,1s-.3.7-.8,1.3-.9.1-1.4.6c-.5.5,0,.9-.6,1.4s-.8.2-1.3.8-.5.5-1,1-.4.6-.9,1.1-.7.3-1.2.8-.3.7-.8,1.2-.7.3-1.3.8-.1.9-.6,1.4-.9.1-1.4.6c-.5.5-.5.5-1,1-.5.5-.4.6-.9,1.1s-.5.5-1,1.1c-.5.5-.4.6-1,1.1-.5.5-.5.6-1,1.1-.5.5-.4.6-1,1.1-.5.5-.6.4-1.1.9-.5.5-.4.6-.9,1.1-.5.5-.6.4-1.1.9s-.4.6-.9,1.1-.5.5-1.1,1-.7.3-1.2.8-.7.4-1.2.9-.2.8-.8,1.3c-.5.5-.3.7-.9,1.2s-.8.2-1.3.7c-.5.5-.6.4-1.1.9s-.1.9-.6,1.4c-.5.5-.6.5-1.1,1s-.4.6-.9,1.1-.7.3-1.2.8-.7.3-1.2.8-.4.7-.9,1.2c-.5.5-.6.4-1.1.9-.5.5-.4.6-.9,1.1s-.5.5-1,1.1c-.5.5-.7.3-1.2.8-.5.5-.5.6-1,1.1-.5.5-.2.8-.7,1.3s-.9.2-1.4.7-.2.8-.7,1.3c-.5.5-.6.4-1.1.9s-.5.5-1,1c-.5.5-.5.5-1,1-.5.5-.4.7-1,1-.7.3-.7.2-1.4.2s-.7,0-1.4,0-.7-.1-1.4-.1-.7-.1-1.4-.1-.7.1-1.4.1-.7-.2-1.4-.2-.7.5-1.4.5-.7,0-1.4,0-.7-.3-1.4-.3-.7.2-1.4.2-.7,0-1.4,0-.7-.3-1.4-.3-.7-.2-1.4-.2-.7.4-1.4.4-.7-.2-1.4-.2-.7.3-1.4.3-.7-.5-1.4-.5-.7.3-1.4.3-.7-.4-1.4-.4-.7.2-1.4.2-.7-.1-1.4-.1-.7.2-1.4.2-.7,0-1.4,0-.7,0-1.4,0-.7,0-1.4,0-.7-.4-1.4-.4-.7.4-1.4.4-.7-.1-1.4-.1-.7.2-1.4.2-.7,0-1.4,0-.7.2-1.4.2-.7-.1-1.4-.1-.7,0-1.4,0-.7.1-1.4.1-.7-.5-1.4-.5-.7.4-1.4.4-.7-.2-1.4-.2-.7.2-1.4.2-.7-.2-1.4-.2-.7,0-1.4,0-.7,0-1.4,0-.7.3-1.4.3-.7-.2-1.4-.2-.7.3-1.4.3-.7.1-1.4.1-.7,0-1.4,0-.7-.2-1.4-.2-.7,0-1.4,0-.7-.3-1.4-.3-.7.2-1.4.2-.7-.2-1.4-.2-.7.2-1.4.2-.7.1-1.4.1-.7.1-1.4.1-.7,0-1.5,0-.7-.4-1.4-.4-.7.2-1.5.2-.7,0-1.5,0-.7.3-1.5.3-1-.5-1.5-.7c-.5-.2-1.1,0-1.6-.4-.4-.3-.9-.7-1.2-1.1-.3-.4-.3-1.1-.5-1.6-.2-.5,0-1,0-1.5s-.1-1,0-1.5c.2-.5.4-.9.7-1.4.3-.4.4-1.1.9-1.4.4-.3,1-.5,1.5-.7.5-.2,1.1,0,1.6,0s.7,0,1.4,0,.7-.1,1.4-.1.7.3,1.4.3.7-.4,1.4-.4.7,0,1.4,0,.7.1,1.4.1.7.2,1.4.2.7,0,1.4,0,.7-.2,1.4-.2.7,0,1.4,0,.7.3,1.4.3.7,0,1.4,0,.7-.5,1.4-.5.7.6,1.4.6.7-.5,1.4-.5.7,0,1.4,0,.7,0,1.4,0,.7.4,1.4.4.7-.3,1.4-.3.7.3,1.4.3.7-.3,1.4-.3.7.3,1.4.3.7-.5,1.4-.5.7.1,1.4.1.7,0,1.4,0,.7.3,1.4.3.7,0,1.4,0,.7-.3,1.4-.3.7.2,1.4.2.7,0,1.4,0,.7,0,1.4,0,.7-.2,1.4-.2.7-.2,1.4-.2.7.2,1.4.2.7-.1,1.4-.1.7.1,1.4.1.7.3,1.4.3.7-.6,1.4-.6.7.3,1.4.3.7.2,1.4.2.7,0,1.4,0,.7-.4,1.4-.4.7,0,1.4,0,.7.1,1.4.1.7-.2,1.4-.2.7.5,1.4.5.7-.5,1.4-.5.7,0,1.4,0,.7.2,1.4.2.7-.3,1.4-.3.7,0,1.4,0,.7-.1,1.4-.1,1,.1,1.5,0c.5,0,1,0,1.5,0,.5,0,.9-.5,1.3-.6.5-.1,1-.2,1.4-.4.5-.2,1.1,0,1.5-.3.4-.2.6-.9,1-1.2.4-.3,1-.3,1.4-.6.4-.3.6-.8.9-1.2.5-.5.4-.6.9-1.1.5-.5.9-.2,1.4-.7.5-.5.2-.8.8-1.3s.8-.2,1.3-.7.4-.7.9-1.2c.5-.5.4-.7.9-1.2.5-.5.4-.6.9-1.1.5-.5.9-.1,1.4-.6.5-.5.4-.6.9-1.2.5-.5.6-.5,1.1-1,.5-.5.5-.6,1-1.1s.4-.7.9-1.2c.5-.5.6-.4,1.1-.9.5-.5.3-.7.8-1.3.5-.5.7-.3,1.2-.8.5-.5.6-.4,1.1-.9s.5-.5,1.1-1,.4-.6.9-1.1c.5-.5.4-.7.9-1.2s.6-.4,1.1-1,.8-.2,1.4-.7.3-.8.8-1.3.7-.3,1.2-.8.2-.8.8-1.3.6-.5,1.1-1c.5-.5.7-.3,1.2-.9s.8-.6,1.1-1c.3-.4.5-.9.7-1.3.3-.4.7-.8.9-1.2.2-.4.2-1,.3-1.5.2-.5.1-1,.3-1.4.1-.5.3-.9.4-1.4,0-.5.3-.9.3-1.4,0-.5.5-1,.5-1.5s-.3-1-.4-1.5c0-.5-.4-.9-.5-1.4,0-.5.3-1.1.1-1.6-.1-.5-.4-.9-.6-1.4-.2-.5-.4-.9-.6-1.3-.2-.4-.5-.9-.7-1.3-.3-.4-.7-.7-1-1.1-.3-.4-.6-.8-1-1.1-.3-.3-.9-.5-1.2-.8-.4-.3-.6-.8-1-1.1-.4-.3-.7-.8-1.1-1-.4-.2-1-.3-1.4-.5-.5-.2-1,0-1.5-.2-.5-.1-.9-.4-1.4-.5-.5,0-1,0-1.5-.1-.5,0-1-.4-1.5-.4,0,0-.5.2-1.4.2-.4,0-.9-.3-1.4-.3-.4,0-.9.5-1.4.5-.4,0-.9,0-1.4,0-.5,0-.9-.3-1.4-.3-.5,0-.9,0-1.4,0-.5,0-.9-.4-1.4-.4-.5,0-.9.4-1.4.4-.5,0-.9.2-1.4.2-.5,0-.9,0-1.4,0-.5,0-.9-.2-1.4-.2-.5,0-.9-.1-1.4-.1-.5,0-.9,0-1.4,0-.5,0-.9-.2-1.4-.2-.5,0-.9,0-1.4,0-.5,0-.9-.1-1.4-.1-.5,0-1,0-1.4,0-.5,0-1,.2-1.4.2s-1,.1-1.4.1c-.5,0-1,.1-1.4.1-.5,0-1-.3-1.4-.3-.5,0-1,.3-1.4.3-.5,0-1,.2-1.4.2-.5,0-.9,0-1.4,0-.5,0-1-.4-1.4-.4-.5,0-1,0-1.4,0-.5,0-1,.3-1.4.3-.5,0-1-.2-1.4-.2-.5,0-1,0-1.4,0-.5,0-1,.3-1.4.3-.5,0-1-.3-1.4-.3-.5,0-1,0-1.4,0-.5,0-1-.3-1.4-.3-.5,0-1,.3-1.4.3-.5,0-1-.2-1.4-.2-.5,0-1,.4-1.4.4-.5,0-1-.4-1.4-.4-.5,0-1,.5-1.4.5-.5,0-1-.5-1.4-.5-.5,0-1,0-1.4,0-.5,0-1,.4-1.4.4-.5,0-1,.1-1.4.1-.5,0-1-.4-1.4-.4-.5,0-1,0-1.4,0-.5,0-1,.5-1.4.5-.5,0-1-.3-1.4-.3-.5,0-1-.1-1.4-.1-.5,0-1,.2-1.4.2-.5,0-1-.1-1.4-.1-.5,0-1,.2-1.4.2-.5,0-1,0-1.4,0-.5,0-1,0-1.4,0-.5,0-1,0-1.4,0s-1-.3-1.4-.3c-.5,0-1,.3-1.4.3-.5,0-1-.2-1.4-.2-.5,0-1,0-1.4,0-.5,0-1,0-1.4,0-.5,0-1,.4-1.4.4s-1,.2-1.4.2c-.5,0-1-.5-1.4-.5-.5,0-1,.2-1.4.2-.5,0-1-.3-1.4-.3-.5,0-1,0-1.4,0-.5,0-1,.4-1.4.4-.5,0-1,0-1.4,0-.5,0-1-.3-1.4-.3-.5,0-1,.2-1.4.2-.5,0-1,0-1.4,0-.5,0-1-.3-1.4-.3-.5,0-1,.3-1.4.3-.5,0-1,.1-1.4.1-.5,0-1-.6-1.4-.6-.5,0-1,.3-1.4.3-.5,0-1,0-1.4,0-.5,0-1-.2-1.4-.2-.5,0-1,.3-1.4.3-.5,0-1,0-1.4,0-.5,0-1-.3-1.4-.3-.5,0-1,.2-1.4.2-.5,0-1,.1-1.4.1-.5,0-1-.1-1.4-.1-.5,0-1,.1-1.4.1-.5,0-1,.3-1.4.3-.5,0-1,0-1.4,0-.5,0-1-.5-1.4-.5-.5,0-1,0-1.4,0-.5,0-1,.5-1.4.5-.5,0-1-.2-1.4-.2-.5,0-1-.2-1.4-.2s-1-.2-1.4-.2c-.5,0-1,.2-1.4.2-.5,0-1-.2-1.4-.2-.5,0-1,.6-1.4.6-.5,0-1-.4-1.4-.4-.5,0-1,.2-1.4.2-.5,0-1,0-1.4,0-.5,0-1,.1-1.4.1s-1,0-1.4,0c-.5,0-1-.5-1.4-.5-.5,0-1,.6-1.4.6-.5,0-1-.3-1.4-.3-.5,0-1-.1-1.4-.1-.5,0-1,0-1.4,0-.5,0-1,.3-1.4.3-.5,0-1,0-1.4,0-.5,0-1-.3-1.4-.3-.5,0-1,0-1.4,0-.5,0-1-.1-1.4-.1-.5,0-1,0-1.4,0-.5,0-1,0-1.4,0-.5,0-1,.6-1.4.6-.5,0-1-.4-1.4-.4-.5,0-1,0-1.4,0-.5,0-1-.2-1.4-.2-.5,0-1,0-1.4,0-.5,0-1,.3-1.4.3-.5,0-1-.3-1.4-.3-.5,0-1,0-1.4,0-.5,0-1,.5-1.4.5-.5,0-1,0-1.4,0-.6,0-1-.2-1.4-.2-.9,0-.7-.3-1.4-.3s-1,0-1.5-.2c-.5-.2-1.1-.2-1.5-.5-.4-.3-1-.6-1.3-1-.3-.4-.1-1.1-.3-1.6-.2-.5-.6-.9-.6-1.5,0-.5,0-1.1.1-1.6.2-.5.7-.9,1-1.3.3-.4.6-.9,1-1.2.4-.3,1.1-.2,1.6-.3.5-.2.9-.6,1.4-.6.7,0,.7-.2,1.4-.2.7,0,.7.5,1.4.5.7,0,.7-.5,1.4-.5s.7.3,1.4.3c.7,0,.7.2,1.4.2.7,0,.7,0,1.4,0,.7,0,.7-.4,1.4-.4.7,0,.7.6,1.4.6.7,0,.7,0,1.4,0,.7,0,.7-.6,1.4-.6.7,0,.7.3,1.4.3.7,0,.7-.2,1.4-.2.7,0,.7,0,1.4,0,.7,0,.7,0,1.4,0s.7.5,1.4.5c.7,0,.7,0,1.4,0,.7,0,.7,0,1.4,0s.7-.2,1.4-.2.7,0,1.4,0c.7,0,.7.2,1.4.2.7,0,.7-.4,1.4-.4.7,0,.7.1,1.4.1.7,0,.7,0,1.4,0s.7-.2,1.4-.2c.7,0,.7.2,1.4.2s.7-.1,1.4-.1c.7,0,.7-.2,1.4-.2.7,0,.7.3,1.4.3.7,0,.7,0,1.4,0s.7-.2,1.4-.2.7.3,1.4.3c.7,0,.7-.1,1.4-.1s.7-.3,1.4-.3c.7,0,.7.5,1.4.5.7,0,.7,0,1.4,0s.7,0,1.4,0,.7-.6,1.4-.6c.7,0,.7,0,1.4,0,.7,0,.7.6,1.4.6.7,0,.7-.3,1.4-.3s.7-.1,1.4-.1c.7,0,.7-.1,1.4-.1.7,0,.7.6,1.4.6s.7-.2,1.4-.2.7.2,1.4.2.7-.2,1.4-.2c.7,0,.7-.2,1.4-.2s.7-.2,1.4-.2.7-.1,1.4-.1c.7,0,.7.2,1.4.2.7,0,.7,0,1.4,0,.7,0,.7.2,1.4.2s.7-.4,1.4-.4c.7,0,.7,0,1.4,0s.7.3,1.4.3c.7,0,.7-.2,1.4-.2.7,0,.7-.2,1.4-.2.7,0,.7,0,1.4,0s.7.5,1.4.5c.7,0,.7,0,1.4,0,.7,0,.7-.1,1.4-.1.7,0,.7-.5,1.4-.5.7,0,.7.2,1.4.2s.7,0,1.4,0,.7.2,1.4.2c.7,0,.7-.3,1.4-.3.7,0,.7.3,1.4.3.7,0,.7,0,1.4,0,.7,0,.7-.1,1.4-.1.7,0,.7.3,1.4.3.7,0,.7-.5,1.4-.5.7,0,.7,0,1.4,0s.7.4,1.4.4c.7,0,.7-.3,1.4-.3s.7.2,1.4.2c.7,0,.7-.5,1.4-.5.7,0,.7.6,1.4.6.7,0,.7,0,1.4,0,.7,0,.7-.2,1.4-.2.7,0,.7-.2,1.4-.2.7,0,.7.3,1.4.3.7,0,.7,0,1.4,0,.7,0,.7-.3,1.4-.3.7,0,.7.3,1.4.3.7,0,.7-.3,1.4-.3.7,0,.7,0,1.4,0,.7,0,.7,0,1.4,0,.7,0,.7,0,1.4,0,.7,0,.7,0,1.4,0,.7,0,.7.3,1.4.3s.7-.4,1.4-.4c.7,0,.7.2,1.4.2.7,0,.7-.1,1.4-.1.7,0,.7,0,1.4,0,.7,0,.7,0,1.4,0,.7,0,.7.5,1.4.5.7,0,.7-.2,1.4-.2s.7,0,1.4,0c.7,0,.7,0,1.4,0s.7,0,1.4,0,.7-.3,1.4-.3.7.2,1.4.2c.7,0,.7,0,1.4,0,.7,0,.7.3,1.4.3.7,0,.7-.4,1.4-.4.7,0,.7,0,1.4,0,.7,0,.7,0,1.4,0,.7,0,.7.3,1.4.3.7,0,.7-.4,1.4-.4.7,0,.7.5,1.4.5s.7-.2,1.4-.2c.7,0,.7.2,1.4.2.7,0,.7-.2,1.4-.2s.7.1,1.4.1.7,0,1.4,0,.7.1,1.4.1c.7,0,.7-.6,1.4-.6.7,0,.7.1,1.4.1.7,0,.7,0,1.4,0s.7,0,1.4,0c.7,0,.7.4,1.4.4.7,0,.7-.2,1.4-.2.7,0,.7.2,1.4.2.7,0,.7-.2,1.4-.2.7,0,.7.3,1.4.3.7,0,.7-.1,1.4-.1.7,0,.7-.3,1.4-.3.7,0,.7.2,1.4.2.7,0,.7-.3,1.4-.3.7,0,.7.5,1.4.5s.7-.5,1.4-.5c.7,0,.7.2,1.4.2s.7-.2,1.4-.2.7.4,1.4.4c.7,0,.7,0,1.4,0s.7.2,1.4.2c.7,0,.7-.3,1.4-.3.7,0,.7-.2,1.4-.2s.7.2,1.4.2c.7,0,.7-.2,1.4-.2.7,0,.7.6,1.4.6.7,0,.7,0,1.4,0,.7,0,.7-.2,1.4-.2.7,0,.7-.2,1.4-.2.7,0,.7,0,1.4,0s.7.3,1.4.3c.7,0,.7,0,1.4,0,.7,0,.7,0,1.4,0,.7,0,.7-.2,1.4-.2.7,0,.7,0,1.4,0,.7,0,.7-.3,1.4-.3s.7.1,1.4.1c.7,0,.7-.2,1.4-.2.7,0,.7.5,1.4.5s.7-.4,1.4-.4c.7,0,.7,0,1.4,0,.7,0,.7.1,1.4.1.7,0,.7.1,1.4.1.7,0,.7-.1,1.4-.1s.7,0,1.4,0c.7,0,.7-.2,1.4-.2s.7.5,1.4.5c.7,0,.7-.2,1.4-.2s.7.3,1.4.3.7-.2,1.4-.2c.7,0,.7-.4,1.4-.4.7,0,.7,0,1.4,0,.7,0,.7.3,1.4.3s.7-.3,1.4-.3c.7,0,.7.3,1.4.3.7,0,.7-.3,1.4-.3.7,0,.7.3,1.4.3.7,0,.7,0,1.4,0,.7,0,.7-.2,1.4-.2.7,0,.7-.1,1.4-.1s.7.4,1.4.4c.7,0,.7-.1,1.4-.1.7,0,.7-.2,1.4-.2s.7.4,1.4.4c.7,0,.7-.1,1.4-.1s.7-.2,1.4-.2c.7,0,.7.2,1.4.2.7,0,.7-.3,1.4-.3.7,0,.7,0,1.4,0,.7,0,.7,0,1.4,0,.7,0,.7.5,1.4.5.7,0,.7-.3,1.4-.3s.7,0,1.4,0c.7,0,.7-.2,1.4-.2s.7.2,1.4.2c.7,0,.7-.2,1.4-.2.7,0,.7.5,1.4.5.7,0,.7,0,1.4,0s.7-.2,1.4-.2c.7,0,.7.2,1.4.2.7,0,.7,0,1.4,0,.7,0,.7-.4,1.4-.4.7,0,.7.3,1.4.3.7,0,.7.2,1.4.2.7,0,.7-.2,1.4-.2.7,0,.7-.2,1.4-.2.7,0,.7.2,1.4.2.7,0,.7-.3,1.4-.3.7,0,.7.4,1.4.4.7,0,.7-.3,1.4-.3.7,0,.7.2,1.4.2.7,0,.7-.3,1.4-.3.7,0,.7.2,1.4.2.7,0,.7-.1,1.4-.1.7,0,.7.4,1.4.4.7,0,.7,0,1.4,0s.7.2,1.4.2c.7,0,.7-.6,1.4-.7s.7.2,1.4.2c.7,0,.7.3,1.4.3.7,0,.7-.3,1.4-.3.7,0,.7.4,1.4.4.7,0,.7,0,1.4,0,.7,0,.7,0,1.4,0,.7,0,.7-.2,1.4-.2s.7-.3,1.4-.3c.7,0,.7,0,1.4,0,.7,0,.7,0,1.4,0,.7,0,.7.3,1.4.3.7,0,.7-.2,1.4-.2.7,0,.7,0,1.4,0,.7,0,.7,0,1.4,0,.7,0,.7.2,1.4.2.7,0,.7-.3,1.2.2.5.5,0,.5,0,1.2s0,.7,0,1.4.3.7.3,1.4-.5.7-.5,1.4,0,.7,0,1.4.3.7.3,1.4.2.7.2,1.4,0,.7,0,1.4-.1.7-.1,1.4-.2.7-.2,1.4,0,.7,0,1.4.5.7.5,1.4-.1.7-.1,1.4.2.7.2,1.4-.1.7-.1,1.4-.2.7-.2,1.4,0,.7,0,1.4.1.7.1,1.4.3.7.3,1.4-.3.7-.3,1.4.2.7.2,1.4,0,.7,0,1.4-.1.7-.1,1.4,0,.7,0,1.4.2.7.2,1.4-.3.7-.3,1.4,0,.7,0,1.4,0,.7,0,1.4,0,.7,0,1.4.4.7.4,1.4-.3.7-.3,1.4.2.7.2,1.4-.1.7-.1,1.4,0,.7,0,1.4.2.7.2,1.4-.4.7-.4,1.4.6.7.6,1.4-.5.7-.5,1.4,0,.7,0,1.4.2.7.2,1.4.2.7.2,1.4-.4.7-.4,1.4.4.7.4,1.4-.3.7-.3,1.4-.2.7-.2,1.4.4.7.4,1.4,0,.7,0,1.4-.4.7-.4,1.4.4.7.4,1.4-.5.7-.5,1.4.8.9.5,1.6c-.3.7-.9.3-1.4.8s-.3.7-.8,1.2c-.5.5-.5.6-1,1.1s-.9.1-1.4.6-.2.8-.7,1.3c-.5.5-.7.3-1.2.8-.5.5-.3.7-.9,1.2s-.5.5-1,1c-.5.5-.6.4-1.1.9-.5.5-.5.5-1,1s-.6.4-1.1.9-.5.5-1,1c-.5.5-.2.9-.7,1.4-.5.5-.6.4-1.2.9-.5.5-.7.3-1.2.8-.5.5-.5.5-1,1.1-.5.5-.5.5-1,1s-.3.7-.8,1.2c-.5.5-.5.5-1,1s-.5.5-1.1,1c-.5.5-.7.3-1.2.8-.5.5-.3.7-.8,1.2-.5.5-.6.4-1.1,1s-.2.8-.7,1.3c-.5.5-1,0-1.5.6-.5.5-.2.8-.7,1.3-.5.5-.4.6-.9,1.1-.5.5-.8.3-1.3.8-.5.5-.4.6-1,1.1-.5.5-.7.4-1.2.9-.5.5-.5.5-1,1-.5.5-.2.8-.7,1.3-.5.5-.9.1-1.4.7s-.5.6-1,1.1-.6.4-1.1.9c-.5.5-.4.6-.9,1.1-.5.5-.2.8-.7,1.3-.5.5-.9.1-1.4.6-.5.5-.3.7-.8,1.2-.5.5-.2.8-.7,1.3-.5.5-.5.5-1,1-.5.5-.6.4-1.1.9-.5.5-.7.3-1.2.8-.5.5-.2.8-.7,1.3-.5.5-.6.4-1.1.9-.5.5-.5.5-1.1,1-.5.5-.7.4-1.2.9-.5.5-.7.3-1.2.8-.5.5-.5.5-1,1-.5.5-.5.5-1,1-.5.5-.2.8-.7,1.3-.5.5-.8.3-1.3.8-.5.5-.2.8-.8,1.3-.5.5-.7.3-1.2.8s-.4.6-.9,1.1c-.5.5-.5.5-1,1-.5.5-.6.4-1.1.9-.5.5-.3.7-.8,1.3-.5.5-.8.2-1.3.7-.5.5-.2.8-.7,1.3-.5.5-.7.3-1.2.8-.5.5-.4.6-1,1.1-.5.5-.5.5-1,1-.5.5-.8.3-1.3.8-.5.5,0,.9-.6,1.4-.5.5-.8.2-1.3.7-.5.5-.3.7-.8,1.2-.5.5-.4.6-.9,1.1-.5.5-.7.3-1.4.6-.7.3-.6.5-1.3.5s-.7.1-1.4.1-.7-.4-1.4-.4-.7,0-1.4,0-.7.2-1.4.2-.7-.3-1.4-.3-.7.4-1.4.4-.7-.4-1.4-.4-.7-.2-1.4-.2-.7.3-1.4.3-.7,0-1.4,0-.7.2-1.4.2-.7.1-1.4.1-.7-.6-1.4-.6-.7.4-1.4.4-.7,0-1.4,0-.7-.1-1.4-.1-.7-.4-1.4-.4-.7.1-1.4.1-.7,0-1.4,0-.7.4-1.4.4-.7,0-1.4,0-.7-.6-1.4-.6-.7.4-1.4.4-.7-.4-1.4-.4-.7.2-1.4.2-.7,0-1.4,0-.7,0-1.4,0-.7-.3-1.4-.3-.7.2-1.4.2-.7,0-1.4,0-.7.4-1.4.4-.7-.5-1.4-.5-.7.2-1.4.2-.7.3-1.4.3-.7-.4-1.4-.4-.7,0-1.4,0-.7,0-1.4,0-.7-.3-1.4-.3-.7.5-1.4.5-.7-.1-1.4-.1-.7.1-1.4.1-.7,0-1.4,0-.7-.4-1.4-.4-.7.2-1.4.2-.7,0-1.4,0-.7-.2-1.4-.2-.7-.2-1.4-.2-.7.1-1.4.1-.7.3-1.4.3-.7,0-1.4,0-.7-.5-1.4-.5-.7.4-1.4.4-.7,0-1.4,0-.7-.4-1.4-.4-.7.3-1.4.3-.7-.3-1.4-.3-.7.3-1.4.3-.7-.4-1.4-.4-.7.5-1.4.5-.7-.4-1.4-.4-.7.4-1.4.4-.7,0-1.4,0-.7-.2-1.4-.2-.7-.4-1.4-.4-.7,0-1.4,0-.7.3-1.4.3-.7,0-1.4,0-.7,0-1.4,0-.7-.3-1.4-.3-.7.1-1.4.1-.7-.1-1.4-.1-.7.1-1.4.1-.7,0-1.4,0-.7.1-1.4.1-.7.1-1.4.1-.7-.3-1.4-.3-.7,0-1.4,0-.7.3-1.4.3-.7-.2-1.4-.2-.7.3-1.4.3-.7-.5-1.4-.5-.7,0-1.4,0-.7,0-1.4,0-.7.4-1.4.4-.7-.5-1.4-.5-.7.5-1.4.5-.7-.1-1.4-.1-.7-.3-1.4-.3-.7,0-1.4,0-.7.4-1.4.4-.7,0-1.4,0-.7-.5-1.4-.5-.7.1-1.4.1-.7.3-1.4.3-.7-.2-1.4-.2-.7,0-1.4,0-.7.4-1.4.4-.7-.4-1.4-.4-.7,0-1.4,0-.7.4-1.4.4-.7-.5-1.4-.5-.7.5-1.4.5-.7-.3-1.4-.3-.7.2-1.4.2-.7-.3-1.4-.3-.7,0-1.4,0-.7,0-1.4,0-.7,0-1.4,0-.7,0-1.4,0-.7,0-1.4,0-.7-.2-1.4-.2-.7.4-1.4.4-.7-.5-1.4-.5-.7.4-1.4.4-.7-.2-1.4-.2-.7,0-1.4,0-.7.3-1.4.3-.7-.5-1.4-.5-.7,0-1.4,0-.7,0-1.4,0-.7.1-1.4.1-.7.1-1.4.1-.7-.3-1.4-.3-.7.3-1.4.3-.7,0-1.4,0-.7-.3-1.4-.3-.7.6-1.4.6-.7-.1-1.4-.1-.7-.5-1.4-.5-.7.4-1.4.4-.7,0-1.4,0-.7,0-1.4,0-.7.1-1.4.1-.7,0-1.4,0-.7-.4-1.4-.4-.7-.1-1.4-.1-.7,0-1.4,0-.7.2-1.4.2-.7.1-1.4.1-.7-.2-1.4-.2-.7,0-1.4,0-.7-.2-1.4-.2-.7.5-1.4.5-.7,0-1.4,0-.7-.6-1.4-.6-.7.5-1.4.5h-1.4c-.7,0-.7-.1-1.4-.1s-.7,0-1.4,0-.7,0-1.4,0-.7-.1-1.4-.1-.7.2-1.4.2-.7-.4-1.4-.4-.7.5-1.4.5-.7-.2-1.4-.2-.7,0-1.4,0-.7-.2-1.4-.2-.7.4-1.4.4-.7-.4-1.4-.4-.7,0-1.4,0-.7-.1-1.4-.1-.7.4-1.4.4-.7,0-1.4,0-.7-.4-1.4-.4-.7.2-1.4.2-.7-.2-1.4-.2-.7.4-1.4.4-.7,0-1.4,0-.7-.1-1.4-.1-.2,0-.3,0c41.3,30.3,92.3,48.1,147.5,48.1,135.6,0,245.9-107.9,249.9-242.5-.4,0-.5.2-1.1.2Z"/>
</svg>