<?xml version="1.0" encoding="UTF-8"?>
<svg id="_アイコン" data-name="アイコン" xmlns="http://www.w3.org/2000/svg" version="1.1" viewBox="0 0 500 500">
  <defs>
    <style>
      .cls-1 {
        fill: #fff;
        stroke-width: 0px;
      }
    </style>
  </defs>
  <path class="cls-1" d="M103.4,123.5c0,.7,1,.7,1,1.5s-.9.7-.9,1.5,0,.7,0,1.5.4.7.4,1.5,0,.7,0,1.5-.4.7-.4,1.5.5.7.5,1.5-.5.7-.5,1.5.4.7.4,1.5.6.7.6,1.5,0,.7,0,1.5-.8,1-.7,1.5c0,.5.7.9.8,1.4,0,.5-.3,1.1-.1,1.5.1.5.2,1,.3,1.5.2.5.6.9.8,1.3.2.4.5.9.7,1.3.3.4.7.7,1,1.1.3.4.7.7,1,1.1.3.3.9.4,1.3.7.4.3.8.5,1.2.7.4.3.6.8,1.1,1,.4.2,1,.2,1.4.4.5.2.6,1.1,1.1,1.3.5.1,1,.3,1.5.4.5,0,1.1-.2,1.5-.2.5,0,1,0,1.5,0,.7,0,.7.4,1.4.4s.7-.3,1.4-.3.7.2,1.4.2.7-.6,1.4-.6.7.4,1.4.4.7.3,1.4.3.7-.6,1.4-.6.7-.3,1.4-.3.7,0,1.4,0,.7,0,1.4,0,.7.3,1.4.3.7.5,1.4.5.7-.3,1.4-.3.7,0,1.4,0,.7.1,1.4.1.7-.5,1.4-.5.7-.1,1.4-.1.7.6,1.4.6.7-.7,1.4-.7.7.7,1.4.7.7-.5,1.4-.5.7,0,1.4,0,.7.2,1.4.2.7-.4,1.4-.4.7.6,1.4.6.7.2,1.4.2.7-.4,1.4-.4.7.2,1.4.2.7,0,1.4,0,.7,0,1.4,0,.7-.4,1.4-.4.7.6,1.4.6.7-.2,1.4-.2.7-.4,1.4-.4.7.1,1.4.1.7-.1,1.4-.1.7.7,1.4.7.7-.6,1.4-.6.7,0,1.4,0,.7-.2,1.4-.2.7,0,1.4,0,.7-.2,1.4-.2.7.8,1.4.8.7,0,1.4,0,.7-.6,1.4-.6.7.4,1.4.4.7,0,1.4,0,.7-.7,1.4-.7.7.2,1.4.2.7.4,1.4.4.7.2,1.4.2.7-.2,1.4-.2.7,0,1.4,0,.7,0,1.4,0,.7,0,1.4,0,.7-.2,1.4-.2.7.5,1.4.5.7,0,1.4,0,.7-.2,1.4-.2.7,0,1.4,0,.7.2,1.4.2.7.2,1.4.2.7-.1,1.4-.1.7-.8,1.4-.8.7.1,1.4.1.7.6,1.4.6.7.2,1.4.2.7-.6,1.4-.6.7.7,1.4.7.7-.4,1.4-.4.7-.5,1.4-.5.7,0,1.4,0,.7.5,1.4.5.7-.5,1.4-.5.7.8,1.4.8.7-.4,1.4-.4.7.3,1.4.3.7-.7,1.4-.7.7.3,1.4.3.7.3,1.4.3.7.2,1.4.2.7-.7,1.4-.7.7,0,1.4,0,.7.3,1.4.3.7,0,1.4,0,.7,0,1.4,0,.7.2,1.4.2.7.2,1.4.2.7-.6,1.4-.6.7.6,1.4.6.7-.4,1.4-.4.7.3,1.4.3.7-.6,1.4-.6.7.4,1.4.4.7-.1,1.4-.1.7-.3,1.4-.3.7.4,1.4.4.7.2,1.4.2.7-.6,1.4-.6.7.4,1.4.4.7-.2,1.4-.2.7.3,1.4.3.7-.1,1.4-.1.7,0,1.4,0,.7-.7,1.4-.7.7.8,1.4.8.7-.8,1.4-.8.7,0,1.4,0,.7.1,1.4.1.7,0,1.4,0,.7.6,1.4.6.7,0,1.4,0,.7-.2,1.4-.2.7.3,1.4.3.7-.3,1.4-.3.7.4,1.4.4.7-.6,1.4-.6.7.2,1.4.2.7-.3,1.4-.3.7.3,1.4.3.7.3,1.4.3.7-.6,1.4-.6.7.3,1.4.3.7.6,1.4.6.7-.9,1.4-.9.7.3,1.4.3.7,0,1.4,0,.7,0,1.4,0,.7,0,1.4,0,.7-.2,1.4-.2.7,0,1.4,0,.7,0,1.4,0,.7-.4,1.4-.4.7.8,1.4.8.7,0,1.4,0,.7-.1,1.4-.1.7-.6,1.4-.6.7.2,1.4.2.7.5,1.4.5.7-.4,1.4-.4.7-.5,1.4-.5.7.3,1.4.3.7.3,1.4.3.7.3,1.4.3.7-.3,1.4-.3.7-.1,1.4-.1.7-.3,1.4-.3.7,0,1.4,0,.7.6,1.4.6.7-.1,1.4-.1.7-.5,1.4-.5.7,0,1.4,0,.7.4,1.4.4.7,0,1.4,0,.7.1,1.4.1.7.4,1.4.4.7-.4,1.4-.4.7,0,1.4,0,.7,0,1.4,0,.7.3,1.4.3.7-.8,1.4-.8.7.4,1.4.4.7.1,1.4.1.7,0,1.4,0,.7-.1,1.4-.1.7-.2,1.4-.2.7.1,1.4.1.7.5,1.4.5.7-.8,1.4-.8.7.8,1.4.8.7-.4,1.4-.4.7-.3,1.5-.3.7.7,1.4.7.7-.2,1.5-.2.7.2,1.5.2.7,0,1.5,0,1,0,1.5-.1c.5,0,.9-.9,1.3-1,.5,0,1,0,1.4-.2.5-.1,1.1.2,1.6,0,.5-.2.7-.8,1.1-1,.4-.2,1.1-.1,1.5-.4.4-.3.8-.6,1.2-.9.4-.3.6-.8,1-1.1s.4-1,.7-1.3c.3-.4,1.1-.4,1.4-.8.3-.4.8-.7,1-1.1.2-.4,0-1.1.1-1.6.2-.5.8-.8.9-1.3.1-.5-.5-1.1-.4-1.6,0-.5.7-.9.8-1.4,0-.5-.1-1-.1-1.5,0-.7-.3-.7-.3-1.5s.4-.7.4-1.5.3-.7.3-1.5-.5-.7-.5-1.5.3-.7.3-1.5,0-.7,0-1.5.5-.7.5-1.5-.9-.7-.9-1.5,0-.7,0-1.5,0-.7,0-1.5.2-.7.2-1.5,0-.7,0-1.5.6-.7.6-1.5-.4-.7-.4-1.5,0-.7,0-1.5.4-.7.4-1.5-.4-.7-.4-1.5.3-.7.3-1.5-.5-.7-.5-1.5.3-.7.3-1.5-.2-.7-.2-1.5.4-.7.4-1.5-.7-.7-.7-1.5.1-.7.1-1.5-.2-.7-.2-1.5.5-.7.5-1.5.4-.7.4-1.5-.6-.7-.6-1.5.1-.7.1-1.5-.4-.9-.4-1.4c0-.5.3-1,.2-1.5,0-.5-.3-.9-.5-1.4-.1-.5-.2-1-.4-1.4-.2-.5-.6-.8-.8-1.2-.2-.4-.6-.7-.9-1.2-.3-.4,0-1.2-.3-1.6-.3-.4-.9-.6-1.2-.9-.3-.3-.6-.9-.9-1.2-.4-.3-1.1-.1-1.5-.4-.4-.3-.8-.5-1.2-.7-.4-.2-.9-.4-1.3-.6-.5-.2-.7-.9-1.2-1-.5-.1-1,0-1.5,0-.5,0-1,.2-1.5.1-.5,0-.9-.4-1.4-.4-.7,0-.7-.4-1.4-.4s-.7.3-1.4.3-.7-.5-1.4-.5-.7.1-1.4.1-.7.7-1.4.7-.7-.5-1.4-.5-.7,0-1.4,0-.7.3-1.4.3-.7-.4-1.4-.4-.7,0-1.4,0-.7.4-1.4.4-.7,0-1.4,0-.7,0-1.4,0-.7,0-1.4,0-.7.6-1.4.6-.7-.6-1.4-.6-.7-.2-1.4-.2-.7.3-1.4.3-.7-.1-1.4-.1-.7-.1-1.4-.1-.7.5-1.4.5-.7-.6-1.4-.6-.7,0-1.4,0-.7.7-1.4.7-.7-.4-1.4-.4-.7.4-1.4.4-.7-.7-1.4-.7-.7.1-1.4.1-.7,0-1.4,0-.7.2-1.4.2-.7,0-1.4,0-.7-.3-1.4-.3-.7.4-1.4.4-.7-.4-1.4-.4-.7.2-1.4.2-.7-.1-1.4-.1-.7.4-1.4.4-.7-.7-1.4-.7-.7,0-1.4,0-.7,0-1.4,0-.7.8-1.4.8-.7.2-1.4.2-.7-1-1.4-1-.7.6-1.4.6-.7-.6-1.4-.6-.7.2-1.4.2-.7.7-1.4.7-.7-.6-1.4-.6-.7.5-1.4.5-.7-.6-1.4-.6-.7,0-1.4,0-.7.3-1.4.3-.7,0-1.4,0-.7-.1-1.4-.1-.7.4-1.4.4-.7-.3-1.4-.3-.7.3-1.4.3-.7-.6-1.4-.6-.7.7-1.4.7-.7-.4-1.4-.4-.7,0-1.4,0-.7-.3-1.4-.3-.7.7-1.4.7-.7,0-1.4,0-.7-.2-1.4-.2-.7-.2-1.4-.2-.7.5-1.4.5-.7-.8-1.4-.8-.7.3-1.4.3-.7.2-1.4.2-.7-.3-1.4-.3-.7.6-1.4.6-.7.2-1.4.2-.7-.2-1.4-.2-.7,0-1.4,0-.7,0-1.4,0-.7.1-1.4.1-.7.3-1.4.3-.7-.6-1.4-.6-.7-.2-1.4-.2-.7,0-1.4,0-.7-.1-1.4-.1-.7.5-1.4.5-.7.1-1.4.1-.7-.2-1.4-.2-.7-.5-1.4-.5-.7.5-1.4.5-.7.3-1.4.3-.7-.3-1.4-.3-.7-.1-1.4-.1-.7,0-1.4,0-.7.7-1.4.7-.7-.9-1.4-.9-.7-.1-1.4-.1-.7.9-1.4.9-.7-.1-1.4-.1-.7-.8-1.4-.8-.7.6-1.4.6-.7-.4-1.4-.4-.7.5-1.4.5-.7,0-1.4,0-.7,0-1.4,0-.7.4-1.4.4-.7-.7-1.4-.7-.7.8-1.4.8-.7-.2-1.4-.2-.7-.7-1.4-.7-.7.5-1.4.5-.7-.6-1.4-.6-.7.4-1.4.4-.7,0-1.4,0-.7.5-1.4.5-.7-.6-1.4-.6-.7.2-1.4.2-.7-.2-1.4-.2-.7.2-1.4.2-.7.4-1.4.4-.7-.6-1.4-.6-.7.9-1.4.9-.7-.3-1.4-.3-.7-.6-1.4-.6-.7.9-1.4.9-.7-.3-1.4-.3-.7.4-1.4.4-.7-.1-1.4-.1-.7-.3-1.4-.3-.7,0-1.4,0-.7-.2-1.4-.2-.7.3-1.4.3-.7-.5-1.4-.5-.7,0-1.4,0-.7,0-1.4,0-.7.5-1.4.5-.7-.3-1.4-.3-.7-.3-1.4-.3-.7.1-1.4.1-.7.6-1.4.6-.7-.6-1.4-.6-.7.8-1.4.8-.7-.2-1.4-.2-.7-.6-1.4-.6-.7.3-1.4.3-.7.4-1.4.4-.7,0-1.4,0-.7.2-1.4.2-.7-.1-1.4-.1-.7-.5-1.4-.5-.7.2-1.4.2-.7.3-1.4.3-.7-.5-1.4-.5-.7.6-1.4.6-.7-.5-1.4-.5-.7.1-1.4.1-.7.3-1.4.3-.7-.2-1.4-.2-.7-.4-1.4-.4-.7.7-1.4.7-.7,0-1.4,0-.7-.8-1.4-.8-.7,0-1.4,0-.7.3-1.4.3-.7,0-1.4,0-.7-.4-1.4-.4-.7-.1-1.4-.1-.7.3-1.4.3-.7.2-1.4.2-.7,0-1.4,0-.7-.1-1.4-.1-.7,0-1.4,0-.7.4-1.4.4-.7-.8-1.4-.8-.7.3-1.5.3-.7.2-1.4.2-.7-.3-1.5-.3-.8.6-1.5.5c-.8-.1-.7-.7-1.4-.7s-1,.1-1.5.2c-.5,0-1,.2-1.5.3-.5,0-.8.7-1.3.9-.5.1-1.2-.5-1.7-.3-.5.2-.6,1.1-1,1.4-.4.2-.9.4-1.3.7-.4.3-.9.4-1.3.7-.4.3-.9.5-1.3.8-.3.3-.5.9-.8,1.3-.3.4-1,.5-1.3.9-.3.4.3,1.3,0,1.7-.2.4-1.1.5-1.3,1-.2.5-.1,1-.3,1.5-.1.5-.7.9-.8,1.4,0,.5.4,1.1.4,1.6,0,.5.2,1,.2,1.5,0,.7-.4.7-.4,1.5s0,.7,0,1.5-.3.7-.3,1.5.8.7.8,1.5-.8.7-.8,1.5.7.7.7,1.5-.2.7-.2,1.5.2.7.2,1.5-.3.7-.3,1.5-.6.7-.6,1.5,0,.7,0,1.5.3.7.3,1.5-.4.7-.4,1.5.2.7.2,1.5,0,.7,0,1.5.4.7.4,1.5-.2.7-.2,1.5-.5.7-.5,1.5Z"/>
  <path class="cls-1" d="M351.8,233.7c0-.5-.7-.8-.8-1.3-.1-.5-.3-.9-.5-1.3-.2-.5,0-1.1-.3-1.5-.2-.4-.5-.8-.8-1.2-.3-.4-.5-.9-.8-1.2-.3-.4-.4-1-.7-1.4s-1-.4-1.4-.7c-.4-.3-.8-.5-1.2-.8-.4-.3-.8-.5-1.2-.8-.4-.2-.8-.7-1.2-.9-.5-.2-1.2.4-1.6.2-.5-.1-.8-.7-1.3-.8-.5,0-.9-.3-1.4-.4-.5,0-1,0-1.5,0-.7,0-.7.1-1.4.1s-.7.2-1.4.2-.7-.1-1.4-.1-.7-.5-1.4-.5-.7.8-1.4.8-.7-.8-1.4-.8-.7.4-1.4.4-.7.3-1.4.3-.7-.7-1.4-.7-.7.2-1.4.2-.7-.2-1.4-.2-.7,0-1.4,0-.7,0-1.4,0-.7.8-1.4.8-.7-.1-1.4-.1-.7-.6-1.4-.6-.7.5-1.4.5-.7-.4-1.4-.4-.7,0-1.4,0-.7.2-1.4.2-.7.4-1.4.4-.7-.7-1.4-.7-.7-.3-1.4-.3-.7.6-1.4.6-.7-.4-1.4-.4-.7.8-1.4.8-.7-.5-1.4-.5-.7.2-1.4.2-.7.3-1.4.3-.7-.4-1.4-.4-.7-.3-1.4-.3-.7.5-1.4.5-.7-.3-1.4-.3-.7,0-1.4,0-.7-.5-1.4-.5-.7.9-1.4.9-.7,0-1.4,0-.7,0-1.4,0-.7-.2-1.4-.2-.7,0-1.4,0-.7-.6-1.4-.6-.7.4-1.4.4-.7,0-1.4,0-.7-.4-1.4-.4-.7.4-1.4.4-.7-.3-1.4-.3-.7.5-1.4.5-.7-.3-1.4-.3-.7.2-1.4.2-.7-.4-1.4-.4-.7.7-1.4.7-.7-.1-1.4-.1-.7.2-1.4.2-.7-.5-1.4-.5-.7-.4-1.4-.4-.7.6-1.4.6-.7-.1-1.4-.1-.7.3-1.4.3-.7-.4-1.4-.4-.7.1-1.4.1-.7,0-1.4,0-.7.2-1.4.2-.7.2-1.4.2-.7-.7-1.4-.7-.7.3-1.4.3-.7-.3-1.4-.3-.7.6-1.4.6-.7,0-1.4,0-.7,0-1.4,0-.7-.6-1.4-.6-.7.3-1.4.3-.7.3-1.4.3-.7-.3-1.4-.3-.7-.4-1.4-.4-.7.3-1.4.3-.7-.5-1.4-.5-.7.1-1.4.1-.7.7-1.4.7-.7-.5-1.4-.5-.7,0-1.4,0-.7.3-1.4.3-.7-.4-1.4-.4-.7,0-1.4,0-.7.4-1.4.4-.7,0-1.4,0-.7,0-1.4,0-.7,0-1.4,0-.7.6-1.4.6-.7-.6-1.4-.6-.7-.2-1.4-.2-.7.3-1.4.3-.7-.1-1.4-.1-.7-.1-1.4-.1-.7.5-1.4.5-.7-.6-1.4-.6-.7,0-1.4,0-.7.7-1.4.7-.7-.4-1.4-.4-.7.4-1.4.4-.7-.7-1.4-.7-.7.1-1.4.1-.7,0-1.4,0-.7.2-1.4.2-.7,0-1.4,0-.7-.3-1.4-.3-.7.4-1.4.4-.7-.4-1.4-.4-.7.2-1.4.2-.7-.1-1.4-.1-.7.4-1.4.4-.7-.7-1.4-.7-.7,0-1.4,0-.7,0-1.4,0-.7.8-1.4.8-.7.2-1.4.2-.7-1-1.4-1-.7.6-1.4.6-.7-.6-1.4-.6-.7.2-1.4.2-.7.7-1.4.7-.7-.6-1.4-.6-.7.5-1.4.5-.7-.6-1.4-.6-.7,0-1.4,0-.7.3-1.4.3-.7,0-1.4,0-.7-.1-1.4-.1-.7.4-1.4.4-.7-.3-1.4-.3-.7.3-1.4.3-.7-.6-1.4-.6-.7.7-1.4.7-.7-.4-1.4-.4-.7,0-1.4,0-.7-.3-1.4-.3-.7.7-1.4.7-.7,0-1.4,0-.7-.2-1.4-.2-.7-.2-1.5-.2-.7.5-1.4.5-.7-.8-1.5-.8-.7.2-1.4.2-.7.2-1.4.2-.7-.3-1.5-.3-.7.6-1.4.6-.7.2-1.5.2-.7-.2-1.5-.2-.7,0-1.5,0-.7,0-1.5,0-.8.2-1.5.1c-.8-.1-.7-.5-1.4-.5s-1,.1-1.5.2c-.5,0-1,.2-1.5.3-.5,0-.8.7-1.3.9-.5.1-1.2-.5-1.7-.3-.5.2-.6,1.1-1,1.4-.4.2-.9.4-1.3.7-.4.3-.9.4-1.3.7-.4.3-.9.5-1.3.8-.3.3-.5.9-.8,1.3-.3.4-1,.5-1.3.9-.3.4.3,1.3,0,1.7-.2.4-1.1.5-1.3,1-.2.5-.1,1-.3,1.5-.1.5-.7.9-.8,1.4,0,.5.4,1.1.4,1.6,0,.5.2,1,.2,1.5,0,.7-.4.7-.4,1.5s0,.7,0,1.5-.3.7-.3,1.5.8.7.8,1.5-.8.7-.8,1.5.7.7.7,1.5-.2.7-.2,1.5.2.9.2,1.4c0,.5-.2,1,0,1.5,0,.5-.3,1.1-.2,1.6.1.5.4.9.6,1.4.2.5.7.8.9,1.2.2.4.1,1.1.4,1.5.3.4.8.7,1.1,1.1.3.4.7.7,1,1.1.3.3,1,.4,1.3.7.4.3.7.7,1.1,1,.4.3.6,1,1,1.2.4.2,1.3-.5,1.8-.3.5.2.6,1.2,1.1,1.4.5.1,1,.2,1.5.3.5,0,1-.3,1.5-.2.5,0,1,.1,1.5.1.7,0,.7.4,1.4.4s.7-.5,1.4-.5.7.5,1.4.5.7-.4,1.4-.4.7-.6,1.4-.6.7,0,1.4,0,.7.8,1.4.8.7-.6,1.4-.6.7.5,1.4.5.7.2,1.4.2.7-.2,1.4-.2.7,0,1.4,0,.7-.2,1.4-.2.7,0,1.4,0,.7-.4,1.4-.4.7-.2,1.4-.2.7.3,1.4.3.7-.3,1.4-.3.7.8,1.4.8.7,0,1.4,0,.7-.4,1.4-.4.7,0,1.4,0,.7.4,1.4.4.7-.3,1.4-.3.7.2,1.4.2.7-.6,1.4-.6.7.4,1.4.4.7.3,1.4.3.7-.6,1.4-.6.7-.3,1.4-.3.7,0,1.4,0,.7,0,1.4,0,.7.3,1.4.3.7.5,1.4.5.7-.3,1.4-.3.7,0,1.4,0,.7.1,1.4.1.7-.5,1.4-.5.7-.1,1.4-.1.7.6,1.4.6.7-.7,1.4-.7.7.7,1.4.7.7-.5,1.4-.5.7,0,1.4,0,.7.2,1.4.2.7-.4,1.4-.4.7.6,1.4.6.7.2,1.4.2.7-.4,1.4-.4.7.2,1.4.2.7,0,1.4,0,.7,0,1.4,0,.7-.4,1.4-.4.7.6,1.4.6.7-.2,1.4-.2.7-.4,1.4-.4.7.1,1.4.1.7-.1,1.4-.1.7.7,1.4.7.7-.6,1.4-.6.7,0,1.4,0,.7-.2,1.4-.2.7,0,1.4,0,.7-.2,1.4-.2.7.8,1.4.8.7,0,1.4,0,.7-.6,1.4-.6.7.4,1.4.4.7,0,1.4,0,.7-.7,1.4-.7.7.2,1.4.2.7.4,1.4.4.7.2,1.4.2.7-.2,1.4-.2.7,0,1.4,0,.7,0,1.4,0,.7,0,1.4,0,.7-.2,1.4-.2.7.5,1.4.5.7,0,1.4,0,.7-.2,1.4-.2.7,0,1.4,0,.7.2,1.4.2.7.2,1.4.2.7,0,1.4,0,.7-.8,1.4-.8.7.1,1.4.1.7.6,1.4.6.7.2,1.4.2.7-.6,1.4-.6.7.7,1.4.7.7-.4,1.4-.4.7-.5,1.4-.5.7,0,1.4,0,.7.5,1.4.5.7-.5,1.4-.5.7.8,1.4.8.7-.4,1.4-.4.7.3,1.4.3.7-.7,1.4-.7.7.3,1.4.3.7.3,1.4.3.7.2,1.4.2.7-.7,1.4-.7.7,0,1.4,0,.7.3,1.4.3.7,0,1.4,0,.7,0,1.4,0,.7.2,1.4.2.7.2,1.4.2.7-.6,1.4-.6.7.6,1.4.6.7-.4,1.4-.4.7.3,1.4.3.7-.6,1.4-.6.7.4,1.4.4.7-.1,1.4-.1.7-.3,1.4-.3.7.4,1.4.4.7.2,1.4.2.7-.6,1.4-.6.7.4,1.4.4.7-.2,1.4-.2.7.3,1.4.3.7-.1,1.4-.1.7,0,1.4,0,.7-.7,1.4-.7.7.8,1.4.8.7-.8,1.4-.8.7,0,1.4,0,.7.1,1.4.1.7,0,1.4,0,.7.6,1.4.6.7,0,1.4,0,.7-.2,1.4-.2.7.3,1.4.3.7-.3,1.4-.3.7.4,1.4.4.7-.6,1.4-.6.7.2,1.5.2.7-.3,1.4-.3.7.3,1.5.3.7.3,1.5.3.7-.6,1.5-.6,1,.3,1.5.3c.5,0,1.1.5,1.6.4.5,0,.8-1.1,1.2-1.2.5-.1,1,0,1.5-.2.5-.2.9-.3,1.4-.6.4-.2.9-.4,1.3-.7.4-.3.8-.6,1.2-.9.4-.3.6-.7,1-1.1.5-.5.5-.5,1-1,.5-.5.5-.5,1-1,.5-.5.3-.8.8-1.3.5-.5,1.1,0,1.6-.4s.5-.5,1-1,.4-.6,1-1.1c.5-.5.1-.9.6-1.4s.7-.4,1.2-.9.9-.2,1.4-.7.2-.8.7-1.3.3-1,.6-1.4c.3-.4.9-.6,1.1-1,.3-.4.8-.7,1-1.1.2-.4.7-.8.9-1.2.2-.5,0-1,.2-1.5.1-.5.1-1,.2-1.5,0-.5-.2-1-.1-1.5,0-.5,0-.9,0-1.4s.6-1,.5-1.5c0-.5-.2-1-.3-1.5Z"/>
  <path class="cls-1" d="M397.2,49.4c0,.7,0,.7,0,1.4s0,.7,0,1.4.6.7.6,1.4-.2.7-.2,1.4,0,.7,0,1.4.3.7.3,1.4.1.7.1,1.4-.5.7-.5,1.4-.3.7-.3,1.4.9.7.9,1.4,0,.7,0,1.4-.7.7-.7,1.4.6.7.6,1.4.2.7.2,1.4-.3.7-.3,1.4-.6.7-.6,1.4.2.7.2,1.4-.3.7-.3,1.4.7.7.7,1.4-.5.7-.5,1.4-.3.7-.3,1.4.2.7.2,1.4.7.7.7,1.4-.5.7-.5,1.4.3.7.3,1.4-.6.7-.6,1.4.4.7.4,1.4-.6.7-.6,1.4.3.7.3,1.4.4.7.4,1.4-.6.7-.6,1.4.7.7.7,1.4-.4.7-.4,1.4.5.7.5,1.4-.1.7-.1,1.4-.5.7-.5,1.4.7.7.7,1.4-.2.7-.2,1.4-.2.7-.2,1.4-.3.7-.3,1.4,0,.7,0,1.4.2.7.2,1.4-.5.7-.5,1.4.7.7.7,1.4-.3.7-.3,1.4,0,.7,0,1.4-.3.7-.3,1.4.5.7.5,1.4-.2.7-.2,1.4-.5.7-.5,1.4,1,.7,1,1.4,0,.7,0,1.4-.5.7-.5,1.4.5.7.5,1.4-1,.7-1,1.4,0,.7,0,1.4.4.7.4,1.4.5.7.5,1.4-.4.7-.4,1.4.1.7.1,1.4,0,.7,0,1.4-.6.7-.6,1.4.7.7.7,1.4,0,.7,0,1.4-.7.7-.7,1.4.7.7.7,1.4-.6.7-.6,1.4.6.7.6,1.4-.7.7-.7,1.4.6.7.6,1.4-.2.7-.2,1.4-.6.7-.6,1.4.2.7.2,1.4-.1.7-.1,1.4.5.7.5,1.4.4.7.4,1.4-.3.7-.3,1.4-.6.7-.6,1.4.7.7.7,1.4-.1.6-.6,1.2c-.5.5-.4.6-1.1.6s-.7-.4-1.4-.4-.7.4-1.4.4-.7,0-1.4,0-.7-.5-1.4-.5-.7,0-1.4,0-.7-.3-1.4-.3-.7.3-1.4.3-.7,0-1.4,0-.7-.2-1.4-.2-.7.1-1.4.1-.7-.4-1.4-.4-.7,0-1.4,0-.7.1-1.4.1-.7.5-1.4.5-.7-.7-1.4-.7-.7.4-1.4.4-.7,0-1.4,0-.7-.5-1.4-.5-.7.6-1.4.6-.7-.4-1.4-.4-.7.7-1.4.7-.7,0-1.4,0-.7-.4-1.4-.4-.7.6-1.4.6-.7-.9-1.4-.9-.7,0-1.4,0-.7.4-1.4.4-.7-.3-1.4-.3-.7.5-1.4.5-.7,0-1.4,0-.7-.2-1.4-.2-.7-.3-1.4-.3-.7.2-1.4.2-.7.1-1.4.1-.7-.8-1.4-.8-.7.7-1.4.7-.7-.4-1.4-.4-.7.4-1.4.4-.7.2-1.4.2-.7-.6-1.4-.6-.7.5-1.4.5-.7,0-1.4,0-.7,0-1.4,0-.7,0-1.4,0-.7-.5-1.4-.5-.7.4-1.4.4-.7-.3-1.4-.3-.7,0-1.4,0-.7.4-1.4.4-.7-.8-1.4-.8-.7,0-1.4,0-.7,0-1.4,0-.7.2-1.4.2-.7,0-1.4,0-.7.4-1.4.4-.7-.5-1.4-.5-.7-.2-1.4-.2-.7.3-1.4.3-.7.2-1.4.2-.7-.1-1.4-.1-.7,0-1.4,0-.7-.1-1.4-.1-.7.4-1.4.4-.7-.6-1.4-.6-.7.7-1.4.7-.7-.8-1.4-.8-.7.6-1.4.6-.7,0-1.4,0-.7.2-1.4.2-.7-.3-1.4-.3-.7.1-1.4.1-.7.2-1.4.2-.7-.2-1.4-.2-.7.3-1.4.3-.7,0-1.4,0-.7-.4-1.4-.4-.7,0-1.4,0-.7.2-1.4.2-.7-.5-1.4-.5-.7.3-1.4.3-.7,0-1.4,0-.7.5-1.4.5-.7-.8-1.4-.8-.7.7-1.4.7-.7.2-1.4.2-.7-.5-1.4-.5-.7.2-1.4.2-.7-.5-1.4-.5-.7.8-1.4.8-.7-.9-1.4-.9-.7.3-1.4.3-.7.2-1.4.2-.7.1-1.4.1-.7.3-1.4.3-.7-.5-1.4-.5-.7.4-1.4.4-.7,0-1.4,0-.7-.5-1.4-.5-.7.3-1.4.3-.7.1-1.4.1-.7-.7-1.4-.7-.7.1-1.4.1-.7-.1-1.4-.1-.7.2-1.4.2-.7.6-1.4.6-.7-.2-1.4-.2-.7-.6-1.4-.6-.7.2-1.4.2-.7.4-1.4.4-.7,0-1.4,0-.7-.2-1.4-.2-.7,0-1.4,0-.7.4-1.4.4-.7-1-1.4-1-.7.6-1.4.6-.7-.2-1.4-.2-.7-.4-1.4-.4-.7.9-1.4.9-.7-.9-1.4-.9-.7.7-1.4.7-.7-.5-1.4-.5-.7.3-1.4.3-.7,0-1.4,0-.7-.4-1.4-.4-.7.3-1.4.3-.7.1-1.4.1-.7.4-1.4.4-.7,0-1.4,0-.7-.6-1.4-.6-.7-.1-1.4-.1-.7,0-1.4,0-.7.7-1.4.7-.7-.3-1.4-.3-.7.1-1.4.1-.7-.5-1.4-.5-.7-.1-1.4-.1-.7.8-1.4.8-.7-.6-1.4-.6-.7.5-1.4.5-.7,0-1.4,0-.7-.3-1.4-.3-.7-.2-1.4-.2-.7-.4-1.4-.4-.7.2-1.4.2-.7.5-1.4.5-.7-.2-1.4-.2-.7.1-1.4.1-.7-.5-1.4-.5-.7,0-1.4,0-.7.3-1.4.3-.7.5-1.4.5-.7-.1-1.4-.1-.7-.2-1.4-.2-.7-.4-1.4-.4-.7.7-1.4.7-.7-.2-1.4-.2-.7-.7-1.4-.7-.7.2-1.4.2-.7.4-1.4.4-.7.4-1.4.4-.7-.4-1.4-.4-.7-.1-1.4-.1-.7,0-1.4,0-.7,0-1.4,0-.7-.4-1.4-.4-.7-.1-1.4-.1-.7.7-1.4.7-.7-.1-1.4-.1-.7,0-1.4,0-.7-.5-1.4-.5-.7,0-1.4,0-.7.5-1.4.5-.7-.3-1.4-.3-.7.2-1.4.2-.7-.4-1.4-.4-.7.4-1.4.4-.7-.3-1.4-.3-.7.2-1.4.2-.7,0-1.4,0-.7-.2-1.4-.2-.7.4-1.4.4-.7.2-1.4.2-.7-.2-1.4-.2-.7.1-1.4.1-.7-.1-1.4-.1-.7.5-1.4.5-.7-.8-1.4-.8-.7.5-1.4.5-.7-.6-1.4-.6-.7.2-1.4.2-.7.1-1.4.1-.7-.3-1.4-.3-.7.6-1.4.6-1,.1-1.5.2c-.5,0-1-.2-1.5-.1-.5,0-1,0-1.5.1-.5.1-.7.9-1.2,1.1-.5.2-1.1,0-1.5.2-.4.2-.8.6-1.2.8-.4.3-.5.9-.9,1.2-.4.3-.7.7-1,1s-.8.5-1.1.9c-.3.4-.7.7-1,1.1-.3.4-.9.6-1.2,1-.2.4-.3,1-.5,1.4-.2.5.3,1.1.2,1.6-.1.5-.5.8-.6,1.3,0,.5,0,1,0,1.5,0,.5-.4.9-.4,1.4,0,.7-.3.7-.3,1.4s-.2.7-.2,1.4.3.7.3,1.4-.2.7-.2,1.4.5.7.5,1.4.3.7.3,1.4-.8.7-.8,1.4.3.7.3,1.4.4.7.4,1.4-.2.7-.2,1.4.2.7.2,1.4-.8.7-.8,1.4.6,1,.7,1.5c0,.5,0,1,0,1.5,0,.5.3.9.4,1.4.1.5,0,1.1.1,1.5.2.5.3,1,.5,1.4.2.4,1.2.4,1.5.8.3.4.5.8.8,1.2.3.4.3,1,.7,1.3.3.3.9.5,1.2.8.4.3.8.6,1.2.9.4.3.7.8,1.1,1,.4.2,1,.2,1.4.4.5.2.8.8,1.2,1,.5.1,1.1-.4,1.6-.3.5,0,1,0,1.5,0,.5,0,.9.7,1.4.7.7,0,.7.2,1.4.2s.7-.3,1.4-.3.7,0,1.4,0,.7-.6,1.4-.6.7.2,1.4.2.7.4,1.4.4.7.3,1.4.3.7,0,1.4,0,.7-.1,1.4-.1.7-.4,1.4-.4.7.2,1.4.2.7.1,1.4.1.7-.8,1.4-.8.7.9,1.4.9.7-.2,1.4-.2.7.2,1.4.2.7-.9,1.4-.9.7.8,1.4.8.7-.2,1.4-.2.7.4,1.4.4.7-.5,1.4-.5.7.5,1.4.5.7-.8,1.4-.8.7,0,1.4,0,.7.4,1.4.4.7,0,1.4,0,.7,0,1.4,0,.7-.1,1.4-.1.7,0,1.4,0h1.4c.7,0,.7-.2,1.4-.2s.7,0,1.4,0,.7,0,1.4,0,.7,0,1.4,0,.7-.2,1.4-.2.7.3,1.4.3.7.5,1.4.5.7.1,1.4.1.7-.7,1.4-.7.7.2,1.4.2.7,0,1.4,0,.7.3,1.4.3.7-.4,1.4-.4.7,0,1.4,0,.7.5,1.4.5.7-.1,1.4-.1.7.1,1.4.1.7-.4,1.4-.4.7-.3,1.4-.3.7,0,1.4,0,.7,0,1.4,0,.7.3,1.4.3.7,0,1.4,0,.7.6,1.4.6.7-.2,1.4-.2.7-.3,1.4-.3.7.3,1.4.3.7-.3,1.4-.3.7,0,1.4,0,.7.3,1.4.3.7-.2,1.4-.2.7-.2,1.4-.2.7-.3,1.4-.3.7.9,1.4.9.7-.5,1.4-.5.7,0,1.4,0,.7,0,1.4,0,.7-.1,1.4-.1.7,0,1.4,0,.7-.3,1.4-.3.7.6,1.4.6.7.2,1.4.2.7.2,1.4.2.7-.7,1.4-.7.7.6,1.4.6.7-.4,1.4-.4.7,0,1.4,0,.7-.1,1.4-.1.7.7,1.4.7.7-.7,1.4-.7.7,0,1.4,0,.7.7,1.4.7.7-1,1.4-1,.7.6,1.4.6.7.4,1.4.4.7-.6,1.4-.6.7,0,1.4,0,.7.4,1.4.4.7.1,1.4.1.7,0,1.4,0,.7.3,1.4.3.7-.3,1.4-.3.7-.3,1.4-.3.7.3,1.4.3.7-.1,1.4-.1.7-.2,1.4-.2.7-.2,1.4-.2.7.2,1.4.2.7-.3,1.4-.3.7.2,1.4.2.7-.2,1.4-.2.7,0,1.4,0,.7.5,1.4.5.7.3,1.4.3.7,0,1.4,0,.7-.7,1.4-.7.7,1,1.4,1,.7,0,1.4,0,.7,0,1.4,0,.7-.9,1.4-.9.7.4,1.4.4.7.2,1.4.2.7,0,1.4,0,.7-.2,1.4-.2.7.3,1.4.3.7-.6,1.4-.6.7-.2,1.4-.2.7.8,1.4.8.7,0,1.4,0,.7-.6,1.4-.6.7.2,1.4.2.7-.1,1.4-.1.7,0,1.4,0,.7.3,1.4.3.7,0,1.4,0,.7-.5,1.4-.5.7,0,1.4,0,.7.2,1.4.2.7-.3,1.4-.3.7.9,1.4.9.7-.2,1.4-.2.7-.5,1.4-.5.7,0,1.4,0,.7.6,1.4.6.7,0,1.4,0,.7-.7,1.4-.7.7.8,1.4.8.7-.8,1.4-.8.7.4,1.4.4.7-.3,1.4-.3.7-.2,1.4-.2.7.5,1.4.5.7-.6,1.4-.6.7.8,1.4.8.7-.3,1.4-.3.7-.4,1.4-.4.7.6,1.4.6.7-.5,1.4-.5.7.6,1.4.6.7,0,1.4,0,.7.1,1.4.1.7-.9,1.4-.9.7.2,1.4.2.7.5,1.4.5.7,0,1.4,0,.7,0,1.4,0,.7-.2,1.4-.2.7.2,1.4.2.7-.4,1.4-.4.7.8,1.4.8.7-.5,1.4-.5.7.7,1.4.7.7-.4,1.4-.4.7,0,1.4,0,.7,0,1.4,0,.7.4,1.4.4.7-.8,1.4-.8.7,0,1.4,0,.7.4,1.4.4.7-.2,1.4-.2.7,0,1.4,0,.7,0,1.4,0,.7.6,1.4.6.7-.5,1.4-.5.7.1,1.4.1.7.2,1.4.2.7.3,1.4.3.7-.3,1.4-.3.7.5,1.4.5.7-.8,1.4-.8.7,0,1.4,0,.7,0,1.4,0,.7,0,1.4,0,.7.4,1.4.4.7-.2,1.4-.2.7.2,1.4.2.7.3,1.4.3.7.2,1.4.2.7-.5,1.4-.5.7-.4,1.4-.4.7.6,1.4.6.7,0,1.4,0,.7.4,1.4.4.7-.8,1.4-.8.7.3,1.4.3.7.2,1.4.2.7,0,1.4,0,.7.3,1.4.3.7,0,1.4,0,.7-.9,1.4-.9.7.5,1.4.5.7-.6,1.4-.6.7.8,1.4.8.7-.5,1.4-.5.7-.3,1.4-.3.7.4,1.4.4.7-.4,1.4-.4.7.2,1.4.2.7.3,1.4.3.7.2,1.4.2.7-.2,1.4-.2.7.5,1.4.5.7-.4,1.4-.4.7.1,1.4.1.7.3,1.4.3.7-.5,1.4-.5.7,0,1.4,0,.7.2,1.4.2.7-.2,1.4-.2.7.2,1.4.2.7-.2,1.4-.2.7-.2,1.4-.2.7-.2,1.4-.2.7.9,1.4.9.7-.3,1.4-.3.7.4,1.4.4.7-.6,1.4-.6.7.4,1.4.4.7-.3,1.4-.3.7-.4,1.4-.4.7.8,1.4.8.7-.3,1.4-.3.7.2,1.4.2.7,0,1.4,0,.7,0,1.4,0,.7,0,1.4,0,.7,0,1.4,0,.7-.2,1.4-.2.7.6,1.4.6.7-.8,1.5-.8.7,0,1.5,0,.9,1,1.4,1.2c.5.2.9.2,1.4.5.4.3.7.6,1.1,1,.3.4.6.8.8,1.3.2.5.5.9.5,1.5s.2,1.2,0,1.6c-.2.5-1,.7-1.3,1.1-.3.4-.4,1-.8,1.3-.4.3-.9.4-1.4.6-.5.2-1,0-1.5,0s-.7.3-1.4.3-.7-.2-1.4-.2-.7.7-1.4.7-.7-.4-1.4-.4-.7-.2-1.4-.2-.7-.2-1.4-.2-.7.2-1.4.2-.7.5-1.4.5-.7-.7-1.4-.7-.7.2-1.4.2-.7-.3-1.4-.3-.7.4-1.4.4-.7,0-1.4,0-.7-.4-1.4-.4-.7,0-1.4,0-.7,0-1.4,0-.7.9-1.4.9-.7-.9-1.4-.9-.7.9-1.4.9-.7-.6-1.4-.6-.7-.3-1.4-.3-.7,0-1.4,0-.7.6-1.4.6-.7-.5-1.4-.5-.7.1-1.4.1-.7.3-1.4.3-.7.3-1.4.3-.7-.2-1.4-.2-.7-.4-1.4-.4-.7,0-1.4,0-.7.6-1.4.6-.7-.7-1.4-.7-.7-.1-1.4-.1-.7.7-1.4.7-.7-.4-1.4-.4-.7-.4-1.4-.4-.7.6-1.4.6-.7-.3-1.4-.3-.7,0-1.4,0-.7-.3-1.4-.3-.7.6-1.4.6-.7,0-1.4,0-.7,0-1.4,0-.7-.1-1.4-.1-.7,0-1.4,0-.7-.4-1.4-.4-.7.4-1.4.4-.7-.2-1.4-.2-.7,0-1.5,0-.7.7-1.5.7-1-.6-1.5-.5c-.5,0-1-.1-1.5,0-.5,0-1,.2-1.5.3-.5.1-.6,1.2-1.1,1.4-.5.2-1.3-.4-1.7-.2-.4.2-.9.5-1.3.8-.4.3-.9.5-1.3.8-.4.3-.6.8-1,1.1-.5.5,0,1-.5,1.5s-1,0-1.5.5c-.5.5-.6.4-1.1,1-.5.5-.7.4-1.2.9-.5.5,0,1.1-.4,1.6-.5.5-.5.5-1,1.1-.5.5-.8.2-1.3.7s-.7.3-1.3.8-.3.7-.8,1.2-.7.4-1.2.9-.2,1.2-.5,1.5c-.3.4-1.3.3-1.6.7-.3.4-.1,1.1-.4,1.5-.2.4-.9.7-1.1,1.1-.2.5-.3,1-.4,1.5-.1.5.5,1.1.4,1.6,0,.5-.2.9-.3,1.4,0,.5,0,.9,0,1.4,0,.5-.5,1-.4,1.5,0,.5-.3,1.1-.2,1.5,0,.5.4.9.5,1.4.1.5,1,.7,1.2,1.1.2.5-.3,1.2,0,1.6.2.4,1.2.4,1.4.9.3.4,0,1.2.4,1.5.3.4,1,.4,1.3.8.3.3.1,1.3.5,1.6.4.3,1.3-.2,1.8.1.4.3.4,1.2.8,1.5.4.2,1,.3,1.4.5.5.2.9.4,1.4.5.5.1.9.5,1.4.6.5,0,1-.2,1.5-.1.5,0,1,.4,1.5.4.7,0,.7-.3,1.4-.3s.7-.4,1.4-.4.7,0,1.4,0,.7.3,1.4.3.7.3,1.4.3.7,0,1.4,0,.7,0,1.4,0,.7.3,1.4.3.7-.3,1.4-.3.7-.3,1.4-.3.7.2,1.4.2.7,0,1.4,0,.7-.2,1.4-.2.7-.4,1.4-.4.7.2,1.4.2.7.6,1.4.6.7-.6,1.4-.6.7-.1,1.4-.1.7,0,1.4,0,.7,0,1.4,0,.7.3,1.4.3.7-.3,1.4-.3.7.5,1.4.5.7-.6,1.4-.6.7.5,1.4.5.7,0,1.4,0,.7-.3,1.4-.3.7.5,1.4.5.7-.2,1.4-.2.7,0,1.4,0,.7.5,1.4.5.7-.6,1.4-.6.7-.2,1.4-.2.7.8,1.4.8.7,0,1.4,0,.7,0,1.4,0,.7,0,1.4,0,.7-.4,1.4-.4.7,0,1.4,0,.7,0,1.4,0,.7-.5,1.4-.5.7,0,1.4,0,.7,0,1.4,0,.7.1,1.4.1.7-.3,1.4-.3.7.3,1.4.3.7,0,1.4,0,.7,0,1.4,0,.7-.1,1.4-.1.7.4,1.4.4.7.1,1.4.1.7,0,1.4,0,.7.3,1.4.3.7,0,1.4,0,.7-.8,1.4-.8.7,0,1.4,0,.7.6,1.4.6.7-.3,1.4-.3.7.5,1.4.5.7-.5,1.4-.5.7.3,1.4.3.7-.5,1.4-.5.7,0,1.4,0,.7.4,1.4.4.7-.5,1.4-.5.7.3,1.4.3.7.2,1.4.2.7.5,1.4.5.7-.7,1.4-.7.7.3,1.4.3.7-.2,1.4-.2.7.3,1.4.3.7-.2,1.4-.2.7-.2,1.4-.2.7,0,1.4,0,.7-.1,1.4-.1.7.6,1.4.6.7-.6,1.4-.6.7.4,1.4.4.7.1,1.4.1.7.3,1.4.3.3,0,.4,0c.2-4.1.3-8.2.3-12.3,0-82.9-40.3-156.3-102.4-201.8,0,.5-.4.6-.4,1.2Z"/>
  <path class="cls-1" d="M498,271.5c-.7,0-.7,0-1.4,0s-.7.1-1.4.1-.7,0-1.4,0-.7.4-1.4.4-.7,0-1.4,0-.7.2-1.4.2-.7-.4-1.4-.4-.7.6-1.4.6-.7-.3-1.4-.3-.7.2-1.4.2-.7.2-1.4.2-.7-.2-1.4-.2-.7-.2-1.4-.2-.7.3-1.4.3-.7-.1-1.4-.1-.7.2-1.4.2-.7-.2-1.4-.2-.7.2-1.4.2-.7.2-1.4.2-.7-.2-1.4-.2-.7,0-1.4,0-.7,0-1.4,0-.7.2-1.4.2-.7-.9-1.4-.9-.7.3-1.4.3-.7.5-1.4.5-.7-.9-1.4-.9-.7.3-1.4.3-.7-.2-1.4-.2-.7.2-1.4.2-1-.2-1.5-.2c-.5,0-1,.1-1.5.2-.5,0-.9.5-1.4.7-.5.1-.9.5-1.3.7-.5.2-.8.6-1.2.8-.4.2-.8.4-1.3.7-.4.3-.8.5-1.2.8-.4.3-1,.4-1.3.7-.3.3-.9.5-1.2.9-.3.4-.7.7-1,1.1-.3.4-.4,1-.6,1.4-.2.4.1,1.1,0,1.6-.2.5-.9.7-1.1,1.2-.1.5-.3,1-.4,1.4,0,.5,0,1-.1,1.5,0,.5.6,1,.6,1.5,0,.7-.8.7-.8,1.4s.1.7.1,1.4-.3.7-.3,1.4.7.7.7,1.4-.3.7-.3,1.4,0,.7,0,1.4-.3.7-.3,1.4.2.7.2,1.4.3.7.3,1.4-.1.7-.1,1.4-.5.7-.5,1.4,0,.7,0,1.4.5.7.5,1.4.2.7.2,1.4-.2.7-.2,1.4-.6.7-.6,1.4.4.7.4,1.4,0,.7,0,1.4.2.7.2,1.4-.4.7-.4,1.4,0,.7,0,1.4.9.7.9,1.4-.2.7-.2,1.4-.3.7-.3,1.4-.5.7-.5,1.4,0,.7,0,1.4.3.7.3,1.4.3.7.3,1.4,0,.7,0,1.4-.6.7-.6,1.4.7.7.7,1.4,0,.7,0,1.4-.8.7-.8,1.4.1.7.1,1.4,0,.7,0,1.4.7.7.7,1.4-1,.7-1,1.4.8.7.8,1.4,0,.7,0,1.4-.6.7-.6,1.4.2.7.2,1.4.4.7.4,1.4.4.7.4,1.4-.2.7-.2,1.4-.1.7-.1,1.4-.5.7-.5,1.4.4.7.4,1.4-.2.7-.2,1.4,0,.7,0,1.4.3.7.3,1.4-.1.7-.1,1.4,0,.7,0,1.4,0,.7,0,1.4-.5.7-.5,1.4.7.7.7,1.4-.9.7-.9,1.4.3.7.3,1.4.4.7.4,1.4-.5.7-.5,1.4,0,.7,0,1.4,0,.7,0,1.4.3.7.3,1.4.4.7.4,1.4-.4.7-.4,1.4-.4.7-.4,1.4.6.7.6,1.4-.2.7-.4,1.3c-.3.7,0,.8-.6,1.3-.5.5-.5.5-1,1-.5.5-.9.2-1.4.7s-.5.5-1,1c-.5.5-.5.5-1,1-.5.5-.5.5-1,1.1-.5.5-.6.5-1.1,1-.5.5,0,1.1-.5,1.6-.5.5-.9,0-1.5.6-.5.5-.2.8-.7,1.3-.5.5-.3.7-.8,1.2-.5.5-.5.5-1,1-.5.5-1.1-.1-1.6.4s-.4.7-.9,1.2c-.5.5-.7.3-1.2.8s.1,1.1-.4,1.6-.9.1-1.4.6-.1.9-.6,1.4c-.5.5-.8.2-1.3.7s0,.9-.6,1.4-.6.4-1.1.9-.5.5-1,1-.9.1-1.4.6c-.5.5-.1.9-.6,1.4-.5.5-1,0-1.5.5s-.3.7-.8,1.2c-.5.5-.7.4-1.2.9-.5.5-.5.6-1,1.1-.5.5-.7.3-1.2.8-.5.5,0,1.1-.4,1.6s-.4.6-.9,1.1c-.5.5-.6.5-1.1,1s-.5.5-1.1,1-.9.1-1.4.7c-.5.5-.4.6-.9,1.2-.5.5-.2.8-.7,1.3-.5.5-.7.4-1.2.9s-.6.4-1.2.9c-.5.5-.9.2-1.4.7-.5.5,0,1-.5,1.5-.5.5-.4.7-.9,1.2s-.6.4-1.2.9-.6.5-1.1,1c-.5.5-.8.3-1.3.8s-.1.9-.6,1.4c-.5.5-.9,0-1.5.6s-.5.6-1,1.1c-.5.5-.5.6-1,1.1-.5.5-.2.8-.7,1.3s-1.1,0-1.6.5-.4.6-.9,1.1-.2.8-.7,1.3c-.5.5-.9.1-1.4.6-.5.5,0,1-.6,1.5-.5.5-1,0-1.5.5-.5.5,0,.9-.6,1.5s-.7.3-1.2.9c-.5.5-.8.2-1.4.7s0,1-.5,1.5c-.5.5-.3.7-.8,1.2-.5.5-1.1,0-1.6.5s-.4.6-.9,1.2c-.5.5-.5.6-1,1.1-.5.5-.6.4-1.2.9-.5.5-.2.8-.9,1.1-.7.3-.7.3-1.4.3s-.7,0-1.4,0-.7-.5-1.4-.5-.7,0-1.4,0-.7.4-1.4.4-.7.3-1.4.3-.7-.1-1.4-.1-.7.2-1.4.2-.7-.1-1.4-.1-.7-.5-1.4-.5-.7.5-1.4.5-.7-.6-1.4-.6-.7,0-1.4,0-.7-.3-1.4-.3-.7.7-1.4.7-.7-.4-1.4-.4-.7-.2-1.4-.2-.7.8-1.4.8-.7-.1-1.4-.1-.7-.2-1.4-.2-.7-.2-1.4-.2-.7.5-1.4.5-.7,0-1.4,0-.7-.1-1.4-.1-.7-.5-1.4-.5-.7,0-1.4,0-.7.5-1.4.5-.7.3-1.4.3-.7,0-1.4,0-.7-.2-1.4-.2-.7-.4-1.4-.4-.7.4-1.4.4-.7,0-1.4,0-.7-.2-1.4-.2-.7-.5-1.4-.5-.7,0-1.4,0-.7.5-1.4.5-.7,0-1.4,0-.7.2-1.4.2-.7-.3-1.4-.3-.7.2-1.4.2-.7.2-1.4.2-.7-.6-1.4-.6-.7-.2-1.4-.2-.7,0-1.4,0-.7.2-1.4.2-.7.6-1.4.6-.7-.8-1.4-.8-.7-.3-1.4-.3-.7.2-1.4.2-.7.7-1.4.7-.7,0-1.4,0-.7-.7-1.4-.7-.7.6-1.4.6-.7-.3-1.4-.3-.7-.3-1.4-.3-.7-.2-1.4-.2-.7.2-1.4.2-.7,0-1.4,0-.7.5-1.4.5-.7-.6-1.4-.6-.7.2-1.4.2-.7-.2-1.4-.2-.7-.2-1.4-.2-.7,0-1.4,0-.7.6-1.4.6-.7-.5-1.4-.5-.7-.2-1.4-.2-.7.6-1.4.6-.7.3-1.4.3-.7,0-1.4,0-.7-.5-1.4-.5-.7.2-1.4.2-.7-.4-1.4-.4-.7.2-1.4.2-.7-.2-1.4-.2-.7-.2-1.4-.2-.7.8-1.4.8-.7-.5-1.4-.5-.7,0-1.4,0-.7.6-1.4.6-.7-.3-1.4-.3-.7.3-1.4.3-.7-.2-1.4-.2-.7-.2-1.4-.2-.7-.3-1.4-.3-.7,0-1.4,0-.7-.3-1.4-.3-.7.6-1.4.6-.7.1-1.4.1-.7-.8-1.4-.8-.7.8-1.4.8-.7-.6-1.4-.6-.7.5-1.4.5-.7-.6-1.4-.6-.7.5-1.4.5-.7-.1-1.4-.1-.7-.4-1.4-.4-.7.5-1.4.5-.7-.2-1.4-.2-.7.4-1.4.4-.7-.3-1.4-.3-.7,0-1.4,0-.7.6-1.4.6-.7-.9-1.4-.9-.7.9-1.4.9-.7-.5-1.4-.5-.7.2-1.4.2-.7,0-1.4,0-.7-.3-1.4-.3-.7.2-1.4.2-.7-.5-1.4-.5-.7.5-1.4.5-.7,0-1.4,0-.7.2-1.4.2-.7.1-1.4.1-.7-.6-1.4-.6-.7-.4-1.4-.4-.7.6-1.4.6-.7-.5-1.4-.5-.7.4-1.4.4-.7,0-1.4,0-.7,0-1.4,0-.7.5-1.4.5-.7-.1-1.4-.1-.7-.7-1.4-.7-.7.8-1.4.8-.7,0-1.4,0-.7-.3-1.4-.3-.7-.2-1.4-.2-.7,0-1.4,0-.7-.5-1.4-.5-.7,0-1.4,0-.7,0-1.4,0-.7.1-1.4.1-.7.4-1.4.4-.7-.6-1.4-.6-.7.2-1.4.2-.7,0-1.4,0-.7-.1-1.4-.1-.7.7-1.4.7-.7,0-1.4,0-.7,0-1.4,0-.7-.7-1.4-.7-.7.8-1.4.8-.7,0-1.4,0-.7-.5-1.4-.5-.7.3-1.4.3-.7-.4-1.4-.4-.7,0-1.4,0-.7.3-1.4.3-.7.4-1.4.4-.7.1-1.4.1-.7-.8-1.4-.8-.7.7-1.4.7-.7-.8-1.4-.8-.7.6-1.4.6-.7-.3-1.4-.3-.7.6-1.4.6-.7-.5-1.4-.5-.7-.2-1.4-.3c-.7-.1-.8,0-1.5,0s-1,0-1.5-.1c-.5-.2-1-.3-1.4-.6-.4-.3-1.2-.3-1.5-.7-.3-.4.2-1.3,0-1.8-.2-.5-1-.9-1-1.4s.1-1.1.3-1.6c.2-.5.6-.9.9-1.4.3-.4.8-.6,1.3-.9.4-.3.8-.8,1.3-.9.5-.2,1,.2,1.6.2s.7-.9,1.4-.9.7.8,1.4.8.7-.2,1.4-.2.7.4,1.4.4.7-.6,1.4-.6.7-.3,1.4-.3.7.4,1.4.4.7,0,1.4,0,.7.3,1.4.3.7-.8,1.4-.8.7.8,1.4.8.7-.7,1.4-.7.7.2,1.4.2.7-.2,1.4-.2.7.3,1.4.3.7.6,1.4.6.7,0,1.4,0,.7-.3,1.4-.3.7.4,1.4.4.7-.2,1.4-.2.7,0,1.4,0,.7-.4,1.4-.4.7.2,1.4.2.7.5,1.4.5.7-1,1.4-1,.7.9,1.4.9.7,0,1.4,0,.7-.4,1.4-.4.7,0,1.4,0,.7.4,1.4.4.7-.5,1.4-.5.7.5,1.4.5.7-.4,1.4-.4.7-.6,1.4-.6.7,0,1.4,0,.7.8,1.4.8.7-.6,1.4-.6.7.5,1.4.5.7.2,1.4.2.7-.2,1.4-.2.7,0,1.4,0,.7-.2,1.4-.2.7,0,1.4,0,.7-.4,1.4-.4.7-.2,1.4-.2.7.3,1.4.3.7-.3,1.4-.3.7.8,1.4.8.7,0,1.4,0,.7-.4,1.4-.4.7,0,1.4,0,.7.4,1.4.4.7-.3,1.4-.3.7.2,1.4.2.7-.6,1.4-.6.7.4,1.4.4.7.3,1.4.3.7-.6,1.4-.6.7-.3,1.4-.3.7,0,1.4,0,.7,0,1.4,0,.7.3,1.4.3.7.5,1.4.5.7-.3,1.4-.3.7,0,1.4,0,.7.1,1.4.1.7-.5,1.4-.5.7-.1,1.4-.1.7.6,1.4.6.7-.7,1.4-.7.7.7,1.4.7.7-.5,1.4-.5.7,0,1.4,0,.7.2,1.4.2.7-.4,1.4-.4.7.6,1.4.6.7.2,1.4.2.7-.4,1.4-.4.7.2,1.4.2.7,0,1.4,0,.7,0,1.4,0,.7-.4,1.4-.4.7.6,1.4.6.7-.2,1.4-.2.7-.4,1.4-.4.7.1,1.4.1.7-.1,1.4-.1.7.7,1.4.7.7-.6,1.4-.6.7,0,1.4,0,.7-.2,1.4-.2.7,0,1.4,0,.7-.2,1.4-.2.7.8,1.4.8.7,0,1.4,0,.7-.6,1.4-.6.7.4,1.4.4.7,0,1.4,0,.7-.7,1.4-.7.7.2,1.4.2.7.4,1.4.4.7.2,1.4.2.7-.2,1.4-.2.7,0,1.4,0,.7,0,1.4,0,.7,0,1.4,0,.7-.2,1.4-.2.7.5,1.4.5.7,0,1.4,0,.7-.2,1.4-.2.7,0,1.4,0,.7.2,1.4.2.7.2,1.4.2.7-.1,1.4-.1.7-.8,1.4-.8.7.1,1.4.1.7.6,1.4.6.7.2,1.4.2.7-.6,1.4-.6.7.7,1.4.7.7-.4,1.4-.4.7-.5,1.4-.5.7,0,1.4,0,.7.5,1.4.5.7-.5,1.4-.5.7.8,1.4.8.7-.4,1.4-.4.7.3,1.4.3.7-.7,1.4-.7.7.3,1.4.3.7.3,1.4.3.7.2,1.4.2.7-.7,1.4-.7.7,0,1.4,0,.7.3,1.4.3.7,0,1.4,0,.7,0,1.4,0,.7.2,1.4.2.7.2,1.4.2.7-.6,1.4-.6.7.7,1.4.7.7-.4,1.4-.4.7.3,1.4.3.7-.6,1.4-.6.7.4,1.4.4.7-.1,1.4-.1.7-.3,1.4-.3.7.4,1.4.4.7.2,1.4.2.7-.6,1.4-.6.7.4,1.4.4.7-.2,1.4-.2.7.3,1.4.3.7-.1,1.4-.1.7,0,1.4,0,.9-.8,1.4-.8c.5,0,1.1.7,1.6.6.5,0,.8-.9,1.2-1.1.5-.1.9-.4,1.3-.5.5-.2.9-.3,1.3-.5.4-.2.8-.5,1.2-.8.4-.3,1.2,0,1.5-.4.4-.3.7-.7,1.1-1.1.5-.5.4-.7.9-1.2s.7-.3,1.2-.8c.5-.5.3-.7.8-1.2s.8-.2,1.3-.7,0-.9.6-1.4.6-.4,1.1-.9c.5-.5.3-.7.8-1.2s.7-.3,1.2-.8c.5-.5.7-.3,1.2-.8s0-1,.6-1.5c.5-.5.8-.3,1.3-.8.5-.5.9,0,1.5-.6.5-.5-.1-1.1.4-1.6.5-.5.7-.3,1.2-.8s.6-.5,1.1-1,.6-.5,1.1-1,.5-.5,1-1,.4-.6.9-1.1.5-.5,1-1,.5-.5,1-1,.3-.8.8-1.3c.5-.5,1.1,0,1.6-.4.5-.5.5-.5,1-1s.4-.6.9-1.1c.5-.5.1-.9.6-1.4s.7-.4,1.2-.9c.5-.5.9-.2,1.4-.7s.2-.8.7-1.3c.5-.5.2-.8.7-1.3.5-.5.8-.3,1.3-.8.5-.5.7-.3,1.2-.8s.7-.3,1.2-.8c.5-.5.3-.7.8-1.2.5-.5.4-.6.9-1.1.5-.5.3-.8.8-1.3.5-.5.5-.5,1-1.1.5-.5.9,0,1.4-.6s.4-.6.9-1.1c.5-.5.2-.8.7-1.4.5-.5.5-.5,1-1s.8-.2,1.3-.7c.5-.5.5-.6,1-1.1.5-.5.6-.4,1.1-1s.8-.3,1.3-.8.2-.8.8-1.3c.5-.5.5-.6,1-1.1.5-.5.5-.5,1-1s.7-.3,1.2-.8c.5-.5,0-1.1.5-1.6.5-.5.8-.2,1.3-.7.5-.5.6-.4,1.1-.9s.6-.8.9-1.1c.3-.4.5-.8.8-1.3.3-.4.4-.9.6-1.3.2-.4.5-.8.7-1.3.2-.5.8-.8,1-1.2.1-.5-.5-1.1-.4-1.6,0-.5.9-.8,1-1.3,0-.5-.3-1-.3-1.5,0-.7-.3-.7-.3-1.4s.7-.7.7-1.4-.2-.7-.2-1.4.2-.7.2-1.4,0-.7,0-1.4,0-.7,0-1.4-.8-.7-.8-1.4.1-.7.1-1.4.6-.7.6-1.4-.5-.7-.5-1.4.4-.7.4-1.4,0-.7,0-1.4-.2-.7-.2-1.4-.4-.7-.4-1.4.7-.7.7-1.4.3-.7.3-1.4-.6-.7-.6-1.4.4-.7.4-1.4-.8-.7-.8-1.4.5-.7.5-1.4-.2-.7-.2-1.4-.3-.7-.3-1.4.4-.7.4-1.4.3-.7.3-1.4-.5-.7-.5-1.4.3-.7.3-1.4,0-.7,0-1.4.5-.7.5-1.4-.9-.7-.9-1.4,0-.7,0-1.4,0-.7,0-1.4.2-.7.2-1.4,0-.7,0-1.4.6-.7.6-1.4-.4-.7-.4-1.4,0-.7,0-1.4.4-.7.4-1.4-.4-.7-.4-1.4.3-.7.3-1.4-.5-.7-.5-1.4.3-.7.3-1.4-.2-.7-.2-1.4.4-.7.4-1.4-.7-.7-.7-1.4.1-.7.1-1.4-.2-.7-.2-1.4.5-.7.5-1.4.4-.7.4-1.4-.6-.7-.6-1.4.1-.7.1-1.4-.3-.7-.3-1.4.4-.7.4-1.4-.1-.7-.1-1.4,0-.7,0-1.4-.2-.7-.2-1.4-.2-.7-.2-1.4.7-.7.7-1.4-.3-.7-.3-1.4.3-.7.3-1.4-.6-.7-.6-1.4,0-1,0-1.4c0-.5-.2-.9-.3-1.4,0-.5.3-1.1.2-1.6-.1-.5-.6-.8-.8-1.3-.2-.5-.7-.7-.9-1.2-.2-.4-.2-1-.5-1.4-.3-.4-.2-1.1-.6-1.4-.3-.4-.9-.6-1.2-.9-.3-.3-.4-1.1-.8-1.4-.4-.3-.9-.5-1.3-.8-.4-.3-1.2,0-1.6-.2-.4-.2-.7-.9-1.1-1.1-.5-.2-.9-.3-1.4-.5-.5-.1-1,0-1.5-.1-.5,0-.9-.5-1.4-.6-.5,0-1-.2-1.5-.2-.7,0-.7.4-1.4.4s-.7,0-1.4,0-.7,0-1.4,0-.7,0-1.4,0-.7.6-1.4.6-.7-.6-1.4-.6-.7-.2-1.4-.2-.7.3-1.4.3-.7-.1-1.4-.1-.7-.1-1.4-.1-.7.5-1.4.5-.7-.6-1.4-.6-.7,0-1.4,0-.7.7-1.4.7-.7-.4-1.4-.4-.7.4-1.4.4-.7-.7-1.4-.7-.7.1-1.4.1-.7,0-1.4,0-.7.2-1.4.2-.7,0-1.4,0-.7-.3-1.4-.3-.7.4-1.4.4-.7-.4-1.4-.4-.7.2-1.4.2-.7-.1-1.4-.1-.7.4-1.4.4-.7-.7-1.4-.7-.7,0-1.4,0-.7,0-1.4,0-.7.8-1.4.8-.7.2-1.4.2-.7-1-1.4-1-.7.6-1.4.6-.7-.6-1.4-.6-.7.2-1.4.2-.7.7-1.4.7-.7-.6-1.4-.6-.7.5-1.4.5-.7-.6-1.4-.6-.7,0-1.4,0-.7.3-1.4.3-.7,0-1.4,0-.7-.1-1.4-.1-.7.4-1.4.4-.7-.3-1.4-.3-.7.3-1.4.3-.7-.6-1.4-.6-.7.7-1.4.7-.7-.4-1.4-.4-1,0-1.5,0c-.5,0-1-.2-1.5-.1-.5,0-.8.9-1.3,1-.5.1-.9.2-1.4.4-.5.2-1,.2-1.4.4-.4.2-1,.3-1.4.6-.4.3-.5,1-.9,1.3-.4.3-1.3,0-1.7.4-.5.5-.3.7-.8,1.2-.5.5-.4.6-.9,1.1s-.7.3-1.2.8,0,.9-.6,1.4c-.5.5-.4.6-.9,1.2-.5.5-.7.3-1.2.8-.5.5-.5.5-1,1s-.6.4-1.1.9-.4.6-.9,1.1-.3.7-.8,1.3c-.5.5-.9,0-1.4.6-.5.5-.6.4-1.1.9-.5.5-.5.5-1,1s-.6.4-1.1.9c-.5.5-.1.9-.6,1.4s-.4.6-.9,1.1c-.5.5-.6.4-1.1.9-.5.5-.8.2-1.3.7-.5.5-.2.8-.7,1.3-.5.5-.3.7-.8,1.2-.5.5-.7.3-1.2.8-.5.5-.6.4-1.1.9-.5.5-.5.5-1,1-.5.5,0,1-.5,1.5s-1.1-.1-1.6.4c-.5.5-.6.4-1.1.9s.2,1.2-.3,1.7-.6.4-1.1.9-1.1,0-1.6.4,0,1-.6,1.5-.8.2-1.3.7-.2.9-.7,1.4-.6.5-1.1,1c-.5.5-.5.5-1,1s-.4.9-.7,1.3c-.3.4-1.2.3-1.5.7-.3.4.2,1.2,0,1.7-.2.4-.6.8-.8,1.2-.2.5-1,.7-1.2,1.1-.1.5.2,1.1.1,1.6,0,.5-.7.9-.8,1.4,0,.5.3,1,.3,1.5s0,1,0,1.5c0,.5.6.9.7,1.4,0,.5-.4,1.1-.2,1.6.1.5.5.9.7,1.3s.2,1,.4,1.5c.2.4.6.8.9,1.2.3.4.9.6,1.2.9.3.4.2,1.1.6,1.5.3.3,1.3,0,1.7.3.4.3.6.8,1,1.1.4.3.5,1.1,1,1.3.4.2,1.2-.3,1.7-.1.5.2.8.6,1.3.7.5.1,1-.1,1.5,0,.5,0,.9.3,1.4.3.5,0,.9.4,1.4.4.7,0,.7,0,1.5,0s.7.2,1.5.2.7-.3,1.5-.3.7.5,1.5.5.7,0,1.5,0,.7,0,1.5,0,.7-.5,1.5-.5.7.3,1.5.3.7.3,1.5.3.7-.1,1.5-.1,1.1-.5,1.6-.3c.5.2.7.9,1.1,1.2.4.3,1.3.2,1.6.6.3.4.4,1.1.6,1.6.2.5-.4,1.1-.4,1.6s.2,1,0,1.5c-.2.5,0,1.1-.4,1.6-.3.4-.7.9-1.1,1.2-.4.3-.9.8-1.4,1-.5.2-1.2.1-1.7.1s-.7-.5-1.4-.5-.7.2-1.4.2-.7.3-1.4.3-.7-.5-1.4-.5-.7.6-1.4.6-.7-.5-1.4-.5-.7.1-1.4.1-.7.3-1.4.3-.7-.2-1.4-.2-.7-.4-1.4-.4-.7.7-1.4.7-.7,0-1.4,0-.7-.8-1.4-.8-.7,0-1.4,0-.7.3-1.4.3-.7,0-1.4,0-.7-.4-1.4-.4-.7-.1-1.4-.1-.7.3-1.4.3-.7.2-1.4.2-.7,0-1.4,0-.7-.1-1.4-.1-.7,0-1.4,0-.7.4-1.4.4-.7-.8-1.4-.8-.7.3-1.4.3-.7.2-1.4.2-.7-.3-1.4-.3-.7.5-1.4.5-.7-.8-1.4-.8-.7.3-1.4.3-.7.3-1.4.3-.7,0-1.4,0-.7-.3-1.4-.3-.7.8-1.4.8-.7-.7-1.4-.7-.7-.3-1.4-.3-.7.2-1.4.2-.7,0-1.4,0-.7,0-1.4,0-.7.4-1.4.4-.7-.7-1.4-.7-.7.4-1.4.4-.7-.4-1.4-.4-.7.7-1.4.7-.7-.7-1.4-.7-.7.7-1.4.7-.7-.5-1.4-.5-.7-.1-1.4-.1-.7.2-1.4.2-.7.3-1.4.3-.7,0-1.4,0-.7-.5-1.4-.5-.7.4-1.4.4-.7,0-1.4,0-.7-.4-1.4-.4-.7.3-1.4.3-.7.2-1.4.2-.7-.5-1.4-.5-.7.5-1.4.5-.7-.7-1.4-.7-.7.5-1.4.5-.7-.4-1.4-.4-.7.8-1.4.8-.7-.6-1.4-.6-.7.3-1.4.3-.7.2-1.4.2-.7-.3-1.4-.3-.7.1-1.4.1-.7-.2-1.4-.2-.7-.4-1.4-.4-.7.9-1.4.9-.7-.9-1.4-.9-.7.2-1.4.2-.7.5-1.4.5-.7,0-1.4,0-.7-.5-1.4-.5-.7-.2-1.4-.2-.7.3-1.4.3-.7,0-1.4,0-.7.4-1.4.4-.7-.1-1.4-.1-.7.5-1.4.5-.7,0-1.4,0-.7-.7-1.4-.7-.7.3-1.4.3-.7-.4-1.4-.4-.7.8-1.4.8-.7-.4-1.4-.4-.7-.5-1.4-.5-.7.4-1.4.4-.7,0-1.4,0-.7.4-1.4.4-.7-.9-1.4-.9-.7,0-1.4,0-.7.4-1.4.4-.7,0-1.4,0-.7.3-1.4.3-.7-.5-1.4-.5-.9-.1-1.4-.3c-.5-.2-1.3.3-1.8,0-.4-.3-.4-1.1-.7-1.6-.3-.4-.3-.9-.5-1.4-.2-.5-.6-.9-.6-1.4s.2-1,.3-1.5c.2-.5-.1-1.3.2-1.7.3-.4,1-.6,1.4-.9.4-.3,1.1,0,1.6-.3.5-.2.9-.8,1.4-.8s.7-.3,1.4-.3.7.7,1.4.7.7-.7,1.4-.7.7.9,1.4.9.7-.7,1.4-.7.7.6,1.4.6.7-.3,1.4-.3.7-.5,1.4-.5.7.9,1.4.9.7-.7,1.4-.7.7-.3,1.4-.3.7.6,1.4.6.7-.4,1.4-.4.7-.1,1.4-.1.7.3,1.4.3.7.5,1.4.5.7-.5,1.4-.5.7-.3,1.4-.3.7.9,1.4.9.7-.7,1.4-.7.7.2,1.4.2.7,0,1.4,0,.7-.6,1.4-.6.7,1,1.4,1,.7,0,1.4,0,.7-1,1.4-1h1.4c.7,0,.7,1,1.4,1s.7-.1,1.4-.1.7,0,1.4,0,.7-.7,1.4-.7.7.5,1.4.5.7-.3,1.4-.3.7.4,1.4.4.7-.5,1.4-.5.7.3,1.4.3.7-.2,1.4-.2.7-.2,1.4-.2.7.8,1.4.8.7-.7,1.4-.7.7-.2,1.4-.2.7,0,1.4,0,.7.4,1.4.4.7-.2,1.4-.2.7.4,1.5.4.7-.6,1.4-.6.7.1,1.5.1.7.2,1.5.2.7.4,1.5.4.9-.8,1.4-.8c.5,0,.9,0,1.4-.1.5,0,1.2.6,1.6.5.5-.1,1-.3,1.4-.5.5-.2.9-.5,1.3-.7.4-.2.5-1.1.9-1.4.4-.3.9-.4,1.2-.7.4-.3,1.2-.2,1.5-.5.5-.5,0-.9.6-1.5.5-.5.4-.6.9-1.1.5-.5.9,0,1.4-.6.5-.5.5-.5,1-1,.5-.5.7-.4,1.2-.9s0-1,.5-1.5c.5-.5.5-.5,1-1,.5-.5.9-.1,1.4-.6s.5-.5,1-1,.3-.7.8-1.2c.5-.5.7-.4,1.2-.9.5-.5.5-.5,1-1.1s.5-.5,1-1c.5-.5.4-.6.9-1.1.5-.5.7-.4,1.2-.9.5-.5-.1-1.1.4-1.6s1.2.2,1.7-.3c.5-.5.4-.6,1-1.1.5-.5-.1-1.1.4-1.7q.5-.5,1-1c.5-.5.7-.3,1.2-.8.5-.5.8-.2,1.3-.7s.6-.5,1.1-1,.2-.8.7-1.4c.5-.5.5-.6,1-1.1.5-.5.9-.1,1.4-.6s0-1,.6-1.5.6-.4,1.1-.9c.5-.5.5-.5,1-1,.5-.5.8-.2,1.3-.7s.3-.7.8-1.2.3-.7.8-1.2.6-.4,1.1-.9.5-.5,1-1c.3-.4.7-.7,1-1,.3-.4,1-.5,1.3-.9.3-.4.5-.9.7-1.3.2-.4,0-1.1.2-1.5.2-.5.6-.8.7-1.3.1-.5,0-1,.1-1.5s.4-.9.4-1.4c0-.5.5-1,.5-1.5s-.7-1-.7-1.4c0-.5.3-1,.2-1.5,0-.5-.7-.8-.8-1.3-.1-.5-.2-.9-.4-1.4-.2-.5.3-1.2,0-1.7-.2-.4-.7-.8-.9-1.2-.3-.4-.9-.6-1.2-.9-.3-.4-.5-.9-.8-1.2-.3-.3-.5-1-.9-1.3-.4-.3-.9-.5-1.3-.8-.4-.3-1-.2-1.5-.4-.4-.2-.9-.4-1.3-.6-.5-.2-.8-.6-1.3-.7-.5-.1-.9-.3-1.4-.4-.5,0-1,.2-1.5.2-.5,0-1-.6-1.4-.6-.7,0-.7.2-1.4.2s-.7.2-1.4.2-.7-.1-1.4-.1-.7.1-1.4.1-.7-.2-1.4-.2-.7.3-1.4.3-.7.2-1.4.2-.7-.4-1.4-.4-.7.2-1.4.2-.7-.4-1.4-.4-.7,0-1.4,0-.7.1-1.4.1-.7-.2-1.4-.2-.7-.2-1.4-.2-.7,0-1.4,0-.7.2-1.4.2-.7.8-1.4.8-.7-.9-1.4-.9-.7.8-1.4.8-.7-.4-1.4-.4-.7-.1-1.4-.1-.7.2-1.4.2-.7.3-1.4.3-.7-.1-1.4-.1-.7.3-1.4.3-.7-.5-1.4-.5-.7.3-1.4.3-.7,0-1.4,0-.7-.3-1.4-.3-.7-.3-1.4-.3-.7,0-1.4,0-.7.5-1.4.5-.7-.2-1.4-.2-.7-.3-1.4-.3-.7.6-1.4.6-.7.2-1.4.2-.7-.6-1.4-.6-.7-.2-1.4-.2-.7.2-1.4.2-.7,0-1.4,0-.7-.1-1.4-.1-.7.4-1.4.4-.7,0-1.4,0-.7-.6-1.4-.6-.7.8-1.4.8-.7-.5-1.4-.5-.7.5-1.4.5-.7-.7-1.4-.7-.7,0-1.4,0-.7-.2-1.4-.2-.7.2-1.4.2-.7,0-1.4,0-.7.7-1.4.7-.7-.2-1.4-.2-.7,0-1.4,0-.7-.9-1.4-.9-.7.7-1.4.7-.7-.5-1.4-.5-.7.6-1.4.6-.7.1-1.4.1-.7-.6-1.4-.6-.7.6-1.4.6-.7,0-1.4,0-.7-.3-1.4-.3-.7-.5-1.4-.5-.7,0-1.4,0-.7.2-1.4.2-.7.5-1.4.5-.7-.6-1.4-.6-.7.3-1.4.3-.7.2-1.4.2-.7.2-1.4.2-.7-.7-1.4-.7-.7.5-1.4.5-.7-.7-1.4-.7-.7.2-1.4.2-.7.5-1.4.5-.7.3-1.4.3-.7-.2-1.4-.2-.7-.5-1.4-.5-.7,0-1.4,0-.7.7-1.4.7-.7-.4-1.4-.4-.7-.3-1.4-.3-.7,0-1.4,0-.7-.2-1.4-.2-.7.7-1.4.7-.7-.5-1.4-.5-.7.3-1.4.3-.7-.6-1.4-.6-.7.1-1.4.1-.7.3-1.4.3-.7-.1-1.4-.1-.7-.3-1.4-.3-.7.4-1.4.4-.7.6-1.4.6-.7-.3-1.4-.3-.7-.4-1.4-.4-.7.2-1.4.2-.7-.3-1.4-.3-.7.5-1.4.5-.7-.3-1.4-.3-.7-.3-1.4-.3-.7.7-1.4.7-.7.1-1.4.1-.7-.3-1.4-.3-.7.1-1.4.1-.7-.2-1.4-.2-.7.2-1.4.2-.7,0-1.4,0-.7,0-1.4,0-.7-.2-1.4-.2-.7,0-1.4,0-.7-.5-1.4-.5-.7.2-1.4.2-.7.3-1.4.3-.7,0-1.4,0-1-.2-1.5-.1c-.5,0-.9.4-1.4.5-.5,0-1.1-.3-1.6-.2-.5.1-1,.3-1.4.5-.5.2-.8.7-1.2.9-.4.2-1,.3-1.4.6-.4.3-.9.4-1.3.7-.4.3-.2,1.2-.6,1.5-.3.3-.9.5-1.2.9-.3.4-.9.6-1.2,1-.3.4-.4.9-.6,1.4-.2.4,0,1.1-.2,1.5-.2.5-.6.8-.7,1.3-.1.5-.7.8-.8,1.3,0,.5.1,1,0,1.5,0,.5-.5,1-.5,1.5,0,.7.4.7.4,1.4s.6.7.6,1.4-1,.7-1,1.4.2.7.2,1.4.5.7.5,1.4,0,.7,0,1.4,0,.7,0,1.4-.5.7-.5,1.4.6.7.6,1.4-.9.7-.9,1.4.4.7.4,1.4.4.7.4,1.4-.7.7-.7,1.4.5.7.5,1.4.2.7.2,1.4-.4.7-.4,1.4.3.7.3,1.4-.5.7-.5,1.4-.3.7-.3,1.4.8.7.8,1.4-.9.7-.9,1.4,0,.7,0,1.4.3.7.3,1.4-.4.7-.4,1.4.8.7.8,1.4-.1.7-.1,1.4-.6.7-.6,1.4.9.7.9,1.4-.2.7-.2,1.4-.7.7-.7,1.4.7.7.7,1.4.2.7.2,1.4,0,.7,0,1.4-.9.7-.9,1.4,0,.7,0,1.4,1.2,1,.9,1.6c-.3.7-1.1.2-1.6.7s-.3.7-.8,1.2-.7.4-1.2.9-.8.2-1.4.7c-.5.5,0,1-.5,1.5s-.5.5-1,1-.5.6-1,1.1c-.5.5-.9.1-1.4.6-.5.5,0,1-.6,1.5s-.9.1-1.4.6c-.5.5-.7.4-1.2.9s0,1-.5,1.5c-.5.5-.7.3-1.2.8-.5.5-.3.8-.8,1.3-.5.5-.8.2-1.3.7-.5.5-.3.7-.8,1.2s-.5.5-1.1,1-.8.2-1.3.7c-.5.5-.6.4-1.1.9-.5.5.1,1.1-.4,1.6s-.5.5-1,1-1,0-1.5.5-.3.7-.8,1.2-.9.1-1.4.7,0,1-.5,1.5c-.5.5-.3.7-.8,1.2q-.5.5-1,1c-.5.5-1.1-.1-1.7.4-.5.5,0,1-.5,1.5s-.5.6-1,1.1c-.5.5-.8.2-1.3.7s-.6.5-1.1,1-.7.3-1.2.8-.3.7-.8,1.2c-.5.5,0,1-.6,1.5s-.8.2-1.3.7c-.5.5-.7.3-1.2.8-.5.5-.1.9-.6,1.4s-.7.3-1.2.8c-.5.5-.5.5-1,1s-.6.4-1.1,1-.2.8-.8,1.3c-.5.5-1.1,0-1.6.4s-.5.5-1,1-.3.7-.8,1.2c-.5.5-.5.6-1,1.1s-.2.8-.7,1.3-1,0-1.5.6-.3.8-.8,1.3-.8.2-1.3.7,0,1-.5,1.5-.5.5-1.1,1-1.1,0-1.6.5,0,1-.5,1.5c-.5.5-.9.1-1.4.6-.5.5-.1.9-.6,1.4-.1.1-.2.2-.3.2,45.4,63,119.4,104,203,104,130.6,0,237.8-100.2,249-227.9-.3-.2-.5-.6-1-.6Z"/>
  <path class="cls-1" d="M74,72.4c.7,0,.7-.1,1.4-.1s.7.4,1.4.4.7-.8,1.4-.8.7.8,1.4.8.7,0,1.4,0,.7,0,1.4,0,.7-.1,1.4-.1.7,0,1.4,0,.7-.6,1.4-.6.7.1,1.4.1.7,0,1.4,0,.7.6,1.4.6.7-.5,1.4-.5.7.4,1.4.4.7-.4,1.4-.4.7.4,1.4.4.7,0,1.4,0,.7,0,1.4,0,.7-.6,1.4-.6.7.2,1.4.2.7.3,1.4.3.7,0,1.4,0,.7-.3,1.4-.3.7-.3,1.4-.3.7.4,1.4.4.7-.5,1.4-.5.7.6,1.4.6.7-.1,1.4-.1.7-.4,1.4-.4.7.4,1.4.4.7.2,1.4.2.7-.1,1.4-.1.7,0,1.4,0,.7.1,1.4.1.7-.1,1.4-.1.7-.5,1.4-.5.7,0,1.4,0,.7.7,1.4.7.7-.5,1.4-.5.7,0,1.4,0,.7-.6,1.4-.6.7,1.1,1.4,1.1.7-.4,1.4-.4.7-.2,1.4-.2.7-.5,1.4-.5.7.4,1.4.4.7.3,1.4.3.7,0,1.4,0,.7.3,1.4.3.7.2,1.4.2.7-.8,1.4-.8.7.8,1.4.8.7-.5,1.4-.5.7.5,1.4.5.7-.5,1.4-.5.7.2,1.4.2.7-.4,1.4-.4.7,0,1.4,0,.7-.1,1.4-.1.7.5,1.4.5.7-.5,1.4-.5.7-.1,1.4-.1.7,0,1.4,0,.7.2,1.4.2.7,0,1.4,0,.7.6,1.4.6.7-.7,1.4-.7.7,0,1.4,0,.7.6,1.4.6.7.1,1.4.1.7-.3,1.4-.3.7-.7,1.4-.7.7.3,1.4.3.7,0,1.4,0,.7-.3,1.4-.3.7.1,1.4.1.7.8,1.4.8.7-.9,1.4-.9.7.7,1.4.7.7-.3,1.4-.3.7.5,1.4.5.7-.4,1.4-.4.7.5,1.4.5.7,0,1.4,0,.7-.6,1.4-.6.7.3,1.4.3.7.3,1.4.3.7-.6,1.4-.6.7.6,1.4.6.7-.8,1.4-.8.7.1,1.4.1.7,0,1.4,0,.7-.1,1.4-.1.7.4,1.4.4.7,0,1.4,0,.7.4,1.4.4.7-.6,1.4-.6.7.8,1.4.8.7-.9,1.4-.9.7.4,1.4.4.7-.3,1.4-.3.7,0,1.4,0,.7,0,1.4,0,.7.5,1.4.5.7,0,1.4,0,.7-.1,1.4-.1.7-.4,1.4-.4.7.5,1.4.5.7-.7,1.4-.7.7.4,1.4.4.7-.5,1.4-.5.7.6,1.4.6.7-.5,1.4-.5.7.3,1.4.3.7.5,1.4.5.7-.3,1.4-.3.7-.7,1.4-.7.7.3,1.4.3.7,0,1.4,0,.7.5,1.4.5.7-.3,1.4-.3.7.2,1.4.2.7-.4,1.4-.4.7,0,1.4,0,.7.2,1.4.2.7.5,1.4.5.7-.4,1.4-.4.7-.3,1.4-.3.7.2,1.4.2.7-.2,1.4-.2.7.6,1.4.6.7-.7,1.4-.7.7,0,1.4,0,.7.4,1.4.4.7.2,1.4.2.7-.8,1.4-.8.7.2,1.4.2.7.2,1.4.2.7-.4,1.4-.4.7.3,1.4.3.7.2,1.4.2.7,0,1.4,0,.7.4,1.4.4.7-.4,1.4-.4.7-.5,1.4-.5.7.6,1.4.6.7.2,1.4.2.7-.8,1.4-.8.7.5,1.4.5.7.4,1.4.4.7-.4,1.4-.4.7-.4,1.4-.4.7.9,1.4.9.7-.5,1.4-.5.7.2,1.4.2.7-.4,1.4-.4.7.6,1.4.6.7-.9,1.4-.9.7.4,1.4.4.7,0,1.4,0,.7-.2,1.4-.2.7.1,1.4.1.7.3,1.4.3.7.4,1.4.4.7,0,1.4,0,.7-.1,1.4-.1.7,0,1.4,0,.7-.6,1.4-.6.7.2,1.4.2.7-.3,1.4-.3.7.3,1.4.3.7-.1,1.4-.1.7-.4,1.4-.4.7,0,1.4,0,.7.2,1.4.2.7,0,1.4,0,.7.6,1.4.6.7-.2,1.4-.2.7-.7,1.4-.7.7.4,1.4.4.7.3,1.4.3.7-.6,1.4-.6.7.5,1.4.5.7-.7,1.4-.7.7.8,1.4.8.7.1,1.4.1.7-.5,1.4-.5.7-.4,1.4-.4.7,0,1.4,0,.7.5,1.4.5.7,0,1.4,0,.7-.3,1.4-.3.7.6,1.4.6.7,0,1.4,0,.7,0,1.4,0,.7.1,1.4.1.7-.5,1.4-.5.7-.3,1.4-.3.7.8,1.4.8.7.1,1.5.1.7,0,1.4,0,.7-.4,1.4-.4.7,0,1.5,0,.7-.3,1.4-.3.7,0,1.5,0,.7.5,1.5.5.7-.3,1.5-.3,1-.2,1.5-.3c.5,0,1,0,1.4-.1.5,0,1.1.1,1.5,0,.5-.1,1-.1,1.5-.3.5-.2.8-.7,1.2-.9.4-.2.9-.4,1.3-.7.4-.3.6-.9,1-1.2.4-.3.6-.7,1-1.1.3-.3.8-.5,1.1-.9.3-.4,1-.5,1.3-.9.3-.4.6-.9.8-1.3.2-.4.2-1,.4-1.5.2-.5.4-.9.5-1.4.1-.5,0-1,0-1.5,0-.5.7-.9.8-1.4,0-.5,0-1,0-1.5,0-.7-.2-.7-.2-1.5s.4-.7.4-1.5-.8-.7-.8-1.5.4-.7.4-1.5-.5-.7-.5-1.5.1-.7.1-1.5.2-.7.2-1.5.4-.7.4-1.5-.7-.7-.7-1.5,0-.7,0-1.5.6-.7.8-1.2C348.4,15.3,301,0,250,0S119.2,27.7,74,72.4h0Z"/>
  <path class="cls-1" d="M41.6,386.3c.5-.5,1.2.2,1.7-.3s.2-.8.7-1.3c.5-.5.3-.7.8-1.2s.9,0,1.4-.6.3-.7.8-1.2c.5-.5.7-.3,1.2-.8.5-.5.6-.4,1.1-.9.5-.5.4-.6.9-1.1s.5-.5,1-1,.1-.9.6-1.4.9-.1,1.4-.6c.5-.5.2-.8.7-1.3.5-.5.8-.2,1.3-.7s.3-.7.9-1.2c.5-.5.7-.4,1.2-.9.5-.5.3-.7.8-1.3s.8-.2,1.3-.7.4-.7.9-1.2c.5-.5.5-.5,1-1s.1-.9.6-1.4.6-.4,1.1-.9c.5-.5,1,0,1.5-.5s.3-.7.8-1.2c.5-.5.5-.5,1-1s.2-.8.7-1.3c.5-.5.9-.1,1.4-.7.5-.5.4-.6.9-1.1.5-.5.8-.2,1.3-.7.5-.5.5-.5,1-1,.5-.5.5-.5,1-1s-.1-1.1.4-1.6,1.1.1,1.6-.4,0-1,.5-1.5.4-.6.9-1.1.8-.2,1.3-.7c.5-.5.8-.2,1.3-.7s.1-.9.6-1.4c.5-.5.5-.6,1-1.1s.8-.2,1.3-.7.1-.9.6-1.4c.5-.5.3-.7.8-1.2.5-.5,1.1.1,1.6-.4s.2-.8.7-1.3c.5-.5.7-.4,1.2-.9.5-.5.5-.5,1-1,.5-.5.3-.7.9-1.2s.7-.4,1.2-.9.8-.6,1.1-1c.3-.4,0-1.2.3-1.6.3-.4,1-.6,1.2-1,.2-.4.5-.8.7-1.3.2-.5.5-.9.7-1.4.1-.5.4-.9.5-1.4,0-.5-.7-1.1-.7-1.6,0-.5.1-.9.1-1.4,0-.7,0-.7,0-1.4s.6-.7.6-1.4.3-.7.3-1.4-.7-.7-.7-1.4.3-.7.3-1.4-.3-.7-.3-1.4.2-.7.2-1.4.2-.7.2-1.4.4-.7.4-1.4-.7-.7-.7-1.4.6-.7.6-1.4-.2-.7-.2-1.4.3-.7.3-1.4-.2-.7-.2-1.4-.4-.7-.4-1.4.3-.7.3-1.4.2-.7.2-1.4-.4-.7-.4-1.4-.1-.7-.1-1.4.6-.7.6-1.4-.2-.7-.2-1.4-.4-.7-.4-1.4,0-.7,0-1.4.3-.7.3-1.4.3-.7.3-1.4-.6-.7-.6-1.4.6-.7.6-1.4-.8-.7-.8-1.4,0-.7,0-1.4.7-.7.7-1.4-.6-.7-.6-1.4.4-.7.4-1.4-.6-.7-.6-1.4.8-.7.8-1.4-.3-.7-.3-1.4,0-.7,0-1.4,0-.7,0-1.4.1-.7.1-1.4-.4-.7-.4-1.4.6-.7.6-1.4-.2-.7-.2-1.4-.2-.7-.2-1.4.1-.7.1-1.4-.4-.7-.4-1.4.4-.7.4-1.4,0-.7,0-1.4,0-.7,0-1.4-.1-.7-.1-1.4,0-.7,0-1.4.5-.7.5-1.4-.9-.7-.9-1.4.8-.7.8-1.4-.2-.7-.2-1.4-.1-.7-.1-1.4-.4-.7-.4-1.4.6-.7.6-1.4,0-.7,0-1.4-.3-.7-.3-1.4.5-.7.5-1.4,0-.7,0-1.4-.2-.7-.2-1.4.3-.7.3-1.4-.5-.7-.5-1.4-.2-.7-.2-1.4,0-.7,0-1.4.3-.7.3-1.4.4-.7.4-1.4-.3-.7-.3-1.4.4-.7.4-1.4-.7-.7-.7-1.4-.1-.7-.1-1.4.6-.7.6-1.4-.3-.7-.3-1.4-.2-.7-.2-1.4,0-.7,0-1.4.1-.7.1-1.4-.3-.7-.3-1.4.5-.7.5-1.4.2-.7.2-1.4-.8-.7-.8-1.4.4-.7.4-1.4-.4-.7-.4-1.4,0-.7,0-1.4,0-.7,0-1.4.7-.7.7-1.4-.8-.7-.8-1.4.2-.7.2-1.4,0-.7,0-1.4.1-.7.1-1.4-.2-.7-.2-1.4-.2-.7-.2-1.4.6-.7.6-1.4,0-.7,0-1.4-.1-.7-.1-1.4-.7-.7-.7-1.4,0-.7,0-1.4.7-.7.7-1.4,0-.7,0-1.4-.2-.7-.2-1.4,0-.7,0-1.4-.5-.7-.5-1.4.2-.7.2-1.4.3-.7.3-1.4-.4-.7-.4-1.4.5-.7.5-1.4-.5-.7-.5-1.4,0-.7,0-1.4.5-.7.5-1.4-.3-.7-.3-1.4-.2-.7-.2-1.4.2-.7.2-1.4,0-.7,0-1.4.5-.7.5-1.4-.7-.7-.7-1.4.5-.7.5-1.4-.7-.7-.7-1.4,0-.7,0-1.4.9-.7.9-1.4-.6-.7-.6-1.4.2-.7.2-1.4,0-.7,0-1.4-.1-.7-.1-1.4.5-.7.5-1.4-.2-.7-.2-1.4,0-.7,0-1.4.3-.7.3-1.4,0-.7,0-1.4-.5-.7-.5-1.4,0-.7,0-1.4,0-.7,0-1.4-.2-.7-.2-1.4.3-.7.3-1.4-.3-.7-.3-1.4-.1-.7-.1-1.4.7-.7.7-1.4.2-.7.2-1.4-.2-.7-.2-1.4-.8-.7-.8-1.4,1-.7,1-1.4-.9-.7-.9-1.4.9-.7.9-1.4,0-.7,0-1.4-.9-.7-.9-1.4.2-.7.2-1.4-.3-.7-.3-1.4.2-.7.2-1.4.1-.7.1-1.4.1-.7.1-1.4-.4-.7-.4-1.4.2-.7.2-1.4-.1-.7-.1-1.4,0-.7,0-1.4.6-.7.6-1.4-.2-.7-.2-1.4,0-.7,0-1.4,0-.7,0-1.4.3-.7.3-1.4-.3-.7-.3-1.4-.3-.7-.3-1.4.3-.7.3-1.4.3-.7.3-1.4-.3-1-.4-1.5c0-.5.2-1,.2-1.5,0-.5-1-.8-1.1-1.2-.1-.5-.2-1-.3-1.4-.2-.5,0-1.1-.2-1.5-.2-.4-.7-.7-1-1.1-.3-.4-.4-.9-.7-1.3-.3-.4-.9-.5-1.3-.8s-.5-.9-.9-1.2c-.4-.3-.5-1.1-.9-1.3-.4-.3-1.2,0-1.6-.2-.4-.2-1-.1-1.4-.3-.5-.2-.7-1-1.1-1.2-.5-.1-1.1.5-1.6.4-.5,0-.8-1-1.3-1.1-.5,0-1,.1-1.5.1-.7,0-.7.5-1.5.5s-.7,0-1.5,0-.7-.9-1.5-.9-.7.8-1.5.8-.7-.6-1.5-.6-.7.6-1.5.6-.7-.2-1.5-.2-.7-.6-1.5-.6-.7.9-1.5.9-.7-.4-1-.6C24.6,126.4,0,185.3,0,250s15.1,97.7,40.9,137.1c.2-.3.3-.4.7-.8Z"/>
</svg>