<?xml version="1.0" encoding="UTF-8"?>
<svg id="_アイコン" data-name="アイコン" xmlns="http://www.w3.org/2000/svg" version="1.1" viewBox="0 0 500 500">
  <defs>
    <style>
      .cls-1 {
        fill: #fff;
        stroke-width: 0px;
      }
    </style>
  </defs>
  <path class="cls-1" d="M302.8,140.6c0,.7.7.7.7,1.5s-.3,1-.2,1.5c0,.5.6.9.7,1.4,0,.5,0,1,.1,1.4.1.5-.3,1.2-.2,1.6.2.5.8.7,1.1,1.1.2.4.9.6,1.2,1,.3.4-.2,1.3.2,1.7.3.4,1.3.2,1.6.5s.6.7,1,1c.4.3.4,1.1.8,1.3.4.3,1.1,0,1.5.3.4.2.8.5,1.3.7.5.2.8.5,1.3.6.5.1.9.6,1.4.7.5,0,1-.2,1.5-.1.5,0,1,.2,1.5.2.7,0,.7,0,1.4,0s.7.5,1.4.5.7-.1,1.4-.1.7.1,1.4.1.7-.7,1.4-.7.7.9,1.4.9.7-.2,1.4-.2.7.2,1.4.2.7,0,1.4,0,.7-.9,1.4-.9.7,1,1.4,1,.7-.4,1.4-.4.7-.3,1.4-.3.7.2,1.4.2.7-.7,1.4-.7.7,1,1.4,1,.7-.2,1.4-.2.7,0,1.4,0,.7-.3,1.4-.3.7.7,1.4.7.7-.9,1.4-.9.7.7,1.4.7.7-.8,1.4-.8.7.5,1.4.5.7-.6,1.4-.6.7.3,1.4.3.7.4,1.4.4.7-.3,1.4-.3.7.8,1.4.8.7,0,1.4,0,.7-.5,1.4-.5.7.4,1.4.4.7-.5,1.4-.5.7.2,1.4.2.7-.2,1.4-.2.7.4,1.4.4.7-.6,1.4-.6.7,0,1.4,0,.7.4,1.4.4.7-.6,1.4-.6.7.9,1.4.9.7-.1,1.4-.1.7-.2,1.4-.2.7-.3,1.4-.3.7.5,1.4.5.7.1,1.4.1.7-.6,1.4-.6.7.2,1.4.2.7-.4,1.4-.4.7,1.1,1.4,1.1.7-.4,1.4-.4.7.2,1.4.2.7.1,1.4.1.7-.4,1.4-.4.7-.5,1.4-.5.7,0,1.4,0,.7.5,1.4.5.7,0,1.4,0,.7-.1,1.4-.1.7-.5,1.4-.5.7.7,1.4.7.7-.3,1.4-.3.7.5,1.4.5.7-.7,1.4-.7.7.9,1.4.9.7-.5,1.4-.5.7-.3,1.4-.3.7,0,1.4,0,.7.5,1.4.5.7.1,1.4.1.7-.2,1.4-.2.7-.2,1.4-.2.7,0,1.4,0,.7.4,1.4.4.7.1,1.4.1.7-.4,1.4-.4.7-.8,1.4-.8.7.8,1.4.8.7-.2,1.4-.2.7,0,1.4,0,.7-.3,1.4-.3.7.7,1.4.7.7.2,1.4.2.7-.9,1.4-.9.7.6,1.4.6.7-.5,1.4-.5.7.7,1.4.7.7-.6,1.4-.6.7-.4,1.4-.4.7.5,1.4.5.7-.3,1.4-.3.7.2,1.4.2.7-.1,1.4-.1.7.2,1.4.2.7,0,1.4,0,.7.4,1.4.4.7-.9,1.4-.9.7.7,1.4.7.7-.6,1.4-.6.7.6,1.4.6.7-.6,1.4-.6.7.6,1.4.6.7.2,1.4.2.7,0,1.4,0,.7,0,1.4,0,.7-.2,1.4-.2.7-.6,1.4-.6.7.5,1.4.5.7-.3,1.4-.3.7.2,1.4.2.7-.2,1.4-.2.7.6,1.4.6.7-1.1,1.4-1.1.7.3,1,.5c-5.8-14.6-13-28.5-21.4-41.6-.3,0-.4,0-1,0-.7,0-.7-.8-1.4-.8s-.7,0-1.4,0-.7,1-1.4,1-.7-.6-1.4-.6-.7-.5-1.4-.5-.7.4-1.4.4-.7.8-1.4.8-.7-.3-1.4-.3-.7,0-1.4,0-.7-.8-1.4-.8-.7.6-1.4.6-.7.1-1.4.1-.7,0-1.4,0-.7.3-1.4.3-.7,0-1.4,0-.7-.7-1.4-.7-.7.7-1.4.7-.7-.4-1.4-.4-.7.6-1.4.6-.7-.7-1.4-.7-.7-.3-1.4-.3-.7.6-1.4.6-.7-.7-1.4-.7-.7.3-1.4.3-.7-.2-1.4-.2-.7,1.1-1.4,1.1-.7-1-1.4-1-.7-.2-1.4-.2-.7,1-1.4,1-.7,0-1.4,0-.7-.9-1.4-.9-.7,0-1.4,0-.7.2-1.4.2-.7.8-1.4.8-.7-.9-1.4-.9-.7-.2-1.4-.2-.7.8-1.4.8-.7-.3-1.4-.3-.7-.6-1.4-.6-.7.6-1.4.6-.7-.2-1.4-.2-.7.6-1.4.6-.7-.3-1.4-.3-.7,0-1.4,0-.7-.4-1.4-.4-.7-.1-1.4-.1-.7.4-1.4.4-.7.5-1.4.5-.7-.5-1.4-.5-.7-.2-1.4-.2-.7.2-1.4.2-.7-.1-1.4-.1-.7.2-1.4.2-.7.3-1.4.3-.7-.8-1.4-.8-.7-.2-1.4-.2-.7.4-1.4.4-.7,0-1.4,0-.7.8-1.4.8-.7-.9-1.4-.9-.7-.3-1.4-.3-.7.5-1.4.5-.7.1-1.4.1-.7.1-1.4.1-.7-.4-1.4-.4-.7.2-1.4.2-.7.2-1.4.2-.7-.4-1.4-.4-.7.4-1.4.4-.7.2-1.4.2-.7-.8-1.4-.8-.7,0-1.4,0-.7.5-1.4.5-.7-.5-1.4-.5-.7.6-1.4.6-.7.5-1.4.5-.7,0-1.4,0-.7-.2-1.4-.2-.7-.8-1.4-.8-.7.2-1.4.2-.7.3-1.4.3-.7-.4-1.4-.4-.7.2-1.4.2-.7.5-1.4.5-.7,0-1.4,0-.7-.6-1.4-.6-.7.6-1.4.6-.7,0-1.5,0-.7.3-1.4.3-.7-.4-1.4-.4-.7,0-1.5,0-.7-.6-1.4-.6-.7,0-1.5,0-.7.3-1.5.3-.7.2-1.5.2-.7.2-1.5.2-.7-.8-1.5-.8-.7.5-1.5.5-1,0-1.5,0c-.5,0-1,.2-1.4.3-.5,0-1.1-.3-1.6-.2-.5.1-.8.9-1.2,1-.5.2-1.1,0-1.5.2-.4.2-.7.8-1.1,1.1-.4.3-.8.6-1.1.9-.4.3-.4,1-.8,1.3-.3.3-.5.8-.9,1.1-.3.4-.7.7-.9,1.1-.3.4-1,.5-1.2,1-.2.4,0,1-.3,1.5-.2.5-.2.9-.3,1.4-.1.5-.7.8-.8,1.3,0,.5,0,1,0,1.5,0,.5-.4,1-.4,1.4,0,.7,0,.7,0,1.5s.2.7.2,1.5-.1.7-.1,1.5-.1.7-.1,1.5.4.7.4,1.5-.2.7-.2,1.5-.4.7-.4,1.5Z"/>
  <path class="cls-1" d="M0,250c0,24.2,3.5,47.6,9.9,69.8.2,0,.4,0,.8,0,.7,0,.7-.4,1.4-.4s.7.7,1.4.7.7-1.1,1.4-1.1.7.9,1.4.9.7-.3,1.4-.3.7-.6,1.4-.6.7.5,1.4.5.7.1,1.4.1.7.5,1.4.5.7-.1,1.4-.1.7,0,1.4,0,.7-.2,1.4-.2.7-.6,1.4-.6.7-.1,1.4-.1.7,1,1.4,1,.7-.6,1.4-.6.7.4,1.4.4.7-.3,1.4-.3.7-.6,1.4-.6.7.6,1.4.6.7-.5,1.4-.5.7.3,1.4.3.7.4,1.4.4.7,0,1.4,0,.7-.5,1.4-.5.7.6,1.4.6.7-.8,1.4-.8.7.4,1.4.4.7.3,1.4.3.7-.7,1.4-.7.7.6,1.4.6.7,0,1.4,0,.7.2,1.4.2.7-.8,1.4-.8.7.7,1.4.7.7-.3,1.4-.3.7-.4,1.4-.4.7.2,1.4.2.7-.4,1.4-.4.7,0,1.4,0,.7.3,1.4.3.7.2,1.4.2.7-.4,1.4-.4.7.4,1.4.4.7.6,1.4.6.7,0,1.4,0,.7-.6,1.4-.6.7.4,1.4.4.7-.3,1.4-.3.7,0,1.4,0,.7.3,1.4.3.7,0,1.4,0,.7.2,1.4.2.7-1.2,1.4-1.2.7.5,1.4.5.7,0,1.4,0,.7.5,1.4.5.7,0,1.4,0,.7-.4,1.4-.4.7-.3,1.4-.3.7.3,1.4.3.7-.3,1.4-.3.7,1,1.4,1,.7-1.1,1.4-1.1.7,1,1.4,1,.7-.2,1.4-.2.7-.2,1.4-.2.7.2,1.4.2.7-.2,1.4-.2.7.5,1.4.5.7-.9,1.4-.9.7.2,1.4.2.7.6,1.4.6.7-.5,1.4-.5.7.1,1.4.1.7.6,1.4.6.7,0,1.4,0,.7-1.1,1.4-1.1.7.8,1.4.8.7-.2,1.4-.2.7-.6,1.4-.6.7.3,1.4.3.7,0,1.4,0,.7.6,1.4.6.7-.9,1.4-.9.7.8,1.4.8.7.4,1.4.4.7-.7,1.4-.7.7,0,1.4,0,.7.3,1.4.3.7-.3,1.4-.3.7-.4,1.4-.4.7.7,1.4.7.7-.5,1.4-.5.7.3,1.4.3.7-.5,1.4-.5.7-.2,1.4-.2.7.5,1.4.5.7-.6,1.4-.6.7,1.1,1.4,1.1.7-.8,1.4-.8.7.4,1.4.4.7.2,1.4.2.7-.8,1.4-.8.7.1,1.4.1.7.8,1.4.8.7-.3,1.4-.3.7-.6,1.4-.6.7.3,1.4.3.7,0,1.4,0,.7.4,1.4.4.7-.7,1.4-.7.7.1,1.4.1.7,0,1.4,0,.7,0,1.4,0,.7.4,1.4.4.7,0,1.4,0,.7,0,1.4,0,.7-.5,1.4-.5.7,1,1.4,1,.7-.4,1.4-.4.7.3,1.4.3.7-.3,1.4-.3.7-.6,1.4-.6.7.6,1.4.6.7-.7,1.4-.7.7.7,1.4.7.7.3,1.4.3.7-1.2,1.4-1.2.7,0,1.4,0,.7.8,1.5.8.7-.6,1.5-.6,1,.6,1.4.5c.5,0,.9-.2,1.4-.3.5,0,1.1.3,1.5.2.5-.1.6-1.2,1-1.4.4-.2,1,0,1.4-.3.4-.2.9-.3,1.3-.6.6-.4.7-.2,1.3-.6.6-.4.7-.2,1.3-.6.6-.4.2-1,.8-1.4.6-.4.6-.3,1.3-.7.6-.4.6-.4,1.2-.7.6-.4.9.1,1.6-.2.6-.4.7-.3,1.3-.7s.6-.4,1.2-.8c.6-.4.3-.8.9-1.2.6-.4.8,0,1.4-.4.6-.4.4-.6,1-1,.6-.4.4-.7,1-1.1.6-.4.7-.3,1.3-.7.6-.4.5-.6,1.1-1,.6-.4.9,0,1.5-.4.6-.4.5-.5,1.1-.9.6-.4.5-.5,1.1-.9.6-.4.8,0,1.4-.5.6-.4.8-.1,1.4-.5.6-.4.2-1,.8-1.4.6-.4,1.1.4,1.7,0,.6-.4.4-.8,1-1.2.6-.4.6-.4,1.2-.8.6-.4.2-1,.8-1.4.6-.4,1.3.6,1.9.2.6-.4,0-1.2.7-1.6.6-.4.9,0,1.5-.3.6-.4.4-.7,1-1.1.6-.4.8,0,1.4-.5.6-.4.5-.5,1.1-.9.6-.4.7-.3,1.3-.7.6-.4.4-.7,1-1,.6-.4.8-.1,1.4-.5.6-.4.4-.7,1-1.1.6-.4.5-.5,1.1-.9.6-.4.7-.3,1.3-.7.6-.4.8,0,1.4-.5.6-.4.4-.7,1-1.1.6-.4.7-.2,1.3-.6.6-.4.4-.7,1-1.1.6-.4.9,0,1.5-.3.6-.4.6-.4,1.2-.8.6-.4.5-.6,1.1-1,.6-.4.8,0,1.4-.5.6-.4.2-1,.8-1.4.6-.4,1.2.5,1.8.1.6-.4.2-1,.8-1.4.6-.4,1,.2,1.6-.2.6-.4.2-1.1.8-1.5.6-.4,1.1.3,1.7,0,.6-.4.1-1.1.7-1.5.6-.4.7-.2,1.3-.6.6-.4.6-.4,1.2-.8.6-.4.5-.6,1.1-1,.6-.4.9.1,1.5-.3.6-.4.6-.4,1.2-.8.6-.4.4-.7,1-1.1.6-.4.5-.5,1.2-.9.6-.4,1.1.3,1.7,0,.6-.4.5-.6,1.1-1,.6-.4.7-.3,1.3-.6.6-.4,0-1.3.7-1.7.6-.4,1.3.6,1.9.2.6-.4.4-.7,1-1.1.4-.3.7-.8,1-1.1.4-.3,1-.4,1.3-.8.4-.4.8-.6,1.1-1,.3-.4.3-1.1.6-1.5.3-.4.2-1,.4-1.5.2-.4,1.1-.6,1.3-1,.2-.5.7-.8.9-1.3.1-.5-.5-1.2-.4-1.7,0-.5.3-.9.4-1.4,0-.5.7-1,.7-1.5,0-.7-.4-.7-.4-1.4s-.4-.7-.4-1.4.8-.7.8-1.4.2-.7.2-1.4-1-.7-1-1.4.4-.7.4-1.4-.4-.7-.4-1.4,0-.7,0-1.4.1-.7.1-1.4.1-.7.1-1.4.4-.7.4-1.4-.5-.7-.5-1.4.6-.7.6-1.4-.4-.7-.4-1.4,0-.7,0-1.4,0-.7,0-1.4-.2-.7-.2-1.4,0-.7,0-1.4.5-.7.5-1.4.5-.7.5-1.4-.9-.7-.9-1.4-.2-.7-.2-1.4.9-.7.9-1.4c0-.7-1-.7-1-1.4s.9-.7.9-1.4,0-.7,0-1.4,0-.7,0-1.4,0-.7,0-1.4-.7-.7-.7-1.4.8-.7.8-1.4-.7-.7-.7-1.4-.5-.7-.5-1.4,0-.7,0-1.4.4-.7.4-1.4-.4-.7-.4-1.4.4-.7.4-1.4.4-.7.4-1.4-.3-.7-.3-1.4.5-.7.5-1.4,0-.7,0-1.4-.8-.7-.8-1.4.3-.7.3-1.4.2-.7.2-1.4.4-.7.4-1.4,0-.7,0-1.4,0-.7,0-1.4-.8-.7-.8-1.4.6-.7.6-1.4-.6-.7-.6-1.4.9-.7.9-1.4-.3-.7-.3-1.4-.4-.7-.4-1.4-.3-.7-.3-1.4.8-.7.8-1.4-.9-.7-.9-1.4,0-.7,0-1.4.4-.7.4-1.4-.2-.7-.2-1.4.3-.7.3-1.4,0-.7,0-1.4-.4-.7-.4-1.4,0-.7,0-1.4.5-.7.5-1.4-.4-.7-.4-1.4.7-.7.7-1.4-.5-.7-.5-1.4-.3-.7-.3-1.4,1-.7,1-1.4-.9-.7-.9-1.4.2-.7.2-1.4.2-.7.2-1.4.6-.7.6-1.4-.1-.7-.1-1.4-1.1-.7-1.1-1.4,1.2-.7,1.2-1.4,0-.7,0-1.4-.9-.7-.9-1.4,0-.7,0-1.4.2-.7.2-1.4.2-.7.2-1.4-.4-.7-.4-1.4,0-.7,0-1.4-.1-.7-.1-1.4.7-.7.7-1.4,0-.7,0-1.4.3-.7.3-1.4-.3-.7-.3-1.4-.7-.7-.7-1.4,1.2-.7,1.2-1.4-.5-.7-.5-1.4.4-.7.4-1.4-.6-.7-.6-1.4.4-.7.4-1.4-.9-.7-.9-1.4,1.1-.7,1.1-1.4-.3-.7-.3-1.4.3-.7.3-1.4-1-.7-1-1.4.2-.7.2-1.4.6-.7.6-1.4,0-.7,0-1.4-.6-.7-.6-1.4-.2-.7-.2-1.4.5-.7.5-1.4-.5-.7-.5-1.4.1-.7.1-1.4.3-.7.3-1.4.2-.7.2-1.4-.5-.7-.5-1.4-.2-.7-.2-1.4-.1-.7-.1-1.4.4-.7.4-1.4.2-.7.2-1.4.5-.7.5-1.4-.4-.7-.4-1.4-.7-.7-.7-1.4,1.1-.7,1.1-1.4-.9-.7-.9-1.4.5-.7.5-1.4-.1-.7-.1-1.4.6-.7.6-1.4-.7-.7-.7-1.4.4-1,.3-1.5c0-.5-.5-.9-.6-1.4,0-.5-.6-.8-.7-1.3-.1-.5.1-1.1,0-1.5-.2-.5-.3-1-.5-1.4-.2-.4-1-.5-1.3-.9-.3-.4-.5-.8-.8-1.2-.3-.4,0-1.3-.3-1.7-.3-.3-1.3,0-1.6-.4-.4-.3-.7-.6-1.2-.9-.4-.3-.6-.8-1.1-1.1-.4-.2-.7-.9-1.1-1.1-.5-.2-1.2.4-1.7.3-.5-.1-.7-1.1-1.2-1.2-.5,0-1.1.5-1.6.5-.5,0-1,0-1.5,0-.7,0-.7.2-1.4.2s-.7-.2-1.4-.2-.7-.5-1.4-.5-.7.4-1.4.4-.7-.5-1.4-.5-.7.2-1.4.2-.7,0-1.4,0-.7-.2-1.4-.2-.7,1.1-1.4,1.1-.7-.2-1.4-.2-.7-.4-1.4-.4-.7-.2-1.4-.2-.7.3-1.4.3-.7.5-1.4.5-.7,0-1.4,0-.7,0-1.4,0-.7-.8-1.4-.8-.7,0-1.4,0-.7.9-1.4.9-.7-.4-1.4-.4-.7-.5-1.4-.5-.7-.1-1.4-.1-.7-.2-1.4-.2-.7,1.2-1.4,1.2-.7-1.1-1.4-1.1-.7.6-1.4.6-.7-.3-1.4-.3-.7.2-1.4.2-.7.3-1.4.3-.7-1-1.4-1-.7.4-1.4.4-.7-.3-1.4-.3-.7.7-1.4.7-.7.2-1.4.2-.7-.2-1.4-.2-.7.4-1.4.4-.7-.7-1.4-.7-.7.7-1.4.7-.7-.8-1.4-.8-.7-.4-1.4-.4-.7.8-1.4.8-.7-.3-1.4-.3-.7.6-1.4.6-.7-1.1-1.4-1.1-.7.6-1.4.6-.7-.3-1.4-.3-.7.2-1.4.2-.7-.6-1.4-.6-.7.6-1.4.6-.7.4-1.4.4-.7-.9-1.4-.9-.7,0-1.4,0-.7,1.2-1.4,1.2-.7-.6-1.4-.6-.7.4-1.4.4-.7-.2-1.4-.2-.7-.4-1.4-.4-.7,0-1.4,0-.7.1-1.4.1-.7.5-1.4.5-.7-.3-1.4-.3-.7-.7-1.4-.7-.7.5-1.4.5-.7,0-1.4,0-.7,0-1.4,0-.7.3-1.4.3-.7.4-1.4.4-.7-.7-1.4-.7-.7-.2-1.4-.2-.7.9-1.4.9-.7,0-1.4,0-.7-.4-1.4-.4-.7.5-1.4.5-.7-1-1.4-1-.7.6-1.4.6-.7,0-1.4,0-.7-.4-1.4-.4-.7-.2-1.4-.2-.7,1-1.4,1-.7.1-1.4.1-.7-.8-1.4-.8-.7.5-1.4.5-.7.3-1.4.3-.7-.1-1.4-.1-.7-.9-1.4-.9-.7-.2-1.4-.2-.7,1-1.4,1-.7-.2-1.4-.2-.7-.8-1.4-.8-.7.4-1.4.4-.7.5-1.4.5-.7-.4-1.4-.4-.7-.1-1.4-.1-.7.2-1.4.2-.7.5-1.4.5-.7,0-1.4,0-.7-1-1.4-1-.7,0-1.4,0-.7.4-1.4.4-.7.5-1.4.5-.7-.6-1.4-.6-.7-.1-1.4-.1-.7.1-1.4.1-.7-.4-1.4-.4-.7,1.1-1.4,1.1-.7-.9-1.4-.9-.7.2-1.4.2-.7.5-1.4.5-.7-.2-1.4-.2-.7-.5-1.4-.5-.7.4-1.4.4-.7.2-1.4.2-.7-.7-1.4-.7-.7,0-1.4,0-.7,1-1.4,1-.7-.8-1.4-.8-.7,0-1.4,0-.7-.3-1.4-.3-.7,1.2-1.4,1.2-.7,0-1.4,0-.7-.7-1.4-.7-.7.2-1.4.2-.7.2-1.4.2-.7.3-1.4.3-.7-1.1-1.4-1.1-.7.1-1.4.1-.7,1-1.4,1-.7-.7-1.4-.7-.7.2-1.4.2-.7-.2-1.4-.2-.7-.2-1.4-.2-.7.3-1.4.3-.7.4-1.4.4-.7-.5-1.4-.5-.7.4-1.4.4-.7-.1-1.4-.1-.7.6-1.4.6h0C31.4,111.1,0,176.9,0,250Z"/>
  <path class="cls-1" d="M498.1,218.8c-.2,0-.4.1-.8.1-.7,0-.7.7-1.4.7s-.7-1.2-1.4-1.2-.7.7-1.4.7-.7.2-1.4.2-.7.4-1.4.4-.7-.4-1.4-.4-.7-.4-1.4-.4-.7,0-1.4,0-.7.5-1.4.5-.7-.2-1.4-.2-.7.2-1.4.2-.7-.7-1.4-.7-.7.1-1.4.1-.7-.1-1.4-.1-.7.3-1.4.3-.7.4-1.4.4-.7-.2-1.4-.2-.7-.4-1.4-.4-.7.6-1.4.6-.7,0-1.4,0-.7-1-1.4-1-.7-.2-1.4-.2-.7,1-1.4,1-.7-.6-1.4-.6-.7,0-1.4,0-.7-.5-1.4-.5-.7,1.1-1.4,1.1-.7-.8-1.4-.8-.7,0-1.4,0-.7,0-1.4,0-.7.4-1.4.4-.7-.3-1.4-.3-.7.7-1.4.7-.7-.3-1.4-.3-.7,0-1.4,0-.7,0-1.4,0-.7,0-1.4,0-.7-.2-1.4-.2-.7,0-1.4,0-.7-.5-1.4-.5-.7.5-1.4.5-.7-.2-1.4-.2-.7-.2-1.4-.2-.7.2-1.4.2-.7,0-1.4,0-.7.8-1.4.8-.7-.5-1.4-.5-.7-.6-1.4-.6-.7.7-1.4.7-.7-.5-1.4-.5-.7,0-1.4,0-.7.4-1.4.4-.7.1-1.4.1-.7-.2-1.4-.2-.7.6-1.4.6-.7-.2-1.4-.2-.7-.6-1.4-.6-.7.6-1.4.6-.7-.2-1.4-.2-.7.3-1.4.3-.7-.6-1.4-.6-.7.6-1.4.6-.7-1.1-1.4-1.1-.7.6-1.4.6-.7-.1-1.4-.1-.7.5-1.4.5-.7-.6-1.4-.6-.7,0-1.4,0-.7.2-1.4.2-.7-.1-1.4-.1-.7.2-1.4.2-.7.5-1.4.5-.7-1.2-1.4-1.2-.7,1.2-1.4,1.2-.7-.9-1.4-.9-.7-.1-1.4-.1-.7,1-1.4,1-.7-1-1.4-1-.7,1-1.4,1-.7-.8-1.4-.8-.7-.3-1.4-.3-.7.2-1.4.2-.7.5-1.4.5-.7-.5-1.4-.5-.7.9-1.4.9-.7-.8-1.4-.8-.7.8-1.4.8-.7-1-1.4-1-.7.9-1.4.9-.7-.8-1.4-.8-.7,1-1.4,1-.7-.7-1.4-.7-.7-.2-1.4-.2-.7.5-1.4.5-.7-.6-1.4-.6-.7.8-1.4.8-.7-1-1.4-1-.7.5-1.4.5-.7.3-1.4.3-.7-.3-1.4-.3-.7.2-1.4.2-.7-.6-1.4-.6-.7.2-1.4.2-.7.6-1.4.6-.7-.1-1.4-.1-.7.2-1.4.2-.7,0-1.4,0-.7,0-1.4,0-.7-1-1.4-1-.7.5-1.4.5-.7,0-1.4,0-.7-.3-1.4-.3-.7-.1-1.4-.1-.7.9-1.5.9-.7-.9-1.4-.9-.7.5-1.4.5-.7.3-1.5.3-.7-1.1-1.4-1.1-.7.8-1.5.8-.7-.6-1.5-.6-.7,0-1.5,0-.7.5-1.5.5-.7-.3-1.5-.3-.7-.1-1.5-.1-1,.7-1.4.8c-.5,0-1-.2-1.5-.2-.5,0-1,.2-1.4.3-.5.1-1,.2-1.4.4-.5.2-.9.5-1.3.7-.4.2-.7.8-1.1,1.1-.4.3-.9.4-1.3.7-.4.3-1.1.3-1.4.6s-.6.8-.9,1.2c-.3.4-.8.7-1.1,1.1-.3.4.2,1.3,0,1.7-.2.4-.9.6-1.1,1.1-.2.5,0,1.1,0,1.5-.1.5-.8.8-.9,1.3,0,.5.6,1.1.6,1.6,0,.5-1.2.9-1.2,1.4,0,.7,1,.7,1,1.5s-.7.7-.7,1.5.1.7.1,1.5.3.8.3,1.5-.7.7-.7,1.5.2.8.2,1.5-.2.8-.2,1.5.9.8.9,1.5-.5,1-.5,1.5c0,.5.8.9.9,1.4,0,.5-.2,1.1,0,1.5.1.5.3.9.5,1.4.2.5.4.9.6,1.4.2.4.3,1,.6,1.4.3.4,1.2.3,1.5.7.3.4.5.8.8,1.2.3.3.8.6,1.1.9.4.3.6.8,1,1.1.4.3.8.5,1.2.8.4.2.6,1.1,1,1.3.5.2,1.2-.5,1.7-.3.5.1.9.2,1.4.3.5,0,.9,0,1.4.1.5,0,.9,1.1,1.4,1.1.7,0,.7-1.1,1.4-1.1.7,0,.7,1,1.4,1,.7,0,.7-.6,1.4-.6.7,0,.7.7,1.4.7.7,0,.7-.9,1.4-.9.7,0,.7.2,1.4.2.7,0,.7.7,1.4.7.7,0,.7,0,1.4,0s.7,0,1.4,0c.7,0,.7-.9,1.4-.9.7,0,.7-.1,1.4-.1.7,0,.7.7,1.4.7.7,0,.7.4,1.4.4.7,0,.7-.9,1.4-.9.7,0,.7,0,1.4,0,.7,0,.7.2,1.4.2.7,0,.7.4,1.4.4.7,0,.7-.1,1.4-.1.7,0,.7.2,1.4.2.7,0,.7-.4,1.4-.4.7,0,.7.5,1.4.5.7,0,.7-.8,1.4-.8.7,0,.7.9,1.4.9.7,0,.7,0,1.4,0,.7,0,.7-1.1,1.4-1.1.7,0,.7.9,1.4.9.7,0,.7.1,1.4.1.7,0,.7-.8,1.4-.8.7,0,.7.9,1.4.9.7,0,.7-.2,1.4-.2.7,0,.7-.5,1.4-.5.7,0,.7.7,1.4.7.7,0,.7-.4,1.4-.4.7,0,.7-.6,1.4-.6.7,0,.7,0,1.4,0,.7,0,.7.7,1.4.7.7,0,.7-.3,1.4-.3.7,0,.7.1,1.4.1.7,0,.7.2,1.4.2.7,0,.7-.4,1.4-.4.7,0,.7.2,1.4.2.7,0,.7-.3,1.4-.3.7,0,.7.4,1.4.4.7,0,.7.5,1.4.5.7,0,.7-1,1.4-1,.7,0,.7.2,1.4.2.7,0,.7,0,1.4,0,.7,0,.7.8,1.4.8.7,0,.7-.4,1.4-.4.7,0,.7.1,1.4.1.7,0,.7-.1,1.4-.1.7,0,.7-.6,1.4-.6.7,0,.7,1,1.4,1,.7,0,.7-1.1,1.4-1.1.7,0,.7.7,1.4.8.7,0,.7-.3,1.4-.3.7,0,.7,0,1.4,0,.7,0,.7-.5,1.4-.5.7,0,.7.2,1.4.2.7,0,.7.8,1.4.8.7,0,.7,0,1.4,0,.7,0,.7-.4,1.4-.4.7,0,.7-.3,1.4-.3.7,0,.7.2,1.4.2.7,0,.7,0,1.4,0,.7,0,.7.2,1.4.2.7,0,.7.3,1.4.3.7,0,.7-.3,1.4-.3.7,0,.7.2,1.4.2.7,0,.7-.3,1.4-.3.7,0,.7.1,1.4.1.7,0,.7.7,1.4.7.7,0,.7-1,1.5-1,.7,0,.7.9,1.4.9.7,0,.7-.6,1.5-.6.7,0,.7-.2,1.4-.2.7,0,.7.5,1.5.5.7,0,.7-.7,1.4-.7.7,0,.7.5,1.4.5.7,0,.7.6,1.5.6.7,0,.7-.1,1.4-.1.7,0,.7-.3,1.5-.3.7,0,.7-.4,1.5-.4.7,0,.7.3,1.5.3.7,0,.7.4,1.5.4.7,0,.7-.2,1.5-.2.7,0,.7-.8,1.5-.8.5,0,.9,1.2,1.4,1.4.5.2,1.4-.4,1.8-.1s.4,1.1.7,1.5c.3.4.4.9.5,1.4.2.5,1.2,1,1.2,1.5,0,.5-.4,1.2-.5,1.7-.2.5-.8.9-1.1,1.3-.3.4-.8.7-1.2,1-.6.4-.5.5-1.1.9-.6.4-.8.1-1.4.5-.6.4-.7.2-1.3.6-.6.4-.6.4-1.2.8s-.6.3-1.2.7c-.6.4-.2,1-.8,1.4s-1-.2-1.6.2-.2,1-.8,1.4c-.6.4-.8.1-1.4.5-.6.4-.7.2-1.3.6-.6.4-.3.9-.9,1.3s-.6.4-1.2.8-.5.5-1.1.9c-.6.4-1.1-.4-1.7,0-.6.4-.5.6-1.1,1-.6.4-.3.9-.9,1.3-.6.4-.8,0-1.4.4-.6.4-.2,1-.8,1.4-.6.4-.7.2-1.3.6-.6.4-.4.7-1,1.1-.6.4-.7.3-1.3.7-.6.4-.7.3-1.3.7-.6.4-1.1-.3-1.7.1-.6.4-.4.7-1,1.1-.6.4-.4.8-1,1.2-.6.4-.6.4-1.2.8-.6.4-.9,0-1.5.3-.6.4-.6.4-1.2.8-.6.4-.3.9-.9,1.3-.6.4-1-.1-1.6.3-.6.4-.7.2-1.3.6-.6.4-.2,1.1-.8,1.5-.6.4-1.1-.3-1.7,0-.6.4,0,1.2-.7,1.6-.6.4-1-.3-1.6.1-.6.4,0,1.2-.7,1.6-.6.4-.7.3-1.3.7-.6.4-1.1-.4-1.7,0-.6.4-.1,1.1-.7,1.5-.6.4-.7.3-1.3.7-.6.4-.9,0-1.5.3-.6.4,0,1.2-.7,1.6-.6.4-.7.2-1.3.6-.6.4-.9,0-1.5.4-.6.4-.2,1-.8,1.4-.6.4-1-.2-1.6.2-.6.4-.3.9-.9,1.3-.6.4-1.1-.4-1.7,0-.6.4-.2,1-.8,1.4-.6.4-.6.4-1.2.8-.6.4-.7.3-1.3.7-.6.4-.3.9-.9,1.3-.6.4-1.2-.6-1.8-.2-.6.4-.2,1-.8,1.4-.6.4-.8.1-1.4.5-.6.4-.7.2-1.3.6-.6.4-.5.6-1.1,1-.6.4-.2,1-.8,1.4-.6.4-.9,0-1.5.4-.6.4-.6.3-1.2.7-.6.4-.3.9-.9,1.3-.6.4-.8.1-1.4.5-.6.4-1-.2-1.6.2-.6.4-.3.8-.9,1.2-.6.4-.6.4-1.2.8s-1-.1-1.6.3c-.6.4,0,1.3-.6,1.7-.6.4-1.2-.4-1.8,0-.6.4-.6.3-1.2.7-.6.4-.3.8-.9,1.2-.6.4-.3.8-.9,1.2-.6.4-.9-.1-1.5.3-.6.4-.8.1-1.4.5-.6.4-.3.8-.9,1.2-.6.4-.8.1-1.4.5-.6.4-.2,1-.8,1.4-.6.4-1.1-.3-1.7.1-.6.4-.1,1.1-.7,1.5-.6.4-1-.3-1.6.1-.6.4-.3.9-.9,1.3-.6.4-.9,0-1.5.3-.6.4-.8.1-1.4.5-.6.4,0,1.3-.6,1.7-.6.4-1.1-.3-1.7.1-.6.4-.8.2-1.4.6-.6.4-.3.8-.9,1.2-.6.4-.6.4-1.2.8-.6.4-.3.9-.9,1.3-.6.4-.6.4-1.2.8-.6.4-1.1-.4-1.7,0-.6.4-.4.7-1,1.1-.6.4-.3.9-.9,1.3-.6.4-.6.4-1.2.8-.6.4-1.2-.4-1.8,0-.6.4-.6.4-1.2.8-.6.4-.5.5-1.1.9-.6.4-.5.5-1.1.9-.6.4-.5.5-1.1.9-.6.4-.7.2-1.3.6-.6.4-.5.6-1.1,1-.6.4-.4.6-1,1-.6.4-.8.1-1.4.5-.6.4-.3.9-.9,1.3-.6.4-.5.5-1.1.9-.6.4-.9-.1-1.5.3-.6.4-1-.1-1.6.3-.6.4-.6.4-1.2.8-.6.4-.6.4-1.2.8-.6.4-.3.8-.9,1.2-.6.4-.8,0-1.4.4-.6.4-.3.8-.9,1.2-.6.4-.3.9-.9,1.3-.6.4-1.3-.6-1.9-.2-.6.4,0,1.4-.5,1.8-.6.4-.8,0-1.4.4-.6.4-.4.8-1,1.2-.6.4-.7.2-1.3.6-.6.4-.7.2-1.3.6-.6.4-.4.7-1,1.1-.6.4-.5.5-1.1.9-.6.4-.7.3-1.3.7-.6.4-.9,0-1.5.4-.6.4-.8,0-1.4.5-.6.4-.5.5-1.1.9-.6.4-.7.2-1.3.6-.6.4-.4.7-1,1.1-.6.4-.6.5-1.2.9-.6.4-.9,0-1.5.4-.6.4,0,1.2-.7,1.6-.6.4-.9,0-1.5.4-.6.4-.3.8-.9,1.2-.6.4-1-.2-1.6.2-.6.4-.4.8-1,1.2-.6.4-.9,0-1.5.4-.6.4-.5.6-1.1,1-.6.4-.5.5-1.1.9-.6.4-.9-.1-1.5.3-.6.4-.2.9-.8,1.3-.6.4-.7.2-1.3.6-.6.4-.6.3-1.2.7-.6.4-.6.4-1.2.8-.6.4-.8.1-1.4.5-.6.4-.3.9-.9,1.3-.6.4-.3.8-.9,1.2-.6.4-.6.5-1.2.9-.4.3-1.1,0-1.5.4-.4.3-.3,1-.7,1.4-.3.3-1,.4-1.3.7-.3.4-1.2.4-1.4.8-.3.4-.3,1-.6,1.4-.2.4-.7.8-.9,1.3-.2.5.7,1.3.6,1.8-.1.5-.2.9-.3,1.4,0,.5-1.2.8-1.3,1.3,0,.5,0,1,0,1.5,0,.5.3,1,.4,1.5,0,.5.2,1,.3,1.5,0,.5.7.8.8,1.3.1.5-.2,1.1,0,1.6.2.5,1,.6,1.3,1,.2.4.1,1,.4,1.4.3.4.6.8.9,1.2.3.4.7.7,1,1,.3.3.5.9.9,1.2.4.3.9.4,1.3.7.4.3,1,.2,1.4.4.4.2.8.4,1.3.6.5.2.5,1.5,1,1.6.5.1,1.2-.6,1.7-.5.5,0,.9.3,1.4.4.5,0,1,.6,1.5.6.7,0,.7-.2,1.4-.2s.7-.2,1.4-.2.7-.1,1.4-.1.7.5,1.4.5.7-.6,1.4-.6.7.1,1.4.1.7.7,1.4.7.7.1,1.4.1.7-.3,1.4-.3.7-.4,1.4-.4.7.3,1.4.3.7-.6,1.4-.6.7.6,1.4.6.7,0,1.4,0,.7-.2,1.4-.2.7,0,1.4,0,.7-.3,1.4-.3.7,1.1,1.4,1.1.7-.8,1.4-.8.7,0,1.4,0,.7.6,1.4.6.7.2,1.4.2.7-.2,1.4-.2.7-.7,1.4-.7.7.6,1.4.6.7,0,1.4,0,.7,0,1.4,0,.7-.1,1.4-.1.7-.2,1.4-.2.7.8,1.4.8.7-1.1,1.4-1.1.7.8,1.4.8.7-.7,1.4-.7.7.2,1.4.2.7,0,1.4,0,.7.7,1.4.7.7-.8,1.4-.8.7.9,1.4.9.7-.6,1.4-.6.7,0,1.4,0,.7-.4,1.4-.4.7.8,1.4.8.7-.9,1.4-.9.7.7,1.4.7.7.2,1.4.2.7-.1,1.4-.1.7,0,1.4,0,.7.3,1.4.3.7-.4,1.4-.4.7.3,1.4.3.7-.2,1.4-.2.7-.1,1.4-.1.7.2,1.4.2.7-.8,1.4-.8.7.4,1.4.4.7-.2,1.4-.2.7-.3,1.4-.3.7.5,1.4.5.7.1,1.4.1.7.4,1.4.4.7-.6,1.4-.6.7-.4,1.4-.4.7.4,1.4.4.7-.3,1.4-.3.7.5,1.4.5.7.5,1.4.5.7-.5,1.4-.5.7,0,1.4,0,.7.3,1.4.3.7-.2,1.4-.2.7-.2,1.4-.2.7-.2,1.4-.2.7.6,1.4.6.7,0,1.4,0,.7,0,1.4,0,.7-.4,1.4-.4.7-.3,1.4-.3.7.6,1.4.6.7-.7,1.4-.7.7.3,1.4.3.7.6,1.4.6.7-.5,1.4-.5.7,0,1.4,0,.7,0,1.4,0,.7.1,1.4.1.7.2,1.4.2.7-.2,1.4-.2.7-.3,1.4-.3.7-.2,1.4-.2.7.1,1.4.1.7.3,1.4.3.7-.6,1.4-.6.7-.1,1.4-.1.7.5,1.4.5.7-.5,1.4-.5.7,0,1.4,0,.7.2,1.4.2.7.8,1.4.8.7-.3,1.4-.3.7-.7,1.4-.7.7.6,1.4.6.7-.2,1.4-.2.7,0,1.4,0,.7,0,1.4,0,.7.5,1.4.5.7.2,1.4.2.7-.5,1.4-.5.7.1,1.4.1.7-.4,1.4-.4.7,0,1.3,0c37.7-43.8,60.6-100.8,60.6-163.1s-.7-21-1.9-31.2Z"/>
  <path class="cls-1" d="M72.4,413.6c.7,0,.7-.7,1.4-.7s.7.6,1.4.6.7,0,1.4,0,.7,0,1.4,0,.7-.4,1.4-.4.7-.2,1.4-.2.7.8,1.4.8.7,0,1.4,0,.7-.3,1.4-.3.7-.1,1.4-.1.7.6,1.4.6.7-.6,1.4-.6.7.6,1.4.6.7-.5,1.4-.5.7-.4,1.4-.4.7.9,1.4.9.7-.4,1.4-.4.7-.1,1.4-.1.7.6,1.4.6.7-1.1,1.4-1.1.7.2,1.4.2.7.7,1.4.7.7-.7,1.4-.7.7.4,1.4.4.7.6,1.4.6.7-.8,1.4-.8.7.1,1.4.1.7,0,1.4,0,.7.5,1.4.5.7-.6,1.4-.6.7.1,1.4.1.7-.4,1.4-.4.7.5,1.4.5.7-.3,1.4-.3.7.6,1.4.6.7-.4,1.4-.4.7,0,1.4,0,.7.2,1.4.2.7-.8,1.4-.8.7.7,1.4.7.7-.3,1.4-.3.7-.4,1.4-.4.7,1.2,1.4,1.2.7-.9,1.4-.9.7.6,1.4.6.7-.2,1.4-.2.7-.7,1.4-.7.7.4,1.4.4.7-.2,1.4-.2.7,0,1.4,0,.7-.2,1.4-.2.7.2,1.4.2.7,1,1.4,1,.7-.4,1.4-.4.7-.5,1.4-.5.7,0,1.4,0,.7.1,1.4.1.7.2,1.4.2.7-.4,1.4-.4.7.3,1.4.3.7.7,1.4.7.7-.6,1.4-.6.7.1,1.4.1.7,0,1.4,0,.7,0,1.4,0,.7-.8,1.4-.8.7,1.2,1.4,1.2.7-1.1,1.4-1.1.7,1.1,1.4,1.1.7-1.1,1.4-1.1.7.5,1.4.5.7-.1,1.4-.1.7-.2,1.4-.2.7.2,1.4.2.7,0,1.4,0,.7.2,1.4.2.7-.2,1.4-.2.7-.2,1.4-.2.7.8,1.4.8.7-.9,1.4-.9.7.5,1.4.5.7,0,1.4,0,.7,0,1.4,0,.7,0,1.4,0,.7.4,1.4.4.7,0,1.4,0,.7-.7,1.4-.7.7.5,1.4.5.7,0,1.4,0,.7-.6,1.4-.6.7.4,1.4.4.7-.7,1.4-.7.7,0,1.4,0,.7.9,1.5.9.7-.5,1.5-.5,1,0,1.5,0c.5,0,1,.3,1.5.2.5,0,.9-.4,1.4-.6.5-.1.8-.6,1.3-.8.5-.2.9-.5,1.3-.7.4-.2.6-.8,1-1,.6-.4,1.2.5,1.8,0,.6-.4.3-.8.9-1.2.6-.4.5-.5,1.1-.9.6-.4.5-.5,1.1-.9.6-.4.9,0,1.5-.4.6-.4.7-.3,1.3-.7.6-.4.4-.7,1-1.1.6-.4.8,0,1.4-.5.6-.4.7-.2,1.3-.6.6-.4.3-.8.9-1.2.6-.4.7-.2,1.3-.6.6-.4.1-1.1.7-1.5.6-.4.6-.4,1.2-.8.6-.4,1.1.4,1.7,0,.6-.4,0-1.3.6-1.7.6-.4,1.1.4,1.7,0,.6-.4.2-1,.8-1.4.6-.4.7-.3,1.3-.7.6-.4.9,0,1.5-.3.6-.4.6-.4,1.2-.8.6-.4,0-1.2.7-1.6.6-.4,1.1.4,1.7,0,.6-.4.3-.9.8-1.3.6-.4.8,0,1.4-.5.6-.4.6-.3,1.2-.7.6-.4.1-1.1.7-1.5.6-.4.8,0,1.4-.5.6-.4.6-.5,1.2-.9.6-.4,1,.3,1.6-.1.6-.4.5-.5,1.1-.9.6-.4.4-.7,1-1.1.6-.4.9.1,1.5-.3.6-.4.3-.8.9-1.2.6-.4.8,0,1.4-.5.6-.4.3-.9.9-1.3.6-.4.9,0,1.5-.4.6-.4.5-.6,1.1-1,.6-.4.2-1,.8-1.4s1.1.3,1.7,0c.6-.4,0-1.2.7-1.5.6-.4.9,0,1.5-.4.6-.4.9,0,1.5-.3.6-.4.3-.8.9-1.2.6-.4.6-.4,1.2-.8.6-.4.6-.3,1.2-.7.6-.4.7-.3,1.3-.7.6-.4.2-.9.8-1.3.6-.4.6-.4,1.2-.8.6-.4,1.1.4,1.7,0,.6-.4,0-1.3.6-1.7.6-.4.8,0,1.4-.5.6-.4.9,0,1.5-.3.6-.4.1-1.1.7-1.5.6-.4.9,0,1.5-.4.6-.4.6-.3,1.2-.7.6-.4.4-.7,1-1.1.6-.4.5-.6,1.1-1,.6-.4,1,.3,1.6-.1.6-.4.1-1.1.7-1.5.6-.4.7-.2,1.3-.6.6-.4.9.1,1.5-.3.6-.4.4-.6,1-1,.6-.4.8,0,1.4-.4.6-.4.5-.6,1.1-1,.6-.4.6-.4,1.2-.8.6-.4.3-.9.9-1.3.6-.4.7-.3,1.3-.7.6-.4.4-.7,1-1.1.6-.4.6-.5,1.2-.9.6-.4,1,.2,1.6-.2.6-.4.5-.6,1.1-1,.6-.4.4-.6,1-1,.6-.4.8-.1,1.4-.5.6-.4.4-.7,1-1.1.6-.4.8-.2,1.4-.6.6-.4.3-.8.9-1.2.6-.4.9,0,1.5-.3.6-.4.7-.3,1.3-.7.6-.4.5-.6,1.1-1,.6-.4.9.1,1.5-.3.6-.4.6-.4,1.2-.8.6-.4.6-.4,1.2-.8.6-.4,0-1.2.6-1.6.6-.4.8-.1,1.4-.5.6-.4,1.1.3,1.7-.1.6-.4,0-1.3.6-1.7.6-.4.6-.4,1.2-.8.6-.4.6-.4,1.2-.8.6-.4.8,0,1.4-.5.6-.4.9.1,1.5-.3.6-.4.6-.4,1.2-.8.6-.4.6-.4,1.2-.8.6-.4,0-1.2.7-1.6.6-.4,1.1.3,1.7-.1.6-.4.3-.8.9-1.2.6-.4.6-.4,1.2-.8.6-.4.9,0,1.5-.3.6-.4.5-.5,1.1-.9.6-.4.5-.5,1.1-.9.6-.4.2-1,.8-1.4.6-.4.8,0,1.4-.5.6-.4.5-.5,1.1-.9.6-.4.6-.3,1.2-.7.6-.4.9,0,1.5-.3.6-.4.4-.8,1-1.1.6-.4.5-.6,1.1-1,.6-.4.5-.5,1.1-.9.6-.4,1.2.4,1.8,0,.6-.4.3-.9.9-1.3.6-.4.7-.3,1.3-.7.6-.4.7-.3,1.3-.7.6-.4.8-.1,1.4-.5.6-.4.1-1.1.7-1.5.6-.4.9,0,1.5-.3.6-.4.2-.9.8-1.3.6-.4.7-.3,1.3-.7.6-.4.9,0,1.5-.3.6-.4.4-.7,1-1.1.6-.4.8,0,1.4-.4.6-.4.3-.8.9-1.2.6-.4.5-.5,1.1-.9.6-.4.9.1,1.5-.3.6-.4,0-1.3.6-1.7.6-.4,1.3.6,1.9.2.6-.4.4-.6,1-1,.6-.4.1-1.1.7-1.5.6-.4,1.1.3,1.7,0,.6-.4.4-.7,1-1.1.6-.4.4-.7,1-1.1.6-.4,1.1.3,1.7,0,.6-.4.1-1.1.7-1.5.6-.4.8-.2,1.4-.6.6-.4.3-.8.9-1.2.6-.4.8,0,1.4-.4.6-.4,1,.2,1.6-.2.6-.4.3-.9.9-1.3.6-.4.3-.9.9-1.3.6-.4,1,.2,1.6-.2.6-.4.3-.8.9-1.2.6-.4.6-.5,1.2-.9.6-.4,1.2.4,1.8,0,.4-.3.2-1.3.6-1.7.4-.3,1.1-.2,1.5-.6.3-.3.6-.8.9-1.1.3-.4.7-.7,1-1.1.3-.4.7-.7,1-1.2.2-.4,0-1.1.3-1.5.2-.5.7-.8.9-1.3.1-.5.3-1,.4-1.5,0-.5-.5-1.1-.5-1.6,0-.5.4-.9.4-1.4,0-.5-.5-.9-.5-1.4,0-.5,0-1,0-1.4,0-.5-.4-.9-.6-1.3-.1-.5.7-1.3.6-1.8-.2-.5-1.4-.4-1.7-.9-.2-.4-.3-.9-.5-1.3-.3-.4-.4-.9-.7-1.3-.3-.4-1-.4-1.3-.8-.3-.3-.1-1.3-.5-1.6-.4-.3-1-.3-1.4-.6-.4-.3-1-.2-1.4-.4-.4-.2-.9-.4-1.3-.5-.5-.2-.9-.4-1.3-.5-.5-.1-.7-1.2-1.2-1.3-.5,0-1.1.5-1.6.4-.5,0-1-.6-1.5-.6-.7,0-.5,0-1.4,0-.4,0-.9,0-1.5,0-.4,0-.9.7-1.5.7-.5,0-.9-.5-1.4-.5-.5,0-.9,0-1.4,0-.5,0-.9.1-1.4.1-.5,0-.9-.3-1.4-.3-.5,0-1-.1-1.4-.1-.5,0-1,.1-1.4.1-.5,0-1,.6-1.4.6-.5,0-1-.4-1.4-.4-.5,0-1,.8-1.5.8-.5,0-1-.8-1.4-.8-.5,0-1,.3-1.5.3-.5,0-1-.1-1.4-.1-.5,0-1,0-1.4,0-.5,0-1,.2-1.4.2-.5,0-1,.4-1.4.4-.5,0-1-.5-1.4-.5-.5,0-1-.4-1.4-.4-.5,0-1-.4-1.5-.4-.5,0-1,.4-1.4.4-.5,0-1-.3-1.4-.3-.5,0-1,.3-1.5.3-.5,0-1,.1-1.5.1-.5,0-1-.4-1.5-.4-.5,0-1,.7-1.5.7-.5,0-1-.5-1.5-.5-.5,0-1,.6-1.5.6-.5,0-1-.9-1.5-.9-.5,0-1,.6-1.5.6-.5,0-1,0-1.5,0-.5,0-1-.3-1.5-.3-.5,0-1,.7-1.5.7-.5,0-1-.9-1.5-.9-.5,0-1,.7-1.5.7-.5,0-1,.4-1.5.4-.5,0-1-.7-1.5-.7-.5,0-1,.6-1.5.6-.5,0-1-.4-1.5-.4-.5,0-1,0-1.5,0-.5,0-1-.4-1.5-.4-.5,0-1,.3-1.5.3-.5,0-1-.4-1.5-.4-.5,0-1,.4-1.5.4-.5,0-1-.2-1.5-.2-.5,0-1,.9-1.5.9-.5,0-1-1-1.4-1-.5,0-1,.6-1.4.6-.6,0-1-.5-1.4-.5-.9,0-1.4.6-1.4.6-.5,0-1-.8-1.5-.7-.5,0-1,.2-1.4.3-.5,0-.8.8-1.2.9-.5.1-1,0-1.4.2-.4.2-.6.9-1,1.1-.4.2-.9.3-1.3.6-.6.4-1-.3-1.6.1-.6.4-.6.3-1.2.7-.6.4-.3.9-.9,1.2-.6.4-.7.2-1.3.6-.6.4-.3.9-.9,1.3-.6.4-.8,0-1.4.4-.6.4-.5.6-1.1,1-.6.4-1-.2-1.6.2s-.6.4-1.2.8c-.6.4-.7.2-1.3.6-.6.4,0,1.3-.6,1.7-.6.4-.7.3-1.3.7-.6.4-1.1-.4-1.7,0-.6.4-.6.3-1.2.7-.6.4-.4.7-1,1.1-.6.4-.5.5-1.1.9-.6.4-.6.5-1.2.8-.6.4-.5.6-1.1,1-.6.4-.9,0-1.5.4-.6.4-.3.8-.9,1.2-.6.4-.5.5-1.1.9-.6.4-.6.3-1.2.7-.6.4-.9,0-1.5.3-.6.4-.3.8-.9,1.2-.6.4-.7.2-1.3.6-.6.4-.9-.2-1.6.2-.6.4-.2,1.1-.8,1.5-.6.4-.6.3-1.2.7-.6.4-.7.2-1.3.6-.6.4-.8,0-1.5.4-.6.4-.2,1-.8,1.4-.6.4-1.1-.3-1.7,0-.6.4-.5.6-1.1,1-.6.4-.8,0-1.4.4-.6.4-.1,1.1-.7,1.5-.6.4-.4.7-1,1.1-.6.4-.9,0-1.5.3-.6.4-.8,0-1.4.4-.6.4-.1,1.1-.8,1.5-.6.4-1-.3-1.6,0-.6.4-.7.2-1.3.5-.6.4-.6.3-1.2.7q-.6.4-1.2.8c-.6.4,0,1.4-.6,1.7-.6.4-.8,0-1.4.5-.6.4-.8,0-1.4.4s-.5.6-1.1.9c-.6.4-.4.7-1,1.1-.6.4-.8.1-1.4.5-.6.4-1-.2-1.6.2-.6.4-.3.8-.9,1.2-.6.4-.6.4-1.2.8-.6.4-.4.6-1.1,1-.6.4-.8.1-1.4.5-.6.4-.8,0-1.4.5-.6.4-.4.7-1,1-.6.4-.6.4-1.2.7-.6.4-.6.5-1.2.9-.6.4-.6.4-1.2.8-.6.4-.8,0-1.4.4-.6.4,0,1.2-.7,1.6-.6.4-1-.3-1.6,0-.6.4-.7.2-1.3.6-.6.4-.3.8-.9,1.2-.6.4-.8.2-1.4.5-.6.4-.3.9-.9,1.3-.6.4-1.1-.4-1.7,0-.6.4-.5.5-1.1.9-.6.4-.4.6-1,1-.6.4-.3.9-.9,1.3-.6.4-.8,0-1.4.4s-.5.5-1.1.9c-.4.3-.8.8-1.3.9-.5.1-1.1-.5-1.6-.5-.7,0-.7.6-1.4.6s-.7-.2-1.4-.2-.7-.6-1.4-.6-.7.3-1.4.3-.7-.5-1.4-.5-.7-.2-1.4-.2-.7,1.1-1.4,1.1-.7-1-1.4-1-.7,0-1.4,0-.7.8-1.4.8-.7-.9-1.4-.9-.7,1.1-1.4,1.1-.7-.4-1.4-.4-.7-.1-1.4-.1-.7-.2-1.4-.2-.7-.2-1.4-.2-.7-.1-1.4-.1-.7,0-1.4,0-.7.9-1.4.9-.7-.7-1.4-.7-.7.6-1.4.6-.7-.6-1.4-.6-.7.9-1.4.9-.7-1-1.4-1-.7,0-1.4,0-.7.3-1.4.3-.7,0-1.4,0-.7.4-1.4.4-.7-.7-1.4-.7-.7.9-1.4.9-.7-.4-1.4-.4-.7-.3-1.4-.3-.7.7-1.4.7-.7-.6-1.4-.6-.7.7-1.4.7-.7,0-1.4,0-.7-.3-1.4-.3-.7.3-1.4.3-.7-.8-1.4-.8-.7.4-1.4.4-.7.1-1.4.1-.7.3-1.4.3-.7-.9-1.4-.9-.7.1-1.4.1-.7-.3-1.4-.3-.7.6-1.4.6-.7.1-1.4.1-.7-.2-1.4-.2-.7-.7-1.4-.7-.7,0-1.4,0-.7.9-1.4.9-.7-.4-1.4-.4-.7.8-1.4.8-.7-.7-1.4-.7-.7.4-1.4.4-.7-.8-1.4-.8-.7.8-1.4.8-.7-.3-1.4-.3-.7.3-1.4.3-.7-.2-1.4-.2-.7,0-1.4,0-.7-.7-1.4-.7-.7.3-1.4.3-.7.7-1.4.7-.7-.8-1.4-.8-.7.5-1.4.5-.7.4-1.4.4-.7-.9-1.4-.9-.7.8-1.4.8-.7-.7-1.4-.7-.7.3-1.4.3-.7-.3-1.4-.3-.7.4-1.4.4-.7.4-1.4.4-.7.1-1.4.1-.7,0-1.4,0-.7-.2-1.4-.2-.7-.6-1.4-.6-.7.5-1.4.5-.7-.6-1.4-.6-.7-.2-1.4-.2-.7,0-1.4,0-.7,1.1-1.4,1.1-.7-.9-1.4-.9-.7.2-1.4.2-.7.3-1.4.3-.7,0-1.4,0-.7-.4-1.4-.4-.7-.4-1.4-.4-.7.4-1.4.4-.7.3-1.4.3-.7.2-1.4.2-.7-.9-1.4-.9-.7.1-1.4.1-.7,1.1-1.4,1.1-.7,0-1.4,0-.7,0-1.4,0-.7,0-1.4,0-.7-.7-1.4-.7-.7.1-1.4.1-.7.1-1.4.1-.7-.3-1.4-.3-.7,0-1.4,0-.7,0-1.4,0-.7.3-1.4.3-.7-.6-1.4-.6-.7.5-1.4.5-.7.1-1.4.1-.7-.3-1.4-.3-.7,0-1.4,0-.7.1-1.4.1-.7-.5-1.4-.5-.7,1.2-1.4,1.2-.7-1.1-1.4-1.1-.7.3-1.4.3-.7-.2-1.4-.2-.7,0-1.4,0-.7.7-1.4.7-.7-.2-1.4-.2-.7.4-1.4.4-.7-.6-1.4-.6-.7-.4-1.4-.4-.7.2-1.4.2-.7.8-1.4.8-.7-1.1-1.4-1.1-.7.9-1.4.9-.7-.6-1.4-.6-.7.7-1.4.7-.7-.9-1.4-.9-.7.4-1.4.4-.7.2-1.4.2-.7-.4-1.4-.4-.7,0-1.4,0-.7,0-1.4,0-.6.2-.9.4c10.5,31.3,27,59.8,48.2,84.2.5,0,.6,0,1.2,0s.7-.6,1.4-.6.7.5,1.4.5.7-.6,1.4-.6.7.6,1.4.6.7-.2,1.4-.2.7.7,1.4.7.7-.5,1.4-.5Z"/>
  <path class="cls-1" d="M428.5,423.3c-.5,0-1,0-1.4,0s-1,0-1.4,0-1,.7-1.4.7-1,0-1.4,0-1-.8-1.4-.8-1,1-1.4,1-1-.5-1.4-.5-1,.2-1.4.2-1-.6-1.4-.6-1,.6-1.4.6-1,.3-1.4.3-1-1-1.4-1-1,.8-1.4.8-1-.5-1.4-.5-1,.4-1.4.4-1-.5-1.4-.5-1,.1-1.4.1-1,.3-1.4.3-1,0-1.4,0-1,.5-1.4.5-1-.4-1.4-.4-1,.1-1.4.1-1-.6-1.4-.6-1,0-1.4,0-1,.5-1.4.5-1-.1-1.4-.1-1-.2-1.4-.2-1,.3-1.4.3-1-.7-1.4-.7-1,0-1.4,0-1,.6-1.4.6-1,.1-1.4.1-1,0-1.4,0-1,0-1.4,0-1,0-1.4,0-1-1.1-1.4-1.1-1,0-1.4,0-1,1.1-1.4,1.1-1-.6-1.4-.6-1-.3-1.4-.3-1,.9-1.4.9-1-.8-1.4-.8-1,.5-1.4.5-1,.3-1.4.3-1,0-1.4,0-1-.2-1.4-.2-1,0-1.4,0-1-.5-1.4-.5-1-.5-1.4-.5-1,.5-1.4.5-1,.5-1.4.5-1-.6-1.4-.6-1,.2-1.4.2-1-.5-1.4-.5-1,.4-1.4.4-1,.2-1.4.2-1,.4-1.4.4-1-.4-1.4-.4-1,.4-1.4.4-1-.8-1.4-.8-1,.1-1.4.1-1,0-1.4,0-1,.4-1.4.4-1,0-1.4,0-1,.4-1.4.4-1-.2-1.4-.2-1,.1-1.4.1-1-.3-1.4-.3-1-.9-1.4-.9-1,1.2-1.4,1.2-1-.5-1.4-.5-1-.5-1.4-.5-1,0-1.4,0-1-.2-1.4-.2-1,1.1-1.4,1.1-1-1-1.4-1-1,0-1.4,0-1,.2-1.4.2-1,.3-1.4.3-1,0-1.4,0-1,.3-1.4.3-1-.5-1.4-.5-1-.5-1.4-.5-1,.4-1.4.4-1,.5-1.4.5-1-1-1.4-1-1,.8-1.4.8-1-.2-1.4-.2-1,.4-1.4.4-1-.8-1.4-.8-1,.8-1.4.8-1-.8-1.4-.8-1,.5-1.4.5-1-.3-1.4-.3-1,.3-1.4.3-1,.2-1.4.2-1-.9-1.4-.9-1,.6-1.4.6-1-.6-1.4-.6-1,.5-1.4.5-1-.3-1.4-.3-1,0-1.4,0-1,.8-1.4.8-1,0-1.4,0-1-1.1-1.4-1.1-1,1.1-1.4,1.1-1-.9-1.4-.9-1-.1-1.4-.1-1-.1-1.4-.1-1,0-1.4,0-1,.3-1.4.3-1,.4-1.4.4-1,0-1.4,0-1-.4-1.4-.4-1,.3-1.4.3-1,.4-1.4.4-1-.9-1.4-.9-1,.9-1.4.9-1-.9-1.4-.9-1,.7-1.4.7-1-.4-1.4-.4-1-.6-1.4-.6-1,.7-1.4.7-1,.2-1.4.2-1-.2-1.4-.2-1-.4-1.4-.4-1,.8-1.4.8-1,.2-1.4.2-1-.6-1.4-.6-1,.5-1.4.5-1,0-1.4,0-1-.6-1.4-.6-1,.5-1.4.5-1-.3-1.4-.3-1,.5-1.4.5-1-.7-1.4-.7-1-.3-1.4-.3-1,1-1.4,1-1-1-1.4-1-1,.8-1.4.8-1-.6-1.4-.6-1,.4-1.4.4-1,.3-1.4.3-1,.1-1.4.1-1-.3-1.4-.3-1-.2-1.4-.2-1-.3-1.4-.3c-.9,0-1.4.5-1.4.5s-.5.4-1.4.4-.9-.8-1.4-.8-.9,0-1.4,0-.9,0-1.4,0-.9.6-1.4.6-.9-.9-1.4-.9-.9.5-1.4.5-.9.3-1.4.3-.9-.3-1.4-.3-.9.2-1.4.2-.9-.7-1.4-.7-1-.1-1.4-.1-1,.4-1.4.4-1,.6-1.4.6-1-.2-1.4-.2-1,.3-1.4.3-1-.7-1.4-.7-1,0-1.4,0-1,.5-1.4.5-1-.1-1.4-.1-1-.7-1.4-.7-1,.4-1.4.4-1,.2-1.4.2-1,0-1.4,0-1-.5-1.4-.5-1,.3-1.4.3-1,.4-1.4.4-1-.8-1.4-.8-1,.5-1.4.5-1-.5-1.4-.5-1,1-1.4,1-1-.4-1.4-.4-1,.1-1.4.1-1-.2-1.4-.2-1,.3-1.4.3-1-.8-1.4-.8-1,.9-1.4.9-1,0-1.4,0-1-.3-1.4-.3-1-.7-1.4-.7-1,.6-1.4.6-1,.2-1.4.2-1-.1-1.4-.1-1-.5-1.4-.5-1-.2-1.4-.2-1-.1-1.4-.1-1,.7-1.4.7-1,0-1.4,0-1-.2-1.4-.2-1,.2-1.4.2-1,.2-1.4.2-1-.2-1.4-.2-1-.4-1.4-.4-1,.6-1.4.6-1-.7-1.4-.7-1,.2-1.4.2-1-.2-1.4-.2-1,.6-1.4.6-1,.4-1.4.4-1-.4-1.4-.4-1,.6-1.4.6-1,0-1.4,0-1-.6-1.4-.6-1-.3-1.4-.3-1,0-1.4,0-1,0-1.4,0-1,.6-1.4.6-1,.3-1.4.3-1-.9-1.4-.9-1,.6-1.4.6-1-.3-1.4-.3-1,0-1.4,0-1,0-1.4,0-1,0-1.4,0-1-.3-1.4-.3-1,1.1-1.4,1.1-1-.9-1.4-.9-1,.4-1.4.4-1,.4-1.4.4-1-.6-1.4-.6-1,.4-1.4.4-1-.4-1.4-.4-1,.1-1.4.1-1-.3-1.4-.3-1-.3-1.4-.3-1,.9-1.4.9-1-.9-1.4-.9-1,.3-1.4.3-1-.2-1.4-.2-1,0-1.4,0-1,.2-1.4.2-1,.9-1.4.9-1-.7-1.4-.7-1,0-1.4,0-1,.1-1.4.1-1-.3-1.4-.3-1,.3-1.4.3-1,.3-1.4.3-1-.1-1.4-.1-1-.8-1.4-.8-1,0-1.4,0-.2,0-.3.1c45.5,47.4,109.5,76.9,180.3,76.9s134.2-29.2,179.6-76.1c-.4-.2-.7-.6-1.1-.6Z"/>
  <path class="cls-1" d="M95.4,54.9c.7,0,.7.3,1.4.3s.7-.8,1.4-.8.7,1,1.4,1,.7-.3,1.4-.3.7-.5,1.4-.5.7,0,1.4,0,.7,0,1.4,0,.7.1,1.4.1.7,0,1.4,0,.7-.2,1.4-.2.7.6,1.4.6.7,0,1.4,0,.7-.6,1.4-.6.7.2,1.4.2.7.1,1.4.1.7-.4,1.4-.4.7.4,1.4.4.7-.1,1.4-.1.7,0,1.4,0,.7-.4,1.4-.4.7-.2,1.4-.2.7.7,1.4.7.7-.2,1.4-.2.7-.5,1.4-.5.7.9,1.4.9.7-1,1.4-1,.7.3,1.4.3.7.7,1.4.7.7-.4,1.4-.4.7-.5,1.4-.5.7.3,1.4.3.7.3,1.4.3.7-.5,1.4-.5.7.5,1.4.5.7-.7,1.4-.7.7.5,1.4.5.7.5,1.4.5.7-1,1.4-1,.7.7,1.4.7.7-.3,1.4-.3.7,0,1.4,0,.7.2,1.4.2.7-.5,1.4-.5.7.9,1.4.9.7,0,1.4,0,.7-.7,1.4-.7.7.6,1.4.6.7-.3,1.4-.3.7-.4,1.4-.4.7,0,1.4,0,.7.7,1.4.7.7.2,1.4.2.7,0,1.4,0,.7-.8,1.4-.8.7-.4,1.4-.4.7.3,1.4.3.7-.2,1.4-.2.7.4,1.4.4.7-.2,1.4-.2.7,0,1.4,0,.7.2,1.4.2.7.7,1.4.7.7-.1,1.4-.1.7-.3,1.4-.3.7-.4,1.4-.4.7.1,1.4.1.7-.2,1.4-.2.7-.3,1.4-.3.7.9,1.4.9.7-.2,1.4-.2.7.4,1.4.4.7,0,1.4,0,.7-.8,1.4-.8.7.2,1.4.2.7.1,1.4.1.7.6,1.4.6.7-.1,1.4-.1.7-.3,1.4-.3.7,0,1.4,0,.7,0,1.4,0,.7.2,1.4.2.7.4,1.4.4.7,0,1.4,0,.7-.7,1.4-.7.7,0,1.4,0,.7.6,1.4.6.7-1,1.4-1,.7,1.2,1.4,1.2.7,0,1.4,0,.7-.9,1.4-.9.7,0,1.4,0,.7-.3,1.4-.3.7.6,1.4.6.7.2,1.4.2.7-.7,1.4-.7.7.3,1.4.3.7.1,1.4.1.7.5,1.4.5.7.2,1.4.2.7-.3,1.4-.3.7.1,1.4.1.7-.5,1.4-.5.7.6,1.4.6.7-1.1,1.4-1.1.7.2,1.4.2.7,1,1.4,1,.7-.8,1.4-.8.7.4,1.4.4.7.5,1.4.5.7-.8,1.4-.8.7.8,1.4.8.7-1.1,1.4-1.1.7,1,1.4,1,.7,0,1.4,0,.7,0,1.4,0,.7-.2,1.4-.2.7-.4,1.4-.4.7-.4,1.4-.4.7.2,1.4.2.7.7,1.4.7.7-.7,1.4-.7.7,0,1.4,0,.7.1,1.4.1.7.4,1.4.4.7.4,1.4.4.7-.5,1.4-.5.7-.3,1.4-.3.7.3,1.4.3.7.2,1.4.2.7.2,1.4.2.7,0,1.4,0,.7-1.1,1.4-1.1.7,1.1,1.4,1.1.7-.7,1.4-.7.7.8,1.4.8.7-.7,1.4-.7.7-.4,1.4-.4.7,0,1.4,0,.7.6,1.4.6.7.6,1.5.6.7-.8,1.5-.8.9.8,1.4,1c.5.2.9.3,1.3.6.4.3,1,.3,1.3.8.3.4.2,1,.3,1.5.2.5.3.9.3,1.4s.8.7.8,1.4-.9.7-.9,1.4.5.7.5,1.4.2.7.2,1.4-.1.7-.1,1.4,0,.7,0,1.4.1.7.1,1.4-.8.7-.8,1.4.1.7.1,1.4.8.7.8,1.4.2.7.2,1.4-.6.7-.6,1.4-.3.7-.3,1.4.6.7.6,1.4.1.7.1,1.4-.7.7-.7,1.4.7.7.7,1.4,0,.7,0,1.4,0,.7,0,1.4-.3.7-.3,1.5-.3.7-.3,1.5.6.9.6,1.4c0,.5,0,1,0,1.4,0,.5.5.8.6,1.3.1.5.2.9.4,1.4.2.5.3.9.5,1.3.2.4,0,1.2.2,1.6.3.4.6.8.9,1.2.3.4.4,1.1.7,1.4.3.3,1,.4,1.4.7.4.3.9.5,1.3.8.4.3.7.8,1.1,1,.4.2,1,.3,1.4.5.5.2,1,0,1.5.2.5.1.9.2,1.4.3.5,0,.9.3,1.4.3.5,0,1,.4,1.5.4.7,0,.7-.8,1.4-.8s.7,1,1.4,1,.7-1,1.4-1,.7,0,1.4,0,.7.9,1.4.9.7.1,1.4.1.7-1,1.4-1,.7,0,1.4,0,.7,0,1.4,0,.7,1.1,1.4,1.1.7-.5,1.4-.5.7-.4,1.4-.4.7.4,1.4.4.7-.2,1.4-.2.7.2,1.4.2.7.2,1.4.2.7,0,1.4,0,.7.3,1.4.3.7-.7,1.4-.7.7.7,1.4.7.7-.5,1.4-.5.7,0,1.4,0,.7,0,1.4,0,.7-.5,1.4-.5.7.9,1.4.9.7-.6,1.4-.6.7.2,1.4.2.7.4,1.4.4.7-.7,1.4-.7.7.8,1.4.8.7-.7,1.4-.7.7.6,1.4.6.7-.2,1.4-.2.7.3,1.4.3.7-1.1,1.4-1.1.7.4,1.4.4.7.4,1.4.4.7-.7,1.4-.7.7.7,1.4.7.7-.5,1.4-.5.7.5,1.4.5.7.3,1.4.3.7-.3,1.4-.3.7,0,1.4,0,.7-.8,1.4-.8.7.9,1.4.9.7-.8,1.4-.8.7.2,1.4.2.7.7,1.4.7.7-.8,1.4-.8.7.5,1.4.5.7-.4,1.4-.4.7-.5,1.4-.5.7.7,1.4.7.7-.5,1.4-.5.7.3,1.4.3.7.2,1.4.2.7-.5,1.4-.5.7.2,1.4.2.7.2,1.4.2.7-.3,1.4-.3.7.2,1.4.2.7.3,1.4.3.7,0,1.4,0,.7-.3,1.4-.3.7-.3,1.4-.3.7,1,1.4,1,.7-.4,1.4-.4.7.4,1.4.4.7-1.1,1.4-1.1.7.4,1.4.4.7.7,1.4.7.7,0,1.4,0,.7-.2,1.4-.2.7-.6,1.4-.6.7.9,1.4.9.7-.5,1.4-.5.7.5,1.4.5.7-1.1,1.4-1.1.7.3,1.4.3.7.2,1.4.2.7.5,1.4.5.7.1,1.4.1.7-1,1.4-1,.7.9,1.4.9.7-.4,1.4-.4.7-.6,1.4-.6.7.4,1.4.4.7-.3,1.4-.3.7.4,1.4.4.7-.3,1.4-.3.7.2,1.4.2.7.6,1.4.6.7-.6,1.4-.6,0,0,0,0C408.4,41.5,334,0,250,0s-113.3,20.5-156.1,54.7c.7,0,.7.2,1.4.2Z"/>
  <path class="cls-1" d="M302.8,189.5c0,.7.8.7.8,1.5s-.5.7-.5,1.5-.5.7-.5,1.5,0,1,.1,1.5c0,.5,1.2.8,1.3,1.3,0,.5-.3,1.1-.1,1.5.1.5-.3,1.2,0,1.6.2.5,1.1.6,1.4,1,.2.4.8.6,1.1,1,.3.4,0,1.2.3,1.6.3.4.9.5,1.2.9.3.3.2,1.2.6,1.5.4.3,1.2.1,1.6.4.4.3.6.9,1,1.1.4.2.9.5,1.3.7.5.2,1.1,0,1.5.1.5.1.9.7,1.3.8.5,0,1.1-.3,1.6-.2.5,0,1-.5,1.5-.5.7,0,.7.9,1.4.9s.7-.4,1.4-.4.7,0,1.4,0,.7.2,1.4.2.7-.7,1.4-.7.7,0,1.4,0,.7.6,1.4.6.7.4,1.4.4.7-.4,1.4-.4.7,0,1.4,0,.7,0,1.4,0,.7-.8,1.4-.8.7,1.1,1.4,1.1.7-1,1.4-1,.7.9,1.4.9.7,0,1.4,0,.7,0,1.4,0,.7-.8,1.4-.8.7.8,1.4.8.7-.2,1.4-.2.7.3,1.4.3.7-1,1.4-1,.7-.2,1.4-.2.7,1,1.4,1,.7.2,1.4.2.7-.9,1.4-.9.7.6,1.4.6.7-.5,1.4-.5.7.2,1.4.2.7-.4,1.4-.4.7.9,1.4.9.7.2,1.4.2.7-.8,1.4-.8.7.5,1.4.5.7-.2,1.4-.2.7-.2,1.4-.2.7.8,1.4.8.7-.8,1.4-.8.7,0,1.4,0,.7.1,1.4.1.7.7,1.4.7.7-.7,1.4-.7.7.7,1.4.7.7-.7,1.4-.7.7.7,1.4.7.7-1,1.4-1,.7.3,1.4.3.7.3,1.4.3.7.3,1.4.3.7-.6,1.4-.6.7-.3,1.4-.3.7.2,1.4.2.7-.1,1.4-.1.7,0,1.4,0,.7,1.1,1.4,1.1.7-.5,1.4-.5.7,0,1.4,0,.7.6,1.4.6.7-1.2,1.4-1.2.7,1,1.4,1,.7,0,1.4,0,.7-.3,1.4-.3.7,0,1.4,0,.7.1,1.4.1.7-.4,1.4-.4.7-.3,1.4-.3.7-.1,1.4-.1.7,1.1,1.4,1.1.7-.4,1.4-.4.7.2,1.4.2.7.2,1.4.2.7-1,1.4-1,.7.9,1.4.9.7-.3,1.4-.3.7.4,1.4.4.7-.5,1.4-.5.7-.4,1.4-.4.7.2,1.4.2.7.6,1.4.6.7-.7,1.4-.7.7.6,1.4.6.7-.9,1.4-.9.7.6,1.4.6.7-.5,1.4-.5.7,0,1.4,0,.7.2,1.4.2.7.2,1.4.2.7.2,1.4.2.7-.2,1.4-.2.7.4,1.4.4.7-.5,1.4-.5.7-.2,1.4-.2.7-.3,1.4-.3.7,1,1.4,1,.7,0,1.4,0,.7-.4,1.4-.4.7,0,1.4,0,.7-.6,1.4-.6.7.1,1.4.1.7.2,1.4.2.7,0,1.4,0,.7,0,1.4,0,.7.8,1.4.8.7-.8,1.4-.8.7.8,1.4.8.7-.7,1.4-.7.7-.3,1.4-.3.7.9,1.4.9.7-.8,1.4-.8.7-.3,1.4-.3.7,0,1.4,0,.7,1.2,1.4,1.2.7-.7,1.4-.7.7.6,1.4.6.7,0,1.4,0,.7,0,1.4,0,.7-1,1.4-1,.7.8,1.4.8.7.4,1.4.4.7,0,1.4,0,.7-.1,1.4-.1.7-.8,1.4-.8.7.8,1.4.8.7-.5,1-.7c-2.4-14.3-6-28.2-10.7-41.6,0,0-.1,0-.2,0-.7,0-.7,0-1.4,0s-.7.3-1.4.3-.7,0-1.4,0-.7,0-1.4,0-.7,0-1.4,0-.7-.9-1.4-.9-.7.3-1.4.3-.7,0-1.4,0-.7,0-1.4,0-.7.6-1.4.6-.7,0-1.4,0-.7-.4-1.4-.4-.7,0-1.4,0-.7-.1-1.4-.1-.7.6-1.4.6-.7-.6-1.4-.6-.7.6-1.4.6-.7-1.1-1.4-1.1-.7,1.1-1.4,1.1-.7-.4-1.4-.4-.7-.2-1.4-.2-.7-.3-1.4-.3-.7.6-1.4.6-.7.2-1.4.2-.7,0-1.4,0-.7-.2-1.4-.2-.7-.6-1.4-.6-.7.1-1.4.1-.7-.2-1.4-.2-.7.3-1.4.3-.7.2-1.4.2-.7-.2-1.4-.2-.7-.4-1.4-.4-.7,1-1.4,1-.7-1.2-1.4-1.2-.7.2-1.4.2-.7.7-1.4.7-.7-.8-1.4-.8-.7.1-1.4.1-.7.4-1.4.4-.7.3-1.4.3-.7-.7-1.4-.7-.7.3-1.4.3-.7-.1-1.4-.1-.7.6-1.4.6-.7,0-1.4,0-.7-.9-1.4-.9-.7.5-1.4.5-.7-.6-1.4-.6-.7,0-1.4,0-.7,0-1.4,0-.7,1-1.4,1-.7-.8-1.4-.8-.7.6-1.4.6-.7,0-1.4,0-.7-.2-1.4-.2-.7.6-1.4.6-.7,0-1.4,0-.7-1-1.4-1-.7.8-1.4.8-.7-.4-1.4-.4-.7.5-1.4.5-.7-.7-1.4-.7-.7.9-1.4.9-.7-.5-1.4-.5-.7-.4-1.4-.4-.7.4-1.4.4-.7-.7-1.4-.7-.7.5-1.4.5-.7.3-1.4.3-.7.3-1.4.3-.7-.6-1.4-.6-.7.2-1.4.2-.7.1-1.4.1-.7-.1-1.4-.1-.7-.5-1.4-.5-.7-.1-1.4-.1-.7.9-1.4.9-.7-.6-1.4-.6-.7.7-1.4.7-.7-1-1.4-1-.7,1-1.4,1-.7.2-1.4.2-.7-.5-1.4-.5-.7,0-1.4,0-.7-.2-1.4-.2-.7.3-1.4.3-.7-.4-1.4-.4-.7,0-1.4,0-.7.3-1.4.3-.7-.5-1.4-.5-.7,0-1.4,0-.7.5-1.4.5-.7-.6-1.4-.6-.7,0-1.4,0-.7.9-1.4.9-.7-1-1.4-1-.7.7-1.4.7-.7-.1-1.4-.1-.7.3-1.4.3-.7-.5-1.4-.5-.7.6-1.4.6-.7-.3-1.4-.3-.7-.2-1.4-.2-.7.4-1.4.4-.7-.2-1.5-.2-.7,0-1.4,0-.7-.3-1.4-.3-.7.2-1.5.2-.7-.3-1.4-.3-.7-.3-1.5-.3-.7.4-1.5.4-.7.4-1.5.4-.7,0-1.5,0-.7-.8-1.5-.8-.7-.2-1.5-.2-1,.8-1.5.8c-.5,0-.9.4-1.4.5-.5,0-1.1-.4-1.6-.3-.5.1-.9.4-1.4.6-.5.2-1.1,0-1.6.2-.4.2-.2,1.5-.6,1.8-.4.3-1,.3-1.4.6-.4.3-1.2.1-1.6.5s-.5.9-.8,1.3c-.3.4-.2,1.1-.4,1.5-.3.4-1.2.4-1.4.9-.2.4,0,1.1-.1,1.6-.2.5-.6.8-.7,1.3-.1.5.4,1.1.3,1.6,0,.5-.5.9-.6,1.4,0,.5.3,1,.3,1.4,0,.7-.9.7-.9,1.5s.3.7.3,1.5-.4.7-.4,1.5-.2.7-.2,1.5.2.7.2,1.5Z"/>
</svg>