<?xml version="1.0" encoding="UTF-8"?>
<svg id="_アイコン" data-name="アイコン" xmlns="http://www.w3.org/2000/svg" version="1.1" viewBox="0 0 500 500">
  <defs>
    <style>
      .cls-1 {
        fill: #fff;
        stroke-width: 0px;
      }
    </style>
  </defs>
  <path class="cls-1" d="M421.5,69.9c-.7,0-.7-.6-1.4-.6s-.7.5-1.4.5-.7-.6-1.4-.6-.7.9-1.4.9-.7-.7-1.4-.7-.7.5-1.4.5-.7-.3-1.4-.3-.7-.2-1.4-.2-.7-.2-1.4-.2-.7.4-1.4.4-.7-.1-1.4-.1-.7-.3-1.4-.3-.7.6-1.4.6-.7-.4-1.4-.4-.7.2-1.4.2-.7-.5-1.4-.5-.7.5-1.4.5-.7-.5-1.4-.5-.7,0-1.4,0-.7,0-1.4,0-.7.8-1.4.8-.7-.3-1.4-.3-.7-.6-1.4-.6-.7.3-1.4.3-.7.4-1.4.4-.7.4-1.4.4-.7-.9-1.4-.9-.7,1-1.4,1-.7-.3-1.4-.3-.7,0-1.4,0-.7-.5-1.4-.5-.7.4-1.4.4-.7-.6-1.4-.6-.7.8-1.4.8-.7-1.1-1.4-1.1-.7.7-1.4.7-.7-.6-1.4-.6-.7.2-1.4.2-.7.4-1.4.4-.7,0-1.4,0-.7-.2-1.4-.2-.7-.4-1.4-.4-.7.5-1.4.5-.7.4-1.4.4-.7-.5-1.4-.5-.7-.3-1.4-.3-.7.2-1.4.2-.7.3-1.4.3-.7.3-1.4.3-.7.3-1.4.3-.7-1.1-1.5-1.1-.7.4-1.5.4-1,.6-1.4.7c-.5,0-1-.3-1.5-.2-.5,0-1,.2-1.4.4-.5.1-.9.4-1.3.6-.5.2-1.1,0-1.5.3-.4.2-.8.6-1.2.8-.4.3-1,.4-1.3.7-.4.3-.1,1.3-.5,1.6s-1.2.2-1.5.6c-.3.4-.7.7-1,1.1-.3.4-.3,1-.6,1.4-.2.4.2,1.1,0,1.6-.2.5-.4.9-.5,1.3-.1.5-1.1.7-1.2,1.2,0,.5,0,1,0,1.5,0,.5,0,1,0,1.5,0,.7.5.7.5,1.4s-.6.7-.6,1.4.2.7.2,1.4.2.7.2,1.4,0,.7,0,1.4-.4.7-.4,1.4.6.7.6,1.4-1.1.7-1.1,1.4,0,.7,0,1.4.8.7.8,1.4,0,.7,0,1.4,0,.7,0,1.4,0,.7,0,1.4-.6.7-.6,1.4.4.7.4,1.4.2.7.2,1.4.3.7.3,1.4-.8.7-.8,1.4-.2.7-.2,1.4,0,.7,0,1.4.6.7.6,1.4.4.7.4,1.4,0,.7,0,1.4-.2.7-.2,1.4-.3.7-.3,1.4.2.7.2,1.4,0,.7,0,1.4-.5.7-.5,1.4.6.7.6,1.4-.5.7-.5,1.4.3.7.3,1.4-.5.7-.5,1.4.6.7.6,1.4,0,.7,0,1.4.2.7.2,1.4-1.1.7-1.1,1.4.4.7.4,1.4-.4.7-.4,1.4.5.7.5,1.4-.5.7-.5,1.4.7.7.7,1.4-.5.7-.5,1.4.2.7.2,1.4.6.7.6,1.4-.5.7-.5,1.4.2.7.2,1.4-.4.7-.4,1.4-.2.7-.2,1.4.7.7.7,1.4-.1.7-.1,1.4-.4.7-.4,1.4.7.7.7,1.4-.6.7-.6,1.4,0,.7,0,1.4-.4.7-.4,1.4.4.7.4,1.4,0,.7,0,1.4.5.7.5,1.4,0,.7,0,1.4-.1.7-.1,1.4.3.7.3,1.4-.2.7-.2,1.4,0,.7,0,1.4.3.7.3,1.4-.6.7-.6,1.4.3.7.3,1.4-.2.7-.2,1.4-.4.7-.4,1.4-.3.7-.3,1.4.3.7.3,1.4,0,.7,0,1.4.8.7.8,1.4-.3.7-.3,1.4-.3.7-.3,1.4.4.7.4,1.4-.5.7-.5,1.4.4.7.4,1.4,0,.7,0,1.4-.4.7-.4,1.4.4.7.4,1.4-.8.7-.8,1.4.1.7.1,1.4.7.7.7,1.4-.7.7-.7,1.4.3.7.3,1.5,0,.7,0,1.4.4.7.4,1.5.2.7.2,1.5-.5.7-.5,1.5.4,1,.5,1.4c0,.5-.5,1.1-.4,1.5,0,.5.7.9.8,1.3.1.5,0,1.1,0,1.5.2.5.4.9.7,1.3.2.4.3,1,.6,1.4.3.4,1.4.2,1.7.6.3.4.3,1,.6,1.4s1,.3,1.4.6c.4.3.6.7,1,1,.4.3.4,1.2.9,1.4.4.2.9.4,1.4.6.5.2,1.1-.3,1.6-.1.5.1,1,.1,1.4.2.5,0,.8,1.1,1.3,1.2.5,0,1-.3,1.5-.3.7,0,.7-.3,1.4-.3s.7.6,1.4.6.7-.6,1.4-.6.7.2,1.4.2.7-.3,1.4-.3.7.8,1.4.8.7-.6,1.4-.6.7,0,1.4,0,.7.4,1.4.4.7,0,1.4,0,.7-.3,1.4-.3.7-.6,1.4-.6.7.2,1.4.2.7.5,1.4.5.7-.3,1.4-.3.7.6,1.4.6.7-.4,1.4-.4.7-.7,1.4-.7.7,0,1.4,0,.7.5,1.4.5.7,0,1.4,0,.7-.2,1.4-.2.7-.3,1.4-.3.7.8,1.4.8.7-.7,1.4-.7.7.8,1.4.8.7-.8,1.4-.8.7,0,1.4,0,.7.3,1.4.3.7-.4,1.4-.4.7,1.1,1.4,1.1.7-.2,1.4-.2.7.2,1.4.2.7-.4,1.4-.4.7,0,1.4,0,.7-.2,1.4-.2.7.7,1.4.7.7-1.1,1.4-1.1.7,1.1,1.4,1.1.7,0,1.4,0,.7-.3,1.4-.3.7.3,1.4.3.7-.4,1.4-.4.7-.3,1.4-.3.7.7,1.4.7.7-.9,1.4-.9.7-.3,1.4-.3.7,0,1.4,0,.7.4,1.4.4.7,0,1.4,0,.7.2,1.4.2.7-.2,1.4-.2.7.3,1.4.3.7,0,1.4,0,.7-.2,1.4-.2.7.5,1.4.5.7.1,1.4.1.7.1,1.4.1.7-1,1.4-1,.7,0,1.4,0,.7,0,1.4,0,.7.8,1.4.8.7-.1,1.4-.1.7,0,1.4,0,.7-.5,1.4-.5.7.6,1.4.6.7.1,1.4.1.7-.9,1.4-.9.7.2,1.4.2.7.1,1.4.1.7.2,1.4.2.7.4,1.4.4.7-.4,1.4-.4.7,0,1.4,0,.7.3,1.4.3.7-.1,1.4-.1.7,0,1.4,0,.7,0,1.4,0,.7.3,1.4.3.7-1,1.4-1,.7.4,1.4.4.7.4,1.4.4.7-.5,1.4-.5.7-.2,1.4-.2.7.2,1.4.2.7.4,1.4.4.7-.4,1.4-.4.7.6,1.4.6.7-.3,1.4-.3.7-.4,1.4-.4.7,0,1.4,0,.7.5,1.4.5.7,0,1.4,0,.7-.6,1.4-.6.7.5,1.4.5.7.6,1.4.6.7-.5,1.4-.5.7-.4,1.4-.4.7,0,1.4,0,.7.9,1.4.9.7-.7,1.4-.7.7.7,1.4.7.7-.2,1.4-.2.7-.5,1.4-.5.7-.3,1.4-.3.7.8,1.4.8.1,0,.2,0c-5.3-62.1-33.2-117.7-75.6-158.6-.1.1-.3.2-.6.2-.7,0-.7-.4-1.4-.4Z"/>
  <path class="cls-1" d="M322.1,174.5c0-.7-.1-.7-.1-1.4s-.8-.7-.8-1.4.1-.7.1-1.4,0-.7,0-1.4.4-.7.4-1.4-.4-.7-.4-1.4.2-.7.2-1.4.6-1,.5-1.5c0-.5-1-.8-1.1-1.3,0-.5-.3-.9-.4-1.4-.1-.5-.3-.9-.5-1.3-.2-.5.2-1.2,0-1.6-.2-.4-.5-.9-.7-1.3-.3-.4-.5-.9-.8-1.3-.3-.4-.7-.7-1-1.1-.3-.3-.6-.8-1-1.1-.4-.3-1.1-.3-1.5-.5-.4-.3-1-.2-1.4-.5-.4-.2-.9-.3-1.4-.5-.5-.2-.9-.3-1.4-.5-.5-.1-.9-.5-1.4-.6-.5,0-.9-.9-1.4-1-.5,0-1.1,1.1-1.6,1.1s-.9-.1-1.4,0c-.5,0-1-.2-1.4-.1-.5,0-.9.3-1.3.5-.5.1-1.1-.2-1.5,0-.4.2-.7.7-1.1,1-.4.2-1,.1-1.4.4-.6.4,0,1.2-.7,1.6-.6.4-.7.2-1.3.6s-.5.5-1.1.9-1-.2-1.6.2c-.6.4-.5.6-1.1,1-.6.4-.4.6-1,1-.6.4-1-.2-1.6.2s-.6.4-1.2.8c-.6.4-.2,1-.8,1.4-.6.4-.7.2-1.3.6-.6.4-1-.3-1.6.1s0,1.3-.6,1.7c-.6.4-.8,0-1.4.4-.6.4-.5.6-1.1,1-.6.4-.6.3-1.2.7-.6.4-.8,0-1.4.4-.6.4-.6.4-1.2.8-.6.4-.7.2-1.4.5s-.1,1.1-.7,1.5c-.6.4-1-.2-1.6.1-.6.4-.3.8-.9,1.2-.6.4-.7.3-1.3.7-.6.4-1.1-.3-1.7,0-.6.4-.3.9-.9,1.3-.6.4-.7.2-1.4.5-.6.4-.3.9-.9,1.3-.6.4-1-.3-1.6.1-.6.4-.5.6-1.1,1-.6.4-.3.8-.9,1.2-.6.4-1.1-.4-1.7,0-.6.4,0,1.2-.7,1.6-.6.4-.7.3-1.3.7-.6.4-.9-.1-1.5.3-.6.4-.4.7-1,1.1-.6.4-.6.4-1.2.8-.6.4-.6.3-1.2.7-.6.4-.4.7-1,1.1-.6.4-.8,0-1.4.4-.6.4-.3.8-.9,1.2-.6.4-.6.3-1.3.7-.6.4-.8.1-1.4.5-.6.4-1-.2-1.6.2-.6.4-.3.8-.9,1.2-.6.4-.6.4-1.2.8-.6.4-.9,0-1.5.3-.6.4-.2,1-.8,1.4-.6.4-.9-.1-1.5.3-.6.4-.7.2-1.3.6-.6.4,0,1.3-.6,1.7-.6.4-.8,0-1.4.4-.6.4-.3.9-.9,1.2-.6.4-1.1-.4-1.7,0-.6.4,0,1.2-.7,1.6-.6.4-1-.2-1.6.2-.6.4-.2,1-.8,1.4-.6.4-1.3-.7-1.9-.3-.6.4-.5.6-1.1,1-.6.4-.6.4-1.2.8-.6.4-.6.4-1.2.8-.6.4-.5.5-1.1.9-.6.4-.7.2-1.3.6-.6.4-.6.4-1.2.8-.6.4-.3.8-1,1.2-.4.3-1.3,0-1.7.3-.4.3-.6.9-.9,1.3-.4.3-.5.9-.8,1.3-.3.4-.5.8-.8,1.2-.3.4-.8.7-1.1,1.1-.2.4-.8.7-1,1.2-.2.5,0,1.1-.2,1.5-.1.5.5,1.1.4,1.6-.1.5-.6.9-.7,1.4,0,.5-.7,1-.7,1.5,0,.5.5,1,.5,1.5,0,.5.6.9.7,1.4,0,.5-.4,1.1-.2,1.6.1.5.3,1,.4,1.4.2.5.7.8.9,1.2.2.4,0,1.2.2,1.6.3.4,1,.5,1.3.9.3.4,1.1.3,1.4.7.3.4.5.9.9,1.2.4.3.3,1.2.7,1.5.4.3,1.3-.2,1.7,0,.4.2.8.6,1.2.8.5.2.7,1.1,1.1,1.2.5.1,1.1,0,1.6,0,.5,0,1.1-.5,1.6-.4.5,0,1,0,1.5,0,.7,0,.7-.2,1.4-.2s.7.7,1.4.7.7-.8,1.4-.8.7,1.2,1.4,1.2.7-.5,1.4-.5.7-.3,1.4-.3.7-.2,1.4-.2.7,0,1.4,0,.7.6,1.4.6.7-.6,1.4-.6.7.6,1.4.6.7-.3,1.4-.3.7-.3,1.4-.3.7-.1,1.4-.1.7.9,1.4.9.7.4,1.4.4.7-.9,1.4-.9.7,0,1.4,0,.7.2,1.4.2.7-.3,1.4-.3.7,0,1.4,0,.7,0,1.4,0,.7.2,1.4.2.7.5,1.4.5.7-.1,1.4-.1.7.1,1.4.1.7.4,1.4.4.7-.7,1.4-.7.7.3,1.4.3.7.5,1.4.5.7-.8,1.4-.8.7.4,1.4.4.7,0,1.4,0,.7-.8,1.4-.8.7.7,1.4.7.7-.2,1.4-.2.7-.2,1.4-.2.7.5,1.4.5.7,0,1.4,0,.7,0,1.4,0,.7-.4,1.4-.4.7.3,1.4.3.7.1,1.4.1.7-.6,1.4-.6.7.3,1.4.3.7-.5,1.4-.5.7,0,1.4,0,.7.6,1.4.6.7-.6,1.4-.6.7.7,1.4.7.7-.4,1.4-.4.7,1,1.4,1,.7-.6,1.4-.6,1,.4,1.5.4c.5,0,.9-.6,1.4-.7.5,0,.9-.6,1.3-.7.5-.1,1.1.1,1.5,0,.5-.2,1.1,0,1.5-.3.4-.2.6-1,1-1.3.4-.3,1-.4,1.3-.7.4-.3.2-1.2.6-1.5.3-.3,1.2-.2,1.5-.6.3-.4.8-.7,1-1.1.3-.4.4-.9.7-1.4.2-.4,0-1.1.2-1.5.2-.5.6-.8.8-1.3.1-.5-.1-1,0-1.5,0-.5.8-.9.8-1.4,0-.5.3-1,.3-1.5,0-.7-.3-.7-.3-1.4s.3-.7.3-1.4-.3-.7-.3-1.4-.6-.7-.6-1.4.1-.7.1-1.4-.3-.7-.3-1.4,1-.7,1-1.4-.9-.7-.9-1.4,1-.7,1-1.4-.8-.7-.8-1.4.5-.7.5-1.4-.6-.7-.6-1.4.9-.7.9-1.4,0-.7,0-1.4,0-.7,0-1.4-1.2-.7-1.2-1.4.8-.7.8-1.4-.1-.7-.1-1.4,0-.7,0-1.4-.1-.7-.1-1.4.1-.7.1-1.4.2-.7.2-1.4-.2-.7-.2-1.4.2-.7.2-1.4-.8-.7-.8-1.4.5-.7.5-1.4.6-.7.6-1.4Z"/>
  <path class="cls-1" d="M211.4,103.9c0,.7.7.8.6,1.5-.2.4-.7.7-.9,1.2-.2.4.2,1.1,0,1.6-.2.5-1,.7-1.2,1.1-.1.5,0,1,0,1.5,0,.5.4,1,.4,1.5,0,.5-.9,1-.9,1.4,0,.5,1,.9,1.1,1.3,0,.5,0,.9.1,1.4.1.5-.3,1.1-.2,1.5.2.4.7.7.9,1.2.2.4.4.8.7,1.3.2.4.4.8.7,1.2.3.4.9.5,1.2.8.3.4.3,1,.7,1.3.3.3,1,.2,1.4.5.4.3.7.6,1.1.9.4.3.6.7,1.1,1,.4.2.6,1.1,1,1.2.4.2,1.1-.2,1.5,0,.5.1.9.2,1.4.3.5,0,.9.7,1.4.8.5,0,1-.6,1.5-.6.7,0,.7.6,1.4.6s.7.2,1.4.2.7-1.1,1.4-1.1.7.4,1.4.4.7-.6,1.4-.6.7.9,1.4.9.7-.9,1.4-.9.7.7,1.4.7.7-.7,1.4-.7.7,1.3,1.4,1.3.7-.3,1.4-.3.7,0,1.4,0,.7,0,1.4,0,.7-.2,1.4-.2.7.2,1.4.2.7,0,1.4,0,.7-.5,1.4-.5.7.7,1.4.7.7-.3,1.4-.3.7-.2,1.4-.2.7-.1,1.4-.1.7.3,1.4.3.7.4,1.4.4.7-.3,1.4-.3.7-.8,1.4-.8.7.4,1.4.4.7.6,1.4.6.7-.5,1.4-.5.7-.5,1.4-.5.7.6,1.4.6.7,0,1.4,0,.7-.4,1.4-.4.7.7,1.4.7.7-.5,1.4-.5.7-.6,1.4-.6.7.3,1.4.3.7.8,1.4.8.7-.8,1.4-.8.7.2,1.4.2.7.8,1.4.8.7-.3,1.4-.3.7-.6,1.4-.6.7,0,1.4,0,.7-.2,1.4-.2.7.7,1.4.7.7-.8,1.4-.8.7,1.2,1.4,1.2.7-.5,1.4-.5.7-.3,1.4-.3.7-.2,1.4-.2.7,0,1.4,0,.7.6,1.4.6.7-.6,1.4-.6.7.6,1.4.6.7-.3,1.4-.3.7-.3,1.4-.3.7-.1,1.4-.1,1,.8,1.5.8c.5,0,1.1.2,1.5.1.5,0,.7-1.1,1.2-1.3.5-.1.9-.3,1.3-.5.5-.2.9-.2,1.4-.5.4-.2.7-.8,1.1-1,.4-.3.7-.6,1.1-.9.4-.3.7-.6,1.1-.9s.8-.5,1.1-.9c.3-.4,1-.5,1.2-.9.3-.4.4-.9.6-1.3.2-.4.6-.8.7-1.3.2-.5.7-.8.8-1.3.1-.5-.4-1.1-.3-1.6,0-.5.5-.9.5-1.4,0-.5.5-1,.5-1.5,0-.7-.8-.7-.8-1.4s.4-.7.4-1.4,0-.7,0-1.4-.8-.7-.8-1.4.7-.7.7-1.4-.2-.7-.2-1.4-.2-.7-.2-1.4.5-.7.5-1.4,0-.7,0-1.4,0-.7,0-1.4-.4-.7-.4-1.4.3-.7.3-1.4.2-.7.2-1.4-.6-.7-.6-1.4.3-.7.3-1.4-.5-.7-.5-1.4,0-.7,0-1.4.6-.7.6-1.4-.6-.7-.6-1.4.7-.7.7-1.4-.4-1-.5-1.4c0-.5.8-1.1.7-1.6,0-.5-.8-.9-.9-1.3-.1-.5.1-1.1,0-1.6-.2-.5-.8-.7-1-1.2-.2-.4-.8-.6-1.1-1.1-.3-.4-.2-1.1-.5-1.5-.3-.4-.4-1-.7-1.4-.3-.3-1.1-.2-1.5-.6-.4-.3-.6-.8-1-1.1-.4-.3-1.2.1-1.6,0-.4-.2-.6-1.1-1-1.3-.5-.2-.9-.5-1.3-.7-.5-.1-1-.1-1.5-.2-.5,0-1,.3-1.5.2-.5,0-1-.4-1.4-.4-.7,0-.7.4-1.4.4s-.7-.6-1.4-.6-.7-.2-1.4-.2-.7.3-1.4.3-.7-.3-1.4-.3-.7.3-1.4.3-.7.6-1.4.6-.7-.1-1.4-.1-.7.3-1.4.3-.7-1-1.4-1-.7.9-1.4.9c-.7,0-.7-1-1.4-1s-.7.8-1.4.8-.7-.5-1.4-.5-.7.6-1.4.6-.7-.9-1.4-.9-.7,0-1.4,0-.7,0-1.4,0-.7,1.2-1.4,1.2-.7-.8-1.4-.8-.7.1-1.4.1-.7,0-1.4,0-.7.1-1.4.1-.7-.1-1.4-.1-.7-.2-1.4-.2-.7.2-1.4.2-.7-.2-1.4-.2-.7.8-1.4.8-.7-.5-1.4-.5-.7-.6-1.4-.6-.7.1-1.4.1-.7.8-1.4.8-.7-.1-1.4-.1-.7,0-1.4,0-.7-.4-1.4-.4-.7.4-1.4.4-.7-.2-1.4-.2-.7-.6-1.4-.6-.7.9-1.4.9-.7,0-1.4,0-.7,0-1.4,0-.7-.7-1.4-.7-.7,0-1.4,0-.7-.1-1.4-.1-.7,0-1.4,0-.7-.1-1.4-.1-.7.5-1.4.5-.7.3-1.4.3-.7.2-1.4.2-.7,0-1.4,0-.7-.3-1.5-.3-.7-.7-1.4-.7-.7.2-1.5.2-.7.2-1.4.4c-.8.2-.7.5-1.5.5s-.9-.1-1.4,0c-.5,0-1-.2-1.5-.1-.5,0-.9.3-1.4.5-.5.1-1.1-.2-1.6,0-.5.2-.7.8-1.2,1-.4.2-1.1.2-1.5.4-.4.3-.2,1.3-.6,1.6-.4.3-.8.5-1.2.8-.3.3-.6.8-.9,1.1-.3.4-1.1.4-1.4.8-.3.4-.3,1-.5,1.4-.2.4-.2,1-.3,1.4-.2.5-1,.7-1.1,1.1-.1.5-.3,1-.4,1.4,0,.5.6,1.1.5,1.6,0,.5-.3.9-.3,1.4,0,.7-.8.7-.8,1.5s1.1.7,1.1,1.5-.4.7-.4,1.5.3.7.3,1.5,0,.7,0,1.5-.4.7-.4,1.5,0,.7,0,1.5-.3.7-.3,1.5.9.7.9,1.5-.7.7-.7,1.5.5.7.5,1.5-.1.7-.1,1.5-.9.7-.9,1.5Z"/>
  <path class="cls-1" d="M332.1,14.3c0,.7-.9.7-.9,1.4s.5.7.5,1.4-.8.7-.8,1.4.4.7.4,1.4.8.7.8,1.4-1.2.7-1.2,1.4.9.7.9,1.4,0,.7,0,1.4.4.7.4,1.4-.9.7-.9,1.4.2.7.2,1.4,0,.7,0,1.4.3.7.3,1.4.3.7.3,1.4,0,.7,0,1.4-.9.7-.9,1.4.4.7.4,1.4.3.7.3,1.4-.4.7-.4,1.5.7.7.7,1.5-1,.7-1,1.5,0,1,0,1.5c0,.5,1.1.8,1.2,1.3,0,.5.3.9.4,1.4.1.5.1.9.3,1.4.2.5,0,1.1.2,1.5.2.4.4.9.6,1.4.3.4,1,.4,1.3.8.3.4.3,1.1.6,1.4.3.3,1,.3,1.4.7.4.3.3,1.2.7,1.5.4.3,1.4-.4,1.8-.1.4.2.6,1,1.1,1.2.5.2,1.1-.2,1.5,0,.5.1.7,1.4,1.2,1.5.5,0,1.1-.6,1.6-.5.5,0,1,0,1.5,0,.7,0,.7.2,1.4.2s.7-.5,1.4-.5.7.4,1.4.4.7.7,1.4.7.7-.4,1.4-.4.7-.8,1.4-.8.7.1,1.4.1.7,1.1,1.4,1.1.7-.1,1.4-.1.7-.3,1.4-.3.7-.3,1.4-.3.7.7,1.4.7.7-.8,1.4-.8.7.6,1.4.6.7-.6,1.4-.6.7.6,1.4.6.7-.9,1.4-.9.7.4,1.4.4.7.3,1.4.3.7,0,1.4,0,.7-.7,1.4-.7.7.5,1.4.5.7-.3,1.4-.3.7-.2,1.4-.2.7.3,1.4.3.7.7,1.4.7.7-.2,1.4-.2.7,0,1.4,0,.7-.7,1.4-.7.7.1,1.4.1.7,0,1.4,0,.7.9,1.4.9.7-1,1.4-1,.7.1,1.4.1.7.5,1.4.5.7.2,1.4.2.7-.3,1.4-.3.7.4,1.4.4.7.2,1.4.2.7-.9,1.4-.9.7-.3,1.4-.3.7,1.1,1.4,1.1.7-1,1.4-1,.7.9,1.4.9.7-.6,1.4-.6.7.7,1.4.7.1,0,.2,0c-23.6-20.3-51-36.2-81-46.6.2.2.4.3.4.6Z"/>
  <path class="cls-1" d="M499.7,238c-.1,0-.3.2-.6.2-.7,0-.7.5-1.4.5s-.7-.7-1.4-.7-.7.3-1.4.3-.7-.3-1.4-.3-.7.2-1.4.2-.7.5-1.4.5-.7-.5-1.4-.5-.7-.4-1.4-.4-.7.2-1.4.2-.7.7-1.4.7-.7,0-1.4,0-.7,0-1.4,0-.7-.2-1.4-.2-.7-.5-1.4-.5-.7.3-1.4.3-.7-.4-1.4-.4-.7,0-1.4,0-.7.8-1.4.8-.7-.2-1.4-.2-.7-.8-1.4-.8-.7,1-1.4,1-.7-.7-1.4-.7-.7.3-1.4.3-.7.5-1.4.5-.7-.8-1.4-.8-.7,0-1.4,0-.7,0-1.4,0-.7-.2-1.4-.2-.7.8-1.4.8-.7.3-1.4.3-.7-.7-1.4-.7-.7.7-1.4.7-.7-.8-1.4-.8-.7.1-1.4.1-.7,0-1.4,0-.7.5-1.4.5-.7-.6-1.4-.6-.7,0-1.4,0-.7.5-1.4.5-.7,0-1.4,0-.7,0-1.4,0-.7,0-1.4,0-.7-.3-1.4-.3-.7-.5-1.4-.5-.7,1.2-1.4,1.2-.7-.2-1.4-.2-.7-.6-1.4-.6-.7.5-1.4.5-.7.3-1.4.3-.7-.5-1.4-.5-.7.3-1.4.3-.7-.9-1.4-.9-.7,1-1.4,1-.7-.5-1.4-.5-.7,0-1.4,0-.7.6-1.4.6-.7-.7-1.4-.7-.7.2-1.4.2-.7-.5-1.4-.5-.7.6-1.4.6-.7-.6-1.4-.6-.7.7-1.4.7-.7-.4-1.4-.4-.7.7-1.4.7-.7-.3-1.4-.3-.7.3-1.4.3-.7-.9-1.4-.9-.7.1-1.4.1-.7.2-1.4.2-.7,0-1.4,0-.7,0-1.4,0-.7.2-1.4.2-.7.4-1.4.4-.7-.1-1.4-.1-.7-.8-1.4-.8-.7.4-1.4.4-.7,0-1.4,0-.7-.4-1.4-.4-.7,0-1.4,0-.7.5-1.4.5-.7-.5-1.4-.5-.7.1-1.4.1-.7.5-1.4.5-.7,0-1.4,0-.7-.6-1.4-.6-.7-.2-1.4-.2-.7,1.1-1.4,1.1-.7-.6-1.4-.6-.7.6-1.4.6-.7-.2-1.4-.2-.7-.3-1.4-.3-.7-.2-1.4-.2-.7.5-1.4.5-.7.2-1.4.2-.7-.4-1.4-.4-.7.4-1.4.4-.7,0-1.4,0-.7-.2-1.4-.2-.7.1-1.4.1-.7-1.1-1.4-1.1-.7.3-1.4.3-.7.2-1.4.2-.7.2-1.4.2-.7-.5-1.4-.5-.7,0-1.5,0-.7.7-1.5.7-.9,0-1.4,0c-.5,0-.9,0-1.4.2-.5,0-1.2-.6-1.6-.4-.5.1-1,.3-1.4.5-.5.2-1,.3-1.4.5-.4.2-.3,1.4-.7,1.7-.4.3-1.3,0-1.7.2-.4.3-.8.7-1.1,1-.3.3-.3,1.1-.6,1.4-.3.4-1.1.4-1.4.8-.3.4-.6.8-.8,1.3-.2.4.5,1.3.3,1.8-.2.5-.5.8-.6,1.3-.1.5-.8.8-.9,1.3,0,.5,0,1,0,1.5,0,.5-.7,1-.7,1.5,0,.7,0,.7,0,1.4s1.1.7,1.1,1.4,0,.7,0,1.4-.3.7-.3,1.4-.1.7-.1,1.4-.5.7-.5,1.4,1.1.7,1.1,1.4-.4.7-.4,1.4-.2.7-.2,1.4-.1.7-.1,1.4.7.7.7,1.4,0,.7,0,1.4-1.2.7-1.2,1.4,1.2.7,1.2,1.4-.9.7-.9,1.4.4.7.4,1.4.1.7.1,1.4-.1.7-.1,1.4.4.7.4,1.4-1,.7-1,1.4-.2.7-.2,1.4.5.6.2,1.2c-.3.6-.5.2-1.1.6s-.6.4-1.2.8-.6.4-1.2.8c-.6.4-.4.7-1,1.1-.6.4-.3.8-.9,1.2-.6.4-.6.5-1.1.9-.6.4-1.1-.4-1.7,0-.6.4-.2.9-.8,1.3-.6.4-.5.6-1.1,1-.6.4-1.1-.3-1.7,0-.6.4,0,1.2-.6,1.6-.6.4-1-.1-1.5.3-.6.4-.2,1-.8,1.4-.6.4-.7.2-1.3.6-.6.4-.5.6-1.1,1-.6.4-.6.4-1.2.8-.6.4-.8,0-1.4.5-.6.4-1-.2-1.6.2-.6.4-.4.7-1,1.1s-.3.9-.9,1.3c-.6.4-.6.4-1.2.8-.6.4-1.1-.3-1.7,0-.6.4-.6.4-1.2.8-.6.4-.2.9-.8,1.3-.6.4-.8,0-1.4.5-.6.4-.4.6-1,1-.6.4-.9,0-1.5.4-.6.4-.3.9-.9,1.3-.6.4-.7.2-1.3.6-.6.4-.6.4-1.2.8-.6.4-.6.4-1.2.8-.6.4-.5.6-1.1,1-.6.4-.4.7-1,1.1-.6.4-.8,0-1.4.5-.6.4-.6.4-1.2.9-.6.4-.5.5-1.1.9-.6.4-.9-.1-1.5.3-.6.4-.5.5-1.1.9-.6.4-.2,1-.8,1.4-.6.4-.5.6-1.1,1-.6.4-.7.2-1.3.6-.6.4-1.1-.3-1.7,0-.6.4-.4.7-1,1.1-.6.4-.2,1-.8,1.4-.6.4-.9,0-1.5.4-.4.3-1,.4-1.3.7-.4.3-.9.5-1.3.8-.3.3-.6.9-.9,1.2-.3.4-.7.8-.9,1.2-.3.4.2,1.3,0,1.7-.2.4-1,.6-1.2,1-.2.5-.6.8-.8,1.3-.1.5-.2,1-.3,1.5,0,.5.1,1,0,1.5,0,.5-.1,1-.1,1.5,0,.5.6.9.7,1.4,0,.5.2.9.3,1.4,0,.5-.7,1.2-.5,1.6.1.5,0,1.1.3,1.5.2.5,1.4.4,1.6.8.2.4-.5,1.4-.2,1.9.3.4,1.1.4,1.4.8.3.4.4,1,.8,1.3.3.3.7.7,1.1,1,.4.3.6.9,1,1.1.4.3,1.2,0,1.6.2.4.2.8.5,1.3.7.5.2,1,.1,1.5.3.5.1.8,1,1.3,1.1.5,0,1-.1,1.5,0,.5,0,1,.3,1.5.3.7,0,.7-.3,1.4-.3s.7.3,1.4.3.7-.6,1.4-.6.7,0,1.4,0,.7.5,1.4.5.7,0,1.4,0,.7,0,1.4,0,.7-.4,1.4-.4.7.8,1.4.8.7-.9,1.4-.9.7.3,1.4.3.7-.2,1.4-.2.7.3,1.4.3.7-.5,1.4-.5.7-.2,1.4-.2.7,0,1.4,0,.7,0,1.4,0,.7.2,1.4.2.7.7,1.4.7.7-.3,1.4-.3.7-.3,1.4-.3.7.4,1.4.4.7-.3,1.4-.3.7.2,1.4.2.7-.4,1.4-.4.7.1,1.4.1.7.1,1.4.1.7.9,1.4.9.7-1.2,1.4-1.2.7.6,1.4.6.7.3,1.4.3.7-.6,1.4-.6.7.9,1.4.9.7,0,1.4,0,.7-.7,1.4-.7.7.4,1.4.4.7-.4,1.4-.4.7-.1,1.4-.1.7.4,1.4.4.7.3,1.4.3.7.2,1.4.2.7-.3,1.4-.3.7,0,1.4,0,.7-.1,1.4-.1.7-.2,1.4-.2.7-.4,1.4-.4.7-.2,1.4-.2.7.4,1.4.4.7-.1,1.4-.1.7.4,1.4.4.7-.6,1.4-.6.7.1,1.4.1.7.6,1.4.6.7.4,1.4.4.7-.2,1.4-.2.7-.6,1.4-.6.7,0,1.4,0,.7.2,1.4.2.7,0,1.4,0,.7-.4,1.4-.4.7.5,1.4.5.7.3,1.4.3.7-.8,1.4-.8.7.9,1.4.9.7-.8,1.4-.8.7,0,1.4,0,.7.8,1.4.8.7-.6,1.4-.6.7,0,1.4,0,.7-.7,1.4-.7.7.2,1.4.2.7.7,1.4.7.7.2,1.4.2.7-.5,1.4-.5.7-.6,1.4-.6.7.5,1.4.5.7.6,1.4.6.7-.2,1.4-.2.7-.5,1.4-.5.7-.1,1.4-.1.7.6,1.4.6.7-.7,1.4-.7.7.2,1.4.2.7,1,1.4,1,.7-.8,1.4-.8.7.7,1.4.7.7-.3,1.4-.3.7-.2,1.4-.2.7-.8,1.4-.8.7.2,1.4.2.7,0,1.4,0,.7.7,1.4.7.7-.3,1.4-.3.7-.3,1.4-.3.7.2,1.4.2.7-.5,1.4-.5.7.5,1.4.5.7-.3,1.4-.3.7.8,1.4.8.7,0,1.4,0,.7.2,1.4.2.7-.6,1.4-.6.7-.4,1.4-.4.7-.1,1.4-.1.7.8,1.4.8.7-.1,1.4-.1.7-.5,1.4-.5.7.9,1.4.9.7-.7,1.4-.7.7.1,1.4.1.7.4,1.4.4.7-.6,1.4-.6.7-.2,1.4-.2.7,0,1.4,0,.7.9,1.4.9.7-1.1,1.4-1.1.7,1,1.4,1,.7-.7,1.4-.7.7.8,1.4.8.7-1,1.4-1,.7.7,1.4.7.7.1,1.4.1.7.3,1.4.3.7-.6,1.4-.6.7.4,1.4.4.7-.8,1.4-.8.7.9,1.4.9.7-.2,1.4-.2.7-.6,1.4-.6.7-.2,1.4-.2.7,0,1.4,0,.7-.1,1.4-.1.7,1,1.4,1,.7-.2,1.4-.2.7,0,1.3-.1c12.8-30.1,20-63.2,20-98s-.1-8-.3-12Z"/>
  <path class="cls-1" d="M201.8,493.7c0-.7.6-.7.6-1.4s.2-.7.2-1.4-1.1-.7-1.1-1.4.4-.7.4-1.4-.6-.7-.6-1.4.9-.7.9-1.4-.9-.7-.9-1.4.7-.7.7-1.4-.7-.7-.7-1.4,1.3-.7,1.3-1.4-.3-.7-.3-1.4,0-.7,0-1.4,0-.7,0-1.4-.2-.7-.2-1.4.2-.7.2-1.4,0-.7,0-1.4-.5-.7-.5-1.4.7-.7.7-1.4-.3-.7-.3-1.4-.2-.7-.2-1.4-.1-.7-.1-1.4.3-.7.3-1.4.4-.7.4-1.4-.3-.7-.3-1.4-.8-.7-.8-1.4.4-.7.4-1.4.6-.7.6-1.4-.5-.7-.5-1.4-.5-.7-.5-1.4.6-.7.6-1.4,0-.7,0-1.4-.4-.7-.4-1.4.7-.7.7-1.4-.5-.7-.5-1.4-.6-.7-.6-1.4.3-.7.3-1.4.8-.7.8-1.4-.8-.7-.8-1.4.2-.7.2-1.4.8-.7.8-1.4-.3-.7-.3-1.4-.6-.7-.6-1.4,0-.7,0-1.4-.2-.7-.2-1.4.7-.7.7-1.4-.8-.7-.8-1.4,1.2-.7,1.2-1.4-.5-.7-.5-1.4-.3-.7-.3-1.4-.2-.7-.2-1.4,0-.7,0-1.4.6-.7.6-1.4-.6-.7-.6-1.4.6-.7.6-1.4-.3-.7-.3-1.4-.3-.7-.3-1.4-.1-.7-.1-1.4.9-.7.9-1.5.4-.7.4-1.4-.9-.7-.9-1.5,0-.7,0-1.5.2-.7.2-1.4-.3-.7-.3-1.5,0-.7,0-1.5,0-.7,0-1.5.2-.9.1-1.4c0-.5.3-1,.2-1.5,0-.5-.4-.9-.5-1.4-.1-.5-.2-1-.4-1.4-.2-.5,0-1.1-.3-1.5-.2-.4-1.1-.5-1.3-.9-.3-.4-.3-1-.6-1.4-.3-.4-.3-1.1-.7-1.4-.3-.3-1.2-.1-1.6-.4-.4-.3-.5-.9-.9-1.2-.4-.3-.8-.6-1.3-.8-.4-.2-1.2.3-1.6,0-.5-.2-.6-1-1.1-1.2-.5-.1-1,0-1.5-.2-.5,0-1,0-1.5,0-.5,0-1-.6-1.4-.6s-1,0-1.5.1c-.5,0-1,.2-1.5.3-.5,0-.9.6-1.3.8-.5.1-1,0-1.5.3-.5.2-1,.3-1.4.5-.4.2-.5,1-.9,1.3-.6.4-.8.1-1.4.5-.6.4-.3.8-.9,1.2-.6.4-.6.4-1.2.8-.6.4-.9,0-1.5.3-.6.4-.3.9-.8,1.3-.6.4-1-.2-1.6.2-.6.4-.4.7-1,1.1s-1.1-.4-1.7,0c-.6.4-.3.9-.9,1.3-.6.4-.9,0-1.4.4-.6.4-.3.8-.9,1.2-.6.4-.4.7-1,1.1-.6.4-.9,0-1.5.4-.6.4-.8,0-1.4.5-.6.4-.3.9-.8,1.3-.6.4-.7.2-1.3.6s-.2,1-.8,1.4c-.6.4-1-.2-1.6.2-.6.4-.7.2-1.3.6-.6.4-.5.5-1.1.9-.6.4-.3.8-.9,1.2-.6.4-.8.2-1.3.6-.6.4-.4.7-1,1.1-.6.4-.9-.1-1.5.3-.6.4-.7.2-1.3.6-.6.4-.4.6-1,1-.6.4-.8.1-1.4.5-.6.4-.5.6-1,1-.6.4-.2.9-.8,1.3s-.7.3-1.3.7c-.6.4-.4.7-1,1.1-.6.4-1.2-.5-1.8,0-.6.4-.1,1.1-.7,1.5-.6.4-1.1-.4-1.7,0s-.1,1.1-.7,1.5c-.6.4-.9,0-1.5.4-.6.4-.3.9-.9,1.3-.6.4-1.1-.4-1.7,0-.6.4-.5.5-1.1.9s-.6.4-1.2.8,0,1.4-.5,1.8c-.6.4-1.1-.3-1.7.1-.6.4-.5.5-1.1.9-.6.4-.6.3-1.2.7-.6.4-.5.5-1.1.9-.6.4-.7.3-1.3.7s-.7.2-1.3.6c-.6.4-.5.6-1.1,1-.6.4-.7.3-1.3.7-.6.4-.1,1.1-.7,1.5-.6.4-.9,0-1.5.4-.6.4-.9,0-1.5.3-.6.4-.5.5-1.1.9-.6.4-.1,1.1-.7,1.5-.6.4-.7.3-1.3.7-.6.4-.6.4-1.2.8-.6.4-.8,0-1.4.5-.6.4-.4.7-1,1.1-.6.4-.7.2-1.3.6-.6.4-.9,0-1.5.3s0,1.2-.7,1.6c-.6.4-.6.5-1.2.9-.6.4-.6.4-1.2.8-.6.4-1-.2-1.6.2-.6.4-.6.4-1.2.8-.6.4-.7.3-1.3.7-.6.4-.6.4-1.2.8-.6.4-.7.3-1.3.7s-.3.8-.9,1.2-.4.7-1,1.1c-.6.4-.5.5-1.1,1-.3.2-.5.3-.7.5,31.1,24.9,68.2,42.6,108.8,50.4,0,0,0-.2,0-.3,0-.7-.7-.7-.7-1.4Z"/>
  <path class="cls-1" d="M474.7,357.7c-.7,0-.7.5-1.4.5s-.7-.8-1.4-.8-.7.5-1.4.5-.7-.5-1.4-.5-.7,0-1.4,0-.7.9-1.4.9-.7-.1-1.4-.1-.7-.4-1.4-.4-.7.6-1.4.6-.7-1.1-1.4-1.1-.7.9-1.4.9-.7-.1-1.4-.1-.7-.2-1.4-.2-.7-.2-1.4-.2-.7.8-1.4.8-.7,0-1.4,0-.7,0-1.4,0-.7-.4-1.4-.4-.7.4-1.4.4-.7-.8-1.4-.8-.7,0-1.4,0-.7.7-1.4.7-.7-.3-1.4-.3-.7,0-1.4,0-.7-.6-1.4-.6-.7.5-1.4.5-.7-.3-1.4-.3-.7.4-1.4.4-.7-.3-1.4-.3-.7-.2-1.4-.2-.7.5-1.4.5-.7.2-1.4.2-.7-.3-1.4-.3-.7-.2-1.4-.2-.7,0-1.4,0-.7,0-1.4,0-.7.2-1.4.2-.7-.9-1.4-.9-.7.3-1.4.3-.7,0-1.4,0-.7-.2-1.4-.2-.7.8-1.4.8-.7.2-1.4.2-.7-.3-1.4-.3-.7-.6-1.4-.6-.7.5-1.4.5-.7-.7-1.4-.7-.7.7-1.4.7-.7-.4-1.4-.4-.7.8-1.4.8-.7-.4-1.4-.4-.7.4-1.4.4-.7-.4-1.4-.4-.7-.4-1.4-.4-.7.8-1.4.8-.7-.5-1.4-.5-.7,0-1.4,0-.7-.3-1.4-.3-.7.6-1.4.6-.7.2-1.4.2-.7-1.2-1.4-1.2-.7,0-1.4,0-.7.8-1.4.8-.7-.8-1.4-.8-.7,0-1.4,0-.7.7-1.4.7-.7.3-1.4.3-.7-.9-1.4-.9-.7.7-1.4.7-.7.2-1.4.2-.7-1-1.4-1-.7.7-1.4.7-.7,0-1.4,0-.7.4-1.4.4-.7,0-1.4,0-.7-1-1.4-1-.7.4-1.4.4-.7-.4-1.4-.4-.7.4-1.4.4-.7.6-1.4.6-.7-.2-1.4-.2-.7.2-1.4.2-.7-.1-1.4-.1-.7,0-1.4,0-.7-1-1.4-1-.7,1.1-1.4,1.1-.7-.6-1.4-.6-.7.2-1.4.2-.7-.5-1.4-.5-.7.4-1.4.4-.7-.1-1.4-.1-.7-.2-1.4-.2-.7.5-1.4.5-.7,0-1.4,0-.7,0-1.4,0-.7-.2-1.4-.2-.7.3-1.4.3-.7-.4-1.4-.4-.7,0-1.4,0-.7.4-1.4.4-.7-.8-1.4-.8-.7-.1-1.4-.1-.7.7-1.4.7-.7-.4-1.4-.4-.7,0-1.4,0-.7.4-1.4.4-.7.2-1.4.2-.7,0-1.4,0-.7-1-1.4-1-.7,0-1.4,0-.7.5-1.4.5-.7.4-1.4.4-.7.1-1.4.1-.7-.9-1.4-.9-.7,1.1-1.4,1.1-.7-.2-1.4-.2-.7.3-1.4.3-.7-.4-1.4-.4-.7-.2-1.4-.2-.7-.5-1.4-.5-.7-.2-1.4-.2-.7.9-1.4.9-.7-.3-1.4-.3-.7.6-1.4.6-.7-1.1-1.4-1.1-.7,1.1-1.4,1.1-.7-.7-1.4-.7-.7.7-1.4.7-.7-.9-1.4-.9-.7,1-1.4,1-.7-1.2-1.4-1.2-.7.9-1.4.9-.7,0-1.4,0-.7-.4-1.4-.4-.7.7-1.4.7-.7-.7-1.4-.7-.7.4-1.4.4-.7.2-1.4.2-.7-.7-1.4-.7-.7.3-1.4.3-.7.2-1.4.2-.7-.5-1.4-.5-.7.6-1.4.6-.7,0-1.4,0-.7-.4-1.4-.4-.7.2-1.4.2-.7-.9-1.4-.9-.7.4-1.4.4-.7.4-1.4.4-.7-.1-1.4-.1-.7.2-1.4.2-.7,0-1.4,0-.7-.7-1.4-.7-.7,0-1.4,0-.7-.1-1.4-.1-.7.2-1.4.2-.7.8-1.4.8-.7-.6-1.4-.6-.7-.1-1.4-.1-.7.6-1.4.6-.7,0-1.4,0-.7-.1-1.4-.1-.7.3-1.4.3-.7-.8-1.4-.8-.7.3-1.4.3-.7.1-1.4.1-.7-.4-1.4-.4-.7.1-1.4.1-.7-.2-1.4-.2-.7.6-1.4.6-.7-.6-1.5-.6-.7.4-1.5.4-1-.3-1.5-.2c-.5,0-.9.7-1.4.8-.5,0-1.1-.4-1.6-.3-.5.1-.9.5-1.3.7-.5.2-1,.3-1.4.6-.4.2-.5,1.1-.9,1.3-.4.3-.8.5-1.2.8-.4.3-1,.3-1.3.7-.3.3-.7.7-1,1.1-.3.4-.9.5-1.2,1-.3.4,0,1.2-.1,1.6-.2.4-.6.8-.8,1.2-.2.5-.6.8-.8,1.3-.1.5-.4.9-.5,1.4,0,.5-.4,1-.4,1.5,0,.5.7,1,.7,1.5,0,.7.1.7.1,1.4s-.5.7-.5,1.4,0,.7,0,1.4.5.7.5,1.4.1.7.1,1.4-.9.7-.9,1.4.2.7.2,1.4.7.7.7,1.4-1.1.7-1.1,1.4,0,.7,0,1.4,0,.7,0,1.4.4.7.4,1.4.5.7.5,1.4-.7.7-.7,1.4,0,.7,0,1.4.2.7.2,1.4-.2.7-.2,1.4,1,.7,1,1.4,0,.7,0,1.4-.8.7-.8,1.4,0,.7,0,1.4.5.7.5,1.4.3.7.3,1.4-.9.7-.9,1.4.8.7.8,1.4-.5.7-.5,1.4.4.7.4,1.4,0,.7,0,1.4-.9.7-.9,1.4,0,.7,0,1.4.2.7.2,1.4-.1.7-.1,1.4.7.7.7,1.4,0,.7,0,1.4-.6.7-.6,1.4.3.7.3,1.4,0,.7,0,1.4-.4.7-.4,1.4.2.7.2,1.4-.2.7-.2,1.4.7.7.7,1.4-.7.7-.7,1.4.8.7.8,1.4-1.1.7-1.1,1.4,1.1.7,1.1,1.4-.3.7-.3,1.4-.9.7-.9,1.4,0,.7,0,1.4,1,.7,1,1.4.1.7.1,1.4-.6.7-.6,1.4-.1.7-.1,1.4-.3.7-.3,1.4.1.7.1,1.4.7.7.7,1.4,0,.7,0,1.4-.7.7-.7,1.4.8.7.8,1.4-.9.7-.9,1.4.8.7.8,1.4.1.7.1,1.4-.4.7-.4,1.4.3.7.3,1.4-.7.7-.7,1.4.1.7.1,1.4,0,.7,0,1.4-.3.7-.3,1.4.4.7.4,1.4.5.7.5,1.4-1.1.7-1.1,1.4.8.7.8,1.4-.9.7-.9,1.4,0,.7,0,1.4.4.7.4,1.4-.6.7-.6,1.4.1.7.1,1.4,1.1.7,1.1,1.4-.9.7-.9,1.4.8.7.8,1.4-.7.7-.7,1.4,0,.7,0,1.4.6.7.6,1.4-.6.7-.6,1.4.2.7.2,1.4.2.7.2,1.4-.7.7-.7,1.4,0,.4,0,.5c12.5,1.9,25.3,2.9,38.3,2.9,99.4,0,185.3-58,225.6-142.1-.3,0-.4-.2-.9-.2Z"/>
  <path class="cls-1" d="M98.2,267.8c.6-.4,1,.2,1.6-.2.6-.4.3-.8,1-1.2.6-.4.7-.2,1.3-.6.6-.4.9,0,1.5-.3s.2-1.1.8-1.4c.6-.4.5-.5,1.1-.9.6-.4.7-.3,1.3-.7.6-.4.7-.2,1.3-.6.6-.4,1,.3,1.6-.1.6-.4,0-1.2.7-1.6.6-.4.7-.2,1.3-.6.6-.4.6-.4,1.2-.8.6-.4.6-.4,1.2-.8s.9,0,1.5-.3c.6-.4.8-.1,1.4-.5.6-.4.3-.8,1-1.2.6-.4.9,0,1.5-.4.6-.4.5-.6,1.1-1,.6-.4.8,0,1.4-.4.6-.4.2-1,.8-1.4.6-.4.6-.3,1.2-.7.6-.4.5-.6,1.1-1,.6-.4,1,.2,1.6-.2.6-.4.5-.6,1.1-1,.6-.4.7-.2,1.3-.6.6-.4.7-.2,1.3-.6.6-.4,0-1.2.7-1.6.6-.4,1.1.5,1.8,0,.6-.4.1-1.1.7-1.5s.8-.1,1.4-.5c.6-.4.7-.2,1.4-.6s.1-1.2.7-1.5c.6-.4,1,.3,1.6-.1.6-.4.8,0,1.4-.5.6-.4.4-.8,1-1.1.6-.4.7-.2,1.4-.6.6-.4.7-.3,1.3-.7.6-.4.2-1.1.8-1.5s1.1.4,1.7,0c.6-.4.1-1.2.7-1.5.6-.4,1.1.3,1.7,0,.6-.4.2-1,.8-1.4.6-.4.8,0,1.4-.4.6-.4.5-.5,1.2-.9.6-.4.5-.6,1.1-1,.6-.4.6-.3,1.3-.7.6-.4.9,0,1.5-.3.6-.4.6-.3,1.2-.7.6-.4.7-.3,1.3-.7s.5-.6,1.1-1c.6-.4.6-.4,1.2-.8.6-.4.2-.9.9-1.3.6-.4,1,.2,1.6-.2s.8-.2,1.4-.5c.6-.4.4-.6,1-1s.8-.2,1.4-.5c.6-.4.2-1,.8-1.4.6-.4.7-.3,1.3-.7.6-.4.5-.5,1.1-.9.6-.4.4-.7,1-1.1.6-.4,1,.2,1.6-.2.6-.4.9,0,1.5-.3s.3-.9.9-1.3c.6-.4.6-.4,1.2-.8.6-.4.4-.8,1-1.2s1.1.4,1.7,0c.6-.4.2-1.1.8-1.5.6-.4,1.1.4,1.7,0,.6-.4.4-.7,1-1.1.6-.4.3-.9.9-1.3q.6-.4,1.2-.8c.6-.4,1.1.4,1.7,0s.6-.4,1.2-.7c.6-.4.2-1,.8-1.4.6-.4.6-.4,1.2-.8.6-.4.9,0,1.5-.4.6-.4.6-.4,1.2-.8.6-.4.3-.9.9-1.3.6-.4.6-.5,1.2-.8.6-.4.5-.5,1.1-.9.6-.4,1.1.4,1.7,0,.6-.4.3-.8.9-1.2.6-.4.6-.5,1.2-.8.6-.4.5-.6,1.1-1,.6-.4.9,0,1.5-.4.6-.4.7-.3,1.3-.7.6-.4.6-.5,1.2-.9.6-.4.4-.6,1.1-1,.6-.4.6-.5,1.2-.8.6-.4.6-.5,1.2-.9.6-.4,1.1.4,1.7,0,.6-.4.5-.5,1.1-.9.6-.4.4-.7,1-1.1.6-.4.3-.9.9-1.3.6-.4.8,0,1.4-.4.6-.4.9.1,1.5-.3.6-.4.6-.4,1.2-.8.6-.4.4-.8,1-1.2.6-.4.7-.3,1.3-.7.6-.4.7-.3,1.3-.7.6-.4.5-.5,1.1-.9.6-.4.7-.3,1.3-.7.6-.4.3-.9.9-1.3.6-.4,1,.3,1.6-.1.6-.4.5-.5,1.1-.9.6-.4.7-.3,1.3-.6.6-.4.6-.5,1.2-.9.6-.4.5-.5,1.1-.9.6-.4.4-.8,1-1.2.6-.4.7-.3,1.3-.7.6-.4.7-.3,1.3-.7.6-.4.7-.2,1.3-.6.6-.4.2-.9.9-1.3.6-.4.8-.2,1.4-.5.6-.4.7-.2,1.3-.6.6-.4.8,0,1.4-.4.6-.4.5-.5,1.1-.9.6-.4.2-1,.8-1.4.6-.4,1.2.5,1.8,0,.6-.4.2-1,.8-1.4.6-.4,1,.2,1.6-.2.6-.4.5-.5,1.1-.9.6-.4.3-.9.9-1.3s1,.3,1.6-.1c.6-.4.3-.9.9-1.3.6-.4.7-.3,1.3-.7.6-.4.5-.5,1.1-.9.6-.4,1,.1,1.6-.2.6-.4.2-1.1.8-1.5.6-.4.9,0,1.5-.4.6-.4.5-.6,1.1-1,.6-.4.5-.5,1.2-.9.4-.3,1.2,0,1.6-.3.4-.3.2-1.3.5-1.7.4-.3.8-.5,1.2-.9.3-.4,1.2-.3,1.5-.7.3-.4.2-1.1.5-1.5.2-.4.5-.9.7-1.3.2-.5.6-.9.7-1.3.1-.5-.5-1.1-.4-1.6.1-.5,1.2-.8,1.2-1.3,0-.5-.2-1-.2-1.5,0-.5.2-1,.2-1.5,0-.5-.7-.9-.8-1.4,0-.5.2-1.1,0-1.6-.1-.5-1.1-.7-1.3-1.1-.2-.5.3-1.2,0-1.7-.2-.4-1.1-.5-1.3-.9-.3-.4,0-1.1-.4-1.5-.3-.4-.9-.5-1.2-.9-.3-.4-.5-.9-.9-1.2-.4-.3-1.1-.2-1.5-.5-.4-.3-.7-.6-1.2-.9-.4-.2-1-.1-1.4-.3-.5-.2-.7-.9-1.2-1-.5-.1-1,0-1.5,0-.5,0-.9-1-1.4-1-.5,0-1,.6-1.5.6-.7,0-.7.4-1.4.4s-.7-.6-1.4-.6-.7-.4-1.4-.4-.7.1-1.4.1-.7.6-1.4.6-.7-.5-1.4-.5-.7.5-1.4.5-.7,0-1.4,0-.7,0-1.4,0-.7,0-1.4,0-.7.2-1.4.2-.7-.3-1.4-.3-.7.3-1.4.3-.7-.7-1.4-.7-.7.3-1.4.3-.7,0-1.4,0-.7.3-1.4.3-.7-.3-1.4-.3-.7.4-1.4.4-.7-.2-1.4-.2-.7-.5-1.4-.5-.7.9-1.4.9-.7-.8-1.4-.8-.7.9-1.4.9-.7-.4-1.4-.4-.7.5-1.4.5-.7-1-1.4-1-.7,0-1.4,0-.7.5-1.4.5-.7.2-1.4.2-.7.2-1.4.2-.7-.6-1.4-.6-.7-.3-1.4-.3-.7.5-1.4.5-.7.2-1.4.2-.7-1-1.4-1-.7.6-1.4.6-.7-.6-1.4-.6-.7.9-1.4.9-.7.1-1.4.1-.7-1.1-1.4-1.1-.7,0-1.4,0-.7,1.2-1.4,1.2-.7-.5-1.4-.5-.7,0-1.4,0-.7.2-1.4.2-.7,0-1.4,0-.7-.2-1.4-.2-.7-.6-1.4-.6-.7,1.1-1.4,1.1-.7-1.1-1.4-1.1-.7.5-1.4.5-.7.2-1.4.2-.7-.7-1.4-.7-.7-.1-1.4-.1-.7,0-1.4,0-.7,1.1-1.4,1.1-.7-.1-1.4-.1-.7-.9-1.4-.9-.7.6-1.4.6-.7-.3-1.4-.3-.7,0-1.4,0-.7-.2-1.4-.2-.7.4-1.4.4-.7-.2-1.4-.2-.7.8-1.4.8-.7-1.1-1.4-1.1-.7,1.1-1.4,1.1-.7,0-1.4,0-.7-.9-1.4-.9-.7.3-1.4.3-.7,0-1.4,0-.7-.2-1.4-.2-.7,0-1.4,0-.7,0-1.4,0-.7,0-1.4,0-.7-.3-1.4-.3-.7,0-1.4,0-.7.2-1.4.2-.7.1-1.4.1-.7,0-1.4,0-.7.4-1.4.4-.7-.6-1.4-.6-.7-.2-1.4-.2-.7.8-1.4.8-.7-.6-1.4-.6-.7.4-1.4.4-.7-.2-1.4-.2-.7,0-1.4,0-.7.5-1.4.5-.7-.3-1.4-.3-.7-.2-1.4-.2-.7.1-1.4.1-.7.2-1.4.2-.7-.7-1.4-.7-.7,1.2-1.4,1.2-.7-.6-1.4-.6-.7-.3-1.4-.3-.7.7-1.4.7-.7,0-1.4,0-.7-.7-1.4-.7-.7-.2-1.4-.2-.7.8-1.4.8-.7,0-1.4,0-.7-.3-1.4-.3-.7-.3-1.4-.3-.7.4-1.4.4-.7,0-1.4,0-.7.1-1.4.1-.7-.8-1.4-.8-.7,1.1-1.4,1.1-.7-.9-1.4-.9-.7-.2-1.4-.2-.7,1.1-1.4,1.1-.7-.1-1.4-.1-.7,0-1.4,0-.7-.4-1.4-.4-.7-.2-1.4-.2-.7-.3-1.4-.3-.7,0-1.4,0-.7.9-1.4.9-.7,0-1.4,0-.7.3-1.4.3-.7,0-1.4,0-.7,0-1.4,0-.7-1.1-1.4-1.1-.7.8-1.4.8-.7-.6-1.4-.6-.7.2-1.4.2-.7-.2-1.4-.2-.7.2-1.4.2-.7.6-1.4.6-.7-.8-1.4-.8-.7.4-1.4.4-.7.5-1.4.5-.7-.8-1.4-.8-.7.7-1.4.7-.7-.8-1.4-.8-.7,0-1.4,0-.7.2-1.4.2-.7.5-1.4.5-.7,0-1.4,0-.7-.7-1.4-.7-.7.5-1.4.5-.7,0-1.4,0-.7-.1-1.4-.1-.7.6-1.4.6-.7.2-1.4.2-.7-.6-1.4-.6-.7-.2-1.4-.2-.7.2-1.4.2-.7-.3-1.4-.3-.7.5-1.4.5-.7-.3-1.4-.3-.7.1-1.4.1-.7-.2-1.2-.3C9.6,171.5,0,209.6,0,250s4,51.1,11.4,74.8c.1,0,.3,0,.4,0,.6-.4.4-.7,1-1.1.6-.4.5-.5,1.1-.9.6-.4.3-.9.9-1.2.6-.4.7-.3,1.3-.7.6-.4,1.1.4,1.7,0,.6-.4.1-1.1.7-1.5s.6-.5,1.2-.9c.6-.4,1,.3,1.6,0,.6-.4.4-.7,1-1.1s.6-.3,1.2-.7.6-.3,1.2-.7.7-.2,1.3-.6c.6-.4,0-1.2.7-1.6.6-.4,1,.3,1.7,0,.6-.4.8-.1,1.4-.5s.3-.9.9-1.3c.6-.4.5-.5,1.1-.9.6-.4.7-.2,1.3-.6.6-.4.8,0,1.5-.4.6-.4,0-1.2.7-1.6.6-.4.6-.4,1.2-.8s1,.2,1.6-.2c.6-.4.4-.7,1-1.1s.7-.2,1.3-.6c.6-.4.9,0,1.5-.3.6-.4.1-1.1.7-1.5.6-.4.7-.2,1.3-.6.6-.4.7-.2,1.3-.6.6-.4.3-.9.9-1.3.6-.4,1.1.3,1.7,0,.6-.4.1-1.2.7-1.5s.6-.4,1.2-.8,1.2.5,1.8.1.4-.7,1-1.1.7-.2,1.3-.6c.6-.4.7-.2,1.3-.6s0-1.3.6-1.7c.6-.4.8-.1,1.4-.5.6-.4.9,0,1.5-.3.6-.4.5-.6,1.1-.9.6-.4.6-.5,1.2-.9.6-.4.4-.7,1-1.1.6-.4.7-.2,1.3-.6.6-.4.6-.4,1.2-.8s.5-.5,1.2-.9c.6-.4.7-.3,1.3-.7.6-.4.9,0,1.5-.4.6-.4.5-.6,1.1-1,.6-.4.4-.7,1-1.1.6-.4,1.1.4,1.7,0,.6-.4.4-.7,1-1.1s.5-.6,1.1-1c.6-.4.3-.8.9-1.2.6-.4.6-.5,1.2-.9.6-.4.8,0,1.5-.4.6-.4.8-.1,1.4-.5.6-.4.4-.6,1-1,.6-.4.8-.1,1.4-.5.6-.4.8-.1,1.4-.5.6-.4.3-.9.9-1.3.6-.4.4-.7,1-1.1.6-.4,1,.2,1.6-.2s.3-.9.9-1.3c.6-.4.8,0,1.4-.4s.3-.9.9-1.3c.6-.4,1.1.4,1.7,0,.6-.4.5-.6,1.1-.9.6-.4.4-.8,1-1.2.6-.4,1,.3,1.6-.1.6-.4.6-.4,1.2-.8s.7-.2,1.3-.6,0-1.4.6-1.8Z"/>
  <path class="cls-1" d="M86,437.9c.6-.4.4-.7,1-1.1s.9,0,1.5-.4c.6-.4.7-.3,1.3-.7s.2-1,.8-1.4c.6-.4.5-.6,1-1,.6-.4,1.1.3,1.7,0,.6-.4.6-.4,1.2-.8.6-.4.2-1,.8-1.4s.6-.4,1.2-.8c.6-.4.8-.1,1.4-.5s.4-.7,1-1.1c.6-.4,1,.3,1.6-.2.6-.4.3-.8.9-1.2.6-.4.4-.7,1-1.2.6-.4.6-.4,1.2-.8.6-.4.6-.4,1.2-.8.6-.4.8-.2,1.4-.6.6-.4,1.1.3,1.7-.1s.3-.8.9-1.2c.6-.4.6-.4,1.2-.8.6-.4.2-.9.8-1.3.6-.4,1,.2,1.6-.2.6-.4.2-.9.8-1.3.6-.4,1.1.4,1.7,0,.6-.4.4-.7,1-1.1.6-.4.2-1,.8-1.4.6-.4,1,.2,1.6-.2.6-.4.4-.7,1-1.1.6-.4.8-.2,1.3-.6.6-.4.2-1,.8-1.4s.9.1,1.5-.3c.6-.4.6-.4,1.2-.8.6-.4.9,0,1.5-.4.6-.4.3-.8.9-1.2.6-.4.8,0,1.4-.5.6-.4,0-1.2.7-1.6.6-.4,1.1.4,1.7,0,.6-.4.3-.8.9-1.2.6-.4.6-.4,1.2-.8.6-.4.6-.4,1.2-.8.6-.4,1,.2,1.6-.2.6-.4.1-1.1.7-1.5.6-.4.4-.7,1-1.1.6-.4.8,0,1.4-.5.6-.4.4-.7,1-1.1.6-.4.5-.5,1.1-.9.6-.4,1,.2,1.6-.2.6-.4.8-.1,1.4-.5.6-.4.5-.5,1.1-.9.6-.4.1-1.1.7-1.5.6-.4,1.1.4,1.7,0,.6-.4,0-1.2.7-1.6.6-.4.8-.1,1.4-.5.6-.4.8-.1,1.4-.5.6-.4.8,0,1.4-.5.6-.4,0-1.4.5-1.8.6-.4.9,0,1.5-.3.6-.4.9,0,1.5-.4.6-.4.3-.8.9-1.2.6-.4.6-.3,1.2-.7.6-.4.9,0,1.5-.4.6-.4.3-.8.9-1.2.6-.4.2-1,.8-1.4.6-.4,1.1.3,1.7-.1.6-.4.1-1.1.7-1.5.4-.3.9-.4,1.3-.7.4-.3,1.1-.3,1.4-.6.3-.3.5-.9.8-1.2.3-.4.5-.9.7-1.3.3-.4.2-1,.4-1.4.2-.4.5-.8.7-1.2s.6-.8.7-1.3c.1-.5-.1-1,0-1.5,0-.5.8-.8.9-1.3,0-.5-.5-1-.5-1.5,0-.5.8-1,.8-1.5,0-.5-.5-.9-.6-1.4,0-.5,0-1-.2-1.5-.1-.5,0-1.1-.3-1.5-.2-.5-.8-.7-1-1.2-.2-.4-.8-.6-1.1-1-.3-.4-.3-1-.6-1.3-.3-.4-.9-.5-1.3-.8-.3-.3-.6-.8-1-1.1-.4-.3-.9-.4-1.3-.7-.4-.3-.3-1.4-.8-1.6-.4-.2-1.3.5-1.8.3-.5-.2-.6-1.1-1.1-1.3-.5-.1-.9-.5-1.4-.5-.5,0-1.1.3-1.6.3-.5,0-1,.5-1.5.5-.7,0-.7-.4-1.4-.4s-.7.2-1.4.2-.7.2-1.4.2-.7-.9-1.4-.9-.7.3-1.4.3-.7.3-1.4.3-.7.2-1.4.2-.7,0-1.4,0-.7,0-1.4,0-.7-.5-1.4-.5-.7.2-1.4.2-.7-.5-1.4-.5-.7,0-1.4,0-.7.3-1.4.3-.7,0-1.4,0-.7-.3-1.4-.3-.7-.3-1.4-.3-.7,1-1.4,1-.7,0-1.4,0-.7.3-1.4.3-.7-.5-1.4-.5-.7.2-1.4.2-.7,0-1.4,0-.7-.8-1.4-.8-.7.2-1.4.2-.7.8-1.4.8-.7-1-1.4-1-.7.2-1.4.2-.7,0-1.4,0-.7-.2-1.4-.2-.7.1-1.4.1-.7,0-1.4,0-.7-.2-1.4-.2-.7,1-1.4,1-.7-1-1.4-1-.7.2-1.4.2-.7.2-1.4.2-.7-.1-1.4-.1-.7.1-1.4.1-.7.1-1.4.1-.7-.5-1.4-.5-.7.5-1.4.5-.7-.4-1.4-.4-.7-.4-1.4-.4-.7.9-1.4.9-.7-.2-1.4-.2-.7-.3-1.4-.3-.7.3-1.4.3-.7,0-1.4,0-.7-.2-1.4-.2-.7,0-1.4,0-.7-.5-1.4-.5-.7.9-1.4.9-.7,0-1.4,0-.7-.8-1.4-.8-.7,0-1.4,0-.7,0-1.4,0-.7-.4-1.4-.4-.7.7-1.4.7-.7,0-1.4,0-.7.1-1.4.1-.7,0-1.4,0-.7.2-1.4.2-.7-.5-1.4-.5-.7-.2-1.4-.2-.7.8-1.4.8-.7-.5-1.4-.5-.7.6-1.4.6-.7,0-1.4,0-.7-1-1.4-1-.7.8-1.4.8-.7,0-1.4,0-.7.1-1.4.1-.7-1-1.4-1-.7,1.1-1.4,1.1-.7-.2-1.4-.2-.7-.2-1.4-.2-.7-.4-1.4-.4-.7.1-1.4.1-.7-.5-1.4-.5-.7,0-1.4,0-.7.9-1.4.9-.7.3-1.4.3-.7-.4-1.4-.4-.7.3-1.4.3-.7-.5-1.4-.5-.7,0-1.4,0-.7-.3-1.4-.3-.7.9-1.4.9-.7,0-1.4,0-.7-.9-1.4-.9,0,0,0,0c14.8,30.9,35.7,58.3,61.2,80.7,0-.1.2-.3.5-.4Z"/>
  <path class="cls-1" d="M211.6,4.2c0,.7.5.7.5,1.4s0,.7,0,1.4-.5.7-.5,1.4,1,.7,1,1.4-.7.7-.7,1.4.2.7.2,1.4-.4.7-.4,1.4.4.7.4,1.4-.6.7-.6,1.4.8.7.8,1.4.2.7.2,1.4,0,.7,0,1.4-1.1.7-1.1,1.4.6.7.6,1.4-.4.7-.4,1.4.9.7.9,1.4,0,.7,0,1.4-.7.7-.7,1.4-.3.7-.3,1.4.5.7.5,1.4-.5.7-.5,1.4,0,.7,0,1.4.9.7.9,1.4-.7.7-.7,1.4,0,.7,0,1.4.4.7.4,1.5-.2.7-.2,1.5.6.7.6,1.5-.3,1-.3,1.5c0,.5-.4,1.1-.3,1.6,0,.5.4.9.6,1.4.1.5.3,1,.5,1.4.2.5.2,1.1.4,1.5.2.4.9.6,1.2,1,.3.4,1.1.4,1.4.8.3.4,0,1.4.3,1.7.3.3.7.7,1.1,1.1.4.3,1.3,0,1.7.2.4.3.8.5,1.2.8.4.2.5,1.2,1,1.4.5.2.9.5,1.4.7.5.1,1.1-.2,1.6-.2.5,0,.9.7,1.4.8.5,0,1-.7,1.5-.7.7,0,.7.7,1.4.7s.7-.2,1.4-.2.7-.4,1.4-.4.7,0,1.4,0,.7.4,1.4.4.7-.1,1.4-.1.7,0,1.4,0,.7-.2,1.4-.2.7-.6,1.4-.6.7.8,1.4.8.7,0,1.4,0,.7.2,1.4.2.7-1,1.4-1,.7.6,1.4.6.7-.5,1.4-.5.7.1,1.4.1.7.8,1.4.8.7-.3,1.4-.3.7-.7,1.4-.7.7.9,1.4.9.7-.9,1.4-.9.7,0,1.4,0,.7-.3,1.4-.3.7.2,1.4.2.7-.1,1.4-.1.7,1,1.4,1,.7-1.2,1.4-1.2.7.2,1.4.2.7,0,1.4,0,.7,0,1.4,0,.7.1,1.4.1.7.5,1.4.5.7-.3,1.4-.3.7.3,1.4.3.7-.5,1.4-.5.7.5,1.4.5.7-.5,1.4-.5.7.3,1.4.3.7,0,1.4,0,.7-.4,1.4-.4.7.9,1.4.9.7-.6,1.4-.6.7.2,1.4.2.7-.5,1.4-.5.7.8,1.4.8.7-.4,1.4-.4.7-.7,1.4-.7.7,1.1,1.4,1.1.7-1.1,1.4-1.1.7.8,1.4.8.7-.7,1.5-.7.7.9,1.4.9.7-.6,1.5-.6.7-.2,1.5-.2.7-.4,1.5-.4,1,.3,1.4.3c.5,0,.9-.4,1.4-.5.5,0,1.1.3,1.5.1.5-.1,1.1.1,1.6,0,.5-.2.7-.8,1.2-1,.4-.2.7-.7,1.1-1,.4-.3.9-.4,1.3-.7.4-.3.4-.9.8-1.3s1.3-.2,1.6-.5c.3-.4.6-.8.9-1.2.3-.4.9-.7,1.1-1.1.2-.4-.6-1.3-.4-1.8.2-.5.9-.7,1-1.2.1-.5.2-1,.3-1.4,0-.5-.3-1-.2-1.5,0-.5,1.1-.9,1.1-1.4,0-.7-.4-.7-.4-1.4s.2-.7.2-1.4.2-.7.2-1.4-.2-.7-.2-1.4-.8-.7-.8-1.4.8-.7.8-1.4-.2-.7-.2-1.4-.4-.7-.4-1.4.6-.7.6-1.4-.5-.7-.5-1.4-.2-.7-.2-1.4-.3-.7-.3-1.4,1-.7,1-1.4-.5-.7-.5-1.4.5-.7.5-1.4-.5-.7-.5-1.4.7-.7.7-1.4-.9-.7-.9-1.4.3-.7.3-1.4,0-.7,0-1.4.7-.7.7-1.4-.5-.7-.5-1.4-.4-.7-.4-1.4,0-.7.1-1.2C298.7,3.6,274.8,0,250,0s-25.7,1-38.1,2.9c0,.6-.2.7-.2,1.3Z"/>
  <path class="cls-1" d="M213.2,348.4c.7,0,.7-.8,1.5-.8s1,.8,1.5.8c.5,0,.9-.6,1.4-.7.5,0,.8-.8,1.3-1,.5-.1,1.3.8,1.8.6.5-.2.8-.7,1.2-1,.4-.2.9-.5,1.3-.8.6-.4.3-.9.8-1.3.6-.4.5-.5,1.1-.9.6-.4.5-.5,1.1-.9.6-.4.6-.4,1.2-.8.6-.4,1.2.6,1.8.2.6-.4,0-1.2.6-1.6.6-.4.8,0,1.4-.5s.4-.7,1-1.1c.6-.4,1.1.3,1.7,0,.6-.4.4-.7,1-1.1.6-.4.3-.9.9-1.3.6-.4.8,0,1.4-.5.6-.4.9,0,1.4-.4.6-.4.4-.6,1-1,.6-.4.4-.8,1-1.2.6-.4.7-.2,1.3-.6s.7-.2,1.3-.6c.6-.4.4-.7,1-1.1.6-.4.8-.2,1.4-.6.6-.4.9,0,1.5-.4.6-.4.2-.9.8-1.3.6-.4.9,0,1.5-.4.6-.4.3-.9.9-1.3.6-.4,1,.2,1.6-.2s.5-.6,1.1-1,.3-.8.9-1.2c.6-.4.8,0,1.4-.5.6-.4.2-1,.8-1.4.6-.4,1,.2,1.6-.2.6-.4.4-.6,1-1,.6-.4.4-.7,1-1.1.6-.4.5-.5,1.1-.9.6-.4.6-.4,1.2-.8.6-.4.8-.2,1.4-.6.6-.4.7-.3,1.3-.7.6-.4.8,0,1.4-.4s.3-.8.9-1.2c.6-.4.3-.9.9-1.3.6-.4.9,0,1.5-.4.6-.4.7-.2,1.3-.6.6-.4.6-.5,1.1-.9.6-.4.3-.8.9-1.2s.9,0,1.5-.4c.6-.4.6-.4,1.2-.8.6-.4.7-.3,1.2-.7.6-.4.6-.3,1.2-.7.6-.4.6-.4,1.2-.9.6-.4.7-.3,1.3-.7.6-.4.2-.9.8-1.3.6-.4.6-.4,1.2-.8s.9,0,1.5-.3.3-.9.9-1.3c.6-.4.8-.1,1.4-.5.6-.4.2-.9.8-1.3.6-.4.8-.2,1.4-.6.6-.4.9,0,1.5-.3.6-.4.5-.5,1.1-.9.6-.4.6-.4,1.2-.8.6-.4.4-.7,1-1.2.6-.4.9,0,1.5-.3.6-.4.5-.6,1.1-1,.6-.4.2-1,.8-1.4.6-.4.9,0,1.5-.3.6-.4.6-.4,1.2-.8.6-.4.9,0,1.5-.4.6-.4.6-.3,1.2-.7.6-.4.4-.8,1-1.2.6-.4.7-.2,1.3-.6.6-.4.5-.5,1.1-.9.6-.4.7-.3,1.3-.7.6-.4.2-.9.8-1.3.6-.4.7-.2,1.3-.6.6-.4.7-.2,1.3-.6.6-.4.6-.3,1.2-.7.6-.4.5-.6,1.1-1,.6-.4.6-.4,1.2-.8.6-.4.6-.4,1.2-.8.4-.3.7-.7,1-1.1.4-.3.5-.9.8-1.2.3-.3,1.4,0,1.7-.4.3-.4.4-1,.7-1.4.3-.4.4-.9.6-1.3s.8-.7,1-1.2c.2-.5-.2-1.1,0-1.6.1-.5.7-.8.8-1.3,0-.5-.5-1.1-.5-1.5,0-.5.6-.9.6-1.4,0-.7.3-.7.3-1.5s-.2-.7-.2-1.5.5-.7.5-1.5-.2-.7-.2-1.5,0-.7,0-1.5,0-.7,0-1.5-.3-.7-.3-1.5.4-.7.4-1.5-1.1-.7-1.1-1.5,0-.7,0-1.5.7-.7.7-1.5-.5-.7-.5-1.5.6-1,.6-1.5c0-.5-.4-1-.5-1.4,0-.5-.6-.9-.7-1.3-.1-.5.2-1.1,0-1.6-.2-.5-.3-1-.5-1.4-.2-.4-1.1-.5-1.4-.9-.3-.4-.8-.6-1.1-1-.3-.4,0-1.3-.3-1.7s-.7-.7-1.1-1c-.4-.3-1.2,0-1.6-.3-.4-.3-.8-.5-1.2-.7-.4-.2-.7-.7-1.2-.9-.5-.2-1,0-1.5-.2-.5-.1-.7-1-1.2-1.1-.5,0-1,.3-1.5.2-.5,0-1,.3-1.5.3-.7,0-.7,0-1.4,0s-.7,0-1.4,0-.7-.3-1.4-.3-.7-.8-1.4-.8-.7.4-1.4.4-.7,0-1.4,0-.7.7-1.4.7-.7-.8-1.4-.8-.7.6-1.4.6-.7-.9-1.4-.9-.7.3-1.4.3-.7.7-1.4.7-.7-.8-1.4-.8-.7.4-1.4.4-.7-.3-1.4-.3-.7.7-1.4.7-.7-.6-1.4-.6-.7,0-1.4,0-.7-.5-1.4-.5-.7.5-1.4.5-.7-.4-1.4-.4-.7,1-1.4,1-.7-.9-1.4-.9-.7.5-1.4.5-.7,0-1.4,0-.7,0-1.4,0-.7-.7-1.4-.7-.7.8-1.4.8-.7.3-1.4.3-.7-.4-1.4-.4-.7.3-1.4.3-.7,0-1.4,0-.7-.7-1.4-.7-.7-.3-1.4-.3-.7.1-1.4.1-.7.9-1.4.9-.7-1-1.4-1-.7,1-1.4,1-.7-.3-1.4-.3-.7-.3-1.4-.3-.7-.4-1.4-.4-.7,1.2-1.4,1.2-.7-.6-1.4-.6-.7-.5-1.4-.5-.7.5-1.4.5-.7,0-1.4,0-.7-.5-1.4-.5-.7.5-1.4.5-.7.7-1.4.7-.7-.9-1.4-.9-.7.8-1.4.8-.7-.2-1.4-.2-.7-.5-1.4-.5-.7.2-1.4.2-.7.2-1.4.2-.7.3-1.4.3-.7-.1-1.4-.1-.7-.3-1.4-.3-.7.4-1.4.4-.7-.7-1.4-.7-.7.5-1.4.5-.7-.8-1.4-.8-.7.4-1.4.4-.7-.2-1.4-.2-.7-.2-1.4-.2-.7.5-1.4.5-.7.4-1.4.4-.7-.3-1.4-.3-.7.4-1.4.4-.7-.2-1.4-.2-.7.2-1.4.2-.7-1-1.4-1-.7,1-1.4,1-.7-.8-1.4-.8-.7-.2-1.4-.2-.7.5-1.4.5-.7.6-1.4.6-.7-.4-1.4-.4-.7.2-1.4.2-.7.2-1.4.2-.7-.9-1.4-.9-.7.3-1.4.3-.7.3-1.4.3-.7.2-1.4.2-.7,0-1.4,0-.7,0-1.4,0-.7-.5-1.4-.5-.7.2-1.4.2-.7-.5-1.4-.5-.7,0-1.4,0-.7.3-1.4.3-.7,0-1.4,0-.7-.3-1.4-.3-.7-.3-1.4-.3-.7.8-1.4.9c-.8.2-.8.2-1.5.2s-.9-.1-1.4,0c-.5,0-1-.2-1.4-.1-.5,0-.9.3-1.3.5-.5.1-1.1-.2-1.5,0-.4.2-.7.7-1.1,1-.4.2-1,.1-1.4.4-.6.4,0,1.2-.7,1.6s-.7.2-1.3.6c-.6.4-.5.5-1.1.9s-1-.2-1.6.2c-.6.4-.5.6-1.1,1-.6.4-.4.6-1.1,1-.6.4-1-.2-1.6.2-.6.4-.6.4-1.2.8-.6.4-.2,1-.8,1.4-.6.4-.7.2-1.3.6s-1-.3-1.6.1c-.6.4,0,1.3-.6,1.7-.6.4-.8,0-1.4.5-.6.4-.5.6-1.1,1-.6.4-.6.3-1.3.7-.6.4-.8,0-1.4.4-.6.4-.6.4-1.2.8-.6.4-.8.2-1.4.6-.6.4-.1,1.1-.7,1.5-.6.4-1-.2-1.6.2-.6.4-.3.8-.9,1.2-.6.4-.7.3-1.3.7s-1.1-.3-1.7,0c-.6.4-.3.9-.9,1.3-.6.4-.8.2-1.4.6-.6.4-.3.9-.9,1.3-.6.4-1-.3-1.6.1-.6.4-.5.6-1.1,1-.6.4-.3.8-.9,1.2-.6.4-1.1-.4-1.7,0s0,1.2-.7,1.6c-.6.4-.7.3-1.3.7-.6.4-.9-.1-1.5.3-.6.4-.4.7-1,1.1-.6.4-.6.4-1.2.8-.6.4-.6.3-1.2.7-.6.4-.4.7-1,1.1-.6.4-.8,0-1.4.4s-.3.8-.9,1.2-.6.3-1.3.7c-.6.4-.8.1-1.4.5-.6.4-1-.2-1.6.2-.6.4-.3.8-.9,1.2-.6.4-.6.4-1.2.8-.6.4-.9,0-1.5.3-.6.4-.2,1-.8,1.4-.6.4-.9-.1-1.6.3-.6.4-.7.2-1.3.6-.6.4,0,1.3-.6,1.7-.6.4-.8,0-1.4.4-.6.4-.3.9-.9,1.2-.6.4-1.1-.4-1.7,0s0,1.2-.7,1.6c-.6.4-1-.2-1.6.2-.6.4-.2,1-.8,1.4-.6.4-1.3-.7-1.9-.3-.6.4-.5.6-1.1,1-.6.4-.6.4-1.2.8-.6.4-.6.4-1.2.8s-.5.5-1.1.9c-.6.4-.7.2-1.3.6-.6.4-.6.4-1.2.8-.6.4-.3.8-1,1.2-.6.4-1-.2-1.6.2-.6.4-.4.7-1,1.1-.6.4-.5.6-1.1,1s-.5.5-1.1.9-.8.1-1.4.5-.8,0-1.4.4c-.6.4-.4.7-1,1.1-.6.4-.2,1-.8,1.4-.6.4-.8,0-1.5.4-.6.4-.9-.1-1.6.3-.6.4-.4.8-1,1.2-.6.4-.4.8-1,1.2-.6.4-.9-.1-1.5.3-.6.4-.6.3-1.2.7-.6.4-.4.7-1,1.1-.6.4-1-.2-1.6.2-.6.4-.3.9-.9,1.2-.6.4-.3.9-.9,1.3-.6.4-.8.2-1.4.5-.6.4-1-.3-1.6.1-.6.4-.2,1.1-.8,1.5s-.7.3-1.3.6c-.6.4-1-.3-1.6.1-.6.4-.5.6-1.1,1-.6.4-.3.9-.9,1.3-.6.4-.6.4-1.2.8-.6.4-.5.5-1.1.9-.6.4-1-.2-1.6.2-.6.4-.2,1-.8,1.4-.6.4-1.2-.6-1.9-.2-.6.4-.3.8-.9,1.2-.6.4-.5.6-1.1,1-.6.4-.5.6-1.1,1-.6.4-.6.4-1.2.8-.6.4-.9-.1-1.5.3-.6.4-.3.9-.9,1.3-.6.4-.9-.1-1.6.3-.6.4-.4.7-1,1.1-.6.4-.4.7-1.1,1.1-.4.3-.7.6-1.1.9-.4.3-1.3,0-1.7.3-.4.3-1,.5-1.3.9-.3.4.1,1.3-.2,1.7-.3.4-.5.8-.7,1.2-.2.4-.6.8-.8,1.2-.2.5,0,1-.2,1.5-.1.5-.2.9-.3,1.4-.1.5-.2.9-.2,1.4,0,.5-.3.9-.3,1.4,0,.5-.5,1-.4,1.5,0,.5.3,1,.3,1.5,0,.5,0,1,.2,1.5.1.5,0,1.1.2,1.5.2.5,1,.6,1.2,1.1.2.4.2,1,.5,1.4.3.4.2,1.1.5,1.5.3.4,1.2.2,1.6.6.3.4.4,1,.8,1.3.4.3.8.7,1.2.9.4.3,1.2-.1,1.7,0,.4.2.5,1.1,1,1.3.5.2,1,.2,1.5.3.5.1,1,0,1.5.1.5,0,.9.7,1.4.8.5,0,1,0,1.5,0,.7,0,.7,0,1.4,0s.7-.4,1.4-.4.7.3,1.4.3.7.1,1.4.1.7-.6,1.4-.6.7.3,1.4.3.7-.5,1.4-.5.7,0,1.4,0,.7.6,1.4.6.7-.6,1.4-.6.7.7,1.4.7.7-.4,1.4-.4.7,1,1.4,1,.7-.6,1.4-.6.7.5,1.4.5.7-.4,1.4-.4.7-.4,1.4-.4.7.5,1.4.5.7.4,1.4.4.7-.6,1.4-.6.7.3,1.4.3.7-.8,1.4-.8.7.7,1.4.7.7.2,1.4.2.7-.1,1.4-.1.7-.4,1.4-.4.7.3,1.4.3.7-.4,1.4-.4.7.6,1.4.6.7.2,1.4.2.7-.3,1.4-.3.7.3,1.4.3.7-.3,1.4-.3.7-.6,1.4-.6.7.1,1.4.1.7-.3,1.4-.3.7,1,1.4,1,.7-.9,1.4-.9.7,1,1.4,1,.7-.8,1.4-.8.7.5,1.4.5.7-.6,1.4-.6.7.9,1.4.9.7,0,1.4,0,.7,0,1.4,0,.7-1.2,1.4-1.2.7.8,1.4.8.7-.1,1.4-.1.7,0,1.4,0,.7-.1,1.4-.1.7.1,1.4.1.7.2,1.4.2.7-.2,1.4-.2.7.2,1.4.2.7-.8,1.4-.8.7.5,1.4.5.7.6,1.4.6.7-.1,1.4-.1.7-.8,1.4-.8.7.1,1.4.1.7,0,1.4,0,.7.4,1.4.4.7-.4,1.4-.4.7.2,1.4.2.7.6,1.4.6.7-.9,1.4-.9.7,0,1.4,0,.7,0,1.4,0,.7.7,1.4.7.7,0,1.4,0,.7.1,1.4.1.7,0,1.4,0,.7.1,1.4.1.7-.5,1.4-.5.7-.3,1.4-.3.7-.2,1.4-.2.7,0,1.4,0,.7.3,1.4.3.7.7,1.4.7.7-.2,1.4-.2.7-.4,1.4-.4.7-.3,1.4-.3.7,0,1.4,0,.7.6,1.4.6.7-.6,1.4-.6.7.8,1.4.8.7-.9,1.4-.9.7,0,1.4,0,.7.4,1.4.4.7.2,1.4.2.7-.4,1.4-.4.7.4,1.4.4.7.2,1.4.2.7-.1,1.4-.1.7-.4,1.4-.4.7.2,1.4.2.7-.7,1.4-.7.7.4,1.4.4.7,0,1.4,0,.7-.4,1.4-.4.7.2,1.4.2.7.9,1.4.9.7,0,1.4,0,.7-1.1,1.4-1.1.7.4,1.4.4.7.3,1.4.3.7.3,1.4.3.7-.6,1.4-.6.7-.3,1.4-.3.7-.3,1.4-.3.7.6,1.5.6.7-.5,1.4-.5.7.4,1.5.4.7.5,1.5.5.7-.9,1.4-.9.7,1,1.5,1,.7,0,1.5,0Z"/>
  <path class="cls-1" d="M31.8,127.9s0,0,.1,0c.7,0,.7-.4,1.4-.4s.7,0,1.4,0,.7.6,1.4.6.7.3,1.4.3.7-.9,1.4-.9.7.7,1.4.7.7-.5,1.4-.5.7.4,1.4.4.7-.8,1.4-.8.7.3,1.4.3.7-.2,1.4-.2.7.2,1.4.2.7,0,1.4,0,.7.8,1.4.8.7-.3,1.4-.3.7,0,1.4,0,.7-.3,1.4-.3.7.7,1.4.7.7-1.1,1.4-1.1.7.7,1.4.7.7,0,1.4,0,.7-.7,1.4-.7.7.4,1.4.4.7.3,1.4.3.7.5,1.4.5.7-.6,1.4-.6.7-.4,1.4-.4.7.8,1.4.8.7,0,1.4,0,.7-.4,1.4-.4.7-.2,1.4-.2.7.9,1.4.9.7-.2,1.4-.2.7.2,1.4.2.7-1,1.4-1,.7,0,1.4,0,.7.3,1.4.3.7,0,1.4,0,.7.6,1.4.6.7-.4,1.4-.4.7-.2,1.4-.2.7.3,1.4.3.7-.3,1.4-.3.7.6,1.4.6.7-.8,1.4-.8.7.4,1.4.4.7-.2,1.4-.2.7.3,1.4.3.7-.4,1.4-.4.7.6,1.4.6.7-.6,1.4-.6.7.5,1.4.5.7.2,1.4.2.7-.2,1.4-.2.7-1,1.4-1,.7.2,1.4.2.7.9,1.4.9.7-.6,1.4-.6.7-.4,1.4-.4.7,0,1.4,0,.7,0,1.4,0,.7.9,1.4.9.7-.7,1.4-.7.7.2,1.4.2.7-.3,1.4-.3.7.5,1.4.5.7,0,1.4,0,.7-.4,1.4-.4.7-.4,1.4-.4.7.9,1.4.9.7-.8,1.4-.8.7.6,1.4.6.7.2,1.4.2.7.2,1.4.2.7-.9,1.4-.9.7-.1,1.4-.1.7.7,1.4.7.7-.4,1.4-.4.7.4,1.4.4.7-.7,1.4-.7.7.7,1.4.7.7-.6,1.4-.6.7.4,1.4.4.7.2,1.4.2.7,0,1.4,0,.7-.8,1.4-.8.7,0,1.4,0,.7,0,1.4,0,.7,0,1.4,0,.7,1,1.4,1,.7-.8,1.4-.8.7.6,1.4.6.7-1,1.4-1,.7.2,1.4.2.7.8,1.4.8.7.1,1.4.1.7-1,1.4-1,.7,1,1.4,1,.7,0,1.4,0,.7-.8,1.4-.8.7,0,1.4,0,.7,0,1.4,0,.7-.1,1.4-.1.7.5,1.4.5.7-.6,1.4-.6.7.6,1.4.6.7.2,1.5.2.7-.6,1.5-.6.7,0,1.5,0,1,.6,1.5.6c.5,0,.8-.8,1.3-.9.5,0,1.1.4,1.5.2.5-.1.7-.8,1.2-1,.4-.2,1.3.5,1.7.3.4-.2.3-1.3.7-1.6.4-.3,1.1,0,1.5-.4.4-.3.4-1,.8-1.3.3-.3,1.2-.2,1.5-.6.3-.4.8-.6,1.1-1,.3-.4.4-.9.6-1.4.2-.4.2-1,.4-1.4.2-.4,0-1.1,0-1.5.2-.5,1-.7,1.1-1.2.1-.5-.4-1.1-.3-1.5,0-.5.8-.9.8-1.4,0-.5-.6-1-.7-1.4s.4-1,.3-1.5c0-.5-.3-.9-.4-1.4-.1-.5-.9-.7-1-1.2-.2-.4,0-1-.1-1.5-.2-.4.1-1,0-1.4,0-.7-.7-.7-.7-1.4,0-.7.5-.7.5-1.5,0-.7-.6-.7-.6-1.5,0-.7.7-.7.7-1.5,0-.7-.1-.7-.1-1.5,0-.7.1-.7.1-1.5,0-.7-.3-.7-.3-1.5,0-.7,0-.7,0-1.5,0-.7-.8-.7-.8-1.5,0-.7.1-.7.1-1.5,0-.7.5-.7.5-1.5,0-.7-.1-.7-.1-1.5,0-.7.2-.7.2-1.5s.4-.7.4-1.5c0-.5-1-.9-1-1.4,0-.5.7-1.1.6-1.6,0-.5,0-1.1,0-1.5-.1-.5-1.3-.6-1.5-1-.2-.5-.1-1-.3-1.4-.2-.4-.4-.9-.7-1.3-.3-.4-.8-.6-1.1-1-.3-.4-.1-1.2-.5-1.5-.3-.3-.9-.5-1.3-.8-.4-.3-.4-1.2-.8-1.4-.4-.3-1-.4-1.4-.6-.4-.2-1.1.1-1.6,0-.5-.2-.7-1.1-1.1-1.2-.5-.1-1.2.7-1.7.6-.5,0-.9,0-1.4-.1-.5,0-.9-.8-1.4-.8-.7,0-.7-.4-1.4-.4s-.7.3-1.4.3-.7.7-1.4.7-.7-.6-1.4-.6-.7-.4-1.4-.4-.7.8-1.4.8-.7.3-1.4.3-.7-.6-1.4-.6-.7.3-1.4.3-.7.3-1.4.3-.7-1-1.4-1-.7.6-1.4.6-.7-.3-1.4-.3-.7-.3-1.4-.3-.7.7-1.4.7-.7-.3-1.4-.3-.7-.3-1.4-.3-.7.6-1.4.6-.7-.7-1.4-.7-.7.3-1.4.3-.7-.4-1.4-.4-.7.7-1.4.7-.7,0-1.4,0-.7-.2-1.4-.2-.7,0-1.4,0-.7-.1-1.4-.1-.7-.3-1.4-.3-.7.9-1.4.9-.7-.5-1.4-.5-.7-.6-1.4-.6-.7.2-1.4.2-.7,1-1.4,1-.7-1.1-1.4-1.1-.7.4-1.4.4-.7.1-1.4.1-.7.6-1.4.6-.7-.2-1.4-.2-.7.1-1.4.1-.7.1-1.4.1-.7-1.3-1.4-1.3-.7.9-1.4.9-.7-.4-1.4-.4-.7-.2-1.4-.2-.7.2-1.4.2-.7,0-1.4,0-.7-.5-1.4-.5-.7.5-1.4.5-.7-.1-1.4-.1-.7,0-1.4,0-.7.5-1.4.5-.7-.7-1.4-.7-.7,0-1.4,0-.7.3-1.4.3-.7.4-1.4.4-.7-.3-1.4-.3-.7-.3-1.4-.3-.7,1-1.4,1-.7-1.1-1.4-1.1-.7.4-1.4.4-.7.4-1.4.4-.7.2-1.4.2-.7,0-1.4,0-.7-.3-1.4-.3-.7-.6-1.4-.6-.7.5-1.4.5-.7.4-1.4.4-.7-.7-1.4-.7-.7.6-1.4.6-.7-.3-1.4-.3-.7-.6-1.4-.6-.7,1-1.4,1-.7-.6-1.4-.6-.7-.3-1.4-.3-.7.2-1.4.2-.7,0-1.4,0-.7-.2-1.4-.2,0,0-.1,0c-17.9,17.1-33.3,36.9-45.6,58.7Z"/>
  <path class="cls-1" d="M87.2,60.3s0,0,0,0c.7,0,.7-.3,1.4-.3s.7-.7,1.4-.7.7.8,1.4.8.7-.6,1.4-.6.7.5,1.4.5.7-.2,1.4-.2.7-.7,1.4-.7.7.6,1.4.6.7-.2,1.4-.2.7.3,1.4.3.7.1,1.4.1.7-.7,1.4-.7.7.7,1.4.7.7.2,1.4.2.7-.6,1.4-.6.7,0,1.4,0,.7.2,1.4.2.7-.8,1.4-.8.7.6,1.4.6.7-.6,1.4-.6.7.7,1.4.7.7,0,1.4,0,.7,0,1.4,0,.7-.6,1.4-.6.7.7,1.4.7.7-.1,1.4-.1.7.6,1.4.6.7-1.1,1.4-1.1.7,1.1,1.4,1.1.7-.6,1.4-.6.7.1,1.4.1.7.2,1.4.2.7-.2,1.4-.2.7,0,1.4,0,.7.2,1.4.2.7-.5,1.4-.5.7-.2,1.4-.2.7.6,1.4.6.7-.5,1.4-.5.7.8,1.4.8.7-.5,1.4-.5.7-.4,1.4-.4.7.6,1.4.6.7-.3,1.4-.3.7.6,1.4.6.7,0,1.4,0,.7-.7,1.4-.7.7.2,1.4.2.7,0,1.4,0,.7-.1,1.4-.1.7-.3,1.4-.3.7.9,1.4.9.7-.4,1.4-.4.7-.5,1.4-.5.7.6,1.4.6.7.3,1.4.3.7-.2,1.4-.2.7-.4,1.4-.4.7.3,1.4.3.7.2,1.4.2.7-.7,1.4-.7.7.3,1.5.3.7.6,1.4.6.7-.3,1.4-.3.7-.9,1.5-.9.7.3,1.4.3.7.6,1.5.6.7,0,1.5,0,.7,0,1.5,0,.9-.9,1.4-.9c.5,0,1,.2,1.5.1.5,0,.9-.4,1.3-.6.5-.1,1.3.7,1.8.5.5-.2.9-.6,1.3-.8.4-.2.9-.5,1.3-.8.4-.3.7-.8,1-1.1.4-.3.5-.9.9-1.2.3-.3,1.3-.2,1.6-.6.3-.4.1-1.2.4-1.6.3-.4.2-1,.4-1.4.2-.4.7-.7.9-1.2.2-.5.8-.8.9-1.2.1-.5.3-1,.4-1.5,0-.5-.3-1.1-.3-1.5,0-.5-.3-1-.3-1.5,0-.7.2-.7.2-1.4s.4-.7.4-1.4,0-.7,0-1.4.2-.7.2-1.4-.4-.7-.4-1.4.5-.7.5-1.4-.2-.7-.2-1.4-.8-.7-.8-1.4.9-.7.9-1.4,0-.7,0-1.4-.9-.7-.9-1.4.7-.7.7-1.4-.6-.7-.6-1.4.8-.7.8-1.4-.3-.7-.3-1.4.2-.7.2-1.4.2-.7.2-1.4-.9-.7-.9-1.4.5-.7.5-1.4,0-.7,0-1.4-.4-.7-.4-1.4.2-.7.2-1.4.4-.7.4-1.4-1-.7-1-1.4.7-.7.7-1.4.3-.7.3-1.4-1-.7-1-1.4.1-.7.2-1.1c-43.2,8.5-82.4,28-114.5,55.6Z"/>
</svg>