<?xml version="1.0" encoding="UTF-8"?>
<svg id="_アイコン" data-name="アイコン" xmlns="http://www.w3.org/2000/svg" version="1.1" viewBox="0 0 500 500">
  <defs>
    <style>
      .cls-1 {
        fill: #fff;
        stroke-width: 0px;
      }
    </style>
  </defs>
  <path class="cls-1" d="M275.5,235.7c.6-.3.8,0,1.4-.4.6-.3.7-.2,1.4-.5.6-.3.7-.3,1.3-.6.6-.3.8,0,1.5-.4s.2-1.2.8-1.5c.4-.2,1.1,0,1.4-.3.4-.3.5-.9.9-1.1.4-.3.6-.7.9-1,.3-.3,1.3-.1,1.6-.5.3-.4.2-1.1.4-1.5.3-.4.4-.9.6-1.3.2-.4.9-.6,1.1-1,.2-.4-.1-1,0-1.5.1-.4.5-.8.6-1.3.1-.5.3-.9.4-1.4,0-.5-.3-.9-.3-1.4,0-.5.4-.9.4-1.4,0-.5,0-.9-.1-1.4,0-.5-.7-.8-.8-1.3-.1-.5.5-1.1.3-1.6-.2-.4-.3-.9-.5-1.4-.2-.4-.9-.6-1.2-1-.2-.4-.4-.8-.7-1.2-.3-.4-.9-.5-1.2-.8-.3-.4-.6-.7-.9-1-.3-.3-.1-1.3-.5-1.6-.4-.3-1.1,0-1.5-.3-.4-.3-.7-.6-1.1-.9-.4-.2-.7-.7-1.2-.9-.4-.2-1,0-1.5-.2-.5-.1-.8-.7-1.3-.8-.5,0-1,.5-1.5.5-.5,0-.9.3-1.4.3-.7,0-.7-.1-1.4-.1s-.7.1-1.4.1-.7-1.1-1.4-1.1-.7.8-1.4.8-.7,0-1.4,0-.7-.6-1.4-.6-.7.5-1.4.5-.7-.7-1.4-.7-.7,0-1.4,0-.7,1-1.4,1-.7-.9-1.4-.9-.7,0-1.4,0-.7-.2-1.4-.2-.7.9-1.4.9-.7-.8-1.4-.8-.7.4-1.4.4-.7-.5-1.4-.5-.7.5-1.4.5-.7,0-1.4,0-.7.6-1.4.6-.7,0-1.4,0-.7-.5-1.4-.5-.7-.4-1.4-.4-.7,0-1.4,0-.7-.1-1.4-.1-.7.5-1.4.5-.7.4-1.4.4-.7-.2-1.4-.2-.7,0-1.4,0-.7.4-1.4.4-.7-.8-1.4-.8-.7,0-1.4,0-.7.8-1.4.8-.7-.3-1.4-.3-.7-.4-1.4-.4-.7,0-1.4,0-.7.6-1.4.6-.7-1.1-1.4-1.1-.7,1-1.4,1-.7-.9-1.4-.9-.7,0-1.4,0-.7.5-1.4.5-.7.4-1.4.4-.7-.9-1.4-.9-.7.6-1.4.6-.7-.3-1.4-.3-.7,0-1.4,0-.7-.3-1.4-.3-.7,0-1.4,0-.7.5-1.4.5-.7.5-1.4.5-.7-.7-1.4-.7-.7,0-1.4,0-.7.2-1.4.2-.7.1-1.4.1-.7,0-1.4,0-.7-.2-1.4-.2-.7.2-1.4.2-.7-.5-1.4-.5-.7.8-1.4.8-.7-1-1.4-1-.7,0-1.4,0-.7.5-1.4.5-.7-.2-1.4-.2-.7,0-1.4,0-.7.5-1.4.5-.7-.2-1.4-.2-.7-.3-1.4-.3-.7.4-1.4.4-.7-1-1.4-1-.7.3-1.4.3-.7.2-1.4.2-.7-.4-1.4-.4-.7.1-1.4.1-.7.2-1.4.2-.7.4-1.4.4-.7-.1-1.4-.1-.7.2-1.4.2-.7-.4-1.4-.4-.7.6-1.4.6-.7-.4-1.4-.4-.7-.5-1.4-.5-.7.9-1.4.9-.7-.4-1.4-.4-.7.4-1.4.4-.7-.6-1.4-.6-.7-.5-1.4-.5-.7.8-1.4.8-.7-.4-1.4-.4-.7-.3-1.4-.3-.7,1.2-1.4,1.2-.7-.3-1.4-.3-.7-.8-1.4-.8-.7.5-1.4.5-.7.3-1.4.3-.7-.6-1.4-.6-.7,0-1.4,0-.7-.2-1.4-.2-.7-.1-1.4-.1-.7,1.2-1.4,1.2-.7-.5-1.4-.5-.7,0-1.4,0-.7-.4-1.4-.4-.7.8-1.4.8-.7-.9-1.4-.9-.7.7-1.4.7-.7,0-1.4,0-.7.2-1.4.2-.7-.4-1.4-.4-.7-.3-1.4-.3-.7.9-1.4.9-.7,0-1.4,0-.7-.2-1.4-.2-.7-.7-1.4-.7-.7.3-1.4.3-.7-.3-1.4-.3-.7.6-1.4.6-.7-.6-1.4-.6-.7,1-1.4,1-.7-.5-1.4-.5-.7,0-1.4,0-.7.4-1.4.4-.7-.4-1.4-.4-.7.2-1.4.2-.7-.3-1.4-.3-.7,0-1.4,0-.7.1-1.4.1-.7-.2-1.4-.2-.7.3-1.4.3-.7,0-1.4,0-.7,0-1.4,0-.7.3-1.4.3-.7.3-1.4.3-.7-1-1.4-1-.7.9-1.4.9-.7-.2-1.4-.2-.7-.5-1.4-.5-.7-.3-1.4-.3-.7,1-1.4,1-.7,0-1.4,0-.7-.4-1.4-.4-.7.5-1.4.5-.7-.7-1.4-.7-.7.8-1.4.8-.7-.3-1.4-.3-.7-.4-1.4-.4-.7,0-1.4,0-.7.3-1.4.3-.7-.2-1.4-.2-.7-.6-1.4-.6-.7.8-1.4.8-.7,0-1.4,0-.7,0-1.4,0-.7-.3-1.4-.3-.7-.4-1.4-.4-.7.2-1.4.2-.7.6-1.4.6-.7-.5-1.4-.5-.7.2-1.4.2-.7,0-1.4,0-.7.5-1.4.5-.7-.4-1.4-.4-.7,0-1.4,0-.7-.6-1.4-.6-.7.2-1.4.2-.7,0-1.4,0-.7.2-1.4.2-.7,0-1.4,0-.7.7-1.4.7-.7,0-1.4,0-.7-.3-1.4-.3-.7.1-1.4.1-.7-.7-1.4-.7-.7.7-1.4.7-.7-.2-1.4-.2-.7-.4-1.4-.4-.7.6-1.4.6-.7-.5-1.4-.5-.7.1-1.4.1-.7.5-1.4.5-.7-.3-1.4-.3-.7.3-1.4.3-.7-.6-1.4-.6-.7.6-1.4.6-.7-.8-1.4-.8-.7-.1-1.4-.1-.7,0-1.4,0-.7.6-1.4.6-.4,0-.5-.1c-2.7,14.7-4.1,29.9-4.1,45.4,0,43,10.9,83.5,30,118.9.6-.3.6-.3,1.2-.7.6-.3.5-.6,1.1-1,.6-.3.9.1,1.5-.2.6-.3.3-.9.9-1.3s.7-.2,1.3-.5c.6-.3.5-.5,1.2-.9.6-.3.9.1,1.5-.2.6-.3.6-.4,1.2-.8.6-.3.6-.4,1.2-.7.6-.3.5-.6,1.1-.9s1,.4,1.7,0c.6-.3.3-.9,1-1.2.6-.3.7-.2,1.3-.6.6-.3.9,0,1.5-.3.6-.3.3-.9,1-1.3.6-.3.7-.3,1.3-.6.6-.3.5-.6,1.1-1,.6-.3.9.1,1.5-.2s.6-.5,1.2-.8c.6-.3.6-.4,1.2-.8.6-.3.6-.3,1.3-.7.6-.3.4-.7,1.1-1.1.6-.3,1,.3,1.6,0s.8,0,1.4-.4.7-.2,1.3-.6c.6-.3.5-.6,1.1-1,.6-.3.6-.4,1.2-.7.6-.3.3-1,.9-1.3s.6-.4,1.2-.8c.6-.3,1,.4,1.7,0,.6-.3.7-.2,1.4-.5s.5-.6,1.1-.9c.6-.3.4-.7,1.1-1.1.6-.3.7-.2,1.4-.5s.7-.2,1.3-.5.3-1,.9-1.4c.6-.3.7-.3,1.3-.6.6-.3.7-.1,1.4-.5.6-.3.7-.2,1.3-.5s.7-.2,1.3-.6c.6-.3.6-.4,1.2-.8.6-.3.4-.7,1.1-1.1s.7-.3,1.3-.6.9.2,1.6-.1c.6-.3.5-.5,1.2-.8.6-.3.7-.2,1.4-.5.6-.3.8-.1,1.4-.5.6-.3.7-.2,1.3-.5.6-.3.5-.5,1.2-.9.6-.3.5-.6,1.2-.9.6-.3.8,0,1.4-.4.6-.3.6-.4,1.3-.7.6-.3.5-.5,1.2-.9s.5-.5,1.2-.9c.6-.3.5-.5,1.2-.8.6-.3.8,0,1.4-.4.6-.3.3-.9,1-1.3s.6-.3,1.3-.7c.6-.3.9.1,1.5-.2s.4-.8,1-1.1c.6-.3,1,.3,1.6,0s.5-.6,1.1-1c.6-.3.3-.9,1-1.2.6-.3.8,0,1.4-.4.6-.3,1,.4,1.7,0,.6-.3.4-.7,1.1-1,.6-.3.5-.6,1.1-.9.6-.3.8,0,1.4-.4.6-.3.6-.5,1.2-.8.6-.3.9,0,1.5-.3.6-.3.3-1,.9-1.3.6-.3.8,0,1.4-.4s.7-.1,1.4-.5c.6-.3.7-.2,1.3-.6.6-.3.2-1.2.8-1.5s.6-.3,1.3-.7c.6-.3.8-.1,1.4-.4.6-.3.8,0,1.5-.3.6-.3.7-.3,1.3-.6.6-.3.6-.5,1.2-.8.6-.3.4-.8,1-1.1.6-.3.7-.3,1.3-.6s.6-.4,1.2-.7c.6-.3.9.2,1.5-.2.6-.3.7-.2,1.4-.5s.6-.4,1.3-.7c.6-.3.6-.4,1.3-.7.6-.3.2-1.1.9-1.4.6-.3,1,.4,1.7,0,.6-.3.3-.9,1-1.2s1,.3,1.6,0c.6-.3.1-1.3.8-1.6s.7-.1,1.4-.5c.6-.3.9,0,1.5-.3.6-.3.6-.5,1.2-.8.6-.3.7-.2,1.3-.6s.6-.5,1.2-.8c.6-.3.6-.4,1.2-.8.6-.3.9.2,1.5-.2.6-.3.2-1.1.9-1.4.6-.3.9.2,1.6-.1s.2-1.1.8-1.5c.6-.3,1,.4,1.7,0,.6-.3.3-1,.9-1.4s.7-.3,1.3-.6c.6-.3.9.1,1.5-.2.6-.3.8,0,1.4-.4.6-.3.6-.4,1.2-.8.6-.3.8,0,1.4-.4.6-.3.6-.4,1.2-.8s.6-.5,1.2-.8c.6-.3.4-.8,1-1.1.6-.3.6-.4,1.3-.7s.7-.3,1.3-.6.6-.5,1.2-.8c.6-.3.8-.1,1.4-.4.6-.3.7-.1,1.4-.5.6-.3.7-.3,1.3-.6s.7-.2,1.4-.5c.6-.3.6-.3,1.3-.7.6-.3.3-1,.9-1.3.6-.3.9.2,1.6-.1.6-.3.7-.2,1.3-.6s.3-.9,1-1.2c.6-.3.6-.5,1.2-.8.6-.3,1,.3,1.6,0,.6-.3.6-.4,1.2-.7.6-.3.2-1.2.8-1.5s.9.1,1.5-.2c.6-.3.5-.5,1.2-.9.6-.3.6-.4,1.3-.7.6-.3.6-.4,1.3-.7.6-.3.9,0,1.5-.3.6-.3.5-.6,1.1-.9.6-.3.7-.3,1.3-.7.6-.3.4-.8,1-1.2s.9.1,1.5-.2.6-.3,1.3-.7c.6-.3.5-.7,1.1-1s.9.1,1.5-.2c.6-.3.4-.8,1-1.1.6-.3.6-.5,1.2-.8.6-.3.7-.3,1.3-.6.6-.3,1,.3,1.6,0s.4-.7,1.1-1.1c.6-.3.4-.8,1-1.1.6-.3.9.2,1.6-.1.6-.3.7-.2,1.4-.5.6-.3.5-.6,1.1-1,.6-.3.7-.3,1.3-.6.6-.3.8,0,1.5-.3.6-.3.7-.3,1.3-.7.6-.3.6-.5,1.2-.8.6-.3.3-.9,1-1.2.6-.3,1,.3,1.6,0,.6-.3.3-.9,1-1.2s1,.4,1.7,0,.3-.9,1-1.2.6-.3,1.3-.7c.6-.3.4-.7,1.1-1.1.6-.3.8-.1,1.4-.4.6-.3.8,0,1.4-.4.6-.3.4-.8,1-1.1.6-.3,1,.4,1.7,0,.6-.3.4-.7,1.1-1s.7-.3,1.3-.6c.6-.3.7-.2,1.3-.6.6-.3.7-.2,1.3-.6.6-.3.6-.4,1.2-.8.6-.3.2-1.1.9-1.4.6-.3,1.2.6,1.8.3.6-.3.5-.5,1.2-.8.6-.3.4-.9,1-1.2.6-.3.8,0,1.4-.4.6-.3.5-.6,1.1-1,.6-.3,1,.3,1.6,0,.6-.3.5-.7,1.1-1,.6-.3.5-.6,1.1-.9.6-.3.7-.3,1.3-.6.6-.3.8,0,1.5-.3.6-.3.2-1.2.8-1.6.6-.3.7-.2,1.4-.5.6-.3.6-.4,1.2-.8.6-.3.8-.1,1.4-.4.6-.3.6-.4,1.2-.8.6-.3.6-.4,1.3-.7.6-.3.6-.4,1.3-.7.6-.3.6-.4,1.2-.8.6-.3.7-.2,1.4-.5.6-.3.8,0,1.4-.4.6-.3.6-.4,1.2-.7.6-.3.9,0,1.5-.3.6-.3.5-.5,1.2-.9.6-.3.3-1,.9-1.3Z"/>
  <path class="cls-1" d="M283.8,159.1c0,.7-.3.7-.3,1.5s.6.7.6,1.5,0,.7,0,1.5.3.7.3,1.5,0,.7,0,1.5-.2.7-.2,1.5-.2.7-.2,1.5-.2.7-.2,1.5.2.7.2,1.5.4.7.4,1.5-.5.7-.5,1.5.3.7.3,1.5,0,.7,0,1.5-.7.7-.7,1.5,0,1,0,1.5c0,.5.8.9.9,1.4,0,.5,0,1,0,1.5.1.5.2,1,.4,1.4.2.5.5.9.7,1.3.2.4.3,1,.5,1.4.3.4,1.2.4,1.5.7.3.4,0,1.3.4,1.7.3.3,1.3,0,1.7.3.4.3.1,1.5.5,1.7.4.3,1.3-.2,1.7,0,.4.2.9.4,1.3.6.5.2.7,1.1,1.1,1.2.5.1,1.1-.5,1.6-.4.5,0,.9.1,1.4.2.5,0,.9.3,1.4.3.7,0,.7,0,1.4,0s.7.4,1.4.4.7-.7,1.4-.7.7,0,1.4,0,.7.3,1.4.3.7-.4,1.4-.4.7,1,1.4,1,.7-1,1.4-1,.7,1,1.4,1,.7-.3,1.4-.3.7-.1,1.4-.1.7-.6,1.4-.6.7.5,1.4.5.7.2,1.4.2.7-.4,1.4-.4.7,0,1.4,0,.7.8,1.4.8.7-.8,1.4-.8.7-.2,1.4-.2.7.5,1.4.5.7-.2,1.4-.2.7.2,1.4.2.7.5,1.4.5.7-.5,1.4-.5.7-.4,1.4-.4.7.7,1.4.7.7-.5,1.4-.5.7,0,1.4,0,.7.6,1.4.6.7-.9,1.4-.9.7.4,1.4.4.7.1,1.4.1.7-.7,1.4-.7.7.7,1.4.7.7-.4,1.4-.4.7.2,1.4.2.7.5,1.4.5.7-.7,1.4-.7.7.8,1.4.8.7-.5,1.4-.5.7-.2,1.4-.2.7.4,1.4.4.7,0,1.4,0,.7-.8,1.4-.8.7.2,1.4.2.7.8,1.4.8.7-.2,1.4-.2.7-.7,1.4-.7.7,0,1.4,0,.7.9,1.4.9.7,0,1.4,0,.7-1,1.4-1,.7.8,1.4.8.7-.9,1.4-.9.7,1.1,1.4,1.1.7-1.2,1.4-1.2.7,1,1.4,1,.7,0,1.4,0,.7-.3,1.4-.3.7-.7,1.4-.7.7.2,1.4.2.7.7,1.4.7.7-1,1.4-1,.7.5,1.4.5.7.3,1.4.3.7-.4,1.4-.4.7,0,1.4,0,.7-.3,1.4-.3.7,0,1.4,0,.7.1,1.4.1.7.2,1.4.2.7-.4,1.4-.4.7.9,1.5.9.7-.1,1.4-.1.7-.2,1.4-.2.7-.6,1.5-.6.7-.2,1.4-.2.7.4,1.5.4.7.2,1.5.2.7-.5,1.4-.5.7.2,1.5.2.7.7,1.5.7.7-.1,1.5-.1,1-.4,1.5-.4c.5,0,1.1.3,1.5.2.5,0,.9-.6,1.4-.7.5-.1.9-.5,1.3-.7.5-.2,1-.1,1.5-.3.4-.2.8-.6,1.2-.9.4-.3.7-.7,1.1-1,.4-.3,1.1-.3,1.4-.6.3-.3.3-1,.6-1.4.3-.4.9-.6,1.1-1,.3-.4.1-1.1.4-1.5.2-.4.9-.6,1.1-1.1.2-.5,0-1,.2-1.5.1-.5,0-1,.2-1.5,0-.5-.1-1,0-1.5,0-.5,1-.9,1-1.4,0-.7-.1-.7-.1-1.5s-1-.7-1-1.5.5-.7.5-1.5.1-.7.1-1.5-.6-.7-.6-1.5.3-.7.3-1.5.1-.7.1-1.5,0-.7,0-1.5.2-.7.2-1.5-.3-.7-.3-1.4.1-.7.1-1.4.6-.7.6-1.4-.1-.7-.1-1.5,0-.7,0-1.5,0-.7,0-1.5-.3-.7-.3-1.5,0-.7,0-1.5,0-.7,0-1.5-.4-.7-.4-1.5,0-.7,0-1.5.1-.7.1-1.5.2-.7.2-1.5-.3-.7-.3-1.5.5-.7.5-1.5-.7-.7-.7-1.5.7-.7.7-1.5-.4-.7-.4-1.5,0-.7,0-1.5.4-.7.4-1.5-.2-.7-.2-1.5.4-.7.4-1.5.2-.7.2-1.5-.7-.7-.7-1.5-.2-.7-.2-1.5.8-.7.8-1.5-.5-.7-.5-1.5-.4-.7-.4-1.5.4-.7.4-1.5.3-.7.3-1.5-.6-.7-.6-1.5,0-.7,0-1.5.3-.7.3-1.5.5-.7.5-1.5-.1-.7-.1-1.5-.7-.9-.7-1.4c0-.5.5-1.1.4-1.5,0-.5-.1-1-.2-1.5-.1-.5-.3-1-.5-1.4-.2-.5-.9-.7-1.1-1.1-.2-.4-.7-.7-.9-1.1-.3-.4.1-1.3-.2-1.7-.3-.4-1.3-.1-1.7-.5-.3-.3-.7-.6-1.1-.9-.4-.3-.7-.6-1.1-.8-.4-.3-.5-1.1-.9-1.3-.4-.2-1.1,0-1.5-.1-.5-.2-.7-.8-1.2-.9-.5-.1-.9-.3-1.4-.4-.5,0-1,.3-1.5.3-.5,0-.9-.9-1.4-.9-.7,0-.7,0-1.4,0s-.7.1-1.4.1-.7.3-1.4.3-.7.5-1.4.5-.7-.9-1.4-.9-.7.6-1.4.6-.7.2-1.4.2-.7-.6-1.4-.6-.7.6-1.4.6-.7.2-1.4.2-.7-.2-1.4-.2-.7-.2-1.4-.2-.7-.5-1.4-.5-.7.3-1.4.3-.7-.5-1.4-.5-.7.7-1.4.7-.7,0-1.4,0-.7-.3-1.4-.3-.7-.3-1.4-.3-.7,0-1.4,0-.7.2-1.4.2-.7,0-1.4,0-.7-.1-1.4-.1-.7.1-1.4.1-.7,0-1.4,0-.7,0-1.4,0-.7-.3-1.4-.3-.7,0-1.4,0-.7.3-1.4.3-.7.3-1.4.3-.7-.8-1.4-.8-.7,0-1.4,0-.7.7-1.4.7-.7.2-1.4.2-.7-.9-1.4-.9-.7.5-1.4.5-.7,0-1.4,0-.7-.2-1.4-.2-.7.7-1.4.7-.7-.2-1.4-.2-.7,0-1.4,0-.7,0-1.4,0-.7-.5-1.4-.5-.7,0-1.4,0-.7-.4-1.4-.4-.7,0-1.4,0-.7.2-1.4.2-.7-.3-1.4-.3-.7.4-1.4.4-.7.7-1.4.7-.7-.9-1.4-.9-.7.7-1.4.7-.7-.8-1.4-.8-.7.2-1.4.2-.7.3-1.4.3-.7-.2-1.4-.2-.7,0-1.4,0-.7.2-1.4.2-.7.2-1.4.2-.7-.8-1.4-.8-.7,1-1.4,1-.7-1.1-1.4-1.1-.7,1.2-1.4,1.2-.7-1.2-1.4-1.2-.7.7-1.4.7-.7.4-1.4.4-.7-1.1-1.4-1.1-.7,0-1.4,0-.7.3-1.4.3-.7.4-1.4.4-.7.3-1.4.3-.7-1.1-1.4-1.1-.7.7-1.5.7-.7,0-1.4,0-.7-.2-1.4-.2-.7-.5-1.5-.5-.7.7-1.4.7-.7-.8-1.5-.8-.7,0-1.5,0-.7.3-1.4.3-.7.6-1.5.6-.7-.7-1.4-.8c-.7,0-.7.3-1.5.3s-1-.2-1.5-.2c-.5,0-1,.1-1.5.2-.5,0-.9.6-1.3.8-.5.1-.9.4-1.3.6-.5.2-1.1,0-1.5.2-.4.2-.9.5-1.3.7-.4.3-.4,1.2-.7,1.5-.4.3-.9.4-1.3.8s-.6.8-.9,1.2c-.3.4-.8.6-1.1,1-.3.4-1,.6-1.2,1-.2.4.4,1.3.2,1.7-.2.5-1.3.6-1.5,1-.1.5,0,1.1,0,1.6,0,.5-.5,1-.5,1.5,0,.5,0,1,0,1.5,0,.7.5.7.5,1.5s-.3.7-.3,1.5.6.7.6,1.5-.8.7-.8,1.5.9.7.9,1.5,0,.7,0,1.5-.5.7-.5,1.5.2.7.2,1.5-.4.7-.4,1.5.4.7.4,1.4-.2.7-.2,1.4,0,.7,0,1.4-.6.7-.6,1.5.9.7.9,1.5-.3.7-.3,1.5-.4.7-.4,1.5.8.7.8,1.5-.6.7-.6,1.5-.4.7-.4,1.5.2.7.2,1.5.7.7.7,1.5-.5.7-.5,1.5-.5.7-.5,1.5.3.7.3,1.5.1.7.1,1.5.3.7.3,1.5-.6.7-.6,1.5.4.7.4,1.5-.6.7-.6,1.5.5.7.5,1.5Z"/>
  <path class="cls-1" d="M450.5,103c-.4.3-.6.9-.9,1.2-.4.3-.7.6-1.1,1s-1.2.2-1.5.6c-.3.4.1,1.3-.2,1.7-.3.4-1,.5-1.2,1-.2.4-.8.7-1,1.2-.2.5.2,1.1.1,1.6-.1.5-1,.8-1.1,1.3,0,.5.2,1.1.1,1.5,0,.5.5,1,.5,1.5,0,.7,0,.7,0,1.5s-.6.7-.6,1.5.7.7.7,1.5-.5.7-.5,1.5-.3.7-.3,1.5.4.7.4,1.5-.5.7-.5,1.5.6.7.6,1.5,0,.7,0,1.5.3.7.3,1.4-1.1.7-1.1,1.4.3.7.3,1.4.3.7.3,1.5.1.7.1,1.5.5.7.5,1.5,0,.7,0,1.5,0,.7,0,1.5,0,.7,0,1.5-.1.7-.1,1.5-.5.7-.5,1.5-.4.7-.4,1.5.7.7.7,1.5,0,.7,0,1.5.1.7.1,1.5,0,.7,0,1.5.2.7.2,1.5,0,.7,0,1.5-.6.7-.6,1.5.1.7.1,1.5-.4.7-.4,1.5.7.7.7,1.5-1,.7-1,1.5.6.7.6,1.5-.3.7-.3,1.5.2.7.2,1.5.3.7.3,1.5-.3.7-.3,1.5.2.7.2,1.5-.3.7-.3,1.5-.1.7-.1,1.5.3.7.3,1.5,0,.7,0,1.5-.3.7-.3,1.5,0,.7,0,1.5.5,1,.6,1.4c0,.5,0,1,.2,1.4,0,.5.1,1,.2,1.4.1.5.3.9.5,1.4.2.5.7.7,1,1.1.2.4.5.8.8,1.2.3.4,0,1.3.2,1.7.3.4,1.3.1,1.6.5.3.3.1,1.3.5,1.6.4.3,1.1.2,1.5.5.4.3.8.5,1.3.7.4.2.9.4,1.3.6.5.2.8.6,1.3.8.5.1,1,0,1.5,0,.5,0,.9.4,1.4.4.5,0,1-.2,1.5-.2.7,0,.7.6,1.4.6s.7.3,1.4.3.7-1.1,1.4-1.1.7.2,1.4.2.7.3,1.4.3.7.4,1.4.4.7,0,1.4,0,.7-.9,1.4-.9.7,1.1,1.4,1.1.7-.9,1.4-.9.7.9,1.4.9.7-.4,1.4-.4.7-.6,1.4-.6.7.6,1.4.6.7-.6,1.4-.6.7,1,1.4,1,.7-.5,1.4-.5.7.4,1.4.4.7-.5,1.4-.5.7.3,1.4.3.7,0,1.4,0,.7.2,1.4.2.7-.4,1.4-.4.7-.5,1.4-.5.3,0,.4,0c-7.7-33.5-22-64.4-41.6-91.2-.4.2-1.2,0-1.6.2Z"/>
  <path class="cls-1" d="M274.6,275.1c0-.7-.8-.7-.8-1.4s-.2-.9-.3-1.4c0-.5.4-1,.3-1.5,0-.5-.4-.9-.6-1.3-.1-.5,0-1-.2-1.4-.2-.4,0-1.1-.2-1.5-.2-.4-.9-.6-1.1-1-.3-.4-.8-.6-1.1-.9-.3-.4,0-1.2-.4-1.5-.3-.3-1-.3-1.3-.6-.4-.3-.7-.6-1.1-.9-.4-.3-.4-1.1-.8-1.3-.4-.2-1.2.3-1.6.1-.4-.2-.7-.7-1.1-.9-.4-.2-.8-.4-1.2-.6-.4-.1-1,.4-1.4.3-.4,0-.8-.8-1.2-.8-.4,0-.9,0-1.4,0s-1-.2-1.5-.2c-.5,0-1,.1-1.5.2-.5,0-.9.6-1.3.8-.5.1-.9.4-1.3.6-.5.2-1.1,0-1.5.2-.6.3-.6.3-1.3.6-.6.3-.3,1-.9,1.3s-.8,0-1.4.4c-.6.3-.6.5-1.2.8-.6.3-.7.1-1.4.5-.6.3-.9-.1-1.5.2-.6.3-.2,1.2-.8,1.5-.6.3-1.1-.6-1.7-.3-.6.3-.5.6-1.1,1-.6.3-.8,0-1.4.4-.6.3-.6.5-1.2.8-.6.3-.4.8-1,1.1-.6.3-.8,0-1.4.4-.6.3-.4.8-1,1.2s-1-.3-1.6,0c-.6.3-.2,1.1-.8,1.5-.6.3-.6.3-1.3.6-.6.3-.9-.1-1.5.2-.6.3-.5.5-1.1.9-.4.2-1,.2-1.4.4-.4.3-.5.9-.9,1.2-.4.3-.8.5-1.2.8-.3.3-.6.7-.9,1.1-.3.4-1,.4-1.3.8-.3.4.3,1.3,0,1.7-.2.4-.7.7-.9,1.1-.2.4-.7.7-.9,1.2-.1.4.5,1.1.4,1.6-.1.5-.8.8-.9,1.3,0,.5-.5.9-.5,1.4,0,.5.2,1,.3,1.4,0,.5.7.9.8,1.3,0,.5-.3,1-.2,1.5.1.5-.2,1.1,0,1.5.2.4.6.8.8,1.2.2.4.5.8.8,1.2.2.4.8.6,1,1,.3.4,0,1.2.4,1.5.3.4.9.4,1.3.8.3.3.3,1.1.7,1.4.4.3,1,.2,1.4.5.4.3.7.8,1.1,1,.4.2,1.1-.2,1.6,0,.4.2.9.4,1.3.5.5.1.9,0,1.4,0,.5,0,.9.1,1.4.1.5,0,.9.2,1.4.2.7,0,.7.2,1.4.2s.7.2,1.4.2.7-.2,1.4-.2.7-.4,1.4-.4.7.5,1.4.5.7-.3,1.4-.3.7,0,1.4,0,.7.7,1.4.7.7,0,1.4,0,.7-.6,1.4-.6.7.3,1.4.3.7,0,1.4,0,.7,0,1.4,0,.7.3,1.4.3.7-.8,1.4-.8.7.9,1.4.9.7-.9,1.4-.9,1,1.1,1.5,1c.5,0,.9-.9,1.4-1,.5,0,.9-.2,1.4-.4.5-.1,1.2.4,1.7.2.5-.2.6-1.1,1-1.4.4-.2.8-.5,1.2-.8.4-.3.9-.4,1.3-.7.4-.3.7-.6,1.1-1,.3-.3,1-.5,1.3-.8.3-.4,0-1.2.3-1.6.3-.4.4-.8.7-1.3.2-.4.7-.7.9-1.2.2-.5,0-1,.1-1.5.1-.5,1.2-.7,1.3-1.2,0-.5-.8-1.1-.7-1.6,0-.5,1.1-.9,1.1-1.4,0-.7-.3-.7-.3-1.4s-.1-.7-.1-1.4-.6-.7-.6-1.4.5-.7.5-1.4.2-.7.2-1.4-.4-.7-.4-1.4,0-.7,0-1.4.8-.7.8-1.4Z"/>
  <path class="cls-1" d="M415.7,327.1c0-.5-.5-.9-.5-1.4,0-.5.2-1,.2-1.4,0-.5-.6-.8-.7-1.3-.1-.5.3-1.1.1-1.5-.2-.4-.6-.8-.8-1.2-.2-.4-.6-.8-.8-1.2-.2-.4-.7-.6-1-1-.3-.4.2-1.4-.1-1.7-.3-.4-.8-.6-1.1-1-.3-.3-1.3.1-1.7-.2-.4-.3-.5-.9-.9-1.2-.4-.3-.7-.6-1.2-.8-.4-.2-1.1.2-1.5,0-.4-.2-.7-.6-1.2-.7-.5-.1-.9-.4-1.3-.5-.5,0-.9-.2-1.4-.3-.5,0-.9-.3-1.4-.3-.7,0-.7.3-1.4.3s-.7-.1-1.4-.1-.7-.6-1.4-.6-.7.1-1.4.1-.7,0-1.4,0-.7,0-1.4,0-.7.3-1.4.3-.7,0-1.4,0-.7,0-1.4,0-.7.4-1.4.4-.7,0-1.4,0-.7-.1-1.4-.1-.7-.2-1.4-.2-.7.3-1.4.3-.7-.5-1.4-.5-.7.7-1.4.7-.7-.7-1.4-.7-.7.4-1.4.4-.7,0-1.4,0-.7-.4-1.4-.4-.7.2-1.4.2-.7-.4-1.4-.4-.7-.2-1.4-.2-.7.7-1.4.7-.7.2-1.4.2-.7-.8-1.4-.8-.7.5-1.4.5-.7.4-1.4.4-.7-.4-1.4-.4-.7-.3-1.4-.3-.7.6-1.4.6-.7,0-1.4,0-.7-.3-1.4-.3-.7-.5-1.4-.5-.7.1-1.4.1-.7.6-1.4.6-.7-.6-1.4-.6-.7-.1-1.4-.1-.7,0-1.4,0-.7.5-1.4.5-.7.2-1.5.2-.7-.8-1.4-.8-.7.9-1.4.9-.7,0-1.4,0-.7,0-1.4,0-.7-.6-1.4-.6-.7.5-1.4.5-.7-.5-1.5-.5-.7,0-1.4,0-.7.5-1.4.5-.7-.9-1.4-.9-.7,0-1.5,0-.7.1-1.5.1-.7.3-1.4.3c-.7,0-.7.5-1.5.5s-.7-.9-1.5-.9-.7.6-1.5.6-.7.2-1.5.2-.7-.6-1.5-.6-.7.6-1.5.6-.7.2-1.4.2-.7-.2-1.4-.2-.7-.2-1.5-.2-.7-.5-1.5-.5-.7.3-1.5.3-.7-.5-1.5-.5-.7.7-1.5.7-.7,0-1.5,0-.7-.3-1.5-.3c-.7,0-.7,0-1.5,0s-1-.2-1.5-.2c-.5,0-1,.1-1.5.2-.5,0-.9.6-1.3.8-.5.1-.9.4-1.3.6-.5.2-1.1,0-1.5.2-.4.2-.9.5-1.3.7-.4.3-.4,1.2-.7,1.5-.4.3-.9.4-1.3.8s-.6.8-.9,1.2c-.3.4-.8.6-1.1,1-.3.4-1,.6-1.2,1-.2.4.4,1.3.2,1.7-.2.5-1.3.6-1.5,1-.1.5,0,1.1,0,1.6,0,.5-.5,1-.5,1.5,0,.5,0,1,0,1.5,0,.7.5.7.5,1.4s-.3.7-.3,1.4.6.7.6,1.4-.8.7-.8,1.4.9.7.9,1.4,0,.7,0,1.4-.5.7-.5,1.4.2.7.2,1.4-.4.7-.4,1.4.4.7.4,1.4-.2.7-.2,1.4,0,.7,0,1.4-.6.7-.6,1.4.9.7.9,1.4-.3.7-.3,1.4-.4.7-.4,1.4.8.7.8,1.4-.6.7-.6,1.4-.4.7-.4,1.4.2.7.2,1.4.7.7.7,1.4-.5.7-.5,1.4-.5.7-.5,1.4.3.7.3,1.4.1.7.1,1.4.3.7.3,1.4-.6.7-.6,1.4.4.7.4,1.4-.6.7-.6,1.4.5.7.5,1.4-.3.7-.3,1.4.6.7.6,1.4,0,.7,0,1.4.3.7.3,1.4,0,.7,0,1.4-.2.7-.2,1.4-.2.7-.2,1.4-.2.7-.2,1.4.2.9.3,1.4c0,.5.5.8.6,1.3,0,.5-.3,1-.2,1.5.1.5.6.8.8,1.2.2.4.4.8.6,1.2.2.4-.2,1.2,0,1.6.3.4.5.9.8,1.2.3.4,1.1.3,1.4.7.3.3.4.9.8,1.2.4.3.7.7,1,1,.4.3.8.5,1.2.7.4.2.7.7,1.1.9.4.2,1.1-.3,1.5-.2.4.2.6,1.1,1,1.2.4.1,1.1-.7,1.5-.6.4,0,.7,1.2,1.2,1.2.4,0,.9-.8,1.4-.8s1,0,1.5-.1c.5,0,1.1.6,1.6.5.5,0,.8-1,1.2-1.2.5-.1.9-.3,1.4-.5.5-.2,1-.2,1.4-.4.6-.3.6-.4,1.3-.7.6-.3.8,0,1.4-.3.6-.3.3-.9.9-1.3.6-.3.6-.4,1.2-.8s.8,0,1.4-.4c.6-.3.4-.7,1.1-1s1.1.5,1.7.2c.6-.3.2-1.2.8-1.5s1.1.5,1.7.2.5-.6,1.1-.9c.6-.3.6-.5,1.2-.8.6-.3.4-.8,1-1.2.6-.3.9,0,1.5-.3.6-.3.7-.2,1.4-.5.6-.3.4-.7,1.1-1,.6-.3.7-.3,1.3-.6.6-.3,1,.4,1.7,0,.6-.3.2-1.1.9-1.4.6-.3.5-.5,1.2-.9.6-.3.9.1,1.5-.2.6-.3.5-.6,1.2-.9.6-.3.7-.1,1.4-.5.6-.3.9,0,1.5-.3.6-.3.4-.8,1-1.1.6-.3.5-.7,1.1-1,.6-.3.9.2,1.6-.1s.4-.8,1-1.1c.6-.3.6-.4,1.3-.7s.9.2,1.6-.1c.6-.3.2-1.1.9-1.4.6-.3.8,0,1.5-.3s.7-.2,1.3-.6c.6-.3.3-.9,1-1.3.6-.3,1,.2,1.6,0,.6-.3.5-.7,1.1-1,.6-.3.7-.2,1.4-.5.6-.3.9.1,1.5-.2.6-.3.3-1,.9-1.3s1,.3,1.6,0c.6-.3.4-.8,1-1.1.6-.3.5-.5,1.2-.9.6-.3.8,0,1.5-.3.6-.3.7-.3,1.3-.6.6-.3.2-1.1.9-1.4.6-.3.7-.2,1.4-.5.6-.3,1,.3,1.6,0,.6-.3.5-.5,1.2-.9.6-.3.3-.9.9-1.3.6-.3.7-.3,1.3-.6.6-.3,1.1.5,1.7.1.6-.3.6-.3,1.3-.7.6-.3.2-1.2.8-1.5.6-.3,1,.3,1.6,0,.6-.3.2-1.2.8-1.5s1.2.7,1.8.3c.6-.3,0-1.4.7-1.7.6-.3,1.1.6,1.8.2.6-.3.7-.3,1.3-.6.6-.3.5-.6,1.1-.9.6-.3.3-.9.9-1.3.6-.3.7-.1,1.4-.5.6-.3.9.2,1.6-.1.6-.3.2-1.2.8-1.5.6-.3.9.1,1.5-.2.6-.3.8,0,1.4-.4.6-.3.5-.7,1.1-1,.6-.3.7-.3,1.3-.6.6-.3.5-.6,1.1-.9.6-.3.6-.4,1.2-.8.6-.3.7-.2,1.3-.6.6-.3.7-.2,1.3-.5.6-.3.4-.7,1.1-1.1.6-.3,1,.4,1.7,0,.6-.3.6-.4,1.2-.8.6-.3.6-.5,1.2-.8.6-.3.4-.9,1-1.2.6-.3.6-.5,1.2-.8.6-.3.8,0,1.5-.4.6-.3.7-.2,1.4-.5.6-.3.4-.8,1-1.1.4-.2.9-.3,1.3-.5.4-.3,1.2,0,1.6-.3.4-.3.7-.7,1-1,.3-.3.4-.9.7-1.3.3-.4,1-.5,1.2-.9.3-.4.2-1,.5-1.4.2-.4.3-.9.4-1.4.2-.4.7-.8.8-1.2.1-.4.2-.9.3-1.4.1-.5,0-1,0-1.4,0-.5.6-.9.6-1.4Z"/>
  <path class="cls-1" d="M495.8,204.4c-.4,0-.5,0-1.1,0s-.7.7-1.4.7-.7-1-1.4-1-.7.2-1.4.2-.7.3-1.4.3-.7-.6-1.4-.6-.7.6-1.4.6-.7.2-1.4.2-.7-.4-1.4-.4-.7-.1-1.4-.1-.7.7-1.4.7-.7-.1-1.4-.1-.7-.7-1.4-.7-.7.5-1.4.5-.7-.7-1.4-.7-.7.6-1.4.6-.7-.2-1.4-.2-.7-.3-1.4-.3-.7.7-1.4.7-.7,0-1.4,0-.7-.4-1.4-.4-.7-.1-1.4-.1-.7.4-1.4.4-.7.1-1.4.1-.7-.7-1.4-.7-.7.4-1.4.4-.7.4-1.4.4-.7-.2-1.4-.2-.7-.4-1.4-.4-.7.9-1.4.9-.7-.5-1.4-.5-.7-.6-1.4-.6-.7.5-1.4.5-.7-.2-1.4-.2-.7-.1-1.4-.1-.7.8-1.4.8-.7,0-1.4,0-.7-.5-1.4-.5-.7.4-1.4.4-.7-.3-1.4-.3-.7,0-1.4,0-.7-.5-1.4-.5-.7,0-1.4,0-.7.5-1.4.5-.7.4-1.4.4-.7-.6-1.4-.6-.7.5-1.4.5-.7-.5-1.4-.5-.7.5-1.4.5-.7-.2-1.4-.2-.7,0-1.4,0-.7.2-1.4.2-.7,0-1.4,0-.7,0-1.4,0-.7-.3-1.4-.3-.7.6-1.4.6-.7-.5-1.4-.5-.7-.1-1.4-.1-.7.8-1.4.8-.7-.6-1.4-.6-.7-.2-1.4-.2-.7-.2-1.4-.2-.7.9-1.4.9-.7-.3-1.4-.3-.7-.1-1.4-.1-.7-.3-1.4-.3-.7-.2-1.4-.2-.7.9-1.4.9-.7-.5-1.4-.5-.7-.1-1.4-.1-.7.2-1.4.2-.7.6-1.4.6-.7-1.1-1.4-1.1-.7.4-1.4.4-.7-.4-1.4-.4-.7.2-1.4.2-.7.9-1.4.9-.7-.2-1.4-.2-.7-.5-1.4-.5-.7-.4-1.4-.4-.7,1-1.4,1-.7-1-1.4-1-.7-.1-1.4-.1-.7.8-1.4.8-.7-.6-1.4-.6-.7.3-1.4.3-.7-.1-1.4-.1-.7.2-1.4.2-.7-.5-1.4-.5-.7.5-1.4.5-.7,0-1.4,0-.7.4-1.4.4-.7-.2-1.4-.2-.7-.9-1.5-.9-.7,1-1.5,1-.9,0-1.4,0c-.5,0-1-.3-1.5-.2-.5,0-1.1-.3-1.6-.1s-1,.3-1.4.5c-.5.2-.6,1.1-1,1.4-.6.3-.7.2-1.4.5s-.5.5-1.1.9c-.6.3-.6.3-1.3.6s-.7.3-1.3.6c-.6.3-1-.3-1.6,0-.6.3-.6.4-1.2.8s-.4.7-1.1,1c-.6.3-.7.3-1.3.6s-.6.5-1.2.8c-.6.3-.6.5-1.2.8-.6.3-1-.4-1.6,0s-.6.4-1.2.7c-.6.3-.4.8-1,1.1-.6.3-.5.5-1.2.8-.6.3-.6.4-1.2.7-.6.3-1-.3-1.6,0-.6.3-.5.5-1.1.9-.6.3-.8,0-1.4.4-.6.3-.5.5-1.2.9-.6.3-.4.8-1,1.1-.6.3-.9-.2-1.6.1-.6.3-.1,1.2-.8,1.6s-.8,0-1.4.4-.8,0-1.4.4c-.6.3-.7.2-1.3.6-.6.3-.7.3-1.3.6-.6.3-.8,0-1.4.4-.6.3-.5.7-1.1,1-.6.3-.8,0-1.4.4-.6.3-.7.3-1.3.6-.6.3-.4.8-1,1.2-.6.3-.6.5-1.2.8-.6.3-.9-.1-1.5.2-.6.3-.4.8-1,1.1-.6.3-.7.1-1.4.5-.6.3-.6.5-1.2.8-.6.3-.7.2-1.3.6-.6.3-.7.2-1.3.5-.6.3-.8.1-1.4.5-.6.3-.2,1.1-.9,1.4-.6.3-.8,0-1.5.3-.6.3-.4.8-1,1.1-.6.3-.8.1-1.4.4-.6.3-.8,0-1.5.3-.6.3-.6.5-1.2.8-.6.3-.9,0-1.5.3-.6.3-.2,1.1-.8,1.5s-.7.2-1.4.5c-.4.2-1.1.2-1.5.4-.4.3-.4,1.1-.8,1.4-.4.3-.7.6-1,1-.3.3-.8.6-1.1,1-.3.4-1.2.3-1.5.7-.3.4,0,1.2-.1,1.6s-.6.8-.8,1.2c-.2.5.2,1.1,0,1.5-.1.5-1.2.7-1.3,1.2,0,.5-.1,1-.2,1.5,0,.5-.1,1-.1,1.5,0,.7.3.7.3,1.4s.4.7.4,1.4-.3.7-.3,1.4,0,.7,0,1.4.2.7.2,1.4-.7.7-.7,1.4,1.1.7,1.1,1.4-.6.7-.6,1.4.5.7.5,1.4-.4.7-.4,1.4.3.7.3,1.4-.5.7-.5,1.4-.2.7-.2,1.4.5.7.5,1.4.3.7.3,1.4,0,.7,0,1.4-.4.7-.4,1.4,0,.7,0,1.4-.4.7-.4,1.4.4.7.4,1.4-.4.7-.4,1.4.7.7.7,1.4.3.7.3,1.4-.3.7-.3,1.4-.4,1-.4,1.5c0,.5.3,1,.4,1.5,0,.5.7.8.8,1.3.1.5-.4,1.2-.2,1.6.2.5,1,.6,1.2,1.1.2.4.1,1.1.4,1.5.3.4.9.6,1.2,1,.3.4.7.7,1.1,1,.3.3.4,1,.8,1.3.4.3.9.4,1.3.7.4.3,1,.1,1.5.4.4.2.5,1.1,1,1.3.5.2,1,0,1.5.2.5.1.9.4,1.4.5.5,0,1-.4,1.5-.4.5,0,.9.4,1.4.4.7,0,.7.6,1.4.6s.7-.6,1.4-.6.7-.3,1.4-.3.7,1.1,1.4,1.1.7-.2,1.4-.2.7-.4,1.4-.4.7.6,1.4.6.7-1,1.4-1,.7.5,1.4.5.7.2,1.4.2.7.3,1.4.3.7-1.1,1.4-1.1.7,0,1.4,0,.7.9,1.4.9.7-.9,1.4-.9.7.7,1.4.7.7-.1,1.4-.1.7.4,1.4.4.7-.4,1.4-.4.7-.3,1.4-.3.7.7,1.4.7.7-.4,1.4-.4.7.3,1.4.3.7-.5,1.4-.5.7.1,1.4.1.7-.2,1.4-.2.7.7,1.4.7.7-.2,1.4-.2.7-.3,1.4-.3.7.8,1.4.8.7-.3,1.4-.3.7-.2,1.4-.2.7-.6,1.4-.6.7,1.1,1.4,1.1.7,0,1.4,0,.7-.9,1.4-.9.7.1,1.4.1.7.7,1.4.7.7-.3,1.4-.3.7-.3,1.4-.3.7.6,1.4.6.7-.4,1.4-.4.7.3,1.4.3.7-.7,1.4-.7.7.7,1.4.7.7,0,1.4,0,.7-.4,1.4-.4.7-.2,1.4-.2.7,0,1.4,0,.7.4,1.4.4.7.1,1.4.1.7-.3,1.4-.3.7,0,1.4,0,.7,0,1.4,0,.7.3,1.4.3.7-.4,1.4-.4.7.6,1.4.6.7.1,1.4.1.7,0,1.4,0,.7,0,1.4,0,.7-.3,1.4-.3.7-.1,1.4-.1.7.4,1.4.4.7-.2,1.4-.2.7,0,1.4,0,.7-.3,1.4-.3.7-.4,1.4-.4.7.3,1.4.3.7.6,1.4.6.7-.3,1.4-.3.7-.2,1.4-.2.7.2,1.4.2.7.4,1.4.4.7-.2,1.4-.2.7,0,1.4,0,.7-.3,1.4-.3.7.3,1.4.3.7-.2,1.4-.2.7.3,1.4.3.7.2,1.4.2.7-.9,1.4-.9.7.6,1.4.6.7,0,1.4,0,.7,0,1.4,0,.7-.7,1.4-.7.7-.2,1.4-.2.7,1.1,1.4,1.1.7-.9,1.4-.9.7.5,1.4.5.7.1,1.4.1.7-.8,1.4-.8.7,0,1.4,0,.7,0,1.4,0,.7,1,1.4,1,.7-.7,1.4-.7.7-.3,1.4-.3.7.3,1.4.3.7-.3,1.4-.3.7-.2,1.4-.2.7,1.1,1.4,1.1.7-1,1.4-1,.7.6,1.4.6.7-.3,1.4-.3.7-.2,1.4-.2.7.3,1.4.3.7.4,1.4.4.7-.3,1.4-.3.7.4,1.4.4.7-.2,1.4-.2.7.3,1.4.3.7,0,1.4,0,.7-.3,1.4-.3.7.5,1.4.5.7-1,1.4-1,.7.4,1.4.4.7,0,1.4,0,.7.5,1.4.5.7-.7,1.4-.7.7,0,1.4,0,.7.2,1.4.2.7.6,1.4.6.7-.6,1.4-.6.7-.1,1.4-.1.7.6,1.4.6.7-.2,1.4-.2.7.4,1.4.4.7-.3,1.4-.3.7-.5,1.4-.5.7,0,1.4,0,.7.4,1.4.4.7,0,1.4,0,.7.2,1.4.2.7-.3,1.4-.3.7.4,1.4.4.7-.9,1.4-.9.6.1.9.2c3.5-16.6,5.3-33.8,5.3-51.5s-1.4-30.8-4.2-45.6Z"/>
  <path class="cls-1" d="M491.7,311c-.7,0-.7.8-1.4.8s-.7-.8-1.4-.8-.7,1-1.4,1-.7,0-1.4,0-.7-.2-1.4-.2-1-.4-1.5-.3c-.5,0-1,.3-1.5.4-.5,0-1.1,0-1.5,0-.5.1-.6,1.3-1,1.5-.5.2-1.2-.2-1.6,0-.6.3-.6.4-1.3.7s-.8.1-1.4.5-.5.7-1.1,1c-.6.3-.6.5-1.2.8-.6.3-.9-.1-1.5.2-.6.3-.7.2-1.3.6-.6.3-.1,1.3-.7,1.6s-.9-.1-1.5.2c-.6.3-.5.6-1.1.9-.6.3-.8,0-1.4.4-.6.3-.5.5-1.2.9-.6.3-.8,0-1.4.4-.6.3-.6.5-1.2.8-.6.3-.9-.2-1.6.1-.6.3-.7.3-1.3.6-.6.3-.5.7-1.1,1-.6.3-.7.2-1.3.5s-.3,1-.9,1.4c-.6.3-.9-.2-1.6.1-.6.3-.6.4-1.2.8-.6.3-.6.4-1.3.7-.6.3-.6.3-1.3.7-.6.3-.5.5-1.2.9s-.7.2-1.3.6-.5.6-1.1,1c-.6.3-.6.4-1.3.7-.6.3-.6.3-1.3.7-.6.3-.6.4-1.3.7-.6.3-.7.2-1.3.6-.6.3-1-.4-1.6,0-.6.3-.2,1.1-.9,1.4s-.6.4-1.2.7-1-.3-1.6,0c-.6.3-.4.8-1,1.2s-.7.2-1.4.5-.6.3-1.3.7-.4.7-1.1,1.1c-.6.3-.7.3-1.3.6-.6.3-.9,0-1.5.3-.6.3-.4.7-1.1,1-.6.3-.8,0-1.5.3s-.5.6-1.1.9-.9-.1-1.5.2-.4.7-1.1,1.1c-.6.3-.7.2-1.3.6-.6.3-.6.5-1.2.8-.6.3-.5.6-1.1.9-.6.3-.6.4-1.2.7-.6.3-.5.5-1.2.9s-.8,0-1.4.4c-.6.3-.9-.1-1.5.2-.6.3-.7.3-1.3.7-.6.3-.5.6-1.1,1-.6.3-.5.5-1.2.9-.6.3-.7.2-1.3.6s-.9,0-1.5.3c-.6.3-.4.8-1,1.1-.6.3-.6.4-1.3.7-.6.3-.5.6-1.1.9-.6.3-1.1-.4-1.7-.1-.6.3-.4.8-1,1.2-.6.3-.8,0-1.5.4-.6.3-.6.5-1.2.8-.6.3-.4.7-1.1,1-.6.3-.5.5-1.2.9-.6.3-.6.4-1.2.7s-.9-.2-1.6.2c-.6.3-.7.1-1.4.5-.6.3-.6.4-1.2.8-.6.3-.2,1.1-.9,1.5-.6.3-.8,0-1.4.4-.6.3-.7.2-1.3.6-.6.3-.8,0-1.5.3-.6.3-.3.9-1,1.2-.6.3-.7.1-1.4.5-.6.3-.9-.2-1.5.2-.6.3-.5.7-1.1,1-.6.3-.5.5-1.2.9-.6.3-.8.1-1.4.5-.6.3-.6.4-1.2.7-.6.3-.6.5-1.2.8-.6.3-.6.4-1.2.8-.6.3-.8,0-1.4.4-.6.3-.5.6-1.2.9s-.5.6-1.1,1-.7.2-1.4.5c-.6.3-.8,0-1.5.3-.6.3-.5.5-1.2.9-.6.3-.6.4-1.2.8-.6.3-.7.3-1.3.7-.6.3-.6.4-1.2.7-.6.3-.8,0-1.5.4s-.6.4-1.2.8c-.6.3-.7.1-1.4.5-.6.3-.7.3-1.3.7-.6.3-.7.3-1.3.6-.6.3-.7.3-1.3.6-.6.3-.4.8-1.1,1.1-.6.3-.6.5-1.2.8-.6.3-.4.8-1,1.1-.6.3-1.2-.7-1.8-.3-.6.3-.4.9-1,1.2-.6.3-.6.3-1.3.7s-.7.2-1.4.5-.5.7-1.1,1c-.6.3-.6.5-1.2.8-.6.3-.6.5-1.2.8-.6.3-.9-.2-1.6.2-.6.3-.7.1-1.4.5-.6.3-.6.5-1.2.8-.6.3-.5.6-1.2.9-.6.3-.7.3-1.3.6-.6.3-.4.8-1,1.1-.6.3-.7.2-1.4.5-.6.3-.9,0-1.5.3-.6.3-.3.9-1,1.3-.6.3-.8,0-1.5.3-.6.3-.8,0-1.4.4-.6.3-.7.1-1.4.5-.6.3-.5.5-1.2.9-.6.3-.3.9-1,1.3-.6.3-.8.1-1.4.5-.6.3-.5.7-1.1,1-.6.3-.9-.2-1.6.2-.6.3-.4.8-1,1.2-.6.3-.9,0-1.5.3-.6.3-.4.8-1,1.1-.6.3-1-.2-1.6.1-.6.3-.3.9-1,1.3-.6.3-.6.4-1.2.8-.6.3-.7.3-1.3.6-.6.3-1-.3-1.6,0-.6.3-.6.4-1.2.8-.6.3-.4.7-1.1,1.1-.6.3-.5.7-1.1,1-.6.3-.8,0-1.4.4-.6.3-.6.4-1.3.7-.6.3-1-.3-1.6,0-.6.3-.6.5-1.2.8-.6.3-.4.8-1,1.1-.6.3-.5.7-1.1,1-.6.3-1.1-.5-1.7-.1-.6.3-.5.7-1.1,1-.6.3-.6.5-1.2.9-.6.3-.6.5-1.2.8-.6.3-.6.4-1.2.8-.4.2-.8.5-1.2.8-.4.3-1.1.2-1.4.5-.4.3-.4,1-.8,1.3-.3.3-1.3.2-1.6.6-.3.4-.5.9-.8,1.3-.3.4-.4.9-.7,1.3-.2.4.1,1.1,0,1.6-.2.5-1.2.6-1.3,1.1-.1.5,0,1,0,1.5,0,.5-.4,1-.5,1.4,0,.5.7,1,.7,1.5,0,.7-.1.7-.1,1.4s0,.7,0,1.4.3.7.3,1.4-1,.7-1,1.4.8.7.8,1.4-.6.7-.6,1.4.4.7.4,1.4.4.7.4,1.4-.8.7-.8,1.4.1.7.1,1.4,0,.7,0,1.4.8.7.8,1.4-.6.7-.6,1.4-.4.7-.4,1.4.4.7.4,1.4,0,.7,0,1.4-.2.7-.2,1.4.4.7.4,1.4.2.7.2,1.4-.5.7-.5,1.4-.2.7-.2,1.4.3.7.3,1.4-.2.7-.2,1.4-.3.7-.3,1.4.2.7.2,1.4.7.7.7,1.4-.9.7-.9,1.4,1.1.7,1.1,1.4,0,.7,0,1.4-.6.7-.6,1.4.6.7.6,1.4-1.1.7-1.1,1.4.3.7.3,1.4.7.7.7,1.4-.4.7-.4,1.4-.7.7-.7,1.4.6.7.6,1.4-.2.7-.2,1.4-.4.7-.4,1.4.3.7.3,1.4.3.7.3,1.4.2.7.2,1.4-.1.7-.1,1.4-.7.7-.7,1.4.7.7.7,1.4.2.7.2,1.4,0,.7,0,1.4-.4.7-.4,1.4-.1.7-.1,1.4,0,.4,0,.5c101.7-13.7,184-88.6,208.6-186.4-.2-.1-.4-.3-.7-.3Z"/>
  <path class="cls-1" d="M149.8,479.1c.6-.3.4-.7,1-1.1.6-.3.9.1,1.5-.2s.5-.6,1.1-.9c.6-.3.6-.5,1.2-.8s.5-.6,1.1-.9c.6-.3,1.1.5,1.7.2.6-.3.6-.4,1.2-.8.6-.3.2-1.2.8-1.6s.9,0,1.5-.3c.6-.3.7-.2,1.3-.5.6-.3.3-.9,1-1.2.6-.3.8,0,1.4-.4.6-.3.7-.2,1.3-.6.6-.3.7-.3,1.3-.6.6-.3.7-.2,1.4-.5s.5-.6,1.1-.9c.6-.3.7-.3,1.3-.6.6-.3.9.2,1.6-.1.6-.3.6-.4,1.2-.8.6-.3.6-.4,1.2-.8.6-.3.7-.3,1.3-.6.6-.3.5-.6,1.1-.9.6-.3.6-.4,1.2-.7.6-.3.7-.3,1.3-.6.6-.3.4-.7,1.1-1,.6-.3.6-.4,1.2-.8.6-.3.7-.2,1.3-.6s.7-.2,1.4-.5c.6-.3.5-.6,1.1-.9.6-.3.9,0,1.5-.3.6-.3.3-1,.9-1.3.6-.3,1,.3,1.6,0s.5-.7,1.1-1c.6-.3.6-.4,1.2-.7.6-.3.8,0,1.5-.3.6-.3.5-.5,1.2-.9.6-.3.8,0,1.5-.3s.7-.2,1.4-.5c.6-.3.3-1,.9-1.3.6-.3.5-.5,1.2-.9.6-.3,1,.3,1.6,0,.6-.3.4-.8,1-1.1.6-.3.4-.7,1.1-1,.6-.3.8,0,1.4-.4.6-.3.8-.1,1.4-.5.6-.3.4-.9,1-1.2.6-.3.6-.3,1.3-.7.6-.3.8-.1,1.4-.4.6-.3.9.1,1.5-.2.6-.3.6-.5,1.2-.8.6-.3.3-.9,1-1.2s.9.2,1.6-.1.7-.2,1.3-.6c.6-.3.6-.4,1.3-.7.6-.3.4-.8,1-1.1.6-.3.5-.5,1.2-.9.6-.3,1,.4,1.7,0,.6-.3.2-1.2.8-1.5s.6-.4,1.3-.7q.6-.3,1.3-.7c.6-.3.9.2,1.6-.1.6-.3.4-.8,1-1.2.6-.3.9,0,1.5-.3.6-.3.7-.3,1.3-.6.6-.3.4-.8,1-1.1.6-.3,1,.4,1.7,0,.6-.3.7-.3,1.3-.6s.6-.5,1.2-.8c.6-.3.5-.6,1.1-1s.4-.8,1-1.1c.6-.3,1.1.4,1.7.1.6-.3.4-.9,1-1.2.6-.3.5-.6,1.2-.9.6-.3.9.2,1.6-.1s.4-.8,1-1.2c.6-.3.5-.5,1.2-.9.6-.3.7-.2,1.3-.5.6-.3.7-.2,1.3-.5.6-.3.9,0,1.5-.2.6-.3.5-.6,1.1-.9.6-.3.9.1,1.5-.2.6-.3.3-1,.9-1.3.6-.3.6-.4,1.2-.7.6-.3.8,0,1.4-.4.6-.3.8,0,1.4-.4.6-.3.6-.3,1.3-.7.6-.3.6-.5,1.2-.8.6-.3.6-.4,1.2-.8.6-.3.7-.2,1.3-.6.6-.3.6-.5,1.2-.8.6-.3.7-.3,1.3-.7q.6-.3,1.3-.7c.4-.2,1-.2,1.4-.5.4-.3.8-.7,1.1-1,.4-.3.5-.9.9-1.3.3-.3.5-.9.8-1.3.3-.4,1.3-.3,1.5-.7.3-.4.5-.9.8-1.3.2-.4-.2-1.2,0-1.7.2-.5.2-1,.3-1.4.1-.5,1.2-.7,1.2-1.2,0-.5-.3-1.1-.3-1.5,0-.5,0-1,0-1.5,0-.7.2-.7.2-1.4s-.7-.7-.7-1.4.2-.7.2-1.4,0-.7,0-1.4,0-.7,0-1.4.5-.7.5-1.4,0-.7,0-1.4.4-.7.4-1.4,0-.7,0-1.4-.2-.7-.2-1.4.3-.7.3-1.4-.4-.7-.4-1.4-.7-.7-.7-1.4.9-.7.9-1.4-.7-.7-.7-1.4.8-.7.8-1.4-.2-.7-.2-1.4-.3-.7-.3-1.4.2-.7.2-1.4,0-.7,0-1.4-.2-.7-.2-1.4-.2-.7-.2-1.4.8-.7.8-1.4-1-.7-1-1.4,1.1-.7,1.1-1.4-1.2-.7-1.2-1.4,1.2-.7,1.2-1.4-.7-.7-.7-1.4-.4-.7-.4-1.4,1.1-.7,1.1-1.4,0-.7,0-1.4-.3-.7-.3-1.4-.4-.7-.4-1.4-.3-.7-.3-1.4,1.1-.7,1.1-1.4-.7-.7-.7-1.4,0-.7,0-1.4.2-.7.2-1.4.5-.7.5-1.4-.7-.7-.7-1.4.8-.7.8-1.4,0-.7,0-1.4-.3-.7-.3-1.4-.6-.7-.6-1.4.8-.7.8-1.4-.7-.7-.7-1.4.1-.7.1-1.4.6-.7.6-1.4,0-.7,0-1.4.2-.7.2-1.4-.7-.7-.7-1.4,0-.7,0-1.4.3-.7.3-1.4-.3-1-.4-1.5c0-.5,0-1-.2-1.5,0-.5,0-1-.2-1.5-.1-.5-.5-.9-.7-1.3-.2-.5-.1-1-.3-1.5-.2-.4-.3-1-.6-1.4-.3-.4-.7-.8-1-1.2-.3-.4-1.2-.3-1.5-.6s-.4-1-.8-1.3c-.4-.3-.5-1-.9-1.2-.4-.3-1.2.1-1.7-.1-.4-.2-.7-.7-1.2-.9-.5-.2-1.1.2-1.5,0-.5-.1-.9-.3-1.4-.4-.5,0-.9-.3-1.4-.3-.5,0-.9-.2-1.4-.2-.7,0-.7-.2-1.4-.2s-.7.4-1.4.4-.7-.9-1.4-.9-.7.4-1.4.4-.7,0-1.4,0-.7-.6-1.4-.6-.7,0-1.4,0-.7.6-1.4.6-.7.5-1.4.5-.7-1-1.4-1-.7.7-1.4.7-.7-.3-1.4-.3-.7-.6-1.4-.6-.7,1-1.4,1-.7-.3-1.4-.3-.7-.3-1.4-.3-.7,0-1.4,0-.7.7-1.4.7-.7-.8-1.4-.8-.7,0-1.4,0-.7.3-1.4.3-.7,0-1.4,0-.7-.3-1.4-.3-.7.9-1.4.9-.7-1-1.4-1-.7.2-1.4.2-.7.2-1.4.2-.7,0-1.4,0-.7-.4-1.4-.4-.7.9-1.4.9-.7-.9-1.4-.9-.7,0-1.4,0-.7.1-1.4.1-.7-.2-1.4-.2-.7.8-1.4.8-.7,0-1.4,0-.7-.3-1.4-.3-.7,0-1.4,0-.7-.4-1.4-.4-.7.3-1.4.3-.7-.5-1.4-.5-.7.5-1.4.5-.7-.4-1.4-.4-.7-.2-1.4-.2-.7.7-1.4.7-.7,0-1.4,0-.7-.2-1.4-.2-.7.1-1.4.1-.7-.5-1.4-.5-.7.7-1.4.7-.7-.5-1.4-.5-.7.3-1.4.3-.7-.5-1.4-.5-.7.9-1.4.9-.7-.5-1.4-.5-.7.4-1.4.4-.7-.8-1.4-.8-.7.7-1.4.7-.7.3-1.4.3-.7-.4-1.4-.4-.7-.1-1.4-.1-.7-.3-1.4-.3-.7.3-1.4.3-.7-.1-1.4-.1-.7-.4-1.4-.4-.7.6-1.4.6-.7.5-1.4.5-.7-.8-1.4-.8-1,0-1.5,0c-.5,0-1,.2-1.5.3-.5,0-.8.9-1.3,1s-1,0-1.5.1c-.5.2-.6.9-1.1,1.1-.6.3-.9-.2-1.5.2s-.9-.2-1.6.1-.5.6-1.1,1c-.6.3-.3.9-1,1.2-.6.3-1.1-.5-1.7-.2-.6.3,0,1.3-.7,1.7-.6.3-.8,0-1.4.4-.6.3-.8,0-1.4.4-.6.3-.4.7-1.1,1.1-.6.3-1-.4-1.7,0s-.6.3-1.3.7c-.6.3-.4.7-1.1,1-.6.3-.5.6-1.1,1-.6.3-.6.4-1.2.7s-.6.4-1.2.7c-.6.3-.6.4-1.2.8-.6.3-.8.1-1.4.5-.6.3-.8.1-1.4.5-.6.3-.4.7-1.1,1.1-.6.3-1-.3-1.6,0s-.5.5-1.2.9-.8.1-1.4.4c-.6.3-.2,1.1-.8,1.5s-.7.2-1.3.6c-.6.3-.9-.2-1.5.2-.6.3-.4.7-1.1,1.1-.6.3-.7.2-1.4.5s-.9,0-1.5.3-.2,1.1-.8,1.5c-.6.3-1-.3-1.6,0s-.8.1-1.4.5c-.6.3-.2,1.1-.9,1.4s-.5.6-1.1.9-.6.3-1.3.7c-.6.3-1.2-.7-1.8-.4s-.4.8-1,1.1c-.6.3-.8,0-1.5.3-.6.3-.5.6-1.1,1-.6.3-.5.7-1.1,1-.6.3-.9-.2-1.6.1-.6.3-.5.5-1.2.9-.6.3-.3,1-.9,1.3-.6.3-.9-.2-1.6.2-.6.3-.5.5-1.2.9-.6.3-.8.1-1.4.5-.6.3-.8.1-1.4.5-.6.3-.5.6-1.1,1-.6.3-.7.1-1.4.5s-.4.8-1,1.1c-.6.3-.7.2-1.3.6-.6.3-.4.7-1,1.1s-.7.2-1.4.5c-.6.3-.6.5-1.2.8-.6.3-1-.4-1.7,0-.6.3-.2,1.1-.9,1.4-.6.3-.9-.2-1.6.1s-.6.5-1.2.8-.7.2-1.4.5-.5.7-1.1,1c-.6.3-1-.3-1.6,0s-.6.4-1.2.8-.6.5-1.2.8c-.6.3-.4.8-1,1.1-.6.3-1-.3-1.6,0s-.6.5-1.2.8c-.6.3-.3,1-.9,1.3-.6.3-.7.3-1.3.6s-.8,0-1.5.3-.4.7-1.1,1c-.6.3-1-.3-1.6,0-.6.3-.4.7-1,1.1-.6.3-.5.5-1.2.9-.6.3-.6.5-1.2.8-.6.3-.7.3-1.3.6s-.7.1-1.4.5c-.6.3-.4.7-1.1,1.1-.6.3-1.1-.5-1.7-.2-.6.3-.6.4-1.3.7-.6.3-.5.6-1.1,1-.6.3-.5.7-1.1,1-.6.3-.6.3-1.3.7s-.5.5-1.2.9c-.6.3-.6.4-1.2.8-.6.3-1.1-.4-1.7,0-.6.3-.3.9-1,1.2-.6.3-.9-.2-1.6.1-.6.3-.2,1.1-.8,1.5-.6.3-.9-.2-1.5.2-.6.3-.4.7-1.1,1.1s-.9-.2-1.6.1c-.6.3-.5.6-1.2.9-.6.3-.5.5-1.2.9-.6.3-.6.3-1.3.7-.6.3-.6.4-1.2.7,26.6,44.7,66.7,80.4,114.7,101.4,0,0,0,0,0,0Z"/>
  <path class="cls-1" d="M273.8,498.7c0-.7-.1-.7-.1-1.4s.2-.7.2-1.4.5-.7.5-1.4-.9-.7-.9-1.4,1.1-.7,1.1-1.4-.3-.7-.3-1.4.3-.7.3-1.4-.1-.7-.1-1.4-.5-.7-.5-1.4.3-.7.3-1.4-.6-.7-.6-1.4.8-.7.8-1.4-.9-.7-.9-1.4,0-.7,0-1.4.5-.7.5-1.4-.2-.7-.2-1.4.4-.7.4-1.4-.4-.7-.4-1.4.2-.7.2-1.4,0-.7,0-1.4.6-.7.6-1.4-.9-.7-.9-1.4.3-.7.3-1.4.4-.7.4-1.4-.8-.7-.8-1.4.6-.7.6-1.4.4-.7.4-1.4-.2-.7-.2-1.4-.7-.7-.7-1.4.5-.7.5-1.4.5-.7.5-1.4-.3-.7-.3-1.4-.1-.7-.1-1.4-.3-.7-.3-1.4.6-.7.6-1.4-.4-.9-.4-1.4c0-.5.5-1,.4-1.5,0-.5-.6-.8-.8-1.3-.1-.5,0-1-.2-1.5-.2-.4-.9-.6-1.2-1s-.4-.8-.6-1.2c-.3-.4-.7-.6-1-1-.3-.4-.6-.7-.9-1-.3-.3-.5-.8-.9-1.1-.3-.3-.6-.7-1-1-.4-.3-.7-.7-1.1-.9-.4-.2-.9-.3-1.3-.5-.4-.2-1,0-1.4-.1-.4-.2-.7-.8-1.1-.9-.4-.1-.9.1-1.4,0-.4,0-.9-.1-1.3-.2-.4,0-.9-.8-1.3-.8s-1,0-1.5,0c-.5,0-.9.8-1.4.9-.5,0-1,0-1.5,0-.5.1-1,.2-1.4.4-.5.2-.9.5-1.3.7-.6.3-.8.1-1.4.5s-.3,1-.9,1.3-1-.4-1.7,0c-.6.3-.2,1.2-.8,1.5-.6.3-1.1-.6-1.8-.3s-.2,1.1-.9,1.4-.6.4-1.2.7c-.6.3-1-.3-1.6,0s-.2,1.1-.9,1.4-.6.4-1.3.7c-.6.3-.7.1-1.4.5-.6.3-.6.4-1.3.7-.6.3-.8,0-1.4.3-.6.3-.3.9-.9,1.3-.6.3-.6.4-1.2.8-.6.3-.8,0-1.4.4-.6.3-.4.7-1.1,1-.6.3-1.1-.5-1.7-.2-.6.3-.2,1.2-.8,1.5-.6.3-1.1-.5-1.7-.2-.6.3-.5.6-1.1.9-.6.3-.6.5-1.2.8-.6.3-.4.8-1,1.2-.6.3-.9,0-1.5.3-.6.3-.7.2-1.4.5-.6.3-.4.7-1.1,1-.6.3-.7.3-1.3.6-.6.3-1-.4-1.7,0s-.2,1.1-.9,1.4c-.6.3-.5.5-1.2.9-.6.3-.9-.1-1.5.2-.6.3-.5.6-1.2.9-.6.3-.7.1-1.4.5-.6.3-.9,0-1.5.3-.6.3-.4.8-1,1.1s-.5.7-1.1,1c-.6.3-.9-.2-1.6.1-.6.3-.4.8-1,1.1-.6.3-.6.4-1.3.7-.6.3-.9-.2-1.6.1-.6.3-.2,1.1-.9,1.4-.6.3-.8,0-1.4.3-.6.3-.7.2-1.3.6-.6.3-.3.9-1,1.3-.6.3-1-.2-1.6,0-.6.3-.5.7-1.1,1-.6.3-.7.2-1.4.5-.6.3-.9-.1-1.5.2-.6.3-.3,1-.9,1.3-.6.3-1-.3-1.6,0-.6.3-.4.8-1,1.1-.6.3-.5.5-1.2.9s-.8,0-1.5.3c-.6.3-.7.3-1.3.6-.6.3-.2,1.1-.9,1.4-.6.3-.7.2-1.4.5-.6.3-1-.3-1.6,0-.6.3-.5.5-1.2.9-.6.3-.3.9-.9,1.3-.6.3-.7.3-1.3.6-.6.3-1.1-.5-1.7-.1-.6.3-.6.3-1.3.7-.6.3-.2,1.2-.8,1.5-.6.3-1-.3-1.6,0-.6.3-.2,1.2-.8,1.5-.6.3-1.2-.7-1.8-.3-.6.3,0,1.4-.7,1.7-.6.3-1.1-.6-1.8-.2-.6.3-.7.3-1.3.6-.6.3-.5.6-1.1.9s-.3.9-.9,1.3c-.1,0-.2.1-.3.1,27.4,10.3,57,15.9,88,15.9s16-.4,23.8-1.1c0,0,0,0,0-.1Z"/>
  <path class="cls-1" d="M284,3.1c0,.7,0,.7,0,1.4s-.2.7-.2,1.4.6.7.6,1.4-.5.7-.5,1.4-.2.7-.2,1.4,0,.7,0,1.4.4.7.4,1.4-.7.7-.7,1.4.3.7.3,1.4-.3.7-.3,1.4.5.7.5,1.4-.2.7-.2,1.4-.3.7-.3,1.4.4.7.4,1.4.7.7.7,1.4-.2.7-.2,1.4-.6.7-.6,1.4.1.7.1,1.4,0,.7,0,1.4.8.7.8,1.4-.1.7-.1,1.5-1,.7-1,1.4.1.7.1,1.4.8.7.8,1.4-.3.7-.3,1.4-.6.7-.6,1.4.2.7.2,1.4.4.7.4,1.5-.7.7-.7,1.4.3.7.3,1.4.3.7.3,1.4.2.7.2,1.5.1.7.1,1.5-.9.7-.9,1.4.7.7.7,1.5-.3.7-.3,1.5.4.7.4,1.5-.4.7-.4,1.5-.1.7-.1,1.5.4.7.4,1.5-.4.7-.4,1.4,0,.7,0,1.4,0,.7,0,1.5.1.7.1,1.5.5.7.5,1.5-.6.7-.6,1.5.9.7.9,1.5-1.1.7-1.1,1.5.9.7.9,1.5-.7.7-.7,1.5,1,.9,1,1.4c0,.5-.6,1.1-.5,1.5,0,.5.3,1,.4,1.4.1.5.4.9.6,1.4.2.5,0,1.2.2,1.6.2.4.9.6,1.2,1,.3.4.3,1.1.6,1.4.3.4.6.9.9,1.2.3.3.9.5,1.3.8.4.3.7.8,1.1,1,.4.3.9.5,1.3.7.4.2,1,.2,1.5.4.5.2.9.4,1.4.6.5.1,1,.3,1.5.4.5,0,1,0,1.5,0,.5,0,1,.1,1.5.1.7,0,.7-.1,1.4-.1s.7-.5,1.4-.5.7.9,1.4.9.7,0,1.4,0,.7,0,1.4,0,.7,0,1.4,0,.7,0,1.4,0,.7,0,1.4,0,.7-1,1.4-1,.7.9,1.4.9.7-.8,1.4-.8.7.7,1.4.7.7-.4,1.4-.4.7.7,1.4.7.7-.5,1.4-.5.7.2,1.4.2.7-.2,1.4-.2.7-.4,1.4-.4.7.1,1.4.1.7.6,1.4.6.7,0,1.4,0,.7-.8,1.4-.8.7.1,1.4.1.7.8,1.4.8.7-.7,1.4-.7.7.3,1.4.3.7-.2,1.4-.2.7-.2,1.4-.2.7,0,1.4,0,.7,1,1.4,1,.7-.5,1.4-.5.7,0,1.4,0,.7.5,1.4.5.7-.2,1.4-.2.7,0,1.4,0,.7.2,1.4.2.7-.4,1.4-.4.7-.4,1.4-.4.7.7,1.4.7.7.2,1.4.2.7,0,1.4,0,.7-.7,1.4-.7.7.8,1.4.8.7-.7,1.4-.7.7.1,1.4.1.7-.2,1.4-.2.7.6,1.4.6.7-.4,1.4-.4.7,0,1.4,0,.7.6,1.4.6.7-.7,1.4-.7.7.5,1.4.5.7-.3,1.4-.3.7.4,1.4.4.7-.4,1.4-.4.7.3,1.4.3.7-.7,1.4-.7.7.4,1.4.4.7-.4,1.4-.4.7.4,1.4.4.7-.3,1.4-.3.7.6,1.4.6.7.3,1.4.3.7-.5,1.4-.5.7.1,1.4.1.7-.5,1.4-.5.7.6,1.4.6.7-.5,1.4-.5.7.6,1.4.6.7-.5,1.4-.5.7.7,1.4.7.7-.3,1.4-.3.7-.2,1.4-.2.7-.2,1.4-.2.7.6,1.4.6.7-.5,1.4-.5.7.8,1.4.8.7-.5,1.4-.5.7.5,1.4.5.7-.8,1.4-.8.7-.2,1.4-.2.7.3,1.4.3.7.5,1.4.5.7-.3,1.4-.3.7-.3,1.4-.3.7,0,1.4,0,.7.8,1.4.8.7.1,1.4.1.7-1,1.4-1,.7.7,1.4.7.7-.4,1.4-.4.7,0,1.4,0,.7.3,1.4.3.7-.5,1.4-.5.7.9,1.4.9.7-.9,1.4-.9.7.7,1.4.7.7-.7,1.4-.7.7.3,1.4.3.7-.2,1-.4C403.2,43.3,347.4,10.9,284,2.3c0,.2,0,.4,0,.7Z"/>
  <path class="cls-1" d="M7.3,195c.7,0,.7-1,1.4-1s.7.9,1.4.9.7,0,1.4,0,.7-.5,1.4-.5.7.4,1.4.4.7-.8,1.4-.8.7.6,1.4.6.7.4,1.4.4.7-.9,1.4-.9.7,0,1.4,0,.7.9,1.4.9.7,0,1.4,0,.7-.8,1.4-.8.7.9,1.4.9.7-.4,1.4-.4.7,0,1.4,0,.7,0,1.4,0,.7-.2,1.4-.2.7-.4,1.4-.4.7.4,1.4.4.7,0,1.4,0,.7-.3,1.4-.3.7,1,1.4,1,.7-.5,1.4-.5.7,0,1.4,0,.7-.6,1.4-.6.7.5,1.4.5.7.4,1.4.4.7-.4,1.4-.4.7,0,1.4,0,.7,0,1.4,0,.7-.3,1.4-.3.7.1,1.4.1.7-.3,1.4-.3.7,0,1.4,0,.7.5,1.4.5.7-.3,1.4-.3.7-.2,1.4-.2.7.6,1.4.6.7-.2,1.4-.2.7.5,1.4.5.7-.2,1.4-.2.7-.7,1.4-.7.7,1.1,1.4,1.1.7-.2,1.4-.2.7-.6,1.4-.6.7.7,1.4.7.7-.1,1.4-.1.7-.1,1.4-.1.7.1,1.4.1.7-.9,1.4-.9.7.2,1.4.2.7.2,1.4.2.7,0,1.4,0,.7.7,1.4.7.7-.7,1.4-.7.7.2,1.4.2.7,0,1.4,0,.7.1,1.4.1.7-.5,1.4-.5.7,0,1.4,0,.7.4,1.4.4.7-.2,1.4-.2.7.7,1.4.7.7-.4,1.4-.4.7-.7,1.4-.7.7.7,1.4.7.7.2,1.4.2.7-.9,1.4-.9.7.3,1.4.3.7.4,1.4.4.7.3,1.4.3.7,0,1.4,0,.7,0,1.4,0,.7-.7,1.4-.7.7.8,1.4.8.7-.5,1.4-.5.7-.3,1.4-.3.7.6,1.4.6.7-.8,1.4-.8.7.3,1.4.3.7.5,1.4.5.7-.6,1.4-.6.7.6,1.4.6.7-.2,1.4-.2.7.5,1.4.5.7-.6,1.4-.6.7-.3,1.4-.3.7.3,1.4.3.7.6,1.4.6.7-.5,1.4-.5.7.4,1.4.4.7-.2,1.4-.2.7,0,1.4,0,.7-.2,1.4-.2.7-.3,1.4-.3.7.2,1.4.2.7-.5,1.4-.5.7.5,1.4.5.7.6,1.4.6.7-.7,1.4-.7.7,0,1.4,0,.7,0,1.4,0,.7-.3,1.4-.3.7.4,1.4.4.7,0,1.4,0,.7.6,1.4.6.7-1,1.4-1,.7.9,1.4.9.7-.9,1.4-.9.7,1,1.4,1,.7-.1,1.4-.1.7-.9,1.4-.9.7,1.1,1.4,1.1.7-.9,1.4-.9.7.1,1.4.1.7.4,1.4.4.7,0,1.4,0,.7,0,1.4,0,.7-.3,1.4-.3.7.3,1.4.3.7-.1,1.4-.1.7,0,1.4,0,.7-.4,1.4-.4.7-.2,1.4-.2.7.5,1.4.5.7,0,1.4,0,.7,0,1.4,0,.7.5,1.4.5.7,0,1.4,0,.7-.4,1.4-.4.7.5,1.4.5.7-.7,1.4-.7.7-.4,1.4-.4.7,0,1.4,0,.7.8,1.4.8.7.2,1.4.2.7-.7,1.4-.7.7-.2,1.4-.2.7.6,1.4.6.7,0,1.4,0,.7-.4,1.4-.4.7,0,1.4,0,.7.6,1.4.6.7-.5,1.4-.5.7,0,1.4,0,.7,0,1.4,0,.7,0,1.4,0,.7-.4,1.4-.4.7.1,1.4.1.7,0,1.4,0,.7,0,1.4,0,.7-.2,1.4-.2.7.5,1.4.5.7-.1,1.4-.1.7.5,1.4.5.7-.5,1.4-.5.7,0,1.4,0,.7-.3,1.4-.3.7.2,1.4.2.7,0,1.4,0,.7.8,1.4.8.7,0,1.4,0,.7-.2,1.4-.2.7-.9,1.4-.9.7,1.1,1.4,1.1.7-.2,1.4-.2.7-.7,1.4-.7.7,0,1.4,0,.7,0,1.4,0,.7.7,1.4.7.7-.5,1.4-.5.7.6,1.4.6.7-1,1.5-1,.7,0,1.5,0,.9,0,1.4,0c.5,0,1.1.7,1.6.6.5,0,1.1,0,1.5,0,.5-.1.9-.6,1.3-.8.5-.2.5-1.1,1-1.3.4-.2,1.2.2,1.6-.1.4-.3.6-.8,1-1.1.4-.3.8-.6,1.1-.9s.4-.9.7-1.3c.3-.4.8-.6,1-1,.3-.4.9-.6,1.1-1,.2-.4,0-1.1.1-1.6.2-.5.2-1,.3-1.4.1-.5.4-.9.5-1.4,0-.5.4-.9.4-1.4,0-.5.6-1,.6-1.5,0-.7-.8-.7-.8-1.5s0-.7,0-1.5.8-.7.8-1.5.2-.7.2-1.5-1.1-.7-1.1-1.5.5-.7.5-1.5.7-.7.7-1.5-1-.7-1-1.5.8-.7.8-1.5-.2-.7-.2-1.4-.7-.7-.7-1.4.2-.7.2-1.4.7-.7.7-1.5-.9-.7-.9-1.5,1-.7,1-1.5-1-.7-1-1.5.8-.7.8-1.5-.7-.7-.7-1.5.2-.7.2-1.5.4-.7.4-1.5.3-.7.3-1.5-.7-.7-.7-1.5.6-.7.6-1.5-.8-.7-.8-1.5.9-.7.9-1.5-.9-.7-.9-1.5.1-.7.1-1.5,1-.7,1-1.5-1-.7-1-1.5.2-.7.2-1.5.9-.7.9-1.5-.1-.7-.1-1.5-.4-.7-.4-1.5.4-.7.4-1.5,0-.7,0-1.5-.2-.7-.2-1.5-.8-.7-.8-1.5,1.1-.7,1.1-1.5-.4-.7-.4-1.5-.5-.7-.5-1.5-.1-.7-.1-1.5.6-.7.6-1.5-.3-.7-.3-1.5-.2-.7-.2-1.5,0-.9,0-1.4c0-.5.7-1.1.6-1.6,0-.5-.5-.9-.6-1.4-.1-.5-.6-.8-.8-1.3-.2-.5.2-1.2,0-1.6-.2-.4-1.1-.5-1.3-.9-.3-.4,0-1.2-.3-1.6-.3-.4-1.4,0-1.8-.4-.3-.3-.5-.8-.9-1.1-.4-.3-.7-.6-1.1-.9-.4-.3-.4-1.2-.8-1.5-.4-.2-1.1,0-1.6-.2-.5-.2-1,0-1.5-.1-.5-.1-.8-.8-1.3-.9-.5,0-1-.4-1.4-.5-.5,0-1,.7-1.5.7-.7,0-.7-.8-1.4-.8s-.7,0-1.4,0-.7.6-1.4.6-.7-.7-1.4-.7-.7.7-1.4.7-.7-.4-1.4-.4-.7-.2-1.4-.2-.7,0-1.4,0-.7,0-1.4,0-.7.6-1.4.6-.7-.2-1.4-.2-.7-.2-1.4-.2-.7,0-1.4,0-.7-.1-1.4-.1-.7-.3-1.4-.3-.7.7-1.4.7-.7-.2-1.4-.2-.7,0-1.4,0-.7-.6-1.4-.6-.7.6-1.4.6-.7,0-1.4,0-.7,0-1.4,0-.7-.4-1.4-.4-.7,0-1.4,0-.7.6-1.4.6-.7,0-1.4,0-.7-.1-1.4-.1-.7-.5-1.4-.5-.7.6-1.4.6-.7,0-1.4,0-.7-.3-1.4-.3-.7-.1-1.4-.1-.7,0-1.4,0-.7.3-1.4.3-.7-.4-1.4-.4-.7.6-1.4.6-.7,0-1.4,0-.7-.1-1.4-.1-.7-.6-1.4-.6-.7.5-1.4.5-.7.4-1.4.4-.7-.7-1.4-.7-.7.7-1.4.7-.7-.7-1.4-.7-.7,0-1.4,0-.7.4-1.4.4-.7.1-1.4.1-.7-.4-1.4-.4-.7.5-1.4.5-.7,0-1.4,0-.7-.5-1.4-.5-.7.2-1.4.2-.7.5-1.4.5-.7-1-1.4-1-.7.7-1.4.7-.7.4-1.4.4-.7,0-1.4,0-.7-.5-1.4-.5-.7-.5-1.4-.5-.7.4-1.4.4-.7-.1-1.4-.1-.7.5-1.4.5-.7-.2-1.4-.2-.7,0-1.4,0-.7.2-1.4.2-.7.2-1.4.2-.7-.3-1.4-.3-.7-.6-1.4-.6-.7,0-1.4,0-.7-.3-1.4-.3-.7.4-1.4.4-.7.2-1.4.2-.7,0-1.4,0-.7-.2-1.4-.2-.7.5-1.4.5-.7-.5-1.4-.5-.7.2-1.4.2-.7.2-1.4.2-.7-.2-1.4-.2-.7.4-1.4.4-.7-.1-1.4-.1-.7,0-1.4,0-.7-.2-1.4-.2-.7.3-1.4.3-.7.2-1.4.2-.7-.7-1.4-.7-.7,0-1.4,0-.7-.4-1.4-.4-.7,1-1.4,1-.7-.3-1.4-.3-.7.4-1.4.4-.7-.2-1.4-.2-.7-.8-1.4-.8-.7.5-1.4.5-.7.4-1.4.4-.7-.3-1.4-.3-.7.3-1.4.3-.7-.6-1.4-.6-.7.6-1.4.6-.7-1-1.4-1-.7.1-1.5.1-.7,0-1.5,0-.7.9-1.5.9-1.1-.3-1.6-.4c-.5-.2-1.2-.2-1.6-.5-.4-.3-.1-1.4-.4-1.8-.3-.4-1.3-.5-1.5-1-.2-.5.3-1.1.3-1.7s-.3-1.1-.1-1.6c.2-.5.2-1.2.5-1.6.3-.4,1.1-.4,1.6-.7.4-.3.9-.3,1.4-.5.5-.2.9-.9,1.4-.9s.7,0,1.4,0,.7.6,1.4.6.7,0,1.4,0,.7-.7,1.4-.7.7.2,1.4.2.7.4,1.4.4.7-.2,1.4-.2.7,0,1.4,0,.7-.2,1.4-.2.7-.4,1.4-.4.7.3,1.4.3.7.5,1.4.5.7,0,1.4,0,.7,0,1.4,0,.7,0,1.4,0,.7-.3,1.4-.3.7-.5,1.4-.5.7.4,1.4.4.7.6,1.4.6.7-.5,1.4-.5.7.5,1.4.5.7-1,1.4-1,.7.9,1.4.9.7,0,1.4,0,.7-.3,1.4-.3.7,0,1.4,0,.7.6,1.4.6.7-.1,1.4-.1.7-.9,1.4-.9.7.6,1.4.6.7.2,1.4.2.7-.5,1.4-.5.7-.2,1.4-.2.7.3,1.4.3.7-.3,1.4-.3.7.2,1.4.2.7.5,1.4.5.7-.3,1.4-.3.7-.4,1.4-.4.7.5,1.4.5.7.2,1.4.2.7-.3,1.4-.3.7-.3,1.4-.3.7-.3,1.4-.3.7.8,1.4.8.7,0,1.4,0,.7,0,1.4,0,.7-.2,1.4-.2.7-.5,1.4-.5.7.2,1.4.2.7.1,1.4.1.7,0,1.4,0,.7-.1,1.4-.1.7.3,1.4.3.7.4,1.4.4.7-.7,1.4-.7.7,0,1.4,0,.7.5,1.4.5.7-.4,1.4-.4.7,0,1.4,0,.7.9,1.4.9.7-.2,1.4-.2.7-.6,1.4-.6.7.7,1.4.7.7-.6,1.4-.6.7.4,1.4.4.7,0,1.4,0,.7.2,1.4.2.7-.4,1.4-.4.7-.2,1.4-.2.7,0,1.4,0,.7-.5,1.4-.5.7,0,1.4,0,.7,0,1.4,0,.7.3,1.4.3.7.2,1.4.2.7-.5,1.4-.5.7.4,1.4.4.7.2,1.4.2.7,0,1.4,0,.7-.6,1.4-.6.7.8,1.4.8.7-.2,1.4-.2.7,0,1.4,0,.7-.4,1.4-.4.7.8,1.4.8.7-.7,1.4-.7.7.7,1.4.7.7-.3,1.4-.3.7-.6,1.4-.6.7,1,1.4,1,.7-.8,1.4-.8.7.3,1.4.3.7.5,1.4.5.7-.2,1.4-.2.7-.4,1.4-.4.7.1,1.4.1.7,0,1.4,0,.7.2,1.4.2.7-.8,1.4-.8.7,0,1.5,0,.7.1,1.5.1.7.5,1.5.5,1-.4,1.4-.4c.5,0,1.1.6,1.6.5.5,0,1-.2,1.5-.3.5-.1,1-.3,1.4-.5.5-.2.5-1.3.9-1.5.4-.2,1.3.2,1.7,0,.4-.3,1-.4,1.4-.7.4-.3.5-.9.9-1.3.3-.3.5-.9.8-1.3.3-.4.7-.7,1-1.1.3-.4.9-.7,1.1-1.1.2-.4-.1-1.1,0-1.6.2-.5.2-.9.4-1.4.1-.5.9-.8,1-1.3,0-.5-.5-1.1-.4-1.5,0-.5,0-.9,0-1.4,0-.7.6-.7.6-1.4s-.7-.7-.7-1.4,0-.7,0-1.4.7-.7.7-1.4-.4-.7-.4-1.4-.5-.7-.5-1.4.2-.7.2-1.4.5-.7.5-1.4.2-.7.2-1.4.1-.7.1-1.4-.7-.7-.7-1.4.6-.7.6-1.4,0-.7,0-1.4-.3-.7-.3-1.4.4-.7.4-1.4-.8-.7-.8-1.4.1-.7.1-1.4,0-.7,0-1.4.2-.7.2-1.4-.3-.7-.3-1.4.7-.7.7-1.4-.6-.7-.6-1.4.2-.7.2-1.4,0-.7,0-1.4.4-.7.4-1.4-.3-.7-.3-1.4,0-.7,0-1.4-.5-.7-.5-1.4,0-.7,0-1.4,1-.7,1-1.4.1-.7.1-1.4-.2-.7-.2-1.4-.3-.7-.3-1.4-.5-.7-.5-1.4.2-.7.2-1.4,0-.7,0-1.5,0-.7,0-1.4,0-.7,0-1.4.3-.7.3-1.4,0-.7,0-1.4.5-.7.5-1.4-.5-.7-.5-1.4,0-.7,0-1.5.8-.7.8-1.4-.6-.7-.6-1.4.4-.7.4-1.4-.7-.7-.7-1.5.9-.7.9-1.5-.9-.7-.9-1.4.6-.7.6-1.5.1-.7.1-1.5,0-.4,0-.5C266.4.4,258.2,0,250,0,131,0,31.4,83.1,6.2,194.5c.4.2.5.5,1.1.5ZM105.7,144.5c.2-.5.4-1,.7-1.4.3-.4.7-.8,1.1-1.1.4-.3.9-.5,1.4-.7.5-.2,1-.3,1.5-.3s.7.1,1.4.1.7-.1,1.4-.1.7.2,1.4.2.7-.2,1.4-.2.7.2,1.4.2.7,0,1.4,0,.7,0,1.4,0,.7,0,1.4,0,.7,0,1.4,0,.7.1,1.4.1.7-.2,1.4-.2.7.1,1.4.1.7,0,1.4,0,.7,0,1.4,0,.7,0,1.4,0,.7,0,1.4,0,.7,0,1.4,0,.7.2,1.4.2.7,0,1.4,0,.7,0,1.4,0,.7.2,1.4.2.7-.1,1.4-.1.7.1,1.4.1.7-.1,1.4-.1.7.2,1.4.2.7-.1,1.4-.1.7,0,1.4,0,.7.1,1.4.1.7-.2,1.4-.2.7,0,1.4,0,.7.1,1.4.1.7,0,1.4,0,.7,0,1.4,0,.7-.2,1.4-.2.7.1,1.4.1.7,0,1.4,0,.7,0,1.4,0,.7,0,1.4,0,.7,0,1.4,0,.7,0,1.4,0,.7,0,1.4,0,.7,0,1.4,0,.7,0,1.4,0,.7,0,1.4,0,.7,0,1.4,0,.7,0,1.4,0,.7,0,1.4,0,.7,0,1.4,0,.7-.1,1.4-.1.7.2,1.4.2.7,0,1.4,0,.7,0,1.4,0,.7,0,1.4,0,.7,0,1.4,0,.7,0,1.4,0,.7-.1,1.4-.1.7,0,1.4,0,.7,0,1.4,0,.7-.2,1.4-.2.7,0,1.4,0,.7,0,1.4,0,.7.1,1.4.1.7-.2,1.4-.2.7.2,1.4.2.7,0,1.4,0,.7,0,1.4,0,.7,0,1.4,0,.7,0,1.4,0,.7,0,1.4,0,.7,0,1.4,0,.7,0,1.4,0,1.1,0,1.6.1c.5.2.9.6,1.3.9.4.3.8.6,1.1,1.1.3.4.7.8.8,1.3.2.5,0,1,0,1.6s0,1-.2,1.5c-.2.5-.3,1-.6,1.4-.3.4-.7.7-1.1,1-.4.3-.8.7-1.3.9-.5.2-1,.1-1.6.1s-.7.2-1.4.2-.7-.2-1.4-.2-.7,0-1.4,0-.7,0-1.4,0-.7,0-1.4,0-.7.1-1.4.1-.7,0-1.4,0-.7,0-1.4,0-.7,0-1.4,0-.7,0-1.4,0-.7,0-1.4,0-.7,0-1.4,0-.7,0-1.4,0-.7,0-1.4,0-.7,0-1.4,0-.7,0-1.4,0-.7,0-1.4,0-.7,0-1.4,0-.7.2-1.4.2-.7,0-1.4,0-.7,0-1.4,0-.7,0-1.4,0-.7,0-1.4,0-.7,0-1.4,0-.7,0-1.4,0-.7,0-1.4,0-.7,0-1.4,0-.7,0-1.4,0-.7,0-1.4,0-.7,0-1.4,0-.7,0-1.4,0-.7-.2-1.4-.2-.7,0-1.4,0-.7,0-1.4,0-.7,0-1.4,0-.7-.2-1.4-.2-.7.2-1.4.2-.7-.2-1.4-.2-.7.2-1.4.2-.7,0-1.4,0-.7,0-1.4,0-.7-.1-1.4-.1-.7,0-1.4,0-.7,0-1.4,0-.7,0-1.4,0-.7,0-1.4,0-.7,0-1.4,0-.7,0-1.4,0-.7,0-1.4,0-.7-.1-1.4-.1-.7,0-1.4,0-.7.2-1.4.2-.7,0-1.4,0-.7,0-1.4,0-.7,0-1.4,0-.7,0-1.4,0-.7-.2-1.4-.2-.7.2-1.4.2-.7,0-1.4,0-.7-.1-1.4-.1-.7.2-1.4.2-.7,0-1.4,0-.7,0-1.4,0-.7,0-1.4,0-.7-.1-1.4-.1-.7,0-1.4,0-.7,0-1.4,0-.7,0-1.4,0-.7,0-1.4,0-.7,0-1.4,0c-.7,0-.7.1-1.4.1s-1.1,0-1.6-.2c-.5-.2-.9-.5-1.3-.8-.4-.3-.7-.7-1.1-1.1-.3-.4-.6-.8-.7-1.3-.2-.5-.3-1-.3-1.5s.1-1,.3-1.5Z"/>
</svg>