<?xml version="1.0" encoding="UTF-8"?>
<svg id="_アイコン" data-name="アイコン" xmlns="http://www.w3.org/2000/svg" version="1.1" viewBox="0 0 500 500">
  <defs>
    <style>
      .cls-1 {
        fill: #fff;
        stroke-width: 0px;
      }
    </style>
  </defs>
  <path class="cls-1" d="M433.2,95.6c-.6.4-.7.3-1.3.7-.6.4-.8.1-1.4.5s-.6.4-1.2.8c-.6.4-1,0-1.5.3-.6.4-.4.6-1,1.1s-.3.8-.9,1.3c-.6.4-.7.2-1.3.6s-.7.3-1.2.7-.2.9-.8,1.3c-.6.4-.5.5-1.1.9-.6.4-.9,0-1.5.3s-.5.5-1.1,1c-.6.4-.6.4-1.2.8-.6.4-.8.1-1.4.6-.6.4-.5.6-1,1s-.8,0-1.4.5c-.6.4-.2,1-.7,1.4s-.7.3-1.2.7c-.6.4-.7.3-1.2.7s-.5.5-1.1.9-.9,0-1.5.4c-.6.4,0,1.2-.6,1.6-.6.4-1,0-1.5.3-.6.4-.2,1-.7,1.4-.6.4-1.2-.4-1.8,0-.6.4-.6.4-1.2.8-.6.4-.2,1-.8,1.4-.6.4-1-.2-1.6.2-.6.4-.1,1.1-.7,1.5-.6.4-.5.5-1.1.9-.6.4-1-.2-1.6.3-.6.4,0,1.2-.6,1.6-.6.4-.6.4-1.2.8-.6.4-1-.2-1.6.3-.6.4-.3.8-.9,1.2-.6.4-.8.2-1.4.6-.6.4-.6.4-1.2.9s-.4.7-1,1.1c-.6.4-1-.2-1.6.2-.6.4-.6.4-1.2.8-.6.4,0,1.2-.6,1.6-.6.4-.8.1-1.4.5-.6.4-.4.7-1,1.1-.6.4-.8.2-1.4.6-.6.4-.9,0-1.5.4-.6.4-.3.8-.9,1.2-.6.4-.4.7-1,1.1-.6.4-.8.1-1.4.6-.6.4-.8.2-1.4.6-.6.4-.5.5-1.1.9-.6.4-.7.3-1.3.7-.6.4-.6.4-1.2.8-.6.4,0,1.2-.6,1.6-.6.4-1.2-.4-1.7,0-.6.4-.1,1.1-.7,1.5-.6.4-.7.3-1.3.7-.6.4-.5.5-1.1.9-.6.4-.5.6-1.1,1-.6.4-1-.2-1.6.2-.6.4-.7.3-1.3.7-.6.4-.5.5-1.1.9-.6.4-.5.5-1.1.9-.6.4-.2,1-.8,1.4-.6.4-1.1-.2-1.6.2-.6.4,0,1.3-.5,1.8-.6.4-.6.4-1.2.8-.6.4-1.1-.2-1.7.2-.6.4-.6.5-1.2.9-.6.4-.6.4-1.2.9-.6.4-.7.3-1.3.7-.6.4-.1,1.1-.7,1.5-.6.4-1.1-.3-1.7,0-.4.3-.8.7-1.2,1-.4.3-.6.8-1,1.2-.3.4-.7.8-1,1.1-.3.4-.5.9-.8,1.3-.3.4-.1,1.1-.4,1.5-.2.4-1.1.6-1.3,1.1-.2.5-.2,1-.3,1.5-.1.5.2,1.1.2,1.6,0,.5,0,1,0,1.5,0,.5.1,1,.2,1.4,0,.5-.4,1-.4,1.5,0,.5-.3,1.1-.2,1.6.1.5,1.3.7,1.4,1.1.2.5-.3,1.2,0,1.6.2.4,1.1.5,1.4.9.2.4.5.8.7,1.2.3.4-.4,1.5,0,1.9.3.4,1,.4,1.4.8.4.3,1.2,0,1.6.3.4.3.6.8,1,1.1.4.3.8.5,1.2.8.4.2.6,1.1,1.1,1.2.5.2,1.1-.2,1.6,0,.5.1.9.4,1.4.5.5,0,1-.3,1.5-.2.5,0,.9-.2,1.4-.2.7,0,.7.1,1.4.1s.7.8,1.4.8.7-.4,1.4-.4.7-.4,1.4-.4.7-.2,1.4-.2.7.1,1.4.1.7.6,1.4.6.7-.6,1.4-.6.7,0,1.4,0,.7.1,1.4.1.7.8,1.4.8.7-1,1.4-1,.7,0,1.4,0,.7,0,1.4,0,.7.9,1.4.9.7-.5,1.4-.5.7.7,1.4.7.7-1.2,1.4-1.2.7,0,1.4,0,.7.2,1.4.2.7.5,1.4.5.7.4,1.4.4.7-.4,1.4-.4.7.2,1.4.2.7.3,1.4.3.7-.7,1.4-.7.7-.4,1.4-.4.7,0,1.4,0,.7,0,1.4,0,.7.9,1.4.9.7,0,1.4,0,.7-.7,1.4-.7.7.2,1.4.2.7-.1,1.4-.1.7.2,1.4.2.7-.3,1.4-.3.7.5,1.4.5.7-.3,1.4-.3.7-.4,1.4-.4.7,1.2,1.4,1.2.7-.5,1.4-.5.7-.5,1.4-.5.7.6,1.4.6.7-.6,1.4-.6.7.8,1.4.8.7-.4,1.4-.4.7,0,1.4,0,.7-.4,1.4-.4.7.3,1.4.3.7.3,1.4.3.7-.3,1.4-.3.7,0,1.4,0,.7.5,1.4.5.7-.1,1.4-.1.7.2,1.4.2.7-.4,1.4-.4.7-.4,1.4-.4.7-.2,1.4-.2.7,1.2,1.4,1.2.7-.3,1.4-.3.7,0,1.4,0,.7,0,1.4,0,.7-.3,1.4-.3.7.3,1.4.3.7,0,1.4,0,.7,0,1.4,0,.7-.8,1.4-.8.7.7,1.4.7.7-.5,1.4-.5.7-.1,1.4-.1.7.8,1.4.8.7.2,1.4.2.7,0,1.4,0,.7-.3,1.4-.3.7.3,1.4.3.7-.1,1.4-.1.7-.5,1.4-.5.7.6,1.4.6.7-.6,1.4-.6.7.2,1.4.2.7-.7,1.4-.7.7.4,1.4.4.7-.2,1.4-.2.7-.2,1.4-.2.7.6,1.4.6.7.4,1.4.4.7-.8,1.4-.8.7.3,1.4.3.7.4,1.4.4.7.1,1.4.1.7,0,1.4,0,.7-.9,1.4-.9.5,0,.7,0c-9.5-33.9-26-64.9-47.8-91.4-.2,0-.4,0-.5.1-.5,0-1,0-1.5,0-.5.1-.9.4-1.4.6-.5.2-1.3-.6-1.8-.4-.5.2-.6,1-1.1,1.3-.4.3-1,.3-1.4.6-.6.4-.4.6-1,1-.6.4-.4.7-1,1.1Z"/>
  <path class="cls-1" d="M247.8,206.1c0-.5-.6-.9-.7-1.3-.1-.5.1-1,0-1.5-.1-.5-.6-.8-.8-1.2-.2-.4,0-1-.3-1.5-.2-.4-.9-.6-1.2-1-.3-.4.2-1.3-.1-1.7-.3-.4-.8-.6-1.1-1-.3-.3-.7-.7-1.1-1-.4-.3-1.1,0-1.5-.3-.4-.3-.5-1-1-1.2-.4-.2-.9-.3-1.4-.5-.4-.2-.8-.6-1.3-.7-.5-.1-1,0-1.5-.1-.5,0-.9-.4-1.4-.5-.5,0-1,.7-1.5.7-.7,0-.7-.4-1.5-.4s-.7.5-1.5.5-.7-.9-1.5-.9-.7.8-1.5.8-.7,0-1.5,0-.7.2-1.5.2-.7-1-1.5-1-.7.7-1.5.7-.7-.7-1.5-.7-.7.2-1.5.2-.7.8-1.5.8-.7-.8-1.5-.8-.7.9-1.5.9-.7-.1-1.5-.1-.7-.5-1.5-.5-.9-.6-1.6-.4c-.8.2-.6,1.1-1.3,1.1s-1-.9-1.5-.8c-.5,0-1,.1-1.5.2-.5,0-1,.3-1.4.4-.5.1-.8.6-1.3.8-.5.2-.8.6-1.2.8-.4.2-.7.6-1.1.9-.4.3-1.2,0-1.6.3-.4.3-.8.7-1.1,1s-.4,1-.7,1.4c-.3.4-1.2.3-1.5.8-.3.4.3,1.4.1,1.8-.2.4-.4.8-.6,1.3-.2.4-.3.9-.5,1.4-.1.5-1.2.7-1.3,1.2,0,.5.8,1.1.7,1.6,0,.5-.1.9-.1,1.4,0,.7,0,.7,0,1.5,0,.7.2.7.2,1.5,0,.7-.6.7-.6,1.5s.7.7.7,1.5c0,.7-.2.7-.2,1.5,0,.7-.8.7-.8,1.5,0,.7.2.7.1,1.5,0,.7.1.8.1,1.5,0,.7.7.8.7,1.5,0,.7-.4.7-.4,1.5,0,.8-.1.8-.1,1.5,0,.8,0,.8,0,1.5,0,.5.3,1,.3,1.5,0,.5-.5,1.1-.4,1.6,0,.5.4,1,.5,1.4.1.5.9.7,1.1,1.2.2.5.1,1,.3,1.5.2.4.3,1,.6,1.4.3.4.6.8.9,1.2.3.4,1,.4,1.4.7.4.3.3,1.1.7,1.4.4.3.7.7,1.2,1,.4.3,1.2,0,1.6.1.4.2.8.5,1.2.7.4.2.7.8,1.2.9.5.1.9.2,1.4.3.5,0,1-.3,1.5-.2.5,0,.9.8,1.4.8s1-.2,1.6-.3c.5,0,.9-.7,1.4-.8.5-.1,1.1,0,1.6,0,.5-.2.8-.7,1.3-.9.5-.2,1.2.1,1.6-.2.4-.3.9-.5,1.4-.8.6-.4.9,0,1.5-.5.6-.4.3-.8.9-1.2.6-.4.1-1.1.7-1.5q.6-.4,1.2-.9c.6-.4,1,.2,1.6-.3.6-.4.9,0,1.5-.4.6-.4,0-1.3.5-1.8.6-.4.8-.1,1.4-.6.6-.4,1,.2,1.6-.3.6-.4.2-1,.8-1.4.6-.4.7-.2,1.3-.6.6-.4.4-.7,1-1.1.6-.4.6-.5,1.2-.9.6-.4.5-.5,1.1-1,.6-.4,1.1.3,1.7,0,.6-.4,0-1.3.6-1.7.6-.4,1.2.4,1.8,0,.6-.4.6-.4,1.2-.8.6-.4.6-.4,1.2-.8.6-.4.3-.8.9-1.2s.3-.9.9-1.3c.4-.3,1.2,0,1.6-.3.4-.3.5-.9.8-1.3.3-.4.4-.9.7-1.3.3-.4.8-.6,1.1-1,.3-.4,0-1.1.3-1.5.2-.4,1.4-.5,1.5-.9.2-.5.3-1,.4-1.4.1-.5,0-1,.2-1.5,0-.5-.6-1-.6-1.5,0-.5.7-.9.7-1.4,0-.5-.2-1-.2-1.5Z"/>
  <path class="cls-1" d="M192.9,162c0,.7-.5.7-.5,1.4,0,.7,1.1.7,1.1,1.5,0,.7-.4.7-.4,1.5s-.7.7-.7,1.5c0,.5.7,1,.8,1.5,0,.5-.1,1,0,1.5,0,.5.5.9.6,1.4.1.5.4.9.5,1.4.2.5.5.8.7,1.3.2.4-.3,1.3,0,1.8.3.4,1.4.2,1.8.5.3.4-.1,1.4.2,1.8.3.4.7.7,1.1,1.1.4.3.8.7,1.2,1,.4.3,1.1.1,1.5.4.4.2,1.1,0,1.5.2.5.2.7,1.1,1.1,1.2.5.1,1.1,0,1.5,0,.5,0,1-.2,1.5-.1.5,0,.9.4,1.4.4.7,0,.7-.5,1.4-.5s.7,1,1.4,1,.7,0,1.4,0,.7-.2,1.4-.2.7-.8,1.4-.8.7.7,1.4.7.7-.1,1.4-.1.7-.5,1.4-.5.7.4,1.4.4.7-.3,1.4-.3.7.4,1.4.4.7-.5,1.4-.5.7.9,1.4.9.7-.2,1.4-.2.7,0,1.4,0,.7-.6,1.4-.6.7.6,1.4.6.7-.1,1.4-.1.7.3,1.4.3.7-.2,1.4-.2.7.3,1.4.3.7-.7,1.4-.7.7.4,1.4.4.7-.5,1.4-.5.7.9,1.4.9.7-.8,1.4-.8.7,0,1.4,0,.7-.2,1.4-.2.7,1,1.4,1,.7-.7,1.4-.7.7.7,1.4.7.7-.2,1.4-.2.7-.8,1.4-.8.7.8,1.4.8.7-.9,1.4-.9.7.1,1.4.1.7.5,1.4.5.7.5,1.4.5.7-.9,1.4-.9.7.8,1.4.8.7,0,1.4,0,.7,0,1.4,0,.7-.7,1.4-.7.7.3,1.4.3.7.2,1.4.2.7.2,1.4.2.7-.2,1.4-.2.7,0,1.4,0,.7.4,1.4.4.7-.6,1.4-.6.7-.6,1.4-.6.7,1.1,1.4,1.1.7-.3,1.4-.3.7.4,1.4.4.7-1,1.4-1,.7.2,1.4.2,1.1.6,1.6.5c.5,0,1.1-.1,1.6-.3.5-.1.8-.9,1.3-1,.5-.2.8-.6,1.3-.8.5-.2.9-.4,1.4-.6.4-.3,1.5.4,1.9.1.6-.4,0-1.3.5-1.7.6-.4,1.2.5,1.8,0,.6-.4,0-1.4.5-1.8.6-.4,1.2.4,1.8,0,.6-.4.5-.6,1.1-1,.6-.4.3-.8.9-1.2.6-.4.7-.2,1.3-.6.6-.4.3-.8.9-1.2s.8,0,1.4-.5c.6-.4.2-.9.8-1.3s1.1.3,1.7-.1c.6-.4,0-1.2.6-1.6.6-.4,1,.2,1.6-.2.6-.4.8-.2,1.4-.6.6-.4,0-1.3.5-1.7.6-.4.7-.2,1.3-.6.6-.4.6-.4,1.2-.8.6-.4.6-.3,1.2-.8.6-.4.8-.1,1.4-.6.6-.4.7-.2,1.3-.6s.3-.8.9-1.2c.6-.4.6-.4,1.2-.8s.7-.3,1.3-.7c.6-.4.5-.6,1.1-1s.9,0,1.5-.4c.6-.4.5-.6,1.1-1,.6-.4.6-.3,1.2-.8.6-.4.6-.4,1.2-.8.6-.4.5-.5,1.1-.9.6-.4.2-.9.8-1.4.6-.4.5-.5,1.1-.9.6-.4.6-.4,1.2-.9.6-.4,1,.1,1.6-.3.6-.4.2-1,.7-1.4.6-.4.7-.2,1.3-.6.6-.4.8-.1,1.4-.5.6-.4.6-.4,1.2-.8.6-.4.5-.6,1.1-1,.6-.4.8-.2,1.4-.6.6-.4.4-.6,1-1.1.6-.4.7-.2,1.3-.6.6-.4.7-.3,1.3-.7.6-.4,0-1.2.6-1.6.6-.4,1.1.3,1.7-.1.6-.4.5-.6,1.1-1,.6-.4.7-.3,1.3-.7.6-.4.8-.2,1.4-.6.6-.4.4-.7,1-1.1s.6-.4,1.2-.8c.6-.4.5-.5,1.1-1,.6-.4.5-.6,1.1-1,.6-.4.5-.5,1.1-1,.6-.4,1,.1,1.6-.3.6-.4.5-.5,1.1-.9.6-.4.5-.6,1-1,.6-.4,0-1.1.7-1.6.6-.4,1.2.4,1.7,0,.6-.4.5-.5,1.1-1,.6-.4.3-.9.9-1.3.6-.4.8-.1,1.4-.6.6-.4.7-.3,1.3-.7.6-.4.4-.7,1-1.1.6-.4.5-.5,1.1-.9.6-.4.8,0,1.4-.5.6-.4.4-.7.9-1.2.6-.4.8-.2,1.3-.6.6-.4.7-.2,1.3-.6.6-.4.4-.7,1-1.1.6-.4.9,0,1.5-.4.6-.4.2-.9.8-1.3.6-.4.8-.2,1.4-.6.6-.4.4-.7,1-1.1.6-.4.8-.2,1.4-.6s.4-.7,1-1.1c.4-.3.5-.9.9-1.2.4-.3.5-.8.8-1.2.3-.4,1.3-.2,1.5-.6.3-.4.4-.9.7-1.3.3-.4.7-.7.9-1.2.2-.4.6-.8.8-1.3.2-.5-.1-1.1,0-1.6.1-.5-.3-1-.3-1.5,0-.5,1-.8,1-1.3,0-.5,0-1,0-1.5,0-.5-.9-.9-1-1.4,0-.5.9-1.1.8-1.6-.1-.5-.7-.8-.9-1.3-.1-.5.2-1.1,0-1.6-.2-.4-.3-1-.5-1.4-.2-.4-.7-.8-.9-1.2-.3-.4-.5-.9-.9-1.2-.3-.4-.6-.8-1-1.1-.3-.3-.8-.6-1.2-.9-.4-.3-.8-.6-1.2-.8-.4-.3-.9-.5-1.3-.7-.4-.2-.9-.6-1.3-.7-.4-.2-1-.2-1.5-.3-.5-.1-1,.2-1.5,0-.5,0-1,.2-1.5.1-.5,0-.9-.7-1.4-.7-.7,0-.7.4-1.4.4s-.7-.4-1.4-.4-.7,0-1.4,0-.7-.2-1.4-.2-.7.1-1.4.1-.7.8-1.4.8-.7-.3-1.4-.3-.7.3-1.4.3-.7-.5-1.4-.5-.7-.3-1.4-.3-.7.3-1.4.3-.7.6-1.4.6-.7-.5-1.4-.5-.7.4-1.4.4-.7-.5-1.4-.5-.7.5-1.4.5-.7-.3-1.4-.3-.7-.7-1.4-.7-.7.9-1.4.9-.7-.9-1.4-.9-.7.6-1.4.6-.7-.1-1.4-.1-.7.3-1.4.3-.7-.5-1.4-.5-.7-.4-1.4-.4-.7,1.1-1.4,1.1-.7-1.1-1.4-1.1-.7,1.1-1.4,1.1-.7-.3-1.4-.3-.7-.8-1.4-.8-.7.5-1.4.5-.7-.6-1.4-.6-.7.5-1.4.5-.7-.4-1.4-.4-.7.8-1.4.8-.7-.3-1.4-.3-.7.3-1.4.3-.7.4-1.4.4-.7-.3-1.4-.3-.7-.5-1.4-.5-.7.3-1.4.3-.7.5-1.4.5-.7,0-1.4,0-.7-.6-1.4-.6-.7-.4-1.4-.4-.7.5-1.4.5-.7.2-1.4.2-.7-.6-1.4-.6-.7.4-1.4.4-.7-.7-1.4-.7-.7.1-1.4.1-.7-.1-1.4-.1-.7,1.2-1.4,1.2-.7-.7-1.4-.7-.7-.1-1.4-.1-.7.1-1.4.1-.7.6-1.4.6-.7-1.1-1.4-1.1-.7.5-1.4.5-.7,0-1.4,0-.7-.4-1.4-.4-.7.3-1.4.3-.7.5-1.4.5-.7-.2-1.4-.2-.7-.3-1.4-.3-.7-.5-1.4-.5-.7.6-1.4.6-.7.1-1.4.1-.7.5-1.4.5-.7-1.1-1.4-1.1-.7,0-1.4,0-.7,1.1-1.4,1.1-.7-.5-1.4-.5-.7.2-1.4.2-.7.3-1.4.3-.7-.2-1.4-.2-.7-.3-1.4-.3-.7-.3-1.4-.3-.7,0-1.4,0-.7,0-1.4,0-.7-.3-1.4-.3-.7,0-1.4,0-.7.6-1.4.6-.7-.5-1.4-.5-.7,0-1.4,0-.7.4-1.4.4-.7.6-1.4.6-.7-1.1-1.4-1.1-.7.2-1.4.2-.7.7-1.4.7-.7-.4-1.4-.4-.7.5-1.4.5-.7-.9-1.4-.9-.7,1-1.4,1-.7,0-1.4,0-.7-.9-1.4-.9-.7.6-1.4.6-.7.2-1.4.2-.7-.6-1.4-.6-.7.5-1.4.5-.7-.2-1.4-.2-.7.2-1.4.2-.7-.3-1.4-.3-.7,0-1.4,0-.7-.3-1.4-.3-.7.6-1.4.6-.7-.6-1.4-.6-.7.5-1.4.5-.7-.5-1.4-.5-.7,0-1.4,0-.7,0-1.4,0-.7,0-1.4,0-.7.8-1.4.8-.7-.7-1.4-.7-.6.5-1.3.7c-.8.2-.8.2-1.6.2s-1-.9-1.5-.8c-.5,0-1,.1-1.5.2-.5,0-1,.3-1.4.4-.5.1-.8.6-1.3.8-.5.2-.8.6-1.2.8-.4.2-.7.6-1.1.9-.4.3-1.2,0-1.6.3-.4.3-.8.7-1.1,1s-.4,1-.7,1.4c-.3.4-1.2.3-1.5.8-.3.4.3,1.4.1,1.8-.2.4-.4.8-.6,1.3-.2.4-.3.9-.5,1.4-.1.5-1.2.7-1.3,1.2,0,.5.8,1.1.7,1.6,0,.5-.1.9-.1,1.4,0,.7,0,.7,0,1.4,0,.7.2.7.2,1.4,0,.7-.6.7-.6,1.4,0,.7.7.7.7,1.5,0,.7-.2.7-.2,1.4,0,.7-.8.7-.8,1.4s.2.7.1,1.4c0,.7.1.7.1,1.4,0,.7.7.7.7,1.4,0,.7-.4.7-.4,1.4,0,.7-.1.7-.1,1.4,0,.7,0,.7,0,1.4,0,.7.3.7.3,1.4,0,.7-.6.7-.6,1.4,0,.7.2.7.2,1.4,0,.7.6.7.6,1.4,0,.7-.3.7-.3,1.4,0,.7-.2.7-.2,1.4,0,.7,0,.7,0,1.4,0,.7.5.7.5,1.5,0,.7-.6.7-.6,1.4,0,.7,0,.7-.1,1.4,0,.7.7.7.7,1.5,0,.7-.1.7-.1,1.4,0,.7-.5.7-.5,1.4s0,.7,0,1.5c0,.7.4.7.4,1.5,0,.7-.7.7-.7,1.4,0,.7.2.7.2,1.5,0,.7.6.7.6,1.5,0,.7-.3.7-.3,1.4,0,.7.4.7.4,1.5,0,.7-.6.7-.6,1.4,0,.7-.1.7-.1,1.4,0,.7-.5.7-.5,1.4,0,.7.4.7.4,1.5,0,.7.8.7.8,1.5,0,.7,0,.7,0,1.5,0,.7-.7.7-.7,1.5Z"/>
  <path class="cls-1" d="M499.9,242.5c-.5,0-.6,0-1.2,0s-.7.2-1.4.2-.7-1-1.4-1-.7.7-1.4.7-.7-.7-1.4-.7-.7.2-1.4.2-.7.8-1.4.8-.7-.8-1.4-.8-.7.9-1.4.9-.7-.1-1.4-.1-.7-.5-1.4-.5-.7-.5-1.4-.5-.7.9-1.4.9-.7-.8-1.4-.8-.7,0-1.4,0-.7,0-1.4,0-.7.7-1.4.7-.7-.3-1.4-.3-.7-.2-1.4-.2-.7-.2-1.4-.2-.7.2-1.4.2-.7,0-1.4,0-.7-.4-1.4-.4-.7.6-1.4.6-.7.6-1.4.6-.7-1.1-1.4-1.1-.7.3-1.4.3-.7-.4-1.4-.4-.7,1-1.4,1-.7-.2-1.4-.2-.7-.6-1.4-.6-.7,0-1.4,0-.7.7-1.4.7-.7.3-1.4.3-.7,0-1.4,0-.7-1.1-1.4-1.1-.7,1.1-1.4,1.1-.7-1.1-1.4-1.1-.7,1.2-1.4,1.2-.7-1-1.4-1-.7.2-1.4.2-.7.4-1.4.4-.7-.2-1.4-.2-.7.4-1.4.4-.7-.4-1.4-.4-.7.6-1.4.6-.7-.9-1.4-.9-.7.9-1.4.9-.7-.7-1.4-.7-.7-.3-1.4-.3-.7,1.1-1.4,1.1-.7-.3-1.4-.3-.7,0-1.4,0-.7,0-1.4,0-.7-.3-1.4-.3-.7-.3-1.4-.3-.7.4-1.4.4-.7,0-1.4,0-.7-.2-1.4-.2-.7.2-1.4.2-.7-.5-1.4-.5-.7.2-1.4.2-.7-.1-1.4-.1-.7,0-1.4,0-.7,0-1.4,0-.7.6-1.4.6-.7.1-1.4.1-.7,0-1.4,0-.7-.7-1.4-.7-.7.7-1.4.7-.7-.3-1.4-.3-.7-.4-1.4-.4-.7,0-1.4,0-.7.2-1.4.2-.7-.3-1.4-.3-.7.3-1.4.3-.7-.2-1.4-.2-.7-.2-1.4-.2-.7,1-1.4,1-.7-.9-1.4-.9-1,.1-1.5,0c-.5-.2-.8-.5-1.3-.8-.4-.3-.5-.8-.8-1.2-.3-.4-.8-.6-.9-1.1-.2-.5-1.2-.9-1.2-1.4h.9c0-.5,0-1,.2-1.5.2-.5.3-.9.6-1.3.3-.4.5-1,.9-1.3.4-.3.8-.7,1.3-.9.5-.2,1.1-.5,1.6-.5s.7.7,1.4.7.7,0,1.4,0,.7-.4,1.4-.4.7.7,1.4.7.7-1,1.4-1,.7,0,1.4,0,.7,0,1.4,0,.7,1,1.4,1,.7-.9,1.4-.9.7,0,1.4,0,.7,0,1.4,0,.7-.2,1.4-.2.7.6,1.4.6.7-.7,1.4-.7.7.2,1.4.2.7.7,1.4.7.7-.2,1.4-.2.7-.1,1.4-.1.7-.7,1.4-.7.7.4,1.4.4.7.1,1.4.1.7,0,1.4,0,.7-.3,1.4-.3.7.6,1.4.6.7-.2,1.4-.2.7-.6,1.4-.6.7.3,1.4.3.7.2,1.4.2.7,0,1.4,0,.7-.5,1.4-.5.7.6,1.4.6.7,0,1.4,0,.7-.7,1.4-.7.7.1,1.4.1.7.5,1.4.5.7,0,1.4,0,.7-.4,1.4-.4.7.7,1.4.7.7-.2,1.4-.2.7-.6,1.4-.6.7.3,1.4.3.7-.4,1.4-.4.7.6,1.4.6.7,0,1.4,0,.7.5,1.4.5.7-.4,1.4-.4.7-.8,1.4-.8.7,0,1.4,0,.7.7,1.4.7.7.5,1.4.5.7-1.1,1.4-1.1.7.4,1.4.4.7.7,1.4.7.7-.7,1.4-.7.7.3,1.4.3.7-.3,1.4-.3.7,0,1.4,0,.7-.1,1.4-.1.7.9,1.4.9.7-1.1,1.4-1.1.7,1,1.4,1,.7,0,1.4,0,.7,0,1.4,0,.7-.5,1.4-.5.7-.5,1.4-.5.7.8,1.4.8.7-.3,1.4-.3.7-.3,1.4-.3.7.3,1.4.3.7-.5,1.4-.5.7,1,1.4,1,.7,0,1.4,0,.7-.2,1.4-.2.7-.8,1.4-.8.7.7,1.4.7.7-.1,1.4-.1.7-.5,1.4-.5.7.4,1.4.4.7-.3,1.4-.3.5,0,.7.2c-.9-13.3-2.9-26.2-5.8-38.9-.1,0-.3-.1-.6-.1-.7,0-.7.3-1.4.3s-.7-.3-1.4-.3-.7-.7-1.4-.7-.7,0-1.4,0-.7,0-1.4,0-.7.3-1.4.3-.7.4-1.4.4-.7,0-1.4,0-.7-.8-1.4-.8-.7.8-1.4.8-.7-.3-1.4-.3-.7.1-1.4.1-.7.3-1.4.3-.7-.7-1.4-.7-.7.7-1.4.7-.7.1-1.4.1-.7-.8-1.4-.8-.7-.4-1.4-.4-.7.8-1.4.8-.7.5-1.4.5-.7-.8-1.4-.8-.7.4-1.4.4-.7-.5-1.4-.5-.7-.2-1.4-.2-.7,1.2-1.4,1.2-.7-.8-1.4-.8-.7.8-1.4.8-.7-1-1.4-1-.7.4-1.4.4-.7-.5-1.4-.5-.7.3-1.4.3-.7.2-1.4.2-.7-.1-1.4-.1-.7.2-1.4.2-.7-.1-1.4-.1-.7.1-1.4.1-.7-.3-1.4-.3-.7.5-1.4.5-.7.5-1.4.5-.7,0-1.4,0-.7.2-1.4.2-.7-1.2-1.4-1.2-.7.8-1.4.8-.7,0-1.4,0-.7,0-1.4,0-.7,0-1.4,0-.7-.6-1.4-.6-.7.9-1.4.9-.7-.5-1.4-.5-.7-.3-1.4-.3-.7.3-1.4.3-.7-.4-1.4-.4-.7.8-1.4.8-.7-.8-1.4-.8-.7.8-1.4.8-.7-.8-1.4-.8-.7.5-1.4.5-.7.6-1.4.6-.7-1-1.4-1-.7.6-1.4.6-.7.1-1.4.1-.7.2-1.4.2-.7-.9-1.4-.9-.7-.1-1.4-.1-.7,1-1.4,1-.7-1-1.4-1-.7,0-1.4,0-.7.8-1.4.8-.7,0-1.4,0-.7,0-1.4,0-.7.2-1.4.2-.7-1.1-1.4-1.1-.7.5-1.4.5-.7,0-1.4,0-.7,0-1.4,0-.7-.4-1.4-.4-.7.9-1.4.9-.7-.5-1.4-.5-.7-.2-1.4-.2-.7.7-1.4.7-.7,0-1.4,0-.7-.6-1.4-.6-.7.7-1.4.7-.7,0-1.4,0-.7-.3-1.4-.3-.7,0-1.4,0-.7.2-1.4.2-.7-.4-1.4-.4-.7-.4-1.4-.4-.7,1.2-1.4,1.2-.7-.6-1.4-.6-.7-.4-1.4-.4-.7.3-1.4.3-.7-.5-1.4-.5-.7.8-1.4.8-.7-.7-1.4-.7-.7.1-1.4.1-.7.6-1.4.6-.7-.3-1.4-.3-.7.2-1.4.2-.7-.8-1.4-.8-.7,0-1.4,0-.7,0-1.4,0-.7.4-1.4.4-.7.1-1.4.1-.7-.5-1.4-.5-.7.7-1.4.7-.7-.6-1.4-.6-.7.1-1.4.1-.7,0-1.4,0-.7-.1-1.4-.1-.7.4-1.4.4-.7.3-1.4.3-.7.4-1.4.4-.7-.4-1.4-.4-.7-.4-1.4-.4-.7,0-1.4,0-.7-.2-1.4-.2-.7,0-1.4,0-.7-.2-1.4-.2-.7.5-1.4.5-.7.1-1.4.1-.7-.7-1.4-.7-.7.7-1.4.7-.7-.6-1.4-.6-.7.5-1.4.5-.7,0-1.4,0-.7,0-1.4,0-.7.2-1.4.2-.7.1-1.4.1-.7-.5-1.4-.5-.7.4-1.5.4-.7-.2-1.5-.2-1,.3-1.5.4c-.5,0-1.1-.2-1.6,0-.5.1-1,.2-1.5.3-.5.2-1.2-.1-1.7.1-.5.2-.9.7-1.3.9-.4.3-.8.7-1.2,1-.6.4-.7.3-1.2.7-.6.4-.1,1.1-.7,1.5-.6.4-1.2-.5-1.8,0s0,1.2-.6,1.6-.6.4-1.2.8c-.6.4-.9,0-1.5.4-.6.4-.4.7-1,1.1-.6.4-.4.6-1,1-.6.4-1-.2-1.6.2s-.4.7-1,1.1-.7.3-1.3.7c-.6.4-.6.4-1.2.9-.6.4-.8.2-1.3.6s-.1,1-.7,1.5c-.6.4-.7.3-1.2.7-.6.4-.5.5-1.1.9-.6.4-.6.4-1.2.8-.6.4-.7.2-1.3.6-.6.4-.9,0-1.5.4-.6.4-.3.8-.9,1.2-.6.4-.7.3-1.3.7-.6.4-.6.3-1.2.8-.6.4-.5.5-1.1.9-.6.4-.4.8-.9,1.2s-1-.2-1.6.2c-.6.4-.7.2-1.3.7-.6.4-.3.8-.9,1.2-.6.4-.1,1-.7,1.5s-1-.2-1.6.3c-.6.4-.2,1-.7,1.4-.6.4-.8.2-1.3.6-.6.4-.4.6-1,1-.6.4-.7.3-1.3.7-.6.4-.5.5-1.1.9-.6.4-1-.1-1.6.3-.6.4-.1,1.1-.7,1.5s-1.3-.6-1.9-.1-.2,1-.8,1.4c-.6.4-.3.8-.9,1.2s-.5.5-1.1.9c-.6.4-1.2-.4-1.8,0-.6.4-.3.9-.9,1.3-.6.4-.9,0-1.5.4-.6.4-.1,1.1-.7,1.5-.6.4-1-.2-1.6.2-.6.4-.2,1-.7,1.4s-1-.1-1.6.3c-.6.4-.6.4-1.2.8-.6.4-.4.7-1,1.1-.6.4-.9,0-1.5.4-.6.4-.2.9-.8,1.3-.6.4-.3.8-.9,1.2-.6.4-1.3-.6-1.9-.2-.6.4-.2,1-.8,1.4-.6.4-1-.1-1.6.3-.6.4.1,1.4-.5,1.8-.6.4-.7.2-1.3.7-.6.4-.6.4-1.2.9-.6.4-.6.5-1.1.9-.6.4-.5.5-1.1,1-.6.4-1.3-.5-1.9-.1-.6.4-.6.4-1.2.9-.6.4-.4.7-1,1.1-.6.4-.3.9-.9,1.3-.6.4-1-.1-1.6.3-.6.4-.3.9-.9,1.3-.6.4-.7.3-1.3.7-.6.4-.5.6-1.1,1-.6.4-.5.5-1.1.9-.6.4-.6.4-1.2.8-.6.4-1-.1-1.6.3-.6.4-.1,1.1-.7,1.5-.6.4-.8.2-1.3.6-.6.4-.6.4-1.2.8-.6.4-.9,0-1.5.4-.6.4-.2,1-.8,1.4-.6.4-.3.8-.9,1.2-.6.4-1.3-.5-1.8,0-.6.4-.2,1-.7,1.5s-.5.5-1.1,1c-.4.3-.6.7-1,1-.4.3-1,.3-1.3.7-.3.3-.7.6-1,1-.3.4-.9.5-1.2.9-.3.4,0,1.1-.2,1.5s-.9.6-1.1,1.1c-.2.4-.2.9-.4,1.4-.1.5-.1,1-.2,1.4,0,.5-.6.9-.6,1.4,0,.5.7,1,.7,1.5,0,.7-.5.7-.5,1.4,0,.7.2.7.2,1.4,0,.7,0,.7,0,1.4,0,.7.5.7.5,1.4,0,.7-.7.7-.7,1.4,0,.7,0,.7,0,1.4,0,.7-.5.7-.5,1.4,0,.7.3.7.3,1.4,0,.7.4.7.4,1.4,0,.7.4.7.4,1.4s-.8.7-.9,1.4c0,.7.1.7.1,1.4,0,.7.6.7.6,1.4,0,.7-.6.7-.6,1.4,0,.7-.4.7-.4,1.4,0,.7.9.7.9,1.4,0,.7.1.7.1,1.4,0,.7-.2.7-.2,1.4,0,.7-.9.7-.9,1.4,0,.7.3.7.3,1.4,0,.7,0,.7,0,1.4,0,.7-.4.7-.4,1.4,0,.7.9.7.9,1.4,0,.7-1,.7-1,1.4,0,.7,1.1.7,1.1,1.4,0,.7-.5.7-.5,1.4,0,.7,0,.7,0,1.4,0,.7,0,.7,0,1.4,0,.7-.5.7-.5,1.4,0,.7.8.7.7,1.4,0,.7,0,.7,0,1.4,0,.7,0,.7,0,1.4,0,.7-.7.7-.7,1.4,0,.7.2.7.2,1.4,0,.7.5.7.5,1.4,0,.7-.7.7-.7,1.4,0,.7,0,.7,0,1.4s.4.7.3,1.4c0,.7,0,.7,0,1.4,0,.7.4.7.4,1.4,0,.7-.5.7-.5,1.4,0,.7-.5.7-.5,1.4,0,.7.2.7.2,1.4,0,.7.8.7.8,1.4,0,.7,0,.7,0,1.4,0,.7-.1.7-.1,1.4,0,.5-.6,1-.6,1.5,0,.5,0,1.1,0,1.6,0,.5.9.8,1,1.3.1.5.5.9.7,1.3.2.5,0,1,.3,1.5.2.4,0,1.2.4,1.6.3.4,1,.5,1.4.9.3.4.2,1.3.5,1.6.5.5.8.2,1.3.7.5.5.2.8.7,1.3.5.5,1.3-.3,1.8.2.5.5.3.8.8,1.3.5.5.7.3,1.2.8.5.5.6.4,1.1.9.5.5.2.8.8,1.3.5.5.3.8.8,1.3.5.5.4.6.9,1.1.5.5.7.3,1.3.8.5.5.3.7.8,1.2.5.5,1.2-.2,1.7.3.5.5.5.6,1,1.1.5.5,0,1,.6,1.5.5.5,1.1,0,1.6.4.5.5-.2,1.2.3,1.7.5.5.8.2,1.3.7.5.5.4.6,1,1.1.5.5.8.2,1.4.7.5.5.3.7.8,1.2.5.5.2.8.8,1.3.5.5,1,0,1.5.5.5.5,0,1,.5,1.5.5.5.7.3,1.2.8.5.5,1,0,1.5.5.5.5.4.6,1,1.1.5.5.5.5,1,1,.5.5-.1,1.2.4,1.7.5.5,1.3-.3,1.8.2.5.5.4.6.9,1.1.5.5-.1,1.2.4,1.7.5.5.8.2,1.4.7q.5.5,1,1c.5.5.5.5,1,1,.5.5.3.8.8,1.3.5.5.5.5,1,1,.5.5,1.1-.2,1.7.3.5.5.3.8.8,1.3.5.5.2.8.8,1.3.5.5.6.4,1.1.9.5.5.4.6,1,1.1.5.5.9,0,1.4.6.5.5.2.9.7,1.4.5.5.5.6,1,1.1.5.5,1,0,1.5.5.5.5.4.6,1,1.1.5.5.1.9.7,1.4s.5.5,1,1c.5.5.6.4,1.1.9.5.5,1,0,1.6.5.5.5.6.4,1.2.9.5.5.5.5,1,1,.5.5.4.6.9,1.1.5.5,0,1.1.4,1.6s.8.2,1.3.7c.5.5.7.3,1.2.8.5.5.5.5,1,1,.5.5.4.6,1,1.1.5.5.9.1,1.4.6.5.5,0,1.1.5,1.6.5.5.6.4,1.1,1,.5.5.9.1,1.4.6.5.5.4.6.9,1.1.3.3.6.7,1,1,.4.3.5.9.9,1.2.4.3,1.1,0,1.6.1.4.2.7.7,1.2.8.4.2.8.7,1.2.9.5.1,1,.3,1.4.4.5,0,.9.4,1.4.5.5,0,1,0,1.5,0,.7,0,.7-.9,1.4-.9s.7.2,1.4.2.7-.4,1.4-.4.7.1,1.4.1.7-.2,1.4-.2.7.3,1.4.3.7.4,1.4.4.7-.2,1.4-.2.7-.3,1.4-.3.7.4,1.4.4.7-.4,1.4-.4.7.9,1.4.9.7-.8,1.4-.8.7.5,1.4.5.7.5,1.4.5.7-1.1,1.4-1.1.7,1.2,1.4,1.2.7,0,1.4,0,.7-.1,1.4-.1.7-1,1.4-1,.7,1,1.4,1,.7-.4,1.4-.4.7.2,1.4.2.7-.7,1.4-.7.7.2,1.4.2.7-.3,1.4-.3.7.2,1.4.2.7.7,1.4.7.7-.8,1.4-.8.7.8,1.4.8.7-1.1,1.4-1.1.7.2,1.4.2.7,0,1.4,0,.7,1,1.4,1,.7-1,1.4-1,.7.7,1.4.7.7-.4,1.4-.4.7-.3,1.4-.3.7-.2,1.4-.2.7.4,1.4.4.7.1,1.4.1.7-.5,1.4-.5.7.6,1.4.6.7-.3,1.4-.3.7.2,1.4.2.7.5,1.4.5.7-.8,1.4-.8.7-.3,1.4-.3.7.7,1.4.7.7.5,1.4.5.7-.2,1.4-.2.7-.9,1.4-.9.7.4,1.4.4.7.5,1.4.5.7,0,1.4,0,.7-.4,1.4-.4.7-.4,1.4-.4.7.9,1.4.9.7,0,1.4,0,.7.1,1.4.1.7.2,1.4.2.7,0,1.4,0,.7-.9,1.4-.9.7.9,1.4.9.7-1,1.4-1,.7.7,1.4.7.7-.3,1.4-.3.7,0,1.4,0,.7-.6,1.4-.6.7.8,1.4.8.7,0,1.4,0,.7,0,1.4,0,.7-.5,1.4-.5.7-.3,1.4-.3.7.3,1.4.3.7,0,1.4,0,.7.4,1.4.4.7.6,1.4.6.7-1.1,1.4-1.1.7.6,1.4.6.7-.4,1.4-.4.7.6,1.4.6.7-.3,1.4-.3.7,0,1.4,0,.7-.3,1.4-.3.7.2,1.4.2.7.7,1.4.7.7-.4,1.4-.4.7,0,1.4,0,.7-.7,1.4-.7.7.7,1.4.7.7-.4,1.4-.4.7.3,1.4.3.7.2,1.4.2.7-.7,1.4-.7.7.9,1.4.9.7,0,1.4,0,.7-1,1.4-1,.7.6,1.4.6.7-.1,1.4-.1.7-.3,1.4-.3.7.9,1.4.9.7-.3,1.4-.3.7-.4,1.4-.4.7.8,1.4.8.7-.5,1.4-.5.7-.4,1.4-.4.7.3,1.4.3.7,0,1.4,0,.7.1,1.4.1.7-.3,1.4-.3.7.7,1.4.7.4,0,.5,0c32.8-35.5,55.4-80.6,63.2-130.6-.5-.2-.5-.9-1.2-.9s-.7.7-1.4.7-.7-.7-1.4-.7-.7.2-1.4.2-.7.8-1.4.8-.7-.8-1.4-.8-.7.9-1.4.9-.7-.1-1.4-.1-.7-.5-1.4-.5-.7-.5-1.4-.5-.7.9-1.4.9-.7-.8-1.4-.8-.7,0-1.4,0-.7,0-1.4,0-.7.7-1.4.7-.7-.3-1.4-.3-.7-.2-1.4-.2-.7-.2-1.4-.2-.7.2-1.4.2-.7,0-1.4,0-.7-.4-1.4-.4-.7.6-1.4.6-.7.6-1.4.6-.7-1.1-1.4-1.1-.7.3-1.4.3-.7-.4-1.4-.4-.7,1-1.4,1-.7-.2-1.4-.2-.7-.6-1.4-.6-.7,0-1.4,0-.7.7-1.4.7-.7.3-1.4.3-.7,0-1.4,0-.7-1.1-1.4-1.1-.7,1.1-1.4,1.1-.7-1.1-1.4-1.1-.7,1.2-1.4,1.2-.7-1-1.4-1-.7.2-1.4.2-.7.4-1.4.4-.7-.2-1.4-.2-.7.4-1.4.4-.7-.4-1.4-.4-.7.6-1.4.6-.7-.9-1.4-.9-.7.9-1.4.9-.7-.7-1.4-.7-.7-.3-1.4-.3-.7,1.1-1.4,1.1-.7-.3-1.4-.3-.7,0-1.4,0-.7,0-1.4,0-.7-.3-1.4-.3-.7-.3-1.4-.3-.7.4-1.4.4-.7,0-1.4,0-.7-.2-1.4-.2-.7.2-1.4.2-.7-.5-1.4-.5-.7.2-1.4.2-.7-.1-1.4-.1-.7,0-1.4,0-.7,0-1.4,0-.7.6-1.4.6-.7.1-1.4.1-.7,0-1.4,0-.7-.7-1.4-.7-.7.7-1.4.7-.7-.3-1.4-.3-.7-.4-1.4-.4-.7,0-1.4,0-.7.2-1.4.2-.7-.3-1.4-.3-.7.3-1.4.3-.7-.2-1.4-.2-.7-.2-1.4-.2-.7,1-1.4,1-.7-.9-1.4-.9-1,.1-1.5,0c-.5-.2-.8-.5-1.3-.8-.4-.3-.5-.8-.8-1.2-.3-.4-.8-.6-.9-1.1-.2-.5-1.2-.9-1.2-1.4h.9c0-.5,0-1,.2-1.5.2-.5.3-.9.6-1.3.3-.4.5-1,.9-1.3.4-.3.8-.7,1.3-.9.5-.2,1.1-.5,1.6-.5s.7.7,1.4.7.7,0,1.4,0,.7-.4,1.4-.4.7.7,1.4.7.7-1,1.4-1,.7,0,1.4,0,.7,0,1.4,0,.7,1,1.4,1,.7-.9,1.4-.9.7,0,1.4,0,.7,0,1.4,0,.7-.2,1.4-.2.7.6,1.4.6.7-.7,1.4-.7.7.2,1.4.2.7.7,1.4.7.7-.2,1.4-.2.7-.1,1.4-.1.7-.7,1.4-.7.7.4,1.4.4.7.1,1.4.1.7,0,1.4,0,.7-.3,1.4-.3.7.6,1.4.6.7-.2,1.4-.2.7-.6,1.4-.6.7.3,1.4.3.7.2,1.4.2.7,0,1.4,0,.7-.5,1.4-.5.7.6,1.4.6.7,0,1.4,0,.7-.7,1.4-.7.7.1,1.4.1.7.5,1.4.5.7,0,1.4,0,.7-.4,1.4-.4.7.7,1.4.7.7-.2,1.4-.2.7-.6,1.4-.6.7.3,1.4.3.7-.4,1.4-.4.7.6,1.4.6.7,0,1.4,0,.7.5,1.4.5.7-.4,1.4-.4.7-.8,1.4-.8.7,0,1.4,0,.7.7,1.4.7.7.5,1.4.5.7-1.1,1.4-1.1.7.4,1.4.4.7.7,1.4.7.7-.7,1.4-.7.7.3,1.4.3.7-.3,1.4-.3.7,0,1.4,0,.7-.1,1.4-.1.7.9,1.4.9.7-1.1,1.4-1.1.7,1,1.4,1,.7,0,1.4,0,.7,0,1.4,0,.7-.5,1.4-.5.7-.5,1.4-.5.7.8,1.4.8.7-.3,1.4-.3.7-.3,1.4-.3.7.3,1.4.3.7-.5,1.4-.5.7,1,1.4,1,.7,0,1.4,0,.7-.2,1.4-.2.7-.8,1.4-.8.7.7,1.4.7.7-.1,1.4-.1.7-.5,1.4-.5.7.4,1.4.4.7-.3,1.2-.3c1-9.2,1.6-18.5,1.6-28s0-5-.1-7.5Z"/>
  <path class="cls-1" d="M182.9,308.6c0-.7-.6-.7-.6-1.5,0-.7-.6-.7-.6-1.5s1.1-.7,1.1-1.5c0-.5-.3-1-.3-1.5,0-.5.2-1.1.1-1.6,0-.5-1.2-.7-1.4-1.2-.1-.5-.2-1-.3-1.4-.2-.5.1-1.2-.1-1.6-.2-.4-.5-.9-.8-1.3-.3-.4-1.1-.4-1.4-.8-.3-.4-.8-.5-1.2-.9-.4-.3-.6-.7-1-1-.4-.3-.1-1.5-.6-1.8-.4-.3-1.4.4-1.8.2-.4-.2-.4-1.4-.8-1.6-.4-.2-1.3.8-1.7.6-.5-.1-.7-1.2-1.1-1.3-.5,0-1,0-1.5,0-.5,0-1,.8-1.5.8s-1.1-.9-1.6-.8c-.5,0-1.1.1-1.6.2-.5.1-1,.3-1.5.4-.5.2-.9.6-1.4.8-.5.2-.8.6-1.3.9-.4.3-.7.7-1.2,1-.6.4-1-.2-1.6.2-.6.4-.6.4-1.2.8-.6.4-.3.8-.9,1.2-.6.4-1-.2-1.6.2-.6.4,0,1.2-.6,1.7-.6.4-.6.4-1.2.8-.6.4-.6.4-1.2.9-.6.4-1.1-.4-1.7,0-.6.4,0,1.2-.6,1.6-.6.4-.6.4-1.2.8-.6.4-.6.4-1.2.8-.6.4-.5.6-1.1,1-.6.4-.9,0-1.5.4-.6.4-.2,1-.8,1.4-.6.4-.7.2-1.3.7-.6.4-1-.2-1.6.2-.6.4-.5.5-1.1,1-.6.4-.5.5-1.1,1-.6.4-.2,1-.8,1.4-.6.4-.8,0-1.4.5-.6.4-.7.3-1.2.7-.6.4-.6.4-1.2.8-.6.4-.4.6-1,1.1-.6.4-.9,0-1.5.3s-.5.6-1.1,1c-.6.4-.2.9-.8,1.4-.6.4-.8.2-1.4.6-.6.4-.7.2-1.3.7-.6.4-.6.4-1.2.9-.6.4-.3.9-.9,1.3-.6.4-1,0-1.5.3-.6.4-.6.3-1.2.8s-.2,1-.8,1.4c-.4.3-.8.5-1.2.8-.4.3-1,.3-1.4.7-.3.4-.6.7-.9,1.1-.3.4-.2,1-.5,1.4-.3.4-1.1.5-1.3.9s-.2,1-.4,1.4c-.2.5.3,1.1.1,1.6-.1.5-.6.8-.6,1.3,0,.5.2,1,.2,1.5,0,.5-.7.9-.6,1.4,0,.5,0,1,0,1.5,0,.5-.3,1.1-.2,1.5.1.5.7.9.8,1.3.1.5,1.1.6,1.2,1.1.2.4.4.8.6,1.3.2.4-.1,1.2.1,1.6.3.4.2,1.1.5,1.5.3.4,1.5,0,1.8.3.3.3.4.9.8,1.2.4.3.4,1.2.8,1.4.4.3,1.2-.1,1.6.1.4.2.8.7,1.2.9.4.2,1,0,1.5.2.5.1.9.2,1.4.3.5,0,.9,0,1.4,0,.5,0,.9,1,1.4,1,.7,0,.7-1.1,1.4-1.1s.7,1,1.4,1,.7,0,1.4,0,.7,0,1.4,0,.7-.5,1.4-.5.7-.5,1.4-.5.7.8,1.4.8.7-.3,1.4-.3.7-.3,1.4-.3.7.3,1.4.3.7-.5,1.4-.5.7,1,1.4,1,.7,0,1.4,0,.7-.2,1.4-.2.7-.8,1.4-.8.7.7,1.4.7.7-.1,1.4-.1.7-.5,1.4-.5.7.4,1.4.4.7-.3,1.4-.3.7.4,1.4.4.7-.5,1.4-.5.7.9,1.4.9.7-.2,1.4-.2.7,0,1.4,0,.7-.6,1.4-.6.7.6,1.4.6,1-.1,1.5-.2c.5,0,1,.1,1.5,0,.5,0,.9-.4,1.4-.6.5-.1,1,0,1.5-.3.5-.2.6-1.1,1-1.3.4-.2,1.1-.1,1.5-.4.4-.3.5-1,.8-1.3.4-.3,1.4,0,1.7-.3.3-.3,0-1.3.4-1.6.3-.4.5-.8.8-1.2.3-.4.4-.9.6-1.3.2-.4,1.4-.4,1.5-.9.2-.4-.3-1.2-.1-1.6.1-.5.9-.8,1-1.3,0-.5,0-1,0-1.5,0-.5-.7-1-.7-1.5,0-.7.8-.7.8-1.5,0-.7-.9-.7-.9-1.5,0-.7.1-.7.1-1.5,0-.7.5-.7.5-1.5,0-.7.5-.7.5-1.5,0-.7-.9-.7-.9-1.5,0-.7.8-.7.8-1.5,0-.7,0-.7,0-1.5,0-.7,0-.7,0-1.5,0-.7-.7-.7-.7-1.5s.3-.7.3-1.5c0-.7.2-.7.2-1.5,0-.7.2-.7.2-1.5,0-.7-.2-.7-.2-1.5,0-.7.1-.7.1-1.5,0-.7.4-.7.4-1.5Z"/>
  <path class="cls-1" d="M423.2,428.8c-.7,0-.7-.3-1.4-.3s-.7.6-1.4.6-.7,0-1.4,0-.7-.8-1.4-.8-.7.9-1.4.9-.7-.2-1.4-.2-.7.5-1.4.5-.7-.6-1.4-.6-.7,0-1.4,0-.7.3-1.4.3-.7-.2-1.4-.2-.7-.5-1.4-.5-.7.7-1.4.7-.7-.6-1.4-.6-.7.7-1.4.7-.7-.2-1.4-.2-.7.4-1.4.4-.7-.8-1.4-.8-.7.3-1.4.3-.7.1-1.4.1-.7-.7-1.4-.7-.7-.2-1.4-.2-.7.1-1.4.1-.7.1-1.4.1-.7.5-1.4.5-.7.2-1.4.2-.7-.2-1.4-.2-.7-.8-1.4-.8-.7.2-1.4.2-.7,0-1.4,0-.7,0-1.4,0-.7.6-1.4.6-.7-.6-1.4-.6-.7.8-1.4.8-.7-.8-1.4-.8-.7.6-1.4.6-.7-.8-1.4-.8-.7.7-1.4.7-.7-.1-1.4-.1-.7,0-1.4,0-.7.1-1.4.1-.7-.5-1.4-.5-.7.8-1.4.8-.7,0-1.4,0-.7.1-1.4.1-.7-1-1.4-1-.7.8-1.4.8-.7,0-1.4,0-.7-1.1-1.4-1.1-.7.1-1.4.1-.7.7-1.4.7-.7,0-1.4,0-.7-.7-1.4-.7-.7-.2-1.4-.2-.7.2-1.4.2-.7.8-1.4.8-.7-.6-1.4-.6-.7.5-1.4.5-.7-.9-1.4-.9-.7,1-1.4,1-.7-.6-1.4-.6-.7.6-1.4.6-.7-.8-1.4-.8-.7,0-1.4,0-.7-.2-1.4-.2-.7.6-1.4.6-.7.2-1.4.2-.7-.1-1.4-.1-.7.3-1.4.3-.7-.8-1.4-.8-.7-.2-1.4-.2-.7.3-1.4.3-.7-.2-1.4-.2-.7.1-1.4.1-.7,0-1.4,0-.7.5-1.4.5-.7-.7-1.4-.7-.7.9-1.4.9-.7-.4-1.4-.4-.7-.2-1.4-.2-.7.7-1.4.7-.7,0-1.4,0-.7-.6-1.4-.6-.7.3-1.4.3-.7-.2-1.4-.2-.7,0-1.4,0-.7.2-1.4.2-.7-.3-1.4-.3-.7.4-1.4.4-.7-.8-1.4-.8-.7.5-1.4.5-.7-.5-1.4-.5-.7.9-1.4.9-.7-.3-1.4-.3-.7-.1-1.4-.1-.7,0-1.4,0-.7.2-1.4.2-.7-.2-1.4-.2-.7.3-1.4.3-.7-.1-1.4-.1-.7-.2-1.4-.2-.7-.6-1.4-.6-.7.2-1.5.2-.7,1-1.4,1-.7-.2-1.4-.2-.7-.5-1.5-.5-.7.6-1.4.6-.7-1-1.5-1-.7,1.1-1.5,1.1-.7-1.2-1.5-1.2-.7,1.2-1.5,1.2-.6-.2-1.3,0c-.8.3-1.1.2-1.8,0-.2-.5.1-1.6,0-2.1-.2-.5-.4-.9-.7-1.4-.2-.4-.6-.8-.8-1.3-.3-.4-.8-.6-1.1-1-.3-.4-.8-.6-1.2-.9-.5-.5-.7-.3-1.2-.8-.5-.5,0-1-.5-1.5-.5-.5-.5-.5-1-1-.5-.5-.8-.2-1.3-.7s0-1-.5-1.5-1.2.2-1.7-.3c-.5-.5-.5-.5-1-1-.5-.5-.5-.5-1.1-1-.5-.5.1-1.2-.4-1.7-.5-.5-1.2.2-1.7-.3s-.5-.5-1-1c-.5-.5-.5-.5-1-1-.5-.5-.6-.4-1.2-.9-.5-.5-.1-.9-.7-1.4-.5-.5-1,0-1.5-.5-.5-.5-.4-.7-.9-1.1-.5-.5,0-1-.5-1.5-.5-.5-.6-.4-1.1-.9-.5-.5-.6-.4-1.1-.9-.5-.5-1,0-1.5-.5-.5-.5-.2-.8-.7-1.3-.5-.5-.4-.6-.9-1.1-.5-.5-.5-.5-1-1-.5-.5-.7-.3-1.2-.8-.5-.5,0-.9-.6-1.4-.5-.5-.6-.4-1.1-.9-.5-.5-1,0-1.5-.5-.5-.5-.3-.7-.8-1.2-.5-.5-.4-.7-.9-1.2-.5-.5-.5-.5-1-1-.5-.5-.9-.1-1.4-.6-.5-.5,0-.9-.6-1.4-.5-.5-.5-.6-1-1.1-.5-.5-1,0-1.5-.5-.5-.5-.4-.6-1-1.1-.5-.5-.2-.8-.7-1.3-.5-.5-.5-.5-1.1-1-.5-.5-.8-.2-1.3-.7-.5-.5,0-1-.6-1.5-.5-.5-.7-.4-1.2-.8-.5-.5-.9,0-1.5-.5-.5-.5-.3-.7-.8-1.2-.5-.5-.8-.2-1.3-.7-.5-.5-.1-.9-.6-1.4-.5-.5-.5-.6-1-1.1-.5-.5-.2-.8-.7-1.3-.5-.5-.8-.2-1.3-.7-.5-.5-1.1,0-1.6-.4q-.5-.5-1-1c-.5-.5,0-1-.5-1.5-.5-.5-.2-.9-.7-1.4-.5-.5-1.3.3-1.8-.2-.5-.5-.3-.8-.8-1.3s0-1-.5-1.5c-.5-.5-1,0-1.5-.5-.5-.5-.3-.7-.9-1.2-.5-.5-.7-.3-1.2-.8-.5-.5-.6-.5-1.1-1-.5-.5-.6-.4-1.1-.9-.5-.5.1-1.2-.4-1.7-.5-.5-1.3.3-1.8-.2-.5-.5.2-1.2-.3-1.7-.3-.3-.7-.7-1.1-1-.4-.3-.8-.6-1.2-.9-.4-.3-1.1-.1-1.5-.3-.4-.2-1.1,0-1.5-.1s-.6-1.1-1.1-1.2c-.5-.1-1,0-1.5,0-.5,0-1,.2-1.5.1-.5,0-.9-.4-1.4-.4-.7,0-.7.5-1.4.5s-.7-1-1.4-1-.7,0-1.4,0-.7.2-1.4.2-.7.8-1.4.8-.7-.7-1.4-.7-.7.1-1.4.1-.7.5-1.4.5-.7-.4-1.4-.4-.7.3-1.4.3-.7-.4-1.4-.4-.7.5-1.4.5-.7-.9-1.4-.9-.7.2-1.4.2-.7,0-1.4,0-.7.6-1.4.6-.7-.6-1.4-.6-.7.1-1.4.1-.7-.3-1.4-.3-.7.2-1.4.2-.7-.3-1.4-.3-.7.7-1.4.7-.7-.4-1.4-.4-.7.5-1.4.5-.7-.9-1.4-.9-.7.8-1.4.8-.7,0-1.4,0-.7.2-1.4.2-.7-1-1.4-1-.7.7-1.4.7-.7-.7-1.4-.7-.7.2-1.4.2-.7.8-1.4.8-.7-.8-1.4-.8-.7.9-1.4.9-.7-.1-1.4-.1-.7-.5-1.4-.5-.7-.5-1.4-.5-.7.9-1.4.9-.7-.8-1.4-.8-.7,0-1.4,0-.7,0-1.4,0-.7.7-1.4.7-.7-.3-1.4-.3-.7-.2-1.4-.2-.7-.2-1.4-.2-.7.2-1.4.2-.7,0-1.4,0-.7-.4-1.4-.4-.7.6-1.4.6-.7.6-1.4.6-.7-1.1-1.4-1.1-.7.3-1.4.3-.7-.4-1.4-.4-.7,1-1.4,1-.7-.2-1.4-.2-.7-.6-1.4-.6-.7,0-1.4,0-.7.7-1.4.7-.7.3-1.4.3-.7,0-1.4,0-.7-1.1-1.4-1.1-.7,1.1-1.4,1.1-.7-1.1-1.4-1.1-.7,1.2-1.4,1.2-.7-1-1.4-1-.7.2-1.4.2-.7.4-1.4.4-.7-.2-1.4-.2-.7.4-1.4.4-.7-.4-1.4-.4-.7.6-1.4.6-.7-.9-1.4-.9-.7.9-1.4.9-.7-.7-1.4-.7-.7-.3-1.4-.3-.7,1.1-1.4,1.1-.7-.3-1.4-.3-.7,0-1.4,0-.7,0-1.4,0-.7-.3-1.4-.3-.7-.3-1.4-.3-.7.4-1.4.4-.7,0-1.4,0-.7-.2-1.4-.2-.7.2-1.4.2-.7-.5-1.4-.5-.7.2-1.4.2-.7-.1-1.4-.1-.7,0-1.4,0-.7,0-1.4,0-.7.6-1.4.6-.7.1-1.4.1-.7,0-1.4,0-.7-.7-1.4-.7-.7.7-1.4.7-.7-.3-1.4-.3-.7-.4-1.4-.4-.7,0-1.4,0-.7.2-1.4.2-.7-.3-1.4-.3-.7.3-1.4.3-.7-.2-1.4-.2-.7-.2-1.4-.2-.7,1-1.4,1-.7-.9-1.4-.9-.7.2-1.4.2-.7-.1-1.4-.1-.7-.3-1.4-.3-.6.1-.9.2c40,84.8,126.2,143.5,226.2,143.5s129.2-27,174.2-70.8c-.4-.1-.5-.5-1-.5Z"/>
  <path class="cls-1" d="M183.2,227c0-.7,0-.7,0-1.5,0-.7-.7-.7-.7-1.5,0-.7.5-.7.5-1.5,0-.7-.2-.7-.2-1.5s.3-.7.3-1.5c0-.7-.5-.7-.4-1.5,0-.7-.4-.7-.4-1.5,0-.7.3-.7.3-1.5,0-.7,0-.7,0-1.5,0-.7.1-.7.1-1.5,0-.7.1-.7.1-1.5,0-.7.3-.7.3-1.5,0-.7-.8-.7-.8-1.5,0-.5-.2-.9-.2-1.4,0-.5-.1-.9-.2-1.3,0-.5.4-1,.3-1.5-.1-.5-.7-.8-.8-1.2-.2-.4-.2-.9-.4-1.4-.2-.4,0-1.1-.2-1.6-.3-.4-1-.5-1.3-.9-.3-.4-.8-.5-1.2-.8-.3-.3-.3-1.1-.6-1.4-.4-.3-1-.3-1.3-.6-.4-.3-.5-1-.9-1.3-.4-.2-1.3.4-1.7.2-.4-.2-.5-1-1-1.1-.4-.2-1,.2-1.4,0-.4-.1-.9,0-1.3-.2-.4,0-.8-.7-1.3-.7-.5,0-.9,0-1.4,0-.7,0-.7.5-1.4.5s-.7-.7-1.4-.7-.7.5-1.4.5-.7.1-1.4.1-.7-.7-1.4-.7-.7,0-1.4,0-.7-.1-1.4-.1-.7-.2-1.4-.2-.7.2-1.4.2-.7.4-1.4.4-.7-.5-1.4-.5-.7,1.2-1.4,1.2-.7-1-1.4-1-.7.7-1.4.7-.7.2-1.4.2-.7-.3-1.4-.3-.7-.3-1.4-.3-.7.4-1.4.4-.7,0-1.4,0-.7-.6-1.4-.6-.7.9-1.4.9-.7-.8-1.4-.8-.7.8-1.4.8-.7-.8-1.4-.8-.7-.1-1.4-.1-.7.8-1.4.8-.7-.5-1.4-.5-.7,0-1.4,0-.7,0-1.4,0-.7.6-1.4.6-.7-.6-1.4-.6-.7.5-1.4.5-.7-.2-1.4-.2-.7-1-1.4-1-.7,1-1.4,1-.7.1-1.4.1-.7-1-1.4-1-.7.2-1.4.2-.7-.2-1.4-.2-.7.3-1.4.3-.7.2-1.4.2-.7-.4-1.4-.4-.7.2-1.4.2-.7.2-1.4.2-.7,0-1.4,0-.7.1-1.4.1-.7.2-1.4.2-.7-.6-1.4-.6-.7-.2-1.4-.2-.7.9-1.4.9-.7-.2-1.4-.2-.7-.3-1.4-.3-.7.3-1.4.3-.7-.7-1.4-.7-.7.7-1.4.7-.7.3-1.4.3-.7-.7-1.4-.7-.7.5-1.4.5-.7-.5-1.4-.5-.7.6-1.4.6-.7,0-1.4,0-.7-.1-1.4-.1-.7-.2-1.4-.2-.7.4-1.4.4-.7-.3-1.4-.3-.7-.4-1.4-.4-.7.3-1.4.3-.7.3-1.4.3-.7-.7-1.4-.7-.7.7-1.4.7-.7-.8-1.4-.8-.7,0-1.4,0-.7,0-1.4,0-.7.4-1.4.4-.7.3-1.4.3-.7-.7-1.4-.7-.7-.2-1.4-.2-.7.3-1.4.3-.7-.4-1.4-.4-.7.4-1.4.4-.7-.2-1.4-.2-.7.6-1.4.6-.7-.3-1.4-.3-.7.4-1.4.4-.7,0-1.4,0-.7-.9-1.4-.9-.7,1-1.4,1-.7-.5-1.4-.5-.7.2-1.4.2-.7-.2-1.4-.2-.7.3-1.4.3-.7-.4-1.4-.4-.7-.4-1.4-.4-.7,1-1.4,1-.7-1-1.4-1-.7,1-1.4,1-.7-1.1-1.4-1.1-.7.2-1.4.2-.7,1-1.4,1-.7-.7-1.4-.7-.7-.6-1.4-.6-.7.6-1.4.6-.7.5-1.4.5-.7-.6-1.4-.6-.7.7-1.4.7-.7,0-1.4,0-.7-1.1-1.4-1.1-.7-.1-1.4-.1-.7.7-1.4.7-.7,0-1.4,0-.7.4-1.4.4-.7-.5-1.1-.7c-4.3,18.4-6.6,37.6-6.6,57.4,0,34.4,6.9,67.1,19.5,96.9,0,0,.1,0,.2,0,.7,0,.7.5,1.4.5s.7,0,1.4,0,.7-.4,1.4-.4.7-.6,1.4-.6.7,1.1,1.4,1.1.7-.2,1.4-.2.7-.7,1.4-.7.7.4,1.4.4.7-.5,1.4-.5.7.9,1.4.9.7-1,1.4-1,.7,0,1.4,0,.7.9,1.4.9.7-.6,1.4-.6.7-.2,1.4-.2.7.6,1.4.6.7-.5,1.4-.5.7.2,1.4.2.7-.2,1.4-.2.7.3,1.4.3.7,0,1.4,0,.7.3,1.4.3.7-.6,1.4-.6.7.6,1.4.6.7-.5,1.4-.5.7.5,1.4.5.7,0,1.4,0,.7,0,1.4,0,1.1,0,1.6,0c.5,0,.9-1,1.4-1.1.5-.1,1.2.4,1.7.3s.7-1,1.2-1.2c.5-.2,1.4.4,1.8.2.4-.3.8-.7,1.3-1,.6-.4.4-.6,1-1,.6-.4.3-.8.9-1.2.6-.4.7-.2,1.3-.7.6-.4.3-.8.9-1.3.6-.4,1.2.4,1.8,0,.6-.4,0-1.1.7-1.6.6-.4,1.2.4,1.8,0,.6-.4.6-.5,1.1-.9.6-.4.5-.5,1.1-.9.6-.4.3-.8.9-1.2.6-.4.5-.5,1.1-.9.6-.4.4-.7.9-1.1.6-.4,1.2.5,1.8,0,.6-.4.3-.8.9-1.3.6-.4.9,0,1.5-.4.6-.4.1-1.1.7-1.5.6-.4.6-.3,1.2-.8.6-.4.9,0,1.5-.3.6-.4.5-.6,1.1-1,.6-.4.7-.3,1.2-.7.6-.4.5-.5,1.1-1,.6-.4,0-1.1.7-1.5.6-.4.9,0,1.4-.5.6-.4.6-.4,1.2-.8.6-.4.8-.2,1.4-.6s.6-.4,1.1-.9c.6-.4.8,0,1.4-.5.6-.4.5-.5,1.1-.9.6-.4.3-.8.9-1.2s.5-.5,1.1-1c.6-.4.7-.2,1.3-.6.6-.4.6-.4,1.2-.8.6-.4.3-.8.9-1.2.6-.4.8-.2,1.3-.6.6-.4.8,0,1.4-.5s.1-1,.7-1.5c.6-.4.9,0,1.5-.4.6-.4.5-.5,1.1-.9.6-.4.5-.6,1-1,.6-.4.5-.5,1.1-.9.6-.4.8-.1,1.4-.5.6-.4.6-.4,1.2-.8.6-.4.8-.2,1.3-.6.6-.4.7-.3,1.2-.7.6-.4.6-.4,1.2-.8.6-.4,0-1.2.6-1.6.6-.4.7-.3,1.3-.7.6-.4.9,0,1.5-.4.6-.4.4-.7.9-1.2.6-.4.3-.8.9-1.2.6-.4,1.2.5,1.8,0,.6-.4,0-1.2.6-1.7.6-.4,1.1.4,1.7,0,.6-.4.5-.6,1.1-1,.6-.4.2-1,.8-1.4.6-.4.8,0,1.4-.5.6-.4.3-.9.9-1.3.6-.4.8-.1,1.4-.5.6-.4.6-.5,1.1-.9.6-.4.4-.7,1-1.1.6-.4.7-.2,1.3-.6.6-.4.9,0,1.5-.4.6-.4,0-1.2.6-1.6.6-.4.7-.2,1.3-.6.6-.4,1.1.3,1.7,0,.6-.4,0-1.3.5-1.7.6-.4.9,0,1.5-.4.6-.4.5-.6,1.1-1,.6-.4.9,0,1.5-.4.6-.4.4-.7,1-1.1.6-.4.4-.7.9-1.2.6-.4,1,.1,1.6-.3.6-.4.2-1,.7-1.4.6-.4.9,0,1.5-.4s.3-.8.9-1.2c.6-.4.7-.3,1.3-.7.6-.4.3-.8.9-1.2.6-.4.6-.4,1.2-.8.6-.4.7-.3,1.3-.7.6-.4.9,0,1.4-.5.6-.4.2-1,.8-1.4.6-.4,1,.2,1.6-.3.6-.4.6-.4,1.2-.9.6-.4.4-.7,1-1.1.6-.4,1,.2,1.6-.3.6-.4.2-.9.8-1.3.6-.4.4-.7,1-1.1.6-.4.6-.5,1.2-.9.6-.4.9,0,1.5-.4.6-.4.2-1,.8-1.4.6-.4,1.2.5,1.8,0s.5-.6,1.1-1c.4-.3.7-.7,1-1,.4-.3.4-1,.7-1.3.3-.3.8-.5,1.1-.9.3-.4.7-.7.9-1.1.3-.4.5-.8.7-1.2.2-.4.9-.7,1-1.1.2-.4-.6-1.2-.5-1.7.1-.5,1.2-.7,1.3-1.1,0-.5-.4-1-.4-1.5,0-.5.4-.9.4-1.4,0-.7,0-.7,0-1.5,0-.7-.2-.7-.2-1.5,0-.7,0-.7,0-1.5,0-.7.6-.7.6-1.5,0-.7-.1-.7-.1-1.5,0-.7-.8-.7-.8-1.5,0-.7.8-.7.8-1.5,0-.7-.5-.7-.5-1.5,0-.7.5-.7.5-1.5,0-.7-.4-.7-.4-1.5,0-.7-.4-.7-.4-1.5,0-.7.5-.7.5-1.5,0-.7-.3-.7-.2-1.5,0-.7,0-.7,0-1.5,0-.7.5-.7.5-1.5,0-.7.2-.7.2-1.5,0-.7-.6-.7-.6-1.5,0-.7.6-.7.6-1.5,0-.7-.1-.7-.1-1.5Z"/>
  <path class="cls-1" d="M10,182.9c.7,0,.7-.2,1.4-.2s.7.4,1.4.4.7-.1,1.4-.1.7-.4,1.4-.4.7.5,1.4.5.7-.6,1.4-.6.7.7,1.4.7.7-.3,1.4-.3.7,0,1.4,0,.7,0,1.4,0,.7.4,1.4.4.7-.5,1.4-.5.7.7,1.4.7.7-.2,1.4-.2.7-.9,1.4-.9.7.6,1.4.6.7-.6,1.4-.6.7,1,1.4,1,.7,0,1.4,0,.7-.3,1.4-.3.7-.7,1.4-.7.7,0,1.4,0,.7.2,1.4.2.7-.2,1.4-.2.7.8,1.4.8.7-.6,1.4-.6.7.7,1.4.7.7-.9,1.4-.9.7.3,1.4.3.7.6,1.4.6.7-.2,1.4-.2.7.1,1.4.1.7-.5,1.4-.5.7.3,1.4.3.7.2,1.4.2.7,0,1.4,0,.7-.5,1.4-.5.7.6,1.4.6.7-.9,1.4-.9.7.8,1.4.8.7-.9,1.4-.9.7.8,1.4.8.7-.9,1.4-.9.7,1.2,1.4,1.2.7-.5,1.4-.5.7.5,1.4.5.7-.3,1.4-.3.7.2,1.4.2.7-.1,1.4-.1.7-.7,1.4-.7.7.5,1.4.5.7,0,1.4,0,.7-.4,1.4-.4.7.6,1.4.6.7.2,1.4.2.7-.9,1.4-.9.7,1,1.4,1,.7-.5,1.4-.5.7,0,1.4,0,.7,0,1.4,0,.7.4,1.4.4.7-.3,1.4-.3.7.2,1.4.2.7,0,1.4,0,.7-.9,1.4-.9.7.3,1.4.3.7-.2,1.4-.2.7-.1,1.4-.1.7.6,1.4.6.7-.4,1.4-.4.7.9,1.4.9.7-1,1.4-1,.7,0,1.4,0,.7.7,1.4.7.7-.7,1.4-.7.7,0,1.4,0,.7.4,1.4.4.7.1,1.4.1.7.1,1.4.1.7-.2,1.4-.2.7,0,1.4,0,.7.4,1.4.4.7-.5,1.4-.5.7.4,1.4.4.7.1,1.4.1.7,0,1.4,0,.7-1,1.4-1,.7-.2,1.4-.2.7.7,1.4.7.7.5,1.4.5.7-.9,1.4-.9.7.4,1.4.4.7.4,1.4.4.7-.6,1.4-.6.7.2,1.4.2.7,0,1.4,0,.7.2,1.4.2.7-.8,1.4-.8.7.7,1.4.7.7-.5,1.4-.5.7,0,1.4,0,.7.4,1.4.4.7-.2,1.4-.2.7,0,1.4,0,.7.3,1.4.3.7.5,1.4.5.7-.5,1.4-.5.7,0,1.4,0,.7.4,1.4.4.7.1,1.4.1,1,0,1.5,0c.5,0,.8-1,1.3-1.1.5,0,1,0,1.4-.1.5-.1,1-.1,1.4-.3.5-.2.7-.7,1.2-.9.4-.2,1.1,0,1.5-.3.4-.3.6-.9.9-1.2.4-.3.5-.8.8-1.2.3-.3.6-.7.9-1.1.3-.4.8-.5,1.1-.9.3-.4.8-.7,1-1.1.2-.4.5-.8.7-1.3.2-.4-.1-1.1,0-1.5.1-.5,1-.8,1.1-1.2,0-.5.2-1,.2-1.5,0-.5-.3-1-.3-1.5,0-.7.1-.7.1-1.4,0-.7-.1-.7-.1-1.4,0-.7.5-.7.5-1.4,0-.7-.8-.7-.8-1.5,0-.7,0-.7,0-1.4,0-.7,0-.7,0-1.4s.2-.7.2-1.4c0-.7.3-.7.3-1.4,0-.7-.1-.7-.1-1.4s-.1-.7-.1-1.4c0-.7.2-.7.2-1.4,0-.7.3-.7.3-1.4,0-.7-.4-.7-.4-1.4,0-.7,0-.7,0-1.4,0-.7.4-.7.4-1.4,0-.7,0-.7,0-1.4,0-.7-.5-.7-.5-1.4,0-.7-.5-.7-.5-1.4,0-.7.8-.7.8-1.4,0-.7-.5-.7-.5-1.5,0-.7,0-.7,0-1.4,0-.7.3-.7.3-1.4,0-.7-.4-.7-.4-1.4,0-.7.3-.7.3-1.4,0-.7.2-.7.2-1.4,0-.7-.1-.7-.1-1.5,0-.7.2-.7.2-1.4,0-.7-.4-.7-.4-1.5,0-.7.7-.7.7-1.4,0-.7-.6-.7-.6-1.5,0-.7,0-.7,0-1.5,0-.7-.3-.7-.3-1.5,0-.7.7-.7.7-1.4,0-.7-.9-.7-.9-1.5,0-.7.6-.7.6-1.4,0-.7-.5-.7-.5-1.5,0-.7,1-.7,1-1.4,0-.7-.6-.7-.6-1.5,0-.7.6-.7.6-1.5,0-.7-.2-.7-.2-1.5,0-.7.2-.7.2-1.5,0-.7-.4-.7-.4-1.5s.5-.7.5-1.5c0-.5-.4-1-.4-1.4,0-.5-.3-.9-.4-1.4,0-.5.3-1.1.2-1.5-.1-.5-1.5-.5-1.6-1-.2-.4,0-1-.2-1.4-.2-.4-.5-.8-.8-1.2-.3-.4,0-1.2-.2-1.6-.3-.4-.7-.7-1.1-1-.3-.3-.9-.5-1.2-.8-.4-.3-.8-.5-1.2-.8-.4-.3-1-.2-1.4-.4-.4-.2-.6-.9-1-1.1-.4-.2-1,0-1.4-.2-.4-.2-.6-1.1-1.1-1.2-.4-.1-1,.2-1.4.1-.4,0-.9.2-1.4.2-.5,0-.9-1-1.3-1-.7,0-.7.4-1.4.4s-.7.5-1.4.5-.7-.3-1.4-.3-.7.2-1.4.2-.7-.3-1.4-.3-.7-.3-1.4-.3-.7.3-1.4.3-.7,0-1.4,0-.7,0-1.4,0-.7-.3-1.4-.3-.7,1-1.4,1-.7-.2-1.4-.2-.7-.1-1.4-.1-.7.4-1.4.4-.7-.4-1.4-.4-.7-.4-1.4-.4-.7-.3-1.4-.3-.7,0-1.4,0-.7.7-1.4.7-.7.4-1.4.4-.7-.2-1.4-.2-.7.4-1.4.4-.7-.6-1.4-.6-.7-.6-1.4-.6-.7.2-1.4.2-.7-.1-1.4-.1-.7.9-1.4.9-.7,0-1.4,0-.7-.5-1.4-.5-.7-.4-1.4-.4-.7.4-1.4.4-.7-.5-1.4-.5-.7.1-1.4.1-.7.1-1.4.1-.7.5-1.4.5-.7.3-1.4.3-.7.1-1.4.1-.7-.7-1.4-.7-.7,0-1.4,0-.7,0-1.4,0-.7.3-1.4.3-.7.1-1.4.1-.7,0-1.4,0-.7.2-1.4.2-.7-.3-1.4-.3-1.2.2-1.7,0c-.5-.2-.6-1.2-1-1.5-.4-.3-.7-.6-1-1.1-.3-.4-.2-.9-.4-1.4-.2-.5-.3-.8-.3-1.4h-.4c0-.5,0-1,.2-1.5.2-.5.1-1.2.4-1.6.3-.4.8-.8,1.2-1.1.4-.3,1-.5,1.5-.7.5-.2,1-.2,1.6-.2s.7.5,1.4.5.7-.5,1.4-.5.7,0,1.4,0,.7-.5,1.4-.5.7.7,1.4.7.7,0,1.4,0,.7-.4,1.4-.4.7.6,1.4.6.7,0,1.4,0,.7,0,1.4,0,.7-.8,1.4-.8.7,1.1,1.4,1.1.7-.7,1.4-.7.7-.4,1.4-.4.7,0,1.4,0,.7,0,1.4,0,.7.1,1.4.1.7-.2,1.4-.2.7.4,1.4.4.7.1,1.4.1.7.4,1.4.4.7-.8,1.4-.8.7.3,1.4.3.7.5,1.4.5.7.3,1.4.3.7-.8,1.4-.8.7-.3,1.4-.3.7.2,1.4.2.7,0,1.4,0,.7.5,1.4.5.7-.6,1.4-.6.7.6,1.4.6.7.4,1.4.4.7-.4,1.4-.4.7.3,1.4.3.7-.6,1.4-.6.7.6,1.4.6.7-.7,1.4-.7.7.7,1.4.7.7-.7,1.4-.7.7,0,1.4,0,.7.5,1.4.5.7-.4,1.4-.4.7.1,1.4.1.7-.1,1.4-.1.7-.7,1.4-.7.7.6,1.4.6.7-.2,1.4-.2.7.4,1.4.4.7,0,1.4,0,.7.1,1.4.1.7,0,1.4,0,.7,0,1.4,0,.7-.1,1.4-.1.7-.2,1.4-.2.7-.4,1.4-.4.7-.2,1.4-.2.7,1.1,1.4,1.1.7-1.1,1.4-1.1.7.1,1.4.1.7.8,1.4.8.7-.1,1.4-.1.7-.3,1.4-.3.7-.6,1.4-.6.7.6,1.4.6.7-.2,1.4-.2.7-.3,1.4-.3.7.9,1.4.9.7-.8,1.4-.8.7.4,1.4.4.7.3,1.4.3.7-.9,1.4-.9.7.2,1.4.2.7-.1,1.4-.1.7,0,1.4,0,.7.2,1.4.2.7.5,1.4.5.7-.4,1.4-.4.7.6,1.4.6.7-.1,1.4-.1.7,0,1.4,0,.7,0,1.4,0,.7-1.1,1.4-1.1.7,1.2,1.4,1.2.7-.7,1.4-.7.7,0,1.4,0,.7-.4,1.4-.4.7,1,1.4,1,.7-.4,1.4-.4.7-.4,1.4-.4.7.3,1.4.3.7.4,1.4.4.7-.8,1.4-.8.7.8,1.4.8.7,0,1.4,0,.7-.8,1.4-.8.7-.1,1.4-.1.7,1,1.4,1,.7-.5,1.4-.5.7.3,1.4.3.7-.2,1.4-.2.7-.4,1.4-.4.7,0,1.4,0,.7.9,1.4.9.7-.5,1.4-.5.7,0,1.4,0,.7-.4,1.4-.4.7.4,1.4.4.7.4,1.4.4.7-.5,1.4-.5.7.4,1.4.4.7.3,1.4.3.7-.8,1.4-.8.7,0,1.4,0,.7-.6,1.4-.6.7.2,1.4.2.7.8,1.4.8.7,0,1.4,0,.7-.2,1.4-.2.7.2,1.4.2.7-.3,1.4-.3.7-.3,1.4-.3.7.6,1.4.6.7-.2,1.4-.2.7,0,1.4,0,.7.2,1.4.2.7.2,1.4.2.7-.1,1.4-.1.7-.5,1.4-.5.7.2,1.4.2.7-.2,1.4-.2.7.4,1.4.4.7-.7,1.4-.7.7.3,1.4.3.7-.2,1.4-.2.7,0,1.4,0,.7-.3,1.4-.3.7.1,1.4.1.7.6,1.4.6.7-.8,1.4-.8.7-.1,1.4-.1.7,0,1.4,0,.7,0,1.4,0,.7.8,1.4.8.7-.7,1.4-.7.7,0,1.4,0,.7.6,1.4.6.7.5,1.4.5.7-.4,1.4-.4.7.2,1.4.2.7-.5,1.4-.5.7,0,1.4,0,.7,0,1.4,0,.7.6,1.4.6.7-.4,1.4-.4.7.4,1.4.4.7-.6,1.4-.6.7.8,1.4.8.7-.3,1.4-.3.7-.4,1.4-.4.7,0,1.4,0,.7,0,1.4,0,.7-.4,1.4-.4.7.5,1.4.5.7,0,1.4,0,.7.5,1.4.5.7-.9,1.4-.9.7.3,1.4.3.7.2,1.4.2.7-.2,1.4-.2.7,0,1.4,0,.7-.2,1.4-.2.7-.2,1.4-.2.7.7,1.4.7.7.1,1.4.1.7-.8,1.4-.8.7,1.1,1.4,1.1.7-.9,1.4-.9.7,0,1.4,0,.7,0,1.4,0,.7,0,1.4,0,.7,0,1.4,0,.7.5,1.4.5.7-.2,1.4-.2.7.3,1.4.3.7,0,1.4,0,.7-.6,1.4-.6.7.2,1.4.2.7,0,1.4,0,.7-.1,1.4-.1.7.2,1.4.2.7-.2,1.4-.2.7.2,1.4.2.7.3,1.4.3.7-.7,1.4-.7.7-.4,1.4-.4.7.6,1.4.6.7,0,1.4,0,.7-.2,1.4-.2.7-.4,1.4-.4.7.6,1.4.6.7-.4,1.4-.4.7.2,1.4.2.7,0,1.4,0,.7-.4,1.4-.4.7.3,1.4.3.7,0,1.4,0,.7.6,1.4.6.7-.6,1.4-.6.7,0,1.4,0,.7-.2,1.4-.2.7.3,1.4.3.7,0,1.4,0,.7-.2,1.4-.2.7-.3,1.4-.3.7.3,1.4.3.7,0,1.4,0,.7.2,1.4.2.7,0,1.4,0,.7.3,1.4.3.7-.4,1.4-.4.7.6,1.4.6.7,0,1.5,0,.7-1,1.4-1,.7,1.1,1.5,1.1.7-1,1.5-1,.7.8,1.5.8,1.1.2,1.6.1c.3,0,.7-.3,1-.5C388,31,322.6,0,250,0,135.2,0,38.4,77.4,9.1,182.9c.2,0,.4,0,.8,0Z"/>
</svg>