<?xml version="1.0" encoding="UTF-8"?>
<svg id="_アイコン" data-name="アイコン" xmlns="http://www.w3.org/2000/svg" version="1.1" viewBox="0 0 500 500">
  <defs>
    <style>
      .cls-1 {
        fill: #fff;
        stroke-width: 0px;
      }
    </style>
  </defs>
  <path class="cls-1" d="M301.3,307.5c.2.4.7.7.9,1.1.3.4.4.9.7,1.3.3.4.4.9.8,1.3.3.3.8.6,1.2.9.4.3,1.1.1,1.5.4.4.3.7.6,1.1.9.4.2.6,1,1.1,1.2.5.2.9.6,1.4.7.5.2,1.1.1,1.6.2.5.1,1.1-.7,1.6-.7.5,0,1,.9,1.5.9s.9-.2,1.4-.3c.5,0,.8-.6,1.3-.7.5,0,.9-.1,1.3-.2.4-.1,1,.2,1.5,0,.4-.2.7-.6,1.2-.8.4-.2.6-.7,1-.9.6-.4.8-.1,1.4-.5.6-.4.4-.7,1-1.1.6-.4.7-.3,1.3-.6.6-.4.9,0,1.5-.3.6-.4.5-.6,1.1-1,.6-.4.4-.7,1-1.1.6-.4,1.1.4,1.7,0,.6-.4.5-.6,1.1-1,.6-.4.7-.3,1.3-.7.6-.4.7-.3,1.3-.7.6-.4.6-.5,1.2-.9.6-.4.2-1,.8-1.4.6-.4.9.1,1.5-.3.6-.4.9,0,1.5-.4.6-.4.7-.3,1.3-.6.6-.4.5-.5,1.1-.9.6-.4.2-1.1.8-1.4.6-.4.7-.2,1.3-.6.6-.4.6-.4,1.2-.8.6-.4.5-.6,1.1-.9.6-.4,1,.2,1.6-.1.6-.4.1-1.2.7-1.5.6-.4,1,.2,1.6-.1.6-.4.7-.2,1.4-.6.6-.4.5-.5,1.1-.9.6-.4.8-.1,1.4-.5.6-.4.3-.9.9-1.2.6-.4.8,0,1.4-.4.6-.4.3-.8,1-1.2.6-.4.9.1,1.5-.2.6-.4.2-1.1.8-1.5.6-.4,1,.3,1.7,0,.6-.4.7-.3,1.3-.6.6-.4.2-1.1.8-1.5.6-.4,1.1.3,1.7,0,.6-.4.2-1.1.8-1.5.6-.4.4-.7,1-1.1.6-.4,1,.3,1.6,0,.6-.4.4-.7,1-1.1.6-.4.4-.7,1-1.1.6-.4,1.1.5,1.7,0,.6-.4.6-.3,1.3-.7.6-.4,0-1.2.7-1.6.6-.4.6-.4,1.2-.8.6-.4,1,.3,1.7,0,.6-.4.4-.7,1.1-1,.6-.4.3-.8.9-1.2.6-.4.9,0,1.5-.4.6-.4.9,0,1.5-.3.6-.4.6-.3,1.2-.7.6-.4.6-.4,1.2-.8.6-.4.6-.4,1.2-.8.6-.4.4-.8,1-1.2.6-.4.6-.3,1.2-.7.6-.4.4-.7,1-1.1.6-.4,1.1.3,1.7,0,.6-.4.3-.8,1-1.2.6-.4.6-.4,1.2-.8.6-.4.6-.4,1.2-.8.6-.4.9.1,1.5-.3.6-.4.4-.8,1-1.2.6-.4.7-.2,1.4-.5.6-.4.6-.4,1.2-.8.6-.4.9,0,1.5-.3.6-.4.5-.5,1.1-.9.6-.4.6-.4,1.2-.8.6-.4.3-.9.9-1.2.6-.4.4-.7,1-1.1.6-.4,1,.3,1.7,0,.6-.4.6-.3,1.3-.7.6-.4.7-.3,1.3-.6.6-.4.1-1.1.8-1.5.6-.4.5-.5,1.1-.9.6-.4,1,.2,1.6-.2.6-.4.8,0,1.4-.4.6-.4.7-.3,1.3-.7.6-.4.2-1.1.8-1.5.6-.4,1.1.4,1.7,0,.6-.4.5-.5,1.1-.9.6-.4.6-.4,1.2-.8.6-.4,0-1.2.7-1.6.6-.4.7-.3,1.3-.6.6-.4,1.1.3,1.7,0,.6-.4.4-.7,1-1.1.6-.4.3-.9.9-1.3.6-.4.8,0,1.4-.5.6-.4.9,0,1.5-.3.6-.4.2-1,.8-1.4.6-.4,1,.3,1.6-.1.6-.4.5-.6,1.1-.9.6-.4.3-.9.9-1.3.6-.4,1,.2,1.6-.1.4-.3,1.1-.3,1.4-.6.4-.3.1-1.4.5-1.7.4-.3,1.3-.1,1.6-.5.3-.4.1-1.2.4-1.6.3-.4.4-.9.7-1.3.2-.4.7-.7.9-1.2.2-.5,1.1-.7,1.2-1.1.2-.5.4-1,.5-1.5.1-.5-.3-1.1-.2-1.6,0-.5-.3-1-.3-1.5,0-.5,0-1-.1-1.5,0-.5.5-1.1.4-1.6,0-.5-.3-1-.4-1.5-.1-.5-.4-.9-.6-1.4-.2-.5-.6-.8-.8-1.3-.2-.4-.4-.9-.7-1.3-.3-.4-.5-.9-.8-1.3-.3-.4-.4-1-.8-1.3-.3-.4-.7-.8-1.1-1.1-.4-.3-.8-.6-1.2-.9-.4-.3-1.1-.2-1.5-.4-.4-.2-.7-.8-1.2-1-.5-.2-.9-.5-1.4-.6-.5-.1-1.2.5-1.6.4-.5,0-.8-1.1-1.3-1.2-.5,0-1,1-1.5,1-.7,0-.7-1.1-1.4-1.1s-.7,0-1.4,0-.7,1-1.4,1-.7-.4-1.4-.4-.7-.7-1.4-.7-.7,0-1.4,0-.7.1-1.4.1-.7.4-1.4.4-.7.5-1.4.5-.7.1-1.4.1-.7-.9-1.4-.9-.7,1-1.4,1-.7-1.1-1.4-1.1-.7.4-1.4.4-.7.4-1.4.4-.7.1-1.4.1-.7-.5-1.4-.5-.7.3-1.4.3-.7.2-1.4.2-.7.1-1.4.1-.7-.2-1.4-.2-.7,0-1.4,0-.7.1-1.4.1-.7.1-1.4.1-.7-.4-1.4-.4-.7-.3-1.4-.3-.7.2-1.4.2-.7-.1-1.4-.1-.7-.4-1.4-.4-.7.2-1.4.2-.7-.1-1.4-.1-.7.9-1.4.9-.7-.4-1.4-.4-.7.3-1.4.3-.7-.9-1.4-.9-.7.3-1.4.3-.7.2-1.4.2-.7-.6-1.4-.6-.7.2-1.4.2-.7.5-1.4.5-.7,0-1.4,0-.7-.5-1.4-.5-.7,1-1.4,1-.7-1-1.4-1-.7.5-1.4.5-.7-.3-1.4-.3-.7.1-1.4.1-.7.2-1.4.2-.7.4-1.4.4-.7-.3-1.4-.3-.7-.7-1.4-.7-.7,1.1-1.4,1.1-.7-.1-1.4-.1-.7-.8-1.4-.8-.7.4-1.4.4-.7.1-1.4.1-.7,0-1.4,0-.7-.4-1.4-.4-.7-.2-1.4-.2-.7.4-1.4.4-.7.6-1.4.6-.7-1-1.4-1-.7-.2-1.4-.2-.7,1.1-1.4,1.1-.7-.1-1.4-.1-.7-.8-1.4-.8-.7.4-1.4.4-.7.2-1.4.2-.7-.1-1.4-.1-.7-.7-1.4-.7-.7.4-1.4.4-.7.7-1.4.7-.7-.4-1.4-.4-.7-.4-1.4-.4-.7.1-1.4.1-.7.5-1.4.5-.7.2-1.4.2-.7-.2-1.4-.2-.7.3-1.4.3-.7-.1-1.4-.1-.7-.4-1.4-.4-.7.4-1.4.4-.7-.2-1.4-.2-.7-.8-1.4-.8-.7.8-1.4.8-.7-.3-1.5-.3-.7.5-1.4.6c-.7.1-.8-.2-1.5-.2s-1-.7-1.4-.6c-.5,0-.9.5-1.3.6-.5,0-.9.3-1.3.4-.4.1-.7.6-1.2.8-.4.2-1.2-.4-1.6-.1-.4.2-.6.7-1,1-.6.4-.4.7-1,1.1-.6.4-1-.2-1.6.1-.6.4-.3.8-.9,1.2-.6.4-1-.3-1.6,0s-.6.4-1.2.8c-.6.4-.5.5-1.1.9-.6.4-.3.8-1,1.2-.6.4-.8,0-1.4.4s-.4.7-1,1-.9,0-1.5.3c-.6.4-.3.9-.9,1.3-.6.4-.6.3-1.2.7-.6.4-.5.5-1.1.9-.6.4-.9,0-1.5.3-.6.4-.7.3-1.3.7-.6.4-.7.3-1.3.7-.6.4-.7.3-1.3.6-.6.4-.5.6-1.1,1-.6.4-.6.4-1.2.8-.6.4-.8,0-1.4.4-.6.4-.3.8-.9,1.2-.6.4-.8.1-1.4.5-.6.4-.5.6-1.1,1-.6.4-.6.3-1.3.7-.6.4-.8,0-1.4.4-.6.4-.2,1.1-.8,1.5-.6.4-1-.3-1.6.1-.6.4-.3.9-.9,1.3-.6.4-1-.2-1.6.2s-.3.9-.9,1.3c-.6.4-.6.4-1.2.8-.6.4-.8,0-1.4.5-.6.4-.9,0-1.5.3-.6.4-.3.9-.9,1.3-.6.4-.9-.2-1.5.2-.6.4-.1,1.2-.7,1.5-.6.4-1.1-.4-1.7,0-.6.4-.4.8-1,1.2-.6.4-.4.7-1,1.1-.6.4-.8,0-1.4.4-.6.4-.6.3-1.2.7-.6.4-.4.8-1,1.2-.6.4-1.1-.5-1.7-.1-.6.4-.5.6-1.1.9-.6.4-.6.4-1.2.8s-.3.8-.9,1.2c-.6.4-.6.5-1.2.8-.6.4-.8.1-1.4.5-.6.4-.5.5-1.1.9-.6.4-.8.1-1.4.5q-.6.4-1.2.8c-.6.4-.5.5-1.1.9-.6.4-.9-.2-1.6.2-.6.4-.3.8-1,1.2-.6.4-.7.3-1.3.7-.6.4-.5.6-1.1,1-.6.4-.5.6-1.1,1-.6.4-.8,0-1.4.5-.6.4-.9-.1-1.5.2-.6.4,0,1.3-.7,1.7-.6.4-1-.2-1.6.1-.6.4-.2,1-.8,1.4-.6.4-1.1-.4-1.7,0-.6.4-.2,1.1-.8,1.5-.6.4-1-.3-1.6.1-.6.4-.3.9-.9,1.3-.6.4-.6.4-1.2.8-.6.4-.5.5-1.1.9-.6.4-.9,0-1.5.4-.6.4-.7.3-1.3.7-.6.4-.8.1-1.4.5-.6.4-.2,1-.8,1.4-.6.4-1.1-.5-1.7,0-.6.4-.3.8-.9,1.2-.6.4-.6.5-1.2.8-.6.4-.7.3-1.3.7-.6.4-.5.5-1.1.9-.6.4-.7.2-1.3.6-.6.4-.4.7-1,1.1-.6.4-.9,0-1.5.3-.6.4-.3.9-.9,1.3-.6.4-.9,0-1.5.3-.6.4-.6.3-1.2.7-.6.4-.6.4-1.2.8-.6.4-.8,0-1.4.5-.6.4-.4.8-1,1.1-.6.4-.7.2-1.3.6-.6.4-.8,0-1.4.4-.6.4,0,1.3-.6,1.7-.6.4-.9-.1-1.6.2-.6.4-.5.6-1.1,1-.6.4-.9-.1-1.5.3-.6.4-.4.7-1.1,1-.6.4-.6.4-1.2.8-.6.4-.6.4-1.2.8-.6.4-.6.4-1.2.8-.6.4-.9,0-1.5.3-.6.4-.7.3-1.3.6-.6.4-.3.8-1,1.2-.6.4-.8,0-1.4.5-.6.4-.5.6-1.1,1-.6.4-.6.4-1.2.8-.6.4-.6.3-1.3.7-.6.4-.7.3-1.3.6-.6.4-.7.3-1.3.7-.6.4-.3.9-.9,1.3-.6.4-1-.3-1.7,0-.6.4-.4.7-1,1.1-.4.3-.9.5-1.3.8-.4.3-.2,1.3-.6,1.6-.4.3-1.2.2-1.6.5-.3.4-.6.8-.8,1.2-.3.4-.4.9-.7,1.3-.2.4-.9.7-1.1,1.1-.2.5-.5.9-.7,1.4-.2.5.1,1.1,0,1.6-.1.5.2,1,0,1.5,0,.5-.9.9-.9,1.4,0,.5,0,1,0,1.5,0,.5.8.9.9,1.4,0,.5.1,1,.2,1.5s.5.8.7,1.3c.2.5-.3,1.2,0,1.7.2.4,1.2.5,1.4.9.3.4.3.9.7,1.3.3.4.9.5,1.3.8.3.4.4,1,.8,1.3.4.3.4,1.2.8,1.5.4.3,1.1.1,1.6.4.4.2.9.4,1.4.5.5.2,1,0,1.5.2.5.1.8.8,1.3.9.5,0,1-.3,1.5-.2.5,0,1,.4,1.5.4.7,0,.7.4,1.4.4s.7-.7,1.4-.7.7.8,1.4.8.7-.2,1.4-.2.7-.6,1.4-.6.7.8,1.4.8.7-.6,1.4-.6.7,0,1.4,0,.7-.4,1.4-.4.7,0,1.4,0,.7.9,1.4.9.7-1,1.4-1,.7,1,1.4,1,.7-.2,1.4-.2.7-.9,1.4-.9.7.2,1.4.2.7.2,1.4.2.7.1,1.4.1.7.4,1.4.4.7,0,1.4,0,.7-.2,1.4-.2.7-.2,1.4-.2.7-.2,1.4-.2.7.3,1.4.3.7,0,1.4,0,.7-.5,1.4-.5.7.8,1.4.8.7-.5,1.4-.5.7.4,1.4.4.7-.7,1.4-.7.7.2,1.4.2.7-.2,1.4-.2.7,0,1.4,0,.7.2,1.4.2.7-.2,1.4-.2.7,0,1.4,0,.7.8,1.4.8.7,0,1.4,0,.7,0,1.4,0,.7-.3,1.4-.3.7-.6,1.4-.6.7.3,1.4.3.7.4,1.4.4.7.2,1.4.2.7-.6,1.4-.6.7.9,1.4.9.7,0,1.4,0,.7-.6,1.4-.6.7-.1,1.4-.1.7.3,1.4.3.7-.1,1.4-.1.7.4,1.4.4.7-.3,1.4-.3.7.2,1.4.2.7-1,1.4-1,.7.8,1.4.8.7,0,1.4,0,.7-.6,1.4-.6.7.9,1.4.9.7,0,1.4,0,.7,0,1.4,0,.7-.6,1.4-.6.7.4,1.4.4.7-.3,1.4-.3.7.6,1.4.6.7-.6,1.4-.6.7-.5,1.4-.5.7.9,1.4.9.7-.3,1.4-.3.7,0,1.4,0,.7-.4,1.4-.4.7.9,1.4.9.7-1.1,1.4-1.1.7.3,1.4.3,1,.5,1.5.5c.5,0,1-.4,1.4-.5.5,0,.9-.3,1.4-.4.5-.1,1.2.2,1.6,0,.5-.2.8-.7,1.2-1,.4-.2.6-.9,1-1.2.4-.3.8-.5,1.2-.8.4-.3.8-.5,1.2-.9.3-.3.4-.9.7-1.3.3-.4.5-.8.8-1.2.3-.4,1.1-.5,1.3-.9.2-.4-.1-1.1,0-1.6.2-.5.6-.8.8-1.3.1-.5-.2-1-.1-1.5,0-.5.9-.8.9-1.3,0-.5,0-1,0-1.5,0-.7.4-.7.4-1.4s-1-.7-1-1.4-.1-.7-.1-1.4,1-.7,1-1.4-.5-.7-.5-1.4.5-.7.5-1.4-1.1-.7-1.1-1.4.8-.7.8-1.4-.6-.7-.6-1.4.9-.7.9-1.4-1-.7-1-1.4,0-.7,0-1.4.7-.7.7-1.4-.6-.7-.6-1.4.6-.7.6-1.4-.3-.7-.3-1.4-.4-.7-.4-1.4.6-.7.6-1.4-.4-.7-.4-1.4.7-.7.7-1.4-.4-.7-.4-1.4.1-.7.1-1.4,0-.7,0-1.4,0-.7,0-1.4.1-.7.1-1.4,0-.7,0-1.4-.2-.7-.2-1.4-.8-.7-.8-1.4,1.1-.7,1.1-1.4-.8-.7-.8-1.4,0-.7,0-1.4,0-1.1.2-1.6c.2-.5.4-1.1.7-1.5.3-.4.9-.7,1.3-1.1.4-.3.9-.7,1.4-.9.5-.2,1.1-.3,1.7-.3s1.1.3,1.6.5c.5.2,1,.4,1.4.7.4.3.3,1.1.6,1.5.3.4.5.7.6,1.2.2.5.4.8.4,1.4s.2.7.2,1.5.2.7.2,1.5.5.7.5,1.5-.3.7-.3,1.5.3.7.3,1.5,0,.7,0,1.5-.8.7-.8,1.5-.2.7-.2,1.5,0,.7,0,1.5,0,.7,0,1.5.7.7.7,1.5.2.7.2,1.5,0,.7,0,1.5,0,.7,0,1.5-.1.7-.1,1.5-.2.7-.2,1.5-.2.7-.2,1.5.1.7.1,1.5-.2.7-.2,1.5-.5.7-.5,1.5,0,.7,0,1.5,1.1.7,1.1,1.5-.2.9-.2,1.4c0,.5-.4,1-.3,1.5,0,.5,0,1,.2,1.5.1.5,1.1.6,1.3,1.1.2.4-.2,1.2,0,1.6Z"/>
  <path class="cls-1" d="M497.9,217.2c-.2.2-.5.6-.7.7-.4.2-.9.1-1.3.4-.6.4-.5.6-1.1,1-.6.4-1.2-.5-1.8-.1-.6.4-.1,1.2-.7,1.6-.6.4-.6.4-1.2.8-.6.4-1-.2-1.6.1-.6.4-.5.5-1.1.9s-.8.1-1.4.5c-.6.4-.2,1.1-.8,1.5-.6.4-.8,0-1.4.4-.6.4-.5.5-1.2.9-.6.4-1-.3-1.6.1-.6.4-.5.5-1.2.9-.6.4-.2,1-.8,1.4-.6.4-1.1-.4-1.7,0-.6.4-.4.7-1,1-.6.4-.3.8-1,1.2-.6.4-.4.7-1,1.1-.6.4-.6.4-1.2.8-.6.4-1-.3-1.6.1-.6.4-.6.4-1.2.7-.6.4-.4.8-1,1.1-.6.4-.5.5-1.1.9-.6.4-1-.2-1.6.2-.6.4-.5.6-1.1.9-.6.4-.6.4-1.2.8-.6.4-.8.1-1.4.5-.6.4-.6.4-1.2.7-.6.4-.1,1.2-.7,1.5-.6.4-.7.3-1.3.6-.6.4-.6.4-1.2.8-.6.4-1-.3-1.6.1-.6.4-.8,0-1.4.5-.6.4-.2,1.1-.8,1.5-.6.4-.9,0-1.5.3-.6.4-.3.9-.9,1.3-.6.4-.5.6-1.1,1-.6.4-.9,0-1.5.3q-.6.4-1.2.8c-.6.4-.6.4-1.2.8-.6.4-.8,0-1.4.4-.6.4-.7.3-1.3.7q-.6.4-1.2.8c-.6.4-.5.6-1.1,1-.6.4-.7.3-1.3.7-.6.4-.1,1.1-.7,1.5-.6.4-.9-.1-1.5.2-.6.4-.6.3-1.3.7-.6.4-.5.6-1.1,1-.6.4-.6.4-1.2.7-.6.4-.6.3-1.3.7-.6.4-.6.4-1.2.8-.6.4-.7.2-1.3.6-.6.4-.4.7-1,1.1-.6.4-1-.3-1.6,0-.6.4-.2,1.1-.8,1.5-.6.4-.9,0-1.5.3-.6.4-.7.3-1.3.6-.6.4-.3.9-.9,1.2-.6.4-.8,0-1.4.4-.6.4-1-.2-1.6.2-.6.4-.2,1.1-.8,1.4-.6.4-.5.6-1.1,1-.6.4-.9,0-1.5.3-.6.4-.6.3-1.2.7s-.6.4-1.2.8c-.6.4-.6.4-1.2.8-.6.4-.8.1-1.4.5-.6.4-.3.8-.9,1.2-.6.4-.8.1-1.4.5-.6.4-.9-.1-1.5.3-.6.4,0,1.3-.7,1.6-.6.4-.8,0-1.4.4-.6.4-1-.2-1.6.2-.6.4-.4.7-1,1.1-.6.4-.3.8-.9,1.2-.6.4-.9,0-1.5.3-.6.4-.3.9-.9,1.3-.6.4-1.2-.6-1.8-.2-.6.4-.2,1.1-.8,1.5-.6.4-.4.7-1,1-.6.4-1-.2-1.6.2-.6.4-.5.5-1.1.9-.6.4-.9-.1-1.5.2-.6.4-.2,1-.8,1.4-.6.4-.6.4-1.2.8-.6.4-.6.4-1.2.8-.6.4-1-.3-1.6.1-.6.4-.2,1-.8,1.4-.6.4-.8.1-1.4.5-.6.4-.8,0-1.4.4-.6.4-.2,1-.8,1.4-.6.4-.5.5-1.2.9-.6.4-1.1-.4-1.7,0-.6.4-.6.4-1.2.8-.6.4-.6.5-1.2.9-.6.4-.6.4-1.2.7-.6.4-.5.5-1.1.9-.6.4-.5.6-1.1,1-.6.4-.7.2-1.3.6-.6.4-.4.7-1,1.1-.6.4-.7.2-1.3.6-.6.4-.7.3-1.3.7-.6.4-.4.7-1.1,1-.6.4-1-.3-1.7,0-.6.4-.1,1.2-.7,1.6-.6.4-1.1-.3-1.7,0-.6.4-.2,1.1-.8,1.5-.6.4-1.1-.5-1.8,0-.4.3-.2,1.5-.6,1.8-.4.3-1.3,0-1.6.4-.4.3-.4,1-.7,1.4-.3.4-.5.8-.8,1.2-.3.4-.8.6-1.1,1.1-.2.4-.8.7-1,1.2-.2.5.4,1.2.2,1.7-.2.5-.5.8-.6,1.3-.1.5.2,1,0,1.5,0,.5-.6.9-.6,1.4,0,.5.2,1,.2,1.5,0,.5-.3,1-.2,1.5,0,.5.4.9.6,1.4.1.5.4.9.6,1.4.2.5.6.8.8,1.2.2.4.2,1,.4,1.4.3.4.2,1.1.6,1.5.3.4.9.5,1.3.9.3.4.3,1.2.7,1.5.4.3,1,.4,1.4.7.4.3,1,.3,1.4.6.4.2.7.9,1.2,1.1.5.2,1.1,0,1.6,0,.5.1,1.1-.3,1.6-.2.5,0,.9.2,1.4.3.5,0,.9,0,1.4,0,.7,0,.7.4,1.4.4s.7,0,1.4,0,.7.4,1.4.4.7-.4,1.4-.4.7,0,1.4,0,.7.3,1.4.3.7,0,1.4,0,.7-.7,1.4-.7.7,1,1.4,1,.7,0,1.4,0,.7-.3,1.4-.3.7-.6,1.4-.6.7.3,1.4.3.7,0,1.4,0,.7.6,1.4.6.7-.7,1.4-.7.7-.1,1.4-.1.7,1,1.4,1,.7-.4,1.4-.4.7-.5,1.4-.5.7.1,1.4.1.7-.3,1.4-.3.7.7,1.4.7.7.4,1.4.4.7-.8,1.4-.8.7,0,1.4,0,.7.2,1.4.2.7.5,1.4.5.7-.3,1.4-.3.7-.3,1.4-.3.7.6,1.4.6.7,0,1.4,0,.7-1,1.4-1,.7.2,1.4.2.7.8,1.4.8.7-.5,1.4-.5.7-.5,1.4-.5.7,1,1.4,1,.7-.7,1.4-.7.7.4,1.4.4.7.2,1.4.2.7-.5,1.4-.5.7.3,1.4.3.7-.6,1.4-.6.7.6,1.4.6.7-.5,1.4-.5.7.6,1.4.6.7-.3,1.4-.3.7.3,1.4.3.7-.3,1.4-.3.7.7,1.4.7.7-.3,1.4-.3.7.2,1.4.2.7-.6,1.4-.6.7-.4,1.4-.4.7.5,1.4.5.7,0,1.4,0,.7-.5,1.4-.5.7,0,1.4,0,.7.7,1.4.7.7.2,1.4.2.7,0,1.4,0,.7-.7,1.4-.7.7.9,1.4.9.7-1.1,1.4-1.1.7,1.1,1.4,1.1.7-.5,1.4-.5.7.5,1.4.5.7-1.1,1.4-1.1.7.9,1.4.9.7-.7,1.4-.7.7.2,1.4.2.7-.3,1.4-.3.7.9,1.4.9.7-.6,1.4-.6.7-.3,1.4-.3.7.2,1.4.2.7-.5,1.4-.5.7.9,1.4.9.7.2,1.4.2.7-.6,1-.8c7.9-24.3,12.1-50.2,12.1-77.1s-.7-22.1-2.1-32.8Z"/>
  <path class="cls-1" d="M299.2,179.2c0,.7.2.7.2,1.4s.7.7.7,1.4-.3.7-.3,1.4.2.7.2,1.4.3.7.3,1.4-.8.7-.8,1.4,0,.7,0,1.5.2.7.2,1.5.2,1,.3,1.5c0,.5.6.9.7,1.4,0,.5-.7,1.2-.6,1.6.1.5.7.8.9,1.3.2.5.3.9.6,1.4.2.4.2,1,.5,1.4.3.4.4.9.8,1.3.3.4,1,.4,1.4.8.3.3.8.5,1.2.8.4.3.5,1,.9,1.3.4.3,1.2-.1,1.6.1.4.2.9.3,1.3.5.5.2.9.3,1.3.5.5.1.7,1.2,1.2,1.3.5,0,1.1-.3,1.5-.3.5,0,1,0,1.5,0,.7,0,.7.2,1.4.2s.7-.6,1.4-.6.7.7,1.4.7.7.5,1.4.5.7-.9,1.4-.9.7.6,1.4.6.7-.2,1.4-.2.7,0,1.4,0,.7,0,1.4,0,.7.3,1.4.3.7.2,1.4.2.7-1.1,1.4-1.1.7,0,1.4,0,.7,0,1.4,0,.7.4,1.4.4.7-.5,1.4-.5.7.6,1.4.6.7-.6,1.4-.6.7,0,1.4,0,.7.6,1.4.6.7,0,1.4,0,.7-.7,1.4-.7.7,1.1,1.4,1.1.7-.6,1.4-.6.7.4,1.4.4.7-.5,1.4-.5.7.6,1.4.6.7,0,1.4,0,.7-.4,1.4-.4.7.6,1.4.6.7-1.1,1.4-1.1.7.2,1.4.2.7,0,1.4,0,.7.6,1.4.6.7,0,1.4,0,.7,0,1.4,0,.7-.2,1.4-.2.7,0,1.4,0,.7.4,1.4.4.7,0,1.4,0,.7.1,1.4.1.7-1.2,1.4-1.2.7,0,1.4,0,.7,1.1,1.4,1.1.7-.7,1.4-.7.7.3,1.4.3.7-.2,1.4-.2.7.4,1.4.4.7-.3,1.4-.3.7.5,1.4.5.7-.9,1.4-.9.7.5,1.4.5.7-.8,1.4-.8.7.8,1.4.8.7-.7,1.4-.7.7.9,1.4.9.7-1,1.4-1,.7.7,1.4.7.7.1,1.4.1.7-.3,1.4-.3.7.1,1.4.1.7,0,1.4,0,.7.3,1.4.3.7-.1,1.4-.1.7.3,1.4.3.7-.5,1.4-.5.7-.1,1.4-.1.7.5,1.4.5.7-.4,1.4-.4.7-.1,1.4-.1.7.2,1.4.2.7-.5,1.4-.5.7,0,1.4,0,.7.9,1.4.9.7.1,1.4.1.7,0,1.4,0,.7-.7,1.4-.7.7.7,1.4.7.7-1.1,1.4-1.1.7,0,1.4,0,.7,0,1.4,0,.7.7,1.4.7.7-.3,1.4-.3.7,0,1.4,0,.7.3,1.4.3.7,0,1.4,0,.7.4,1.4.4.7-.3,1.4-.3.7.1,1.4.1.7-.7,1.4-.7.7-.2,1.4-.2.7.8,1.4.8.7-.8,1.4-.8.7.3,1.4.3.7-.2,1.4-.2.7,0,1.4,0,.7,1,1.4,1,.7-.7,1.4-.7.7.7,1.4.7.7-.3,1.4-.3.7-.2,1.4-.2.7.5,1.4.5.7-1.1,1.4-1.1.7,0,1.4,0,.7,1,1.4,1,.7-.6,1.4-.6.7.3,1.4.3.7-.6,1.4-.6.7.8,1.4.8.7-.8,1.4-.8.7,0,1.4,0,.7.4,1.4.4.7-.5,1.4-.5.7.1,1.4.1.7.6,1.4.6.7-.7,1.4-.7.7.4,1.4.4.7.1,1.4.1.7.5,1.4.5.7-.5,1.4-.5.7-.3,1.4-.3.7-.1,1.4-.1.7.7,1.4.7.7-.2,1.4-.2.7-.5,1.4-.5.7.4,1.4.4.3,0,.4,0c-4.6-26-13.3-50.6-25.4-73.2-.3,0-.4.2-.9.2-.7,0-.7-.5-1.4-.5s-.7.7-1.4.7-.7,0-1.4,0-.7-.8-1.4-.8-.7,0-1.4,0-.7.7-1.4.7-.7-.9-1.4-.9-.7.2-1.4.2-.7.3-1.4.3-.7.1-1.4.1-.7-.3-1.4-.3-.7.7-1.4.7-.7,0-1.4,0-.7-.7-1.4-.7-.7.2-1.4.2-.7,0-1.4,0-.7.3-1.4.3-.7-.6-1.4-.6-.7,0-1.4,0-.7.1-1.4.1-.7.4-1.4.4-.7-.4-1.4-.4-.7.2-1.4.2-.7-.4-1.4-.4-.7.3-1.4.3-.7-.5-1.4-.5-.7-.3-1.4-.3-.7,1.1-1.4,1.1-.7-1-1.4-1-.7.4-1.4.4-.7.2-1.4.2-.7-.1-1.4-.1-.7.4-1.4.4-.7-.7-1.4-.7-.7.9-1.4.9-.7-1.2-1.4-1.2-.7.5-1.4.5-.7-.2-1.4-.2-.7.4-1.4.4-.7.3-1.4.3-.7-.4-1.4-.4-.7.2-1.4.2-.7-.2-1.4-.2-.7-.5-1.4-.5-.7.2-1.4.2-.7.4-1.4.4-.7.1-1.4.1-.7-.6-1.4-.6-.7.3-1.4.3-.7.4-1.4.4-.7,0-1.4,0-.7,0-1.4,0-.7,0-1.4,0-.7-.4-1.4-.4-.7-.2-1.4-.2-.7-.2-1.4-.2-.7.3-1.4.3-.7.3-1.4.3-.7-.2-1.4-.2-.7.8-1.4.8-.7-1-1.4-1-.7.8-1.4.8-.7-.6-1.4-.6-.7.7-1.4.7-.7,0-1.4,0-.7-.6-1.4-.6-.7.4-1.4.4-.7-.5-1.4-.5-.7.4-1.4.4-.7.4-1.4.4-.7-.5-1.4-.5-.7.4-1.4.4-.7.2-1.4.2-.7-.7-1.4-.7-.7.2-1.4.2-.7-.6-1.4-.6-.7.5-1.4.5-.7,0-1.4,0-.7.5-1.4.5-.7-.6-1.4-.6-.7-.3-1.4-.3-.7.2-1.4.2-.7,0-1.4,0-.7.6-1.4.6-.7-.5-1.4-.5-.7.5-1.4.5-.7-.6-1.4-.6-.7.5-1.4.5-.7-.7-1.4-.7-.7.8-1.4.8-.7-.9-1.4-.9-.7.8-1.4.8-.7,0-1.4,0-.7-.1-1.4-.1-.7-.4-1.4-.4-.7.3-1.4.3-.7-.7-1.4-.7-.7.7-1.4.7-.7-.4-1.4-.4-.7.2-1.4.2-.7-.4-1.4-.4-.7-.2-1.4-.2-.7.4-1.4.4-.7.6-1.4.6-.7-.5-1.4-.5-.7.2-1.4.2-.7.4-1.4.4-.7-.2-1.4-.2-1-.8-1.5-.7c-.5,0-.9.5-1.4.6-.5,0-1.1-.1-1.5,0-.5.1-.7.9-1.2,1.1-.5.2-1,.2-1.4.4-.4.2-.9.5-1.3.7-.4.3-1.1.2-1.5.5-.4.3-.5.9-.9,1.3-.3.3-.4.9-.7,1.3-.3.4-.8.6-1,1-.3.4-.5.8-.7,1.3-.2.4-.6.8-.7,1.3-.2.5-.5.9-.7,1.3-.1.5.2,1.1,0,1.5,0,.5-.9.9-.9,1.4,0,.5,0,1,0,1.5,0,.7.4.7.4,1.4s0,.7,0,1.4-.2.7-.2,1.4.4.7.4,1.4-.6.7-.6,1.4.9.7.9,1.4-.4.7-.4,1.4.3.7.3,1.4-.6.7-.6,1.4.3.7.3,1.4,0,.7,0,1.4-.1.7-.1,1.4-.2.7-.2,1.4,0,.7,0,1.4.1.7.1,1.4.6.7.6,1.4-.9.7-.9,1.4.4.7.4,1.4-.4.7-.4,1.4.8.7.8,1.4,0,.7,0,1.4-1.2.7-1.2,1.4Z"/>
  <path class="cls-1" d="M177.4,489.3c.6-.4,1,.2,1.6-.2.6-.4.3-.9.9-1.3.6-.4.6-.4,1.2-.8.6-.4.8,0,1.4-.5.6-.4.9,0,1.5-.3.6-.4.3-.9.9-1.3.6-.4.9.2,1.6-.2.6-.4.1-1.2.7-1.5s1.1.4,1.7,0c.6-.4.4-.8,1-1.2.6-.4.4-.7,1-1.1.6-.4.8,0,1.5-.4.6-.4.6-.3,1.2-.7.6-.4.4-.8,1-1.2.6-.4,1.1.5,1.8,0,.6-.4.5-.6,1.1-.9.6-.4.6-.4,1.2-.8.6-.4.3-.8.9-1.2.6-.4.6-.5,1.2-.8.6-.4.8-.1,1.4-.5.6-.4.5-.5,1.1-.9.6-.4.8-.1,1.4-.5q.6-.4,1.2-.8c.6-.4.5-.5,1.1-.9.6-.4.9.2,1.6-.2.6-.4.3-.8,1-1.2.6-.4.7-.3,1.3-.7.6-.4.5-.6,1.1-1,.6-.4.5-.6,1.1-1,.6-.4.8,0,1.4-.5.6-.4.9.1,1.5-.2.6-.4,0-1.3.7-1.7s1,.2,1.6-.1c.6-.4.2-1,.8-1.4.6-.4,1.1.4,1.7,0,.6-.4.2-1.1.8-1.5.6-.4,1,.3,1.6-.1.6-.4.3-.9.9-1.3.6-.4.6-.4,1.2-.8.6-.4.5-.5,1.1-.9.6-.4.9,0,1.5-.4.6-.4.7-.3,1.3-.7.6-.4.8-.1,1.4-.5.6-.4.2-1,.8-1.4.6-.4,1.1.4,1.7,0,.6-.4.3-.8.9-1.2.6-.4.6-.5,1.2-.8.6-.4.7-.3,1.3-.7.6-.4.5-.5,1.2-.9.6-.4.7-.2,1.3-.6.6-.4.4-.7,1-1.1.6-.4.9,0,1.5-.3.6-.4.3-.9.9-1.3.6-.4.9,0,1.5-.3.6-.4.6-.3,1.3-.7.6-.4.6-.4,1.2-.8.6-.4.8,0,1.4-.5.6-.4.4-.8,1-1.1.6-.4.7-.2,1.3-.6.6-.4.8,0,1.4-.4.6-.4,0-1.3.6-1.7.6-.4.9.1,1.5-.2s.5-.6,1.1-1,.9.1,1.5-.3c.6-.4.4-.6,1.1-1,.6-.4.6-.4,1.2-.8.6-.4.6-.4,1.2-.8.6-.4.6-.4,1.2-.8.6-.4.9,0,1.5-.3.6-.4.7-.3,1.3-.6.6-.4.3-.8,1-1.2.6-.4.8,0,1.4-.5.6-.4.5-.6,1.1-1,.6-.4.6-.4,1.2-.8.6-.4.6-.3,1.3-.7.6-.4.7-.3,1.3-.6.6-.4.7-.3,1.3-.7.6-.4.3-.9.9-1.3.6-.4,1,.3,1.7,0,.6-.4.4-.7,1-1.1.6-.4.6-.3,1.3-.7.6-.4.2-1.1.8-1.5.6-.4,1,.2,1.6-.1.6-.4.6-.5,1.2-.8.6-.4.5-.5,1.2-.9.6-.4.8,0,1.5-.4.6-.4.7-.3,1.3-.7.6-.4.4-.7,1-1.1.6-.4.4-.7,1-1.1.6-.4,1,.3,1.7,0,.6-.4.6-.4,1.2-.8.6-.4.3-1,.9-1.3.6-.4.7-.3,1.3-.7.6-.4.5-.6,1.1-1,.6-.4,1,.3,1.6-.1.6-.4.2-1,.8-1.4.6-.4.7-.2,1.4-.5.6-.4.4-.7,1-1.1.6-.4.8,0,1.5-.4.6-.4,1,.2,1.6-.2.6-.4.4-.8,1-1.2.6-.4.6-.5,1.2-.9.6-.4.4-.7,1.1-1,.6-.4.9,0,1.5-.3.6-.4.4-.8,1-1.2.6-.4.8-.1,1.4-.5.6-.4.8,0,1.4-.4.6-.4.2-1,.8-1.4.6-.4,1,.3,1.6,0,.6-.4.5-.5,1.1-.9.6-.4.3-.9.9-1.2.6-.4,1,.3,1.6,0,.6-.4.3-.9.9-1.3.6-.4.6-.3,1.3-.7.6-.4.4-.7,1-1.1.6-.4.6-.4,1.2-.7.6-.4,1.1.4,1.7,0,.6-.4,0-1.2.7-1.6.6-.4,1.1.5,1.8.1.6-.4.5-.5,1.1-.9s.1-1.1.8-1.5c.6-.4.7-.3,1.3-.6.6-.4.7-.2,1.3-.6.6-.4.7-.3,1.3-.7.6-.4.8,0,1.4-.5.6-.4.6-.3,1.3-.7.6-.4.5-.6,1.1-1,.6-.4.5-.5,1.1-.9.6-.4.5-.5,1.1-.9.6-.4.8,0,1.4-.5.6-.4.6-.3,1.3-.7.6-.4.3-.8.9-1.2.6-.4,1,.3,1.7,0,.6-.4.4-.8,1-1.2.6-.4.8,0,1.5-.4.6-.4.3-1,.9-1.3.6-.4.7-.2,1.3-.6.6-.4.5-.6,1.1-1,.6-.4.6-.4,1.2-.8.6-.4.7-.2,1.3-.6.6-.4.5-.6,1.1-.9.6-.4.7-.3,1.3-.7.6-.4,1,.3,1.7,0,.6-.4.6-.4,1.2-.8.6-.4.6-.4,1.2-.8.6-.4.4-.7,1.1-1.1.6-.4.3-.9.9-1.3.6-.4.8-.1,1.4-.5.6-.4.8,0,1.4-.4.6-.4.7-.2,1.4-.6.6-.4.3-.9.9-1.3.6-.4,1.1.4,1.7,0,.6-.4.6-.3,1.3-.7.6-.4.3-.9.9-1.2.6-.4.5-.5,1.2-.9s.8-.1,1.4-.5c.6-.4.6-.5,1.2-.9.6-.4.8,0,1.5-.4.6-.4.5-.6,1.1-1,.6-.4.7-.2,1.3-.6.6-.4,0-1.3.7-1.6.6-.4,1,.3,1.6-.1.6-.4.6-.4,1.2-.8.6-.4.3-.9.9-1.3.4-.3,1.3.2,1.7-.1.4-.3.8-.6,1.2-1,.4-.3.7-.7,1.1-1.1.3-.4.1-1.2.4-1.6.3-.4.9-.6,1.1-1,.2-.4.2-1,.4-1.5.2-.5,1-.7,1.1-1.2.2-.5-.3-1.1-.2-1.6.1-.5-.3-1-.3-1.5,0-.5,1-.9,1-1.4,0-.5-.3-1-.4-1.5,0-.5,0-1-.2-1.5,0-.5-.6-.9-.7-1.4s.5-1.2.3-1.7c-.2-.5-1.3-.5-1.6-.9-.2-.4-.2-1-.4-1.4-.3-.4-.1-1.2-.4-1.5-.3-.4-.9-.6-1.2-1-.3-.4-.8-.6-1.2-1-.4-.3-.4-1.1-.9-1.4-.4-.3-1-.3-1.5-.5-.4-.2-1.1,0-1.6-.2-.5-.2-.9-.4-1.4-.5-.5-.1-.9-.4-1.4-.5-.5,0-1,.2-1.5.1-.5,0-1,0-1.5,0-.7,0-.7-.7-1.4-.7s-.7.6-1.4.6-.7-.3-1.4-.3-.7.5-1.4.5-.7-.7-1.4-.7-.7,0-1.4,0-.7-.4-1.4-.4-.7,1-1.4,1-.7.1-1.4.1-.7-1-1.4-1-.7.5-1.4.5-.7-.5-1.4-.5-.7,1.1-1.4,1.1-.7-.8-1.4-.8-.7.6-1.4.6-.7-.9-1.4-.9-.7,1-1.4,1-.7,0-1.4,0-.7-.7-1.4-.7-.7.6-1.4.6-.7-.6-1.4-.6-.7.3-1.4.3-.7.4-1.4.4-.7-.6-1.4-.6-.7.4-1.4.4-.7-.7-1.4-.7-.7.4-1.4.4-.7-.1-1.4-.1-.7,0-1.4,0-.7,0-1.4,0-.7-.1-1.4-.1-.7,0-1.4,0-.7.2-1.4.2-.7.8-1.4.8-.7-1.1-1.4-1.1-.7.8-1.4.8-.7,0-1.4,0-.7,0-1.4,0-.7,0-1.4,0-.7-.2-1.4-.2-.7.2-1.4.2-.7,0-1.4,0-.7-.2-1.4-.2-.7,0-1.4,0-.7-.7-1.4-.7-.7,0-1.4,0-.7.2-1.4.2-.7.2-1.4.2-.7.2-1.4.2-.7.5-1.4.5-.7-.3-1.4-.3-.7.3-1.4.3-.7,0-1.4,0-.7-.8-1.4-.8-.7-.2-1.4-.2-.7,0-1.4,0-.7,0-1.4,0-.7.7-1.4.7-.7.2-1.4.2-.7,0-1.4,0-.7,0-1.4,0-.7-.1-1.4-.1-.7-.2-1.4-.2-.7-.2-1.4-.2-.7.1-1.4.1-.7-.2-1.4-.2-.7-.5-1.4-.5-.7,0-1.4,0-.7,1.1-1.4,1.1-.7-.3-1.4-.3-.7-.5-1.4-.5-.7-.1-1.4-.1-.7.8-1.4.8-.7-.6-1.4-.6-.7.2-1.4.2-.7-.2-1.4-.2-.7-.3-1.4-.3-.7.1-1.4.1-.7.6-1.4.6-.7-.1-1.4-.1-.7-.6-1.4-.6-.7-.2-1.4-.2-.7.2-1.4.2-.7.9-1.4.9-.7-.8-1.4-.8-.7.2-1.4.2-.7.5-1.4.5-.7,0-1.4,0-.7-.5-1.4-.5-.7.3-1.4.3-.7.3-1.4.3-.7-.3-1.4-.3-.7.4-1.4.4-.7-.1-1.4-.1-.7-.5-1.4-.5-.7.3-1.4.3-.7.4-1.4.4-.7-.9-1.4-.9-.7.3-1.4.3-.7,0-1.4,0-.7-.1-1.4-.1-.7.1-1.4.1-.7.8-1.4.8-.7-.6-1.4-.6-.7-.5-1.4-.5-.7-.1-1.4-.1-.7.2-1.4.2-.7.8-1.4.8-.7-.2-1.4-.2-.7,0-1.4,0-.7.2-1.4.2-.7-.7-1.4-.7-.7.9-1.4.9-.7-.7-1.4-.7-.7-.2-1.4-.2-.7.2-1.4.2-.7-.3-1.4-.3-.7.6-1.4.6-.7-.4-1.4-.4-.7.5-1.4.5-.7-.6-1.4-.6-.7.8-1.4.8-.7-.8-1.4-.8-.7-.1-1.4-.1-.7.8-1.4.8-.7-.8-1.4-.8-.7.8-1.4.8-.7.4-1.4.4-.7-.8-1.4-.8-.7.3-1.4.3-.7.4-1.4.4-.7-1-1.4-1-.7,0-1.4,0-.7,1-1.4,1-.7,0-1.4,0-.7-.8-1.4-.8-.7.3-1.4.3-.7.5-1.4.5-.7-.5-1.4-.5-.7-.5-1.4-.5-.7,0-1.4,0-.7,0-1.4,0-.7,0-1.4,0-.7.5-1.4.5-.7,0-1.4,0-.7.4-1.4.4-.7-.8-1.4-.8-.7.5-1.4.5-.7,0-1.4,0-.7,0-1.4,0-.7-.6-1.4-.6-.7.5-1.4.5-.7-.3-1.4-.3-.7,0-1.4,0-.7-.5-1.4-.5-.7.2-1.4.2-.7,0-1.4,0-.7.6-1.4.6-.7.4-1.4.4-.7-.8-1.4-.8-.7,0-1.4,0-.7-.1-1.4-.1-.7.9-1.4.9-.7.2-1.4.2-.7-.7-1.4-.7-.7-.4-1.4-.4-.7,0-1.4,0-.7.9-1.4.9-.7-.9-1.4-.9-.7.2-1.4.2-.7,0-1.4,0-.7,1-1.4,1-.7-.1-1.4-.1-.7-.8-1.4-.8-.7.4-1.4.4-.7.6-1.4.6-.7-.3-1.4-.3-.7-.5-1.4-.5-.7.8-1.4.8-.7-.8-1.4-.8-.7.2-1.4.2-.7.6-1.4.6-.7-.7-1.4-.7-.7-.3-1.4-.3-.7,1-1.4,1-.7-.8-1.4-.8-.9.7-1.3.7c-.5,0-.9.2-1.3.3-.5,0-.9,0-1.4,0-.4.1-1.1-.4-1.6-.3-.4.2-.9.3-1.4.5-.4.2-.6.8-1,1.1-.6.4-.4.7-1,1.1-.6.4-.6.4-1.2.8-.6.4-.9-.1-1.5.3-.6.4-.6.5-1.2.8-.6.4-.5.5-1.2.9s-.5.6-1.1.9c-.6.4-.6.3-1.3.7-.6.4-.7.3-1.3.7-.6.4-.8.1-1.4.5-.6.4-.6.3-1.3.7-.6.4-.6.4-1.2.8-.6.4-.4.8-1,1.1-.6.4-.8,0-1.4.5-.6.4-.7.3-1.3.7-.6.4-.2,1.1-.8,1.5-.6.4-1.1-.5-1.7,0-.6.4,0,1.3-.7,1.7-.6.4-1.2-.5-1.8-.1-.6.4-.6.4-1.2.8-.6.4,0,1.2-.7,1.6-.6.4-.8,0-1.5.4-.6.4-1-.2-1.6.2-.6.4-.6.4-1.2.8-.6.4-.5.5-1.2.9-.6.4-.4.7-1,1.1-.6.4-.4.8-1,1.2-.6.4-.6.5-1.2.9-.6.4-1.1-.4-1.7,0-.6.4-.1,1.2-.7,1.6-.6.4-1.2-.6-1.8-.2-.6.4-.4.7-1,1.1-.6.4-.4.7-1,1.1-.6.4-.6.5-1.2.8-.6.4-.9,0-1.5.4-.6.4-.5.6-1.1,1-.6.4-.5.6-1.1.9-.6.4-.6.5-1.2.8-.6.4-.7.2-1.3.6-.6.4-.6.4-1.2.7-.6.4-.5.5-1.2.9-.6.4-.6.5-1.2.9-.6.4-.8,0-1.4.4-.6.4-.8,0-1.4.5-.6.4-.5.5-1.1.9-.6.4-.7.3-1.3.7-.6.4-.8,0-1.4.5-.6.4-.5.6-1.1.9-.6.4-.7.3-1.3.7-.6.4-.1,1.1-.8,1.5-.4.3-.7.2-1,.2,31.5,53.1,82.2,93.5,142.4,111.8,0,0,0,0,0,0Z"/>
  <path class="cls-1" d="M30.4,368.4c.6-.4.3-.9.9-1.3.6-.4,1.1.4,1.7,0,.6-.4.7-.2,1.3-.6.6-.4,0-1.3.7-1.7.6-.4.7-.3,1.3-.7.6-.4,1,.3,1.6,0,.6-.4.4-.7,1-1.1.6-.4.5-.6,1.1-.9.6-.4.7-.3,1.3-.7.6-.4,1,.2,1.6-.2.6-.4.4-.7,1-1.1.6-.4.2-1,.8-1.4.6-.4.8,0,1.5-.4.6-.4.8,0,1.4-.4.6-.4.6-.5,1.2-.8.6-.4.3-.8,1-1.2.6-.4.5-.5,1.1-.9.6-.4.7-.2,1.3-.6.6-.4.5-.6,1.1-1,.6-.4.7-.3,1.3-.7.6-.4.8,0,1.4-.4.6-.4.4-.7,1-1.1.6-.4.7-.2,1.3-.6.6-.4,1,.3,1.6,0,.6-.4.2-1.1.8-1.4.6-.4.8,0,1.4-.5.6-.4.3-.9.9-1.3.6-.4.7-.3,1.3-.7.6-.4,1,.2,1.6-.2.6-.4.2-1,.8-1.4.6-.4,1.1.5,1.7,0,.6-.4.5-.6,1.1-.9.6-.4.6-.4,1.2-.7s.3-.9.9-1.3c.6-.4.5-.5,1.1-.9s1,.3,1.6-.1c.6-.4.4-.7,1-1.1.6-.4.7-.2,1.4-.5s.4-.7,1-1.1c.6-.4.6-.4,1.2-.8.6-.4.7-.2,1.3-.6.6-.4.9,0,1.5-.3.6-.4.7-.3,1.3-.7.6-.4.2-1.1.8-1.5.6-.4.6-.3,1.3-.7.6-.4,1,.3,1.6,0,.6-.4.5-.5,1.2-.9.6-.4.3-.9.9-1.3.6-.4.8-.1,1.4-.5.6-.4.3-.9.9-1.2s1,.2,1.6-.1c.6-.4.6-.4,1.2-.8.6-.4.5-.6,1.1-1,.6-.4.9,0,1.5-.3.6-.4.5-.5,1.1-.9.6-.4.8-.1,1.4-.5.6-.4.6-.5,1.2-.8.6-.4.5-.6,1.1-.9.6-.4.4-.8,1-1.2.6-.4.5-.5,1.2-.9.6-.4,1,.2,1.6-.2.6-.4.7-.3,1.3-.7.6-.4.2-1,.8-1.4.6-.4.6-.4,1.2-.8.6-.4.8,0,1.4-.4.6-.4.4-.7,1-1.1.6-.4.8-.1,1.4-.5.6-.4.8,0,1.5-.4.6-.4.4-.7,1-1.1.6-.4,1,.3,1.6-.1.6-.4.4-.8,1-1.1.6-.4.8,0,1.4-.4s.6-.4,1.2-.8c.6-.4.5-.6,1.1-.9.6-.4.5-.6,1.1-1q.6-.4,1.2-.8c.6-.4.5-.6,1.1-1,.6-.4.5-.5,1.1-.9.6-.4.7-.2,1.3-.6.6-.4.8,0,1.4-.4.6-.4.7-.2,1.3-.6.6-.4.6-.4,1.2-.8.6-.4.6-.4,1.2-.8.6-.4.2-1,.8-1.4.6-.4,1.1.4,1.7,0,.6-.4.3-.9.9-1.3.6-.4.6-.4,1.2-.8.6-.4.8-.1,1.4-.5.6-.4.5-.6,1.1-.9.6-.4.5-.5,1.1-.9.6-.4.8,0,1.5-.4.6-.4.9,0,1.5-.4.6-.4.4-.7,1-1.1.6-.4.6-.5,1.2-.9.6-.4.9,0,1.5-.3.6-.4,0-1.4.6-1.7.6-.4.6-.3,1.2-.7.6-.4,1.2.6,1.8.2.6-.4.2-1.1.8-1.4.6-.4,1,.3,1.6-.1.6-.4.5-.6,1.1-1,.6-.4.4-.7,1-1.1.6-.4.8,0,1.4-.4.6-.4.3-.9.9-1.3.6-.4,1.1.4,1.7,0,.6-.4.7-.3,1.3-.7.6-.4.4-.7,1-1.1.6-.4.6-.4,1.2-.8.6-.4.8-.1,1.4-.5.6-.4.2-1.1.8-1.5.6-.4.5-.5,1.1-.9.6-.4.9,0,1.5-.3.6-.4.8,0,1.4-.4.6-.4.5-.6,1.1-1,.6-.4.4-.8,1-1.1.6-.4.6-.4,1.2-.8.6-.4.6-.4,1.2-.8.6-.4.9,0,1.5-.4.6-.4.6-.4,1.2-.8.6-.4.4-.7,1-1.1.6-.4.8,0,1.4-.5.6-.4,1,.3,1.6-.1.6-.4.1-1.2.7-1.6.6-.4.8-.1,1.4-.5.6-.4.5-.6,1.1-1,.6-.4.5-.5,1.1-.9s1,.3,1.6,0c.6-.4.5-.6,1.1-.9.6-.4.5-.6,1.1-.9.6-.4.8-.1,1.4-.5.6-.4.3-.9.9-1.3.6-.4.8-.1,1.4-.5.6-.4.6-.5,1.2-.8.6-.4,1.1.4,1.7,0,.6-.4.4-.7,1.1-1,.6-.4.5-.5,1.1-.9.6-.4.4-.7,1-1.1.6-.4.8-.1,1.4-.5.6-.4.5-.5,1.1-.9.6-.4.7-.3,1.3-.7.6-.4.9,0,1.5-.3.6-.4.4-.7,1-1.1.6-.4.9,0,1.5-.4.6-.4.4-.7,1-1.1.6-.4.3-.9.9-1.3.6-.4,1.2.5,1.8.1.6-.4.2-1.1.8-1.4.6-.4.4-.7,1.1-1,.6-.4.9,0,1.5-.3.6-.4.9.1,1.5-.3.6-.4.2-1,.8-1.4.6-.4.7-.2,1.3-.6.6-.4.3-.9.9-1.2.6-.4,1.2.5,1.8.2.6-.4.5-.6,1.1-1,.6-.4.5-.5,1.1-.9.6-.4.4-.7,1-1,.6-.4,1,.2,1.6-.2.6-.4.6-.4,1.2-.8.6-.4.3-.9.9-1.3.6-.4,1,.2,1.6-.2.6-.4.2-1,.9-1.3.6-.4.6-.4,1.2-.8.6-.4,1,.3,1.7,0,.6-.4.6-.4,1.2-.8.6-.4.6-.4,1.2-.7.6-.4,0-1.3.6-1.7.6-.4.8,0,1.4-.5.6-.4.7-.2,1.3-.6.6-.4.6-.4,1.2-.8.6-.4.9.1,1.5-.3.6-.4,0-1.3.6-1.7.6-.4.7-.2,1.4-.5.6-.4,1,.2,1.6-.2.6-.4.6-.3,1.3-.7.6-.4.5-.6,1.1-1,.6-.4.3-.9.9-1.3.6-.4,1.1.4,1.7,0,.6-.4.7-.3,1.3-.7.6-.4.3-.8,1-1.2.6-.4.7-.2,1.3-.6.6-.4.3-.9.9-1.2.6-.4.6-.4,1.2-.8.6-.4.6-.4,1.2-.8.6-.4.7-.3,1.3-.7.6-.4.7-.3,1.3-.7.6-.4,1.1.4,1.7,0,.6-.4,0-1.3.7-1.7.6-.4,1,.3,1.7,0,.6-.4.2-1.1.8-1.4.6-.4.9,0,1.5-.4.6-.4.6-.3,1.3-.7.6-.4.7-.2,1.3-.6.6-.4.5-.6,1.1-1,.6-.4.9,0,1.5-.3.6-.4.6-.3,1.3-.7.6-.4,0-1.3.7-1.7.6-.4.7-.3,1.3-.7.6-.4,1,.3,1.6-.1.6-.4.2-1,.8-1.4.6-.4,1,.3,1.7,0,.6-.4.2-1,.9-1.4.6-.4.5-.6,1.1-1,.6-.4.8-.1,1.4-.5.6-.4.5-.6,1.1-1,.6-.4.6-.4,1.2-.8.4-.2,1.1,0,1.4-.3.4-.3.6-.7.9-1,.3-.3,1.1-.2,1.4-.6.3-.3.2-1,.5-1.4.3-.4.4-.8.6-1.2.2-.4.4-.8.6-1.2.2-.4.7-.7.9-1.1.2-.4.5-.8.6-1.3.1-.4-.3-1-.2-1.5,0-.5,0-.9,0-1.3,0-.5.6-.9.6-1.3,0-.7.4-.7.4-1.4s0-.7,0-1.4-.5-.7-.5-1.4-.3-.7-.3-1.4,0-.7,0-1.4,0-.7,0-1.4-.1-.7-.1-1.5.9-.7.9-1.4-.8-.7-.8-1.4.5-.7.5-1.4.1-.7.1-1.4-.5-.7-.5-1.4.3-.7.3-1.4-.3-.7-.3-1.5.4-.7.4-1.4-.3-.7-.3-1.4.7-.7.7-1.4.2-.7.2-1.5-.7-.7-.7-1.5.6-.7.6-1.4-.5-.7-.5-1.5.4-.7.4-1.5-.3-.7-.3-1.5-.6-.7-.6-1.5.3-.7.3-1.5-.1-.7-.1-1.5,1-.7,1-1.4-1.1-.7-1.1-1.4.4-.7.4-1.5,0-.7,0-1.5.6-.7.6-1.5-.9-.7-.9-1.5.3-.7.3-1.5.5-.7.5-1.5-.5-.7-.5-1.5.4-.7.4-1.5.2-1,.2-1.5c0-.5-.2-1-.3-1.5,0-.5-1-.8-1.2-1.2-.1-.5.3-1.2.1-1.6-.2-.5-.8-.7-1-1.2-.2-.4-.9-.6-1.2-1-.3-.4-.4-.9-.7-1.3-.3-.4,0-1.3-.4-1.6-.3-.3-1.2-.1-1.6-.5-.4-.3-.8-.5-1.2-.8-.4-.3-.9-.4-1.3-.6-.4-.2-.7-.8-1.1-1-.5-.2-.9-.2-1.4-.3-.5-.1-.9-.5-1.4-.6-.5,0-.9-.3-1.4-.3-.5,0-1,.4-1.5.4-.7,0-.7-1-1.4-1s-.7.9-1.4.9-.7,0-1.4,0-.7.2-1.4.2-.7,0-1.4,0-.7-.6-1.4-.6-.7.2-1.4.2-.7-.1-1.4-.1-.7.1-1.4.1-.7.5-1.4.5-.7-1.1-1.4-1.1-.7.6-1.4.6-.7-.2-1.4-.2-.7-.2-1.4-.2-.7.3-1.4.3-.7.2-1.4.2-.7,0-1.4,0-.7.3-1.4.3-.7,0-1.4,0-.7-1.1-1.4-1.1-.7,0-1.4,0-.7,0-1.4,0-.7.9-1.4.9-.7.1-1.4.1-.7-.2-1.4-.2-.7.2-1.4.2-.7-.7-1.4-.7-.7-.1-1.4-.1-.7.7-1.4.7-.7-.6-1.4-.6-.7.7-1.4.7-.7-.8-1.4-.8-.7.5-1.4.5-.7-.6-1.4-.6-.7.3-1.4.3-.7,0-1.4,0-.7,0-1.4,0-.7-.2-1.4-.2-.7.8-1.4.8-.7-.9-1.4-.9-.7-.2-1.4-.2-.7.8-1.4.8-.7.2-1.4.2-.7-1.1-1.4-1.1-.7,1.1-1.4,1.1-.7-.6-1.4-.6-.7.4-1.4.4-.7.2-1.4.2-.7-.1-1.4-.1-.7-1-1.4-1-.7.8-1.4.8-.7-.2-1.4-.2-.7-.1-1.4-.1-.7.6-1.4.6-.7,0-1.4,0-.7-1-1.4-1-.7.4-1.4.4-.7-.3-1.4-.3-.7.8-1.4.8-.7-.2-1.4-.2-.7-.1-1.4-.1-.7.1-1.4.1-.7-.3-1.4-.3-.7-.4-1.4-.4-.7.7-1.4.7-.7.3-1.4.3-.7-.7-1.4-.7-.7-.5-1.4-.5-.7.1-1.4.1-.7.8-1.4.8-.7-.3-1.4-.3-.7.4-1.4.4-.7-.1-1.4-.1-.7-.7-1.4-.7-.7.4-1.4.4-.7.5-1.4.5-.7-.7-1.4-.7-.7.4-1.4.4-.7-.5-1.4-.5-.7-.1-1.4-.1-.7,0-1.4,0-.7.4-1.4.4-.7.7-1.4.7-.7,0-1.4,0-.7-.6-1.4-.6-.7-.3-1.4-.3-.7.6-1.4.6-.7-.3-1.4-.3-.7.3-1.4.3-.7,0-1.4,0-.7,0-1.4,0-.7-.7-1.4-.7-.7,1-1.4,1-.7-.4-1.4-.4-.7.2-1.4.2-.7-.4-1.4-.4-.7.5-1.4.5-.7-.5-1.4-.5-.7.2-1.4.2-.7.4-1.4.4-.7.1-1.4.1-.7-1-1.4-1-.7-.2-1.4-.2-.7.3-1.4.3-.7.7-1.4.7-.7.1-1.4.1-.7-.5-1.4-.5-.7.3-1.4.3-.7-1-1.4-1-.7.9-1.4.9-.7-.8-1.4-.8-.7.8-1.4.8-.7-.9-1.4-.9-.7,1-1.4,1-.7.1-1.4.1-.7-.3-1.4-.3-.7-.4-1.4-.4-.7.5-1.4.5-.7-.9-1.4-.9-.7,0-1.4,0-.7.2-1.4.2-.7-.3-1.4-.3-.7.4-1.4.4-.7.5-1.4.5-.7-.9-1.4-.9-.7.4-1.4.4-.7-.3-1.4-.3-.7.6-1.4.6-.7,0-1.4,0-.7.3-1.4.3-.7-.7-1.4-.7-.7.4-1.4.4-.7,0-1.4,0-.7-.4-1.4-.4-.7-.2-1.4-.2-.7.2-1.4.2-.7-.3-1.4-.3-.7.3-1.4.3-.7.4-1.4.4-.7.4-1.4.4-.7-.6-1.4-.6-.7.3-1.4.3-.7.4-1.4.4-.7-.7-1.4-.7-.7.2-1.4.2-.7-.2-1.4-.2-.7,0-1.4,0-.7.6-1.4.6-.7-.4-1.4-.4-.7.2-1.4.2-.7-.2-1.4-.2-.7,0-1.4,0-.7,0-1.4,0-.7,0-1.4,0-.7-.7-1.4-.7-.7.5-1.4.5-.7-.4-1.4-.4-.7.9-1.4.9-.7-.2-1.4-.2-.7,0-1.4,0-.7,0-1.4,0-.7-.2-1.4-.2-.7-.4-1.4-.4-.7-.3-1.4-.3-.7.4-1.4.4-.7.2-1.4.2-.7,0-1.4,0-.7,0-1.4,0-.7-.7-1.4-.7-.7,0-1.4,0-.7.3-1.2.4c-9.3,17.4-16.6,36-21.6,55.5.3-.2.5-.6,1-.6s.7.9,1.4.9.7-.9,1.4-.9.7.8,1.4.8.7-.6,1.4-.6.7,0,1.4,0,.7-.2,1.4-.2.7.5,1.4.5.7,0,1.4,0,.7.3,1.4.3.7-.8,1.4-.8.7,1,1.4,1,.7-.5,1.4-.5.7,0,1.4,0,.7.1,1.4.1.7-.1,1.4-.1.7.2,1.4.2.7-.4,1.4-.4.7.5,1.4.5.7-.6,1.4-.6.7.5,1.4.5.7,0,1.4,0,.7,0,1.4,0,.7.3,1.4.3.7-.5,1.4-.5.7.2,1.4.2.7.4,1.4.4.7-1.1,1.4-1.1.7.6,1.4.6.7-.3,1.4-.3.7.6,1.4.6.7-.3,1.4-.3.7,0,1.4,0,.7,0,1.4,0,.7,0,1.4,0,.7.5,1.4.5.7.1,1.4.1.7-.5,1.4-.5.7.3,1.4.3.7-.3,1.4-.3.7,0,1.4,0,.7,0,1.4,0,.7.1,1.4.1.7.1,1.4.1.7-.6,1.4-.6.7.8,1.4.8.7-.4,1.4-.4.7,0,1.4,0,.7-.9,1.4-.9.7.7,1.4.7.7-.1,1.4-.1.7-.1,1.4-.1.7.4,1.4.4.7.1,1.4.1.7-.4,1.4-.4.7-.4,1.4-.4.7.8,1.4.8.7,0,1.4,0,.7-.7,1.4-.7.7,0,1.4,0,.7-.3,1.4-.3.7.8,1.4.8.7-.8,1.4-.8.7.2,1.4.2.7-.4,1.4-.4.7.4,1.4.4.7.7,1.4.7.7-.5,1.4-.5.7-.1,1.4-.1.7-.3,1.4-.3.7.6,1.4.6.7-.5,1.4-.5.7.3,1.4.3.7.4,1.4.4.7-.7,1.4-.7.7.8,1.4.8.7-.2,1.4-.2.7-.6,1.4-.6.7.8,1.4.8.7-.6,1.4-.6.7,0,1.4,0,.7-.4,1.4-.4.7,0,1.4,0,.7.9,1.4.9.7-1,1.4-1,.7,1,1.4,1,.7-.2,1.4-.2.7-.9,1.4-.9.7.2,1.4.2.7.2,1.4.2.7.1,1.4.1.7.4,1.4.4.7,0,1.4,0,.7-.2,1.4-.2.7-.2,1.4-.2.7-.2,1.4-.2.7.3,1.4.3.7,0,1.4,0,.7-.5,1.4-.5.7.8,1.4.8.7-.5,1.4-.5.7.4,1.4.4.7-.7,1.4-.7.7.2,1.4.2.7-.2,1.4-.2.7,0,1.4,0,.7.2,1.4.2.7-.2,1.5-.2.7,0,1.4,0,.7.8,1.5.8.7,0,1.5,0,.7,0,1.5,0,1-.3,1.5-.1c.5.2,1.3-.1,1.8.2.4.3.7,1,1,1.4.3.4.2,1.1.4,1.6.2.5,0,1,0,1.5s.5,1.2.4,1.6c-.2.5-1.2.5-1.5,1-.3.4-.6.6-1,.9-.4.3-.5,1-1.1,1.2-.5.2-1,.4-1.5.4s-.7-.3-1.4-.3-.7.1-1.4.1-.7-.4-1.4-.4-.7.3-1.4.3-.7-.2-1.4-.2-.7,1-1.4,1-.7-.8-1.4-.8-.7,0-1.4,0-.7.6-1.4.6-.7-.9-1.4-.9-.7,0-1.4,0-.7,0-1.4,0-.7.6-1.4.6-.7-.4-1.4-.4-.7.3-1.4.3-.7-.6-1.4-.6-.7.6-1.4.6-.7.5-1.4.5-.7-.9-1.4-.9-.7.3-1.4.3-.7,0-1.4,0-.7.4-1.4.4-.7-.9-1.4-.9-.7,1.1-1.4,1.1-.7-.3-1.4-.3-.7-.6-1.4-.6-.7.3-1.4.3-.7,0-1.4,0-.7-.6-1.4-.6-.7.3-1.4.3-.7.5-1.4.5-.7,0-1.4,0-.7-.1-1.4-.1-.7.4-1.4.4-.7.1-1.4.1-.7-.7-1.4-.7-.7.6-1.4.6-.7-.3-1.4-.3-.7.5-1.4.5-.7-.7-1.4-.7-.7,0-1.4,0-.7-.4-1.4-.4-.7,1-1.4,1-.7.1-1.4.1-.7-1-1.4-1-.7.5-1.4.5-.7-.5-1.4-.5-.7,1.1-1.4,1.1-.7-.8-1.4-.8-.7.6-1.4.6-.7-.9-1.4-.9-.7,1-1.4,1-.7,0-1.4,0-.7-.7-1.4-.7-.7.6-1.4.6-.7-.6-1.4-.6-.7.3-1.4.3-.7.4-1.4.4-.7-.6-1.4-.6-.7.4-1.4.4-.7-.7-1.4-.7-.7.4-1.4.4-.7-.1-1.4-.1-.7,0-1.4,0-.7,0-1.4,0-.7-.1-1.4-.1-.7,0-1.4,0-.7.2-1.4.2-.7.8-1.4.8-.7-1.1-1.4-1.1-.7.8-1.4.8-.7,0-1.4,0-.7,0-1.4,0-.7,0-1.4,0-.7-.2-1.4-.2-.7.2-1.4.2-.7,0-1.4,0-.7-.2-1.4-.2-.7,0-1.4,0-.7-.7-1.4-.7-.7,0-1.4,0-.7.2-1.4.2-.7.2-1.4.2-.7.2-1.4.2-.7.5-1.4.5-.7-.3-1.4-.3-.7.3-1.4.3-.7,0-1.4,0-.7-.8-1.4-.8-.7-.2-1.4-.2-.7,0-1.4,0-.7,0-1.4,0-.7.7-1.4.7-.7.2-1.4.2-.7,0-1.4,0-.7,0-1.4,0-.7-.1-1.4-.1-.7-.2-1.4-.2-.7-.2-1.4-.2-.7.1-1.4.1-.7-.2-1.4-.2-.7-.5-1.4-.5-.7,0-1.4,0-.7,1.1-1.4,1.1-.7-.3-1.4-.3-.7-.5-1.4-.5-.7-.1-1.4-.1-.7.8-1.4.8-.7-.6-1.4-.6-.7.2-1.4.2-.7-.2-1.4-.2-.7-.3-1.4-.3-.7.1-1.4.1-.5.1-.7.3c-3.6,16.9-5.5,34.4-5.5,52.3,0,43,10.9,83.5,30,118.8,0-.1.2-.2.4-.4Z"/>
  <path class="cls-1" d="M484.4,336.9c-.7,0-.7.3-1.4.3s-.7.7-1.4.7-.7.1-1.4.1-.7-.1-1.4-.1-.7-.8-1.4-.8-.7,0-1.4,0-.7,0-1.4,0-.7.8-1.4.8-.7,0-1.4,0-.7-.6-1.4-.6-.7.5-1.4.5-.7,0-1.4,0-.7,0-1.4,0-.7-.8-1.4-.8-.7.6-1.4.6-.7-.3-1.4-.3-.7.6-1.4.6-.7-.4-1.4-.4-.7-.6-1.4-.6-.7,1.2-1.4,1.2-.7,0-1.4,0-.7-.4-1.4-.4-.7,0-1.4,0-.7,0-1.4,0-.7-.5-1.4-.5-.7,0-1.4,0-.9,1.1-1.3,1.2c-.5,0-1-.6-1.5-.5-.5,0-.9.3-1.3.4-.4.1-1,0-1.4.1-.4.2-.6,1-1,1.2-.4.2-.7.5-1.1.8-.6.4-.5.6-1.1.9-.6.4-.8.1-1.4.5-.6.4-1.1-.4-1.7,0-.6.4-.3.8-.9,1.2-.6.4-.6.4-1.2.8-.6.4-.4.8-1,1.2-.6.4-1-.2-1.6.2-.6.4-.3.9-.9,1.3-.6.4-1-.3-1.6,0-.6.4-.3.9-.9,1.3-.6.4-.7.3-1.3.7-.6.4-.6.3-1.2.7-.6.4-.8,0-1.4.4-.6.4-.5.5-1.1.9-.6.4-.5.6-1.1.9-.6.4-.4.7-1.1,1-.6.4-.9,0-1.5.3-.6.4-.8.1-1.4.5-.6.4-.4.7-1,1.1-.6.4-.3.8-.9,1.2-.6.4-.9,0-1.5.3-.6.4-.4.6-1.1,1-.6.4-.7.2-1.4.5-.6.4-.7.2-1.4.6-.6.4-.7.2-1.3.6-.6.4-.3.9-.9,1.3-.6.4-.8,0-1.4.4-.6.4-.4.6-1.1,1-.6.4-.5.6-1.1,1-.6.4-.8,0-1.4.4-.6.4-.8,0-1.5.4-.6.4-.6.4-1.2.8s-.7.2-1.3.6-.4.7-1,1.1c-.6.4-.8,0-1.4.5s-.2,1.1-.8,1.5c-.6.4-.7.2-1.4.6-.6.4-.5.5-1.1.9-.6.4-.6.3-1.3.7-.6.4-.7.2-1.4.6-.6.4-.5.6-1.1,1-.6.4-.7.3-1.3.7-.6.4-.8,0-1.4.4-.6.4-.5.5-1.1.9-.6.4-.5.6-1.1,1-.6.4-.6.4-1.2.8-.6.4-.7.3-1.3.6-.6.4-.4.7-1,1.1-.6.4-.9,0-1.5.4-.6.4-.8.1-1.4.5-.6.4-.3.9-.9,1.2-.6.4-.6.5-1.2.8-.6.4-.7.2-1.4.6-.6.4-.4.7-1,1.1-.6.4-1.2-.6-1.8-.2-.6.4-.3.8-.9,1.2-.6.4-.7.3-1.3.7q-.6.4-1.2.8c-.6.4-.8.1-1.4.5-.6.4-.4.8-1,1.1s-.9,0-1.5.3c-.6.4-.1,1.2-.7,1.5-.6.4-.8.1-1.4.5-.6.4-.6.3-1.3.7s-.4.7-1,1.1-1.2-.6-1.8-.2c-.6.4,0,1.3-.6,1.7-.6.4-1.2-.6-1.8-.2-.6.4,0,1.3-.7,1.7-.6.4-.8.1-1.4.5-.6.4-.5.5-1.1.9-.6.4-.5.5-1.1.9-.6.4-.7.2-1.3.6-.6.4-.9,0-1.5.4-.6.4-.6.4-1.2.8q-.6.4-1.2.8c-.6.4-.3.8-1,1.2-.6.4-1.1-.5-1.7,0-.6.4-.2,1-.8,1.4-.6.4-.7.3-1.3.7-.6.4-.7.3-1.3.7-.6.4-.7.3-1.3.7-.6.4-.5.6-1.1.9-.6.4-.4.7-1,1.1-.6.4-.5.5-1.1.9-.6.4-.8.1-1.4.5-.6.4-.5.5-1.1.9-.6.4-1-.3-1.6,0-.6.4-.5.6-1.1.9-.6.4-.7.2-1.3.6-.6.4-.5.6-1.1.9-.6.4-.6.4-1.2.8-.6.4-.5.6-1.1,1-.6.4-.9,0-1.5.3-.6.4-.2,1-.8,1.4-.6.4-.7.3-1.3.6s-.5.5-1.1.9c-.6.4-.8,0-1.4.4-.6.4-.7.2-1.4.5s-.7.3-1.3.7c-.6.4-.7.2-1.3.6-.6.4-.3.9-.9,1.3-.6.4-.6.3-1.2.7-.6.4-.7.3-1.3.7-.6.4-.8,0-1.4.4-.6.4-.3.9-.9,1.3-.6.4-.7.2-1.3.6-.6.4-.7.2-1.4.5-.6.4-.9-.1-1.5.2-.6.4,0,1.3-.7,1.6-.6.4-.9,0-1.5.3-.6.4-.7.3-1.3.6-.6.4-.5.5-1.1.9-.6.4-.4.7-1,1-.6.4-.6.5-1.2.8-.6.4-1.1-.3-1.7,0-.6.4-.4.7-1,1.1-.6.4-.3.9-.9,1.3-.6.4-.9,0-1.5.3-.6.4-.7.2-1.3.6-.6.4-.4.7-1,1.1-.6.4-1-.2-1.6.2-.6.4-.4.8-1,1.2-.6.4-.9-.2-1.6.2-.6.4-.3.8-1,1.2-.6.4-.7.2-1.4.5-.6.4-.5.5-1.1.9-.6.4-.9,0-1.5.4-.6.4-.6.4-1.2.7-.6.4-.2,1-.8,1.4-.6.4-.8,0-1.4.4-.6.4-.3.8-1,1.2-.6.4-.8.1-1.4.5-.6.4-.7.2-1.3.6-.6.4-.7.2-1.4.5-.6.4-.3.9-.9,1.2-.6.4-.8,0-1.4.4-.6.4-.4.7-1,1.1-.6.4-.5.6-1.1.9-.6.4-.8,0-1.4.4-.6.4-.6.4-1.2.8-.6.4-.7.3-1.3.7-.6.4-.3.9-.9,1.3-.6.4-.6.4-1.2.8-.6.4-1.1-.5-1.8,0-.6.4,0,1.3-.7,1.7-.6.4-1.2-.5-1.8-.1-.6.4-.4.6-1.1,1-.6.4-.3.9-.9,1.2-.6.4-.5.5-1.1.9-.6.4-.9-.2-1.6.2-.6.4-.5.6-1.1.9-.6.4-.9-.1-1.5.2-.6.4-.7.3-1.3.7s-.5.6-1.1,1c-.6.4-.7.2-1.3.6-.6.4-.6.4-1.2.7-.6.4-.1,1.2-.7,1.5-.6.4-.7.2-1.4.6-.6.4-.7.2-1.3.6-.6.4-.6.5-1.2.9-.6.4-.4.7-1.1,1-.6.4-1.1-.4-1.7,0-.6.4-.3,1-.9,1.3-.6.4-.7.3-1.3.6-.6.4-.8,0-1.4.5-.6.4-.4.7-1,1.1-.6.4-.7.3-1.3.6-.6.4-.5.5-1.1.9s-.8,0-1.4.4c-.6.4-.2,1-.9,1.3-.6.4-.8,0-1.4.4-.6.4-.6.3-1.3.7-.6.4-.4.7-1,1.1-.6.4-.9,0-1.5.3-.6.4-.6.4-1.2.7-.6.4-.3.9-.9,1.3-.6.4-1-.2-1.6.2-.6.4-.1,1.1-.8,1.5-.6.4-1.2-.5-1.8-.2-.6.4-.5.6-1.1,1-.6.4-.4.7-1,1.1-.6.4-.5.6-1.1,1-.6.4-1-.2-1.6.2-.6.4-.5.5-1.2.9-.6.4-.4.7-1,1.1-.6.4-.7.3-1.3.6-.6.4-.6.3-1.3.7-.6.4-.6.5-1.2.8s-.8.1-1.4.5c-.6.4-.4.7-1,1.1-.6.4-.5.5-1.1.9-.6.4-.6.4-1.2.8-.6.4-.6.4-1.2.8-.6.4-.9,0-1.5.3-.6.4-.4.7-1,1.1-.6.4-.6.4-1.2.7-.6.4-.4.6-1.1,1-.6.4-.8,0-1.4.4-.6.4-.5.6-1.1,1-.6.4-.9,0-1.5.4-.6.4-.5.5-1.1.9-.3.2-.5.3-.6.3,18.9,4.6,38.7,7,59,7,107.5,0,199.2-67.9,234.5-163.1,0,0,0,0,0,0Z"/>
  <path class="cls-1" d="M36.2,122.3c.7,0,.7.5,1.4.5s.7-.8,1.4-.8.7.7,1.4.7.7.4,1.4.4.7-.6,1.4-.6.7,0,1.4,0,.7-.2,1.4-.2.7.8,1.4.8.7-.9,1.4-.9.7.9,1.4.9.7-.4,1.4-.4.7-.5,1.4-.5.7.2,1.4.2.7,0,1.4,0,.7-.3,1.4-.3.7,1,1.4,1,.7,0,1.4,0,.7-.3,1.4-.3.7.1,1.4.1.7.2,1.4.2.7-.9,1.4-.9.7-.2,1.4-.2.7,0,1.4,0,.7.4,1.4.4.7.6,1.4.6.7-.6,1.4-.6.7,0,1.4,0,.7,0,1.4,0,.7.5,1.4.5.7-.5,1.4-.5.7-.2,1.4-.2.7.3,1.4.3.7.3,1.4.3.7,0,1.4,0,.7-.7,1.4-.7.7,1.1,1.4,1.1.7,0,1.4,0,.7-.1,1.4-.1.7-.9,1.4-.9.7.5,1.4.5.7-.3,1.4-.3.7.2,1.4.2.7.7,1.4.7.7-.6,1.4-.6.7.3,1.4.3.7-.2,1.4-.2.7,0,1.4,0,.7,0,1.4,0,.7-.4,1.4-.4.7,1.1,1.4,1.1.7-.1,1.4-.1.7-.5,1.4-.5.7-.2,1.4-.2.7.3,1.4.3.7-.4,1.4-.4.7.4,1.4.4.7-.3,1.4-.3.7,0,1.4,0,.7.3,1.4.3.7-.6,1.4-.6.7-.2,1.4-.2.7.8,1.4.8.7,0,1.4,0,.7,0,1.4,0,.7,0,1.4,0,.7-.2,1.4-.2.7-.4,1.4-.4.7-.3,1.4-.3.7,1,1.4,1,.7-.6,1.4-.6.7.2,1.4.2.7,0,1.4,0,.7.5,1.4.5.7-.7,1.4-.7.7,0,1.4,0,.7.6,1.4.6.7.1,1.4.1.7-.7,1.4-.7.7.2,1.4.2.7-.2,1.4-.2.7-.4,1.4-.4.7,0,1.4,0,.7.2,1.4.2.7.4,1.4.4.7.2,1.4.2.7.4,1.4.4.7-.9,1.4-.9.7.8,1.4.8.7-.2,1.4-.2.7-.6,1.4-.6.7.3,1.4.3.7.2,1.4.2.7-.4,1.4-.4.7.1,1.4.1.7,0,1.4,0,.7.4,1.4.4.7-.7,1.4-.7.7,1,1.4,1,.7-.7,1.4-.7.7.7,1.4.7.7-.3,1.4-.3.7-.4,1.4-.4.7-.2,1.4-.2.7.6,1.4.6.7.1,1.4.1.7-.9,1.4-.9.7.4,1.4.4.7.6,1.4.6.7,0,1.4,0,.7-1.1,1.4-1.1.7.4,1.4.4.7.6,1.4.6.7-1,1.4-1,.7-.2,1.4-.2.7,1,1.4,1,.7-.6,1.4-.6.7.2,1.4.2.7-.4,1.4-.4.7.8,1.4.8.7.1,1.4.1.7-.2,1.4-.2.7-.3,1.4-.3.7.2,1.4.2.7-.5,1.4-.5.7.7,1.4.7.7-.9,1.4-.9.7.6,1.4.6.7-.2,1.4-.2.7-.3,1.4-.3.7-.2,1.4-.2.7.4,1.4.4.7.3,1.4.3.7.2,1.4.2.7,0,1.4,0,.7-.1,1.4-.1.7-.6,1.4-.6.7.4,1.4.4.7-.3,1.4-.3.7.8,1.4.8.7-.4,1.4-.4.7.1,1.4.1.7.2,1.4.2.7-1,1.4-1,.7.2,1.4.2.7,1,1.4,1,.7-.6,1.4-.6.7.3,1.4.3.7-.4,1.4-.4.7.5,1.4.5.7-.8,1.4-.8.7.6,1.4.6.7-.6,1.4-.6.7.7,1.4.7.7,0,1.4,0,.7,0,1.4,0,.7.4,1.4.4.7-.4,1.4-.4.7-.4,1.4-.4.7.1,1.4.1.7.4,1.4.4.7-.1,1.4-.1.7,0,1.4,0,.7.7,1.4.7.7-.3,1.4-.3.7-.2,1.4-.2.7-.3,1.4-.3.7-.3,1.4-.3.7.4,1.4.4.7.3,1.4.3.7-.1,1.4-.1.7-.6,1.4-.6.7.4,1.4.4.7-.3,1.4-.3.7.2,1.4.2.7-.3,1.4-.3.7,0,1.4,0,.7.8,1.4.8.7.1,1.4.1.7-.6,1.4-.6.7.3,1.4.3.7.1,1.4.1.7-.8,1.4-.8.7,1,1.4,1,.7,0,1.4,0,.7-.6,1.4-.6.7.2,1.4.2.7,0,1.4,0,.7-.7,1.4-.7.7-.1,1.4-.1.7.9,1.4.9.7-.3,1.4-.3.7-.5,1.4-.5.7.6,1.4.6.7.4,1.4.4.7-1.2,1.4-1.2.7.2,1.4.2.7.3,1.4.3.7-.2,1.4-.2.7.4,1.4.4.7-.3,1.4-.3.7.6,1.4.6.7,0,1.4,0,.7-.8,1.4-.8.7-.2,1.4-.2.7.2,1.4.2.7-.3,1.4-.3.7.2,1.4.2.7.5,1.4.5.7-.3,1.4-.3.7-.1,1.4-.1.7.4,1.4.4.7.1,1.4.1.7.1,1.4.1.7-.2,1.4-.2.7-.6,1.4-.6.7-.2,1.4-.2.7.8,1.4.8.7-.3,1.4-.3.7-.5,1.4-.5.7.8,1.4.8.7-.3,1.4-.3.7.2,1.4.2.7.3,1.4.3.7-.5,1.4-.5.7-.3,1.4-.3.7.5,1.4.5.7.4,1.4.4.7-.2,1.4-.2.7-.4,1.4-.4.7.6,1.4.6.7-.9,1.4-.9.7.6,1.4.6.7-.6,1.4-.6.7.5,1.4.5.7,0,1.4,0,.7-.4,1.4-.4.7.3,1.4.3.7-.6,1.4-.6.7,1,1.4,1,.7,0,1.4,0,.7-.4,1.4-.4.7.4,1.4.4.7.1,1.4.1.7-.1,1.4-.1.7-.1,1.4-.1.7,0,1.4,0,.7,0,1.4,0,.7.2,1.4.2.7-.3,1.4-.3.7.1,1.4.1.7-.8,1.4-.8.7.3,1.4.3.7.4,1.4.4.7-.3,1.4-.3.7-.3,1.4-.3.7.5,1.4.5.7-.7,1.4-.7.7.6,1.4.6.7-.6,1.4-.6.7,0,1.4,0,.7-.2,1.4-.2.7.1,1.4.1.7.9,1.4.9.7-.8,1.4-.8.7.2,1.4.2.7.7,1.4.7.7-1,1.4-1,.7.6,1.4.6.7.4,1.4.4.7-.6,1.4-.6.7-.3,1.4-.3.7.5,1.4.5.7.4,1.4.4.7-.2,1.4-.2.7-.4,1.4-.4.7-.5,1.4-.5.7.6,1.4.6.7.4,1.4.4.7-1,1.4-1,.7.7,1.4.7.7,0,1.4,0,.7-.3,1.4-.3.7-.5,1.4-.5.7.3,1.4.3.7.5,1.4.5.7-.5,1.4-.5.7.5,1.4.5.7-.8,1.4-.8.7.1,1.4.1.7.4,1.4.4.7.5,1.4.5.7-1,1.4-1,.7.2,1.4.2.7,0,1.4,0,.7.7,1.4.7.7-.7,1.4-.7.7.3,1.4.3.7.1,1.2.2C421.6,49.2,341.6,0,250,0S78.3,49.3,34.8,122.7c.7,0,.7-.4,1.4-.4ZM141.2,65.3c.2-.5.1-1.2.4-1.6.3-.4,1.2-.3,1.6-.6.4-.3.6-1,1.1-1.2.5-.2,1.1.5,1.6.5s.7,0,1.4,0,.7-.2,1.4-.2.7-.5,1.4-.5.7.4,1.4.4.7-.3,1.4-.3.7.5,1.4.5.7-.6,1.4-.6.7,0,1.4,0,.7-.2,1.4-.2.7.5,1.4.5.7,0,1.4,0,.7.1,1.4.1.7.1,1.4.1.7-.3,1.4-.3.7,0,1.4,0,.7.4,1.4.4.7-.5,1.4-.5.7.3,1.4.3.7-.3,1.4-.3.7,0,1.4,0,.7.4,1.4.4.7-.9,1.4-.9.7.8,1.4.8.7-.7,1.4-.7.7.7,1.4.7.7-.6,1.4-.6.7,0,1.4,0,.7.3,1.4.3.7.6,1.4.6.7-.6,1.4-.6.7.6,1.4.6.7-.9,1.4-.9.7,1,1.4,1,.7-.5,1.4-.5.7-.4,1.4-.4.7.4,1.4.4.7,0,1.4,0,.7-.5,1.4-.5.7,1,1.4,1,.7-.2,1.4-.2.7,0,1.4,0,.7-.5,1.4-.5.7-.1,1.4-.1.7.3,1.4.3.7-.1,1.4-.1.7.3,1.4.3.7,0,1.4,0,.7-.2,1.4-.2.7.6,1.4.6.7-.5,1.4-.5.7,0,1.4,0,.7-.3,1.4-.3.7-.2,1.4-.2.7.3,1.4.3.7.6,1.4.6.7-1.1,1.4-1.1.7.7,1.4.7.7-.7,1.4-.7.7.9,1.4.9.7-.9,1.4-.9.7.8,1.4.8.7-.6,1.4-.6.7,0,1.4,0,.7-.2,1.4-.2.7.5,1.4.5.7,0,1.4,0,.7.3,1.4.3.7-.8,1.4-.8.7,1,1.4,1,.7-.5,1.4-.5.7,0,1.4,0,.7.1,1.4.1.7-.1,1.4-.1.7.2,1.4.2.7-.4,1.4-.4.7.5,1.4.5.7-.6,1.4-.6.7.5,1.4.5.7,0,1.4,0,.7,0,1.4,0,.7.3,1.4.3.7-.5,1.4-.5.7.2,1.4.2.7.4,1.4.4.7-1.1,1.4-1.1.7.6,1.4.6.7-.3,1.4-.3.7.6,1.4.6.7-.3,1.4-.3.7,0,1.4,0,.7,0,1.4,0,.7,0,1.4,0,.7.5,1.4.5.7.1,1.4.1.7-.5,1.4-.5.7.3,1.4.3.7-.3,1.4-.3.7,0,1.4,0,.7,0,1.4,0,.7.1,1.4.1.7.1,1.4.1.7-.6,1.4-.6.7.8,1.4.8.7-.4,1.5-.4.7,0,1.5,0,1.2-.8,1.7-.6c.5.2.7,1.1,1.1,1.4.4.3.9.6,1.2,1,.3.4.7.8.8,1.3.2.5-.2,1-.2,1.6s-.2.9-.3,1.4c-.2.5,0,1.1-.3,1.5-.3.4-.5,1.1-.9,1.4-.4.3-1.2-.2-1.7,0-.5.2-.9.3-1.4.3s-.7.7-1.4.7-.7,0-1.4,0-.7.3-1.4.3-.7-.8-1.4-.8-.7.8-1.4.8-.7-.2-1.4-.2-.7.4-1.4.4-.7-.4-1.4-.4-.7-.7-1.4-.7-.7.5-1.4.5-.7.1-1.4.1-.7.3-1.4.3-.7-.6-1.4-.6-.7.5-1.4.5-.7-.3-1.4-.3-.7-.4-1.4-.4-.7.7-1.4.7-.7-.8-1.4-.8-.7.2-1.4.2-.7.6-1.4.6-.7-.8-1.4-.8-.7.6-1.4.6-.7,0-1.4,0-.7.4-1.4.4-.7,0-1.4,0-.7-.9-1.4-.9-.7,1-1.4,1-.7-1-1.4-1-.7.2-1.4.2-.7.9-1.4.9-.7-.2-1.4-.2-.7-.2-1.4-.2-.7-.1-1.4-.1-.7-.4-1.4-.4-.7,0-1.4,0-.7.2-1.4.2-.7.2-1.4.2-.7.2-1.4.2-.7-.3-1.4-.3-.7,0-1.4,0-.7.5-1.4.5-.7-.8-1.4-.8-.7.5-1.4.5-.7-.4-1.4-.4-.7.7-1.4.7-.7-.2-1.4-.2-.7.2-1.4.2-.7,0-1.4,0-.7-.2-1.4-.2-.7.2-1.4.2-.7,0-1.4,0-.7-.8-1.4-.8-.7,0-1.4,0-.7,0-1.4,0-.7.3-1.4.3-.7.6-1.4.6-.7-.3-1.4-.3-.7-.4-1.4-.4-.7-.2-1.4-.2-.7.6-1.4.6-.7-.9-1.4-.9-.7,0-1.4,0-.7.6-1.4.6-.7.1-1.4.1-.7-.3-1.4-.3-.7.1-1.4.1-.7-.4-1.4-.4-.7.3-1.4.3-.7-.2-1.4-.2-.7,1-1.4,1-.7-.8-1.4-.8-.7,0-1.4,0-.7.6-1.4.6-.7-.9-1.4-.9-.7,0-1.4,0-.7,0-1.4,0-.7.6-1.4.6-.7-.4-1.4-.4-.7.3-1.4.3-.7-.6-1.4-.6-.7.6-1.4.6-.7.5-1.4.5-.7-.9-1.4-.9-.7.3-1.4.3-.7,0-1.4,0-.7.4-1.4.4-.7-.9-1.4-.9-.7,1.1-1.4,1.1-.7-.3-1.4-.3-.7-.6-1.4-.6-.7.3-1.4.3-.7,0-1.4,0-.7-.6-1.4-.6-.7.3-1.4.3-.7.5-1.4.5-.7,0-1.4,0-.7-.1-1.4-.1-.7.4-1.4.4-.7.1-1.4.1-.7-.7-1.4-.7-.7.6-1.4.6-.7-.3-1.4-.3-.7.5-1.4.5-.8-.8-1.5-.7c-.7.1-.7.5-1.4.5s-.9-.8-1.4-.9c-.5-.2-1.1,0-1.5-.3-.4-.3-.9-.6-1.2-1.1-.3-.4-.9-.8-1.1-1.3-.2-.5.5-1.2.5-1.7s-.3-1.1-.1-1.6Z"/>
</svg>