<?xml version="1.0" encoding="UTF-8"?>
<svg id="_アイコン" data-name="アイコン" xmlns="http://www.w3.org/2000/svg" version="1.1" viewBox="0 0 500 500">
  <defs>
    <style>
      .cls-1 {
        fill: #fff;
        stroke-width: 0px;
      }
    </style>
  </defs>
  <path class="cls-1" d="M448.8,98.5c0,.6.3.7.3,1.4s-.3.7-.3,1.4.4.7.4,1.4-.1.7-.1,1.4,0,.7,0,1.4-.3.7-.3,1.4,0,.7,0,1.4.5.7.5,1.4-.7.7-.7,1.4.2.7.2,1.4.5.7.5,1.4,0,.7,0,1.4-.3.7-.3,1.4,0,.7,0,1.4-.3.7-.3,1.4.1.7.1,1.4.7.7.7,1.4-.9.7-.9,1.4.4.7.4,1.4.5.7.5,1.4-.9.7-.9,1.4.2.7.2,1.4.3.7.3,1.4.3.7.3,1.4-.1.7-.1,1.4-.3.7-.3,1.4-.2.7-.2,1.4.7.7.7,1.4-.4.7-.4,1.4-.5.7-.5,1.4.4.7.4,1.4-.4.7-.4,1.4.8.7.8,1.4-.5.7-.5,1.4-.2.7-.2,1.4.5.7.5,1.4.1.7.1,1.4-.7.7-.7,1.4.6.7.6,1.4,0,.7,0,1.4,0,.7,0,1.4-.4.7-.4,1.4,0,.7,0,1.4.1.7.1,1.4-.5.7-.5,1.4,0,.7,0,1.4.6.7.6,1.4-.4.7-.4,1.4.3.7.3,1.4-.2.7-.2,1.4,0,.7,0,1.4.2.7.2,1.4-.3.7-.3,1.4.5.7.5,1.4-.2.7-.2,1.4,0,.7,0,1.4-.4.7-.4,1.4.6.7.6,1.4-.9.7-.9,1.4,0,.7,0,1.4.4.7.4,1.4.2.7.2,1.4,0,.7,0,1.4,0,.7,0,1.4-.4.7-.4,1.4,0,.7,0,1.4.3.7.3,1.4-.7.7-.7,1.4.4.7.4,1.4.1.7.1,1.4.3.7.3,1.4,0,.7,0,1.4-.5.7-.5,1.4.6.7.6,1.4-.5.7-.5,1.4-.2.7-.2,1.4.8.7.8,1.4-.7.7-.7,1.4.7.7.7,1.4-.6.7-.6,1.4.2.7.2,1.4.2.7.2,1.4.1.7.1,1.4,0,.7,0,1.4-.6.7-.6,1.4.6.7.6,1.4,0,.7,0,1.4-.1.7-.1,1.4-.5.7-.5,1.4,0,.7,0,1.4.4.7.4,1.4-.3.7-.3,1.4-.2.7-.2,1.4.3.7.3,1.4,0,.7,0,1.4,0,.7,0,1.4.1.7.1,1.4.3.7.3,1.4-.3.7-.3,1.4.4.7.4,1.4-.3.7-.3,1.4,0,.7,0,1.4.1.7.1,1.4.1.7.1,1.4-.2.7-.2,1.4-.1.7-.1,1.4.2.7.2,1.4-.5.7-.5,1.4.8.7.8,1.4-.3.7-.3,1.4-.5.7-.5,1.4.3.7.3,1.4-.3.7-.3,1.4.3.7.3,1.4.6.7.6,1.4-.7.7-.7,1.4.7.7.7,1.4-.5.7-.5,1.4.4.7.4,1.4-.4.7-.4,1.4-.2.7-.2,1.4.3.7.3,1.4-.3.7-.3,1.4.8.7.8,1.4,0,.7,0,1.4,0,.7,0,1.4-.6.7-.6,1.4,0,.7,0,1.4.7.7.7,1.4-.6.7-.6,1.4.3.7.3,1.4-.6.7-.6,1.4.3.7.3,1.4,0,.7,0,1.4.1.7.1,1.4.1.7.1,1.4-.3.7-.3,1.4,0,.7,0,1.4.5.7.5,1.4.1.7.1,1.4-.4.7-.4,1.4.6.7.6,1.4-.2.7-.2,1.4-.2.7-.2,1.4.3.7.3,1.4-.5.7-.5,1.4.4.7.4,1.4-.2.7-.2,1.4.2.7.2,1.4-.5.7-.5,1.4.6.7.6,1.4-.7.7-.7,1.4,0,.7,0,1.4.6.7.6,1.4-.6.7-.6,1.4.3.7.3,1.4-.3.7-.3,1.4.5.7.5,1.4-.4.7-.4,1.4.1.7.1,1.4,0,.7,0,1.4,0,.7,0,1.4.5.7.5,1.4.2.7.2,1.4-.2.7-.2,1.4-.4.7-.4,1.4.1.7.1,1.4-.4.7-.4,1.4.2.7.2,1.4.4.7.4,1.4-.5.7-.5,1.4,0,.7,0,1.4-.2.7-.2,1.4.5.7.5,1.4,0,.7,0,1.4.2.7.2,1.4-.7.7-.7,1.4.6.7.6,1.4-.5.7-.5,1.4.5.7.5,1.4-.7.7-.7,1.4.2.7.2,1.4-.1.7-.1,1.4.3.7.3,1.4.1.7.1,1.4-.5.7-.5,1.4,0,.7,0,1.4,0,.7,0,1.4.8.7.8,1.4-.2.7-.2,1.4-.7.7-.7,1.4.6.7.6,1.4-.3.7-.3,1.4,0,.7,0,1.4-.2.7-.2,1.4.3.7.3,1.4.4.7.4,1.4-.1.7-.1,1.4,0,.7,0,1.4-.2.7-.2,1.4.6.7.6,1.4-.4.7-.4,1.4,0,.7,0,1.4,0,.7,0,1.4.3.7.3,1.4-.4.7-.4,1.4,0,.7,0,1.4-.2.7-.2,1.4.6.7.6,1.4-.1.7-.1,1.4-.4.7-.5,1.1c32.3-42.1,51.4-94.7,51.4-151.9s-19.1-109.5-51.2-151.5Z"/>
  <path class="cls-1" d="M438.7,413.7c0-.7-.2-.7-.2-1.4s.3-.7.3-1.4.2-.7.2-1.4-.4-.7-.4-1.4.4-.7.4-1.4.4-.7.4-1.4-.7-.7-.7-1.4.3-.7.3-1.4.5-.7.5-1.4-.6-.7-.6-1.4.2-.7.2-1.4-.4-.7-.4-1.4.1-.7.1-1.4-.2-.7-.2-1.4.5-.7.5-1.4-.5-.7-.5-1.4.4-.7.4-1.4.3-.7.3-1.4,0-.7,0-1.4-.3-.7-.3-1.4-.3-.7-.3-1.4.5-.7.5-1.4-.3-.7-.3-1.4.3-.7.3-1.4.2-.7.2-1.4-.6-.7-.6-1.4.7-.7.7-1.4,0-.7,0-1.4-.5-.7-.5-1.4.1-.7.1-1.5-.3-.7-.3-1.4.7-.7.7-1.4-.8-.7-.8-1.4.7-.7.7-1.4,0-.7,0-1.4-.5-.7-.5-1.4-.2-.7-.2-1.5.1-.7.1-1.4.7-.7.7-1.4-.6-.7-.6-1.4.7-.7.7-1.5,0-.7,0-1.5-.9-.7-.9-1.4.2-.7.2-1.4.7-.7.7-1.5-.8-.7-.8-1.5.6-.7.6-1.5,0-.7,0-1.5-.3-.7-.3-1.5-.3-.7-.3-1.4.4-.7.4-1.4.4-.7.4-1.5-.6-.7-.6-1.5,0-.7,0-1.5,0-.7,0-1.5-.2-.7-.2-1.5.8-.7.8-1.5-.2-.7-.2-1.5-.7-.7-.7-1.5.8-.9.8-1.4-.4-.9-.4-1.4.4-.9.4-1.4-.4-.9-.4-1.4.2-.9.2-1.4-.3-.9-.3-1.4,0-.9,0-1.4-.1-.9-.1-1.4.8-.9.8-1.4-.4-.9-.4-1.4-.4-.9-.4-1.4.7-.9.7-1.4-.6-1-.6-1.4.4-1,.4-1.4,0-1,0-1.4.1-1,.1-1.4-.8-1-.8-1.4c0-.7.4-.7.4-1.4s-.2-.7-.2-1.4-.2-.7-.2-1.4.8-.7.8-1.4,0-.7,0-1.4-.3-.7-.3-1.4-.2-.7-.2-1.4,0-.7,0-1.4.5-.7.5-1.4-.7-.7-.7-1.4.2-.7.2-1.4.4-.7.4-1.4,0-.7,0-1.4-.2-.7-.2-1.4-.5-.7-.5-1.4.4-.7.4-1.4-.4-.7-.4-1.4.6-.7.6-1.4-.4-.7-.4-1.4.6-.7.6-1.4-.8-.7-.8-1.4,0-.7,0-1.4.1-.7.1-1.4,0-.7,0-1.4-.2-.7-.2-1.4.8-.7.8-1.4,0-.7,0-1.4,0-.7,0-1.4-.6-.7-.6-1.4.1-.7.1-1.4-.2-.7-.2-1.4,0-.7,0-1.4.5-.7.5-1.4-.1-.7-.1-1.4.1-.7.1-1.4.4-.7.4-1.4-.4-.7-.4-1.4.2-.7.2-1.4-.4-.7-.4-1.4-.3-.7-.3-1.4,0-.7,0-1.4,0-.7,0-1.4,0-.7,0-1.4.2-.7.2-1.4.5-.7.5-1.4-.2-.7-.2-1.4-.3-.7-.3-1.4.1-.7.1-1.4-.2-.7-.2-1.4.7-.7.7-1.4,0-.7,0-1.4-.7-.7-.7-1.4.1-.7.1-1.4.4-.7.4-1.4.4-.7.4-1.4-.8-.7-.8-1.4.2-.7.2-1.4,0-.7,0-1.4.3-.7.3-1.4,0-.7,0-1.4-.2-.7-.2-1.4.5-.7.5-1.4-.3-.7-.3-1.4-.1-.7-.1-1.4.4-.7.4-1.4-.2-.7-.2-1.4-.5-.7-.5-1.4.7-.7.7-1.4,0-.7,0-1.4-.8-.7-.8-1.4.6-.7.6-1.4,0-.7,0-1.4-.5-.7-.5-1.4.7-.7.7-1.4-.3-.7-.3-1.4-.2-.7-.2-1.4.2-.7.2-1.4-.4-.7-.4-1.4.1-.7.1-1.4.6-.7.6-1.4-.9-.7-.9-1.4.4-.7.4-1.4,0-.7,0-1.4.5-.7.5-1.4-.5-.7-.5-1.4.5-.7.5-1.4,0-.7,0-1.4,0-.7,0-1.4-.7-.7-.7-1.4,0-.7,0-1.4.6-.7.6-1.4-.6-.7-.6-1.4.6-.7.6-1.4-.6-.7-.6-1.4.3-.7.3-1.4-.4-.7-.4-1.4.8-.7.8-1.4-.9-.7-.9-1.4,0-.7,0-1.4.5-.7.5-1.4,0-.7,0-1.4.3-.7.3-1.4-.4-.7-.4-1.4-.3-.7-.3-1.4,0-.7,0-1.4.3-.7.3-1.4.4-.7.4-1.4-.7-.7-.7-1.4,0-.7,0-1.4-.1-.7-.1-1.4.5-.7.5-1.4-.5-.7-.5-1.4.1-.7.1-1.4,0-.7,0-1.4.2-.7.2-1.4,0-.7,0-1.4,0-.7,0-1.4.8-.7.8-1.4-.4-.7-.4-1.4.3-.7.3-1.4-.2-.7-.2-1.4-.4-.7-.4-1.4.2-.7.2-1.4.2-.7.2-1.4-.4-.7-.4-1.4,0-.7,0-1.4-.2-.7-.2-1.4.6-.7.6-1.4,0-.7,0-1.4-.7-.7-.7-1.4,0-.7,0-1.4.2-.7.2-1.4,0-.7,0-1.4,0-.7,0-1.4-.3-.7-.3-1.4.2-.7.2-1.4-.4-.7-.4-1.4.6-.7.6-1.4,0-.7,0-1.4-.2-.7-.2-1.4,0-.7,0-1.4.6-.7.6-1.4-.7-.7-.7-1.4.4-.7.4-1.4,0-.7,0-1.4.3-.7.3-1.4-.8-.7-.8-1.4.1-.7.1-1.4.7-.7.7-1.4-.7-.7-.7-1.4,0-.7,0-1.4.1-.5.3-.7C403.2,45,354.1,15.6,298.3,4.7c0,0,0,0,0,0,0,.7-.2.7-.2,1.4s-.2.7-.2,1.4.3.7.3,1.4-.3.7-.3,1.4.6.7.6,1.4.2.7.2,1.4-.5.7-.5,1.4.5.7.5,1.4-.9.7-.9,1.4.2.7.2,1.4.5.7.5,1.4-.7.7-.7,1.4.3.7.3,1.4,0,.7,0,1.4-.4.7-.4,1.4.2.7.2,1.4.1.7.1,1.4,0,.7,0,1.4.6.7.6,1.4-.2.7-.2,1.4-.6.7-.6,1.4.5.7.5,1.4-.2.7-.2,1.4-.2.7-.2,1.4.5.7.5,1.4-.4.7-.4,1.4,0,.7,0,1.4,0,.7,0,1.4.2.7.2,1.4-.4.7-.4,1.4.7.7.7,1.4-.3.7-.3,1.4,0,.7,0,1.4-.4.7-.4,1.4.5.7.5,1.4-.3.7-.3,1.4.6.7.6,1.4,0,.7,0,1.4-.8.7-.8,1.4.3.7.3,1.4-.2.7-.2,1.4.3.7.3,1.4-.5.7-.5,1.4.1.7.1,1.4.3.7.3,1.4-.3.7-.3,1.4.6.7.6,1.4-.6.7-.6,1.4.2.7.2,1.4.5.7.5,1.4,0,.7,0,1.4,0,.7,0,1.4.3.7.3,1.4-.3.7-.3,1.4-.6.7-.6,1.4.2.7.2,1.4.3.7.3,1.4-.4.7-.4,1.4.7.7.7,1.4-.7.7-.7,1.4.1.7.1,1.4,0,.7,0,1.4.3.7.3,1.4-.6.7-.6,1.4,0,.7,0,1.4.3.7.3,1.4.3.7.3,1.4,0,.7,0,1.4-.3.7-.3,1.4-.2.7-.2,1.4.5.7.5,1.4-.4.7-.4,1.4.2.7.2,1.4.5.7.5,1.4-.3.7-.3,1.4-.4.7-.4,1.4.2.7.2,1.4,0,.7,0,1.4,0,.7,0,1.4.3.7.3,1.4-.5.7-.5,1.4.5.7.5,1.4-.5.7-.5,1.4.5.7.5,1.4,0,.7,0,1.4-.1.7-.1,1.4,0,.7,0,1.4-.4.7-.4,1.4.5.7.5,1.4-.3.7-.3,1.4,0,.7,0,1.4.4.7.4,1.4,0,.7,0,1.4-.5.7-.5,1.4.8.7.8,1.4,0,.7,0,1.5-.6.7-.6,1.4.2.7.2,1.5-.5.7-.5,1.5.4.7.4,1.5.4,1,.4,1.5c0,.2-.1.4-.1.6s0,.4,0,.5c0,.5,0,1,0,1.5s-.4.7-.4,1.4.4.7.4,1.4,0,.7,0,1.4-.3.7-.3,1.4.1.7.1,1.4,0,.7,0,1.4-.2.7-.2,1.4.5.7.5,1.4-.6.7-.6,1.4.3.7.3,1.4-.2.7-.2,1.4.7.7.7,1.4-.4.7-.4,1.4,0,.7,0,1.4.5.7.5,1.4-.6.7-.6,1.4.5.7.5,1.4-.4.7-.4,1.4.1.7.1,1.4.3.7.3,1.4-.7.7-.7,1.4.4.7.4,1.4-.2.7-.2,1.4-.1.7-.1,1.4.2.7.2,1.4.5.7.5,1.4-.7.7-.7,1.4.3.7.3,1.4,0,.7,0,1.4-.4.7-.4,1.4.3.7.3,1.4.3.7.3,1.4-.6.7-.6,1.4,0,.7,0,1.4,0,.7,0,1.4.2.7.2,1.4,0,.7,0,1.4-.3.7-.3,1.4.7.7.7,1.4-.2.7-.2,1.4-.5.7-.5,1.4.4.7.4,1.4,0,.7,0,1.4.4.7.4,1.4-.8.7-.8,1.4.5.7.5,1.4-.3.7-.3,1.4.1.7.1,1.4.3.7.3,1.4,0,.7,0,1.4-.2.7-.2,1.4,0,.7,0,1.4-.2.7-.2,1.4.5.7.5,1.4-.2.7-.2,1.4-.1.7-.1,1.4-.4.7-.4,1.4,0,.7,0,1.4.3.7.3,1.4.2.7.2,1.4,0,.7,0,1.4,0,.7,0,1.4-.3.7-.3,1.4-.3.7-.3,1.4.5.7.5,1.4-.2.7-.2,1.4-.3.7-.3,1.4.2.7.2,1.4-.3.7-.3,1.4.9.7.9,1.4-.4.7-.4,1.4.1.7.1,1.4-.2.7-.2,1.4.4.7.4,1.4,0,.7,0,1.4-.7.7-.7,1.4.6.7.6,1.4-.6.7-.6,1.4,0,.7,0,1.4.3.7.3,1.4-.2.7-.2,1.4-.2.7-.2,1.4,0,.7,0,1.4.3.7.3,1.4.1.7.1,1.4,0,.7,0,1.4.1.7.1,1.4-.2.7-.2,1.4-.5.7-.5,1.4.4.7.4,1.4.4.7.4,1.4,0,.7,0,1.4-.5.9-.5,1.4c0,.5.4.9.5,1.3,0,.5-.4,1-.4,1.5,0,.5.4,1.1.2,1.6-.2.5-.9.6-1.3,1-.3.4-.4,1.1-.8,1.4-.6.4-.9,0-1.5.3-.6.4-.5.6-1.1,1-.6.4-.6.3-1.3.7s-.8,0-1.4.4c-.6.4-.6.4-1.2.8-.6.4-.5.6-1.1,1s-.7.2-1.3.5c-.6.4-.5.6-1.1,1-.6.4-.8.1-1.4.5-.6.4-.6.4-1.2.8-.6.4-.7.3-1.3.7-.6.4-.6.3-1.3.7-.6.4-.6.4-1.2.8-.6.4-.6.5-1.2.8-.6.4-.4.7-1,1.1-.6.4-.6.5-1.2.8-.6.4-.9-.1-1.5.3s-.4.8-1,1.2c-.6.4-.7.2-1.4.5-.6.4-.6.4-1.2.8-.6.4-.5.6-1.1,1-.6.4-.9-.1-1.5.2-.6.4-.8.1-1.4.5-.6.4-.3.9-.9,1.2-.6.4-.6.3-1.3.7-.6.4-.5.5-1.1.9s-1-.2-1.6.2c-.6.4-.4.7-1,1.1-.6.4-.8.1-1.4.5-.6.4-.4.7-1,1.1-.6.4-.8.1-1.4.5-.6.4-.5.6-1.1,1-.6.4-.8,0-1.4.5-.6.4-.7.3-1.3.7-.6.4-.4.8-1,1.1-.6.4-.5.6-1.1,1s-.9,0-1.5.3c-.6.4-.6.4-1.2.7-.6.4-.5.5-1.2.9s-.4.7-1,1.1-.6.4-1.2.8c-.6.4-1-.2-1.6.2-.6.4-.3.8-1,1.2-.6.4-.8,0-1.5.4-.6.4-.6.4-1.2.8-.6.4-.8.1-1.4.5-.6.4-.5.6-1.1,1s-.4.7-1,1.1-.7.2-1.3.6-.4.7-1,1.1c-.6.4-.7.2-1.4.5-.6.4-.8.1-1.4.5-.6.4-.5.5-1.1.9-.6.4-.5.6-1.1,1s-.6.4-1.2.8c-.6.4-1.1-.4-1.7,0-.6.4-.3.9-.9,1.3-.6.4-.5.6-1.1.9-.6.4-.9-.1-1.5.2-.6.4-.6.5-1.2.8-.6.4-.4.8-1,1.2s-.7.3-1.3.7c-.6.4-.9-.1-1.5.2-.6.4-.7.2-1.4.5-.6.4-.2,1-.9,1.4-.6.4-.8,0-1.4.4s-.4.8-1,1.2c-.6.4-.9,0-1.5.3-.6.4-.5.5-1.1.9-.6.4-.7.2-1.4.5-.6.4-.6.5-1.2.8-.6.4-.8,0-1.4.4-.6.4-.4.7-1,1.1-.6.4-.5.6-1.1,1-.6.4-.9-.2-1.6.2-.6.4-.4.7-1,1.1-.6.4-.6.4-1.2.8-.6.4-.6.4-1.2.8-.6.4-.9,0-1.5.3-.6.4-.6.3-1.3.7s-.4.7-1,1.1c-.6.4-.5.5-1.1.9-.6.4-.8,0-1.5.4-.6.4-.6.4-1.2.7-.6.4-.5.5-1.2.9-.6.4-.7.3-1.3.7-.6.4-.6.4-1.2.8-.6.4-.5.6-1.1.9-.6.4-.8.1-1.4.5-.6.4-.4.8-1,1.1-.6.4-.8,0-1.4.5-.6.4-.6.4-1.2.7-.6.4-.8,0-1.4.4-.6.4-.6.5-1.2.8-.6.4-.7.3-1.3.7-.6.4-.3.9-.9,1.2-.6.4-.7.2-1.4.6-.6.4-.8,0-1.4.4-.6.4-.3,1-.9,1.3-.6.4-.8,0-1.5.4-.6.4-.4.7-1,1.1-.4.2-.8.4-1.2.7-.4.3-.6.7-1,1-.3.3-.8.5-1.1.8-.3.3-.9.5-1.1.9-.3.4-.3.9-.5,1.3-.2.4-.9.6-1.1,1-.2.4.2,1.1,0,1.5-.2.4-.8.7-.9,1.1-.1.4-.1.9-.2,1.4,0,.5-.5.9-.6,1.3,0,.5.7,1,.6,1.4,0,.5-.1.9,0,1.4,0,.5.3.9.3,1.3,0,.5,0,.9.2,1.4.1.5,0,1,.2,1.4.2.4.2,1,.4,1.4.2.4,1,.5,1.2.9.2.4-.1,1.2.2,1.6.3.4.9.5,1.2.8.3.3.9.4,1.2.7.3.3.2,1.2.6,1.5.4.3,1,.2,1.4.4.4.2.6.8,1.1,1,.4.2.8.5,1.3.6.4.2.9.4,1.3.5.4.1,1,0,1.4.2.5,0,1-.2,1.4-.2.5,0,.9.1,1.4.1.7,0,.7,0,1.4,0s.7,0,1.4,0,.7.2,1.4.2.7.5,1.4.5.7-.8,1.4-.8.7.7,1.4.7.7-.7,1.4-.7.7.2,1.4.2.7.3,1.4.3.7-.5,1.4-.5.7.6,1.4.6.7.1,1.4.1.7-.5,1.4-.5.7.3,1.4.3.7.1,1.4.1.7-.1,1.4-.1.7-.4,1.4-.4.7,0,1.4,0,.7.4,1.4.4.7-.1,1.4-.1.7.2,1.4.2.7.3,1.4.3.7-.8,1.4-.8.7.4,1.4.4.7-.3,1.4-.3.7.3,1.4.3.7.4,1.4.4.7,0,1.4,0,.7,0,1.4,0,.7-.2,1.4-.2.7-.5,1.4-.5.7,0,1.4,0,.7-.1,1.4-.1.7.2,1.4.2.7.5,1.4.5.7,0,1.4,0,.7-.6,1.4-.6.7.4,1.4.4.7-.1,1.4-.1.7-.4,1.4-.4.7.8,1.4.8.7-.4,1.4-.4.7-.3,1.4-.3.7.6,1.4.6.7,0,1.4,0,.7-.2,1.4-.2.7,0,1.4,0,.7.4,1.4.4.7,0,1.4,0,.7-.4,1.4-.4.7-.1,1.4-.1.7.4,1.4.4.7-.3,1.4-.3.7,0,1.5,0,.7.5,1.5.5.9-.6,1.3-.6c.4,0,.9,0,1.3-.1.4,0,1,.3,1.4.2.4-.1.9-.2,1.3-.3.4-.2.8-.6,1.2-.7.4-.2.9-.2,1.3-.5.6-.4.3-1,.9-1.4.6-.4,1,.3,1.6,0,.6-.4.3-1,.9-1.4.6-.4.8-.1,1.4-.5.6-.4.7-.2,1.3-.6.6-.4.5-.6,1.1-1,.6-.4.6-.5,1.2-.8.6-.4.9,0,1.5-.3.6-.4.7-.3,1.3-.6s.4-.7,1.1-1c.6-.4.4-.7,1-1.1.6-.4.7-.3,1.3-.6.6-.4.8,0,1.5-.4.6-.4.6-.5,1.2-.8.6-.4.5-.6,1.1-1,.6-.4,1,.3,1.6,0,.6-.4.3-1,.9-1.3.6-.4.6-.4,1.2-.8.6-.4.6-.3,1.3-.7.6-.4.7-.2,1.3-.6.6-.4.6-.4,1.2-.7.6-.4.7-.3,1.3-.6.6-.4.6-.3,1.3-.7.6-.4.5-.6,1.1-1,.6-.4.6-.4,1.2-.7.6-.4.9.1,1.5-.2.6-.4.7-.3,1.3-.7.6-.4.7-.3,1.3-.6.6-.4.6-.5,1.2-.8.6-.4.7-.3,1.3-.7.6-.4.6-.5,1.2-.8.6-.4.7-.3,1.3-.7.6-.4.3-.9.9-1.2s.8-.1,1.4-.5c.6-.4.6-.3,1.3-.7.6-.4.4-.8,1-1.2.6-.4,1,.4,1.7,0,.6-.4.4-.8,1-1.1s.5-.6,1.1-1c.6-.4.6-.4,1.2-.8.6-.4.6-.4,1.2-.8.6-.4.7-.2,1.3-.6.6-.4.6-.4,1.2-.8.6-.4.9,0,1.5-.3.6-.4.4-.8,1-1.2.6-.4.8,0,1.4-.4.6-.4.8,0,1.4-.5.6-.4.5-.5,1.2-.9.6-.4.4-.7,1-1.1.6-.4.9,0,1.5-.3.6-.4.4-.7,1.1-1.1.6-.4.9,0,1.5-.3.6-.4.6-.4,1.2-.8.6-.4.6-.5,1.2-.8.6-.4.4-.7,1-1.1.6-.4.8,0,1.4-.4.6-.4.7-.2,1.3-.6.6-.4.5-.6,1.1-1,.6-.4.8,0,1.5-.4.6-.4.2-1,.9-1.4.6-.4.8-.1,1.4-.5.6-.4.8,0,1.4-.4.6-.4.6-.4,1.3-.7.6-.4.3-.9.9-1.3s.6-.5,1.2-.8c.6-.4.6-.3,1.3-.7.6-.4,1,.2,1.6-.1.6-.4.4-.7,1.1-1.1.6-.4.5-.5,1.2-.9.6-.4.8,0,1.4-.4.6-.4.4-.7,1.1-1.1.6-.4.9.2,1.6-.2.6-.4.3-.9.9-1.3.4-.2.9-.3,1.3-.6.4-.3.8-.6,1.1-.9.4-.3.9-.4,1.3-.7.3-.3.3-1,.6-1.4.3-.4.5-.8.7-1.2.3-.4.9-.6,1.1-1,.2-.4,0-1,.3-1.4.2-.4.4-.8.5-1.3.1-.5.4-.9.5-1.3,0-.5-.2-1-.1-1.4,0-.5.4-.9.4-1.4,0-.7-.3-.7-.3-1.4s0-.7,0-1.4.5-.7.5-1.4.2-.7.2-1.4-.1-.7-.1-1.4.1-.7.1-1.4-.7-.7-.7-1.4.6-.7.6-1.4-.4-.7-.4-1.4,0-.7,0-1.4.2-.7.2-1.4-.1-.7-.1-1.4,0-.7,0-1.4,0-.7,0-1.4.1-.7.1-1.4.2-.7.2-1.4.1-.7.1-1.4-.3-.7-.3-1.4.3-.7.3-1.4,0-.7,0-1.4-.3-.7-.3-1.4-.4-.7-.4-1.4-.2-.7-.2-1.4.1-.7.1-1.4.1-.7.1-1.4,0-.7,0-1.4.5-.7.5-1.4,0-.7,0-1.4,0-.7,0-1.4-.4-.7-.4-1.4.3-.7.3-1.4.2-.7.2-1.4-.8-.7-.8-1.4.2-.7.2-1.4,0-.7,0-1.4.3-.7.3-1.4.2-.7.2-1.4-.7-.7-.7-1.4.7-.7.7-1.4,0-.7,0-1.4-.8-.7-.8-1.4.2-.7.2-1.4.3-.7.3-1.4-.4-.7-.4-1.4.7-.7.7-1.4-.4-.7-.4-1.4-.3-.7-.3-1.4,0-.7,0-1.4.5-.7.5-1.4-.2-.7-.2-1.4.3-.7.3-1.4-.3-.7-.3-1.4-.3-.7-.3-1.4.3-.7.3-1.4,0-.7,0-1.4.4-.7.4-1.4-.4-.7-.4-1.4.4-.7.4-1.4-.5-.7-.5-1.4.2-.7.2-1.4.2-.7.2-1.4-.4-.7-.4-1.4.3-.7.3-1.4-.3-.7-.3-1.4,0-.7,0-1.4.8-.7.8-1.4-.4-.7-.4-1.4.5-.7.5-1.4-.2-.7-.2-1.4-.3-.7-.3-1.4-.2-.7-.2-1.4.1-.7.1-1.4-.1-.7-.1-1.4.3-.7.3-1.4-.3-.7-.3-1.4.4-.7.4-1.4-.3-.7-.3-1.4,0-.7,0-1.4.5-.7.5-1.4-.6-.7-.6-1.4.4-.7.4-1.4.3-.7.3-1.4-.3-.7-.3-1.4,0-.7,0-1.4-.2-.7-.2-1.4-.4-.7-.4-1.4.5-.7.5-1.4,0-.7,0-1.4.5-.7.5-1.4-.9-.7-.9-1.4.1-.7.1-1.4.1-.7.1-1.4,0-.7,0-1.4,0-.7,0-1.4,0-.7,0-1.4.5-.7.5-1.4-.4-.7-.4-1.4-.1-.7-.1-1.4.7-.7.7-1.4-.8-.7-.8-1.4.8-.7.8-1.4-.8-.7-.8-1.4,0-.7,0-1.4.5-.7.5-1.4-.6-.7-.6-1.4.7-.7.7-1.4-.8-.7-.8-1.4.6-.7.6-1.4,0-.7,0-1.4-.2-.7-.2-1.4.3-.7.3-1.4.3-.7.3-1.4,0-.7,0-1.4-.8-.7-.8-1.4.9-.7.9-1.4-.3-.7-.3-1.4-.6-.7-.6-1.4.6-.7.6-1.4-.4-.7-.4-1.4.5-.7.5-1.4-.5-.7-.5-1.4,0-.7,0-1.4.7-.7.7-1.4-.9-.7-.9-1.4.2-.7.2-1.4,0-.7,0-1.4.6-.7.6-1.4-.3-.7-.3-1.4.5-.7.5-1.4-.4-.7-.4-1.4.3-.7.3-1.4-.7-.7-.7-1.4.4-.7.4-1.4.3-.7.3-1.4-.5-.7-.5-1.4.3-.7.3-1.4,0-.7,0-1.4.1-.7.1-1.4-.4-.7-.4-1.4-.4-.7-.4-1.4.4-.7.4-1.4.4-.7.4-1.4-.7-.7-.7-1.4-.2-.7-.2-1.4.6-.7.6-1.4,0-.7,0-1.4-.6-.7-.6-1.4.7-.7.7-1.5-.2-.7-.2-1.4-.2-.7-.2-1.5-.4-.7-.4-1.5.2-.7.2-1.5.5-1,.7-1.5c.2-.5-.2-1.3.1-1.7.3-.4.9-.8,1.3-1.1.4-.3,1.1-.3,1.6-.4.5-.2,1-.5,1.5-.5s1,.6,1.4.8c.5.2,1.1,0,1.5.4.4.3.8.7,1.1,1.1.3.4.3,1,.5,1.5.2.5.6.9.6,1.5s-.1.7-.1,1.4-.5.7-.5,1.4,0,.7,0,1.4.6.7.6,1.4-.1.7-.1,1.4-.4.7-.4,1.4.4.7.4,1.4-.2.7-.2,1.4,0,.7,0,1.4.3.7.3,1.4-.5.7-.5,1.4.2.7.2,1.4.5.7.5,1.4-.8.7-.8,1.4.2.7.2,1.4.1.7.1,1.4,0,.7,0,1.4,0,.7,0,1.4.3.7.3,1.4.4.7.4,1.4-.4.7-.4,1.4,0,.7,0,1.4-.2.7-.2,1.4-.2.7-.2,1.4.8.7.8,1.4-.6.7-.6,1.4.3.7.3,1.4,0,.7,0,1.4-.2.7-.2,1.4.2.7.2,1.4,0,.7,0,1.4-.2.7-.2,1.4-.2.7-.2,1.4,0,.7,0,1.4.3.7.3,1.4,0,.7,0,1.4.7.7.7,1.4-.1.7-.1,1.4-.5.7-.5,1.4.3.7.3,1.4-.5.7-.5,1.4.5.7.5,1.4-.3.7-.3,1.4.4.7.4,1.4-.5.7-.5,1.4.3.7.3,1.4-.3.7-.3,1.4,0,.7,0,1.4-.2.7-.2,1.4.3.7.3,1.4,0,.7,0,1.4.3.7.3,1.4-.1.7-.1,1.4-.3.7-.3,1.4,0,.7,0,1.4-.2.7-.2,1.4.3.7.3,1.4-.3.7-.3,1.4,0,.7,0,1.4,0,.7,0,1.4.5.7.5,1.4-.2.7-.2,1.4-.4.7-.4,1.4.7.7.7,1.4-.4.7-.4,1.4,0,.7,0,1.4-.3.7-.3,1.4.1.7.1,1.4,0,.7,0,1.4.4.7.4,1.4,0,.7,0,1.4-.6.7-.6,1.4.6.7.6,1.4-.5.7-.5,1.4.5.7.5,1.4.1.7.1,1.4-.5.7-.5,1.4.4.7.4,1.4.3.7.3,1.4-.4.7-.4,1.4-.3.7-.3,1.4,0,.7,0,1.4,0,.7,0,1.4.3.7.3,1.4.2.7.2,1.4-.3.7-.3,1.4.3.7.3,1.4.2.7.2,1.4-.7.7-.7,1.4.7.7.7,1.4,0,.7,0,1.4-.6.7-.6,1.4.3.7.3,1.4.2.7.2,1.4.2.7.2,1.4-.5.7-.5,1.4-.3.7-.3,1.4.2.7.2,1.4-.2.7-.2,1.4,0,.7,0,1.4,0,.7,0,1.4.7.7.7,1.4-.8.7-.8,1.4.9.7.9,1.4-.8.7-.8,1.4.2.7.2,1.4-.3.7-.3,1.4.3.7.3,1.4.6.7.6,1.4,0,.7,0,1.4-.1.7-.1,1.4-.6.7-.6,1.4,0,.7,0,1.4,0,.7,0,1.4.6.7.6,1.4-.6.7-.6,1.4.4.7.4,1.4.3.7.3,1.4-.8.7-.8,1.4.3.7.3,1.4.4.7.4,1.4-.3.7-.3,1.4-.1.7-.1,1.4,0,.7,0,1.4-.2.7-.2,1.4.1.7.1,1.4-.2.7-.2,1.4.1.7.1,1.4.2.7.2,1.4.3.7.3,1.4-.5.7-.5,1.4.3.7.3,1.4-.4.7-.4,1.4.2.7.2,1.4-.3.7-.3,1.5.8.7.8,1.5-.6,1-.6,1.5c0,.5,0,1,0,1.5,0,.5.4.9.5,1.4.1.5.9.7,1,1.1.2.4,0,1,.2,1.5.2.4.7.7,1,1.1.3.4.3,1,.6,1.3.3.4.5.8.8,1.2.3.3.9.4,1.3.7.4.3.5.9.9,1.2.4.3,1,.2,1.4.5.5.3.7.9,1.2,1.1.5.2,1,.4,1.5.6.5.2,1.1,0,1.6.2.5.1,1.1,0,1.6,0,.5,0,1,.5,1.5.5s.9-.6,1.3-.6c.4,0,.9.4,1.4.3.4,0,.9-.2,1.3-.3.4-.1.7-.7,1.1-.8.4-.2,1,.2,1.4,0,.4-.2.9-.3,1.2-.5.6-.4.7-.3,1.3-.6.6-.4.3-.9.9-1.2.6-.4.5-.5,1.1-.9.6-.4.6-.3,1.2-.7.6-.4.6-.4,1.2-.7.6-.4,1,.3,1.6,0,.6-.4.3-.9.9-1.2.4-.2.8-.7,1.2-.8.4-.1,1,.1,1.4.1s1,.4,1.5.5c.5.2.8.5,1.2.8.4.3.9.4,1.2.9.2.3.9.7,1,1.3,0,.5,0,1.1,0,1.6,0,.5,0,1.1,0,1.6-.1.6-.4,1.3-.7,1.6-.4.5-1.4.5-2,.8-.6.4-.4.8-1,1.2-.6.4-.7.2-1.4.5-.6.4-.5.5-1.1.9-.6.4-.8,0-1.4.4-.6.4-.3.9-.9,1.3-.6.4-.8,0-1.4.5-.6.4-.8,0-1.4.4-.6.4-.7.3-1.3.6-.6.4-.7.3-1.3.7-.6.4-.6.5-1.2.8s-.6.4-1.2.8c-.6.4-.6.5-1.2.8-.6.4-.8.1-1.4.5-.6.4-.4.8-1,1.2s-.8,0-1.4.5c-.6.4-.5.6-1.1.9s-.7.2-1.3.6c-.6.4-.4.7-1,1.1-.6.4-.5.5-1.1.9-.6.4-.9-.2-1.6.2-.6.4-.6.4-1.2.8-.6.4-.8.1-1.4.5-.6.4-.5.5-1.2.9-.6.4-.4.7-1.1,1-.6.4-.6.4-1.2.8-.6.4-.8,0-1.4.4-.6.4-.4.7-1.1,1.1-.6.4-.9-.1-1.5.3-.6.4-.4.8-1,1.2-.6.4-.8,0-1.4.5-.6.4-.7.3-1.3.7-.6.4-.3.9-.9,1.2s-.8,0-1.4.4c-.6.4-.4.7-1,1.1-.6.4-1-.3-1.6,0-.6.4-.5.5-1.1.9-.6.4-.3.9-.9,1.2s-.8,0-1.4.4c-.6.4-.8,0-1.5.3-.6.4-.3.9-.9,1.2-.6.4-.9-.1-1.5.2-.6.4-.3,1-.9,1.3-.6.4-.5.5-1.2.9-.6.4-1-.3-1.7,0-.6.4-.3.9-.9,1.3-.6.4-.9-.2-1.6.2-.6.4-.3.9-1,1.2q-.6.4-1.2.7c-.6.4-.9-.2-1.6.2-.6.4-.6.3-1.3.7s-.4.7-1,1.1c-.6.4-.4.7-1.1,1-.6.4-.6.5-1.2.8-.6.4-.8,0-1.4.4-.6.4-.7.3-1.3.7-.6.4-.8,0-1.4.4-.6.4-.5.6-1.1,1-.6.4-.6.4-1.2.8-.6.4-.7.3-1.3.7s-.6.4-1.2.8c-.6.4-.6.4-1.2.8-.6.4-.7.2-1.3.6s-.5.6-1.1,1c-.6.4-.5.5-1.2.9-.6.4-1-.3-1.6.1-.6.4-.6.5-1.2.8-.6.4-.3.9-.9,1.3-.6.4-.8,0-1.5.4-.6.4-.7.3-1.3.7-.6.4-.5.6-1.1,1-.6.4-.6.4-1.2.8-.6.4-.9-.1-1.5.2s-.2,1-.9,1.4c-.6.4-.9,0-1.5.3-.6.4-.4.7-1,1.1-.6.4-.9-.1-1.5.2-.6.4-.5.5-1.1.9-.6.4-.6.5-1.2.8-.6.4-.8.1-1.4.5-.6.4-.8.1-1.4.5s-.2,1-.9,1.4c-.6.4-1-.3-1.6,0-.6.4-.3,1-.9,1.3-.6.4-.8,0-1.4.5-.6.4-.4.8-1,1.1-.6.4-.8,0-1.4.4-.6.4-.4.7-1,1.1-.6.4-.9,0-1.5.3s-.7.2-1.3.6c-.6.4-.6.3-1.3.7-.6.4-.5.6-1.1,1-.6.4-.6.4-1.2.8-.6.4-.8,0-1.4.4-.6.4-.3.9-.9,1.3-.6.4-.6.4-1.2.8-.6.4-.8,0-1.5.4-.6.4-.4.7-1,1.1q-.6.4-1.2.7c-.6.4-.7.2-1.4.5-.6.4-.5.6-1.1.9-.6.4-1.1-.4-1.7,0-.6.4-.3.9-.9,1.3-.6.4-.6.4-1.2.8-.6.4-.9,0-1.5.3-.6.4-.7.3-1.3.7s-.7.2-1.3.6c-.6.4-.4.7-1.1,1-.6.4-.8,0-1.4.4-.6.4-.6.4-1.2.8-.6.4-.3.9-.9,1.3-.6.4-.7.2-1.3.6-.6.4-.5.6-1.1,1-.6.4-.8.1-1.4.5s-.7.2-1.3.6c-.5.3-.9.6-1.4.9-.4.3-.9.6-1.4.7-.5.2-1,.2-1.6.2s-.7.2-1.4.2-.7-.3-1.4-.3-.7.5-1.4.5-.7-.2-1.4-.2-.7.4-1.4.4-.7-.8-1.4-.8-.7.3-1.4.3-.7.4-1.4.4-.7-.3-1.4-.3-.7,0-1.4,0-.7,0-1.4,0-.7,0-1.4,0-.7-.5-1.4-.5-.7.3-1.4.3-.7.3-1.4.3-.7-.5-1.4-.5-.7.9-1.4.9-.7-.6-1.4-.6-.7-.3-1.4-.3-.7.4-1.4.4-.7.5-1.4.5-.7-.6-1.4-.6-.7,0-1.4,0-.7-.1-1.4-.1-.7,0-1.4,0-.7.6-1.4.6-.7-.9-1.4-.9-.7.3-1.4.3-.7,0-1.4,0-.7.2-1.4.2-.7-.3-1.4-.3-.7.5-1.4.5-.7-.6-1.4-.6-.7.2-1.4.2-.7.6-1.4.6-.7-.8-1.4-.8-.7,0-1.4,0-.7.6-1.4.6-.7.2-1.4.2-.7-.4-1.4-.4-.7.5-1.4.5-.7-.3-1.4-.3-.7-.2-1.4-.2-.7,0-1.4,0-.7.4-1.4.4-.7,0-1.4,0-.7.1-1.4.1-.7-.7-1.4-.7-.7-.2-1.4-.2-.7.6-1.4.6-.7,0-1.4,0-.7-.3-1.4-.3-.7-.2-1.4-.2-.7.6-1.4.6-.7,0-1.4,0-.7,0-1.4,0-.7-.3-1.4-.3-.7,0-1.4,0-.7-.3-1.4-.3-.7.8-1.4.8-.7-.4-1.4-.4-.7,0-1.4,0-.7.1-1.4.1-.7-.2-1.4-.2-.7.4-1.4.4-.7-.2-1.4-.2-.7,0-1.4,0-.7-.2-1.4-.2-.7.4-1.4.4-.7,0-1.4,0-.7-.6-1.4-.6-.7.8-1.4.8-.7-.5-1.4-.5-.7-.1-1.4-.1-.7,0-1.4,0-.7.6-1.4.6-.7,0-1.4,0-.7-.2-1.4-.2-.7-.4-1.4-.4-.7.7-1.4.7-.7-.7-1.4-.7-.7.3-1.4.3-.7,0-1.4,0-.7,0-1.4,0-.7.2-1.4.2-.7-.5-1.4-.5-.7.5-1.4.5-.7-.1-1.4-.1-.7-.4-1.4-.4-.7,0-1.4,0-.7.2-1.4.2-.7.4-1.4.4-.7,0-1.4,0-.7,0-1.4,0-.7-.5-1.4-.5c-.7,0-.7.2-1.4.2s-.7,0-1.4,0-.7-.3-1.4-.3-.7.4-1.4.4-.7-.3-1.4-.3-.7,0-1.4,0-.7.3-1.4.3-.7-.2-1.4-.2-.7,0-1.4,0-.7,0-1.4,0-.7-.2-1.4-.2-.7.5-1.4.5-.7-.2-1.4-.2-.7,0-1.4,0-.7,0-1.4,0-.7-.3-1.4-.3-.7.8-1.4.8-.7-.3-1.4-.3-.7-.2-1.4-.2-.7.2-1.4.2-.7-.2-1.4-.2-.7-.2-1.4-.2-.7.6-1.4.6-.7-.2-1.4-.2-.7-.3-1.4-.3-.7-.1-1.4-.1-.7.4-1.4.4-.7,0-1.4,0-.7-.1-1.4-.1-.7-.1-1.4-.1-.7.6-1.4.6-.7,0-1.4,0-.7-.6-1.4-.6-.7.4-1.4.4-.7-.6-1.4-.6-.7.7-1.4.7-.7-.5-1.4-.5-.7.5-1.4.5-.7-.4-1.4-.4-.7,0-1.4,0-.7,0-1.4,0-.7.2-1.4.2-.7-.1-1.4-.1-.7.4-1.4.4-.7-.3-1.4-.3-.7.2-1.4.2-.7,0-1.4,0-.7,0-1.4,0-.7.3-1.4.3-.7-.1-1.4-.1-.2,0-.3,0c45.8,57.2,116.2,93.8,195.2,93.8s142.9-33.3,188.7-86c0,0,0-.1,0-.2Z"/>
  <path class="cls-1" d="M47.9,396.3c.7,0,.7-.5,1.4-.5s.7.2,1.4.2.7-.4,1.4-.4.7.8,1.4.8.7-.4,1.4-.4.7.3,1.4.3.7,0,1.4,0,.7-.2,1.5-.2.7-.1,1.4-.1.7-.5,1.4-.5.7.1,1.4.1.7,0,1.4,0,.7,0,1.4,0,.7-.2,1.5-.2.7.3,1.5.3.7.2,1.4.2.7-.4,1.4-.4.7.4,1.4.4.7.4,1.5.4.7-.7,1.5-.7.7.3,1.5.3.7.5,1.5.5.7-.6,1.5-.6.7.2,1.5.2.7-.4,1.5-.4.7.1,1.5.1.7-.2,1.5-.2.7.5,1.4.5.7-.5,1.4-.5.7.4,1.5.4.7.3,1.5.3.7,0,1.5,0,.7-.3,1.5-.3.7-.3,1.5-.3.7.5,1.5.5.7-.3,1.5-.3.7.3,1.5.3.9.2,1.4.1c.5,0,.8-.7,1.3-.8.4,0,1,.5,1.5.3.4-.1.9-.2,1.3-.4.4-.2.6-.8,1.1-1,.4-.2.8-.3,1.2-.6.6-.4.5-.6,1.1-1,.6-.4,1,.2,1.6-.1.6-.4.2-1.1.8-1.5.6-.4,1,.2,1.6-.2.6-.4.6-.4,1.2-.8.6-.4.4-.8,1-1.1s.5-.5,1.1-.9.7-.3,1.3-.6c.6-.4,1,.2,1.6-.2s.3-.9.9-1.3c.6-.4,1,.2,1.6-.2.6-.4.6-.3,1.3-.7.6-.4.2-1.1.8-1.5.6-.4.7-.2,1.3-.6.6-.4,1,.2,1.6-.1.6-.4.2-1.1.8-1.4.6-.4.9.2,1.6-.2q.6-.4,1.2-.7c.6-.4.5-.6,1.1-1,.6-.4.4-.7,1.1-1,.6-.4.8,0,1.4-.4.6-.4.8,0,1.4-.4.6-.4.3-.9.9-1.2.6-.4.6-.4,1.2-.8.6-.4.7-.3,1.3-.7.6-.4.5-.6,1.1-.9.6-.4,1,.3,1.6,0,.6-.4.5-.6,1.1-.9.6-.4.3-.9.9-1.3.6-.4,1,.3,1.6,0,.6-.4.4-.7,1-1.1.6-.4.8,0,1.4-.4.6-.4.4-.7,1-1.1.6-.4.7-.2,1.3-.6.6-.4.4-.6,1.1-1,.6-.4.6-.5,1.2-.8.6-.4.6-.5,1.2-.8.6-.4,1,.3,1.7,0,.6-.4.4-.7,1-1.1.6-.4.4-.7,1-1.1.6-.4,1,.3,1.6-.1.6-.4.3-.9.9-1.3s.8,0,1.5-.4c.6-.4.6-.4,1.2-.7.6-.4.7-.2,1.3-.6.6-.4.2-1,.8-1.4.6-.4.8,0,1.4-.4.6-.4.5-.6,1.1-.9.6-.4.5-.5,1.2-.9.6-.4,1.1.4,1.7,0,.6-.4.6-.5,1.2-.8.6-.4.5-.6,1.1-1,.6-.4.5-.5,1.2-.9.6-.4.6-.4,1.2-.8.6-.4.9,0,1.5-.3.6-.4.3-1,.9-1.3.6-.4.7-.2,1.4-.5.6-.4.8,0,1.5-.4.6-.4.7-.3,1.3-.7.6-.4.5-.6,1.1-1,.6-.4.4-.8,1-1.2.6-.4.8,0,1.4-.4s.4-.7,1-1.1c.6-.4.9.2,1.6-.2.6-.4.4-.8,1-1.1s.9.1,1.5-.3c.6-.4.2-1,.8-1.4.6-.4.6-.4,1.3-.7.6-.4.7-.3,1.3-.6s.6-.4,1.2-.8c.6-.4.5-.5,1.2-.9.6-.4,1,.3,1.7,0,.6-.4.6-.4,1.2-.8s.6-.4,1.2-.8c.6-.4.3-.9.9-1.2s.7-.3,1.3-.7c.6-.4.5-.6,1.1-1,.6-.4.6-.4,1.2-.8s.9,0,1.5-.3c.6-.4.5-.5,1.2-.9.6-.4.7-.3,1.3-.6.6-.4.8,0,1.4-.4s.4-.7,1-1.1c.6-.4.7-.2,1.3-.6.6-.4.4-.7,1-1.1s.5-.6,1.1-1,.6-.3,1.3-.7c.6-.4.6-.4,1.2-.8.6-.4.6-.4,1.2-.8.6-.4.7-.2,1.3-.6.6-.4.9,0,1.5-.3.6-.4.5-.5,1.1-.9.6-.4.5-.6,1.1-1,.6-.4.7-.2,1.3-.6.6-.4.5-.6,1.1-.9.6-.4,1,.2,1.6-.2.6-.4.6-.4,1.2-.8.6-.4.3-1,.9-1.4.6-.4.7-.3,1.3-.7.6-.4.8,0,1.4-.4.6-.4.8,0,1.4-.4.6-.4.2-1,.8-1.4.6-.4.7-.2,1.4-.5.6-.4.6-.4,1.2-.8.6-.4.8-.1,1.4-.5.6-.4.6-.4,1.2-.8.6-.4.5-.5,1.1-.9.6-.4.9,0,1.5-.3.6-.4.4-.7,1.1-1,.6-.4.5-.5,1.2-.9.6-.4.8,0,1.5-.4.6-.4.5-.5,1.1-.9.6-.4.3-.8,1-1.2.6-.4,1,.2,1.6-.1.6-.4.6-.4,1.2-.7.6-.4.2-1.1.8-1.5.6-.4.9.1,1.6-.2.6-.4.6-.3,1.3-.7.6-.4.4-.8,1-1.1.6-.4,1,.2,1.6-.2.6-.4.5-.6,1.1-1,.6-.4.5-.5,1.1-.9.6-.4.7-.2,1.3-.6.6-.4.4-.7,1-1.1.6-.4.7-.3,1.3-.7.6-.4.9.1,1.5-.2.6-.4.2-1.1.8-1.5.6-.4.8,0,1.4-.4.6-.4.6-.4,1.2-.8.6-.4.9,0,1.5-.3.6-.4.4-.8,1-1.2.6-.4.9,0,1.5-.3.6-.4.6-.4,1.2-.8.6-.4.7-.3,1.3-.7.6-.4.3-1,.9-1.3.6-.4.7-.3,1.3-.7.6-.4.9.1,1.5-.2.6-.4.3-.9,1-1.2s1,.2,1.6-.2c.4-.2.5-1,.9-1.3.4-.3.9-.4,1.3-.7.3-.3.4-.9.7-1.3.3-.3,1.2-.2,1.5-.6.3-.4-.2-1.2,0-1.6.2-.4.5-.7.7-1.2.2-.4.9-.6,1-1.1.2-.4.3-.9.4-1.3.1-.4.5-.9.6-1.3,0-.5-.2-1-.2-1.5,0-.5-.3-.9-.3-1.4,0-.7,0-.7,0-1.4s.3-.7.3-1.4.4-.7.4-1.4-.7-.7-.7-1.4,0-.7,0-1.4-.1-.7-.1-1.4.5-.7.5-1.4-.5-.7-.5-1.4.1-.7.1-1.4,0-.7,0-1.4.2-.7.2-1.4,0-.7,0-1.4,0-.7,0-1.4.8-.7.8-1.4-.4-.7-.4-1.4.3-.7.3-1.4-.2-.7-.2-1.4-.4-.7-.4-1.4.2-.7.2-1.4.2-.7.2-1.4-.4-.7-.4-1.4,0-.7,0-1.4-.2-.7-.2-1.4.6-.7.6-1.4,0-.7,0-1.4-.7-.7-.7-1.4,0-.7,0-1.4.2-.7.2-1.4,0-.7,0-1.4,0-.7,0-1.4-.3-.7-.3-1.4.2-.7.2-1.4-.4-.7-.4-1.4.6-.7.6-1.4,0-.7,0-1.4-.2-.7-.2-1.4,0-.7,0-1.4.6-.7.6-1.4-.7-.7-.7-1.4.4-.7.4-1.4,0-.7,0-1.4.3-.7.3-1.4-.8-.7-.8-1.4.1-.7.1-1.4.7-.7.7-1.4-.7-.7-.7-1.4,0-.7,0-1.4.6-.7.6-1.4-.4-.7-.4-1.4,0-.7,0-1.4.2-.7.2-1.4-.3-.7-.3-1.4.6-.7.6-1.4-.8-.7-.8-1.4.7-.7.7-1.4,0-.7,0-1.4-.8-.7-.8-1.4.2-.7.2-1.4.1-.7.1-1.4-.3-.7-.3-1.4.1-.7.1-1.4.4-.7.4-1.4-.2-.7-.2-1.4-.4-.7-.4-1.4.3-.7.3-1.4.6-.7.6-1.4-.5-.7-.5-1.4.5-.7.5-1.4-.4-.7-.4-1.4-.2-.7-.2-1.4.3-.7.3-1.4.3-.7.3-1.4-.2-.7-.2-1.4,0-.7,0-1.4-.4-1-.4-1.5c0-.5-.2-.9-.3-1.4,0-.5-.3-.9-.5-1.4-.1-.5,0-1-.2-1.5-.2-.5,0-1.1-.3-1.5-.2-.4-.5-.9-.8-1.3-.3-.4-.8-.7-1.1-1-.3-.4-.9-.5-1.2-.9s-.6-.7-1-1c-.4-.3-.7-.7-1.1-.9-.4-.3-.9-.3-1.3-.6-.4-.2-.8-.4-1.3-.6-.5-.2-.7-.9-1.2-1.1-.5-.1-1,0-1.5-.1-.5,0-1,0-1.5,0-.5,0-1,.3-1.5.3-.7,0-.7-.5-1.4-.5s-.7.4-1.4.4-.7-.1-1.4-.1-.7,0-1.4,0-.7-.3-1.4-.3-.7.3-1.4.3-.7-.5-1.4-.5-.7.5-1.4.5-.7,0-1.4,0-.7.1-1.4.1-.7-.1-1.4-.1-.7-.6-1.4-.6-.7.5-1.4.5-.7-.2-1.4-.2-.7.3-1.4.3-.7-.2-1.4-.2-.7-.3-1.4-.3-.7-.2-1.4-.2-.7.2-1.4.2-.7-.1-1.4-.1-.7.5-1.4.5-.7-.4-1.4-.4-.7-.1-1.4-.1-.7.5-1.4.5-.7-.1-1.4-.1-.7.2-1.4.2-.7-.3-1.4-.3-.7.4-1.4.4-.7-.3-1.4-.3-.7.3-1.4.3-.7-.3-1.4-.3-.7.4-1.4.4-.7-.1-1.4-.1-.7,0-1.4,0-.7-.3-1.4-.3-.7,0-1.4,0-.7.5-1.4.5-.7-.7-1.4-.7-.7.2-1.4.2-.7.5-1.4.5-.7,0-1.4,0-.7-.3-1.4-.3-.7,0-1.4,0-.7-.3-1.4-.3-.7.1-1.4.1-.7.7-1.4.7-.7-.9-1.4-.9-.7.4-1.4.4-.7.5-1.4.5-.7-.9-1.4-.9-.7.2-1.4.2-.7.3-1.4.3-.7.3-1.4.3-.7-.1-1.4-.1-.7-.3-1.4-.3-.7-.2-1.4-.2-.7.7-1.4.7-.7-.4-1.4-.4-.7-.5-1.4-.5-.7.4-1.4.4-.7-.4-1.4-.4-.7.8-1.4.8-.7-.5-1.4-.5-.7-.2-1.4-.2-.7.5-1.4.5-.7.1-1.4.1-.7-.7-1.4-.7-.7.6-1.4.6-.7,0-1.4,0-.7,0-1.4,0-.7-.4-1.4-.4-.7,0-1.4,0-.7.1-1.4.1-.7-.5-1.4-.5-.7,0-1.4,0-.7.6-1.4.6-.7-.4-1.4-.4-.7.3-1.4.3-.7-.2-1.4-.2-.7,0-1.4,0-.7.2-1.4.2-.7-.3-1.4-.3-.7.5-1.4.5-.7-.2-1.4-.2-.7,0-1.4,0-.7-.4-1.4-.4-.7.6-1.4.6-.7-.9-1.4-.9-.7,0-1.4,0-.7.4-1.4.4-.7.2-1.4.2-.7,0-1.4,0-.7,0-1.4,0-.7-.4-1.4-.4-.7,0-1.4,0-.7.3-1.4.3-.7-.7-1.4-.7-.7.4-1.4.4-.7.1-1.4.1-.7.3-1.4.3-.7,0-1.4,0-.7-.5-1.4-.5-.7.6-1.4.6-.7-.5-1.4-.5-.7-.2-1.4-.2-.7.8-1.4.8-.7-.7-1.4-.7-.7.7-1.4.7-.7-.6-1.4-.6-.7.2-1.4.2-.7.2-1.4.2-.7.1-1.4.1-.7,0-1.4,0-.7-.6-1.4-.6-.7.6-1.4.6-.7,0-1.4,0-.7-.1-1.4-.1-.7-.5-1.4-.5-.7,0-1.4,0-.7.4-1.4.4-.7-.3-1.4-.3-.7-.2-1.4-.2-.7.3-1.4.3-.7,0-1.5,0-.7,0-1.4,0-.7.1-1.5.1-.7.3-1.4.3-.7-.3-1.5-.3-.7.4-1.4.4-.7-.3-1.4-.3-.7,0-1.5,0-.7.1-1.4.1-.7.1-1.5.1-.7-.2-1.5-.2-.7-.1-1.5-.1-.7.2-1.5.2-.7-.5-1.5-.5-.7.8-1.5.8-1.1-.4-1.6-.5c-.5-.2-.7-.8-1.1-1.2-.4-.3-1-.4-1.3-.8-.3-.4-.3-1-.4-1.5-.2-.5-.5-.9-.5-1.4s-.5-1.2-.3-1.7c.2-.5,1.1-.7,1.4-1.1.3-.4.2-1.3.7-1.6.4-.3,1.2-.1,1.7-.3.5-.2,1-.7,1.5-.7s.7.4,1.4.4.7.2,1.4.2.7-.3,1.4-.3.7.3,1.4.3.7-.8,1.4-.8.7,0,1.4,0,.7,0,1.4,0,.7.6,1.4.6.7,0,1.4,0,.7-.7,1.4-.7.7.6,1.4.6.7-.3,1.4-.3.7.6,1.4.6.7-.3,1.4-.3.7,0,1.4,0,.7-.1,1.4-.1.7-.1,1.4-.1.7.3,1.4.3.7,0,1.4,0,.7-.5,1.4-.5.7-.1,1.4-.1.7.4,1.4.4.7-.6,1.4-.6.7.2,1.4.2.7.2,1.4.2.7-.3,1.4-.3.7.5,1.4.5.7-.4,1.4-.4.7.2,1.4.2.7-.2,1.4-.2.7.5,1.4.5.7-.6,1.4-.6.7.7,1.4.7.7,0,1.4,0,.7-.6,1.4-.6.7.6,1.4.6.7-.3,1.4-.3.7.3,1.4.3.7-.5,1.4-.5.7.4,1.4.4.7-.1,1.4-.1.7,0,1.4,0,.7,0,1.4,0,.7-.5,1.4-.5.7-.2,1.4-.2.7.2,1.4.2.7.4,1.4.4.7-.1,1.4-.1.7.4,1.4.4.7-.2,1.4-.2.7-.4,1.4-.4.7.5,1.4.5.7,0,1.4,0,.7.2,1.4.2.7-.5,1.4-.5.7,0,1.4,0,.7-.2,1.4-.2.7.7,1.4.7.7-.6,1.4-.6.7.5,1.4.5.7-.5,1.4-.5.7.7,1.4.7.7-.2,1.4-.2.7.1,1.4.1.7-.3,1.4-.3.7-.1,1.4-.1.7.5,1.4.5.7,0,1.4,0,.7,0,1.4,0,.7-.8,1.4-.8.7.2,1.4.2.7.7,1.4.7.7-.6,1.4-.6.7.3,1.4.3.7,0,1.4,0,.7.2,1.4.2.7-.3,1.4-.3.7-.3,1.4-.3.7.1,1.4.1.7,0,1.4,0,.7.2,1.4.2.7-.6,1.4-.6.7.4,1.4.4.7,0,1.4,0,.7,0,1.4,0,.7-.3,1.4-.3.7.4,1.4.4.7,0,1.4,0,.7.2,1.4.2.7-.6,1.4-.6.7.1,1.4.1.7.5,1.4.5.7-.4,1.4-.4.7,0,1.4,0,.7,0,1.4,0,.7-.3,1.4-.3.7.3,1.4.3.7.5,1.4.5.7-.4,1.4-.4.7-.3,1.4-.3.7-.1,1.4-.1.7.7,1.4.7.7,0,1.4,0,.7-.7,1.4-.7.7.7,1.4.7.7-.2,1.4-.2.7-.7,1.4-.7.7.8,1.4.8.7-.4,1.4-.4.7-.3,1.4-.3.7,0,1.4,0,.7,0,1.4,0,.7,0,1.4,0,.7,0,1.4,0,.7.6,1.4.6.7-.2,1.4-.2.7,0,1.4,0,.7.2,1.4.2.7,0,1.4,0,.7-.5,1.4-.5.7.3,1.4.3.7-.4,1.4-.4.7.3,1.4.3.7.1,1.5.1.7,0,1.4,0,.7-.5,1.5-.5.7-.1,1.4-.1.7-.1,1.5-.1.7.5,1.4.5.7,0,1.4,0,.7.3,1.5.3.7-.2,1.4-.2.7-.7,1.5-.7.7.7,1.5.7.7.2,1.5.2.7-.3,1.5-.3.7.1,1.5.1.7-.3,1.5-.3,1,0,1.5-.1c.5,0,1.1.3,1.5.3.5,0,.9-.7,1.3-.9.5-.1,1.1.1,1.5,0,.5-.2.7-.9,1.1-1.1.4-.2.8-.6,1.2-.9.4-.3,1.1-.1,1.5-.5.4-.3.7-.7,1.1-1,.3-.3.5-.9.8-1.2.3-.4,1-.5,1.3-.9.3-.4.3-1,.5-1.5.2-.4.6-.8.8-1.3.2-.5-.1-1.1,0-1.6.1-.5.8-.8.9-1.3,0-.5-.4-1.1-.4-1.5,0-.5.5-.9.5-1.4,0-.7,0-.7,0-1.4s-.2-.7-.2-1.4.2-.7.2-1.4,0-.7,0-1.4-.4-.7-.4-1.4,0-.7,0-1.4.7-.7.7-1.4-.4-.7-.4-1.4.2-.7.2-1.4-.1-.7-.1-1.4.3-.7.3-1.4-.4-.7-.4-1.4,0-.7,0-1.4-.2-.7-.2-1.4,0-.7,0-1.4.1-.7.1-1.4,0-.7,0-1.4.1-.7.1-1.4-.2-.7-.2-1.4,0-.7,0-1.4.3-.7.3-1.4-.4-.7-.4-1.4.8-.7.8-1.4-.6-.7-.6-1.4.2-.7.2-1.4.3-.7.3-1.4,0-.7,0-1.4-.5-.7-.5-1.4.5-.7.5-1.4-.3-.7-.3-1.4,0-.7,0-1.4.2-.7.2-1.4-.2-.7-.2-1.4.2-.7.2-1.4-.2-.7-.2-1.4,0-.7,0-1.4-.2-.7-.2-1.4,0-.7,0-1.4,0-.7,0-1.4.5-.7.5-1.4-.5-.7-.5-1.4,0-.7,0-1.4.3-.7.3-1.4-.1-.7-.1-1.4,0-.7,0-1.4.5-.7.5-1.4-.5-.7-.5-1.4.4-.7.4-1.4,0-.7,0-1.4,0-.7,0-1.4-.2-.7-.2-1.4-.5-.7-.5-1.4.2-.7.2-1.4-.3-.7-.3-1.4.1-.7.1-1.4.4-.7.4-1.4-.1-.7-.1-1.4-.2-.7-.2-1.4.7-.7.7-1.4-.4-.7-.4-1.4,0-.7,0-1.4.4-.7.4-1.4,0-.7,0-1.4-.5-.7-.5-1.4.1-.7.1-1.4.1-.7.1-1.4-.6-.7-.6-1.4.6-.7.6-1.4,0-.7,0-1.4.2-.7.2-1.4-.1-.7-.1-1.4.3-.7.3-1.4-.3-.7-.3-1.4.2-.7.2-1.4-.5-.7-.5-1.4.5-.7.5-1.4-.3-.7-.3-1.4.2-.7.2-1.4-.5-.7-.5-1.4.1-.7.1-1.4,0-.7,0-1.4.4-.7.4-1.4.2-.7.2-1.4-.7-.7-.7-1.4.4-.7.4-1.4.2-.7.2-1.4-.5-.7-.5-1.4,0-.7,0-1.4.3-.7.3-1.4,0-.3,0-.4C275.8,1,263,0,250,0,111.9,0,0,111.9,0,250s17.4,104.8,46.9,145.8c.3.2.5.5,1,.5ZM69.2,225.1c.2-.5.6-.8.9-1.2.3-.4.3-1.1.8-1.4.4-.3,1.1,0,1.6-.2.5-.2.9-.8,1.4-.8s.7-.1,1.4-.1.7.8,1.4.8.7-.3,1.4-.3.7-.5,1.4-.5.7.6,1.4.6.7-.3,1.4-.3.7,0,1.4,0,.7.1,1.4.1.7.3,1.4.3.7-.3,1.4-.3.7-.5,1.4-.5.7.9,1.4.9.7-.8,1.4-.8.7,0,1.4,0,.7,0,1.4,0,.7.6,1.4.6.7-.5,1.4-.5.7.2,1.4.2.7-.4,1.4-.4.7.8,1.4.8.7-.4,1.4-.4.7.3,1.4.3.7,0,1.4,0,.7-.2,1.4-.2.7-.1,1.4-.1.7-.5,1.4-.5.7.1,1.4.1.7,0,1.4,0,.7,0,1.4,0,.7-.2,1.4-.2.7.3,1.4.3.7.2,1.4.2.7-.4,1.4-.4.7.4,1.4.4.7.4,1.4.4.7-.7,1.4-.7.7.3,1.4.3.7.5,1.4.5.7-.6,1.4-.6.7.2,1.4.2.7-.4,1.4-.4.7.1,1.4.1.7-.2,1.4-.2.7.5,1.4.5.7-.5,1.4-.5.7.4,1.4.4.7.3,1.4.3.7,0,1.4,0,.7-.3,1.4-.3.7-.3,1.4-.3.7.5,1.4.5.7-.3,1.4-.3.7.3,1.4.3.7.2,1.4.2.7-.6,1.4-.6.7.7,1.4.7.7,0,1.4,0,.7-.5,1.4-.5.7.1,1.4.1.7-.3,1.4-.3.7.7,1.4.7.7-.8,1.4-.8.7.7,1.4.7.7,0,1.4,0,.7-.5,1.4-.5.7-.2,1.4-.2.7.1,1.4.1.7.7,1.4.7.7-.6,1.4-.6.7.7,1.4.7.7,0,1.4,0,.7-.9,1.4-.9.7.2,1.4.2.7.7,1.4.7.7-.8,1.4-.8.7.6,1.4.6.7,0,1.4,0,.7-.3,1.4-.3.7-.3,1.4-.3.7.4,1.4.4.7.4,1.4.4.7-.6,1.4-.6.7,0,1.4,0,.7,0,1.4,0,.7-.2,1.4-.2.7.8,1.4.8.7-.2,1.4-.2.7-.7,1.4-.7,1,.8,1.4,1c.5.2,1.1,0,1.5.4.4.3.5.9.8,1.3.3.4.9.7,1,1.2.2.5,0,1,0,1.6s.2,1.1,0,1.6c-.2.5-.3,1.1-.7,1.5-.3.4-.7.9-1.1,1.3-.4.3-1.3-.2-1.8,0-.5.2-.9.6-1.4.6s-.7.4-1.4.4-.7-.7-1.4-.7-.7.6-1.4.6-.7-.4-1.4-.4-.7,0-1.4,0-.7-.1-1.4-.1-.7.8-1.4.8-.7-.4-1.4-.4-.7.2-1.4.2-.7.2-1.4.2-.7-.8-1.4-.8-.7,0-1.4,0-.7.3-1.4.3-.7.2-1.4.2-.7,0-1.4,0-.7-.5-1.4-.5-.7.7-1.4.7-.7-.2-1.4-.2-.7-.4-1.4-.4-.7,0-1.4,0-.7.2-1.4.2-.7.5-1.4.5-.7-.4-1.4-.4-.7.4-1.4.4-.7-.6-1.4-.6-.7.4-1.4.4-.7-.6-1.4-.6-.7.8-1.4.8-.7,0-1.4,0-.7-.1-1.4-.1-.7,0-1.4,0-.7.2-1.4.2-.7-.8-1.4-.8-.7,0-1.4,0-.7,0-1.4,0-.7.6-1.4.6-.7-.1-1.4-.1-.7.2-1.4.2-.7,0-1.4,0-.7-.5-1.4-.5-.7.1-1.4.1-.7-.1-1.4-.1-.7-.4-1.4-.4-.7.4-1.4.4-.7-.2-1.4-.2-.7.4-1.4.4-.7.3-1.4.3-.7,0-1.4,0-.7,0-1.4,0-.7,0-1.4,0-.7-.2-1.4-.2-.7-.5-1.4-.5-.7.2-1.4.2-.7.3-1.4.3-.7-.1-1.4-.1-.7.2-1.4.2-.7-.7-1.4-.7-.7,0-1.4,0-.7.7-1.4.7-.7-.1-1.4-.1-.7-.4-1.4-.4-.7-.4-1.4-.4-.7.8-1.4.8-.7-.2-1.4-.2-.7,0-1.4,0-.7-.3-1.4-.3-.7,0-1.4,0-.7.2-1.4.2-.7-.5-1.4-.5-.7.3-1.4.3-.7.1-1.4.1-.7-.4-1.4-.4-.7.2-1.4.2-.7.5-1.4.5-.7-.7-1.4-.7-.7,0-1.4,0-.7.8-1.4.8-.7-.6-1.4-.6-.7,0-1.4,0-.7.5-1.4.5-.7-.7-1.4-.7-.7.3-1.4.3-.7.2-1.4.2-.7-.2-1.4-.2-.7.4-1.4.4-.7-.1-1.4-.1-.7-.4-1.4-.6c-.7-.2-.8,0-1.5,0s-1,.2-1.5,0c-.5-.2-.8-.6-1.2-.9-.4-.3-.6-.7-.9-1.1-.3-.4-.9-.6-1.1-1.1-.2-.5-.3-1-.3-1.5s.3-1,.4-1.5Z"/>
</svg>