<?xml version="1.0" encoding="UTF-8"?>
<svg id="_アイコン" data-name="アイコン" xmlns="http://www.w3.org/2000/svg" version="1.1" viewBox="0 0 500 500">
  <defs>
    <style>
      .cls-1 {
        fill: #fff;
        stroke-width: 0px;
      }
    </style>
  </defs>
  <path class="cls-1" d="M77.9,272.1c0,.7.2.7.2,1.5s0,.7,0,1.5.4.7.4,1.5-.3.7-.3,1.5,0,.7,0,1.5-.1.7-.1,1.5.2.7.2,1.5,0,.7,0,1.5,0,.7,0,1.5-.2.7-.2,1.5,0,.7,0,1.5.1.7.1,1.5.1.7.1,1.5-.2.7-.2,1.5.3.7.3,1.5,0,.7,0,1.5,0,.7,0,1.5,0,.7,0,1.5,0,.7,0,1.5-.3.7-.3,1.5.2.7.2,1.5,0,.7,0,1.5-.5.7-.5,1.5.2,1,.2,1.5c0,.5.5.9.5,1.4,0,.5-.4,1.1-.2,1.6.1.5.3,1,.5,1.4.2.5.5.9.7,1.3.2.4.7.8.9,1.2.3.4.5.9.8,1.3.3.4.9.6,1.2.9.3.3.8.6,1.2.9.4.3.5.9.9,1.2.4.3.9.4,1.3.6.4.2,1,.2,1.4.4.5.2.8.6,1.3.7.5.1.9.3,1.4.4.5,0,1-.3,1.5-.2.5,0,.9.6,1.4.6.7,0,.7,0,1.5,0s.7-.2,1.5-.2.7.4,1.5.4.7-.2,1.5-.2.7.2,1.5.2.7-.5,1.5-.5.7-.1,1.5-.1.7.4,1.4.4.7.2,1.4.2.7-.2,1.5-.2.7-.1,1.5-.1.7.4,1.5.4.7,0,1.5,0,.7,0,1.5,0,.7-.2,1.5-.2.7-.1,1.5-.1.7,0,1.5,0,.7-.2,1.5-.2.7.3,1.5.3.7,0,1.5,0,.7,0,1.5,0,.7-.1,1.5-.1.7,0,1.5,0,.7-.2,1.5-.2.7.2,1.5.2.7,0,1.5,0,.7.3,1.5.3.7-.2,1.5-.2.7.3,1.5.3.7-.2,1.5-.2.7.1,1.5.1.7-.5,1.5-.5.7.5,1.5.5.7-.5,1.5-.5.7,0,1.5,0,.7,0,1.5,0,.7,0,1.5,0,.7.5,1.5.5.7-.1,1.5-.1.7,0,1.5,0,.7-.3,1.5-.3.7.6,1.5.6,1-.3,1.4-.3c.5,0,1,0,1.5,0,.5,0,.8-.7,1.3-.8.5-.1,1,0,1.4-.3s.9-.4,1.3-.6c.4-.2.8-.5,1.2-.7.4-.3.9-.4,1.2-.7.4-.3.9-.5,1.2-.8.5-.5.2-.8.8-1.3.5-.5.5-.5,1-1,.5-.5.6-.4,1.1-.9.5-.5.5-.5,1-1,.5-.5.3-.7.9-1.2.5-.5.7-.3,1.2-.8.5-.5.4-.6.9-1.1.5-.5.5-.5,1-1,.5-.5.5-.6,1-1.1.5-.5.6-.4,1.2-.9.5-.5.4-.6.9-1.1.5-.5.7-.4,1.2-.9.5-.5.8-.2,1.3-.7.5-.5.2-.8.8-1.3s.8-.2,1.3-.7c.5-.5.5-.5,1-1,.5-.5.5-.6,1-1.1.5-.5.3-.8.8-1.3.5-.5.6-.5,1.1-1,.5-.5.7-.3,1.2-.8.5-.5.7-.4,1.2-.9s.5-.5,1.1-1c.5-.5.3-.8.8-1.3.5-.5.7-.3,1.3-.8.5-.5.1-.9.6-1.4.5-.5.7-.4,1.2-.9.5-.5.4-.6.9-1.1s1,0,1.5-.5c.5-.5.3-.7.8-1.2.5-.5.3-.7.9-1.2.5-.5.6-.4,1.2-.9.5-.5.6-.4,1.2-.9.5-.5.6-.4,1.1-.9.5-.5.2-.8.7-1.3.5-.5.9,0,1.5-.6.5-.5.4-.6.9-1.1.5-.5.5-.6,1-1.1.5-.5.4-.6.9-1.1.5-.5.6-.4,1.2-.9.5-.5.5-.5,1.1-1,.5-.5.5-.5,1-1,.5-.5.3-.7.9-1.2.5-.5.6-.4,1.2-.9.5-.5.3-.7.8-1.2.5-.5.8-.2,1.3-.7.5-.5.7-.3,1.2-.8.5-.5.3-.7.9-1.2.5-.5.5-.5,1.1-1,.4-.3.5-.9.8-1.3.3-.4.8-.6,1.1-1,.3-.4.4-.9.6-1.4.2-.4.5-.9.7-1.3.2-.5.3-.9.4-1.4.2-.5.7-.8.8-1.3.1-.5.4-1,.5-1.5,0-.5,0-1,0-1.5,0-.5-.7-1-.7-1.5,0-.5.5-1.1.4-1.6,0-.5-.6-.9-.8-1.4-.1-.5-.2-.9-.4-1.4-.2-.5-.3-1-.5-1.4-.2-.4-.8-.7-1-1.1-.3-.4-.3-1-.6-1.4-.3-.4-.6-.8-1-1.1-.3-.4-.5-1-.9-1.3-.4-.3-.9-.5-1.3-.8-.4-.3-1-.3-1.4-.5-.4-.2-.8-.5-1.3-.7-.5-.2-.9-.5-1.3-.7-.5-.1-1,0-1.5,0-.5,0-1-.2-1.4-.3-.5,0-1-.4-1.5-.4-.7,0-.7,0-1.4,0s-.7,0-1.4,0-.7-.2-1.4-.2-.7.7-1.4.7-.7-.2-1.4-.2-.7-.2-1.4-.2-.7.3-1.4.3-.7,0-1.4,0-.7-.5-1.4-.5-.7.3-1.4.3-.7-.2-1.4-.2-.7.3-1.4.3-.7,0-1.4,0-.7-.4-1.4-.4-.7.2-1.4.2-.7,0-1.4,0-.7-.3-1.4-.3-.7.5-1.4.5-.7-.1-1.4-.1-.7,0-1.4,0-.7,0-1.4,0-.7-.5-1.4-.5-.7.1-1.4.1-.7,0-1.4,0-.7,0-1.4,0-.7.2-1.4.2-.7,0-1.4,0-.7.2-1.4.2-.7-.6-1.4-.6-.7.4-1.4.4-.7-.4-1.4-.4-.7.2-1.4.2-.7.2-1.4.2-.7,0-1.4,0-.7,0-1.4,0-.7-.1-1.4-.1-.7,0-1.4,0-.7.2-1.4.2-.7-.4-1.4-.4-.7,0-1.4,0-.7.3-1.4.3-.7.4-1.4.4-.7-.2-1.4-.2-.7,0-1.4,0-.7-.4-1.4-.4-.7.4-1.4.4-.7-.2-1.4-.2-.7.1-1.4.1-.7,0-1.4,0-.7,0-1.4,0-.7-.3-1.4-.3-.7-.2-1.4-.2-.7.2-1.4.2-.7.1-1.4.1-.7,0-1.4,0-.7,0-1.4,0-.7.2-1.4.2-.7,0-1.4,0-.7,0-1.4,0-.7.3-1.4.3-.7-.3-1.4-.3-.7-.1-1.4-.1-.7-.2-1.4-.2-.7.3-1.4.3-.7,0-1.4,0-.7.2-1.4.2-.7-.2-1.4-.2-.7-.2-1.4-.2-.7.5-1.4.5-.7-.1-1.5-.1-.7-.5-1.4-.5-.7.5-1.4.5-.7-.2-1.5-.2-.7-.2-1.4-.2-.7-.2-1.5-.2-.8.7-1.5.6c-.7,0-.7-.4-1.4-.4s-1-.1-1.5,0c-.5,0-1,.3-1.5.4-.5,0-.8.7-1.3.9-.5.1-1,.2-1.4.3-.5.2-.9.3-1.3.6-.4.2-1,.2-1.4.5-.4.3-.7.7-1.1,1-.4.3-.6.8-.9,1.2-.3.3-1.1.3-1.4.7-.3.4-.6.8-.8,1.2-.3.4-.3,1-.6,1.4-.2.4-.2,1-.3,1.4-.2.5-.8.7-.9,1.2-.1.5.1,1,0,1.5,0,.5,0,.9-.1,1.4,0,.5-.2.9-.2,1.4,0,.7-.6.7-.6,1.4s.3.7.3,1.4-.3.7-.3,1.5,0,.7,0,1.5,0,.7,0,1.5.4.7.4,1.4-.2.7-.2,1.4.1.7.1,1.4-.5.7-.5,1.5,0,.7,0,1.5Z"/>
  <path class="cls-1" d="M300.7,5.9c-.5.5-.3.7-.8,1.2-.5.5-.8.3-1.3.8-.5.5-.1.9-.6,1.4-.5.5-.8.3-1.3.8-.5.5-.5.6-1,1.1-.5.5-.4.6-.9,1.2-.5.5-.9,0-1.4.6-.5.5-.4.6-.9,1.2-.5.5-.2.9-.7,1.4-.5.5-.6.4-1.1.9-.5.5-.5.5-1,1-.5.5-.8.2-1.3.7s-.2.9-.7,1.4-.9.1-1.4.7c-.5.5,0,1-.5,1.5-.5.5-.9,0-1.4.6-.5.5-.3.7-.8,1.2-.5.5-.8.3-1.3.8-.5.5-.2.8-.7,1.3-.5.5-.4.6-.9,1.1-.5.5-.4.6-.9,1.1s-.6.4-1.1.9-.4.6-.9,1.1c-.5.5-.5.5-1,1s-.7.4-1.2.9c-.5.5-.3.7-.8,1.2s-.6.5-1.1,1c-.5.5-.6.5-1.1,1-.5.5-.6.4-1.1.9-.5.5-.4.6-.9,1.1-.5.5-.4.6-.9,1.1-.5.5-.4.6-.9,1.2-.5.5-.6.4-1.1.9-.5.5-.5.5-1,1-.5.5-.7.3-1.2.8-.5.5-.6.4-1.1.9-.5.5-.1.9-.6,1.4-.5.5-.6.4-1.1.9-.5.5-.6.4-1.1.9s-.6.4-1.1.9c-.5.5-.6.4-1.1.9-.5.5-.1.9-.6,1.4-.5.5-.6.4-1.1.9-.5.5-.8.3-1.3.8-.5.5-.5.5-1,1-.5.5-.2.9-.7,1.4-.5.5-.7.3-1.3.8-.5.5-.7.3-1.2.8-.5.5,0,.9-.6,1.5-.5.5-.9.1-1.4.7-.5.5-.4.6-.9,1.2-.5.5-.6.5-1.1,1-.5.5-.3.8-.8,1.3-.5.5-.8.2-1.3.7-.5.5-.2.8-.7,1.3s-.8.3-1.3.8c-.5.5-.5.5-1,1-.5.5-.1.9-.7,1.4s-1,0-1.5.6c-.5.5,0,.9-.6,1.5-.5.5-.9.1-1.4.6-.5.5-.6.4-1.1,1s-.2.8-.7,1.4-.4.6-.9,1.1c-.5.5-.4.6-.9,1.1q-.5.5-1,1c-.5.5-1,0-1.5.5-.5.5-.3.7-.8,1.3-.5.5-.7.3-1.2.9-.5.5-.3.7-.8,1.2-.5.5-.6.4-1.1.9-.5.5-.3.7-.8,1.2-.5.5-.3.7-.8,1.2-.5.5-1,0-1.5.6-.5.5-.2.8-.7,1.3-.5.5-.8.2-1.3.7-.5.5-.6.5-1.1,1-.5.5-.2.8-.7,1.3-.5.5-.7.3-1.2.8-.5.5-.4.6-.9,1.1-.5.5-.2.8-.7,1.3-.5.5-.6.4-1.1.9-.5.5-.9.1-1.4.7-.5.5-.4.6-.9,1.1-.5.5-.2.8-.7,1.3-.5.5-.6.4-1.1,1-.5.5-.8.2-1.3.7-.5.5,0,1-.5,1.5-.5.5-.9.1-1.4.6-.5.5-.6.5-1.1,1s0,1-.6,1.5c-.5.5-.6.4-1.1.9-.5.5-.6.4-1.1.9-.5.5-.6.4-1.1.9-.5.5-.4.6-.9,1.2-.5.5-.5.5-1,1-.5.5-.4.6-.9,1.1-.5.5-.6.4-1.1.9-.5.5-.2.8-.7,1.3-.5.5-.9.1-1.4.7-.5.5-.1.9-.7,1.4-.5.5-.6.4-1.1.9-.5.5-.6.4-1.1.9-.5.5-.2.8-.7,1.3s-.6.4-1.1,1c-.5.5-.6.4-1.1.9-.5.5-.4.6-.9,1.1-.5.5-.4.6-.9,1.1-.5.5-1,0-1.5.6-.5.5-.1.9-.6,1.4-.5.5-.5.5-1,1-.5.5-.9.2-1.4.7-.5.5-.2.8-.7,1.3-.5.5-.4.6-.9,1.1-.5.5-.5.5-1,1.1s-.6.5-1.1,1c-.5.5-.7.3-1.2.8-.5.5-.3.8-.8,1.3-.5.5-.7.3-1.2.8-.5.5-.4.6-.9,1.1-.5.5-.3.8-.8,1.3-.5.5-.7.3-1.3.8-.5.5-.6.4-1.1,1-.5.5-.7.4-1.2.9-.3.3-.3,1.1-.7,1.3-.4.2-1-.2-1.5-.1-.4.1-.8.7-1.2.7-.7,0-.7.2-1.4.2s-.7-.4-1.4-.4-.7.3-1.4.3-.7-.5-1.4-.5-.7.3-1.4.3-.7.2-1.4.2-.7,0-1.4,0-.7-.2-1.4-.2-.7,0-1.4,0-.7-.3-1.4-.3-.7,0-1.4,0-.7.3-1.4.3-.7-.2-1.4-.2-.7.5-1.4.5-.7,0-1.4,0-.7-.5-1.4-.5-.7,0-1.4,0-.7,0-1.4,0-.7,0-1.4,0-.7.6-1.4.6-.7-.5-1.4-.5-.7-.2-1.4-.2-.7,0-1.4,0-.7.5-1.4.5-.7-.2-1.4-.2-.7.3-1.4.3-.7-.4-1.4-.4-.7,0-1.4,0-.7.1-1.4.1-.7.4-1.4.4-.7-.3-1.4-.3-.7-.2-1.4-.2-.7,0-1.4,0-.7.5-1.4.5-.7-.2-1.4-.2-.7,0-1.4,0-.7.3-1.4.3-.7-.7-1.4-.7-.7.5-1.4.5-.7,0-1.4,0-.7,0-1.4,0-.7-.3-1.4-.3-.7,0-1.4,0-.7.2-1.4.2-.7,0-1.4,0-.7,0-1.4,0-.7-.2-1.4-.2-.7.1-1.4.1-.7.2-1.4.2-.7,0-1.4,0-.7-.1-1.4-.1-.7,0-1.4,0-.7.2-1.4.2-.7-.2-1.4-.2-.7-.3-1.4-.3-1,.2-1.5.3c-.5,0-1-.2-1.5,0-.5,0-.9.7-1.3.8-.5.1-1,.2-1.4.4-.5.2-.9.3-1.4.5-.4.2-.9.4-1.3.6-.4.3-.8.6-1.2.9-.4.3-.7.8-1,1.1-.3.3-.8.6-1.1,1-.3.4-.7.7-1,1.1-.3.4-.6.8-.9,1.2-.2.4,0,1.1-.2,1.5-.2.5-.2,1-.3,1.4-.1.5-.2.9-.3,1.4,0,.5-.7.9-.8,1.4,0,.5.3,1,.3,1.5,0,.7-.4.7-.4,1.4s0,.7,0,1.4.2.7.2,1.4,0,.7,0,1.4.1.7.1,1.4.5.7.5,1.4-.7.7-.7,1.4.4.7.4,1.4,0,.7,0,1.4,0,.7,0,1.4-.1.7-.1,1.4.2,1,.3,1.5c0,.5-.4,1.1-.3,1.5,0,.5.7.9.8,1.3.1.5-.1,1.1,0,1.5.2.5.4.9.6,1.4.2.4,1,.6,1.2,1,.3.4.5.8.8,1.2.3.4.5.8.9,1.2.3.3.9.5,1.3.8.4.3.4,1.2.8,1.4.4.3,1.2,0,1.6.2.4.2.7.8,1.2,1,.5.2,1,.1,1.5.3.5.1.8.7,1.3.8.5,0,1-.1,1.5,0,.5,0,1-.3,1.5-.3.7,0,.7.2,1.4.2s.7.4,1.4.4.7-.4,1.4-.4.7,0,1.4,0,.7.1,1.4.1.7-.1,1.4-.1.7.7,1.4.7.7-.2,1.4-.2.7,0,1.4,0,.7-.4,1.4-.4.7-.1,1.4-.1.7,0,1.4,0,.7.2,1.4.2.7-.2,1.4-.2.7,0,1.4,0,.7.3,1.4.3.7.1,1.4.1.7,0,1.4,0,.7,0,1.4,0,.7-.3,1.4-.3.7,0,1.4,0,.7.4,1.4.4.7-.3,1.4-.3.7-.1,1.4-.1.7,0,1.4,0,.7,0,1.4,0,.7.2,1.4.2.7-.4,1.4-.4.7.2,1.4.2.7.3,1.4.3.7,0,1.4,0,.7.3,1.4.3.7-.5,1.4-.5.7.6,1.4.6.7-.5,1.4-.5.7.2,1.4.2.7-.2,1.4-.2.7.4,1.4.4.7-.2,1.4-.2.7-.4,1.4-.4.7.2,1.4.2.7.1,1.4.1,1.1,0,1.6,0c.5.2,1,.4,1.4.8.4.3.5.9.8,1.4.3.4.6.8.8,1.3.2.5.2,1,.2,1.5s-.2,1-.4,1.5c-.2.5,0,1.1-.3,1.6-.3.4-.9.6-1.3.9-.4.3-.8.5-1.3.7-.5.2-1,.5-1.5.5s-.7-.1-1.4-.1-.7-.3-1.4-.3-.7.6-1.4.6-.7,0-1.4,0-.7-.1-1.4-.1-.7,0-1.4,0-.7-.4-1.4-.4-.7.1-1.4.1-.7-.2-1.4-.2-.7.6-1.4.6-.7-.5-1.4-.5-.7.1-1.4.1-.7,0-1.4,0-.7.4-1.4.4-.7-.6-1.4-.6-.7,0-1.4,0-.7-.2-1.4-.2-.7.4-1.4.4-.7-.3-1.4-.3-.7.6-1.4.6-.7-.4-1.4-.4-.7.2-1.4.2-.7,0-1.4,0-.7-.4-1.4-.4-.7.6-1.4.6-.7-.3-1.4-.3-.7.2-1.4.2-.7-.2-1.4-.2-.7-.2-1.4-.2-.7,0-1.4,0-.7,0-1.4,0-.7.5-1.4.5-.7-.6-1.4-.6-.7.2-1.4.2-.7-.3-1.4-.3-.7.4-1.4.4-.7,0-1.4,0-.7,0-1.4,0-.7-.5-1.4-.5-.7.6-1.4.6-.7-.3-1.4-.3-.7-.2-1.4-.2-1,.1-1.5.2c-.5,0-1,.2-1.5.3-.5,0-1,0-1.5.2-.5.1-1,.2-1.4.4-.5.2-.7.9-1.1,1.1-.4.2-.8.5-1.2.8-.4.3-1,.3-1.3.6-.4.3-.6.8-1,1.1-.3.3-.9.5-1.2.9-.3.4-.2,1-.5,1.5-.3.4-.9.6-1.1,1-.2.4-.5.8-.7,1.3-.2.5.2,1.1,0,1.6-.1.5-.7.8-.8,1.3,0,.5-.2,1-.3,1.5,0,.5.4,1,.4,1.5,0,.8-.5.8-.5,1.5s-.2.8-.2,1.5.1.8.1,1.5,0,.8,0,1.5.3.8.3,1.5-.4.8-.4,1.5.2.8.2,1.5.2.8.2,1.5-.3,1-.2,1.5c0,.5,0,1,0,1.5,0,.5.3,1,.5,1.4.1.5.6.8.8,1.3.2.5.3.9.6,1.4.2.4.6.8.8,1.2.3.4.7.7,1,1,.3.4.4.9.8,1.3.3.3.6.8,1,1.1.4.3.8.6,1.2.9.4.3,1,.3,1.4.5.4.2.8.6,1.3.7.5.2.9.5,1.3.6.5.1,1,0,1.5.2.5,0,.9.4,1.4.4.5,0,1-.3,1.5-.3.7,0,.7.5,1.4.5s.7-.3,1.4-.3.7-.3,1.4-.3.7.3,1.4.3.7.3,1.4.3.7-.6,1.4-.6.7.5,1.4.5.7-.1,1.4-.1.7.3,1.4.3.7,0,1.4,0,.7,0,1.4,0,.7-.4,1.4-.4.7-.2,1.4-.2.7,0,1.4,0,.7.4,1.4.4.7-.3,1.4-.3.7.1,1.4.1.7.3,1.4.3.7,0,1.4,0,.7,0,1.4,0,.7-.1,1.4-.1.7-.2,1.4-.2.7,0,1.4,0,.7,0,1.4,0,.7,0,1.4,0,.7.2,1.4.2.7.2,1.4.2.7.2,1.4.2.7-.5,1.4-.5.7.5,1.4.5.7,0,1.4,0,.7,0,1.4,0,.7,0,1.4,0,.7-.4,1.4-.4.7.3,1.4.3.7-.4,1.4-.4.7.4,1.4.4.7-.3,1.4-.3.7,0,1.4,0,.7.1,1.4.1.7,0,1.4,0,.7.3,1.4.3.7-.5,1.4-.5.7.5,1.4.5.7-.6,1.4-.6.7.6,1.4.6.7-.3,1.4-.3.7-.4,1.4-.4.7.2,1.4.2.7.3,1.4.3.7-.5,1.4-.5.7.5,1.4.5.7-.5,1.4-.5.7.2,1.4.2.7.2,1.4.2.7.3,1.4.3.7-.7,1.4-.7.7.4,1.4.4.7,0,1.4,0,.7.1,1.4.1.7.1,1.4.1.7-.6,1.4-.6.7.6,1.4.6.7-.4,1.4-.4.7,0,1.4,0,.7-.2,1.4-.2.7.4,1.4.4.7,0,1.4,0,.7-.1,1.4-.1.7,0,1.4,0,.7-.2,1.4-.2.7.6,1.4.6.7-.4,1.4-.4.7.4,1.4.4.7-.1,1.4-.1.7-.3,1.4-.3.7.2,1.4.2.7,0,1.4,0,.7-.3,1.4-.3.7,0,1.4,0,.7.6,1.4.6.7-.5,1.4-.5.7,0,1.4,0,.7-.2,1.4-.2.7.7,1.4.7.7-.4,1.4-.4.7,0,1.4,0,.7,0,1.4,0,.7,0,1.4,0,.7.2,1.4.2.7-.6,1.4-.6.7.5,1.4.5.7,0,1.4,0,.7,0,1.4,0,.7,0,1.4,0,.7-.3,1.4-.3.7,0,1.4,0,.7.3,1.4.3.7,0,1.4,0,.7,0,1.4,0,.7-.4,1.4-.4.7,0,1.5,0,.7,0,1.4,0,.7.1,1.5.1.7,0,1.5,0,.7-.2,1.5-.2,1,.3,1.4.2c.5,0,1,0,1.5,0,.5,0,.9-.3,1.4-.5.5-.1.8-.6,1.2-.8.4-.2.9-.4,1.3-.6.4-.2,1.1,0,1.5-.3.4-.3.6-.8.9-1.1.4-.3.6-.7,1-1,.5-.5.8-.2,1.3-.7.5-.5.3-.7.8-1.2.5-.5.7-.3,1.3-.8.5-.5.2-.8.7-1.3s.7-.3,1.2-.8c.5-.5.8-.2,1.4-.7.5-.5.1-.9.6-1.4.5-.5.7-.3,1.2-.8.5-.5.6-.4,1.1-.9.5-.5.5-.6,1-1.1.5-.5.7-.3,1.2-.8.5-.5.6-.5,1.1-1,.5-.5.2-.8.7-1.3.5-.5.5-.5,1-1,.5-.5.6-.4,1.1-.9.5-.5.8-.2,1.4-.7.5-.5.3-.7.8-1.2.5-.5.6-.5,1.1-1,.5-.5.5-.5,1-1,.5-.5.6-.5,1.1-1,.5-.5.6-.5,1.1-1,.5-.5.6-.5,1.1-1,.5-.5.2-.8.8-1.3.5-.5.7-.4,1.2-.9.5-.5.7-.4,1.2-.9.5-.5.3-.8.8-1.3.5-.5.8-.2,1.3-.7.5-.5.5-.5,1.1-1,.5-.5.5-.6,1-1.1.5-.5.6-.4,1.1-.9.5-.5.4-.6.9-1.1s.2-.8.7-1.3c.5-.5.8-.2,1.4-.7.5-.5.5-.5,1-1,.5-.5.7-.3,1.2-.8.5-.5.5-.5,1.1-1,.5-.5.4-.6.9-1.1.5-.5.4-.6.9-1.1.5-.5.6-.4,1.2-.9s.2-.8.8-1.3c.4-.4.8-.6,1.2-1,.3-.4.5-.9.8-1.3.3-.4,1-.6,1.2-1,.2-.4.5-.9.7-1.4.2-.5-.1-1.1,0-1.6.1-.5.5-.9.6-1.4.1-.5.5-1,.5-1.5,0-.5-.4-1-.4-1.5,0-.7.4-.7.4-1.4s0-.7,0-1.4-.2-.7-.2-1.4,0-.7,0-1.4.2-.7.2-1.4-.6-.7-.6-1.4.4-.7.4-1.5-.4-.7-.4-1.4.4-.7.4-1.5-.3-.7-.3-1.4.4-.7.4-1.4,0-.7,0-1.5,0-.7,0-1.4-.6-.7-.6-1.5.6-.7.6-1.5,0-.7,0-1.5,0-.7,0-1.5-.4-.7-.4-1.5.5-.7.5-1.5-.2-1-.3-1.5c0-.5,0-1-.1-1.5,0-.5-.7-.8-.8-1.3-.1-.5,0-1.1-.1-1.5-.2-.5-.6-.8-.8-1.3-.2-.4-.5-.9-.8-1.3-.3-.4-.7-.7-1-1-.3-.4-.6-.8-.9-1.1-.3-.3-.7-.7-1.1-1-.4-.3-.5-1-.9-1.3-.4-.3-1-.2-1.5-.4-.4-.2-1-.2-1.4-.4-.5-.2-.9-.4-1.3-.5-.5-.1-.9-.2-1.4-.3-.5,0-.9-.6-1.4-.7-.5,0-1,.2-1.5.2-.7,0-.7-.3-1.4-.3s-.7.2-1.4.2-.7-.4-1.4-.4-.7.3-1.4.3-.7-.1-1.4-.1-.7.2-1.4.2-.7,0-1.4,0-.7.2-1.4.2-.7-.6-1.4-.6-.7.3-1.4.3-.7,0-1.4,0-.7,0-1.4,0-.7,0-1.4,0-.7,0-1.4,0-.7,0-1.4,0-.7.5-1.4.5-.7-.7-1.4-.7-.7,0-1.4,0-.7.5-1.4.5-.7-.2-1.4-.2-.7-.3-1.4-.3-.7.6-1.4.6-.7,0-1.4,0-.7,0-1.4,0-.7-.2-1.4-.2-.7-.2-1.4-.2-.7.3-1.4.3-.7-.3-1.4-.3-.7,0-1.4,0-.7-.2-1.4-.2-.7.2-1.4.2-.7-.2-1.4-.2-.7.5-1.4.5-.7-.2-1.4-.2-.7,0-1.4,0-.7-.3-1.4-.3-.7.1-1.4.1-.7-.1-1.4-.1-.7.1-1.4.1-.7.4-1.4.4-.7-.3-1.4-.3-1.1.1-1.6,0c-.5-.2-.8-.7-1.2-1-.4-.3-1-.5-1.3-.9-.3-.4-.5-.9-.7-1.4-.2-.5.1-1,.1-1.5s-.2-1,0-1.5c.2-.5,0-1.2.4-1.6.3-.4.7-.9,1.2-1.2.4-.3,1-.5,1.5-.6.5-.2,1.1-.3,1.6-.3s.7,0,1.4,0,.7.4,1.4.4.7-.3,1.4-.3.7.1,1.4.1.7,0,1.4,0,.7,0,1.4,0,.7.2,1.4.2.7-.3,1.4-.3.7.5,1.4.5.7,0,1.4,0,.7,0,1.4,0,.7.2,1.4.2.7-.2,1.4-.2.7,0,1.4,0,.7.3,1.4.3.7,0,1.4,0,.7-.5,1.4-.5.7.3,1.4.3.7-.2,1.4-.2.7,0,1.4,0,.7.6,1.4.6.7-.4,1.4-.4.7,0,1.4,0,.7-.2,1.4-.2.7.6,1.4.6.7-.1,1.4-.1.7,0,1.4,0,.7.2,1.4.2.7-.7,1.4-.7.7.4,1.4.4.7-.3,1.4-.3.7.2,1.4.2.7,0,1.4,0,.7-.2,1.4-.2.7.2,1.4.2.7-.1,1.4-.1.7-.2,1.4-.2.7.3,1.4.3.7-.3,1.4-.3.7,0,1.4,0,.7,0,1.4,0,.9.3,1.4.2c.5,0,.9-.5,1.3-.6.5,0,1,.1,1.4,0,.5-.1.8-.4,1.3-.6.4-.2.9-.2,1.3-.4.4-.2.9-.4,1.3-.6.4-.2,1-.3,1.3-.6.4-.3.6-.7,1-1.1.3-.3.6-.8.9-1.1.3-.3.5-.8.8-1.1.3-.4.4-.8.7-1.2.2-.4.8-.6,1-1,.2-.4.4-.8.6-1.3.2-.4.5-.8.6-1.3.1-.4-.3-1-.2-1.5,0-.4.2-1,.4-1.4.2-.4.9-.5,1.2-.9.3-.3.5-.7.9-1,.4-.2.8-.3,1.3-.5.4-.1.8-.2,1.3-.2s1.1-.3,1.6-.1c.5.2.7.9,1.1,1.2.4.3,1,.5,1.3.9.3.4.3,1,.4,1.5.2.5.7.9.7,1.5s0,.7,0,1.4-.5.7-.5,1.4.2.7.2,1.4-.3.7-.3,1.4.2.7.2,1.4,0,.7,0,1.4,0,.7,0,1.4-.2.7-.2,1.4.3.7.3,1.4.3.7.3,1.4-.6.7-.6,1.4.2.7.2,1.4,0,.7,0,1.4,0,.7,0,1.4-.2.7-.2,1.4.7.7.7,1.4-.5.7-.5,1.4.5.7.5,1.4-.6.7-.6,1.4.6.7.6,1.4-.5.7-.5,1.4.5.7.5,1.4,0,.7,0,1.4,0,.7,0,1.4-.4.7-.4,1.4.3.7.3,1.4,0,.7,0,1.4.3.7.3,1.4-.3.7-.3,1.4.3.7.3,1.4-.4.7-.4,1.4,0,.7,0,1.4,0,.7,0,1.4.3.7.3,1.4,0,.7,0,1.4-.3.7-.3,1.4,0,.7,0,1.4.6.7.6,1.4-.5.7-.5,1.4.5.7.5,1.4-.2.7-.2,1.4,0,.7,0,1.4,0,.7,0,1.4-.5.7-.5,1.4.4.7.4,1.4-.2.9-.2,1.4c0,.4,0,.9,0,1.4,0,.4.5.8.7,1.2.1.4.2.9.4,1.3.2.4,0,.9,0,1.5,0,.5.2.9,0,1.4,0,.5-.4.8-.7,1.2-.2.4-.3.9-.7,1.2-.5.5-.4.6-.9,1.1-.5.5-.6.4-1.1.9-.5.5-.6.5-1.1,1-.5.5-.3.7-.8,1.2-.5.5-.6.4-1.1.9-.5.5-.8.2-1.3.7-.5.5-.4.6-.9,1.1-.5.5-.6.4-1.1.9-.5.5-.4.6-.9,1.1-.5.5-.4.6-.9,1.1-.5.5-.4.6-.9,1.1-.5.5-.5.6-1,1.1-.5.5-.9.1-1.4.6-.5.5-.4.7-.9,1.2s-.6.4-1.1.9-.4.6-.9,1.1c-.5.5-.6.4-1.1.9-.5.5-.7.3-1.2.8-.5.5-.4.7-.9,1.2-.5.5-.6.4-1.1.9-.5.5-.2.8-.7,1.3-.5.5-.5.5-1,1-.5.5-.9.1-1.4.6-.5.5-.2.8-.8,1.3-.5.5-.4.6-1,1.1-.5.5-.8.2-1.3.7-.5.5-.2.8-.7,1.3-.5.5-.6.4-1.1.9-.5.5-.6.4-1.2.9s-.4.6-1,1.1c-.5.5-.7.3-1.3.8s-.2.9-.7,1.4c-.5.5-.5.5-1.1,1-.5.5-.8.2-1.3.7-.5.5-.4.6-.9,1.1s-.6.5-1.1,1c-.5.5-.7.3-1.3.8-.5.5-.3.8-.8,1.3-.5.5-.7.3-1.2.8-.5.5-.2.8-.7,1.3-.5.5-1,0-1.5.5-.5.5-.4.7-.9,1.2-.5.5-.6.4-1.2.9s-.5.5-1,1c-.5.5-.5.5-1,1-.5.5-.4.6-.9,1.1s-.4.6-.9,1.1c-.5.5-.4.6-.9,1.1-.5.5-.9.1-1.4.6-.5.5-.2.8-.7,1.3-.5.5-.8.2-1.3.7-.5.5-.4.6-1,1.1-.5.5-.6.4-1.1.9-.5.5-.5.6-1,1.1-.5.5-.3.7-.8,1.2-.5.5-.7.3-1.2.8-.5.5-.8.2-1.3.7s-.5.5-1,1c-.5.5,0,1-.6,1.4-.5.5-.6.4-1.1.9-.5.5-.4.6-.9,1.1-.5.5-.7.4-1.2.9s-.6.4-1.2.9c-.5.5-.6.4-1.1.9s-.5.5-1.1,1c-.5.5-.6.4-1.1.9s-.4.7-.9,1.2c-.5.5-.3.7-.8,1.2-.5.5-.5.5-1.1,1-.5.5-.7.3-1.2.8-.5.5-.8.3-1.3.8-.5.5-.4.6-1,1.1-.5.5-.4.6-.9,1.1-.5.5-.5.6-1,1.1s-.8.2-1.3.7c-.5.5-.3.8-.8,1.3s-.3.7-.8,1.2-.8.2-1.3.7c-.5.5-.6.4-1.2.9-.5.5-.4.6-1,1.1s-.4.7-.9,1.2c-.5.5-.8.2-1.3.7-.5.5-.1.9-.7,1.4-.5.5-.6.4-1.1.9-.5.5-.7.3-1.2.8-.5.5-.4.6-.9,1.1-.5.5-.5.5-1,1-.5.5-.8.2-1.3.7-.5.5-.6.5-1.1,1s-.3.7-.9,1.2c-.5.5-.7.3-1.3.8-.5.5-.3.7-.8,1.2-.5.5-.8.2-1.3.7-.5.5-.4.6-1,1.1-.5.5-.1.9-.7,1.4-.5.5-.9.1-1.4.6-.5.5-.4.7-.9,1.2-.5.5-.4.7-.9,1.2-.5.5-.9.1-1.4.6-.5.5-.2.8-.8,1.3-.5.5-.4.6-1,1.1-.5.5-.8.2-1.4.7-.5.5-.3.8-.8,1.3-.5.5-.5.5-1.1,1-.5.5-.7.3-1.2.8-.5.5-.2.8-.7,1.3-.5.5-.9.1-1.4.6-.5.5-.3.7-.8,1.2-.5.5-.6.4-1.1.9-.5.5-.7.3-1.2.8-.5.5-.3.7-.8,1.2-.5.5-.4.6-.9,1.1-.5.5-.6.5-1.1,1-.5.5-.7.4-1.2.9-.5.5-.6.4-1.1.9-.5.5-.3.7-.8,1.2-.5.5-.8.2-1.3.7-.5.5-.6.4-1.1.9-.5.5-.5.5-1,1-.5.5-.3.7-.8,1.2-.5.5-.4.6-.9,1.1-.5.5-.8.2-1.3.7-.5.5-.5.6-1,1.1-.5.5-.4.6-.9,1.1-.5.5-.9.1-1.4.6-.5.5-.5.5-1.1,1-.5.5-.1.9-.7,1.4-.5.5-.9,0-1.4.6-.5.5,0,1-.6,1.5-.5.5-.7.3-1.3.8-.5.5-.5.6-1,1.1-.5.5-.8.2-1.3.7-.5.5-.4.6-1,1.1-.5.5-.4.6-.9,1.1-.5.5-.5.5-1,1-.5.5-.6.5-1.1,1-.5.5-.4.6-1,1.1-.5.5-.4.6-.9,1.1-.5.5-.6.5-1.1,1-.5.5-.4.6-.9,1.1-.5.5-1,0-1.5.5-.3.3-.4.7-.8.9-.4.2-.8.3-1.2.4-.4.1-.8.4-1.2.4-.7,0-.7,0-1.4,0s-.7.2-1.4.2-.7.1-1.4.1-.7-.3-1.4-.3-.7,0-1.4,0-.7,0-1.4,0-.7.3-1.4.3-.7,0-1.4,0-.7-.4-1.4-.4-.7,0-1.4,0-.7.5-1.4.5-.7-.3-1.4-.3-.7,0-1.4,0-.7,0-1.4,0-.7,0-1.4,0-.7,0-1.4,0-.7.4-1.4.4-.7-.2-1.4-.2-.7-.2-1.4-.2-.7.4-1.4.4-.7,0-1.4,0-.7-.6-1.4-.6-.7.4-1.4.4-.7-.5-1.4-.5-.7.5-1.4.5-.7-.4-1.4-.4-.7,0-1.4,0-.7.6-1.4.6-.7-.5-1.4-.5-.7.6-1.4.6-.7-.3-1.4-.3-.7-.4-1.4-.4-.7,0-1.4,0-.7.3-1.4.3-.7,0-1.4,0-.7-.4-1.4-.4-.7,0-1.4,0-.7.4-1.4.4-.7,0-1.4,0-.7,0-1.4,0-.7-.7-1.4-.7-.7.4-1.4.4-.7.2-1.4.2-.7-.2-1.4-.2-.7,0-1.4,0-.7,0-1.4,0-.7.3-1.4.3-.7-.4-1.4-.4-.7-.1-1.4-.1-.7.2-1.4.2-.7,0-1.4,0-.7-.2-1.4-.2-.7.1-1.4.1-.7-.1-1.4-.1-.7.2-1.4.2-.7-.2-1.4-.2-.7.5-1.4.5-.7-.3-1.4-.3-.7-.1-1.4-.1-.7.3-1.4.3-.7,0-1.5,0c-.7,0-.7-.3-1.4-.3s-.9-.2-1.4-.4c-.5-.2-1-.2-1.4-.5-.4-.3-1.2-.3-1.5-.7-.3-.4-.5-1-.6-1.5-.2-.5-.2-1.1-.2-1.6s.3-.7.3-1.4-.2-.7-.2-1.4-.2-.7-.2-1.4.5-.7.5-1.4,0-.7,0-1.4-.2-.7-.2-1.4-.3-.7-.3-1.4.5-.7.5-1.4-.4-.7-.4-1.4-.1-.7-.1-1.4.1-.7.1-1.4.6-.7.6-1.4-.3-.7-.3-1.4.3-.7.3-1.4,0-.7,0-1.4,0-.7,0-1.4-.4-.7-.4-1.4.2-.7.2-1.4-.1-.7-.1-1.4.5-.7.5-1.4,0-.7,0-1.4-.2-.7-.2-1.4,0-.7,0-1.4-.4-.7-.4-1.4.3-.7.3-1.4,0-.7,0-1.4.1-.7.1-1.4-.2-.7-.2-1.4,0-.7,0-1.4,0-.7,0-1.4.2-.7.2-1.4,0-.7,0-1.4-.1-.7-.1-1.4-.1-.7-.1-1.4.2-.7.2-1.4-.3-.7-.3-1.4,0-.7,0-1.4,0-.7,0-1.4,0-.7,0-1.4,0-.7,0-1.4.3-.7.3-1.4-.2-.7-.2-1.4,0-.7,0-1.4.5-.7.5-1.4-.2-.7-.2-1.4-.3-.7-.3-1.4.6-.7.6-1.4,0-.7,0-1.4,0-.7,0-1.4-.2-.7-.2-1.4.2-.7.2-1.4-.3-.7-.3-1.4-.1-.7-.1-1.4.4-.7.4-1.4-.2-.7-.2-1.4-.2-.7-.2-1.4.3-.7.3-1.4,0-.7,0-1.4-.5-.7-.5-1.4.6-.7.6-1.4,0-.7,0-1.4-.2-.7-.2-1.4.4-.7.4-1.4-.2-.7-.2-1.4.2-.7.2-1.4-.5-.7-.5-1.4-.1-.7-.1-1.4.4-.7.4-1.4.2-.7.2-1.4-.2-.7-.2-1.4-.1-.7-.1-1.4.4-.7.4-1.4,0-.7,0-1.4,0-.7,0-1.4-.2-.7-.2-1.4-.1-.7-.1-1.4,0-.7,0-1.4-.2-.7-.2-1.4.3-.7.3-1.4,0-.7,0-1.4,0-.7,0-1.4-.1-.7-.1-1.4,0-.7,0-1.4-.2-.7-.2-1.4.2-.7.2-1.4,0-.7,0-1.4.3-.7.3-1.4-.2-.7-.2-1.4.3-.7.3-1.4-.2-.7-.2-1.4.1-.7.1-1.4-.5-.7-.5-1.4.5-.7.5-1.4-.5-.7-.5-1.4,0-.7,0-1.4,0-.7,0-1.4,0-.7,0-1.4.5-.7.5-1.4-.1-.7-.1-1.4,0-.7,0-1.4-.3-.7-.3-1.4.6-.7.6-1.4-.3-.7-.3-1.4.2-.7.2-1.4-.5-.7-.5-1.4.2-.7.2-1.4,0-.7,0-1.4,0-.7,0-1.4.1-.7.1-1.4.2-.7.2-1.4-.4-.7-.4-1.4,0-.7,0-1.4.2-.7.2-1.4,0-.7,0-1.4-.3-.7-.3-1.4.3-.7.3-1.4-.1-.7-.1-1.4,0-.7,0-1.4,0-.7,0-1.4.2-.7.2-1.4-.2-.7-.2-1.5.2-.7.2-1.5.4-1,.4-1.5c0-.5-.5-.9-.6-1.4,0-.5.2-1.1,0-1.5-.1-.5-.4-.9-.5-1.4-.2-.5-.5-.9-.7-1.3-.2-.4-.8-.7-1.1-1.1-.3-.4-.5-.8-.8-1.2-.3-.4-.5-.9-.8-1.2-.3-.3-.6-.8-1-1.1-.4-.3-.8-.6-1.2-.9-.4-.3-1-.2-1.5-.4-.4-.2-.7-.7-1.2-.9-.5-.2-1.1.2-1.6,0-.5-.1-.9-.5-1.4-.5-.5,0-1,0-1.5,0-.5,0-.9-.8-1.4-.8-.7,0-.7.3-1.4.3s-.7.3-1.4.3-.7-.2-1.4-.2-.7-.2-1.4-.2-.7-.1-1.4-.1-.7.5-1.4.5-.7-.6-1.4-.6-.7.1-1.4.1-.7,0-1.4,0-.7.1-1.4.1-.7-.2-1.4-.2-.7,0-1.4,0-.7,0-1.4,0-.7.3-1.4.3-.7-.2-1.4-.2-.7.3-1.4.3-.7-.4-1.4-.4-.5,0-.7-.1C10.2,169.2,0,208.4,0,250s13.5,92.5,36.8,130.5c.2-.2.4-.4.7-.4.7,0,.7.4,1.4.4s.7-.5,1.4-.5.7.4,1.4.4.7.3,1.4.3.7-.1,1.4-.1.7.6,1.4.6.7,0,1.4,0,.7,0,1.4,0,.7-1,1.4-1,.7,0,1.4,0,.7.8,1.4.8.7-.6,1.4-.6.7.8,1.4.8.7,0,1.4,0,.7-.6,1.4-.6.7.6,1.4.6.7-.8,1.4-.8.7.8,1.4.8.7-.2,1.4-.2.7.2,1.4.2.7-.7,1.4-.7.7.4,1.4.4.7,0,1.4,0,.7-.3,1.4-.3.7-.4,1.4-.4.7,1,1.4,1,.7-.9,1.4-.9.7-.1,1.4-.1.7.6,1.4.6.7.4,1.4.4.7,0,1.4,0,.7-.9,1.4-.9.7.3,1.4.3.7-.3,1.4-.3.7.7,1.4.7.7-.7,1.4-.7.7,1,1.4,1,.7-.2,1.4-.2.7.3,1.4.3.7-1,1.4-1,.7.8,1.4.8.7-.7,1.4-.7.7.6,1.4.6.7-.4,1.4-.4.7.4,1.4.4.7,0,1.4,0,.7-.4,1.4-.4.7-.3,1.4-.3.7,0,1.4,0,.7.1,1.4.1.7.9,1.4.9.7-.1,1.4-.1.7-.2,1.4-.2.7-.3,1.4-.3.7-.5,1.4-.5.7.3,1.4.3.7.2,1.4.2.7.6,1.4.6.7-1.1,1.4-1.1.7.3,1.4.3.7.2,1.4.2.7.2,1.4.2.7.3,1.4.3.7-.4,1.4-.4.7,0,1.4,0,.7-.6,1.4-.6.7.1,1.4.1.7.1,1.4.1.7,0,1.4,0,.7.4,1.4.4.7-.6,1.4-.6.7,0,1.4,0,.7.5,1.4.5.7-.2,1.4-.2.7.1,1.4.1.7.7,1.4.7.7-.9,1.4-.9.7.7,1.4.7.7.3,1.4.3.7-.5,1.4-.5.7.4,1.4.4.7,0,1.4,0,.7-.6,1.4-.6.7-.1,1.4-.1.7,0,1.4,0,.7.4,1.4.4.7-.3,1.4-.3.7.5,1.4.5.7,0,1.4,0,.7.2,1.4.2.7.2,1.4.2.7-1,1.4-1,.7.2,1.4.2.7-.3,1.4-.3.7.7,1.4.7.7-.2,1.4-.2.7-.7,1.4-.7.7,0,1.4,0,.7.6,1.4.6.7-.6,1.4-.6.7.8,1.4.8.7,0,1.4,0,.7-.3,1.4-.3.7.6,1.4.6.7-.2,1.4-.2.7-.8,1.4-.8.7.9,1.4.9.7-.7,1.4-.7.7,0,1.4,0,.7,0,1.4,0,.7.4,1.4.4.7-.4,1.4-.4.7.4,1.4.4.7.2,1.4.2.7-.7,1.4-.7.7.7,1.4.7.7-.9,1.4-.9.7,1.2,1.4,1.2.7-1.1,1.4-1.1.7.5,1.4.5.7,0,1.4,0,.7.6,1.4.6.7-.6,1.4-.6.7.3,1.4.3.7.2,1.4.2.7-.9,1.4-.9.7.9,1.4.9.7,0,1.4,0,.7-.5,1.4-.5.7-.1,1.4-.1.7.6,1.4.6.7-.8,1.4-.8.7.8,1.4.8.7-.7,1.4-.7.7,0,1.4,0,.7.4,1.4.4.7-.6,1.4-.6.7.7,1.4.7.7,0,1.4,0,.7.3,1.4.3.7-.8,1.4-.8.7.2,1.4.2.7.3,1.4.3.7-.6,1.4-.6.7.2,1.4.2.7.4,1.4.4.7-.2,1.4-.2.7.2,1.4.2.7-.7,1.4-.7.7,0,1.4,0,.7,0,1.4,0,.7.6,1.4.6.7.4,1.4.4.7,0,1.4,0,.7-1,1.4-1,.7.8,1.4.8.7-.3,1.4-.3.7-.7,1.4-.7.7.8,1.4.8.7-.4,1.4-.4.7.7,1.4.7.7-.5,1.4-.5.7.1,1.4.1.7,0,1.4,0,.7-.3,1.4-.3.7-.3,1.4-.3.7.5,1.4.5.7,0,1.4,0,.7.1,1.4.1.7-.1,1.4-.1.7-.4,1.4-.4.7.6,1.4.6.7,0,1.4,0,.7,0,1.4,0,.7-.5,1.4-.5.7,0,1.4,0,.7,1,1.4,1,.7-.4,1.4-.4.7.2,1.4.2.7.2,1.4.2.7-.8,1.4-.8.7.6,1.4.6.7-.7,1.4-.7.7.2,1.4.2.7,0,1.4,0,.7-.2,1.4-.2.7.5,1.4.5.7.4,1.4.4.7,0,1.4,0,.7-.3,1.4-.3.7.3,1.4.3.7-.9,1.4-.9.7.7,1.4.7.7.2,1.4.2.7-.8,1.4-.8.7.6,1.4.6.7-.3,1.4-.3.7,0,1.4,0,.7.3,1.4.3.7-.9,1.4-.9.7.3,1.4.3.7.2,1.4.2.7.5,1.5.5.7-.8,1.5-.8.7-.2,1.5-.2.9.4,1.4.3c.5,0,.9-.3,1.3-.4.5,0,1.1.6,1.6.4.5-.1.9-.5,1.3-.7s.8-.5,1.2-.8c.4-.2.8-.4,1.2-.7.4-.3.8-.5,1.2-.7.4-.3.7-.6,1-1,.5-.5.5-.5,1.1-1,.5-.5.7-.4,1.2-.8.5-.5.3-.7.9-1.2.5-.5.3-.7.8-1.2.5-.5,1.1.1,1.6-.4.5-.5.3-.7.8-1.2.5-.5.3-.8.8-1.3.5-.5,1,0,1.5-.5.5-.5-.1-1.2.4-1.7.5-.5,1.2.2,1.7-.3.5-.5.3-.8.8-1.3.5-.5.6-.4,1.1-.9.5-.5.6-.4,1.2-.9.5-.5,0-1.2.4-1.6.5-.5.9,0,1.4-.6.5-.5.3-.7.8-1.2.5-.5.9-.1,1.4-.6.5-.5.6-.4,1.1-.9.5-.5.4-.6,1-1.1.5-.5.6-.5,1.1-1,.5-.5.5-.5,1-1,.5-.5.8-.2,1.3-.7.5-.5.3-.8.8-1.3.5-.5.5-.5,1-1,.5-.5.8-.2,1.3-.7.5-.5.2-.8.8-1.3.5-.5.5-.5,1-1s.9-.1,1.4-.6c.4-.3.2-1.2.6-1.6.3-.4.7-.7,1-1.1.3-.4.3-1,.5-1.4.2-.4.8-.7,1-1.1.2-.5.3-.9.4-1.4.2-.5.5-.9.6-1.4.1-.5.4-.9.5-1.4,0-.5-.5-1-.5-1.5,0-.5,1.1-1,1-1.5,0-.5-.7-.9-.8-1.4,0-.5-.4-.9-.5-1.4-.1-.5-.6-.8-.8-1.3-.2-.5.2-1.2,0-1.6-.2-.4,0-1.1-.3-1.6-.3-.4-1-.5-1.3-.9-.3-.4-1.1-.3-1.4-.7-.3-.4,0-1.4-.4-1.7-.4-.3-1.3.1-1.7-.2-.4-.3-.7-.7-1.1-.9-.4-.2-.5-1.3-1-1.5-.5-.2-1.3.5-1.7.4-.5-.1-.9-.6-1.3-.7-.5,0-1-.2-1.5-.2-.5,0-1-.5-1.5-.5-.7,0-.7.8-1.4.8s-.7-.4-1.4-.4-.7.2-1.4.2-.7-.7-1.4-.7-.7.8-1.4.8-.7,0-1.4,0-.7-.8-1.4-.8-.7.9-1.4.9-.7-.6-1.4-.6-.7-.4-1.4-.4-.7.3-1.4.3-.7.5-1.4.5-.7,0-1.4,0-.7-.6-1.4-.6-.7,0-1.4,0-.7.8-1.4.8-.7-.6-1.4-.6-.7-.4-1.4-.4-.7.6-1.4.6-.7.3-1.4.3-.7,0-1.4,0-.7-.7-1.4-.7-.7,0-1.4,0-.7.7-1.5.7-.7-.1-1.4-.1-.7-.8-1.4-.8-.7.5-1.4.5-.7-.1-1.4-.1-.7,0-1.4,0-.7.5-1.4.5-.7-.6-1.5-.6-.7.8-1.4.8-.7-.3-1.4-.3-.7-.8-1.4-.8-.7.1-1.5.1-.7.1-1.5.1-.7.6-1.4.6-.7-.7-1.4-.7-.7.9-1.5.9-.7,0-1.5,0-.7-.8-1.5-.8-.7.5-1.5.5-.7-.4-1.5-.4-.7-.1-1.4-.1-.7.1-1.4.1-.7.6-1.5.6-.7-.3-1.5-.3-.7.5-1.5.5-.7-1.2-1.5-1.2-.7,1.2-1.5,1.2-.7-.1-1.5-.1-.7,0-1.5,0-.7-.7-1.5-.7-1.1.2-1.6,0c-.5-.2-1.1-.2-1.6-.5-.4-.3-.2-1.2-.5-1.6-.3-.4-1-.6-1.2-1.1-.2-.5-.2-1-.2-1.6s.1-1.1.3-1.6c.2-.5.6-.9.9-1.3.3-.4.9-.5,1.3-.8.4-.3.7-.6,1.2-.8.5-.2.9-.5,1.4-.5s.7.5,1.4.5.7,0,1.4,0,.7-.3,1.4-.3.7-.6,1.4-.6.7.4,1.4.4.7-.4,1.4-.4.7.9,1.4.9.7-.2,1.4-.2.7-.7,1.4-.7.7.3,1.4.3.7,0,1.4,0,.7.4,1.4.4.7-.8,1.4-.8.7.9,1.4.9.7-.6,1.4-.6.7-.2,1.4-.2.7.6,1.4.6.7-.4,1.4-.4.7.6,1.4.6.7-.5,1.4-.5.7-.2,1.4-.2.7,1,1.4,1,.7-.4,1.4-.4.7.5,1.4.5.7,0,1.4,0,.7-1,1.4-1,.7,0,1.4,0,.7,1,1.4,1,.7-.6,1.4-.6.7-.2,1.4-.2.7,0,1.4,0,.7,0,1.4,0,.7-.3,1.4-.3.7.6,1.4.6.7-.2,1.4-.2.7,0,1.4,0,.7.6,1.4.6.7,0,1.4,0,.7-.5,1.4-.5.7.3,1.4.3.7-.6,1.4-.6.7.4,1.4.4.7-.3,1.4-.3.7.1,1.4.1.7-.2,1.4-.2.7.2,1.4.2.7,0,1.4,0,.7,0,1.4,0,.7.7,1.4.7.7-.8,1.4-.8.7.8,1.4.8.7-.6,1.4-.6.7,0,1.4,0,.7-.2,1.4-.2.7,0,1.4,0,.7-.1,1.4-.1.7.7,1.4.7.7-.3,1.4-.3.7.5,1.4.5.7-.4,1.4-.4.7-.5,1.4-.5.7.4,1.4.4.7,0,1.4,0,.7-.3,1.4-.3.7.1,1.4.1.7-.4,1.4-.4.7.7,1.4.7.7.2,1.4.2.7,0,1.4,0,.7-.4,1.4-.4.7.5,1.4.5.7-.2,1.4-.2.7-.9,1.4-.9.7.4,1.4.4.7.4,1.4.4.7-.2,1.4-.2.7.4,1.4.4.7-.3,1.4-.3.7-.6,1.4-.6.7,0,1.4,0,.7.4,1.4.4.7.6,1.4.6.7-.4,1.4-.4,1,.1,1.4,0c.5,0,1-.1,1.4-.2.5,0,.8-.8,1.2-.9.5-.1,1.2.5,1.6.4s.9-.4,1.3-.6c.4-.2.5-1.1.9-1.3.4-.3,1.3.1,1.6-.1.4-.3.1-1.3.5-1.6.5-.5.5-.6,1-1,.5-.5.8-.1,1.4-.6.5-.5.5-.5,1-1,.5-.5.5-.5,1-1,.5-.5.1-.9.7-1.4.5-.5.5-.5,1.1-1,.5-.5,1,0,1.6-.4.5-.5.3-.7.8-1.2.5-.5.3-.7.8-1.2.5-.5,1,0,1.5-.5.5-.5.7-.4,1.2-.9.3-.3.4-.9.7-1.2.3-.3.1-1.1.4-1.4.3-.4.4-.8.7-1.1.2-.4,1-.5,1.2-.9.2-.4.4-.8.6-1.2s.5-.8.6-1.3c.1-.4-.2-1-.1-1.4,0-.4.6-.8.7-1.3,0-.5-.1-.9-.1-1.4,0-.7.4-.7.4-1.4s-.6-.7-.6-1.4.3-.7.3-1.4-.2-.7-.2-1.4.4-.7.4-1.4,0-.7,0-1.4.2-.7.2-1.4-.3-.7-.3-1.4,0-.7,0-1.4-.4-.7-.4-1.4,0-.7,0-1.4.4-.7.4-1.4-.4-.7-.4-1.4-.4-.7-.4-1.4.7-.7.7-1.4.4-.7.4-1.4-.9-.7-.9-1.4.3-.7.3-1.4.4-.7.4-1.4,0-.7,0-1.4-.3-.7-.3-1.4.3-.7.3-1.4-.3-.7-.3-1.4.1-.7.1-1.4,0-.7,0-1.4-.3-.7-.3-1.4-.4-.7-.4-1.4.7-.7.7-1.4.5-.7.5-1.4-.4-.7-.4-1.4-.3-.7-.3-1.4-.1-.7-.1-1.4.4-.7.4-1.4,0-.7,0-1.4.4-.7.4-1.4-.6-.7-.6-1.4-.4-.7-.4-1.4.8-.7.8-1.4,0-.7,0-1.4-.8-.7-.8-1.4.9-.7.9-1.4-.1-.7-.1-1.4.4-.7.4-1.4-.1-.7-.1-1.4-.7-.7-.7-1.4.5-.7.5-1.4-.5-.7-.5-1.4.6-.7.6-1.4-.7-.7-.7-1.4.8-.7.8-1.4-.8-.7-.8-1.4.5-.7.5-1.4,0-.7,0-1.4,0-.7,0-1.4-.7-.7-.7-1.4.2-.7.2-1.4.5-.7.5-1.4-1-.7-1-1.4.2-.7.2-1.4.7-.7.7-1.4-.6-.7-.6-1.4.6-.7.6-1.4.2-.7.2-1.4-.5-.7-.5-1.4-.2-.7-.2-1.4-.3-.7-.3-1.4,0-.7,0-1.4.1-.7.1-1.4,0-.7,0-1.4.3-.7.3-1.4-.6-.7-.6-1.4.8-.7.8-1.4-.2-.7-.2-1.4-.7-.7-.7-1.4-.1-.7-.1-1.4.4-.7.4-1.4.7-.7.7-1.4-.1-.7-.1-1.4.1-.7.1-1.4,0-.7,0-1.4-.7-.7-.7-1.4.5-.7.5-1.4-.2-.7-.2-1.4,0-.7,0-1.4,0-.7,0-1.4.1-.7.1-1.4-.7-.7-.7-1.4-.2-.7-.2-1.4,1-.7,1-1.5-.3-.7-.3-1.4.3-.7.3-1.5,0-.7,0-1.5.1-.7.1-1.4-.8-.7-.8-1.5.6-.7.6-1.5,0-.7,0-1.5-.7-.9-.8-1.4c0-.5.8-1.1.7-1.6,0-.5-.9-.8-1-1.3-.1-.5.1-1.1,0-1.5-.2-.5-1-.6-1.3-1-.2-.4-.4-.8-.7-1.3-.3-.4-.4-.9-.7-1.3-.3-.4-.5-.9-.8-1.2s-1-.3-1.4-.6c-.4-.3-.7-.6-1.1-.8-.4-.3-.4-1.1-.9-1.4-.4-.2-.9-.3-1.4-.5-.5-.2-.9-.3-1.4-.4-.5-.1-.9-.5-1.4-.6-.5,0-1,0-1.5,0-.5,0-1-.7-1.5-.7-.7,0-.7,0-1.4,0s-.7.5-1.4.5-.7-.6-1.4-.6-.7.2-1.4.2-.7.2-1.4.2-.7.4-1.4.4-.7-.1-1.4-.1-.7,0-1.4,0-.7.6-1.4.6-.7-.2-1.4-.2-.7-.6-1.4-.6-.7.4-1.4.4-.7-.5-1.4-.5-.7.6-1.4.6-.7-.3-1.4-.3-.7-.6-1.4-.6-.7.9-1.4.9-.7-.4-1.4-.4-.7,0-1.4,0-.7,0-1.4,0-.7,0-1.4,0-.7-.4-1.4-.4-.7.3-1.4.3-.7-.5-1.4-.5-.7.4-1.4.4-.7-.3-1.4-.3-.7,0-1.4,0-.7-.2-1.4-.2-.7,1.1-1.4,1.1-.7-1-1.4-1-.7-.1-1.4-.1-.7.2-1.4.2-.7.6-1.4.6-.7-.5-1.4-.5-.7.2-1.4.2-.7-.4-1.4-.4-.7,0-1.4,0-.7.9-1.4.9-.7,0-1.4,0-.7.1-1.4.1-.7-.9-1.4-.9-.7.9-1.4.9-.7-.2-1.4-.2-.7.3-1.4.3-.7-.2-1.4-.2-.7-.5-1.4-.5-.7.6-1.4.6-1.1-.5-1.5-.7c-.5-.2-.9-.5-1.3-.8-.4-.3-1-.5-1.3-.9-.3-.4-.5-1-.7-1.5-.2-.5-.4-1-.4-1.6s-.2-1.2,0-1.7c.2-.5,1-.8,1.3-1.2.3-.4.6-.8,1.1-1.2.4-.3.9-.7,1.4-.8.5-.2,1.1.3,1.6.3s.7-1,1.4-1,.7,0,1.4,0,.7,1.1,1.4,1.1.7,0,1.4,0,.7-.9,1.4-.9.7-.2,1.4-.2.7,1,1.4,1,.7-1,1.4-1,.7.4,1.4.4.7-.2,1.4-.2.7,0,1.4,0,.7-.2,1.4-.2.7.4,1.4.4.7-.3,1.4-.3.7.6,1.4.6.7.3,1.4.3.7,0,1.4,0,.7-.8,1.4-.8.7.6,1.4.6.7-.2,1.4-.2.7-.3,1.4-.3.7.2,1.4.2.7,0,1.4,0,.7.4,1.4.4.7-.5,1.4-.5.7.5,1.4.5.7,0,1.4,0,.7-.7,1.4-.7.7.4,1.4.4.7-.2,1.4-.2.7.6,1.4.6.7-.9,1.4-.9.7.7,1.4.7.7-.4,1.4-.4.7-.2,1.4-.2.7.8,1.4.8.7.1,1.4.1.7-.3,1.4-.3.7-.5,1.4-.5.7-.3,1.4-.3.7,1,1.4,1,.7-1,1.4-1,.7.4,1.4.4.7.3,1.4.3.7-.5,1.4-.5.7,0,1.4,0,.7.4,1.4.4.7.5,1.4.5.7-.9,1.4-.9.7.6,1.4.6.7.3,1.4.3.7-.6,1.4-.6.7,0,1.4,0,.7-.5,1.4-.5.7.3,1.4.3.7,0,1.4,0,.7.3,1.4.3.7-.6,1.4-.6.7.5,1.4.5.7.1,1.4.1.7-.7,1.4-.7.7.3,1.4.3.7,0,1.4,0,.7.6,1.4.6.7-.3,1.4-.3.7.2,1.4.2.7-.3,1.4-.3.7.4,1.4.4.7-1,1.4-1,.7-.1,1.4-.1.7.4,1.4.4.7.6,1.4.6.7-.4,1.4-.4.7,0,1.4,0,.7,0,1.4,0,.7,0,1.4,0,.7-.3,1.4-.3.7.8,1.4.8.7-.4,1.4-.4.7.2,1.4.2.6-.2.8-.4c-35.1-59.5-94.2-103.3-164-117.9-.3.2-.5.2-.8.6Z"/>
  <path class="cls-1" d="M215.2,496.8c.5-.5.4-.7.9-1.2.5-.5.3-.7.9-1.2.5-.5.4-.6.9-1.1.5-.5.7-.3,1.2-.8.5-.5.5-.5,1-1,.5-.5.9,0,1.4-.6s.2-.8.7-1.3c.5-.5.5-.5,1-1s.2-.8.7-1.3c.5-.5.5-.5,1-1,.5-.5,1.3.3,1.8-.2s-.2-1.2.4-1.7c.5-.5,1.2.2,1.7-.3.5-.5,0-1.1.5-1.6s.4-.6.9-1.1c.5-.5,1,0,1.5-.5.5-.5,0-1,.6-1.5s1.1.1,1.6-.4c.5-.5,0-1.1.4-1.6s.7-.3,1.2-.8c.5-.5.5-.6,1-1,.5-.5,1,0,1.6-.5.5-.5,0-1,.5-1.5.5-.5,1,0,1.5-.5.5-.5.4-.6.9-1.1.5-.5.8-.2,1.3-.7.5-.5-.1-1.2.4-1.7.5-.5,1.1,0,1.6-.4.5-.5,0-1.1.5-1.6.5-.5.6-.4,1.1-.9.5-.5.7-.3,1.2-.8s.6-.4,1.1-.9c.5-.5.6-.4,1.2-.9.5-.5.3-.7.8-1.2.5-.5.4-.6,1-1.1.5-.5.4-.6.9-1.1.5-.5.8-.2,1.3-.7.5-.5,1.1,0,1.6-.4.5-.5.3-.7.8-1.2.5-.5,0-1.1.5-1.6q.5-.5,1.1-1c.5-.5.7-.4,1.2-.8.5-.5.8-.2,1.3-.7.5-.5.2-.9.7-1.4.5-.5,1.2.2,1.7-.3.5-.5.1-.9.7-1.4.5-.5.8-.2,1.3-.7.5-.5,0-1,.6-1.5.5-.5.4-.6.9-1.1.5-.5,1,0,1.5-.5.5-.5.2-.8.7-1.3.5-.5.5-.5,1-1,.5-.5.9,0,1.5-.6.5-.5.1-.9.7-1.4.5-.5.7-.3,1.2-.8.5-.5.3-.7.8-1.2.5-.5.7-.3,1.2-.8.5-.5.8-.2,1.3-.7.5-.5.3-.7.8-1.2.5-.5.6-.4,1.1-.9.5-.5.4-.6,1-1.1.5-.5.9,0,1.5-.6.5-.5.4-.6,1-1.1.5-.5.5-.5,1-1,.5-.5.5-.5,1.1-1,.5-.5.3-.7.8-1.2.5-.5.2-.9.7-1.4.5-.5,1.1.1,1.6-.4.5-.5.1-.9.6-1.4.5-.5,1,0,1.5-.5.5-.5,0-1,.6-1.5.5-.5.7-.3,1.3-.8.5-.5.7-.3,1.3-.8.5-.5.2-.8.8-1.3.5-.5.7-.3,1.3-.8.5-.5.4-.6,1-1.1.5-.5.5-.5,1-1,.5-.5.9-.1,1.4-.6.5-.5.5-.6,1-1.1.5-.5.5-.5,1.1-1s.5-.5,1.1-1c.4-.3.7-.8,1-1.2.3-.4.3-1,.6-1.4.3-.4.5-.8.8-1.3.2-.4.8-.7,1-1.2.2-.5.2-1,.4-1.5.2-.5.5-.9.6-1.4.1-.5,0-1,0-1.5,0-.5.2-1,.2-1.5,0-.5.3-1,.3-1.5,0-.5-.3-1-.4-1.5,0-.5-.4-.9-.6-1.4-.1-.5-.5-.9-.7-1.3s-.6-.8-.8-1.2c-.2-.4.1-1.2-.1-1.7-.3-.4-1-.5-1.3-.9-.3-.4-.2-1.1-.6-1.5-.3-.4-1.1-.3-1.5-.6-.4-.3-.9-.4-1.3-.7-.4-.3-.8-.5-1.2-.8-.4-.2-.7-.9-1.1-1.1-.5-.2-1-.3-1.4-.4-.5-.1-.9-.5-1.4-.6-.5,0-1-.4-1.5-.4-.5,0-1,.7-1.5.7-.7,0-.7-.6-1.4-.6s-.7.3-1.4.3-.7-.1-1.4-.1-.7.3-1.4.3-.7-.8-1.4-.8-.7.3-1.4.3-.7.2-1.4.2-.7,0-1.4,0-.7-.2-1.4-.2-.7.2-1.4.2-.7.2-1.4.2-.7-.3-1.4-.3-.7,0-1.4,0-.7-.2-1.4-.2-.7.5-1.4.5-.7-.8-1.4-.8-.7,0-1.4,0-.7.8-1.4.8-.7-.2-1.4-.2-.7-.6-1.4-.6-.7.7-1.4.7-.7,0-1.4,0-.7-.8-1.4-.8-.7.6-1.4.6-.7-.4-1.4-.4-.7.5-1.4.5-.7.4-1.4.4-.7-1.1-1.4-1.1-.7,1.1-1.4,1.1-.7-.4-1.4-.4-.7-.2-1.4-.2-.7-.5-1.4-.5-.7.8-1.4.8-.7-.2-1.4-.2-.7.3-1.4.3-.7-.6-1.4-.6-.7.5-1.4.5-.7,0-1.4,0-.7-.2-1.4-.2-.7.2-1.4.2-.7-.6-1.4-.6-.7.4-1.4.4-.7.4-1.4.4-.7-.5-1.4-.5-.7.8-1.4.8-.7-.4-1.4-.4-.7-.6-1.4-.6-.7,0-1.4,0-.7.2-1.4.2-.7,0-1.4,0-.7.1-1.4.1-.7.6-1.4.6-.7-.4-1.4-.4-.7-.1-1.4-.1-.7,0-1.4,0-.7-.4-1.4-.4-.7,0-1.4,0-.7,0-1.4,0-.7.9-1.4.9-.7-.3-1.4-.3-.7,0-1.4,0-.7-.7-1.4-.7-.7,0-1.4,0-.7.4-1.4.4-.7-.6-1.4-.6-.7.2-1.4.2-.7,0-1.4,0-.7.1-1.4.1-.7,0-1.4,0-.7.9-1.4.9-.7,0-1.4,0-.7-1.1-1.4-1.1-.7.6-1.4.6-.7.1-1.4.1-.7-.6-1.4-.6-.7.1-1.4.1-.7.6-1.4.6-.7.1-1.4.1-.7-.7-1.4-.7-.7.6-1.4.6-.7,0-1.4,0-.7.2-1.4.2-.7-.8-1.4-.8-.7.6-1.4.6-.7-.4-1.4-.4-.7.4-1.4.4-.7-.7-1.4-.7-.7.9-1.4.9-.7-.2-1.4-.2-.7-.3-1.4-.3-.7.2-1.4.2-.7-.6-1.4-.6-.7.9-1.4.9-.7-.8-1.4-.8-.7,0-1.4,0-.7.7-1.4.7-.7,0-1.4,0-.7-.4-1.4-.4-.7.3-1.4.3-.7-.9-1.4-.9-.7.6-1.4.6-.7,0-1.4,0-.7.4-1.4.4-.7-.7-1.4-.7-.7.5-1.4.5-.7-.3-1.4-.3-.7.4-1.4.4-.7,0-1.4,0-.7,0-1.4,0-.7,0-1.4,0-.7-.7-1.4-.7-.7.7-1.4.7-.7-.4-1.4-.4-.7.2-1.4.2-.7-.6-1.4-.6-.7.8-1.4.8-.7-.9-1.4-.9-.7.1-1.4.1-.7.7-1.4.7-.7-.9-1.4-.9-.7.1-1.4.1-.7.4-1.4.4-.7-.4-1.4-.4-.7,0-1.4,0-.7,0-1.4,0-.7.6-1.4.6-.7-.3-1.4-.3-.7-.2-1.4-.2-.7-.3-1.4-.3-.7,1-1.4,1-.7-.4-1.4-.4-.7.2-1.4.2-.7-.1-1.4-.1-.7.3-1.4.3-.7-.6-1.4-.6-.7-.4-1.4-.4-.7.4-1.4.4-.7.3-1.4.3-.7-.3-1.4-.3-.7,0-1.4,0-.7.4-1.4.4-.7-.3-1.4-.3-.7.4-1.4.4-.7-.5-1.4-.5-.7,0-1.4,0-.7-.3-1.4-.3-.7,1.1-1.4,1.1-.7-1.1-1.4-1.1-.7.6-1.4.6-.7,0-1.4,0-.7.1-1.4.1-.7-.5-1.4-.5-.7,0-1.4,0-.7.2-1.4.2-.7,0-1.4,0-.7-.3-1.4-.3-.7.8-1.4.8-.7,0-1.4,0-.7-.3-1.4-.3-.7.5-1.4.5-.7-.5-1.4-.5-.7-.3-1.4-.3-.7.1-1.4.1-.7-.2-1.4-.2-.7.5-1.4.5-.7-.6-1.4-.6-.7-.1-1.4-.1-.7.2-1.4.2-.7.8-1.4.8-.7-.3-1.4-.3-.7,0-1.4,0-.2,0-.3,0c38.6,56.5,99.7,96.4,170.5,106.6.5-.4.8,0,1.3-.5Z"/>
  <path class="cls-1" d="M469.6,133.6c-.7,0-.7-.3-1.4-.3s-.7.5-1.4.5-.7-.2-1.4-.2-.7,0-1.4,0-.7,0-1.4,0-.7-.5-1.4-.5-.7.5-1.4.5-.7-.6-1.4-.6-.7,1-1.4,1-.9,0-1.4,0c-.5,0-1.1-.8-1.6-.7-.5,0-1,.4-1.4.6-.5.1-1,.1-1.5.3-.5.2-.6,1-1.1,1.2-.4.2-1.1,0-1.5.3-.4.3-.6.9-1,1.2-.4.3-.9.5-1.2.9-.3.3-.3,1-.6,1.4-.3.4-1.3.3-1.6.7-.3.4.2,1.3,0,1.7-.2.4-.7.7-.9,1.2-.2.5-.6.8-.7,1.3-.1.5.2,1.1.1,1.5,0,.5-.7.9-.7,1.4,0,.5-.3,1-.3,1.5,0,.7.2.7.2,1.4s.4.7.4,1.4,0,.7,0,1.4,0,.7,0,1.4-.7.7-.7,1.4.7.7.7,1.4-.6.7-.6,1.4.7.7.7,1.4-.2.7-.2,1.4.2.7.2,1.4-.4.7-.4,1.4-.2.7-.2,1.4.8.7.8,1.4-1.1.7-1.1,1.4.3.7.3,1.4-.3.7-.3,1.4.2.7.2,1.4.4.7.4,1.4-.5.7-.5,1.4.1.7.1,1.4.3.7.3,1.4-.5.7-.5,1.4.2.7.2,1.4.5.7.5,1.4.3.7.3,1.4-.8.7-.8,1.4-.2.7-.2,1.4,1,.7,1,1.4-.8.7-.8,1.4.5.7.5,1.4-.6.7-.6,1.4.6.7.6,1.4.2.7.2,1.4-.8.7-.8,1.4,0,.7,0,1.4.4.7.4,1.4.2.7.2,1.4-.5.7-.5,1.4,0,.7,0,1.4.4.7.4,1.4.4.7.4,1.4-.3.7-.3,1.4-.2.7-.2,1.4.3.7.3,1.4,0,.7,0,1.4-.4.7-.4,1.4.8.7.8,1.4-.5.7-.5,1.4.2.7.2,1.4.3.7.3,1.4-.5.7-.5,1.4-.3.7-.3,1.4.2.7.2,1.4.6.7.6,1.4,0,.7,0,1.4-.8.7-.8,1.4.4.7.4,1.4-.5.7-.5,1.4,1,.7,1,1.4-.1.7-.1,1.4,0,.7,0,1.4.2.7.2,1.4-.8.7-.8,1.4,0,.7,0,1.4.6.7.6,1.4.2.7.2,1.4-.4.7-.4,1.4-.6.7-.6,1.4.3.7.3,1.4,0,.7,0,1.4.5.7.5,1.4,0,.7,0,1.4-.5.7-.5,1.4.2.7.2,1.4-.6.7-.6,1.4.7.7.7,1.4,0,.7,0,1.4.2.7.2,1.4-.1.7-.1,1.4,0,.7,0,1.4-.8.7-.8,1.4,0,.7,0,1.4.4.7.4,1.4.4.7.4,1.4-1,.7-1,1.4,1.1.7,1.1,1.4-.7.7-.7,1.4-.2.7-.2,1.4,1,.7,1,1.4-.8.7-.8,1.4-.4.7-.4,1.4.6.7.6,1.5-.3.7-.3,1.4.3.7.3,1.4.6.7.6,1.5,0,.7,0,1.4,0,.7,0,1.5-.4.7-.4,1.5-.7.7-.7,1.5.3.7.3,1.5,0,.7,0,1.5.6.7.6,1.5,0,1,0,1.5c-.1.4-.4.9-.6,1.3-.2.4-.5.9-.9,1.2-.5.5-.9.1-1.4.6-.5.5-.3.7-.8,1.2-.5.5-.8.2-1.3.7-.5.5-.3.7-.9,1.2s-.6.4-1.1.9c-.5.5-.4.7-.9,1.2-.5.5-.4.6-1,1.1-.5.5-.6.4-1.2.9s-.6.5-1.1,1-1.1,0-1.6.4c-.5.5.1,1.2-.4,1.7-.5.5-1.3-.3-1.8.2s-.5.6-1,1.1c-.5.5-.3.7-.9,1.2s-.1.9-.7,1.4c-.5.5-.8.2-1.3.7s-.4.7-.9,1.2c-.5.5-.4.6-.9,1.1-.5.5-.8.2-1.3.7-.5.5-.8.2-1.3.7-.5.5,0,1.1-.5,1.6s-.5.5-1,1c-.5.5-.8.2-1.3.7-.5.5-.2.9-.7,1.4-.5.5-.7.3-1.2.8-.5.5-1,0-1.5.5-.5.5,0,1.1-.5,1.6-.5.5-1,0-1.5.5-.5.5-.7.3-1.3.8-.5.5-.4.6-1,1.1s-.5.5-1.1,1c-.5.5-.3.7-.8,1.2s-.3.7-.8,1.2c-.5.5-.5.5-1,1-.5.5-.7.3-1.2.8-.5.5-.4.7-.9,1.2-.5.5-1,0-1.5.5-.5.5,0,1.1-.5,1.5-.5.5-.5.6-1,1.1-.5.5-.5.5-1,1-.5.5-.7.3-1.2.8-.5.5-.8.2-1.3.7-.5.5-.2.8-.7,1.3-.5.5-.9,0-1.5.6-.5.5-.1.9-.6,1.4-.5.5-.8.2-1.4.6-.5.5-.4.6-.9,1.1-.5.5-.7.3-1.2.8-.5.5-.3.8-.8,1.3-.5.5-.6.4-1.1.9-.5.5-.7.3-1.2.8-.5.5,0,.9-.6,1.4-.5.5-.7.4-1.2.8-.5.5-.6.4-1.2.9-.5.5-.9.1-1.4.6-.5.5-.3.7-.8,1.2-.5.5-.6.4-1.1.9-.5.5-.7.4-1.2.8-.5.5-.3.7-.8,1.2-.5.5-.6.4-1.2.9s-.5.5-1,1c-.5.5-.2.8-.7,1.3-.5.5-.4.6-.9,1.1-.5.5-1,0-1.5.5-.5.5-.6.5-1.1,1-.5.5-.3.8-.8,1.3-.5.5-.3.8-.8,1.3-.5.5-1.2-.2-1.7.3s.2,1.3-.3,1.8c-.5.5-1.2-.3-1.8.2s0,1.1-.5,1.6c-.5.5-.8.2-1.3.7-.5.5-.8.2-1.3.7-.5.5-.2.8-.8,1.3-.5.5-.8.2-1.3.7-.5.5-.6.4-1.1.9-.5.5-.5.5-1,1-.5.5-.2.9-.7,1.4-.5.5-.3.7-.9,1.2-.5.5-.7.4-1.2.9-.5.5-.4.6-.9,1.1-.5.5-1.1-.1-1.6.4-.5.5,0,1-.6,1.5-.5.5-.4.6-1,1.1-.5.5-1,0-1.5.5-.5.5-.6.4-1.1.9-.4.4-.2,1.3-.5,1.8-.4.4-.6.8-.9,1.3-.3.5-.7.8-1,1.3-.3.5-1,.6-1.4,1-.4.4-.9.5-1.4.7-.5.2-.9.6-1.4.9-.5.3-1,.5-1.4.8-.4.3-.3,1.3-.7,1.7-.5.5-1.3-.3-1.8.2s.1,1.2-.4,1.6-.7.3-1.2.8c-.5.5-.9,0-1.4.6-.5.5-.3.8-.8,1.3-.5.5-.3.7-.8,1.2-.5.5-.8.2-1.3.7-.5.5-.2.9-.7,1.4s-1.2-.3-1.8.2c-.5.5.2,1.3-.3,1.7-.5.5-.5.5-1.1,1-.5.5-1.1,0-1.6.4-.5.5-.7.3-1.2.8-.5.5,0,1.1-.5,1.6q-.5.5-1,1c-.5.5-.9,0-1.5.6-.5.5-.2.9-.7,1.4-.5.5-1,0-1.5.5-.5.5-.2.9-.7,1.4-.5.5-.6.4-1.1.9s-.5.6-1,1.1c-.5.5-.6.5-1.1,1-.5.5-.8.2-1.4.7-.5.5-.6.5-1.1.9s-.3.7-.8,1.2c-.5.5-.5.5-1,1-.5.5-.7.3-1.2.8s-.1.9-.6,1.4c-.5.5-.9.1-1.4.6-.5.5-.5.5-1.1,1-.5.5-.2.8-.8,1.3-.5.5-.6.4-1.1.9-.5.5-.9.1-1.4.6-.5.5-.3.8-.8,1.2-.5.5-.2.8-.8,1.3-.5.5-.5.5-1,1-.5.5-.5.6-1,1-.5.5-.9,0-1.5.5-.5.5,0,1-.5,1.5s-1.1-.1-1.6.4c-.5.5-.7.3-1.2.8-.5.5-.3.7-.8,1.2-.5.5,0,1-.5,1.5-.5.5-1,0-1.6.5-.5.5-.5.6-1,1.1-.5.5-.5.6-1,1.1-.5.5-.5.5-1,1s-.2.9-.7,1.4c-.5.5-.7.3-1.2.8-.5.5-.4.6-.9,1.1-.5.5-1,0-1.5.5-.5.5-.7.3-1.2.8-.5.5-.6.4-1.1.9-.5.5,0,1-.6,1.5-.5.5-.6.4-1.2.9-.5.5-.9,0-1.4.6-.5.5.3,1.3-.3,1.8s-.9,0-1.5.5c-.5.5-.4.7-.9,1.2-.5.5-1.1,0-1.6.4-.5.5-.4.6-.9,1.1s-.4.6-.9,1.1c-.5.5-.8.2-1.3.7-.5.5-.1.9-.7,1.4-.5.5-.6.4-1.1.9s-.6.5-1.1,1c-.5.5-.2.9-.7,1.3-.5.5-.6.4-1.1.9-.5.5-.3.7-.9,1.2s-.7.3-1.2.8c-.5.5-.6.4-1.2.9-.5.5-.3.7-.8,1.2-.5.5-.9,0-1.5.6-.5.5,0,1-.6,1.4-.5.5-.7.3-1.2.8-.5.5-.4.7-.9,1.1-.5.5-1.1,0-1.6.4-.5.5-.4.7-.9,1.2-.5.5-.5.6-1,1.1-.5.5-.7.3-1.3.8-.5.5-.7.3-1.2.8-.5.5-.3.7-.9,1.2-.5.5,0,1-.5,1.5s-1.1-.1-1.7.3c-.5.5-.6.4-1.1.9-.5.5-.3.7-.8,1.2-.5.5-.5.5-1,1s-.4.7-.9,1.2c-.5.5-.7.3-1.2.8-.5.5-.2.9-.7,1.4-.5.5-1.3-.4-1.8.1-.5.5,0,1.1-.5,1.6-.5.5-1,0-1.5.5-.5.5-.3.7-.8,1.2-.5.5,0,1-.6,1.5-.5.5-.6.4-1.2.9-.5.5-.7.3-1.2.8-.5.5-.9,0-1.4.6-.5.5-.3.7-.8,1.2-.5.5-.2.9-.7,1.3-.5.5-.6.4-1.1.9s-.5.5-1.1,1c-.5.5-.5.5-1.1,1-.5.5-.8.3-1.3.7-.5.5-.9.1-1.4.6-.5.5-.4.6-.9,1.1-.5.5-.4.6-1,1.1-.3.3-.4.5-.5.8,7.6.7,15.3,1.1,23,1.1,138.1,0,250-111.9,250-250s-10.6-82.3-29.2-117.3c-.5.2-.6.8-1.2.8Z"/>
  <path class="cls-1" d="M34.2,125c.7,0,.7-.2,1.4-.2s.7.4,1.4.4.7,0,1.4,0,.7-.3,1.4-.3.7-.4,1.4-.4.7.2,1.4.2.7,0,1.4,0,.7.4,1.4.4.7-.4,1.4-.4.7.2,1.4.2.7-.1,1.4-.1.7,0,1.4,0,.7,0,1.4,0,.7.3,1.4.3.7.2,1.4.2.7-.2,1.4-.2.7-.1,1.4-.1.7,0,1.4,0,.7,0,1.4,0,.7-.2,1.4-.2.7,0,1.4,0,.7,0,1.4,0,.7-.3,1.4-.3.7.3,1.4.3.7.1,1.4.1.7.2,1.4.2.7-.3,1.4-.3.7,0,1.4,0,.7-.2,1.4-.2.7.2,1.4.2.7.2,1.4.2.7-.5,1.4-.5.7.1,1.4.1.7.5,1.4.5.7-.5,1.4-.5.7.2,1.4.2.7.2,1.4.2.7.2,1.4.2.7-.6,1.4-.6.7,0,1.4,0,.7.3,1.4.3.7,0,1.4,0,.7-.5,1.4-.5.7,0,1.4,0,.7,0,1.4,0,.7,0,1.4,0,.7.3,1.4.3.7,0,1.4,0,.7.2,1.4.2.7-.7,1.4-.7.7.5,1.4.5.7-.2,1.4-.2.7-.3,1.4-.3.7.3,1.4.3.7,0,1.4,0,.7.4,1.4.4.7-.3,1.4-.3.7-.2,1.4-.2.7.6,1.4.6.7,0,1.4,0,.7-.4,1.4-.4.7,0,1.4,0,.7,0,1.4,0,.7-.4,1.4-.4.7.3,1.4.3.7.2,1.4.2.7-.5,1.4-.5.7.3,1.4.3.7.3,1.4.3.7-.7,1.4-.7.7.3,1.4.3.7-.1,1.4-.1.7,0,1.4,0,.7-.2,1.4-.2.7.2,1.4.2.7-.2,1.4-.2.7.4,1.4.4.7,0,1.4,0,.7.1,1.4.1.7,0,1.4,0,.7.2,1.4.2.7-.7,1.4-.7.7.6,1.4.6.7-.5,1.4-.5.7.3,1.4.3.7-.4,1.4-.4.7,0,1.4,0,.7.7,1.4.7.7-.2,1.4-.2.7-.1,1.4-.1,1,0,1.5,0c.5,0,1.1.2,1.5.1.5,0,.9-.6,1.4-.7.5-.1.9-.5,1.3-.7s1.1,0,1.5-.3c.4-.2.6-.9,1-1.1.4-.3.9-.4,1.3-.7.4-.3.6-.8,1-1.1.5-.5.5-.5,1-1,.5-.5.6-.4,1.1-1,.5-.5.8-.3,1.3-.8.5-.5.3-.8.8-1.3.5-.5.5-.5,1-1,.5-.5.8-.2,1.3-.7s.4-.6.9-1.2c.5-.5.3-.7.8-1.3.5-.5.8-.2,1.3-.7.5-.5.4-.6.9-1.1.5-.5.3-.7.8-1.2.5-.5.6-.4,1.1-.9.5-.5.7-.3,1.2-.8.5-.5.2-.8.7-1.3.5-.5.6-.4,1.1-1,.5-.5.7-.3,1.2-.8.5-.5.2-.8.7-1.3.5-.5.8-.3,1.3-.8.5-.5.4-.7.9-1.2.5-.5.5-.5,1.1-1,.5-.5.5-.5,1-1,.5-.5.7-.3,1.2-.9.5-.5.4-.6.9-1.1.5-.5.7-.3,1.2-.8.5-.5.2-.8.7-1.3.5-.5.4-.6.9-1.1.5-.5.6-.4,1.1-.9.5-.5.3-.7.8-1.2.5-.5.6-.4,1.1-.9.5-.5.9-.2,1.4-.7s.3-.8.8-1.3c.5-.5.4-.6.9-1.1s.8-.2,1.3-.8c.5-.5.2-.8.7-1.3.5-.5.6-.4,1.1-.9.5-.5.4-.6.9-1.1.5-.5.7-.3,1.2-.8.5-.5.4-.6.9-1.2.5-.5.7-.3,1.2-.8.5-.5.3-.7.8-1.2.5-.5.7-.3,1.2-.8.5-.5.2-.8.7-1.4.5-.5.7-.4,1.2-.9.5-.5.4-.6.9-1.2.5-.5.5-.6,1-1.1s.7-.3,1.2-.8c.5-.5.7-.3,1.2-.8s0-.9.6-1.4.8-.2,1.3-.7c.5-.5.5-.5,1-1.1.5-.5.3-.7.8-1.2.5-.5.4-.6.9-1.1s.8-.2,1.3-.7c.5-.5.5-.5,1-1s.5-.5,1-1c.5-.5.3-.7.8-1.3s.6-.4,1.1-.9.7-.3,1.2-.9c.5-.5,0-.9.6-1.4s.5-.5,1-1c.5-.5.7-.3,1.2-.8.5-.5.7-.3,1.2-.8s.2-.8.7-1.3c.5-.5.4-.6.9-1.2.5-.5,1,0,1.5-.6.5-.5.3-.7.8-1.2.5-.5.2-.8.7-1.3.5-.5.9-.2,1.4-.7.5-.5.6-.5,1.1-1s.2-.8.7-1.3c.5-.5.4-.6.9-1.1.5-.5.7-.3,1.2-.8.5-.5.4-.6.9-1.1.5-.5.7-.3,1.2-.8.5-.5.3-.7.8-1.2.5-.5.6-.4,1.1-.9.5-.5.5-.5,1-1.1s.5-.5,1-1c.5-.5.3-.7.8-1.2.5-.5.6-.4,1.1-.9.5-.5.2-.8.7-1.3.5-.5.5-.5,1-1,.5-.5.9-.2,1.4-.7.5-.5.5-.5,1-1,.5-.5.1-.9.6-1.4.5-.5,1,0,1.5-.6.5-.5.4-.6,1-1.1.5-.5.1-.9.6-1.4.5-.5.8-.3,1.3-.8.5-.5.2-.8.8-1.3.5-.5.5-.5,1-1,.5-.5.9,0,1.5-.6.5-.5,0-1,.5-1.5.5-.5.7-.3,1.2-.8.5-.5.5-.5,1-1s.4-.6.9-1.2.8-.3,1.3-.8c.5-.5.5-.5,1-1,.5-.5.6-.4,1.1-1,.5-.5.4-.6.9-1.2.5-.5.4-.6.9-1.2s.7-.3,1.2-.8c.5-.5.5-.5,1-1s.6-.5,1.1-1c.5-.5.2-.9.7-1.4.5-.5.7-.3,1.2-.8.5-.5.5-.5,1-1.1.5-.5.3-.7.8-1.2.5-.5.9-.2,1.4-.7.5-.5.5-.5,1-1.1.5-.5.4-.6.9-1.2.5-.5.3-.7.8-1.2.5-.5.8-.2,1.3-.7.5-.5.3-.7.8-1.2.1-.1.2-.2.3-.3C276.7,1.1,263.5,0,250,0,157.5,0,76.7,50.3,33.5,125c.2,0,.4,0,.8,0Z"/>
</svg>