<?xml version="1.0" encoding="UTF-8"?>
<svg id="_アイコン" data-name="アイコン" xmlns="http://www.w3.org/2000/svg" version="1.1" viewBox="0 0 500 500">
  <defs>
    <style>
      .cls-1 {
        fill: #fff;
        stroke-width: 0px;
      }
    </style>
  </defs>
  <path class="cls-1" d="M174.5,12.3c0,.7.8.7.8,1.4s-1,.7-1,1.4.2.7.2,1.4,0,.7,0,1.4.7.7.7,1.4.2.7.2,1.4-.3.7-.3,1.4.2.7.2,1.4-.1.7-.1,1.4,0,.7,0,1.4,0,.7,0,1.4-.2.7-.2,1.4-.5.7-.5,1.4-.2.7-.2,1.4.1.7.1,1.4.3.7.3,1.4.2.7.2,1.4.2.7.2,1.4-.7.7-.7,1.4.4.7.4,1.4.5.7.5,1.4-.9.7-.9,1.4.9.7.9,1.4-.9.7-.9,1.4,0,.7,0,1.4.2.7.2,1.4-.2.7-.2,1.4.7.7.7,1.4.1.7.1,1.4-.4.7-.4,1.4-.2.7-.2,1.4.5.7.5,1.4,0,.7,0,1.4-.5.7-.5,1.4-.3.7-.3,1.4.5.7.5,1.4,0,.7,0,1.4.5.7.5,1.4-.6.7-.6,1.5.1.7.1,1.5,0,1,0,1.5c0,.5.7.9.7,1.4,0,.5-.6,1.2-.5,1.6.1.5,1.1.6,1.3,1.1.2.5-.3,1.2,0,1.6.2.4.5.9.8,1.3.3.4.9.6,1.2,1,.3.4.4,1,.7,1.4.3.3.8.6,1.2.9.4.3,1.2,0,1.6.3.4.3.5,1,1,1.2.4.2.8.6,1.2.8.5.2,1,0,1.5.1.5.1.9.2,1.4.3.5,0,.9.7,1.4.8.5,0,1-.5,1.5-.5.7,0,.7.1,1.4.1s.7.6,1.4.6.7,0,1.4,0,.7-.2,1.4-.2.7,0,1.4,0,.7,0,1.4,0,.7.3,1.4.3.7,0,1.4,0,.7-.1,1.4-.1.7-.5,1.4-.5.7.5,1.4.5.7.2,1.4.2.7-.9,1.4-.9.7-.1,1.4-.1.7.4,1.4.4.7-.2,1.4-.2.7,0,1.4,0,.7.4,1.4.4.7,0,1.4,0,.7.4,1.4.4.7,0,1.4,0,.7-.3,1.4-.3.7-.2,1.4-.2.7.5,1.4.5.7-.3,1.4-.3.7.2,1.4.2.7-.4,1.4-.4.7-.2,1.4-.2.7,0,1.4,0,.7.5,1.4.5.7.2,1.4.2.7,0,1.4,0,.7-.2,1.4-.2.7.1,1.4.1.7-.8,1.4-.8.7.5,1.4.5.7-.2,1.4-.2.7,0,1.4,0,.7,0,1.4,0,.7.2,1.4.2.7-.3,1.4-.3.7,0,1.4,0,.7.6,1.4.6.7,0,1.4,0,.7-.9,1.4-.9.7,0,1.4,0,.7.2,1.4.2.7.8,1.4.8.7-.1,1.4-.1.7-.6,1.4-.6.7.5,1.4.5.7-.2,1.4-.2.7.1,1.4.1.7-.8,1.4-.8.7.6,1.4.6.7-.5,1.4-.5.7.6,1.4.6.7-.5,1.4-.5.7.3,1.4.3.7-.4,1.4-.4.7.7,1.4.7.7.5,1.4.5.7-.7,1.4-.7.7-.3,1.4-.3.7.8,1.4.8.7-.8,1.4-.8.7.5,1.4.5.7-.7,1.4-.7.7.5,1.4.5.7.6,1.4.6.7-.8,1.4-.8.7.3,1.4.3.7,0,1.4,0,.7,0,1.4,0,.7.2,1.4.2.7-.6,1.4-.6.7.4,1.4.4.7-.6,1.4-.6.7.8,1.4.8.7.2,1.4.2.7-.7,1.4-.7.7,0,1.4,0,.7,0,1.4,0,.7-.5,1.4-.5.7,1.2,1.4,1.2.7-.2,1.4-.2.7-.9,1.4-.9.7,1.1,1.4,1.1.7-.2,1.4-.2.7.3,1.4.3.7-.4,1.4-.4.7-.4,1.4-.4.7,0,1.4,0,.7.6,1.4.6.7,0,1.4,0,.7-1.1,1.4-1.1.7.3,1.4.3.7,0,1.4,0,.7.3,1.4.3.7.5,1.4.5.7,0,1.4,0,.7.3,1.4.3.7,0,1.4,0,.7-.6,1.4-.6.7-.2,1.4-.2.7.7,1.4.7,1-.1,1.5-.2c.5,0,.9-.8,1.4-.9.5,0,1.1.3,1.6.2.5-.1.9-.5,1.3-.7.5-.2,1.1,0,1.6-.2.4-.2.6-1,1-1.3.4-.3.6-.8,1-1.1.4-.3,1.1-.3,1.4-.6.3-.3.6-.8.9-1.2.3-.4,1.1-.4,1.4-.9.3-.4-.3-1.4-.1-1.8.2-.4.6-.8.8-1.2.2-.5,0-1,.1-1.5.1-.5,1.4-.7,1.5-1.1,0-.5-.8-1.1-.7-1.6,0-.5,0-.9,0-1.4,0-.7.3-.7.3-1.4s0-.7,0-1.4,0-.7,0-1.4.3-.7.3-1.4.3-.7.3-1.4-.1-.7-.1-1.4-1-.7-1-1.4.7-.7.7-1.4-.8-.7-.8-1.4.6-.7.6-1.4-.6-.7-.6-1.4.6-.7.6-1.4,0-.7,0-1.4-.5-.7-.5-1.4,1.1-.7,1.1-1.4-1-.7-1-1.4,1-.7,1-1.4-.5-.7-.5-1.4.4-.7.4-1.4-.2-.7-.2-1.4-.6-.7-.6-1.4.2-.7.2-1.4,1-.7,1-1.4-.7-.7-.7-1.4.2-.7.2-1.4-.6-.7-.6-1.4.3-.7.3-1.4-.4-.7-.4-1.4.9-.7.9-1.4-.1-.7-.1-1.4-.4-.7-.4-1.4.5-.7.7-1C325.2,8.8,288.6,0,250,0s-51.1,4-74.7,11.4c-.3.3-.8.5-.8,1Z"/>
  <path class="cls-1" d="M357.6,115.9c0-.7.3-.7.3-1.5s-.6-.7-.6-1.5-.3-.7-.3-1.5.5-.7.5-1.5-.2-1-.2-1.5c0-.5.4-1.1.3-1.6,0-.5-.8-.9-.9-1.3-.1-.5,0-1.1-.2-1.5-.2-.5-.8-.7-1-1.1-.2-.4-.1-1.1-.4-1.5-.3-.4-1.2-.3-1.5-.7-.3-.4-.5-.8-.9-1.1-.3-.3-.7-.6-1.1-.9-.4-.3-.2-1.4-.6-1.6-.4-.3-1.1,0-1.6-.3-.4-.2-.9-.4-1.4-.5-.5-.2-1,0-1.5-.2-.5-.1-.7-1.2-1.2-1.3-.5,0-1.1.3-1.6.2-.5,0-1,0-1.5,0-.7,0-.7,0-1.4,0s-.7-.2-1.4-.2-.7.4-1.4.4-.7.4-1.4.4-.7-.7-1.4-.7-.7,0-1.4,0-.7-.4-1.4-.4-.7.8-1.4.8-.7,0-1.4,0-.7,0-1.4,0-.7-.5-1.4-.5-.7.5-1.4.5-.7-.1-1.4-.1-.7-.4-1.4-.4-.7.5-1.4.5-.7-.7-1.4-.7-.7.8-1.4.8-.7-.8-1.4-.8-.7-.3-1.4-.3-.7,1-1.4,1-.7-.3-1.4-.3-.7-.4-1.4-.4-.7.3-1.4.3-.7.6-1.4.6-.7,0-1.4,0-.7-.8-1.4-.8-.7.4-1.4.4-.7.1-1.4.1-.7-.2-1.4-.2-.7-.7-1.4-.7-.7.9-1.4.9-.7-.7-1.4-.7-.7.3-1.4.3-.7,0-1.4,0-.7.2-1.4.2-.7,0-1.4,0-.7.3-1.4.3-.7.2-1.4.2-.7.2-1.4.2-.7-1-1.4-1-.7.3-1.4.3-.7.5-1.4.5-.7-.9-1.4-.9-.7.4-1.4.4-.7.3-1.4.3-.7-.3-1.4-.3-.7.2-1.4.2-.7-.2-1.4-.2-.7.6-1.4.6-.7-.3-1.4-.3-.7,0-1.4,0-.7.2-1.4.2-.7-.7-1.4-.7-.7.1-1.4.1-.7.7-1.4.7-.7-.6-1.4-.6-.7.4-1.4.4-.7.2-1.4.2-.7-.1-1.4-.1-.7.1-1.4.1-.7-.4-1.4-.4-.7-.3-1.4-.3-.7.4-1.4.4-.7.3-1.4.3-.7,0-1.4,0-.7,0-1.4,0-.7,0-1.4,0-.7,0-1.4,0-.7-.6-1.4-.6-.7.1-1.4.1-.7.3-1.4.3-.7-.4-1.4-.4-.7.4-1.4.4-.7-.3-1.4-.3-.7-.5-1.4-.5-.7,1-1.4,1-.7-.2-1.4-.2-.7.3-1.4.3-.7-.6-1.4-.6-.7.3-1.4.3-.7,0-1.4,0-.7.2-1.4.2-.7-.4-1.4-.4-.7-.5-1.4-.5-.7.2-1.4.2-.7,0-1.4,0-.7.2-1.4.2-.7-.3-1.4-.3-.7.8-1.4.8-.7-.9-1.4-.9-.7.7-1.4.7-.7-.4-1.4-.4-.7,0-1.4,0-.7,0-1.4,0-.7,0-1.4,0-.7.6-1.4.6-.7-.9-1.4-.9-.7,1-1.4,1-.7,0-1.4,0-.7-1-1.4-1-.7.4-1.4.4-.7-.5-1.4-.5-.7,0-1.4,0-.7.8-1.4.8-.7.1-1.4.1-.7-.7-1.4-.7-.9.9-1.4,1c-.5,0-1.1-.7-1.6-.6-.5,0-.9.4-1.4.6-.5.1-1.2-.2-1.6,0-.5.2-.8.7-1.2.9-.4.2-.4,1.2-.8,1.5-.4.3-1.4-.3-1.8,0-.4.3,0,1.4-.4,1.8s-.9.4-1.2.8c-.3.4-1.1.4-1.4.8-.3.4.4,1.4.1,1.8-.2.4-.8.6-1,1.1-.2.5-.4.9-.6,1.3-.1.5-.4.9-.5,1.4,0,.5-.3,1-.3,1.5,0,.5.2,1,.2,1.5s-.1.7-.1,1.4.4.7.4,1.4-.9.7-.9,1.4.2.7.2,1.4,0,.7,0,1.4.6.7.5,1.4c-.4.3-.9.5-1.2.9-.4.3-.6.8-1,1.2-.4.4-.9.6-1.2,1-.3.4-.9.7-1.2,1.1-.3.4-.1,1.6-.3,2.1-.2-.5-.9-1.1-1.2-1.5-.3-.4.1-1.3-.2-1.7-.3-.4-1.3-.2-1.7-.6-.4-.4-.5-.9-.9-1.3-.4-.3-1.2-.7-1.7-.9-.2-.7.1-.8.1-1.5,0-.7.8-.7.8-1.4q0-.7,0-1.4c0-.7.2-.7.2-1.4,0-.7-.2-.7-.2-1.4,0-.7-.3-.7-.3-1.4,0-.5-.3-1-.4-1.5,0-.5-.2-.9-.3-1.4,0-.5.7-1.2.5-1.7-.1-.5-.6-.9-.8-1.3-.2-.5-.3-1-.5-1.4-.2-.4-1.4-.3-1.6-.7-.3-.4.3-1.4,0-1.8-.3-.4-.9-.5-1.3-.9-.3-.3-1.1-.2-1.5-.5-.4-.3-.4-1.1-.8-1.4-.4-.3-.9-.4-1.3-.7-.4-.2-1-.1-1.5-.3-.5-.2-.8-.7-1.2-.9-.5-.1-.9-.7-1.4-.8-.5,0-1-.3-1.5-.4-.5,0-1,.9-1.5.9-.7,0-.7-.6-1.4-.6s-.7-.3-1.4-.3-.7.4-1.4.4-.7,0-1.4,0-.7.6-1.4.6-.7-.2-1.4-.2-.7,0-1.4,0-.7.4-1.4.4-.7-.4-1.4-.4-.7.4-1.4.4-.7,0-1.4,0-.7-1.1-1.4-1.1-.7.7-1.4.7-.7.3-1.4.3-.7-.5-1.4-.5-.7-.4-1.4-.4-.7.9-1.4.9-.7,0-1.4,0-.7,0-1.4,0-.7.1-1.4.1-.7-1-1.4-1-.7.5-1.4.5-.7-.6-1.4-.6-.7.5-1.4.5-.7,0-1.4,0-.7.5-1.4.5-.7-.5-1.4-.5-.7-.2-1.4-.2-.7.7-1.4.7-.7-1-1.4-1-.7.9-1.4.9-.7-.6-1.4-.6-.7-.3-1.4-.3-.7.3-1.4.3-.7-.3-1.4-.3-.7.3-1.4.3-.7.5-1.4.5-.7-.8-1.4-.8-.7.5-1.4.5-.7-.5-1.4-.5-.7,0-1.4,0-.7.2-1.4.2-.7,0-1.4,0-.7,1-1.4,1-.7-.7-1.4-.7-.7-.3-1.4-.3-.7.3-1.4.3-.7-.2-1.4-.2-.7-.3-1.4-.3-.7.6-1.4.6-.7-.2-1.4-.2-.7.2-1.4.2-.7-.1-1.4-.1-.7,0-1.4,0-.7.1-1.4.1-.7-.9-1.4-.9-.7,1-1.4,1-.7.1-1.4.1-.7-1.1-1.4-1.1-.7,0-1.4,0-.7.8-1.4.8-.7.2-1.4.2-.7,0-1.4,0-.7-.9-1.4-.9-.7,1.1-1.4,1.1-.7-.2-1.4-.2-.7,0-1,0c-12.3,15.6-22.8,32.7-31.1,51,0,0,.1,0,.2,0,.7,0,.7-.8,1.4-.8s.7-.1,1.4-.1.7.6,1.4.6.7,0,1.4,0,.7-.3,1.4-.3.7.8,1.4.8.7-.5,1.4-.5.7.6,1.4.6.7-.3,1.4-.3.7-.3,1.4-.3.7,0,1.4,0,.7.3,1.4.3.7-.1,1.4-.1.7.1,1.4.1.7-.1,1.4-.1.7-.4,1.4-.4.7-.4,1.4-.4.7,1.1,1.4,1.1.7-.9,1.4-.9.7,0,1.4,0,.7-.2,1.4-.2.7.5,1.4.5.7-.4,1.4-.4.7.8,1.4.8.7.2,1.4.2.7-.6,1.4-.6.7-.5,1.4-.5.7,1.2,1.4,1.2.7-.9,1.4-.9.7.7,1.4.7.7.2,1.4.2.7-1.1,1.4-1.1.7.9,1.4.9.7-.6,1.4-.6.7,0,1.4,0,.7-.2,1.4-.2.7.8,1.4.8.7-.5,1.4-.5.7,0,1.4,0,.7-.5,1.4-.5.7,0,1.4,0,.7,1.1,1.4,1.1.7-1,1.4-1,.7,0,1.4,0,.7.9,1.4.9.7-.7,1.4-.7.7.1,1.4.1.7.3,1.4.3.7-.3,1.4-.3.7-.2,1.4-.2.7-.3,1.4-.3.7.3,1.4.3.7,0,1.4,0,.7.7,1.4.7.7-.9,1.4-.9.7-.1,1.4-.1.7.9,1.4.9.7-.5,1.4-.5.7-.4,1.4-.4.7.3,1.4.3.7,0,1.4,0,.7.2,1.4.2.7.6,1.4.6.7-.4,1.4-.4.7,0,1.4,0,.7.5,1.4.5.7-.9,1.4-.9.7.2,1.4.2.7.7,1.4.7.7,0,1.4,0,.7-.8,1.4-.8.7-.3,1.4-.3.7.3,1.4.3.7-.3,1.4-.3.7.9,1.4.9.7-.8,1.4-.8.7,1,1.4,1,.7-.9,1.4-.9.7,0,1.4,0,.7,0,1.4,0,.7.8,1.4.8.7,0,1.4,0,.7.2,1.4.2.7-.9,1.4-.9.7.7,1.4.7.7-.7,1.4-.7.7.8,1.4.8.7-.2,1.4-.2.7.3,1.4.3.7-.7,1.4-.7.7.2,1.4.2.7-.7,1.4-.7.7.9,1.4.9.9-.6,1.4-.6c.5,0,.9-.3,1.3-.4.5,0,1.1.5,1.5.3.4-.1.8-.5,1.3-.6.4-.2.8-.4,1.2-.6.4-.2.7-.7,1.1-.9.4-.2,1.1,0,1.4-.4.4-.3.7-.7,1-1,.3-.3,1-.3,1.4-.7.3-.3-.2-1.4,0-1.8.3-.4,1-.4,1.3-.8.2-.4.3-1.4.6-1.9.2.4,0,1.7.2,2.1.2.4.7.7.9,1.1.3.4.8.5,1.2.9.3.3.3,1.1.6,1.4.3.3,1.3-.1,1.7.1.4.3.8.4,1.2.7.4.2.6.8,1,1,.4.2.8.4,1.3.6.4.2,1,0,1.4.1.4.1.7.8,1.2.9.5,0,.9.2,1.4.2.5,0,.9.1,1.4.1.7,0,.7.3,1.4.3s.7-1.1,1.4-1.1.7.4,1.4.4.7,0,1.4,0,.7.5,1.4.5.7-.1,1.4-.1.7-.6,1.4-.6.7.1,1.4.1.7.5,1.4.5.7-.3,1.4-.3.7.2,1.4.2.7.3,1.4.3.7-.8,1.4-.8.7.3,1.4.3.7-.3,1.4-.3.7.3,1.4.3.7.7,1.4.7.7-.7,1.4-.7.7-.3,1.4-.3.7.2,1.4.2.7.3,1.4.3.7.2,1.4.2.7-.6,1.4-.6.7.2,1.4.2.7-.4,1.4-.4.7,1.1,1.4,1.1.7-.2,1.4-.2.7-.2,1.4-.2.7,0,1.4,0,.7,0,1.4,0,.7-.1,1.4-.1.7,0,1.4,0,.7-.4,1.4-.4.7.3,1.4.3.7-.5,1.4-.5.7.7,1.4.7.7.2,1.4.2.7,0,1.4,0,.7.3,1.4.3.7-.4,1.4-.4.7-.4,1.4-.4.7,0,1.4,0,.7.8,1.4.8.7.1,1.4.1.7-.8,1.4-.8.7.4,1.4.4.7-.1,1.4-.1.7,0,1.4,0,.7.2,1.4.2.7-.9,1.4-.9.7.4,1.4.4.7-.2,1.4-.2.7.7,1.4.7.7-1,1.4-1,.7.8,1.4.8.7-.3,1.4-.3.7-.5,1.4-.5.7.2,1.4.2.7-.1,1.4-.1.7.3,1.4.3.7.4,1.4.4.7,0,1.4,0,.7,0,1.4,0,.7.3,1.4.3.7-1,1.4-1,.7.7,1.4.7.7-.3,1.4-.3.7.4,1.4.4.7-.9,1.4-.9.7.4,1.4.4.7-.4,1.4-.4.7.3,1.4.3.7.5,1.4.5.7-.6,1.4-.6.7.7,1.4.7.7-.6,1.4-.6.7.4,1.4.4.7,0,1.4,0,.7-.8,1.4-.8.7.3,1.4.3.7.5,1.4.5.7-.2,1.4-.2.7-.6,1.4-.6.7.2,1.4.2.7,0,1.4,0,.7.7,1.4.7.7-.4,1.4-.4.7,0,1.4,0,.7-.4,1.4-.4.7.5,1.4.5.7-.6,1.4-.6.7.4,1.4.4.7,0,1.4,0,.7-.2,1.4-.2.7,0,1.4,0,.7.5,1.4.5.7-.2,1.4-.2.7-.1,1.4-.1.7.6,1.4.6.7.2,1.5.2.7-.1,1.4-.1.7-.8,1.4-.8.7-.3,1.5-.3.7.7,1.4.7.7,0,1.5,0,.7.4,1.5.4.7-.9,1.4-.9.7,1.1,1.5,1.1.7-.9,1.5-.9.7.4,1.5.4,1,0,1.5,0c.5,0,.9-.6,1.4-.6.5,0,1-.1,1.4-.3.5-.1,1.1.1,1.6,0,.5-.2.5-1.2,1-1.4.4-.2.8-.5,1.2-.8.4-.3,1.3.1,1.7-.2.4-.3.8-.6,1.2-.9.3-.3.4-1,.7-1.4.3-.4.3-1,.5-1.4.3-.4.6-.7.9-1.2.2-.4.4-.8.6-1.3.2-.5.8-.8.9-1.2.1-.5-.4-1.1-.3-1.6,0-.5,1-.8,1.1-1.3,0-.5-.7-1-.7-1.5,0-.7.3-.7.3-1.5s.6-.7.6-1.5-1-.7-1-1.5,0-.7,0-1.5,0-.7,0-1.5-.2-.7-.2-1.5.9-.7.9-1.5-.8-.7-.8-1.5,0-.7,0-1.5.8-.7.8-1.5Z"/>
  <path class="cls-1" d="M367.5,29.6c0,.7,0,.7,0,1.4s.4.7.4,1.4-1.1.7-1.1,1.4.7.7.7,1.4-.7.7-.7,1.4.6.7.6,1.4,0,.7,0,1.4.2.7.2,1.4.3.7.3,1.4,0,.7,0,1.4-.2.7-.2,1.4-.3.7-.3,1.4-.4.7-.4,1.4.6.7.6,1.4-.5.7-.5,1.4.3.7.3,1.4-.2.7-.2,1.4,0,.7,0,1.4-.5.7-.5,1.4.1.7.1,1.4,0,.7,0,1.4.2.7.2,1.4.1.7.1,1.4-.5.7-.5,1.4.6.7.6,1.4.2.7.2,1.4-.5.7-.5,1.5.4.7.4,1.5-.1,1,0,1.5c0,.5,0,1,.2,1.5,0,.5-.2,1.1,0,1.5.1.5.8.8.9,1.2.2.5.3.9.6,1.4.2.4.8.6,1.1,1,.3.4-.1,1.3.2,1.7.3.4.7.8,1,1.1.3.3,1.4-.1,1.8.2.4.3.3,1.2.7,1.4.4.3,1.1,0,1.5.3.4.2.8.5,1.3.7.5.2.9.4,1.3.5.5.1.8.9,1.3,1,.5,0,1.1-.5,1.5-.4.5,0,.9.9,1.4.9.7,0,.7-.4,1.4-.4s.7-.5,1.4-.5.7.7,1.4.7.7-.6,1.4-.6.7.4,1.4.4.7,0,1.4,0,.7,0,1.4,0,.7,0,1.4,0,.7-.3,1.4-.3.7-.1,1.4-.1.7.6,1.4.6.7-.2,1.4-.2.7-.2,1.4-.2.7,1,1.4,1,.7-1.1,1.4-1.1.7.5,1.4.5.7.2,1.4.2.7.1,1.4.1.7.1,1.4.1.7-.8,1.4-.8.7.3,1.4.3.7-.2,1.4-.2.7.4,1.4.4.7-.4,1.4-.4.7.6,1.4.6.7-.9,1.4-.9.7.3,1.4.3.7.5,1.4.5.7.3,1.4.3.7-.6,1.4-.6.7.2,1.4.2.7.3,1.4.3.7-.5,1.4-.5.7.3,1.4.3.7.4,1.4.4.7,0,1.4,0,.7-.9,1.4-.9.7.8,1.4.8.7-.3,1-.4c-19.8-22.6-43.7-41.5-70.4-55.8,0,0,0,.2,0,.3Z"/>
  <path class="cls-1" d="M404.9,369.9c0-.5-.4-1-.5-1.4,0-.5,0-1-.2-1.5-.1-.5-.1-1-.3-1.5-.2-.5-1-.6-1.2-1.1-.2-.4-.3-.9-.6-1.4-.3-.4-.8-.6-1.1-1-.3-.4-.5-.9-.8-1.2-.3-.3-.3-1.1-.7-1.4-.4-.3-1.1-.2-1.5-.5-.4-.3-.9-.3-1.4-.5-.4-.2-.8-.6-1.2-.7-.5-.2-.8-.6-1.3-.7-.5-.1-.9-.4-1.4-.5-.5,0-1,.3-1.5.2-.5,0-1-.3-1.4-.3-.7,0-.7.3-1.4.3s-.7-.8-1.4-.8-.7.2-1.4.2-.7.1-1.4.1-.7,0-1.4,0-.7,0-1.4,0-.7.1-1.4.1-.7,0-1.4,0-.7.3-1.4.3-.7-.2-1.4-.2-.7.4-1.4.4-.7-.5-1.4-.5-.7-.2-1.4-.2-.7,0-1.4,0-.7-.2-1.4-.2-.7.3-1.4.3-.7.3-1.4.3-.7,0-1.4,0-.7-.6-1.4-.6-.7,0-1.4,0-.7.6-1.4.6-.7-.3-1.4-.3-.7,0-1.4,0-.7,0-1.4,0-.7-.2-1.4-.2-.7.7-1.4.7-.7-.3-1.4-.3-.7.2-1.4.2-.7-.6-1.4-.6-.7.8-1.4.8-.7-.7-1.4-.7-.7.2-1.4.2-.7.4-1.4.4-.7-.2-1.4-.2-.7.1-1.4.1-.7-.3-1.4-.3-.7-.3-1.4-.3-.7,0-1.4,0-.7,0-1.4,0-.7-.2-1.4-.2-.7.8-1.4.8-.7-.6-1.4-.6-.7.2-1.4.2-.7-.3-1.4-.3-.7.7-1.4.7-.7-.3-1.4-.3-.7.3-1.4.3-.7-.2-1.4-.2-.7-.4-1.4-.4-.7.5-1.4.5-.7-.5-1.4-.5-.7.5-1.4.5-.7-.3-1.4-.3-.7,0-1.4,0-.7.7-1.4.7-.7-.3-1.4-.3-.7-.4-1.4-.4-.7.2-1.4.2-.7.5-1.4.5-.7-.2-1.4-.2-.7,0-1.4,0-.7-.5-1.4-.5-.7.3-1.4.3-.7,0-1.4,0-.7.3-1.4.3-.7-.4-1.4-.4-.7.5-1.4.5-.7-.3-1.4-.3-.7,0-1.4,0-.7.1-1.4.1-.7,0-1.4,0-.7-.4-1.4-.4-.7.2-1.4.2-.7,0-1.4,0-.7-.5-1.4-.5-.7-.2-1.4-.2-.7,0-1.4,0-.7.6-1.4.6-.7.2-1.4.2-.7-.5-1.4-.5-.7,0-1.4,0-.7-.3-1.4-.3-.7.7-1.4.7-.7-.8-1.4-.8-.7.7-1.4.7-.7-.3-1.4-.3-.7,0-1.4,0-.7.3-1.4.3-.7,0-1.4,0-.7-.4-1.4-.4-.7.7-1.4.7-.7,0-1.4,0-.7-.7-1.4-.7-.7,0-1.4,0-.7.3-1.4.3-.7.3-1.4.3-.7-.1-1.4-.1-.7,0-1.4,0-.7-.4-1.4-.4-.7.5-1.4.5-.7-.7-1.4-.7-.7.6-1.4.6-.7-.2-1.4-.2-.7-.5-1.4-.5-.7.8-1.4.8-.7,0-1.4,0-.7,0-1.4,0-.7.1-1.4.1-.7-.7-1.4-.7-.7.6-1.4.6-.7,0-1.4,0-.7-.6-1.4-.6-.7-.3-1.4-.3-.7.5-1.4.5-.7.2-1.4.2-.7-.4-1.4-.4-.7.1-1.4.1-.7-.4-1.4-.4-.7.4-1.4.4-.7-.3-1.4-.3-.7.4-1.4.4-.7-.4-1.4-.4-.7.6-1.4.6-.7,0-1.4,0-.7,0-1.4,0-.7-.7-1.4-.7-.7.4-1.4.4-.7,0-1.4,0-.7.2-1.4.2-.7-.8-1.4-.8-.7.3-1.4.3-.7,0-1.4,0-.7,0-1.4,0-.7-.1-1.4-.1-.7.3-1.4.3-.7.3-1.4.3-.7-.5-1.4-.5-.7,0-1.4,0-.7-.3-1.4-.3-.7.6-1.4.6-.7,0-1.4,0-.7,0-1.4,0-.7-.4-1.4-.4-.7.4-1.4.4-.7,0-1.4,0-.7-.4-1.4-.4-.7.4-1.4.4-.7-.6-1.4-.6-.7.6-1.4.6-.7-.6-1.4-.6-.7-.3-1.4-.3-.7.7-1.4.7-.7-.2-1.4-.2-.7-.3-1.4-.3-.7.2-1.4.2-.7.5-1.4.5-.7,0-1.4,0-.7-.6-1.4-.6-.7.3-1.4.3-.7,0-1.4,0-.7-.1-1.4-.1-.7-.6-1.4-.6-.7.7-1.4.7-.7-.6-1.4-.6-.7.2-1.4.2-.7,0-1.4,0-.7.1-1.4.1-.7,0-1.4,0-.7.2-1.4.2-.7.1-1.4.1-.7.1-1.4.1-.7-.8-1.4-.8-.7.2-1.4.2-.7.4-1.4.4-.7-.7-1.4-.7-.7.3-1.4.3-.7.2-1.4.2-.7-.3-1.4-.3-.7.1-1.4.1-.7-.1-1.4-.1-.7.5-1.4.5-.7-.2-1.4-.2-.7,0-1.4,0-.7.2-1.4.2-.7-.5-1.4-.5-.7,0-1.4,0-.7.5-1.4.5-.7-.5-1.4-.5-.7.3-1.4.3-.7.2-1.4.2-.7,0-1.4,0-.7,0-1.4,0-.7-.3-1.4-.3-.7-.3-1.4-.3-.7.3-1.4.3-.7.2-1.4.2-.7,0-1.4,0-.7,0-1.4,0-.7,0-1.4,0-.7,0-1.4,0-.7-.5-1.4-.5-.7.1-1.4.1-.7.2-1.4.2-.7-.3-1.4-.3-.7.3-1.4.3-.7-.2-1.4-.2-.7-.4-1.4-.4-.7.8-1.4.8-.7-.2-1.4-.2-.7.2-1.4.2-.7-.4-1.4-.4-.7.2-1.4.2-.7,0-1.4,0-.7.1-1.4.1-.7-.3-1.4-.3-.7-.4-1.4-.4-.7.1-1.4.1-.7,0-1.4,0-.7.1-1.4.1-.7-.2-1.4-.2-.7.6-1.4.6-.7-.7-1.4-.7-.7.5-1.4.5-.7-.3-1.4-.3-.7,0-1.4,0-.7,0-1.4,0-.7,0-1.4,0-.7.5-1.4.5-.7-.7-1.4-.7-.7.8-1.4.8-.7,0-1.4,0-.7-.8-1.4-.8-.7.3-1.4.3-.7-.4-1.4-.4-.7,0-1.4,0-.7.6-1.4.6-.7.1-1.4.1-.7-.6-1.4-.6-.7.7-1.4.7-.7-.7-1.4-.7-.7.2-1.4.2-.7-.5-1.4-.5-.7.3-1.4.3-.7.7-1.4.7-.7-.8-1.4-.8-.7.8-1.4.8-.7-.3-1.4-.3-.7-.5-1.4-.5-.7.8-1.4.8-.7-.4-1.4-.4-.7,0-1.4,0-.7-.1-1.4-.1-.7,0-1.4,0-.7.2-1.4.2,0,0,0,0c5.7,12,12.3,23.5,19.7,34.4.3-.2.4-.5.9-.5.7,0,.7-.2,1.4-.2s.7.2,1.4.2.7.1,1.4.1.7.4,1.4.4.7-.3,1.4-.3.7-.4,1.4-.4.7.1,1.4.1.7.2,1.4.2.7,0,1.4,0,.7-.5,1.4-.5.7.4,1.4.4.7-.4,1.4-.4.7.7,1.4.7.7-.3,1.4-.3.7.3,1.4.3.7,0,1.4,0,.7.2,1.4.2.7-.2,1.4-.2.7-.5,1.4-.5.7-.2,1.4-.2.7,1,1.4,1,.7-.4,1.4-.4.7-.1,1.4-.1.7.3,1.4.3.7,0,1.4,0,.7-.7,1.4-.7.7.6,1.4.6.7.4,1.4.4.7-.8,1.4-.8.7.6,1.4.6.7-.3,1.4-.3.7-.2,1.4-.2.7-.2,1.4-.2.7.6,1.4.6.7-.1,1.4-.1.7.3,1.4.3.7-.4,1.4-.4.7.2,1.4.2.7,0,1.4,0,.7-.5,1.4-.5.7.6,1.4.6.7.3,1.4.3.7-.6,1.4-.6.7.1,1.4.1.7-.4,1.4-.4.7-.1,1.4-.1.7.7,1.4.7.7-.5,1.4-.5.7.5,1.4.5.7,0,1.4,0,.7-.7,1.4-.7.7.4,1.4.4.7.2,1.4.2.7-.6,1.4-.6.7.6,1.4.6.7,0,1.4,0,.7-.4,1.4-.4.7-.2,1.4-.2.7.8,1.4.8.7-.5,1.4-.5.7-.2,1.4-.2.7.5,1.4.5.7.4,1.4.4.7-.6,1.4-.6.7.6,1.4.6.7-.6,1.4-.6.7.3,1.4.3.7-.4,1.4-.4.7.1,1.4.1.7.4,1.4.4.7-.1,1.4-.1.7.3,1.4.3.7,0,1.4,0,.7-.3,1.4-.3.7.2,1.4.2.7.2,1.4.2.7-.7,1.4-.7.7.5,1.4.5.7,0,1.4,0,.7-.6,1.4-.6.7.2,1.4.2.7.3,1.4.3.7-.2,1.4-.2.7-.3,1.4-.3.7.3,1.4.3.7.4,1.4.4.7,0,1.4,0,.7-.3,1.4-.3.7,0,1.4,0,.7.1,1.4.1.7-.1,1.4-.1.7,0,1.4,0,.7,0,1.4,0,.7.1,1.4.1.7,0,1.4,0,.7,0,1.4,0,.7-.4,1.4-.4.7.4,1.4.4.7.1,1.4.1.7-.2,1.4-.2.7.2,1.4.2.7-.7,1.4-.7.7.2,1.4.2.7.6,1.4.6.7-.8,1.4-.8.7.7,1.4.7.7-.3,1.4-.3.7-.5,1.4-.5.7.2,1.4.2.7.5,1.4.5.7,0,1.4,0,.7-.3,1.4-.3.7,0,1.4,0,.7-.2,1.4-.2.7,0,1.4,0,.7,0,1.4,0,.7.6,1.4.6.7,0,1.4,0,.7-.4,1.4-.4.7-.4,1.4-.4.7.6,1.4.6.7-.5,1.4-.5.7,0,1.4,0,.7.5,1.4.5.7-.4,1.4-.4.7-.1,1.4-.1.7.3,1.4.3.7-.3,1.4-.3.7,0,1.4,0,.7.3,1.4.3.7.4,1.4.4.7-.1,1.4-.1.7.2,1.4.2.7,0,1.4,0,.7-.7,1.4-.7.7-.1,1.4-.1.7.4,1.4.4.7,0,1.4,0,.7-.2,1.4-.2.7.6,1.4.6.7-.4,1.4-.4.7.4,1.4.4.7-.3,1.4-.3.7-.3,1.4-.3.7,0,1.4,0,.7.2,1.4.2.7,0,1.4,0,.7,0,1.4,0,.7,0,1.4,0,.7-.3,1.4-.3.7-.3,1.4-.3.7.9,1.4.9.7-.7,1.4-.7.7,0,1.4,0,.7-.1,1.4-.1.7.4,1.4.4.7-.3,1.4-.3.7.6,1.4.6.7.1,1.4.1.7-.4,1.4-.4.7-.4,1.4-.4.7.9,1.4.9.7-.7,1.4-.7.7.5,1.4.5.7.1,1.4.1.7-.9,1.4-.9.7.7,1.4.7.7-.5,1.4-.5.7,0,1.4,0,.7-.1,1.4-.1.7.6,1.4.6.7-.4,1.4-.4.7,0,1.4,0,.7-.4,1.4-.4.7,0,1.4,0,.7.8,1.4.8.7-.8,1.4-.8.7,0,1.4,0,.7.7,1.4.7.7-.5,1.4-.5.7,0,1.4,0,.7.2,1.4.2.7-.2,1.4-.2.7-.2,1.4-.2.7-.2,1.4-.2.7.2,1.4.2.7,0,1.4,0,.7.5,1.4.5.7-.7,1.4-.7.7,0,1.4,0,.7.7,1.4.7.7-.4,1.4-.4.7-.3,1.4-.3.7.2,1.4.2.7,0,1.4,0,.7.1,1.4.1.7.5,1.4.5.7-.3,1.4-.3.7,0,1.4,0,.7.4,1.4.4.7-.7,1.4-.7.7.2,1.4.2.7.6,1.4.6.7,0,1.4,0,.7-.7,1.4-.7.7-.2,1.4-.2.7.2,1.4.2.7-.2,1.4-.2.7.7,1.4.7.7-.6,1.4-.6.7.8,1.4.8.7-.7,1.4-.7.7,0,1.4,0,.7,0,1.4,0,.7.6,1.4.6.7,0,1.4,0,.7.2,1.4.2.7-.7,1.4-.7.7.6,1.4.6.7-.6,1.4-.6.7.6,1.4.6.7-.1,1.4-.1.7.2,1.4.2.7-.5,1.4-.5.7.2,1.4.2.7-.6,1.4-.6.7.7,1.4.7.7-.4,1.4-.4.7-.2,1.4-.2.7.5,1.4.5.7-.1,1.4-.1.7,0,1.4,0,.7-.2,1.4-.2.7.4,1.4.4.7,0,1.4,0,.7.4,1.4.4.7-.8,1.4-.8.7.5,1.4.5.7-.6,1.5-.6.7.9,1.5.9,1-.1,1.5-.2c.5,0,1-.4,1.4-.5.5,0,1.1.2,1.6,0,.5-.1.7-1,1.1-1.2.5-.2.8-.5,1.3-.7.4-.2,1-.2,1.4-.5.4-.3.8-.6,1.2-.9.4-.3.5-.8.9-1.2.3-.3,1-.4,1.3-.8.3-.4.6-.8.9-1.2.3-.4.6-.8.8-1.2.2-.4.7-.8.9-1.3.2-.5-.5-1.2-.3-1.7.1-.5.5-.8.6-1.3,0-.5.2-.9.2-1.4,0-.5.5-1,.5-1.5s0-.7,0-1.4-.4-.7-.4-1.4,0-.7,0-1.4.3-1,.3-1.5Z"/>
  <path class="cls-1" d="M495,206.9c-.7,0-.7,0-1.4,0s-.7,0-1.4,0-.7,0-1.4,0-.7-.1-1.4-.1-.7,0-1.4,0-.7,0-1.4,0-.7-.1-1.4-.1-.7,0-1.4,0-.7,0-1.4,0-.7,0-1.4,0-.7,0-1.4,0-.7,0-1.4,0-.7,0-1.4,0-.7,0-1.4,0-.7,0-1.4,0-.7,0-1.4,0-.7,0-1.4,0-.7.1-1.4.1-.7,0-1.4,0-.7,0-1.4,0-.7,0-1.4,0-.7,0-1.4,0-.7-.1-1.4-.1-.7,0-1.4,0-.7,0-1.4,0c-.7,0-.7,0-1.5,0s-1.1,0-1.6-.2c-.5-.2-1-.4-1.4-.7-.4-.3-.7-.8-1-1.2-.3-.4-.6-.9-.8-1.4-.2-.5-.2-1-.2-1.5s0-1,.2-1.5c.2-.5.4-.9.7-1.4.3-.4.6-.9,1-1.2.4-.3.9-.6,1.4-.8.5-.2,1-.2,1.6-.2s.7,0,1.4,0,.7,0,1.4,0,.7,0,1.4,0,.7,0,1.4,0,.7,0,1.4,0,.7,0,1.4,0,.7,0,1.4,0,.7,0,1.4,0,.7,0,1.4,0,.7,0,1.4,0,.7.1,1.4.1.7,0,1.4,0,.7,0,1.4,0,.7,0,1.4,0,.7,0,1.4,0,.7,0,1.4,0,.7,0,1.4,0,.7,0,1.4,0,.7.2,1.4.2.7,0,1.4,0,.7,0,1.4,0,.7,0,1.4,0,.7,0,1.4,0,.7-.1,1.4-.1.7.1,1.4.1.6,0,.9,0c-3.1-14.3-7.4-28.1-12.8-41.3-.3,0-.5,0-1,0s-.7-.1-1.4-.1-.7,0-1.4,0-.7,0-1.4,0-.7,0-1.4,0-.7-.2-1.4-.2-.7.1-1.4.1-.7-.1-1.4-.1-.7,0-1.4,0-.7.2-1.4.2-.7-.1-1.4-.1-.7,0-1.4,0-.7,0-1.4,0c-.7,0-.7,0-1.4,0s-.7-.1-1.4-.1-.7,0-1.5,0c-.7,0-.7,0-1.5,0s-1.1,0-1.6-.2c-.5-.2-.9-.5-1.4-.8-.4-.3-.8-.7-1.1-1.1-.3-.4-.7-.8-.8-1.3-.2-.5-.1-1-.1-1.6s.2-1,.3-1.5c.2-.5.3-1,.6-1.5.3-.4.8-.7,1.2-1,.4-.3.8-.6,1.4-.8.5-.2,1-.3,1.5-.3s.7,0,1.4,0,.7.1,1.4.1.7,0,1.4,0,.7,0,1.4,0,.7,0,1.4,0,.7,0,1.4,0,.7,0,1.4,0,.7,0,1.4,0,.7.1,1.4.1.7,0,1.4,0,.7-.1,1.4-.1.7,0,1.4,0,.7,0,1.4,0,.7,0,1,0c-8.5-18.4-19.1-35.6-31.5-51.2-.7,0-.7.9-1.4.9s-.7-.8-1.4-.8-.7.5-1.4.5-.7-.2-1.4-.2-.7.1-1.4.1-.7.2-1.4.2-.7,0-1.4,0-.7-.7-1.4-.7-.7,1-1.4,1-.7-.2-1.4-.2-.7-.2-1.4-.2-.7-.4-1.4-.4-.7-.4-1.4-.4-.7.7-1.4.7-.7.5-1.4.5-.7-.4-1.4-.4-.7-.3-1.4-.3-.7,0-1.4,0-.7,0-1.4,0-.7,0-1.4,0-.7,0-1.4,0-.7-.1-1.4-.1-.7,0-1.4,0-.7,0-1.4,0-.7-.1-1.4-.1-.7.2-1.4.2-.7,0-1.4,0-.7.3-1.4.3-.7-.8-1.4-.8-.7.8-1.4.8-.7-.1-1.4-.1-.7-.6-1.4-.6-.7,0-1.4,0-.7.5-1.4.5-.7.4-1.4.4-.7-.8-1.4-.8-.7,0-1.4,0-.7-.2-1.4-.2-.7,1.1-1.4,1.1-.7-.2-1.4-.2-.7-.4-1.4-.4-.7.5-1.4.5-.7-1.1-1.4-1.1-.7.3-1.4.3-1,.5-1.5.6c-.5,0-1-.3-1.5-.2-.5,0-1.1-.1-1.6,0-.5.1-.5,1.4-1,1.6-.5.2-1.4-.6-1.8-.4-.4.2-.8.6-1.2.9-.4.3-.9.5-1.3.8-.4.3-.6.8-1,1.2s-.4,1-.7,1.4c-.3.4-.9.5-1.2,1-.3.4-.5.9-.8,1.3-.2.4-.6.8-.8,1.3-.2.5.2,1.1,0,1.6-.1.5-.3.9-.4,1.4,0,.5-.8.9-.8,1.4,0,.5.1,1,.1,1.5,0,.7.6.7.6,1.4s0,.7,0,1.5,0,.7,0,1.5-.5.7-.5,1.5.6.7.6,1.5,0,.7,0,1.5,0,.7,0,1.5,0,.7,0,1.5-.8.7-.8,1.5,0,.7,0,1.5-.2.7-.2,1.5.7.7.7,1.5,0,.7,0,1.5,0,.7,0,1.5-.1.7-.1,1.5-.4.7-.4,1.5.2.7.2,1.5-.5.7-.5,1.5.9.7.9,1.5-.8.7-.8,1.5,1,.7,1,1.5-.5.7-.5,1.5-.7.7-.7,1.5.2.7.2,1.5.2.7.2,1.5.2.7.2,1.5.4.7.4,1.5-.3,1-.4,1.5c-.1.5-.9.7-1.1,1.1-.2.4-.1,1-.4,1.3-.3.4-.5.8-.9,1.1-.4.3-.9.2-1.4.5-.4.2-.7.7-1.2.8-.5.1-.9-.4-1.4-.4-.7,0-.7.5-1.4.5s-.7.4-1.4.4-.7-.4-1.4-.4-.7.6-1.4.6-.7-.8-1.4-.8-.7.5-1.4.5-.7,0-1.4,0-.7.2-1.4.2-.7-.5-1.4-.5-.7-.2-1.4-.2-.7.3-1.4.3-.7,0-1.4,0-.7.6-1.4.6-.7-.6-1.4-.6-.7-.1-1.4-.1-.7,0-1.4,0-.7.4-1.4.4-.7-.6-1.4-.6-.7,0-1.4,0-.7-.3-1.4-.3-.7.6-1.4.6-.7.3-1.4.3-.7-.2-1.4-.2-.7-.4-1.4-.4-.7-.4-1.4-.4-.7.7-1.4.7-.7,0-1.4,0-.7.2-1.4.2-.7-.9-1.4-.9-.7,1.1-1.4,1.1-.7-.8-1.4-.8-.7,0-1.4,0-.7.2-1.4.2-.7-.5-1.4-.5-.7.8-1.4.8-.7-.2-1.4-.2-.7.4-1.4.4-.7-.7-1.4-.7-.7,0-1.4,0-.7.4-1.4.4-.7-.8-1.4-.8-.7,1.2-1.4,1.2-.7-1.1-1.4-1.1-.7.5-1.4.5-.7-.5-1.4-.5-.7.5-1.4.5-.7.1-1.4.1-.7-.4-1.4-.4-.7.7-1.4.7-.7-.2-1.4-.2-.7-.6-1.4-.6-.7.8-1.4.8-.7-.6-1.4-.6-.7.8-1.4.8-.7-1.1-1.4-1.1-.7.4-1.4.4-.7.5-1.4.5-.7-.4-1.4-.4-.7-.2-1.4-.2-.7.9-1.4.9-.7-1.1-1.4-1.1-.7.5-1.4.5-.7-.2-1.4-.2-.7.1-1.4.1-.7-.6-1.4-.6-.7.4-1.4.4-.7.8-1.4.8-.7-1-1.4-1-.7.7-1.4.7-.7-.5-1.4-.5-.7.7-1.4.7-.7-.4-1.4-.4-.7-.6-1.4-.6-.7,1.1-1.4,1.1-.7,0-1.4,0-.7,0-1.4,0-.7-.7-1.4-.7-.7.5-1.4.5-.7-.7-1.4-.7-.7.3-1.4.3-.7,0-1.4,0-.7-.5-1.4-.5-.7.4-1.4.4-.7.2-1.4.2-.7.3-1.4.3-.7-1-1.4-1-.7,0-1.4,0-.7.2-1.4.2-.7.2-1.4.2-.7-.2-1.4-.2-.7.8-1.4.8-.7-.3-1.4-.3-.7-.2-1.4-.2-.7.2-1.4.2-.7.2-1.4.2-.7.3-1.4.3-.7-.7-1.4-.7-.7.2-1.4.2-.7-.6-1.4-.6-.7.4-1.4.4-.7,0-1.4,0-.7.6-1.4.6-.7-.6-1.4-.6-.7.3-1.4.3-.7,0-1.4,0-.7-.6-1.4-.6-.7.4-1.4.4-.7-.1-1.4-.1-.7.6-1.4.6-.7-.4-1.4-.4-.7.2-1.4.2-.7,0-1.4,0-.7-.3-1.4-.3-.7,0-1.4,0-.7-.3-1.4-.3-.7,0-1.4,0-.7.9-1.4.9-.7-1.2-1.4-1.2-.7,1.2-1.4,1.2-.7-1.1-1.4-1.1-.7,0-1.4,0-.7.4-1.4.4-.7-.4-1.4-.4-.7,0-1.4,0-.7.3-1.4.3-.7-.5-1.4-.5-.7.1-1.4.1-.7,1-1.4,1-.7-.2-1.4-.2-.7-.4-1.4-.4-.7.5-1.4.5-.7,0-1.4,0-.7,0-1.4,0-.7.2-1.4.2-.7-1-1.4-1-.7,1-1.4,1-.7-.2-1.4-.2-.7-.3-1.4-.3-.7,0-1.4,0-.7-.4-1.4-.4-.7.8-1.4.8-.7-.7-1.4-.7-.7.8-1.4.8-.7-.7-1.4-.7-.7,0-1.4,0-.7,0-1.4,0-.7-.2-1.4-.2-.7.1-1.4.1-.7.6-1.4.6-.7-.3-1.4-.3-.7-.1-1.4-.1-.7,0-1.4,0-.7.4-1.4.4-.7-.9-1.4-.9-.7.9-1.4.9-.7-.8-1.4-.8-.7.3-1.4.3-.7.5-1.4.5-.7-.2-1.4-.2-.7,0-1.4,0-.7.4-1.4.4-.7-.6-1.4-.6-.7-.4-1.4-.4-.7.9-1.4.9-.7,0-1.4,0-.7,0-1.4,0-.7,0-1.4,0-.7-1.1-1.4-1.1-.7.9-1.4.9-.7-.8-1.4-.8-.7.8-1.4.8-.7-.2-1.4-.2-.7.2-1.4.2-.7-.5-1.4-.5-.7-.3-1.4-.3-.7.8-1.4.8-.7-.7-1.4-.7-.7.5-1.4.5-.7-.5-1.4-.5-.7,1-1.4,1-.7-.8-1.4-.8-.7,0-1.4,0-.7,0-1.4,0-.7.5-1.4.5-.7-.2-1.4-.2-.7,0-1.4,0-.7-.4-1.4-.4-.7.2-1.4.2-.7.6-1.4.6-.7-.3-1.4-.3-.7,0-1.4,0-.7.2-1.4.2-.7-.4-1.4-.4-.7-.2-1.4-.2-.7.3-1.4.3-.7.2-1.4.2-.7-1-1.4-1-.7.2-1.4.2-.7-.2-1.4-.2-.7,1-1.4,1-.7-.4-1.4-.4-.7-.3-1.4-.3-.7.8-1.4.8-.7,0-1.4,0-.7-.4-1.4-.4-.7-.3-1.4-.3-.7-.2-1.4-.2-.7.8-1.4.8-.7.2-1.4.2-.7-1-1.4-1-.7.7-1.4.7-.7-.6-1.4-.6-.7.7-1.4.7-.7-.7-1.4-.7-.7-.1-1.4-.1-.7,0-1.4,0-.7,1-1.4,1-.7-.7-1.4-.7-.7,0-1.4,0-.7-.3-1.4-.3-.7.7-1.4.7-.7,0-1.4,0-.7-.7-1.4-.7-.7.1-1.4.1-.7.3-1.4.3-.7,0-1.4,0-.7.5-1.4.5-.7-.5-1.4-.5-.7,0-1.4,0-.7.5-1.4.5-.7,0-1.4,0-.7-.9-1.4-.9-.7,0-1.4,0-.7.5-1.4.5-.7.3-1.4.3-.7-.7-1.4-.7-.7.3-1.4.3-.7-.3-1.4-.3-.3,0-.4.1c-5.4,13.1-9.6,26.8-12.7,40.9.5.1.6.6,1.2.6s.7.1,1.4.1.7-.4,1.4-.4.7-.4,1.4-.4.7.9,1.4.9.7-.7,1.4-.7.7.5,1.4.5.7.1,1.4.1.7-.9,1.4-.9.7.7,1.4.7.7-.5,1.4-.5.7,0,1.4,0,.7-.1,1.4-.1.7.6,1.4.6.7-.4,1.4-.4.7,0,1.4,0,.7-.4,1.4-.4.7,0,1.4,0,.7.8,1.4.8.7-.8,1.4-.8.7,0,1.4,0,.7.7,1.4.7.7-.5,1.4-.5.7,0,1.4,0,.7.2,1.4.2.7-.2,1.4-.2.7-.2,1.4-.2.7-.2,1.4-.2.7.2,1.4.2.7,0,1.4,0,.7.5,1.4.5.7-.7,1.4-.7.7,0,1.4,0,.7.7,1.4.7.7-.4,1.4-.4.7-.3,1.4-.3.7.2,1.4.2.7,0,1.4,0,.7.1,1.4.1.7.5,1.4.5.7-.3,1.4-.3.7,0,1.4,0,.7.4,1.4.4.7-.7,1.4-.7.7.2,1.4.2.7.6,1.4.6.7,0,1.4,0,.7-.7,1.4-.7.7-.2,1.4-.2.7.2,1.4.2.7-.2,1.4-.2.7.7,1.4.7.7-.6,1.4-.6.7.8,1.4.8.7-.7,1.4-.7.7,0,1.4,0,.7,0,1.4,0,.7.6,1.4.6.7,0,1.4,0,.7.2,1.4.2.7-.7,1.4-.7.7.5,1.4.5.7-.5,1.4-.5.7.6,1.4.6.7-.1,1.4-.1.7.2,1.4.2.7-.5,1.4-.5.7.2,1.4.2.7-.6,1.4-.6.7.7,1.4.7.7-.4,1.4-.4.7-.2,1.4-.2.7.5,1.4.5.7-.1,1.4-.1.7,0,1.4,0,.7-.2,1.4-.2.7.4,1.4.4.7,0,1.4,0,.7.4,1.4.4.7-.8,1.4-.8.7.5,1.4.5.7-.5,1.4-.5.7.9,1.4.9.7-.1,1.4-.1.7-.3,1.4-.3.7.4,1.4.4.7-.8,1.4-.8.7,0,1.4,0,.7.3,1.4.3.7,0,1.4,0,.7-.3,1.4-.3.7.5,1.4.5.7,0,1.4,0,.7,0,1.4,0,.7.2,1.4.2.7-.9,1.4-.9.7.3,1.4.3.7,0,1.4,0,.7.4,1.4.4.7,0,1.4,0,.7-.4,1.4-.4.7,0,1.4,0,.7.4,1.4.4.7-.2,1.4-.2.7.2,1.4.2.7.2,1.4.2.7-.6,1.4-.6.7.2,1.4.2.7-.3,1.4-.3.7.2,1.4.2.7.6,1.4.6.7-.5,1.4-.5.7-.3,1.4-.3.7.1,1.4.1.7.3,1.4.3.7.2,1.4.2.7-.4,1.4-.4.7.2,1.4.2.7-.3,1.4-.3.7.8,1.4.8.7-.2,1.4-.2.7-.1,1.4-.1.7,0,1.4,0,.7,0,1.4,0,.7-.1,1.4-.1.7,0,1.4,0,.7-.3,1.4-.3.7.2,1.4.2.7-.4,1.4-.4.7.5,1.4.5.7.2,1.4.2.7,0,1.4,0,.7.2,1.4.2.7-.3,1.4-.3.7-.3,1.4-.3.7,0,1.4,0,.7.6,1.4.6.7,0,1.4,0,.7-.6,1.4-.6.7.3,1.4.3.7,0,1.4,0,.7,0,1.4,0,.7.2,1.4.2.7-.7,1.4-.7.7.3,1.4.3.7-.2,1.4-.2.7.6,1.4.6.7-.8,1.4-.8.7.7,1.4.7.7-.2,1.4-.2.7-.4,1.4-.4.7.2,1.4.2.7-.1,1.4-.1.7.2,1.4.2.7.3,1.4.3.7,0,1.4,0,.7,0,1.4,0,.7.2,1.4.2.7-.8,1.4-.8.7.6,1.4.6.7-.2,1.4-.2.7.3,1.4.3.7-.7,1.4-.7.7.3,1.4.3.7-.3,1.4-.3.7.2,1.4.2.7.4,1.4.4.7-.4,1.4-.4.7.5,1.4.5.7-.4,1.4-.4.7.3,1.4.3.7,0,1.4,0,.7-.6,1.4-.6.7.2,1.4.2.7.4,1.4.4.7-.2,1.4-.2.7-.5,1.4-.5.7.2,1.4.2.7,0,1.4,0,.7.5,1.4.5.7-.3,1.4-.3.7,0,1.4,0,.7-.3,1.4-.3.7.4,1.4.4.7-.5,1.4-.5.7.3,1.4.3.7,0,1.4,0,.7-.1,1.4-.1.7,0,1.4,0,.7.4,1.4.4.7-.2,1.4-.2.7,0,1.4,0,.7.5,1.4.5.7.2,1.4.2.7,0,1.4,0,.7-.6,1.4-.6.7-.2,1.4-.2.7.5,1.4.5.7,0,1.4,0,.7.3,1.4.3.7-.7,1.4-.7.7.8,1.4.8.7-.7,1.4-.7.7.3,1.4.3.7,0,1.4,0,.7-.3,1.4-.3.7,0,1.4,0,.7.4,1.4.4.7-.7,1.4-.7.7,0,1.4,0,.7.7,1.4.7.7,0,1.4,0,.7-.3,1.4-.3.7-.3,1.4-.3.7.1,1.4.1.7,0,1.4,0,.7.4,1.4.4.7-.5,1.4-.5.7.7,1.4.7.7-.6,1.4-.6.7.2,1.4.2.7.5,1.4.5.7-.8,1.4-.8.7,0,1.4,0,.7,0,1.4,0,.7-.1,1.4-.1.7.7,1.4.7.7-.6,1.4-.6.7,0,1.4,0,.7.6,1.4.6.7.3,1.4.3.7-.5,1.4-.5.7-.2,1.4-.2.7.4,1.4.4.7-.1,1.4-.1.7.4,1.4.4.7-.4,1.4-.4.7.3,1.4.3.7-.3,1.4-.3.7.3,1.4.3.7-.6,1.4-.6.7,0,1.4,0,.7,0,1.4,0,.7.7,1.4.7.7-.4,1.4-.4.7,0,1.4,0,.7-.2,1.4-.2.7.8,1.4.8.7-.3,1.4-.3.7,0,1.4,0,.7,0,1.4,0,.7.1,1.4.1.7-.3,1.4-.3.7-.3,1.4-.3.7.5,1.4.5.7,0,1.4,0,.7.3,1.4.3.7-.6,1.4-.6.7,0,1.4,0,.7,0,1.4,0,.7.4,1.4.4.7-.4,1.4-.4.7,0,1.4,0,.7.3,1.4.3.7-.4,1.4-.4.7.6,1.5.6.7-.6,1.5-.6,1,.6,1.5.5c.5,0,1.1.1,1.5,0,.5,0,.8-.9,1.3-1.1.5-.1,1,0,1.4-.3.5-.2,1-.1,1.5-.4.4-.2.8-.7,1.2-1,.4-.3.5-.9.9-1.2.4-.3.7-.6,1.1-.9.3-.3,1.1-.3,1.4-.7.3-.4.4-1,.6-1.4.3-.4.4-.9.7-1.3.2-.4.6-.8.7-1.3.2-.5.9-.7,1-1.2.1-.5-.4-1.1-.3-1.6,0-.5.7-.9.8-1.4,0-.5-.1-1-.1-1.5,0-.7,0-.7,0-1.4s-.1-.7-.1-1.4,0-.7,0-1.4-.2-.7-.2-1.4-.1-.7-.1-1.4-.1-.7-.1-1.4.8-.7.8-1.4-.2-.7-.2-1.4-.4-.7-.4-1.4.7-.7.7-1.4-.3-.7-.3-1.4-.2-.7-.2-1.4.3-.7.3-1.4-.1-.7-.1-1.4.1-.7.1-1.4-.5-.7-.5-1.4.2-.7.2-1.4,0-.7,0-1.4-.2-.7-.2-1.4.5-.7.5-1.4,0-.7,0-1.4-.5-.7-.5-1.4.5-.7.5-1.4-.3-.7-.3-1.4-.2-.7-.2-1.4,0-.7,0-1.4,0-.7,0-1.4.3-.7.3-1.4.3-1,.5-1.5c.2-.5.1-1.1.4-1.5.3-.4.6-1,1-1.3.4-.3,1-.6,1.5-.8.5-.2,1.1-.2,1.7-.2s1.1.1,1.6.3c.5.2,1.1.4,1.5.7.4.3.5,1,.8,1.4.3.4.6.8.8,1.3.2.5.4,1,.4,1.5s-.3.7-.3,1.5.3.7.3,1.5-.2.7-.2,1.5-.3.7-.3,1.5.8.7.8,1.5-.1.7-.1,1.4.2.7.2,1.4-.4.7-.4,1.5.2.7.2,1.5,0,.7,0,1.5.1.7.1,1.5-.3.7-.3,1.5-.4.7-.4,1.5.1.7.1,1.5,0,.7,0,1.5.1.7.1,1.5-.2.7-.2,1.5.6.7.6,1.5-.7.7-.7,1.5.5.7.5,1.5-.3.7-.3,1.5,0,.7,0,1.5,0,.7,0,1.5,0,.7,0,1.5.5.7.5,1.5-.7.7-.7,1.5.7.7.7,1.5,0,.7,0,1.5-.8.7-.8,1.5.3.7.3,1.5-.4.7-.4,1.5,0,.7,0,1.5.6.7.6,1.5.1.7.1,1.5-.6.7-.6,1.5.7.7.7,1.5-.6.7-.6,1.5.2.7.2,1.5-.5.7-.5,1.5.2.7.2,1.5.6,1.1.5,1.5c-.1.5-1,.7-1.2,1.1-.2.4.2,1.3-.1,1.7-.3.4-.9.6-1.3.9-.4.3-1,.1-1.5.3-.4.2-.6,1.1-1.1,1.2-.5.1-1-.2-1.5-.2-.7,0-.7,0-1.4,0s-.7-.1-1.4-.1-.7,0-1.4,0-.7.2-1.4.2-.7,0-1.4,0-.7.3-1.4.3-.7-.7-1.4-.7-.7.1-1.4.1-.7,0-1.4,0-.7.4-1.4.4-.7,0-1.4,0-.7.2-1.4.2-.7-.2-1.4-.2-.7-.3-1.4-.3-.7.7-1.4.7-.7,0-1.4,0-.7-.6-1.4-.6-.7.7-1.4.7-.7-.3-1.4-.3-.7.3-1.4.3-.7,0-1.4,0-.7-.6-1.4-.6-.7,0-1.4,0-.7-.2-1.4-.2-.7.2-1.4.2-.7.2-1.4.2-.7.2-1.4.2-.7,0-1.4,0-.7-.7-1.4-.7-.7.2-1.4.2-.7,0-1.4,0-.7.8-1.4.8-.7-.8-1.4-.8-.7.3-1.4.3-.7.5-1.4.5-.7-.5-1.4-.5-.7,0-1.4,0-.7.3-1.4.3-.7-.3-1.4-.3-.7-.3-1.4-.3-.7-.1-1.4-.1-.7.7-1.4.7-.7-.5-1.4-.5-.7-.2-1.4-.2-.7.3-1.4.3-.7,0-1.4,0-.7.4-1.4.4-.7-.1-1.4-.1-.7,0-1.4,0-.7.3-1.4.3-.7-.3-1.4-.3-.7.3-1.4.3-.7,0-1.4,0-.7-.9-1.4-.9-.7.6-1.4.6-.7.2-1.4.2-.7-.4-1.4-.4-.7-.3-1.4-.3-.7.7-1.4.7-.7,0-1.4,0-.7,0-1.4,0-.7.1-1.4.1-.7-.8-1.4-.8-.7.4-1.4.4-.7-.4-1.4-.4-.7.3-1.4.3-.7,0-1.4,0-.7.4-1.4.4-.7-.4-1.4-.4-.7-.2-1.4-.2-.7.5-1.4.5-.7-.8-1.4-.8-.7.7-1.4.7-.7-.5-1.4-.5-.7-.2-1.4-.2-.7.2-1.4.2-.7-.2-1.4-.2-.7.2-1.4.2-.7.4-1.4.4-.7-.6-1.4-.6-.7.4-1.4.4-.7-.3-1.4-.3-.7,0-1.5,0-.7.1-1.5.1-.7,0-1.5,0-.9.8-1.4.8c-.5,0-1-.4-1.5-.3-.5,0-1,0-1.5.2-.5.1-.9.5-1.3.7-.5.2-1,.3-1.4.5-.4.2-1,.3-1.4.6-.4.3-.5,1-.9,1.3-.4.3-.8.6-1.2.9-.3.3-.5.8-.8,1.2-.3.4-.7.7-1,1.1-.3.4-.5.9-.7,1.3-.2.4-.3.9-.5,1.4-.2.5-1,.7-1.1,1.2-.1.5.4,1.1.4,1.6,0,.5,0,.9-.1,1.4,0,.5-.9.9-.9,1.4,0,.7,0,.7,0,1.4s.6.7.6,1.4.2.7.2,1.4,0,.7,0,1.4-.7.7-.7,1.4.8.7.8,1.4-.2.7-.2,1.4,0,.7,0,1.4-.6.7-.6,1.4,0,.7,0,1.4.6.7.6,1.4.2.7.2,1.4,0,.7,0,1.4-.3.7-.3,1.4-.5.7-.5,1.4.7.7.7,1.4c0,.7.3.7.3,1.4,0,.7-.4.7-.4,1.4s.3.7.3,1.4.2.7.2,1.4-.6.7-.6,1.4.6.7.6,1.4-.5.7-.5,1.4.3.7.3,1.4-.5.7-.5,1.4.5.7.5,1.4-.5.7-.5,1.4c0,.7.2.7.2,1.5,0,.7.2.7.2,1.5s0,1.1-.3,1.6c-.2.5-.7.8-1,1.2-.3.4-.6.8-1,1.1-.4.3-.9.4-1.4.6-.5.2-.9.9-1.5.9s-1.1-.5-1.5-.7c-.5-.2-.9-.5-1.3-.8-.4-.3-.9-.6-1.2-1-.3-.4-.5-.9-.7-1.4-.2-.5-.2-1-.2-1.5s0-.7,0-1.4.3-.7.3-1.4c0-.7-.8-.7-.8-1.4s0-.7,0-1.4c0-.7.5-.7.5-1.4s.1-.7.1-1.4-.2-.7-.2-1.4c0-.7.4-.7.4-1.4s-.6-.7-.6-1.4,0-.7,0-1.4.4-.7.4-1.4.1-.7.1-1.4.1-.7.1-1.4-.6-.7-.6-1.4.5-.7.5-1.4-.4-.7-.4-1.4-.5-.7-.5-1.4.3-.7.3-1.4-.2-.7-.2-1.4.5-.7.5-1.4c0-.7-.4-.7-.4-1.4s.6-.7.6-1.4-.6-.7-.6-1.4,0-.7,0-1.4-.1-.7-.1-1.4.8-.7.8-1.4-.6-.7-.6-1.4c0-.7.6-.7.6-1.4s-.6-.7-.6-1.5.6-1,.5-1.5c0-.5-.8-.9-.9-1.4,0-.5.3-1.1.1-1.6-.1-.5-.3-1-.5-1.4-.2-.5-.7-.8-.9-1.2-.2-.4-.7-.7-1-1.1-.3-.4-.3-.9-.7-1.3-.3-.4-.4-1-.7-1.3s-1-.3-1.4-.7c-.4-.3-.6-.8-1-1.1-.4-.3-1.1-.1-1.5-.4-.4-.2-.6-.9-1.1-1.1-.5-.2-1-.2-1.5-.3-.5-.1-1,0-1.5,0-.5,0-.9,0-1.4-.1-.5,0-.9-.2-1.4-.2-.7,0-.7-.7-1.4-.7s-.7.4-1.4.4-.7.3-1.4.3-.7-.2-1.4-.2-.7-.1-1.4-.1-.7,0-1.4,0-.7.1-1.4.1-.7,0-1.4,0-.7.5-1.4.5-.7-.5-1.4-.5-.7,0-1.4,0-.7.3-1.4.3-.7-.6-1.4-.6-.7.7-1.4.7-.7-.8-1.4-.8-.7.3-1.4.3-.7.6-1.4.6-.7-.5-1.4-.5-.7-.3-1.4-.3-.7,0-1.4,0-.7.5-1.4.5-.7.1-1.4.1-.7,0-1.4,0-.7,0-1.4,0-.7,0-1.4,0-.7-.6-1.4-.6-.7.7-1.4.7-.7-.8-1.4-.8-.7.1-1.4.1-.7.5-1.4.5-.7-.6-1.4-.6-.7.4-1.4.4-.7-.4-1.4-.4-.7,0-1.4,0-.7.4-1.4.4-.7-.3-1.4-.3-.7-.2-1.4-.2-.7.8-1.4.8-.7,0-1.4,0-.7,0-1.4,0-.7-.3-1.4-.3-.7.1-1.4.1-.7-.6-1.4-.6-.7.2-1.4.2-.7-.3-1.4-.3-.7.9-1.4.9-.7-.3-1.4-.3-.7-.2-1.4-.2-.7.2-1.4.2-.7.2-1.4.2-.7,0-1.4,0-.7-.6-1.4-.6-.7.3-1.4.3-.7,0-1.4,0-.7-.3-1.4-.3-.7.7-1.4.7-.7-.9-1.4-.9-.7,0-1.4,0-.7.4-1.4.4-.7-.2-1.4-.2-.7.3-1.4.3-.7.1-1.4.1-.7-.3-1.4-.3-.7-.2-1.4-.2-.7.5-1.4.5-.7-.7-1.4-.7-.7.6-1.4.6-.7-.3-1.4-.3-.7.1-1.4.1-.7.3-1.4.3-.7-.8-1.4-.8-.7,0-1.4,0-.7,0-1.4,0-.7.3-1.4.3-.7.5-1.4.5-.7-.8-1.4-.8-.7.2-1.4.2-.7,0-1.4,0-.7.2-1.4.2-.7,0-1.4,0-.7.2-1.4.2-.7-.4-1.4-.4-.7.2-1.4.2-.7,0-1.4,0-.7.2-1.4.2-.7-.1-1.4-.1-.7-.8-1.4-.8-.7,0-1.4,0-.7.3-1.4.3-.7.2-1.4.2-.7,0-1.4,0-.7,0-1.4,0-.7-.5-1.4-.5-.7.1-1.4.1-.7.6-1.4.6-.7-.6-1.4-.6-.7,0-1.4,0-.7.7-1.4.7-.7-.2-1.4-.2-.7-.5-1.4-.5-.7.1-1.4.1-.7.6-1.4.6-.7-.8-1.4-.8-.7.5-1.4.5-.7,0-1.4,0-.7-.3-1.4-.3-.7-.2-1.4-.2-.7.5-1.4.5-.7-.5-1.4-.5-.7.7-1.4.7-.7-.6-1.4-.6-.7.4-1.4.4-.7,0-1.4,0-.7.2-1.4.2-.7-.2-1.4-.2-.7,0-1.4,0-.7.2-1.4.2-.7-.7-1.4-.7-.7.2-1.4.2-.7.4-1.4.4-.7,0-1.4,0-.7-.5-1.4-.5-.7.3-1.4.3-.7-.4-1.4-.4-.7,0-1.4,0-.7,0-1.4,0-.7.7-1.4.7-.7.2-1.4.2-.7-.2-1.4-.2-.7-.1-1.4-.1-.7-.4-1.4-.4-.7.3-1.4.3-.7.4-1.4.4-.7-.1-1.4-.1-.7-.2-1.4-.2-.7,0-1.4,0-.7.5-1.4.5-.7-.4-1.4-.4-.7.4-1.4.4-.7-.7-1.4-.7-.7.3-1.4.3-.7-.3-1.4-.3-.7,0-1.4,0-.7-.2-1.4-.2-.7.2-1.4.2-.7.5-1.4.5-.7.2-1.4.2-.7-.9-1.4-.9-.7.4-1.4.4-.7.1-1.4.1-.7-.3-1.4-.3-.7,0-1.4,0-.7.6-1.4.6-.7-.6-1.4-.6-.7-.4-1.4-.4-.7.8-1.4.8-.7-.6-1.4-.6-.7.3-1.4.3-.7.2-1.4.2-.7.2-1.4.2-.7-.6-1.4-.6-.7.1-1.4.1-.7-.3-1.4-.3-.7.4-1.4.4-.7-.2-1.4-.2-.7,0-1.4,0-.7.5-1.4.5-.7-.6-1.4-.6-.5,0-.7-.1c-2.5,14.1-3.8,28.7-3.8,43.6s1.5,31,4.2,45.9c.6,0,.7.6,1.4.6s.7-.1,1.4-.1.7.1,1.4.1.7-.5,1.4-.5.7,0,1.4,0,.7.4,1.4.4.7-.4,1.4-.4.7.6,1.4.6.7-.1,1.4-.1.7-.4,1.4-.4.7-.2,1.4-.2.7.2,1.4.2.7-.2,1.4-.2.7.8,1.4.8.7-.7,1.4-.7.7.5,1.4.5.7-.2,1.4-.2.7-.3,1.4-.3.7.5,1.4.5.7-.3,1.4-.3.7.3,1.4.3.7.2,1.4.2.7-.4,1.4-.4.7.6,1.4.6.7-.4,1.4-.4.7.3,1.4.3.7,0,1.4,0,.7-.1,1.4-.1.7-.6,1.4-.6.7.3,1.4.3.7.2,1.4.2.7-.4,1.4-.4.7-.2,1.4-.2.7.7,1.4.7.7.1,1.4.1.7-.4,1.4-.4.7.3,1.4.3.7,0,1.4,0,.7-.6,1.4-.6.7-.2,1.4-.2.7.3,1.4.3.7.4,1.4.4.7-.8,1.4-.8.7.7,1.4.7.7-.2,1.4-.2.7-.3,1.4-.3.7.7,1.4.7.7-.8,1.4-.8.7.4,1.4.4.7.2,1.4.2.7-.2,1.4-.2.7-.3,1.4-.3.7.3,1.4.3.7.3,1.4.3.7-.6,1.4-.6.7.5,1.4.5.7-.3,1.4-.3.7,0,1.4,0,.7-.3,1.4-.3.7.8,1.4.8.7,0,1.4,0,.7-.5,1.4-.5.7-.3,1.4-.3.7.2,1.4.2.7,0,1.4,0,.7.2,1.4.2.7-.3,1.4-.3.7-.3,1.4-.3.7.7,1.4.7.7-.3,1.4-.3.7.1,1.4.1.7-.2,1.4-.2.7.3,1.4.3.7-.3,1.4-.3.7.4,1.4.4.7,0,1.4,0,.7.2,1.4.2.7-.4,1.4-.4.7-.4,1.4-.4.7.4,1.4.4.7,0,1.4,0,.7.3,1.4.3.7-.2,1.4-.2.7-.3,1.4-.3.7.4,1.4.4.7.4,1.4.4.7-.7,1.4-.7.7-.3,1.4-.3.7.6,1.4.6.7-.2,1.4-.2.7-.5,1.4-.5.7.5,1.4.5.7.1,1.4.1.7-.1,1.4-.1.7,0,1.4,0,.7,0,1.4,0,.7,0,1.4,0,.7.3,1.4.3.7-.8,1.4-.8.7,0,1.4,0,.7.5,1.4.5.7.1,1.4.1.7-.2,1.4-.2.7.4,1.4.4.7-.6,1.4-.6.7,0,1.4,0,.7.4,1.4.4.7.1,1.4.1.7.1,1.4.1.7-.6,1.4-.6.7.5,1.4.5.7-.4,1.4-.4.7-.5,1.4-.5.7.3,1.4.3.7-.2,1.4-.2.7.5,1.4.5.7-.4,1.4-.4.7.6,1.4.6.7-.6,1.4-.6.7,0,1.4,0,.7-.1,1.4-.1.7.8,1.4.8.7-.6,1.4-.6.7.6,1.4.6.7-.6,1.4-.6.7.6,1.4.6.7-.7,1.4-.7.7.5,1.4.5.7,0,1.4,0,.7-.3,1.4-.3.7-.3,1.4-.3.7.3,1.4.3.7.4,1.4.4.7-.5,1.4-.5.7.2,1.4.2.7-.5,1.4-.5.7.5,1.4.5.7-.2,1.4-.2.7-.3,1.4-.3.7,0,1.4,0,.7.1,1.4.1.7.7,1.4.7.7-.4,1.4-.4.7-.3,1.4-.3.7.2,1.4.2.7.1,1.4.1.7,0,1.4,0,.7-.1,1.4-.1.7,0,1.4,0,.7-.5,1.4-.5.7.5,1.4.5.7,0,1.4,0,.7-.3,1.4-.3.7.6,1.4.6.7-.7,1.4-.7.7.8,1.4.8.7-.3,1.4-.3.7-.6,1.4-.6.7.5,1.4.5.7.3,1.4.3.7,0,1.4,0,.7-.5,1.4-.5.7-.1,1.4-.1.7,0,1.4,0,.7,0,1.4,0,.7,0,1.4,0,.7.6,1.4.6.7-.7,1.4-.7.7.8,1.4.8.7-.1,1.4-.1.7-.5,1.4-.5.7.6,1.4.6.7-.4,1.4-.4.7.4,1.4.4.7,0,1.4,0,.7-.4,1.4-.4.7.3,1.4.3.7.2,1.4.2.7-.8,1.4-.8.7,0,1.4,0,.7,0,1.4,0,.7.3,1.4.3.7-.1,1.4-.1.7.6,1.4.6.7-.2,1.4-.2.7.3,1.4.3.7-.9,1.4-.9.7.3,1.4.3.7.2,1.4.2.7-.2,1.4-.2.7-.2,1.4-.2.7,0,1.4,0,.7.6,1.4.6.7-.3,1.4-.3.7,0,1.4,0,.7.3,1.4.3.7-.7,1.4-.7.7.9,1.4.9.7,0,1.4,0,.7-.4,1.4-.4.7.2,1.4.2.7-.3,1.4-.3.7-.1,1.4-.1.7.3,1.4.3.7.2,1.4.2.7-.5,1.4-.5.7.7,1.4.7.7-.6,1.4-.6.7.3,1.4.3.7-.1,1.4-.1.7-.3,1.4-.3.7.8,1.4.8.7,0,1.4,0,.7,0,1.4,0,.7-.3,1.4-.3.7-.5,1.4-.5.7.8,1.4.8.7-.2,1.4-.2.7,0,1.4,0,.7-.2,1.4-.2.7,0,1.4,0,.7-.2,1.4-.2.7.4,1.4.4.7-.2,1.4-.2.7,0,1.4,0,.7-.2,1.4-.2.7.1,1.4.1.7.8,1.4.8.7,0,1.4,0,.7-.3,1.4-.3.7-.2,1.4-.2.7,0,1.4,0,.7,0,1.4,0,.7.5,1.4.5.7-.1,1.4-.1.7-.6,1.4-.6.7.6,1.4.6.7,0,1.4,0,.7-.7,1.4-.7.7.2,1.4.2.7.5,1.4.5.7-.1,1.4-.1.7-.6,1.4-.6.7.8,1.4.8.7-.5,1.4-.5.7,0,1.4,0,.7.3,1.4.3.7.2,1.4.2.7-.5,1.4-.5.7.5,1.4.5.7-.7,1.4-.7.7.6,1.4.6.7-.4,1.4-.4.7,0,1.4,0,.7-.2,1.4-.2.7.2,1.4.2.7,0,1.4,0,.7-.2,1.4-.2.7.7,1.4.7.7-.2,1.4-.2.7-.4,1.4-.4.7,0,1.4,0,.7.5,1.4.5.7-.3,1.4-.3.7.4,1.4.4.7,0,1.4,0,.7,0,1.5,0,.7-.7,1.5-.7.9-.2,1.4-.2c.5,0,1,.1,1.5,0,.5,0,1,0,1.5-.2.5-.1,1.1,0,1.5-.1.5-.2.8-.7,1.2-.9.4-.2.7-.8,1.1-1.1.4-.3.9-.5,1.2-.8.4-.3.8-.5,1.2-.9s.7-.7,1-1c.3-.4.2-1,.5-1.4.3-.4.8-.6,1.1-1,.2-.4,0-1,.2-1.5.2-.5,1-.7,1.1-1.1.1-.5,0-1,0-1.5,0-.5.5-.9.5-1.4,0-.5,0-1,0-1.5,0-.7.2-.7.2-1.5s-.2-.7-.2-1.5-.5-.7-.5-1.5-.2-.7-.2-1.5.9-.7.9-1.5-.4-.7-.4-1.5-.1-.7-.1-1.5.3-.7.3-1.5,0-.7,0-1.5-.6-.7-.6-1.5.6-.7.6-1.5.4-.7.4-1.5-.8-.7-.8-1.5.6-.7.6-1.5-.3-.7-.3-1.5-.2-.7-.2-1.5-.2-.7-.2-1.5.6-.7.6-1.5-.1-.7-.1-1.5.3-.7.3-1.5-.4-.7-.4-1.5.2-.7.2-1.5,0-.7,0-1.5-.5-.7-.5-1.5.6-.7.6-1.5.3-.7.3-1.5-.6-.7-.6-1.5.1-.7.1-1.5-.4-.7-.4-1.5-.1-.7-.1-1.5.7-.7.7-1.5-.5-.7-.5-1.5.6-1,.8-1.5c.2-.5.4-.9.7-1.3.3-.4.2-1.3.6-1.6.4-.3,1.1-.2,1.6-.4.5-.2,1,0,1.6,0s1.2-.5,1.7-.3c.5.2.7.9,1.2,1.2.4.3.8.6,1.1,1,.3.4.9.7,1.1,1.2.2.5.4,1.1.4,1.6s-.7.7-.7,1.4.5.7.5,1.4.2.7.2,1.4-.5.7-.5,1.4-.4.7-.4,1.4.6.7.6,1.4-.6.7-.6,1.4.6.7.6,1.4-.3.7-.3,1.4.4.7.4,1.4-.1.7-.1,1.4-.4.7-.4,1.4.1.7.1,1.4-.3.7-.3,1.4,0,.7,0,1.4.3.7.3,1.5-.2.7-.2,1.4-.2.7-.2,1.4.6.7.6,1.4-.5.7-.5,1.4,0,.7,0,1.4.6.7.6,1.4-.2.7-.2,1.5-.3.7-.3,1.4.2.7.2,1.4.3.7.3,1.4-.3.7-.3,1.5-.4.7-.4,1.5,0,.7,0,1.4.3.7.3,1.5,0,.7,0,1.5-.1.7-.1,1.5.1.7.1,1.5,0,.7,0,1.5,0,.7,0,1.5-.1.7-.1,1.4,0,.7,0,1.4,0,.7,0,1.5.4.7.4,1.5-.4.7-.4,1.5-.1.7-.1,1.5.2.7.2,1.5-.2.7-.2,1.5.7.7.7,1.5-.2.7-.2,1.5-.6.9-.7,1.3c-.1.5.5,1.2.3,1.6-.2.4-1,.5-1.3.9-.3.4-.4.9-.8,1.2-.4.3-.6,1-1,1.2-.4.2-1,.2-1.5.3-.5.1-1-.3-1.5-.3-.7,0-.7,0-1.4,0s-.7.3-1.4.3-.7,0-1.4,0-.7.2-1.4.2-.7,0-1.4,0-.7,0-1.4,0-.7-.6-1.4-.6-.7,0-1.4,0-.7.4-1.4.4-.7.4-1.4.4-.7-.6-1.4-.6-.7.5-1.4.5-.7,0-1.4,0-.7-.5-1.4-.5-.7.4-1.4.4-.7.1-1.4.1-.7-.2-1.4-.2-.7.3-1.4.3-.7,0-1.4,0-.7-.2-1.4-.2-.7-.4-1.4-.4-.7.1-1.4.1-.7-.2-1.4-.2-.7,0-1.4,0-.7.6-1.4.6-.7.1-1.4.1-.7-.4-1.4-.4-.7,0-1.4,0-.7.2-1.4.2-.7-.6-1.4-.6-.7.4-1.4.4-.7-.4-1.4-.4-.7.3-1.4.3-.7.3-1.4.3-.7,0-1.4,0-.7-.2-1.4-.2-.7,0-1.4,0-.7,0-1.4,0-.7,0-1.4,0-.7.3-1.4.3-.7.3-1.4.3-.7-.9-1.4-.9-.7.7-1.4.7-.7,0-1.4,0-.7.1-1.4.1-.7-.4-1.4-.4-.7.3-1.4.3-.7-.6-1.4-.6-.7-.1-1.4-.1-.7.4-1.4.4-.7.4-1.4.4-.7-.9-1.4-.9-.7.7-1.4.7-.7-.5-1.4-.5-.7-.1-1.4-.1-.7.9-1.4.9-.7-.7-1.4-.7-.7.5-1.4.5-.7,0-1.4,0-.7.1-1.4.1-.7-.6-1.4-.6-.7.4-1.4.4-.7,0-1.4,0-.7.4-1.4.4-.7,0-1.4,0-.7-.8-1.4-.8-.7.8-1.4.8-.7,0-1.4,0-.7-.7-1.4-.7-.7.5-1.4.5-.7,0-1.4,0-.7-.2-1.4-.2-.7.2-1.4.2-.7.2-1.4.2-.7.2-1.4.2-.7-.2-1.4-.2-.7,0-1.4,0-.7-.5-1.4-.5-.7.7-1.4.7-.7,0-1.4,0-.7-.7-1.4-.7-.7.4-1.4.4-.7.3-1.4.3-.7-.2-1.4-.2-.7,0-1.4,0-.7-.1-1.4-.1-.7-.5-1.4-.5-.7.3-1.4.3-.7,0-1.4,0-.7-.4-1.4-.4-.7.7-1.4.7-.7-.2-1.4-.2-.7-.6-1.4-.6-.7,0-1.4,0-.7.7-1.4.7-.7.2-1.4.2-.7-.2-1.4-.2-.7.2-1.4.2-.7-.7-1.4-.7-.7.6-1.4.6-.7-.8-1.4-.8-.7.7-1.4.7-.7,0-1.4,0-.7,0-1.4,0-.7-.6-1.4-.6-.7,0-1.4,0-.7-.2-1.4-.2-.7.7-1.4.7-.7-.5-1.4-.5-.7.5-1.4.5-.7-.6-1.4-.6-.7.1-1.4.1-.7-.2-1.4-.2-.7.5-1.4.5-.7-.2-1.4-.2-.7.6-1.4.6-.7-.7-1.4-.7-.7.4-1.4.4-.7.2-1.4.2-.7-.5-1.4-.5-.7.1-1.4.1-.7,0-1.4,0-.7.2-1.4.2-.7-.4-1.4-.4-.7,0-1.4,0-.7-.4-1.4-.4-.7.8-1.4.8-.7-.5-1.4-.5-.7.5-1.4.5-.7-.9-1.4-.9-.7.1-1.4.1-.7.3-1.4.3-.7-.4-1.4-.4-.7.8-1.4.8-.7,0-1.4,0-.7-.3-1.4-.3-.7,0-1.4,0-.7.3-1.4.3-.7-.5-1.4-.5-.7,0-1.4,0-.7,0-1.4,0-.7-.2-1.4-.2-.7.9-1.4.9-.7-.3-1.4-.3-.7,0-1.4,0-.7-.4-1.4-.4-.7,0-1.4,0-.7.4-1.4.4-.7,0-1.4,0-.7-.4-1.4-.4-.7.2-1.4.2-.7-.2-1.4-.2-.7-.2-1.4-.2-.7.6-1.4.6-.7-.2-1.4-.2-.7.3-1.4.3-.7-.2-1.4-.2-.7-.6-1.4-.6-.7.5-1.4.5-.7.3-1.4.3-.7-.1-1.4-.1-.7-.3-1.4-.3-.7-.2-1.4-.2-.7.4-1.4.4-.7-.2-1.4-.2-.7.3-1.4.3-.7-.8-1.4-.8-.7.2-1.4.2-.7.1-1.4.1-.7,0-1.4,0-.7,0-1.4,0-.7.1-1.4.1-.7,0-1.4,0-.7.3-1.4.3-.7-.2-1.4-.2-.7.4-1.4.4-.7-.5-1.4-.5-.7-.2-1.4-.2-.7,0-1.4,0-.7-.2-1.4-.2-.7.3-1.4.3-.7.3-1.4.3-.7,0-1.4,0-.7-.6-1.4-.6-.7,0-1.4,0-.7.6-1.4.6-.7-.3-1.4-.3-.7,0-1.4,0-.7,0-1.4,0-.7-.2-1.4-.2-.7.7-1.4.7-.7-.3-1.4-.3-.7.2-1.4.2-.7-.6-1.4-.6-.7.8-1.4.8-.7-.7-1.4-.7-.7.2-1.4.2-.7.4-1.4.4-.7-.2-1.4-.2-.7.1-1.4.1-.7-.2-1.4-.2-.7-.3-1.4-.3-.7,0-1.4,0-.7,0-1.4,0-.7-.2-1.4-.2-.7.8-1.4.8-.7-.6-1.4-.6-.7.2-1.4.2-.7-.3-1.4-.3-.7.7-1.4.7-.7-.3-1.4-.3-.7.3-1.4.3-.7-.2-1.4-.2-.7-.4-1.4-.4-.7.4-1.4.4-.7-.5-1.4-.5-.7.4-1.4.4-.7-.3-1.4-.3-.7,0-1.4,0-.7.6-1.4.6-.7-.2-1.4-.2-.7-.4-1.4-.4-.7.2-1.4.2-.7.5-1.4.5-.7-.2-1.4-.2-.7,0-1.4,0-.7-.5-1.4-.5-.7.3-1.4.3-.7,0-1.4,0-.7.3-1.4.3-.7-.4-1.4-.4-.7.5-1.4.5-.7-.3-1.4-.3-.7,0-1.4,0-.7.1-1.4.1-.7,0-1.4,0-.7-.4-1.4-.4-.7.2-1.4.2-.7,0-1.4,0-.7-.5-1.4-.5-.7-.2-1.4-.2-.7,0-1.4,0-.7.6-1.4.6-.7.2-1.4.2-.7-.5-1.4-.5-.7,0-1.4,0-.7-.3-1.4-.3-.7.7-1.4.7-.7-.8-1.4-.8-.7.7-1.4.7-.7-.3-1.4-.3-.7,0-1.4,0-.7.3-1.4.3-.7,0-1.4,0-.7-.4-1.4-.4-.7.7-1.4.7-.7,0-1.4,0-.7-.7-1.4-.7-.7,0-1.4,0-.7.3-1.4.3-.7.3-1.4.3-.7-.1-1.4-.1-.7,0-1.4,0-.7-.4-1.4-.4-.7.5-1.4.5-.7-.7-1.4-.7-.7.6-1.4.6-.7-.2-1.4-.2-.7-.5-1.4-.5-.7.8-1.4.8-.7,0-1.4,0-.7,0-1.4,0-.7.1-1.4.1-.7-.7-1.4-.7-.7.6-1.4.6-.7,0-1.4,0-.7-.6-1.4-.6-.7-.3-1.4-.3-.7.5-1.4.5-.7.1-1,.2c3.2,13.9,7.6,27.4,13,40.3.5-.1.6-.6,1.2-.6s.7-.2,1.4-.2.7,0,1.4,0,.7.7,1.4.7.7-.8,1.4-.8.7.2,1.4.2.7,0,1.4,0,.7.6,1.4.6.7,0,1.4,0,.7-.6,1.4-.6.7-.2,1.4-.2.7,0,1.4,0,.7.3,1.4.3.7.5,1.4.5.7-.7,1.4-.7.7-.3,1.4-.3.7.4,1.4.4.7-.3,1.4-.3.7-.2,1.4-.2.7.6,1.4.6.7-.6,1.4-.6.7.5,1.4.5.7-.3,1.4-.3.7.5,1.4.5.7-.5,1.4-.5.7.5,1.4.5.7-.2,1.4-.2.7-.2,1.4-.2.7,0,1.4,0,.7.3,1.4.3.7,0,1.4,0,.7,0,1.4,0,.7-.1,1.4-.1.7.1,1.4.1.7-.2,1.4-.2.7.3,1.4.3.7-.4,1.4-.4.7.1,1.4.1.7.3,1.4.3.7-.5,1.4-.5.7.2,1.4.2.7.3,1.4.3.7-.6,1.4-.6.7.8,1.4.8.7-.6,1.4-.6.7.2,1.4.2.7.3,1.4.3.7-.7,1.4-.7.7.7,1.4.7.7-.5,1.4-.5.7.2,1.4.2.7.2,1.4.2.7,0,1.4,0,.7-.6,1.4-.6.7,0,1.4,0,.7.1,1.4.1.7,0,1.4,0,.7,0,1.4,0,.7.3,1.4.3.7,0,1.4,0,.7-.6,1.4-.6.7.9,1.4.9.7-.8,1.4-.8.7.8,1.4.8.7-.5,1.4-.5.7.5,1.4.5.7-.7,1.4-.7.7-.1,1.4-.1.7.7,1.4.7.7-.5,1.4-.5.7.3,1.4.3.7-.3,1.4-.3.7-.2,1.4-.2.7.5,1.4.5.7,0,1.4,0,.7-.4,1.4-.4.7.2,1.4.2.7-.4,1.4-.4.7.5,1.4.5.7.4,1.4.4.7-.2,1.4-.2.7,0,1.4,0,.7,0,1.4,0,.7-.4,1.4-.4.7-.2,1.4-.2.7.4,1.4.4.7,0,1.4,0,.7,0,1.4,0,.7-.5,1.4-.5.7,0,1.4,0,.7.3,1.4.3.7.2,1.4.2.7,0,1.4,0,.7,0,1.4,0,.7-.5,1.4-.5.7.3,1.4.3.7.4,1.4.4.7,0,1.4,0,.7-.9,1.4-.9.7,0,1.4,0,.7.2,1.4.2.7.2,1.4.2.7.4,1.4.4.7-.5,1.4-.5.7.6,1.4.6.7-.8,1.4-.8.7.8,1.4.8.7-.3,1.4-.3.7-.5,1.4-.5.7.3,1.4.3.7.4,1.4.4.7-.8,1.4-.8.7.4,1.4.4.7-.2,1.4-.2.7,0,1.4,0,.7.6,1.4.6.7-.5,1.4-.5.7.2,1.4.2.7.2,1.4.2.7-.6,1.4-.6.7.1,1.4.1.7.3,1.4.3.7.2,1.4.2.7,0,1.4,0,.7-.4,1.4-.4.7-.4,1.4-.4.7.7,1.4.7.7,0,1.4,0,.7-.7,1.4-.7.7.6,1.4.6.7-.6,1.4-.6.7.7,1.4.7.7-.7,1.4-.7.7.3,1.4.3.7.4,1.4.4.7-.7,1.4-.7.7.6,1.4.6.7-.1,1.4-.1.7-.6,1.4-.6.7.5,1.4.5.7.3,1.4.3.7-.7,1.4-.7.7-.1,1.4-.1.7.3,1.4.3.7.3,1.4.3.7-.7,1.4-.7.7.9,1.4.9.7-.1,1.4-.1.7,0,1.4,0,.7-.5,1.4-.5.7-.3,1.4-.3.7.8,1.4.8.7-.1,1.4-.1.7,0,1.4,0,.7.2,1.4.2.7-.3,1.4-.3.7,0,1.4,0,.7.5,1.4.5.7,0,1.4,0,.7-.4,1.4-.4.7-.5,1.4-.5.7.6,1.4.6.7-.3,1.4-.3.7-.3,1.4-.3.7,0,1.4,0,.7,0,1.4,0,.7.7,1.4.7.7-.2,1.4-.2.7-.4,1.4-.4.7,0,1.4,0,.7.4,1.4.4.7.4,1.4.4.7-.4,1.4-.4.7-.4,1.4-.4.7.7,1.4.7.7-.7,1.4-.7.7.6,1.4.6.7-.5,1.4-.5.7.4,1.4.4.7-.5,1.4-.5.7.2,1.4.2.7,0,1.4,0,.7.2,1.4.2.7,0,1.4,0,.7.4,1.4.4.7-.2,1.4-.2.7,0,1.4,0,.7-.3,1.4-.3.7-.1,1.4-.1.7,0,1.4,0,.7.3,1.4.3.7-.4,1.4-.4.7,0,1.4,0,.7.2,1.4.2.7-.3,1.4-.3.7,0,1.4,0,.7.9,1.4.9.7,0,1.4,0,.7-.5,1.4-.5.7.6,1.4.6.7,0,1.4,0,.7,0,1.4,0,.7-.3,1.4-.3.7,0,1.4,0,.7-.2,1.4-.2.7.3,1.4.3.7-.1,1.4-.1.7-.2,1.4-.2.7,0,1.4,0,.7.2,1.4.2.7-.5,1.4-.5.7.7,1.4.7.7-.5,1.4-.5.7.5,1.4.5.7-.9,1.4-.9.7.6,1.4.6.7,0,1.4,0,.7.2,1.4.2.7-.3,1.4-.3.7-.2,1.4-.2.7.5,1.4.5.7-.1,1.4-.1.7.1,1.4.1.7-.1,1.4-.1.7-.5,1.4-.5.7,0,1.4,0,.7,0,1.4,0,.7,0,1.4,0,.7,0,1.4,0,.7.2,1.4.2.7-.6,1.4-.6.7.5,1.4.5.7-.2,1.4-.2.7.7,1.4.7.7-.9,1.4-.9.7,0,1.4,0,.7.1,1.4.1.7.6,1.4.6.7-.5,1.4-.5.7-.3,1.4-.3.7.1,1.4.1.7.4,1.4.4.7.2,1.4.2.7-.4,1.4-.4.7-.1,1.4-.1.7.2,1.4.2.7-.5,1.4-.5.7.6,1.4.6.7.2,1.4.2.7-.7,1.4-.7.7.6,1.4.6.7-.3,1.4-.3.7-.2,1.4-.2.7,0,1.4,0,.7-.3,1.4-.3.7.3,1.4.3.7.2,1.4.2.7-.5,1.4-.5.7.7,1.4.7.7,0,1.4,0,.7-.5,1.4-.5.7.6,1.4.6.7-.3,1.4-.3.7.6,1.4.6.7-.4,1.4-.4.7,0,1.5,0,.7-.3,1.4-.3.7.3,1.5.3.7.1,1.5.1.7,0,1.5,0,1-.1,1.4,0c.5.1.9.3,1.3.5.4.2.9.4,1.3.7.4.3.4.9.7,1.2.3.4.8.6,1,1,.2.4.8.8.9,1.3.1.5.2,1,.2,1.5,0,.7-.2.7-.2,1.4s0,.7,0,1.4,0,.7,0,1.4-.7.7-.7,1.4.4.7.4,1.4-.2.7-.2,1.4.6.7.6,1.4-.4.7-.4,1.4-.2.7-.2,1.4.1.7.1,1.4.1.7.1,1.4,0,.7,0,1.4-.4.7-.4,1.4.3.7.3,1.4-.2.7-.2,1.4.5.7.5,1.4-.8.7-.8,1.4.6.7.6,1.4-.8.7-.8,1.4.2.7.2,1.4,0,.7,0,1.4.5.7.5,1.4.2.7.2,1.4-.3.7-.3,1.4.1.7.1,1.4-.1.7-.1,1.4,0,.7,0,1.4,0,.7,0,1.4-.2.7-.2,1.4-.4.7-.4,1.4-.2.7-.2,1.4,0,.7,0,1.4.2.7.2,1.4.2.7.2,1.4.2.7.2,1.4-.5.7-.5,1.4.3.7.3,1.4.4.7.4,1.4-.7.7-.7,1.4.7.7.7,1.4-.7.7-.7,1.4,0,.7,0,1.4.2.7.2,1.4-.2.7-.2,1.4.5.7.5,1.4,0,.7,0,1.4-.3.7-.3,1.4-.2.7-.2,1.4.4.7.4,1.4,0,.7,0,1.4-.4.7-.4,1.4-.2.7-.2,1.4.4.7.4,1.4,0,.7,0,1.4.4.7.4,1.4-.5.7-.5,1.4,0,.7,0,1.5,0,.7,0,1.5.3.7.4,1.1c52-45.8,84.8-112.9,84.8-187.7s-1.3-29-3.7-43c-.6,0-.6-.1-1.3-.1ZM175,247.7c0,.7,0,.7,0,1.4s0,.7,0,1.5,0,.7,0,1.5,0,.7,0,1.5,0,.7,0,1.5,0,.7,0,1.5,0,.7,0,1.5,0,.7,0,1.5,0,.7,0,1.5,0,1-.2,1.4c-.1.5-.3.9-.5,1.3-.2.4-.4.8-.7,1.2-.3.4-.7.7-1,1-.4.3-.8.5-1.2.6-.4.2-.9.3-1.4.3s-.9,0-1.4-.3c-.4-.2-.9-.3-1.3-.6-.4-.3-.7-.6-1-1-.3-.4-.5-.8-.8-1.2-.2-.4-.4-.9-.5-1.3-.1-.5-.2-.9-.2-1.4,0-.7,0-.7,0-1.5s0-.7,0-1.5,0-.7,0-1.4,0-.7,0-1.4,0-.7,0-1.5,0-.7,0-1.5,0-.7,0-1.5,0-.7,0-1.5,0-.7,0-1.5,0-.7,0-1.5,0-.7,0-1.5,0-.7,0-1.5,0-1,.1-1.4c.1-.5.3-.9.5-1.3.2-.4.5-.8.7-1.2.3-.4.6-.7,1-1,.4-.3.8-.5,1.2-.6.4-.2.9-.2,1.4-.2s.9,0,1.4.2c.4.2.8.4,1.2.7.4.3.7.6,1,1,.3.4.6.7.8,1.2.2.4.3.9.4,1.3.1.5.1.9.1,1.4,0,.7,0,.7,0,1.5s0,.7,0,1.5,0,.7,0,1.4Z"/>
  <path class="cls-1" d="M404.9,412.6c0-.5-1.1-.7-1.2-1.2-.1-.5,0-1-.2-1.5-.2-.5-.6-.8-.9-1.2-.2-.4.1-1.2-.1-1.6-.3-.4-.7-.8-1-1.1-.3-.4-1.1-.3-1.4-.7-.3-.3-.5-.8-.9-1.1-.4-.3-.8-.5-1.2-.8-.4-.3-.9-.4-1.3-.6-.4-.2-.8-.6-1.2-.8-.5-.2-.8-.6-1.3-.7-.5-.1-.9-.3-1.4-.4-.5,0-1,.3-1.5.3-.5,0-.9-.6-1.4-.6-.7,0-.7.2-1.4.2s-.7.4-1.4.4-.7-.8-1.4-.8-.7.3-1.4.3-.7.5-1.4.5-.7-.4-1.4-.4-.7-.3-1.4-.3-.7-.2-1.4-.2-.7.2-1.4.2-.7.4-1.4.4-.7.2-1.4.2-.7,0-1.4,0-.7-.6-1.4-.6-.7,0-1.4,0-.7.6-1.4.6-.7-.2-1.4-.2-.7-.1-1.4-.1-.7.1-1.4.1-.7.1-1.4.1-.7-.6-1.4-.6-.7.9-1.4.9-.7-.4-1.4-.4-.7.3-1.4.3-.7-.2-1.4-.2-.7-.1-1.4-.1-.7.2-1.4.2-.7-.7-1.4-.7-.7.7-1.4.7-.7-.3-1.4-.3-.7-.2-1.4-.2-.7.3-1.4.3-.7,0-1.4,0-.7.2-1.4.2-.7-.4-1.4-.4-.7.6-1.4.6-.7-.8-1.4-.8-.7.2-1.4.2-.7,0-1.4,0-.7.2-1.4.2-.7-.6-1.4-.6-.7.6-1.4.6-.7-.2-1.4-.2-.7-.5-1.4-.5-.7,0-1.4,0-.7.6-1.4.6-.7-.7-1.4-.7-.7.4-1.4.4-.7,0-1.4,0-.7-.2-1.4-.2-.7.7-1.4.7-.7-.2-1.4-.2-.7-.2-1.4-.2-.7.2-1.4.2-.7-.2-1.4-.2-.7.3-1.4.3-.7-.2-1.4-.2-.7,0-1.4,0-.7-.4-1.4-.4-.7.5-1.4.5-.7,0-1.4,0-.7-.8-1.4-.8-.7.1-1.4.1-.7.2-1.4.2-.7.7-1.4.7-.7-.7-1.4-.7-.7.2-1.4.2-.7.5-1.4.5-.7,0-1.4,0-.7-.7-1.4-.7-.7.5-1.4.5-.7-.4-1.4-.4-.7,0-1.4,0-.7.3-1.4.3-.7-.5-1.4-.5-.7.5-1.4.5-.7-.3-1.4-.3-.7-.3-1.4-.3-.7.7-1.4.7-.7-.2-1.4-.2-.7-.3-1.4-.3-.7.3-1.4.3-.7,0-1.4,0-.7-.2-1.4-.2-.7,0-1.4,0-.7.1-1.4.1-.7,0-1.4,0-.7.6-1.4.6-.7-.5-1.4-.5-.7.6-1.4.6-.7-.6-1.4-.6-.7-.2-1.4-.2-.7,0-1.4,0-.7.2-1.4.2-.7.1-1.4.1-.7-.4-1.4-.4-.7.4-1.4.4-.7-.5-1.4-.5-.7.9-1.4.9-.7-.7-1.4-.7-.7.3-1.4.3-.7-.2-1.4-.2-.7.4-1.4.4-.7,0-1.4,0-.7-.4-1.4-.4-.7-.1-1.4-.1-.7,0-1.4,0-.7,0-1.4,0-.7.3-1.4.3-.7-.4-1.4-.4-.7,0-1.4,0-.7,0-1.4,0-.7.4-1.4.4-.7.5-1.4.5-.7-.8-1.4-.8-.7.1-1.4.1-.7-.2-1.4-.2-.7.8-1.4.8-.7-.4-1.4-.4-.7.1-1.4.1-.7-.2-1.4-.2-.7-.3-1.4-.3-.7.7-1.4.7-.7-.3-1.4-.3-.7.3-1.4.3-.7.1-1.4.1-.7-.2-1.4-.2-.7.3-1.4.3-.7-.2-1.4-.2-.7.2-1.4.2-.7-.3-1.4-.3-.7-.1-1.4-.1-.7.2-1.4.2-.7,0-1.4,0-.7,0-1.4,0-.7.2-1.4.2-.7-.3-1.4-.3-.7-.5-1.4-.5-.7.7-1.4.7-.7,0-1.4,0-.7-.8-1.4-.8-.7.8-1.4.8-.7-.4-1.4-.4-.7.3-1.4.3-.7-.2-1.4-.2-.7.2-1.4.2-.7-.3-1.4-.3-.7.5-1.4.5-.7,0-1.4,0-.7-.2-1.4-.2-.7-.3-1.4-.3-.7.2-1.4.2-.7,0-1.4,0-.7.4-1.4.4-.7-.6-1.4-.6-.7.1-1.4.1-.7-.1-1.4-.1-.7.5-1.4.5-.7,0-1.4,0-.7-.4-1.4-.4-.7.4-1.4.4-.7-.6-1.4-.6-.7.1-1.4.1-.7.4-1.4.4-.7.2-1.4.2-.7-.2-1.4-.2-.7.2-1.4.2-.7-.8-1.4-.8-.7.7-1.4.7-.7-.5-1.4-.5-.7.2-1.4.2-.7.3-1.4.3-.7-.5-1.4-.5-.7.3-1.4.3-.7-.3-1.4-.3-.7-.2-1.4-.2-.7.4-1.4.4-.7-.6-1.4-.6-.7.4-1.4.4-.7-.3-1.4-.3-.7,0-1.4,0-.7.1-1.4.1-.7.6-1.4.6-.7-.3-1.4-.3-.7-.3-1.4-.3-.7.5-1.4.5-.7.2-1.4.2-.7-.7-1.4-.7-.7-.1-1.4-.1-.7.4-1.4.4-.7-.3-1.4-.3-.7,0-1.4,0-.7.6-1.4.6-.7.2-1.4.2-.7-.3-1.4-.3-.7-.4-1.4-.4-.7.8-1.4.8-.7-.7-1.4-.7-.7.2-1.4.2-.7.3-1.4.3-.7-.8-1.4-.8-.7.8-1.4.8-.7-.4-1.4-.4-.7-.2-1.4-.2-.7.2-1.4.2-.7.3-1.4.3-.7-.3-1.4-.3-.7-.3-1.4-.3-.7.7-1.4.7-.7-.5-1.4-.5-.7.3-1.4.3-.7,0-1.4,0-.7.3-1.4.3-.7-.8-1.4-.8-.7,0-1.4,0-.7.5-1.4.5-.7.3-1.4.3-.7-.2-1.4-.2-.7,0-1.4,0-.7-.2-1.4-.2-.7.3-1.4.3-.7.3-1.4.3-.7-.7-1.4-.7-.7.3-1.4.3-.7-.1-1.4-.1-.7.2-1.4.2-.7-.3-1.4-.3-.7.3-1.4.3-.7-.5-1.4-.5-.7,0-1.4,0-.7-.2-1.4-.2-.7.4-1.4.4-.7.4-1.4.4-.7-.4-1.4-.4-.7,0-1.4,0-.7-.4-1.4-.4-.7.2-1.4.2-.2,0-.2,0c9.2,12.2,19.5,23.5,30.8,33.9.6,0,.6-.4,1.3-.4s.7,0,1.4,0,.7,0,1.4,0,.7.3,1.4.3.7.3,1.4.3.7-.6,1.4-.6.7,0,1.4,0,.7.4,1.4.4.7-.2,1.4-.2.7.2,1.4.2.7-.3,1.4-.3.7.1,1.4.1.7.1,1.4.1.7-.4,1.4-.4.7.8,1.4.8.7-.6,1.4-.6.7.2,1.4.2.7.4,1.4.4.7-.5,1.4-.5.7.6,1.4.6.7-.2,1.4-.2.7.2,1.4.2.7-.4,1.4-.4.7-.4,1.4-.4.7-.2,1.4-.2.7.6,1.4.6.7-.4,1.4-.4.7,0,1.4,0,.7,0,1.4,0,.7-.2,1.4-.2.7.1,1.4.1.7,0,1.4,0,.7,0,1.4,0,.7.3,1.4.3.7.5,1.4.5.7-.4,1.4-.4.7-.4,1.4-.4.7.8,1.4.8.7-1,1.4-1,.7.8,1.4.8.7-.3,1.4-.3.7-.3,1.4-.3.7-.3,1.4-.3.7.8,1.4.8.7,0,1.4,0,.7,0,1.4,0,.7,0,1.4,0,.7-.5,1.4-.5.7.6,1.4.6.7-.4,1.4-.4.7-.2,1.4-.2.7.2,1.4.2.7-.3,1.4-.3.7.7,1.4.7.7-.7,1.4-.7.7.2,1.4.2.7-.4,1.4-.4.7,0,1.4,0,.7.3,1.4.3.7,0,1.4,0,.7.3,1.4.3.7-.8,1.4-.8.7.7,1.4.7.7-.6,1.4-.6.7.8,1.4.8.7-.6,1.4-.6.7.2,1.4.2.7.3,1.4.3.7-.2,1.4-.2.7,0,1.4,0,.7.1,1.4.1.7,0,1.4,0,.7-.4,1.4-.4.7-.4,1.4-.4.7.2,1.4.2.7,0,1.4,0,.7.3,1.4.3.7.1,1.4.1.7-.6,1.4-.6.7.4,1.4.4.7.3,1.4.3.7,0,1.4,0,.7-.4,1.4-.4.7.2,1.4.2.7-.1,1.4-.1.7-.3,1.4-.3.7.2,1.4.2.7.2,1.4.2.7.3,1.4.3.7-.2,1.4-.2.7-.5,1.4-.5.7.4,1.4.4.7-.3,1.4-.3.7,0,1.4,0,.7.5,1.4.5.7-.7,1.4-.7.7.5,1.4.5.7-.3,1.4-.3.7.4,1.4.4.7-.4,1.4-.4.7.6,1.4.6.7-.3,1.4-.3.7-.3,1.4-.3.7-.1,1.4-.1.7.9,1.4.9.7-.5,1.4-.5.7-.2,1.4-.2.7.6,1.4.6.7-.6,1.4-.6.7.6,1.4.6.7-.8,1.4-.8.7.2,1.4.2.7-.1,1.4-.1.7.4,1.4.4.7-.2,1.4-.2.7.2,1.4.2.7,0,1.4,0,.7-.2,1.4-.2.7,0,1.4,0,.7-.2,1.4-.2.7.3,1.4.3.7.2,1.4.2.7.2,1.4.2.7-.7,1.4-.7.7.5,1.4.5.7-.4,1.4-.4.7,0,1.4,0,.7,0,1.4,0,.7.4,1.4.4.7,0,1.4,0,.7-.4,1.4-.4.7.3,1.4.3.7-.3,1.4-.3.7.5,1.4.5.7.2,1.4.2.7-.1,1.4-.1.7,0,1.4,0,.7-.3,1.4-.3.7.3,1.4.3.7,0,1.4,0,.7-.5,1.4-.5.7,0,1.4,0,.7.6,1.4.6.7-.5,1.4-.5.7.5,1.4.5.7-.2,1.4-.2.7-.6,1.4-.6.7.2,1.4.2.7-.3,1.4-.3.7.3,1.4.3.7.1,1.4.1.7-.3,1.4-.3.7,0,1.4,0,.7.5,1.4.5.7,0,1.4,0,.7-.5,1.4-.5.7,0,1.4,0,.7.4,1.4.4.7.4,1.4.4.7-.2,1.4-.2.7,0,1.4,0,.7,0,1.4,0,.7-.5,1.4-.5.7-.3,1.4-.3.7.9,1.4.9.7-.5,1.4-.5.7.3,1.4.3.7.1,1.4.1.7-.8,1.4-.8.7.3,1.4.3.7-.3,1.4-.3.7.3,1.4.3.7,0,1.4,0,.7.3,1.4.3.7,0,1.4,0,.7-.3,1.4-.3.7-.1,1.4-.1.7.5,1.4.5.7-.2,1.4-.2.7,0,1.4,0,.7.1,1.4.1.7.3,1.4.3.7-.5,1.4-.5.7.5,1.4.5.7,0,1.4,0,.7-.5,1.4-.5.7.2,1.4.2.7.3,1.4.3.7-.4,1.4-.4.7.3,1.4.3.7-.5,1.4-.5.7,0,1.4,0,.7.8,1.4.8.7-.1,1.4-.1.7-.2,1.4-.2.7.1,1.4.1.7.2,1.4.2.7-.5,1.4-.5.7,0,1.4,0,.7.4,1.4.4.7-.7,1.4-.7.7.8,1.4.8.7,0,1.4,0,.7.2,1.4.2.7-.6,1.4-.6.7,0,1.4,0,.7.2,1.5.2.7-.4,1.4-.4.7.5,1.4.5.7-.6,1.5-.6.7.1,1.4.1.7-.2,1.5-.2.7.2,1.5.2.7.2,1.5.2,1-.3,1.4-.4c.5,0,1,0,1.5,0,.5,0,.9-.4,1.4-.5.5-.1,1.2.3,1.6,0,.5-.2.7-.9,1.1-1.1.4-.2.8-.6,1.2-.9.4-.3.8-.6,1.1-.9.4-.3,1.2-.2,1.5-.5.3-.3.2-1.1.5-1.5.3-.4.4-.9.7-1.3.3-.4,1-.5,1.2-1,.2-.4.7-.8.9-1.2.2-.5,0-1.1,0-1.6.1-.5.3-.9.4-1.4,0-.5,0-1,0-1.5,0-.5,0-1,0-1.5s-.2-.6-.2-1.3.2-.6.2-1.3,0-.6,0-1.3.5-1,.4-1.5c0-.5,0-1,0-1.5Z"/>
  <path class="cls-1" d="M405.5,444.5c-.7,0-.7-.2-1.4-.2s-.7.3-1.4.3-.7,0-1.4,0-.7-.4-1.4-.4-.7.5-1.4.5-.7-.1-1.4-.1-.7-.4-1.4-.4-.7,0-1.4,0-.7.2-1.4.2-.7,0-1.4,0-.7,0-1.4,0-.7-.2-1.4-.2-.7,0-1.4,0-.7.1-1.4.1-.7.4-1.4.4-.7-.4-1.4-.4-.7-.1-1.4-.1-.7.7-1.4.7-.7,0-1.4,0-.7-.3-1.4-.3-.7.1-1.4.1-.7,0-1.4,0-.7-.3-1.4-.3-.7,0-1.4,0-.7-.3-1.4-.3-.7,0-1.4,0-.7.2-1.4.2-.7.1-1.4.1-.7-.4-1.4-.4-.7.3-1.4.3-.7-.2-1.4-.2-.7.3-1.4.3-.7.1-1.4.1-.7,0-1.4,0-.7-.4-1.4-.4-.7-.1-1.4-.1-.7,0-1.4,0-.7.1-1.4.1-.7-.1-1.4-.1-.7.6-1.4.6-.7-.4-1.4-.4-.7.2-1.4.2-.7,0-1.4,0-.7,0-1.4,0-.7-.2-1.4-.2-.7.3-1.4.3-.7,0-1.4,0-.7-.4-1.4-.4-.7,0-1.4,0-.7.7-1.4.7-.7,0-1.4,0-.7-.1-1.4-.1-.7-.6-1.4-.6-.7,0-1.4,0-.7.4-1.4.4-.7-.4-1.4-.4-.7.2-1.4.2-.7,0-1.4,0-.7.6-1.4.6-.7-.5-1.4-.5-.7.4-1.4.4-.7-.4-1.4-.4-.7.4-1.4.4-.7-.2-1.4-.2-.7.3-1.4.3-.7-.5-1.4-.5-.7-.4-1.4-.4-.7.5-1.4.5-.7.2-1.4.2-.7-.6-1.4-.6-.7.6-1.4.6-.7-.4-1.4-.4-.7.5-1.4.5-.7-.4-1.4-.4-.7-.5-1.4-.5-.7.6-1.4.6-.7-.2-1.4-.2-.7,0-1.4,0-.7,0-1.4,0-.7-.2-1.4-.2-.7.5-1.4.5-.7-.3-1.4-.3-.7.5-1.4.5-.7-.7-1.4-.7-.7-.1-1.4-.1-.7.6-1.4.6-.7,0-1.4,0-.7,0-1.4,0-.7.4-1.4.4-.7-.9-1.4-.9-.7.2-1.4.2-.7.7-1.4.7-.7-.8-1.4-.8-.7.2-1.4.2-.7-.3-1.4-.3-.7.3-1.4.3-.7.3-1.4.3-.7,0-1.4,0-.7-.5-1.4-.5-.7,0-1.4,0-.7.9-1.4.9-.7-.2-1.4-.2-.7,0-1.4,0-.7-.2-1.4-.2-.7-.4-1.4-.4-.7,0-1.4,0-.7-.2-1.4-.2-.7,0-1.4,0-.7.4-1.4.4-.7.2-1.4.2-.7-.5-1.4-.5-.7,0-1.4,0-.7.5-1.4.5-.7-.4-1.4-.4-.7.2-1.4.2-.7-.4-1.4-.4-.7.4-1.4.4-.7.2-1.4.2-.7-.4-1.4-.4-.7.1-1.4.1-.7-.5-1.4-.5-.7.8-1.4.8-.7-.2-1.4-.2-.7.3-1.4.3-.7-.9-1.4-.9-.7.8-1.4.8-.7,0-1.4,0-.7-.3-1.4-.3-.7,0-1.4,0-.7,0-1.4,0-.7-.3-1.4-.3-.7-.2-1.4-.2-.7,0-1.4,0-.7.7-1.4.7-.7-.6-1.4-.6-.7.6-1.4.6-.7-.5-1.4-.5-.7.5-1.4.5-.7-.5-1.4-.5-.7,0-1.4,0-.7.4-1.4.4-.7-.8-1.4-.8-.7.8-1.4.8-.7-.8-1.4-.8-.7.4-1.4.4-.7-.3-1.4-.3-.7.2-1.4.2-.7.5-1.4.5-.7-.1-1.4-.1-.7-.8-1.4-.8-.7.5-1.4.5-.7-.2-1.4-.2-.7.5-1.4.5-.7-.2-1.4-.2-.7.3-1.4.3-.7-.7-1.4-.7-.7,0-1.4,0-.7.3-1.4.3-.7-.6-1.4-.6-.7.2-1.4.2-.7,0-1.4,0-.7,0-1.4,0-.7.4-1.4.4-.7,0-1.4,0-.7,0-1.4,0-.7.1-1.4.1-.7-.2-1.4-.2-.7-.1-1.4-.1-.7-.5-1.4-.5-.7.3-1.4.3-.7.4-1.4.4-.7-.1-1.4-.1-.7,0-1.4,0-.7-.4-1.4-.4-.7,0-1.4,0-.7.6-1.4.6-.7-.6-1.4-.6-.7.9-1.4.9-.7-.2-1.4-.2-.7-.6-1.4-.6-.7.7-1.4.7-.7,0-1.4,0-.7-.3-1.4-.3-.7,0-1.4,0-.7.1-1.4.1-.7.1-1.4.1-.7.2-1.4.2-.7-.9-1.4-.9-.7,0-1.4,0-.7.1-1.4.1-.7-.2-1.4-.2-.7.2-1.4.2-.7-.1-1.4-.1-.7,0-1.4,0-.7.7-1.4.7-.7-.6-1.4-.6-.7,0-1.4,0-.7.1-1.4.1-.7.2-1.4.2-.7-.4-1.4-.4-.7,0-1.4,0-.7.3-1.4.3-.7,0-1.4,0-.7,0-1.4,0-.7.5-1.4.5-.7-.5-1.4-.5-.7-.1-1.4-.1-.7,0-1.4,0-.7.4-1.4.4-.7.1-1.4.1-.7,0-1.4,0-.7-.1-1.4-.1-.7-.4-1.4-.4-.7.6-1.4.6-.7,0-1.4,0-.7-.3-1.4-.3-.7.2-1.3.2c42.9,34.6,97.4,55.3,156.8,55.3s113.7-20.6,156.6-55.1c-.4-.1-.5-.4-1.1-.4Z"/>
  <path class="cls-1" d="M63.1,85.5c.7,0,.7-.7,1.4-.7s.7.4,1.4.4.7-.4,1.4-.4.7-.2,1.4-.2.7.6,1.4.6.7,0,1.4,0,.7-.5,1.4-.5.7.3,1.4.3.7-.6,1.4-.6.7.6,1.4.6.7.5,1.4.5.7-.3,1.4-.3.7,0,1.4,0,.7,0,1.4,0,.7-.5,1.4-.5.7-.2,1.4-.2.7.5,1.4.5.7.1,1.4.1.7,0,1.4,0,.7-.7,1.4-.7.7,0,1.4,0,.7.3,1.4.3.7.3,1.4.3.7.1,1.4.1.7,0,1.4,0,.7-.6,1.4-.6.7.4,1.4.4.7.5,1.4.5.7,0,1.4,0,.7-1.1,1.4-1.1.7.1,1.4.1.7.2,1.4.2.7.2,1.4.2.7.5,1.4.5.7-.7,1.4-.7.7.8,1.4.8.7-1,1.4-1,.7,1,1.4,1,.7-.3,1.4-.3.7-.7,1.4-.7.7.4,1.4.4.7.5,1.4.5.7-1,1.4-1,.7.6,1.4.6.7-.3,1.4-.3.7.1,1.4.1.7.7,1.4.7.7-.7,1.4-.7.7.3,1.4.3.7.3,1.5.3.7-.8,1.4-.8.7.1,1.4.1.7.4,1.5.4.7.3,1.4.3.7,0,1.5,0,.7-.5,1.5-.5.7-.5,1.5-.5.7.9,1.5.9.7,0,1.5,0,.7-.9,1.5-.9,1,.8,1.5.7c.5,0,.9-.9,1.3-1,.5,0,1.2.6,1.6.5.5-.1.6-1.1,1.1-1.3.5-.2,1,0,1.5-.3.4-.2,1.1,0,1.5-.3.4-.3.3-1.3.7-1.6.4-.3,1.2,0,1.6-.4s.6-.8.9-1.2c.3-.4,0-1.2.3-1.6.3-.4,1.1-.5,1.3-.9.2-.4.8-.7,1-1.2.2-.5-.5-1.2-.3-1.7.1-.5.1-.9.2-1.4,0-.5.6-.9.6-1.4,0-.5.5-1,.5-1.5,0-.7-.8-.7-.8-1.4s1.1-.7,1.1-1.4-.2-.7-.2-1.4,0-.7,0-1.4-.6-.7-.6-1.4-.4-.7-.4-1.4,1-.7,1-1.4-.1-.7-.1-1.4,0-.7,0-1.4.2-.7.2-1.4-.4-.7-.4-1.4,0-.7,0-1.4.6-.7.6-1.4,0-.7,0-1.4-.5-.7-.5-1.4-.6-.7-.6-1.4.7-.7.7-1.4-.3-.7-.3-1.4-.4-.7-.4-1.4,0-.7,0-1.4.1-.7.1-1.4.9-.7.9-1.4-.3-.7-.3-1.4-.5-.7-.5-1.4-.1-.7-.1-1.4.5-.7.5-1.4.6-.7.6-1.4-.5-.7-.5-1.4-.5-.7-.5-1.4.8-.7.8-1.4-.9-.7-.9-1.4.8-.7.8-1.4-.6-.7-.6-1.4.6-.7.6-1.4-.6-.7-.6-1.4.3-.7.3-1.4,0-.7,0-1.4.2-.7.2-1.4,0-.4,0-.5c-40,14.4-75.2,38.8-102.7,70.1.2.3.4.6.9.6Z"/>
</svg>