<?xml version="1.0" encoding="UTF-8"?>
<svg id="_アイコン" data-name="アイコン" xmlns="http://www.w3.org/2000/svg" version="1.1" viewBox="0 0 500 500">
  <defs>
    <style>
      .cls-1 {
        fill: #fff;
        stroke-width: 0px;
      }
    </style>
  </defs>
  <path class="cls-1" d="M112.1,242.9c.5-.5.4-.6.9-1.1.5-.5.3-.8.8-1.3.5-.5,1.1,0,1.6-.4.5-.5.3-.7.8-1.2.5-.5.8-.2,1.3-.7.5-.5-.1-1.1.4-1.6s.9,0,1.4-.6c.5-.5.3-.7.9-1.2s.7-.4,1.2-.9.3-.7.8-1.2c.5-.5.9-.1,1.4-.6.5-.5.6-.4,1.1-.9.5-.5,0-1,.5-1.6s.2-.8.7-1.3c.5-.5.9,0,1.5-.6.5-.5,0-1,.6-1.5.5-.5.6-.4,1.1-.9s.7-.4,1.2-.9.7-.3,1.3-.8,0-.9.6-1.4c.5-.5.7-.3,1.2-.8.5-.5,1,0,1.5-.5.5-.5.3-.7.9-1.2s.7-.3,1.2-.8-.2-1.2.3-1.7,1.2.2,1.7-.3c.5-.5,0-1.1.4-1.6s.5-.5,1.1-1c.5-.5.8-.2,1.3-.7.5-.5.2-.8.7-1.3s.7-.3,1.3-.8c.5-.5.7-.3,1.2-.8.5-.5,0-1,.6-1.5.5-.5.9-.1,1.4-.7.5-.5.2-.8.7-1.3s1.1,0,1.6-.4.3-.7.8-1.2c.5-.5,0-1.1.4-1.6s.5-.5,1-1,.7-.4,1.2-.9c.5-.5,1.2.2,1.7-.3s.4-.7.9-1.2.5-.5,1-1.1c.5-.5.3-.7.8-1.2q.5-.5,1-1c.5-.5.3-.7.8-1.2s1.1,0,1.6-.5,0-.9.6-1.4c.5-.5.5-.6,1-1.1s1,0,1.5-.5.2-.8.7-1.3.3-.7.8-1.2c.5-.5.5-.5,1-1s.3-.7.8-1.2.9,0,1.5-.6.3-.7.8-1.2.7-.4,1.2-.9.5-.6,1-1.1c.5-.5.3-.7.8-1.2s1,0,1.5-.5,0-1.1.4-1.6c.5-.5,1.2.1,1.7-.4s.3-.8.8-1.3c.5-.5.6-.5,1.1-1,.5-.5.7-.4,1.2-.9s.6-.4,1.1-1c.5-.5,0-1,.5-1.5s1,0,1.5-.6c.5-.5.5-.5,1-1.1.5-.5,0-1.1.4-1.6s.7-.3,1.2-.9.6-.4,1.1-.9.2-.8.7-1.3c.5-.5,1.2.2,1.7-.3.5-.5,0-.9.6-1.5.5-.5,1,0,1.5-.6.5-.5,0-1,.5-1.5s.8-.2,1.3-.7.6-.4,1.1-.9.5-.5,1-1c.5-.5.7-.3,1.2-.9s0-1,.5-1.5c.5-.5.2-.8.7-1.3.5-.5.4-.6,1-1.1s.6-.7,1-1c.3-.4,1.5,0,1.8-.5.3-.4.1-1.1.4-1.5.2-.4.4-.9.6-1.4.2-.5.4-.9.6-1.4.1-.5.5-.9.6-1.4,0-.5,0-1,.1-1.5,0-.5,0-1,0-1.5,0-.5.3-1,.2-1.5,0-.5,0-1,0-1.5,0-.5-.9-.8-1.1-1.3-.1-.5,0-1-.2-1.5-.2-.5-.5-.9-.8-1.3-.2-.4-1-.5-1.3-.9-.3-.4-.4-.9-.7-1.3-.3-.4-.4-.9-.8-1.3-.3-.3-.3-1.2-.7-1.5-.4-.3-1.1-.2-1.5-.5-.4-.3-1.1,0-1.5-.3-.4-.2-.8-.6-1.2-.7-.5-.2-.7-.8-1.2-.9-.5-.1-1.1.2-1.5.1-.5,0-.9-.3-1.4-.4-.5,0-1,.4-1.5.4-.7,0-.7-.9-1.4-.9s-.7-.2-1.4-.2-.7.2-1.4.2-.7-.3-1.4-.3-.7.8-1.4.8-.7,0-1.4,0-.7-.5-1.4-.5-.7.3-1.4.3-.7-.5-1.4-.5-.7.3-1.4.3-.7.4-1.4.4-.7,0-1.4,0-.7-.2-1.4-.2-.7.3-1.4.3-.7-.1-1.4-.1-.7,0-1.4,0-.7-.8-1.4-.8-.7,0-1.4,0-.7.7-1.4.7-.7,0-1.4,0-.7.4-1.4.4-.7-.1-1.4-.1-.7,0-1.4,0-.7-.3-1.4-.3-.7-.5-1.4-.5-.7,0-1.4,0-.7.4-1.4.4-.7-.2-1.4-.2-.7,0-1.4,0-.7.2-1.4.2-.7-.1-1.4-.1-.7,0-1.4,0-.7,0-1.4,0-.7.3-1.4.3-.7,0-1.4,0-.7-.3-1.4-.3-.7,0-1.4,0-.7.1-1.4.1-.7,0-1.4,0-.7-.6-1.4-.6-.7.4-1.4.4-.7-.4-1.4-.4-.7,1-1.4,1-.7-1-1.4-1-.7.2-1.4.2-.7.6-1.4.6-.7-.5-1.4-.5-.7.2-1.4.2-.7-.3-1.4-.3-.7-.2-1.4-.2-.7,0-1.4,0-.7,1.1-1.4,1.1-.7-.9-1.4-.9-.7,0-1.4,0-.7,0-1.4,0-.7.4-1.4.4-.7-.5-1.4-.5-.7,0-1.4,0-.7-.2-1.4-.2-.7,1.2-1.4,1.2-.7-.3-1.4-.3-.7.3-1.4.3-.7-.8-1.4-.8-.7-.3-1.4-.3-.7.8-1.4.8-.7-.4-1.4-.4-.7.5-1.4.5-.7-.7-1.4-.7-.7,0-1.4,0-.7.5-1.4.5-.7,0-1.4,0-.7,0-1.4,0-.7-.3-1.4-.3-.7.6-1.4.6-.7,0-1.4,0-.7.2-1.4.2-.7-.9-1.4-.9-.7,0-1.4,0-.7.8-1.4.8-.7-.6-1.4-.6-.7.2-1.4.2-.7-.1-1.4-.1-.7-.2-1.4-.2-.7,0-1.4,0-.7.8-1.4.8-.7-.8-1.4-.8-.7.1-1.4.1-.7.8-1.4.8-.7-.9-1.4-.9-.7.4-1.4.4-.7.2-1.4.2-.7,0-1.4,0-.7-.4-1.4-.4-.7-.2-1.4-.2-.7.8-1.4.8-.7-.4-1.4-.4-.7-.4-1.4-.4-.7.4-1.4.4-.7-.3-1.4-.3-.7.7-1.4.7-.7-.3-1.4-.3-.7,0-1.4,0-.7.4-1.4.4-.7,0-1.4,0-.7.2-1.4.2-.7-.9-1.4-.9-.7,0-1.4,0-.7.9-1.4.9-.7-.5-1.4-.5-.5-.1-.7-.2C10.8,166.7,0,207.1,0,250s.4,16.4,1.2,24.5c.2.1.4.2.7.2.7,0,.7.5,1.4.5s.7-.4,1.4-.4.7-.2,1.4-.2.7.3,1.4.3.7-.4,1.4-.4.7-.2,1.4-.2.7.7,1.4.7.7-.5,1.4-.5.7.2,1.4.2.7.1,1.4.1.7.3,1.4.3.7-.9,1.4-.9.7-.1,1.4-.1.7,0,1.4,0,.7.6,1.4.6.7.7,1.4.7.7-.4,1.4-.4.7-.6,1.4-.6.7,0,1.4,0,.7.4,1.4.4.7-.1,1.4-.1.7-.3,1.4-.3.7.2,1.4.2.7-.3,1.4-.3.7.8,1.4.8.7-.8,1.4-.8.7.5,1.4.5.7-.5,1.4-.5.7.2,1.4.2.7.4,1.4.4.7-.2,1.4-.2.7-.1,1.4-.1.7.1,1.4.1.7.5,1.4.5.7,0,1.4,0,.7,0,1.4,0,.7-.8,1.4-.8.7.3,1.4.3.7-.3,1.4-.3.7.6,1.4.6.7.4,1.4.4.7-.3,1.4-.3.7-.8,1.4-.8.7.4,1.4.4.7,0,1.4,0,.7.7,1.4.7.7-.3,1.4-.3.7,0,1.4,0,.7.1,1.5.1.7-.4,1.5-.4,1,.4,1.5.4c.5,0,1-.4,1.5-.5.5,0,1.1,0,1.5,0,.5-.1.8-.9,1.2-1,.5-.2.8-.6,1.2-.8.4-.2,1.3.2,1.7,0,.4-.3.6-.9,1-1.2.4-.3.8-.6,1.1-1,.5-.5.2-.8.7-1.3.5-.5.9-.2,1.4-.7s.7-.3,1.2-.8-.2-1.2.3-1.7c.5-.5.8-.2,1.3-.7.5-.5.5-.5,1.1-1s.4-.6.9-1.1.3-.7.8-1.2,1.1,0,1.6-.5.4-.6.9-1.1c.5-.5.6-.4,1.1-.9s.7-.3,1.3-.8.4-.6.9-1.1c.5-.5,0-.9.6-1.5s.7-.4,1.2-.9c.5-.5.9,0,1.4-.6.5-.5.1-.9.6-1.4s.7-.4,1.2-.9c.5-.5.2-.9.7-1.4s.5-.5,1-1,.6-.5,1.1-1c.5-.5.3-.7.8-1.2.5-.5,1.2.2,1.7-.3.5-.5.4-.6.9-1.1.5-.5.6-.4,1.2-.9.5-.5-.2-1.2.3-1.7.5-.5.7-.3,1.3-.8Z"/>
  <path class="cls-1" d="M496.8,285.3c-.7,0-.7-.4-1.4-.4s-.7-.4-1.4-.4-.7.7-1.4.7-.7-.6-1.4-.6-.7.2-1.4.2-.7.4-1.4.4-.7-1.1-1.4-1.1-.7.3-1.4.3-.7.8-1.4.8-.7-.7-1.4-.7-.7.4-1.4.4-.7-.8-1.4-.8-.7.2-1.4.2-.7,0-1.4,0-.7.2-1.4.2-.7.2-1.4.2-.7-.4-1.4-.4-.7,0-1.4,0-.7-.2-1.4-.2-.7,0-1.4,0-.7,0-1.4,0-.7.7-1.4.7-.7-.4-1.4-.4-.7.2-1.4.2-.7,0-1.4,0-.7-.3-1.4-.3-.7.5-1.4.5-.7,0-1.4,0-.7.5-1.4.5-.7-.8-1.4-.8-.7,0-1.4,0-.7.1-1.4.1-.7.8-1.4.8-.7-.2-1.4-.2-.7-.4-1.4-.4-.7.6-1.4.6-.7-1.1-1.4-1.1-.7.4-1.4.4-.7-.4-1.4-.4-.7.4-1.4.4-.7.6-1.4.6-.7-.7-1.4-.7-.7,0-1.4,0-.7-.1-1.4-.1-.7.4-1.4.4-.7-.4-1.4-.4-.7.1-1.4.1-.7.8-1.4.8-.7-.4-1.4-.4-.7,0-1.4,0-.7-.2-1.4-.2-.7,0-1.4,0-.7-.2-1.4-.2-.7.8-1.4.8-.7-.9-1.4-.9-.7.3-1.4.3-.7.1-1.4.1-.7.4-1.4.4-.7.2-1.4.2-.7-1-1.4-1-.7,1-1.4,1-.7-.3-1.4-.3-.7-.7-1.4-.7-.7,0-1.4,0-.7.4-1.4.4-.7.1-1.4.1-.7.4-1.4.4-.7,0-1.4,0-.7-.5-1.4-.5-.7.1-1.4.1-.7,0-1.4,0-.7.3-1.4.3-.7-.2-1.4-.2-.7.3-1.4.3-.7.2-1.4.2-.7-1.1-1.4-1.1-.7.8-1.4.8-.7-.7-1.4-.7-.7,0-1.4,0-.7,0-1.4,0-.7,0-1.4,0-.7.5-1.4.5-.7-.6-1.4-.6-.7,0-1.4,0-.7.6-1.4.6-.7.3-1.4.3-.7.1-1.4.1-.7,0-1.4,0-.7-.8-1.4-.8-.7.3-1.4.3-.7,0-1.4,0-.7-.3-1.4-.3-.7.3-1.4.3-.7.2-1.4.2-.7.4-1.4.4-.7-.4-1.4-.4-.7-.7-1.4-.7-.7.2-1.4.2-.7.2-1.4.2-.7-.2-1.4-.2-.7,0-1.4,0-.7,1.1-1.4,1.1-.7-.5-1.4-.5-.7.2-1.4.2-.7-.7-1.4-.7-.7.2-1.4.2-.7,0-1.4,0-.7.3-1.4.3-.7,0-1.4,0-.7.7-1.4.7-.7-.7-1.4-.7-.7.6-1.4.6-.7-.7-1.4-.7-.7,0-1.4,0-.7,0-1.4,0-.7.6-1.4.6-.7.2-1.4.2-.7-.3-1.4-.3-.7.1-1.4.1-.7-.7-1.4-.7-.7.5-1.4.5-.7,0-1.4,0-.7-.6-1.4-.6-.7.6-1.4.6-.7-.5-1.4-.5-.7-.2-1.4-.2-.7,1-1.4,1-.7-.1-1.4-.1-.7-.3-1.4-.3-.7,0-1.4,0-.7-.7-1.4-.7-.7.4-1.4.4-.7.6-1.4.6-.7,0-1.4,0-.7,0-1.4,0-.7-.6-1.4-.6-.7-.2-1.4-.2-.7-.2-1.4-.2-.7-.1-1.4-.1-.7.9-1.4.9-.7,0-1.4,0-.7-.5-1.4-.5-.7.3-1.4.3-.7.2-1.4.2-.7-.6-1.4-.6-.7.3-1.4.3-.7,0-1.4,0-.7.6-1.4.6-.7-1.2-1.4-1.2-.7,1-1.4,1-.7-1-1.4-1-.7.6-1.4.6-.7-.2-1.4-.2-.7-.4-1.4-.4-.7.6-1.4.6-.7-.3-1.4-.3-.7.5-1.4.5-.7-.4-1.4-.4-.7.1-1.4.1-.7-.6-1.4-.6-.7.9-1.4.9-.7.1-1.4.1-.7-.3-1.4-.3-.7,0-1.4,0-.7.4-1.4.4-.7-.6-1.4-.6-.7.6-1.4.6-.7-1-1.4-1-.7.8-1.4.8-.7-.8-1.4-.8-.7-.2-1.4-.2-.7.7-1.4.7-.7.3-1.4.3-.7-.6-1.4-.6h-1.4c-.7,0-.7-.2-1.4-.2s-.7.9-1.4.9-.7-.6-1.4-.6-.7-.5-1.4-.5-.7.3-1.4.3-.7.3-1.4.3-.7-.5-1.4-.5-.7.2-1.4.2-.7-.2-1.4-.2-.7,0-1.4,0-.7.3-1.4.3-.7.4-1.4.4-.7,0-1.4,0-.7-.9-1.4-.9-.7,1-1.4,1-.7-1-1.4-1-.7,0-1.4,0-.7-.2-1.4-.2-.7.4-1.4.4-.7.3-1.4.3-.7-.4-1.4-.4-.7.5-1.4.5-.7-.5-1.4-.5-.7.4-1.4.4-.7-.7-1.4-.7-.7.1-1.4.1-.7.2-1.4.2-.7-.3-1.4-.3-.7,0-1.4,0-.7.4-1.4.4-.7-.4-1.4-.4-.7.1-1.4.1-.7.8-1.4.8-.7-.7-1.4-.7-.7,0-1.4,0-.7.3-1.4.3-.7.4-1.4.4-.7-.3-1.4-.3-.7.4-1.4.4-.7-.4-1.4-.4-.7.5-1.4.5-.7-.8-1.4-.8-.7.5-1.4.5-.7-.6-1.4-.6-.7.4-1.4.4-.7-.4-1.4-.4-.7.9-1.4.9-.7-.1-1.4-.1-.7-1-1.4-1-.7.3-1.4.3-.7-.2-1.4-.2-.7,0-1.4,0-.7.9-1.4.9-.7-.4-1.4-.4-.7-.2-1.4-.2-.7-.5-1.4-.5-.7,1.1-1.4,1.1-.7-.5-1.4-.5-.7,0-1.4,0-.7.6-1.4.6-.7-.3-1.4-.3-.7-.5-1.4-.5-.7-.2-1.4-.2-.7,1.1-1.4,1.1-.7,0-1.4,0-.7-.3-1.4-.3-.7,0-1.4,0-.7-.5-1.4-.5-.7.8-1.4.8-.7-.9-1.4-.9-.7,0-1.4,0-.7.3-1.4.3-.7.6-1.4.6-.7,0-1.4,0-.7-1.1-1.4-1.1-.7.3-1.4.3-.7,0-1.4,0-.7-.3-1.4-.3-.7.5-1.4.5-.7,0-1.4,0-.7.2-1.4.2-.7.1-1.4.1-.7.3-1.4.3-.7,0-1.4,0-.7,0-1.4,0-.7-.1-1.4-.1-.7-.9-1.4-.9-.7.4-1.4.4-.7.6-1.4.6-.7,0-1.4,0-.7,0-1.4,0-.7-.4-1.4-.4-.7-.3-1.4-.3-.7.2-1.4.2-.7,0-1.4,0-.7.6-1.4.6-.7-.4-1.4-.4-.7,0-1.4,0-.7.3-1.4.3-.7,0-1.4,0-.7-.3-1.4-.3-.7-.5-1.4-.5-.7,1-1.4,1-.7-.9-1.4-.9-.7.8-1.5.8-.7-.1-1.5-.1-.7-.2-1.5-.2-1-.4-1.5-.4c-.5,0-.8.9-1.3,1-.5,0-1,0-1.4.1-.5.1-.9.3-1.4.5-.5.2-.8.5-1.2.8-.4.2-1.2-.2-1.6.1-.4.3-.4,1.1-.8,1.4-.4.3-1.2.2-1.5.5-.5.5-.4.6-.9,1.2s-.2.8-.7,1.4c-.5.5-.8.3-1.3.8s-.3.7-.8,1.2c-.5.5-.3.7-.8,1.3s-.9.1-1.4.6c-.5.5-.8.2-1.4.7-.5.5.1,1.2-.4,1.7-.5.5-.4.6-1,1.1-.5.5-1,0-1.5.6-.5.5-.4.6-.9,1.2s-.8.3-1.3.8c-.5.5-.5.5-1,1s-.6.4-1.1.9c-.5.5.2,1.2-.3,1.7s-.5.5-1.1,1-.7.4-1.2.9-1.1,0-1.6.4-.3.7-.8,1.3c-.5.5-.4.6-.9,1.2-.5.5-.4.6-.9,1.1s-.5.6-1,1.1c-.5.5-.5.6-1,1.1s-.4.6-.9,1.1c-.5.5-.7.4-1.2.9-.3.4-1.1.4-1.4.7-.3.4-.8.7-1.1,1.1-.3.4-.3,1-.5,1.4-.2.4-.7.8-.9,1.2-.2.5.6,1.3.5,1.7-.1.5-1.1.7-1.2,1.2s-.4,1-.4,1.5c0,.5.1,1,.1,1.5,0,.5.5,1,.5,1.5,0,.5-.4,1.1-.3,1.6,0,.5.8.8.9,1.3.1.5.5.8.7,1.3.2.5.3.9.5,1.4.2.4.6.8.9,1.2.3.4.7.7,1,1,.3.4.6.7,1,1.1.3.3.4,1,.8,1.3.4.3.5,1,.9,1.3s1.3-.3,1.7,0c.4.2.5,1.1,1,1.3.5.2,1.1,0,1.5.1.5.1,1,0,1.5,0,.5,0,.9.6,1.4.6.5,0,1-.2,1.5-.2.7,0,.7.7,1.4.7s.7-.8,1.4-.8.7,0,1.4,0,.7.3,1.4.3.7-.2,1.4-.2.7.8,1.4.8.7-.2,1.4-.2.7-.7,1.4-.7.7,1.1,1.4,1.1.7-.9,1.4-.9.7-.1,1.4-.1.7.8,1.4.8.7-.9,1.4-.9.7.9,1.4.9.7,0,1.4,0,.7-.8,1.4-.8.7.3,1.4.3.7.1,1.4.1.7-.2,1.4-.2.7.4,1.4.4.7-.8,1.4-.8.7.9,1.4.9.7-.6,1.4-.6.7.2,1.4.2.7.6,1.4.6.7-.4,1.4-.4.7-.4,1.4-.4.7.8,1.4.8.7-1.1,1.4-1.1.7,0,1.4,0,.7,1,1.4,1,.7-.2,1.4-.2.7-.8,1.4-.8.7,1,1.4,1,.7-1,1.4-1,.7.7,1.4.7.7.5,1.4.5.7-.4,1.4-.4.7-.6,1.4-.6.7.4,1.4.4.7-.2,1.4-.2.7-.3,1.4-.3.7,1.2,1.4,1.2.7,0,1.4,0,.7-.9,1.4-.9.7-.1,1.4-.1.7-.2,1.4-.2.7,1.2,1.4,1.2.7-1,1.4-1,.7,0,1.4,0,.7.4,1.4.4.7-.2,1.4-.2.7-.2,1.4-.2.7.3,1.4.3.7.6,1.4.6.7-.8,1.4-.8.7.5,1.4.5.7-.1,1.4-.1.7,0,1.4,0,.7.3,1.4.3.7.2,1.4.2.7-.6,1.4-.6.7.3,1.4.3.7-.8,1.4-.8.7.2,1.4.2.7,0,1.4,0,.7,1.1,1.4,1.1.7-1.1,1.4-1.1.7.3,1.4.3.7.5,1.4.5.7.1,1.4.1.7.2,1.4.2.7-1.2,1.4-1.2.7,1.1,1.4,1.1.7-1,1.4-1,.7,0,1.4,0,.7.2,1.4.2.7-.3,1.4-.3.7.4,1.4.4.7.2,1.4.2.7,0,1.4,0,.7.2,1.4.2.7,0,1.4,0,.7,0,1.4,0,.7-.6,1.4-.6.7,0,1.4,0,.7-.1,1.4-.1.7.3,1.4.3.7.3,1.4.3.7-.6,1.4-.6.7,0,1.4,0,.7,0,1.4,0,.7,0,1.4,0,.7.8,1.4.8.7-.1,1.4-.1.7-.6,1.4-.6.7-.4,1.4-.4.7.9,1.4.9.7,0,1.4,0,.7,0,1.4,0,.7,0,1.4,0,.7-.7,1.4-.7.7.4,1.4.4.7-.7,1.4-.7.7,0,1.4,0,.7.2,1.4.2.7.5,1.4.5.7-.2,1.4-.2.7.7,1.4.7.7-.2,1.4-.2.7-.4,1.4-.4.7-.1,1.4-.1.7-.4,1.4-.4.7.6,1.4.6.7-.5,1.4-.5.7.6,1.4.6.7.3,1.4.3.7-.4,1.4-.4.7.2,1.4.2.7.1,1.4.1.7-.3,1.4-.3.7.1,1.4.1.7-.3,1.4-.3.7.4,1.4.4.7-.4,1.4-.4.7.1,1.4.1.7-.2,1.4-.2.7-.3,1.4-.3.7.5,1.4.5.7.3,1.4.3.7,0,1.4,0,.7-.4,1.4-.4.7-.5,1.4-.5.7.5,1.4.5.7-.4,1.4-.4.7-.2,1.4-.2.7.7,1.4.7.7.2,1.4.2.7-1.1,1.4-1.1.7.6,1.4.6.7-.5,1.4-.5.7-.1,1.4-.1.7.8,1.4.8.7,0,1.4,0,.7,0,1.4,0,.7,0,1.4,0,.7-.5,1.4-.5.7.4,1.4.4.7.6,1.4.6.7,0,1.4,0,.7-.5,1.4-.5.7,0,1.4,0,.7.3,1.4.3.7.3,1.4.3.7-.9,1.4-.9.7.1,1.4.1.7.8,1.4.8.7-.4,1.4-.4.7-.4,1.4-.4.7.5,1.4.5.7-.9,1.4-.9.7.8,1.4.8.7.2,1.4.2.7-.6,1.4-.6.7-.2,1.4-.2.7.2,1.4.2.7.2,1.4.2.7,0,1.4,0,.7-.5,1.4-.5.7.8,1.4.8.7-.7,1.4-.7.7.3,1.4.3.7.3,1.4.3.7-.3,1.4-.3.7-.5,1.4-.5.7.5,1.4.5.7,0,1.4,0,.7,0,1.4,0,.7,0,1.4,0,.7-.6,1.4-.6.7,0,1.4,0,.7.9,1.4.9.7,0,1.4,0,.7-.9,1.4-.9.7.7,1.4.7.7-.4,1.4-.4.7-.6,1.4-.6.7,1.2,1.4,1.2.7-1.1,1.4-1.1.7.5,1.4.5.7-.5,1.4-.5.7.2,1.4.2.7-.1,1.4-.1.7.2,1.4.2.7.5,1.4.5.7.1,1.4.1.7,0,1.4,0,.7-.4,1.4-.4.7.4,1.4.4.7,0,1.4,0,.7-.9,1.4-.9.7.4,1.4.4.7,0,1.4,0,.7.6,1.4.6.7,0,1.4,0,.7-.6,1.4-.6.7-.4,1.4-.4.7.4,1.4.4.7,0,1.4,0,.7,0,1.4,0,.7.4,1.4.4.7.3,1.4.3.7-.3,1.4-.3.7,0,1.4,0,.7-.3,1.4-.3.7.3,1.4.3.7-.7,1.4-.7.7.5,1.4.5.7.1,1.4.1.7,0,1.4,0,.7-.2,1.5-.2.7.2,1.4.2.7-.6,1.5-.6.7.7,1.5.7.7-.5,1.5-.5,1,.5,1.5.7c.5.2.9.4,1.3.7.4.3.5.8.8,1.2.3.4.4.8.5,1.3.2.5.2.8.2,1.4s.6.7.6,1.4.6.7.6,1.4-.5.7-.5,1.4-.3.7-.3,1.4.8.7.8,1.4-.9.7-.9,1.4.2.7.2,1.4-.1.7-.1,1.4.6.7.6,1.4,0,.7,0,1.4-.4.7-.4,1.4-.3.7-.3,1.4,0,.7,0,1.4.3.7.3,1.4.2.7.2,1.4.1.7.1,1.4-.1.7-.1,1.4.5.7.5,1.4-.1.7-.1,1.4-.5.7-.5,1.4-.1.7-.1,1.4-.1.7-.1,1.4-.3.7-.3,1.4,1,.7,1,1.4-1,.7-1,1.4.5.7.5,1.4-.1.7-.1,1.4.4.7.4,1.4-.1.7-.1,1.4.4.7.4,1.4-.8.7-.8,1.4.9.7.9,1.4-.8.7-.8,1.4.2.7.2,1.4.4.7.4,1.4-.7.7-.7,1.4,1,.7,1,1.4-.8.7-.8,1.4.5.7.5,1.4.2.7.2,1.4-.5.7-.5,1.4.1.7.1,1.4-.2.7-.2,1.4.6.7.6,1.4-.9.7-.9,1.4.7.7.7,1.4-.2.7-.2,1.4.4.7.4,1.4-.8.7-.8,1.4,0,.7,0,1.4.9.7.9,1.4-.9.7-.9,1.4.8.7.8,1.4-.8.7-.8,1.4.7.7.7,1.4-.9.7-.9,1.4.3.7.3,1.4-.2.7-.2,1.4,0,.7,0,1.4.2.7.2,1.4.8.7.8,1.4-.6.7-.6,1.4.2.7.2,1.4,0,.7,0,1.4-.2.7-.2,1.4-.2.7-.2,1.4-.2.7-.2,1.4.8.7.8,1.4-.4.7-.4,1.4.2.7.2,1.4.6.7.6,1.4-.1.7-.1,1.4-.4.7-.4,1.4-.5.7-.5,1.4.7.7.7,1.4-.6.8-.8,1.3c55.3-38.9,94.2-99.8,103.9-169.9-.2.3-.4.6-.8.6Z"/>
  <path class="cls-1" d="M160.7,17c0,.7-.9.7-.9,1.4s1.2.7,1.2,1.4-1.2.7-1.2,1.4.7.7.7,1.4.4.7.4,1.4-.3.7-.3,1.4.4.7.4,1.4-.2.7-.2,1.4.2.7.2,1.4-.2.7-.2,1.4-.4.7-.4,1.4,0,.7,0,1.4,0,.7,0,1.4.8.7.8,1.4-.8.7-.8,1.4.7.7.7,1.4,0,.7,0,1.4,0,.7,0,1.4-.6.7-.6,1.4-.3.7-.3,1.4.5.7.5,1.4.5.7.5,1.4-.8.7-.8,1.4.7.7.7,1.4-.1.7-.1,1.4-.2.7-.2,1.4.7.7.7,1.4-.9.7-.9,1.4.8.7.8,1.4-.4.7-.4,1.4-.4.7-.4,1.4.6.7.6,1.4-.8.7-.8,1.4.7.7.7,1.4-.7.7-.7,1.4.5.7.5,1.4.6.7.6,1.4-.3.7-.3,1.4,0,.7,0,1.4.2.7.2,1.4-.3.7-.3,1.4.4.7.4,1.4-.6.7-.6,1.4.1.7.1,1.4.1.7.1,1.4-.7.7-.7,1.4.3.7.3,1.4.2.7.2,1.4-.6.7-.6,1.4.4.7.4,1.4.7.7.7,1.4-.2.7-.2,1.5-.3.7-.3,1.4-.1.7-.1,1.4.4.7.4,1.5-.6.7-.6,1.4,0,.7,0,1.5.4.7.4,1.5.5.7.5,1.4-.9.7-.9,1.5.4.7.4,1.5-.6.7-.6,1.5,0,1,.1,1.5c0,.5.9.9,1,1.3,0,.5-.1,1,0,1.5.1.5.5.9.7,1.3.2.5.1,1,.4,1.5.2.4.3,1,.6,1.4.3.4.6.8.9,1.2.3.4.8.6,1.1,1,.3.3.6.8,1,1.1.4.3,1,.3,1.4.6.4.3,1,.1,1.4.4.4.2.7.7,1.2.9.5.2.9.3,1.4.5.5.1.9.1,1.4.2.5,0,.9.1,1.4.2.5,0,.9.5,1.4.5.7,0,.7.4,1.4.4s.7,0,1.4,0,.7-.6,1.4-.6.7-.5,1.4-.5.7.4,1.4.4.7.6,1.4.6.7-.9,1.4-.9.7,0,1.4,0,.7.6,1.4.6.7.1,1.4.1.7-.2,1.4-.2.7.1,1.4.1.7-.7,1.4-.7.7.3,1.4.3.7,0,1.4,0,.7-.3,1.4-.3.7-.1,1.4-.1.7,0,1.4,0,.7.7,1.4.7.7-.8,1.4-.8.7,0,1.4,0,.7.8,1.4.8.7,0,1.4,0,.7-.5,1.4-.5.7-.3,1.4-.3.7.7,1.4.7.7-.4,1.4-.4.7,0,1.4,0,.7-.2,1.4-.2.7.6,1.4.6.7-.6,1.4-.6.7-.2,1.4-.2.7.9,1.4.9.7-.6,1.4-.6.7.5,1.4.5.7-.2,1.4-.2.7-.3,1.4-.3.7-.1,1.4-.1.7-.2,1.4-.2.7.8,1.4.8.7-.8,1.4-.8.7.6,1.4.6.7,0,1.4,0,.7-.7,1.4-.7.7.6,1.4.6.7.3,1.4.3.7-.2,1.4-.2.7,0,1.4,0,.7-.3,1.4-.3.7.6,1.4.6.7-.3,1.4-.3.7-.3,1.4-.3.7,0,1.4,0,.7,0,1.4,0,.7.2,1.4.2.7-.4,1.4-.4.7-.3,1.4-.3.7,0,1.4,0,.7,0,1.4,0,.7.8,1.4.8.7-.1,1.4-.1.7,0,1.4,0,.7-.2,1.4-.2.7.5,1.4.5.7,0,1.4,0,.7-.8,1.4-.8.7.2,1.4.2.7,0,1.4,0,.7-.6,1.4-.6.7.9,1.4.9.7-.8,1.4-.8.7,0,1.4,0,.7,1,1.4,1,.7-.8,1.4-.8.7.5,1.4.5.7,0,1.4,0,.7.2,1.4.2.7-1,1.4-1,.7.3,1.4.3.7.5,1.4.5.7-.8,1.4-.8.7.2,1.4.2.7,0,1.4,0,.7.6,1.4.6.7-.4,1.4-.4.7,0,1.4,0,.7-.4,1.4-.4.7-.3,1.4-.3.7.5,1.4.5.7.3,1.4.3.7-.7,1.4-.7.7.6,1.4.6.7.4,1.4.4.7-1.1,1.4-1.1.7.4,1.4.4.7.2,1.4.2.7-.5,1.4-.5.7.5,1.4.5.7.4,1.4.4.7-.8,1.4-.8.7.6,1.4.6.7,0,1.4,0,.7.3,1.4.3.7-.4,1.4-.4.7-.5,1.4-.5.7.3,1.4.3.7-.2,1.4-.2.7,0,1.4,0,.7.2,1.4.2.7.2,1.4.2.7,0,1.4,0,.7,0,1.4,0,.7-.5,1.4-.5.7.3,1.4.3.7-.2,1.4-.2.7.8,1.4.8.7-.7,1.4-.7.7-.1,1.4-.1.7.2,1.4.2.7.2,1.4.2.7-.3,1.4-.3.7-.2,1.4-.2.7,1,1.4,1,.7-.6,1.4-.6.7.5,1.4.5.7-.8,1.4-.8.7.8,1.4.8.7,0,1.4,0,.7,0,1.4,0,.7,0,1.4,0,.7-1,1.4-1,.7.9,1.4.9.7-.5,1.4-.5.7.3,1.4.3.7.2,1.4.2.7-.4,1.4-.4.7.5,1.4.5.7.2,1.4.2.7-.9,1.4-.9.7.4,1.4.4.7.3,1.4.3.7,0,1.4,0,.7-.6,1.4-.6.7.6,1.4.6.7-.6,1.4-.6.7.3,1.4.3.7-.3,1.4-.3.7-.3,1.4-.3.7.9,1.4.9.7-.5,1.4-.5.7.2,1.4.2.7,0,1.4,0,.7.2,1.4.2.7.4,1.4.4.7-.8,1.4-.8.7.2,1.4.2.7.4,1.4.4.7-.2,1.4-.2.7.5,1.4.5.7-.9,1.4-.9.7-.2,1.4-.2.7.5,1.4.5.7.6,1.4.6.7-.6,1.4-.6.7,0,1.4,0,.7.9,1.4.9.7-.2,1.4-.2.7-.1,1.4-.1.7,0,1.4,0,.7-.2,1.4-.2.7-.1,1.4-.1.7.2,1.4.2.7-.7,1.4-.7.7,0,1.4,0,.7.9,1.4.9.7-.2,1.4-.2.7.4,1.4.4.7-.4,1.4-.4.7.4,1.4.4.7-.9,1.4-.9.7.4,1.4.4.7-.5,1.4-.5.7.8,1.4.8.7-.3,1.4-.3.7.1,1.4.1.7-.6,1.4-.6.7.1,1.4.1.7.8,1.4.8.7-.4,1.4-.4.7.2,1.4.2.7-.7,1.4-.7.7,0,1.4,0,.7.9,1.4.9.7,0,1.4,0,.7-.3,1.4-.3.7-.2,1.4-.2.7,0,1.4,0,.7.4,1.4.4.7,0,1.4,0,1-.2,1.5,0c.5.2,1.2,0,1.6.4.4.3.3,1.1.6,1.6.3.4.6.7.8,1.2.2.5.7.9.7,1.5s-.7.7-.7,1.4.9.7.9,1.4-.5.7-.5,1.4,0,.7,0,1.4-.4.7-.4,1.4.6.7.6,1.4-.4.7-.4,1.4.1.7.1,1.4,0,.7,0,1.4-.2.7-.2,1.4.7.7.7,1.4-.9.7-.9,1.4,1,.7,1,1.4-.2.7-.2,1.4-.5.7-.5,1.4.1.7.1,1.4,0,.7,0,1.4.3.7.3,1.4.3.7.3,1.4.2.7.2,1.4-.8.7-.8,1.4,0,.7,0,1.4,0,.7,0,1.4.7.7.7,1.4.2.7.2,1.4-.7.7-.7,1.4.2.7.2,1.4-.4.7-.4,1.4.7.7.7,1.4-.3.7-.3,1.4.5.7.5,1.4-.3.7-.3,1.4,0,.7,0,1.4-.5.7-.5,1.4.4.7.4,1.4-.7.7-.7,1.4,0,.7,0,1.4-.2.7-.2,1.4.3.7.3,1.4.8.7.8,1.4-.9.7-.9,1.4-.1.7-.1,1.4.6.7.6,1.4.2,1,0,1.4c-.1.4-.4.9-.6,1.2-.2.4-1,.3-1.3.6-.5.5-.3.8-.8,1.3s-.8.2-1.3.8c-.5.5-.5.5-1,1.1-.5.5,0,.9-.6,1.4s-.9.1-1.4.7c-.5.5-.5.5-1,1s-.1.9-.7,1.4c-.5.5-.2.8-.7,1.3-.5.5-.6.4-1.1.9s-1.2-.1-1.7.4c-.5.5.2,1.2-.3,1.7-.5.5-.9.1-1.4.6-.5.5-.8.2-1.3.7s.1,1.1-.4,1.7c-.5.5-.9.1-1.4.6s-.9.1-1.4.6-.2.8-.7,1.3c-.5.5-.9.2-1.4.7s-.4.7-.9,1.2-.2.8-.7,1.3c-.5.5,0,.9-.6,1.5s-.8.2-1.3.7-.2.8-.8,1.3c-.5.5-.5.5-1.1,1s-1,0-1.5.5c-.5.5-.2.8-.8,1.3-.5.5-1,0-1.5.5-.5.5-.3.8-.8,1.3-.5.5-.7.4-1.2.9s0,1-.5,1.5c-.5.5-1.1,0-1.6.5-.5.5,0,1-.5,1.5-.5.5-1,0-1.5.5s-.4.6-.9,1.1c-.5.5-.1.9-.6,1.4s-.5.5-1.1,1c-.5.5-1,0-1.5.5s0,1-.5,1.5c-.5.5-1,0-1.5.5-.5.5.2,1.2-.4,1.7s-.6.4-1.2.9c-.5.5-1.1,0-1.6.5s-.1.9-.7,1.4c-.5.5-.3.7-.9,1.2s-1.1,0-1.6.4-.5.6-.8.8c-.4.2-.4,1.3-.8,1.4-.4.1-1-.3-1.4-.3-.7,0-.7.6-1.4.6s-.7-1.1-1.4-1.1-.7.5-1.4.5-.7,0-1.4,0-.7-.4-1.4-.4-.7.9-1.4.9-.7-.3-1.4-.3-.7.2-1.4.2-.7.1-1.4.1-.7-.9-1.4-.9-.7.4-1.4.4-.7-.1-1.4-.1-.7.5-1.4.5-.7-.9-1.4-.9-.7.3-1.4.3-.7.8-1.4.8-.7-.8-1.4-.8-.7.7-1.4.7-.7-.8-1.4-.8-.7.6-1.4.6-.7-.7-1.4-.7-.7.4-1.4.4-.7,0-1.4,0-.7,0-1.4,0-.7-.5-1.4-.5-.7.4-1.4.4-.7.3-1.4.3-.7.1-1.4.1-.7-.4-1.4-.4-.7-.1-1.4-.1-.7-.3-1.4-.3-.7.1-1.4.1-.7,0-1.4,0-.7-.3-1.4-.3-.7.3-1.4.3-.7.3-1.4.3-.7-.4-1.4-.4-.7.5-1.4.5-.7-.6-1.4-.6-.7,1-1.4,1-.7-.1-1.4-.1-.7,0-1.4,0-.7-.5-1.4-.5-.7,0-1.4,0-.7-.4-1.4-.4-.7.6-1.4.6-.7-.7-1.4-.7-.7.6-1.4.6-.7.3-1.4.3-.7-.2-1.4-.2-.7-.4-1.4-.4-.7.3-1.4.3-.7.2-1.4.2-.7-1-1.4-1-.7,0-1.4,0-.7.5-1.4.5-.7-.1-1.4-.1-.7-.3-1.4-.3-.7.4-1.4.4-.7.2-1.4.2-.7-.8-1.4-.8-.7.7-1.4.7-.7-.2-1.4-.2-.7-.4-1.4-.4-.7,0-1.4,0-.7.5-1.4.5-.7,0-1.4,0-.7-.4-1.4-.4-.7.9-1.4.9-.7-.3-1.4-.3-.7-.2-1.4-.2-.7,0-1.4,0-.7-.6-1.4-.6-.7.9-1.4.9-.7-.3-1.4-.3-.7-.6-1.4-.6-.7.3-1.4.3-.7,0-1.4,0-.7.9-1.4.9-.7-.6-1.4-.6-.7.2-1.4.2-.7,0-1.4,0-.7.2-1.4.2-.7-.2-1.4-.2h-1.4c-.7,0-.7.5-1.4.5s-.7-.2-1.4-.2-.7-.7-1.4-.7-.7.3-1.4.3-.7,0-1.4,0-.7-.3-1.4-.3-.7,0-1.4,0-.7.8-1.4.8-.7-.2-1.4-.2-.7.3-1.4.3-.7-1-1.4-1-.7.7-1.4.7-.7.4-1.4.4-.7-.2-1.4-.2-.7-.3-1.4-.3-.7.6-1.4.6-.7-1-1.4-1-.7.6-1.4.6-.7-.2-1.4-.2-.7.5-1.4.5-.7-.5-1.4-.5-.7.4-1.4.4-.7-1-1.4-1-.7.5-1.4.5-.7-.4-1.4-.4-.7,1-1.4,1-.7-1-1.4-1-.7,0-1.4,0-.7.4-1.4.4-.7.5-1.4.5-.7-1.2-1.4-1.2-.7.4-1.4.4-.7.6-1.4.6-.7-.1-1.4-.1-.7.1-1.4.1-.7,0-1.4,0-.7-.7-1.4-.7-.7.4-1.4.4-.7,0-1.4,0-.7-.1-1.4-.1-.7,0-1.4,0-.7.1-1.4.1-.7,0-1.4,0-.7-.6-1.4-.6-.7.1-1.4.1-.7,0-1.4,0-.7,0-1.4,0-.7,0-1.4,0-.7.5-1.5.5-.7-.7-1.4-.7-1,.1-1.4,0c-.5-.2-.8-.5-1.2-.8-.4-.3-1.1-.3-1.4-.7-.3-.4-.1-1-.3-1.5-.2-.5-1.2-.9-1.2-1.4s.9-1,1-1.4c.2-.5.4-.9.7-1.3.3-.4.5-.9.9-1.2.4-.3.6-1.2,1.1-1.3.5-.2,1.2,0,1.7,0s.7.3,1.4.3.7-.1,1.4-.1.7-.4,1.4-.4.7.9,1.4.9.7-.6,1.4-.6.7-.5,1.4-.5.7.3,1.4.3.7.7,1.4.7.7,0,1.4,0,.7.1,1.4.1.7-.9,1.4-.9.7.9,1.4.9.7-.8,1.4-.8.7.7,1.4.7.7-1.1,1.4-1.1.7.4,1.4.4.7.3,1.4.3.7-.3,1.4-.3.7.7,1.4.7.7-.4,1.4-.4.7.3,1.4.3.7-.4,1.4-.4.7.1,1.4.1.7-.2,1.4-.2.7-.1,1.4-.1.7.2,1.4.2.7,0,1.4,0,.7-.2,1.4-.2.7.4,1.4.4.7-.4,1.4-.4.7,0,1.4,0,.7,0,1.4,0,.7-.6,1.4-.6.7.6,1.4.6.7-.2,1.4-.2.7.1,1.4.1.7.4,1.4.4.7-.6,1.4-.6.7-.2,1.4-.2.7.2,1.4.2.7,0,1.4,0,.7,0,1.4,0,.7.7,1.4.7.7-.9,1.4-.9.7.4,1.4.4.7,0,1.4,0,.7.4,1.4.4.7-.7,1.4-.7.7.4,1.4.4.7.6,1.4.6.7-.4,1.4-.4.7.4,1.4.4.7-.7,1.4-.7.7.4,1.4.4.7-.6,1.4-.6.7.7,1.4.7.7-.4,1.4-.4.7,0,1.4,0,.7,0,1.4,0,.7.3,1.4.3.7-1,1.4-1,.7.6,1.4.6.7-.5,1.4-.5.7,1,1.4,1,.7,0,1.4,0,.7-1.1,1.4-1.1.7.2,1.4.2.7-.1,1.4-.1.7.2,1.4.2.7.9,1.4.9.7-.4,1.4-.4.7-.2,1.4-.2.7-.2,1.4-.2.7-.2,1.4-.2.7-.2,1.4-.2.7,1,1.4,1,.7-.5,1.4-.5.7.5,1.4.5.7,0,1.4,0,.7.3,1.4.3.7-.7,1.4-.7.7.5,1.4.5.7-.7,1.4-.7.7.3,1.4.3.7.2,1.4.2.7,0,1.4,0,.7.4,1.4.4.7-.7,1.4-.7.7.2,1.4.2.7,0,1.4,0,.7-.5,1.4-.5.7,0,1.4,0,.7,0,1.4,0,.7,0,1.4,0,.7.4,1.4.4.7,0,1.4,0,.7-.3,1.4-.3.7.5,1.4.5.7-.8,1.4-.8.7.3,1.4.3.7-.2,1.4-.2.7.6,1.4.6.7.2,1.4.2.7-.4,1.4-.4.7-.4,1.4-.4.7.4,1.4.4.7,0,1.4,0,.7.6,1.4.6.7-.6,1.4-.6.7.1,1.4.1.7.4,1.4.4.7-.9,1.4-.9.7.6,1.4.6.7,0,1.4,0,.7-.1,1.4-.1.7-.5,1.4-.5.7,0,1.4,0,.7.4,1.4.4.7.5,1.4.5.7-.5,1.4-.5.7.2,1.4.2.7.4,1.4.4.7-.2,1.4-.2.7-.8,1.4-.8.7,1.1,1.4,1.1.7-.8,1.4-.8.7.6,1.5.6.7-.7,1.5-.7.7.5,1.5.5,1-.5,1.4-.6c.5,0,1.1.7,1.6.6.5,0,.8-.8,1.3-1,.5-.1.9-.3,1.4-.4.5-.2.8-.5,1.3-.7.4-.2,1.2.1,1.6-.2.4-.3.7-.8,1.1-1.1.4-.3.7-.7,1.1-1,.5-.5.5-.5,1-1s.7-.3,1.2-.8c.5-.5.4-.7.9-1.2s.4-.6.9-1.1c.5-.5.3-.7.8-1.2.5-.5.6-.4,1.1-.9.5-.5,0-1,.6-1.5s1.3.3,1.8-.2.2-.8.7-1.3c.5-.5,0-1,.5-1.5s1.3.3,1.8-.3,0-.9.6-1.4c.5-.5.7-.3,1.2-.9.5-.5.6-.4,1.1-.9s.7-.4,1.2-.9-.3-1.3.2-1.8c.5-.5.7-.3,1.2-.8s.8-.2,1.3-.7c.5-.5.3-.8.8-1.3.5-.5,1.1,0,1.6-.5.5-.5,0-1,.5-1.5s.8-.2,1.3-.7.3-.7.8-1.2.8-.2,1.3-.7.2-.9.7-1.4c.5-.5.3-.7.8-1.2s.6-.4,1.1-.9.3-.7.8-1.2.9-.2,1.4-.7c.5-.5.2-.8.7-1.3.5-.5,1.1.1,1.7-.4q.5-.5,1-1c.5-.5.5-.5,1-1.1.5-.5.1-.9.6-1.4.3-.3.9-.6,1.2-.9.3-.4.9-.6,1.2-1,.3-.4.4-.9.7-1.4.2-.4.4-.9.6-1.4.2-.5-.2-1.1,0-1.6.1-.5,0-1,.2-1.4,0-.5.5-.9.5-1.4,0-.5.4-1,.4-1.5,0-.7-.6-.7-.6-1.5s.6-.7.6-1.4-.7-.7-.7-1.4.7-.7.7-1.4-.4-.7-.4-1.5,0-.7,0-1.4.2-.7.2-1.4-.7-.7-.7-1.4.8-.7.8-1.5-.5-.7-.5-1.4.7-.7.7-1.5-.4-.7-.4-1.5.1-.7.1-1.5-.6-.7-.6-1.4.9-.7.9-1.4-.9-.7-.9-1.5.8-.7.8-1.5,0-.7,0-1.5-.7-.7-.7-1.5.9-.7.9-1.5-.3-.7-.3-1.5-.5-.7-.5-1.5.1-.7.1-1.5.7-1,.7-1.5c0-.5-1.1-.8-1.2-1.3,0-.5-.2-.9-.4-1.4-.1-.5,0-1.1,0-1.5-.2-.5-.7-.8-.9-1.2-.2-.4.1-1.2-.2-1.6-.3-.4-.5-.9-.8-1.3-.3-.4-1.1-.3-1.5-.7-.3-.3-.6-.8-.9-1.2-.4-.3-.7-.7-1.1-1-.4-.3-1.1,0-1.5-.3-.4-.2-.8-.7-1.2-.9-.5-.2-1.1.2-1.6,0-.5-.1-.7-1-1.2-1.1-.5,0-1.1.6-1.6.5-.5,0-.9-1-1.4-1-.7,0-.7,0-1.4,0s-.7.1-1.4.1-.7.4-1.4.4-.7,0-1.4,0-.7.4-1.4.4-.7-.4-1.4-.4-.7.7-1.4.7-.7-.3-1.4-.3-.7-.2-1.4-.2-.7.2-1.4.2-.7.3-1.4.3-.7-.8-1.4-.8-.7.1-1.4.1-.7.5-1.4.5-.7-.3-1.4-.3-.7-.7-1.4-.7-.7.4-1.4.4-.7.5-1.4.5-.7-.9-1.4-.9-.7,0-1.4,0-.7.9-1.4.9-.7-.8-1.4-.8-.7,0-1.4,0-.7,1-1.4,1-.7-.6-1.4-.6-.7.6-1.4.6-.7,0-1.4,0-.7-.7-1.4-.7-.7-.4-1.4-.4-.7.4-1.4.4-.7.3-1.4.3-.7.4-1.4.4-.7-.9-1.4-.9-.7-.2-1.4-.2-.7.5-1.4.5-.7-.4-1.4-.4-.7.7-1.4.7-.7.3-1.4.3-.7-.4-1.4-.4-.7.4-1.4.4-.7-.2-1.4-.2-.7-.5-1.4-.5-.7.7-1.4.7-.7-1-1.4-1-.7.2-1.4.2-.7.2-1.4.2-.7,0-1.4,0-.7.5-1.4.5-.7-.6-1.4-.6-.7-.2-1.4-.2-.7,0-1.4,0-.7.2-1.4.2-.7.3-1.4.3-.7,0-1.4,0-.7-.7-1.4-.7-.7.6-1.4.6-.7-.3-1.4-.3-.7.5-1.4.5-.7-.7-1.4-.7-.7,0-1.4,0-.7,0-1.4,0-.7.5-1.4.5-.7.1-1.4.1-.7-.8-1.4-.8-.7.4-1.4.4-.7-.5-1.4-.5-.7.5-1.4.5-.7,0-1.4,0-.7-.8-1.4-.8-.7.5-1.4.5-.7,0-1.4,0-.7.5-1.4.5-.7-.7-1.4-.7-.7.7-1.4.7-.7-.6-1.4-.6-.7.4-1.4.4-.7.3-1.4.3-.7-.5-1.4-.5-.7.4-1.4.4-.7-.7-1.4-.7-.7.4-1.4.4-.7,0-1.4,0-.7-.8-1.4-.8-.7,0-1.4,0-.7,1.1-1.4,1.1-.7,0-1.4,0-.7-.5-1.4-.5-.7-.7-1.4-.7-.7,1.2-1.4,1.2-.7-.3-1.4-.3-.7-.9-1.4-.9-.7.5-1.4.5-.7,0-1.4,0-.7-.4-1.4-.4-.7.8-1.4.8-.7-.9-1.4-.9-.7.5-1.4.5-.7.5-1.4.5-.7-.6-1.4-.6-.7.3-1.4.3-.7-.5-1.4-.5-.7.8-1.4.8-.7-1.1-1.4-1.1-.7.3-1.4.3-.7.8-1.4.8-.7-1.1-1.4-1.1-.7.9-1.4.9-.7-.4-1.4-.4-.7.5-1.4.5-.7-.2-1.4-.2-.7-.6-1.4-.6-.7,0-1.4,0-.7-.3-1.4-.3-.7,1-1.4,1-.7-.7-1.4-.7-.7.3-1.4.3-.7,0-1.4,0-.7,0-1.4,0-.7.2-1.4.2-.7-.7-1.4-.7-.7,1-1.4,1-.7-1-1.4-1-.7.6-1.4.6-.7-.3-1.4-.3-.7.6-1.4.6-.7-1-1.4-1-.7.8-1.4.8-.7.1-1.4.1-.7.1-1.4.1-.7,0-1.5,0-.7-1-1.4-1-.7.7-1.5.7-.7-.9-1.5-.9-.7.6-1.4.6-.7,0-1.5,0-.7,0-1.5,0-.7,0-1.5,0-1,0-1.5.1c-.5,0-.9.6-1.4.7-.5,0-.9.4-1.3.5-.5.1-1.3-.7-1.7-.5-.5.2-.6,1.1-1,1.4-.4.2-1.2,0-1.6.2-.4.3-.4,1.1-.8,1.4-.4.3-.6.7-1,1.1-.5.5-1.2-.2-1.7.3-.5.5-.5.5-1,1-.5.5,0,.9-.6,1.4s-.2.8-.7,1.3-.5.5-1,1c-.5.5-1.1-.1-1.6.4-.5.5-.5.5-1,1-.5.5-.1.9-.6,1.4-.5.5-.8.2-1.3.7s-.3.7-.8,1.2-.9.1-1.4.6c-.5.5,0,.9-.6,1.4s-.7.3-1.2.9c-.5.5-.1.9-.7,1.4s-.9.1-1.4.7c-.5.5-.3.7-.8,1.2-.5.5-.3.7-.8,1.2s-1,0-1.5.5-.6.8-.9,1.2c-.3.4-.6.8-.9,1.2-.3.4-.3.9-.6,1.4-.2.4-.7.8-.9,1.2-.2.5-.7.8-.8,1.3-.1.5-.2,1-.3,1.5,0,.5-.2,1-.3,1.5,0,.5,1.1,1,1.1,1.5s-.5,1-.5,1.5c0,.5.4.9.5,1.4,0,.5.1.9.3,1.4.1.5-.1,1.1,0,1.5.2.5.6.8.9,1.2.2.4.4.9.7,1.3.3.4.2,1.1.5,1.5.3.4.8.6,1.2,1s.9.5,1.3.8c.4.3,1,.3,1.4.5.4.3.6.9,1,1.1.4.2,1.1-.1,1.6,0,.5.2.7.8,1.2.9.5.1,1-.2,1.5,0,.5,0,.9.5,1.4.6.5,0,1-.3,1.5-.3.7,0,.7,0,1.4,0s.7.6,1.4.6.7-.2,1.4-.2.7.7,1.4.7.7-.6,1.4-.6.7-.3,1.4-.3.7.5,1.4.5.7-.5,1.4-.5.7.5,1.4.5.7-.7,1.4-.7.7,0,1.4,0,.7.8,1.4.8.7-.4,1.4-.4.7-.2,1.4-.2.7.7,1.4.7.7-.3,1.4-.3.7-.6,1.4-.6.7,0,1.4,0,.7.8,1.4.8.7-1,1.4-1,.7,1,1.4,1,.7-.4,1.4-.4.7.4,1.4.4.7-.4,1.4-.4.7.3,1.4.3.7-.4,1.4-.4.7.2,1.4.2.7.5,1.4.5.7-.8,1.4-.8.7.8,1.4.8.7-.9,1.4-.9.7.5,1.4.5.7-.1,1.4-.1.7.5,1.4.5.7,0,1.4,0,.7-1,1.4-1,.7.9,1.4.9.7.2,1.4.2.7-.6,1.4-.6.7.3,1.4.3.7,0,1.4,0,.7-.3,1.4-.3.7.1,1.4.1.7-.8,1.4-.8.7.5,1.4.5.7.1,1.4.1.7,0,1.4,0,.7-.6,1.4-.6.7.6,1.4.6.7,0,1.4,0,.7-.4,1.4-.4.7-.1,1.4-.1.7.7,1.4.7.7-.7,1.4-.7.7.3,1.4.3.7-.4,1.4-.4.7.8,1.4.8.7-.5,1.4-.5.7.3,1.4.3.7,0,1.4,0,.7-.4,1.4-.4.7.3,1.4.3.7-.3,1.4-.3.7.4,1.4.4.7.2,1.4.2.7,0,1.4,0,.7-.8,1.4-.8.7.4,1.4.4.7.7,1.4.7.7,0,1.4,0,.7-.4,1.4-.4.7-.6,1.4-.6.7.1,1.4.1.7.3,1.4.3.7.1,1.4.1.7-.1,1.4-.1.7-.2,1.4-.2.7-.1,1.4-.1.7.3,1.4.3.7-.4,1.4-.4.7,0,1.4,0,.7-.2,1.4-.2.7.7,1.4.7.7-.1,1.4-.1.7.2,1.4.2.7-.7,1.4-.7.7,1,1.4,1,.7-.5,1.4-.5.7-.2,1.4-.2.7.3,1.4.3.7-.1,1.4-.1.7,0,1.4,0,.7.4,1.4.4.7,0,1.4,0,.7-.5,1.5-.5.7.8,1.5.8.9,0,1.4.1c.5.2,1,0,1.4.4.4.3,1.2.3,1.5.7.3.4.6,1,.7,1.5.2.5-.6,1.1-.6,1.6s.3,1,.2,1.5c-.2.5,0,1.2-.4,1.6-.3.4-.8.8-1.2,1.1-.4.3-1,.4-1.5.6-.5.2-1,.2-1.6.2s-.7-.2-1.4-.2-.7.7-1.4.7-.7-.6-1.4-.6-.7.1-1.4.1-.7,0-1.4,0-.7-.3-1.4-.3-.7.2-1.4.2-.7-.2-1.4-.2-.7-.2-1.4-.2-.7.8-1.4.8-.7-1-1.4-1-.7.5-1.4.5-.7,0-1.4,0-.7,0-1.4,0-.7.2-1.4.2-.7.2-1.4.2-.7-.3-1.4-.3-.7,0-1.4,0-.7-.3-1.4-.3-.7.5-1.4.5-.7-.8-1.4-.8-.7.8-1.4.8-.7-.6-1.4-.6-.7.6-1.4.6-.7-.3-1.4-.3-.7-.5-1.4-.5-.7,0-1.4,0-.7.7-1.4.7-.7-.6-1.4-.6-.7,0-1.4,0-.7.4-1.4.4-.7.4-1.4.4-.7-.8-1.4-.8-.7.3-1.4.3-.7.2-1.4.2-.7-.6-1.4-.6-.7-.2-1.4-.2-.7.1-1.4.1-.7.2-1.4.2-.7-.3-1.4-.3-.7,1-1.4,1-.7,0-1.4,0-.7-1.1-1.4-1.1-.7.7-1.4.7-.7-.8-1.4-.8-.7.4-1.4.4-.7.2-1.4.2-.7-.4-1.4-.4-.7.4-1.4.4-.7,0-1.4,0-.7.4-1.4.4-.7,0-1.4,0-.7,0-1.4,0-.7-1-1.4-1-.7.8-1.4.8-.7.2-1.4.2-.7-.5-1.4-.5-.7.2-1.4.2-.7-.3-1.4-.3-.7-.1-1.4-.1-.7,0-1.4,0-.7.9-1.4.9-.7-.6-1.4-.6-.7-.5-1.4-.5-.7,0-1.4,0-.7.8-1.4.8-.7-.8-1.4-.8-.7.7-1.4.7-.7.2-1.4.2-.7.1-1.4.1-.7.1-1.4.1-.7-1.1-1.4-1.1-.7.4-1.4.4-.7-.1-1.4-.1-.7,0-1.4,0-.7,0-1.4,0-.7,0-1.4,0-.7.5-1.4.5-.7-.1-1.4-.1-.7-.3-1.4-.3-.7.3-1.4.3-.7,0-1.4,0-.7.1-1.4.1-.7-.4-1.4-.4-.7.5-1.4.5-.7-.2-1.4-.2-.7,0-1.4,0-.7,0-1.4,0-.7,0-1.4,0-.7-.7-1.4-.7-.7.4-1.4.4-.7,0-1.4,0-.7.5-1.4.5-.7-.4-1.4-.4-.7-.3-1.4-.3-.7-.2-1.4-.2-.7.5-1.4.5-.7-.4-1.4-.4-.7.3-1.4.3-.7.6-1.4.6-.7-.3-1.4-.3-.7-.2-1.4-.2-.7-.3-1.4-.3-.7.3-1.4.3-.7.3-1.4.3-.7.4-1.4.4-.7-.7-1.4-.7-.7-.1-1.4-.1-.7-.1-1.4-.1-.7.1-1.4.1-.7,0-1.4,0-.7.2-1.5.2-.7,0-1.4,0-.7,0-1.4,0-.7-.3-1.5-.3-.7.7-1.4.7-.7.1-1.5.1-.7,0-1.5,0-.7,0-1.5,0-.7.2-1.5.2-.7-.4-1.5-.4-.7-.5-1.5-.5-.4.6-.6.6c-.5,0-1-.5-1.5-.5s-.9.7-1.4.7c-.5,0-1-.3-1.5-.2-.5,0-1,.1-1.4.3-.5.1-1.1,0-1.5.1-.5.2-.6,1.1-1,1.3-.4.2-1,.2-1.4.4-.4.3-1,.3-1.4.6-.4.3-.6.8-1,1.1-.5.5-.3.7-.8,1.2s-.7.3-1.2.8c-.5.5-.6.5-1.1,1s-.5.6-1,1.1c-.5.5-.1.9-.6,1.4s-.8.2-1.3.7c-.5.5-.1.9-.6,1.4-.5.5-.5.5-1,1-.5.5-.9,0-1.4.6s0,.9-.6,1.4-.5.5-1,1-1.3-.3-1.8.2.2,1.2-.3,1.7c-.5.5-1,0-1.5.5-.5.5,0,1.1-.4,1.6-.5.5-1.3-.3-1.8.2s.2,1.2-.3,1.7c-.5.5-1.2-.1-1.7.4-.5.5,0,1-.5,1.5s-.3.7-.8,1.2-.9,0-1.4.6c-.5.5-.3.7-.8,1.2s-.4.6-.9,1.1-1,0-1.6.5c-.5.5-.5.5-1,1s-.5.5-1,1-.5.5-1,1.1-.6.4-1.1.9c-.5.5-.5.5-1,1s-.1.9-.7,1.4c-.5.5-.6.4-1.1,1-.5.5-.7.3-1.2.8-.5.5-.3.7-.8,1.3-.5.5-.7.3-1.2.9s-.3.8-.8,1.3-.7.3-1.2.8c-.5.5,0,1-.6,1.5-.5.5-.8.2-1.3.8s-.3.7-.8,1.2c-.5.5-1.1-.1-1.6.4s0,.9-.6,1.4-.6.5-1.1,1c-.5.5-.3.7-.8,1.2s-.4.6-.9,1.1-.7.4-1.2.9c-.5.5-1.1,0-1.6.4s-.3.8-.8,1.3c-.5.5-.4.6-.9,1.2-.5.5-.5.5-1,1.1s-.8.2-1.3.7-.5.5-1,1c-.5.5-.5.5-1,1-.5.5-.5.5-1,1-.5.5-.1.9-.6,1.4-.4.3-1,.4-1.3.8-.3.4-.8.7-1.1,1.1-.3.4-.3,1-.5,1.5-.2.4,0,1.1-.3,1.5-.2.5-.5.9-.6,1.3-.1.5-.6.9-.7,1.4,0,.5.6,1.1.5,1.6,0,.5-.3.9-.3,1.4,0,.5-.6,1-.6,1.5,0,.5,1.1.8,1.2,1.3,0,.5-.7,1.2-.6,1.6.1.5.5.9.7,1.3.2.5.8.7,1,1.2.2.4.5.9.7,1.3.3.4.6.7.9,1.1.3.4.3,1.1.6,1.4.3.3.6.9,1,1.2.4.3.9.5,1.3.8s.9.4,1.4.6c.4.2,1,0,1.5.3.5.2.8.5,1.3.7.5.1,1,0,1.5.1.5,0,.9.2,1.4.2.5,0,.9.2,1.4.2.7,0,.7.3,1.4.3s.7,0,1.4,0,.7-.1,1.4-.1.7.5,1.4.5.7-.3,1.4-.3.7.1,1.4.1.7-.9,1.4-.9.7.7,1.4.7.7-.6,1.4-.6.7,0,1.4,0,.7.5,1.4.5.7-.8,1.4-.8.7,1.1,1.4,1.1.7-1.1,1.4-1.1.7.8,1.4.8.7-.5,1.4-.5.7-.1,1.4-.1.7.9,1.4.9.7-.5,1.4-.5.7-.5,1.4-.5.7.7,1.4.7.7-.8,1.4-.8.7.7,1.4.7.7.2,1.4.2.7,0,1.4,0,.7-.4,1.4-.4.7.3,1.4.3.7.2,1.4.2.7,0,1.4,0,.7-.8,1.4-.8.7.9,1.4.9.7-.8,1.4-.8.7,1.1,1.4,1.1.7-.2,1.4-.2.7-.3,1.4-.3.7,0,1.4,0,.7,0,1.4,0,.7-.6,1.4-.6.7.1,1.4.1.7,0,1.4,0,.7,0,1.4,0,.7.7,1.4.7.7-.4,1.4-.4.7-.3,1.4-.3.7.9,1.4.9.7-.4,1.4-.4.7,0,1.4,0,.7.1,1.4.1.7-.4,1.4-.4.7-.5,1.4-.5.7,1.2,1.4,1.2.7-.8,1.4-.8.7.2,1.4.2.7-.2,1.4-.2.7,0,1.4,0,.7.7,1.4.7.7-.9,1.4-.9.7,0,1.4,0,.7.6,1.4.6.7-.1,1.4-.1.7.3,1.4.3.7-.2,1.4-.2.7-.4,1.4-.4.7.3,1.4.3.7-.6,1.4-.6.7.4,1.4.4.7.5,1.4.5.7-1,1.4-1,.7-.1,1.4-.1.7.3,1.4.3.7.2,1.4.2.7-.1,1.4-.1.7.6,1.4.6.7,0,1.4,0,.7-.5,1.4-.5.7,0,1.4,0,.7.3,1.4.3.7-.5,1.4-.5.7.8,1.4.8.7-.7,1.4-.7.7.7,1.4.7.7,0,1.4,0,.7-.2,1.4-.2.7,0,1.4,0,.7-.9,1.4-.9.7,1,1.4,1,.7.1,1.4.1.7-.6,1.4-.6.7.7,1.4.7.7-.8,1.4-.8.7.7,1.4.7.7,0,1.4,0,.7-1.1,1.4-1.1.7.3,1.4.3.7.2,1.4.2.7-.5,1.4-.5.7.6,1.4.6.7,0,1.4,0,.7-.2,1.4-.2.7.4,1.4.4.7,0,1.4,0,.7-.4,1.4-.4.7.4,1.4.4.7-.4,1.4-.4.7.2,1.4.2.7.3,1.4.3.7.2,1.4.2.7-.1,1.4-.1.7.1,1.4.1.7-1.1,1.4-1.1.7,0,1.4,0,.7,0,1.4,0,.7.1,1.4.1.7.1,1.4.1.7.4,1.4.4.7-.5,1.4-.5.7-.1,1.4-.1.7.2,1.4.2.7-.1,1.4-.1.7.2,1.4.2.7.4,1.4.4.7-.3,1.4-.3.7-.5,1.4-.5.7.2,1.4.2.7-.1,1.4-.1.7.1,1.4.1.7.8,1.4.8.7-.5,1.4-.5.7-.1,1.4-.1.7.4,1.4.4.7.3,1.4.3.7-.8,1.4-.8.7-.4,1.4-.4.7.3,1.4.3.7-.3,1.4-.3.7.6,1.4.6.7,0,1.4,0,.7-.5,1.4-.5.7.6,1.4.6.7.1,1.4.1.7.1,1.4.1.7.1,1.4.1.7-.3,1.4-.3.7,0,1.4,0,.7.3,1.4.3.7-.8,1.4-.8.7.8,1.4.8.7,0,1.4,0,.7-1.1,1.4-1.1.7.5,1.4.5.7.5,1.4.5.7-.5,1.4-.5.7.2,1.4.2.7,0,1.4,0,.7-.2,1.4-.2.7-.4,1.4-.4.7-.1,1.4-.1.7.7,1.4.7.7-.2,1.4-.2.7,0,1.4,0,.7.3,1.4.3.7,0,1.4,0,.7-.2,1.4-.2.7.2,1.4.2.7-.3,1.4-.3.7-.3,1.4-.3.7.5,1.4.5.7.3,1.4.3.7-1.2,1.4-1.2.7.1,1.4.1.7-.1,1.4-.1.7.7,1.4.7.7.3,1.4.3.7,0,1.4,0,.7-.6,1.4-.6.7.2,1.4.2.7,0,1.4,0,.7-.1,1.4-.1.7.1,1.4.1.7,0,1.4,0,.7.3,1.4.3.7-.4,1.4-.4.7-.2,1.4-.2.7.5,1.4.5.7-.2,1.4-.2.7-.6,1.4-.6.7.7,1.4.7.7-.7,1.4-.7.7.9,1.4.9.7-.7,1.4-.7.7.5,1.4.5.7-.6,1.4-.6.7,0,1.4,0,.7.8,1.4.8.7,0,1.4,0,.7,0,1.4,0,.7,0,1.4,0,.7-.6,1.4-.6.7-.3,1.4-.3.7.3,1.4.3.7-.2,1.4-.2.7.6,1.4.6.7-.2,1.4-.2.7.2,1.4.2.7-.4,1.4-.4.7,0,1.4,0,.7.1,1.4.1.7-.5,1.4-.5.7.3,1.4.3.7.8,1.4.8.7-1.1,1.4-1.1.7.7,1.4.7.7-.6,1.4-.6.7,1,1.4,1,.7-.5,1.4-.5.7-.2,1.4-.2.7.4,1.4.4.7.2,1.4.2.7-.8,1.4-.8.7,0,1.4,0,.7,0,1.4,0,.7.3,1.4.3.7.3,1.4.3.7.2,1.4.2.7,0,1.4,0,.7-.8,1.4-.8.7.2,1.4.2.7,0,1.4,0,.7.3,1.4.3.7-.2,1.4-.2.7,0,1.4,0,.7.6,1.4.6.7-.4,1.4-.4.7,0,1.4,0,.7-.2,1.4-.2.7.3,1.4.3.7.5,1.4.5.7-.3,1.4-.3.7-.7,1.4-.7.7.4,1.4.4.7.6,1.4.6.7-1.2,1.4-1.2.7.3,1.4.3.7.5,1.4.5.7-.5,1.4-.5.7.2,1.4.2.7.1,1.4.1.7-.4,1.4-.4.7.5,1.4.5.7-.5,1.4-.5.7.9,1.4.9.7-.6,1.4-.6.7.4,1.4.4.7-.1,1.4-.1.7.4,1.4.4.6-.1.8-.2c.8-8.2,1.2-16.6,1.2-25C500,111.9,388.1,0,250,0s-61.7,5.9-89.5,16.5c0,.1.2.3.2.5Z"/>
  <path class="cls-1" d="M49.3,296.7c0-.5-.4-1-.5-1.4-.1-.5-1.1-.6-1.3-1.1-.2-.5.2-1.2,0-1.6-.2-.4-.5-.9-.8-1.3-.3-.4-.8-.7-1.1-1-.3-.4-.5-.9-.9-1.2-.3-.3-.8-.6-1.1-.9-.4-.3-.6-.9-1-1.2-.4-.3-.8-.7-1.2-1-.4-.2-1.3.3-1.7.1-.5-.2-.9-.4-1.4-.5-.5-.1-.8-1-1.3-1.1-.5,0-1-.2-1.5-.2-.5,0-1,0-1.5,0-.7,0-.7,1.1-1.4,1.1s-.7-.9-1.4-.9-.7.2-1.4.2-.7,0-1.4,0-.7-.4-1.4-.4-.7,1-1.4,1-.7-.5-1.4-.5-.7-.6-1.4-.6-.7.2-1.4.2-.7,0-1.4,0-.7.9-1.4.9-.7-1.2-1.4-1.2-.7.3-1.4.3-.7,0-1.4,0-.7.6-1.4.6-.7.1-1.4.1-.7-.4-1.4-.4-.7-.7-1.4-.7-.7,1.2-1.4,1.2-.7-1-1.4-1-.7,0-1.4,0-.7.2-1.3.3c2.6,18.6,7.2,36.6,13.7,53.7,0,0,0,0,0,0,.5-.5,1,0,1.5-.6s.2-.8.7-1.3c.5-.5,1,0,1.5-.5.5-.5-.1-1.1.4-1.6s1.2.1,1.7-.4c.5-.5,0-1.1.5-1.6.5-.5.3-.7.8-1.2s.9,0,1.4-.6c.5-.5.3-.7.8-1.2s.7-.3,1.2-.8.3-.7.8-1.2c.5-.5.8-.2,1.3-.7s.2-.8.7-1.3.5-.5,1-1c.5-.5.3-.7.8-1.2s.3-.7.8-1.2c.5-.5,1.3.3,1.8-.2.5-.5-.3-1.3.2-1.8s.5-.5,1-1,.9,0,1.4-.6c.5-.5.6-.4,1.1-.9s.2-.8.8-1.3c.5-.5.4-.6.9-1.1.5-.5.6-.4,1.1-.9.5-.5.3-.7.8-1.2.5-.5.7-.3,1.2-.9s.9,0,1.4-.6,0-1.1.4-1.6,1.5,0,1.8-.3c.3-.4,0-1.2.3-1.6.3-.4.7-.7.9-1.2.2-.4.6-.8.8-1.3.2-.5.6-.9.7-1.3.1-.5-.6-1.2-.5-1.7,0-.5.6-.9.7-1.4,0-.5,0-1,0-1.5s.2-1,.1-1.5c0-.5.3-1.1.2-1.5Z"/>
  <path class="cls-1" d="M36,121.5c.7,0,.7-.4,1.4-.4s.7.2,1.4.2.7,1,1.4,1,.7,0,1.4,0,.7-.2,1.4-.2.7.2,1.4.2.7-.6,1.4-.6.7.1,1.4.1.7.4,1.4.4.7-.5,1.4-.5.7-.3,1.4-.3.7,0,1.4,0,.7-.3,1.4-.3.7.7,1.4.7.7-.8,1.4-.8.7.8,1.4.8.7,0,1.4,0,.7-.1,1.4-.1.7.6,1.4.6.7-1.1,1.4-1.1.7.4,1.4.4.7,0,1.4,0,.7.5,1.4.5.7-.8,1.4-.8.7.2,1.4.2.7-.3,1.4-.3.7,1,1.4,1,.7-.7,1.4-.7.7-.2,1.4-.2.7,0,1.4,0,.7,1.1,1.4,1.1.7-1.2,1.4-1.2.7.8,1.4.8.7-.1,1.4-.1.7,0,1.4,0,.7.2,1.4.2.7,0,1.4,0,.7-.2,1.4-.2.7.3,1.4.3.7-.1,1.4-.1.7-.5,1.4-.5.7-.3,1.4-.3.7.3,1.4.3.7.6,1.4.6.7-.6,1.4-.6.7.4,1.4.4.7-.6,1.4-.6.7-.2,1.4-.2.7,1.1,1.4,1.1.7-.7,1.4-.7.7-.3,1.4-.3.7.5,1.4.5.7.5,1.4.5.7,0,1.4,0,.7,0,1.4,0,.7-.7,1.4-.7.7.7,1.4.7.7,0,1.4,0,.7-.9,1.4-.9.7.8,1.4.8.7-.4,1.4-.4.7.3,1.4.3.7-.3,1.4-.3.7-.5,1.4-.5.7.9,1.4.9.7-.1,1.4-.1.7.2,1.4.2.7-.6,1.5-.6.7.2,1.4.2,1-.2,1.5-.3c.5,0,1,0,1.5,0,.5,0,1-.2,1.4-.3.5-.1.8-.6,1.3-.8.5-.2.8-.5,1.3-.7.4-.2,1.2,0,1.6-.2.4-.3.6-.9.9-1.2.4-.3.5-.9.9-1.2.3-.3,1.3-.2,1.6-.5.3-.4,0-1.3.2-1.7.3-.4,1.3-.3,1.6-.8.2-.4-.1-1.2,0-1.6.2-.5.1-1,.3-1.4.1-.5.4-.9.5-1.4,0-.5.6-.9.7-1.4,0-.5.3-1,.3-1.5,0-.7,0-.7,0-1.4s0-.7,0-1.4-.9-.7-.9-1.4.9-.7.9-1.4-.8-.7-.8-1.4,0-.7,0-1.4.1-.7.1-1.4.7-.7.7-1.4-.9-.7-.9-1.4.8-.7.8-1.4-.5-.7-.5-1.4.5-.7.5-1.4-.6-.7-.6-1.4.1-.7.1-1.4.5-.7.5-1.4-.2-.7-.2-1.4-.9-.7-.9-1.4.2-.7.2-1.4.3-.7.3-1.4,0-.7,0-1.4.2-.7.2-1.4-.7-.7-.7-1.4,1.2-.7,1.2-1.4-.6-.7-.6-1.4-.1-.7-.1-1.4-.5-.7-.5-1.4,1.1-.7,1.1-1.4,0-.7,0-1.4-.2-.7-.2-1.4-.6-.7-.6-1.4.5-.7.5-1.4.4-.7.4-1.4-.4-.7-.4-1.4.3-.7.3-1.4-.4-.7-.4-1.4-.3-.7-.3-1.4.2-.7.2-1.4.4-.7.4-1.4.2-.7.2-1.4-.7-.7-.7-1.4.1-.7.1-1.4-.4-.7-.4-1.4.5-.7.5-1.4-.5-.7-.5-1.4.2-.7.2-1.4,0-.7,0-1.4.5-.7.5-1.4-.6-.7-.6-1.4.4-.7.4-1.4.2-.7.2-1.4-.5-.7-.5-1.4.4-.7.4-1.4-.3-.7-.3-1.4.3-.7.3-1.4,0-.7,0-1.4-.3-.7-.3-1.4-.5-.7-.5-1.4.9-.7.9-1.4-.6-.7-.6-1.4,0-.6,0-.8c-48,20.9-88.1,56.4-114.8,100.9.1,0,.3-.1.6-.1Z"/>
  <path class="cls-1" d="M388,458.2c-.7,0-.7-.2-1.4-.2-.7,0-.7.6-1.4.6-.7,0-.7.2-1.4.2-.7,0-.7-.2-1.4-.2-.7,0-.7.3-1.4.3-.7,0-.7,0-1.4,0-.7,0-.7-.4-1.4-.4-.7,0-.7,0-1.4,0-.7,0-.7-.5-1.4-.5-.7,0-.7.7-1.4.7-.7,0-.7-.8-1.4-.8-.7,0-.7,1.1-1.4,1.1-.7,0-.7-.9-1.4-.9-.7,0-.7.7-1.4.7-.7,0-.7-.5-1.4-.5-.7,0-.7-.3-1.4-.3s-.7.2-1.4.2c-.7,0-.7.4-1.4.4-.7,0-.7,0-1.4,0-.7,0-.7,0-1.4,0-.7,0-.7-.4-1.4-.4-.7,0-.7.3-1.4.3-.7,0-.7-.4-1.4-.4-.7,0-.7.2-1.4.2-.7,0-.7-.4-1.4-.4-.7,0-.7.7-1.4.7-.7,0-.7-.2-1.4-.2-.7,0-.7-.3-1.4-.3-.7,0-.7.3-1.4.3-.7,0-.7-.1-1.4-.1-.7,0-.7.4-1.4.4-.7,0-.7-.3-1.4-.3-.7,0-.7,0-1.4,0-.7,0-.7.1-1.4.1-.7,0-.7,0-1.4,0-.7,0-.7.3-1.4.3-.7,0-.7,0-1.4,0s-.7-.3-1.4-.3c-.7,0-.7-.4-1.4-.4-.7,0-.7,0-1.4,0-.7,0-.7.8-1.4.8-.7,0-.7-.1-1.4-.1-.7,0-.7,0-1.4,0-.7,0-.7-.4-1.4-.4-.7,0-.7.5-1.4.5-.7,0-.7,0-1.4,0-.7,0-.7-.2-1.4-.2s-.7.3-1.4.3c-.7,0-.7-.5-1.4-.5-.7,0-.7.5-1.4.5-.7,0-.7,0-1.4,0-.7,0-.7.2-1.4.2-.7,0-.7,0-1.4,0-.7,0-.7.2-1.4.2-.7,0-.7-.1-1.4-.1-.7,0-.7,0-1.4,0-.7,0-.7-.3-1.4-.3-.7,0-.7-.5-1.4-.5-.7,0-.7.8-1.4.8s-.7.1-1.4.1c-.7,0-.7-.9-1.4-.9-.7,0-.7.4-1.4.4-.7,0-.7,0-1.4,0-.7,0-.7,0-1.4,0-.7,0-.7.4-1.4.4-.7,0-.7-.1-1.4-.1-.7,0-.7-.9-1.4-.9-.7,0-.7.5-1.4.5-.7,0-.7,0-1.4,0-.7,0-.7-.2-1.4-.2-.7,0-.7.6-1.4.6-.7,0-.7-.8-1.4-.8-.7,0-.7.6-1.4.6-.7,0-.7-.5-1.4-.5-.7,0-.7-.1-1.4-.1-.7,0-.7.6-1.4.6-.7,0-.7-.5-1.4-.5-.7,0-.7.4-1.4.4-.7,0-.7,0-1.4,0-.7,0-.7.1-1.4.1-.7,0-.7-.5-1.4-.5-.7,0-.7,0-1.4,0-.7,0-.7,0-1.4,0s-.7.6-1.4.6c-.7,0-.7-.1-1.4-.1-.7,0-.7,0-1.4,0-.7,0-.7-.2-1.4-.2-.7,0-.7.3-1.4.3-.7,0-.7-.2-1.4-.2-.7,0-.7.2-1.4.2s-.7-.3-1.4-.3c-.7,0-.7.7-1.4.7-.7,0-.7-1-1.4-.9-.7,0-.7.9-1.4.9-.7,0-.7-.7-1.4-.7-.7,0-.7.1-1.4.1-.7,0-.7-.3-1.4-.3-.7,0-.7.6-1.4.6-.7,0-.7.3-1.4.3-.7,0-.7-.1-1.4-.1-.7,0-.7-.3-1.4-.3-.7,0-.7-.3-1.4-.3-.7,0-.7.3-1.4.3-.7,0-.7.5-1.4.5-.7,0-.7-.3-1.4-.3-.7,0-.7-.4-1.4-.4-.7,0-.7,0-1.4,0-.7,0-.7,0-1.4,0-.7,0-.7.3-1.4.3-.7,0-.7,0-1.4,0-.7,0-.7.4-1.4.4-.7,0-.7-1-1.4-1-.7,0-.7.4-1.4.4-.7,0-.7-.5-1.4-.5-.7,0-.7.6-1.4.6s-.7,0-1.4,0c-.7,0-.7.3-1.4.3-.7,0-.7,0-1.4,0-.7,0-.7-.5-1.4-.5-.7,0-.7.7-1.4.7-.7,0-.7-.1-1.4-.1-.7,0-.7-.1-1.4-.1-.7,0-.7-.2-1.4-.2-.7,0-.7,0-1.4,0-.7,0-.7,0-1.4,0-.7,0-.7.1-1.4.1-.7,0-.7-.2-1.4-.2-.7,0-.7,0-1.4,0-.7,0-.7,0-1.4,0-.7,0-.7-.1-1.4-.1-.7,0-.7.2-1.4.2-.7,0-.7-.2-1.4-.2-.7,0-.7.3-1.4.3s-.7-.8-1.4-.8c-.7,0-.7.3-1.4.3-.7,0-.7,0-1.4,0-.7,0-.7-.2-1.4-.2-.7,0-.7.6-1.4.6-.7,0-.7,0-1.4,0-.7,0-.7-.5-1.4-.5-.7,0-.7,0-1.4,0-.7,0-.7.7-1.4.7-.7,0-.7-.2-1.4-.2-.7,0-.7-.2-1.4-.2-.7,0-.7,0-1.4,0-.7,0-.7-.3-1.4-.3-.7,0-.7.5-1.4.5-.7,0-.7-.3-1.4-.3-.7,0-.7.6-1.4.6-.7,0-.7-.5-1.4-.5-.7,0-.7.2-1.4.2-.7,0-.7-.1-1.4-.1-.7,0-.8-.5-1.5-.2-.3.1,0,.7,0,.7-.5,0-.9-1.1-1.4-1.3-.5-.2-1.2.1-1.6-.2-.4-.3-.3-1.1-.6-1.5-.3-.4-1.2-.5-1.3-1-.2-.5.2-1.1.2-1.6,0-.5-.4-1.1-.2-1.6.2-.5.7-.8,1-1.3.3-.4,1-.4,1.4-.7.4-.3.7-.6,1.2-.8.5-.2.9-.6,1.4-.6.7,0,.7-.6,1.4-.6.7,0,.7,0,1.4,0,.7,0,.7.8,1.4.8.7,0,.7,0,1.4,0,.7,0,.7-.2,1.4-.3.7,0,.7-.1,1.4-.1.7,0,.7,0,1.4,0s.7-.1,1.4-.1.7,0,1.4,0c.7,0,.7.6,1.4.6.7,0,.7-.7,1.4-.7.7,0,.7.4,1.4.4.7,0,.7-.4,1.4-.4.7,0,.7.6,1.4.6.7,0,.7-.2,1.4-.2.7,0,.7-.5,1.4-.5.7,0,.7.8,1.4.8.7,0,.7.3,1.4.3.7,0,.7-.8,1.4-.8.7,0,.7,0,1.4,0,.7,0,.7.2,1.4.2.7,0,.7.4,1.4.4.7,0,.7.2,1.4.2.7,0,.7-.6,1.4-.6.7,0,.7.7,1.4.7.7,0,.7-.6,1.4-.6.7,0,.7.3,1.4.3.7,0,.7-.6,1.4-.6.7,0,.7.5,1.4.5.7,0,.7.4,1.4.4.7,0,.7-1,1.4-1,.7,0,.7.2,1.4.2.7,0,.7.7,1.4.7.7,0,.7-.4,1.4-.4.7,0,.7,0,1.4,0,.7,0,.7-.7,1.4-.7.7,0,.7.8,1.4.8.7,0,.7-.9,1.4-.9.7,0,.7.6,1.4.6.7,0,.7-.6,1.4-.6.7,0,.7,0,1.4,0s.7.6,1.4.6c.7,0,.7,0,1.4,0,.7,0,.7,0,1.4,0,.7,0,.7,0,1.4,0,.7,0,.7.4,1.4.4.7,0,.7-1.1,1.4-1.1.7,0,.7.5,1.4.5.7,0,.7,0,1.4,0,.7,0,.7-.1,1.4-.1.7,0,.7-.3,1.4-.3.7,0,.7-.1,1.4-.1.7,0,.7.4,1.4.4.7,0,.7.7,1.4.7.7,0,.7-.4,1.4-.4.7,0,.7.1,1.4.1.7,0,.7-.8,1.4-.8.7,0,.7.7,1.4.7.7,0,.7,0,1.4,0,.7,0,.7,0,1.4,0,.7,0,.7-.6,1.4-.6s.7.2,1.4.2c.7,0,.7.6,1.4.6.7,0,.7-.4,1.4-.4.7,0,.7-.2,1.4-.2.7,0,.7-.2,1.4-.2.7,0,.7-.3,1.4-.3.7,0,.7,1.1,1.4,1.1.7,0,.7-1.1,1.4-1.1.7,0,.7,0,1.4,0,.7,0,.7.5,1.4.4.7,0,.7-.2,1.4-.2.7,0,.7-.2,1.4-.2.7,0,.7.9,1.4.9.7,0,.7-.7,1.4-.7.7,0,.7.8,1.4.8.7,0,.7-.7,1.4-.7.7,0,.7.7,1.4.7.7,0,.7-1,1.4-1,.7,0,.7,0,1.4,0,.7,0,.7.8,1.4.8.7,0,.7-.6,1.4-.6.7,0,.7.6,1.4.6.7,0,.7,0,1.4,0,.7,0,.7-.7,1.4-.7.7,0,.7,0,1.4,0,.7,0,.7-.5,1.4-.5.7,0,.7.3,1.4.3.7,0,.7.5,1.4.5.7,0,.7.3,1.4.3.7,0,.7-.7,1.4-.7.7,0,.7-.2,1.4-.2.7,0,.7,1,1.4,1,.7,0,.7-.8,1.4-.8.7,0,.7.2,1.4.2.7,0,.7-.6,1.4-.6.7,0,.7.5,1.4.5.7,0,.7-.6,1.4-.6.7,0,.7.5,1.4.5.7,0,.7.2,1.4.2.7,0,.7-.5,1.4-.5.7,0,.7.4,1.4.4.7,0,.7-.6,1.4-.6.7,0,.7.4,1.4.4.7,0,.7.6,1.4.6.7,0,.7.1,1.4.1.7,0,.7-.6,1.4-.6.7,0,.7-.5,1.4-.5.7,0,.7.8,1.4.8.7,0,.7-.7,1.4-.7.7,0,.7.5,1.4.5.7,0,.7.2,1.4.2.7,0,.7,0,1.4,0,.7,0,.7-.7,1.4-.7.7,0,.7,0,1.4,0,.7,0,.7,1,1.4,1,.7,0,.7-1,1.4-1,.7,0,.7.3,1.4.3.7,0,.7-.4,1.4-.4.7,0,.7,1.2,1.4,1.2.7,0,.7-.3,1.4-.3.7,0,.7-.6,1.4-.6.7,0,.7.9,1.4.9.7,0,.7-.9,1.4-.9.7,0,.7,0,1.4,0,.7,0,.7.2,1.4.2.7,0,.7.7,1.4.7.7,0,.7,0,1.4,0,.7,0,.7.2,1.4.2.7,0,.7-1,1.4-1,.7,0,.7.2,1.4.2.7,0,.7,0,1.4,0,.7,0,.7,0,1.4,0,.7,0,.7-.2,1.4-.2.7,0,.7.6,1.4.6.7,0,.7-.5,1.4-.5.7,0,.7.3,1.4.3.7,0,.7-.8,1.4-.8.7,0,.7.4,1.5.4.7,0,.7.7,1.5.7.5,0,1-.4,1.5-.4.5,0,.9-.6,1.4-.7.5,0,1.1.5,1.6.4.5-.1.8-.6,1.3-.8.5-.2.9-.5,1.3-.7.4-.2.8-.5,1.2-.8.4-.3,1.2-.1,1.5-.4.4-.3.4-1.1.7-1.4.3-.3.6-.8.9-1.2.3-.4,1.2-.4,1.4-.8.3-.4-.4-1.4-.1-1.8.2-.4,1-.6,1.2-1,.2-.5.6-.8.8-1.3.1-.5.4-1,.5-1.4,0-.5,0-1,0-1.5,0-.5-.6-1-.6-1.5s.7-.7.7-1.4-.8-.7-.8-1.4.3-.7.3-1.4.6-.7.6-1.4-.8-.7-.8-1.4.4-.7.4-1.4-.1-.7-.1-1.4.6-.7.6-1.4,0-.7,0-1.4-1-.7-1-1.4.6-1,.6-1.5c0-.5-.7-.9-.8-1.3,0-.5.1-1,0-1.5-.1-.5.4-1.2.2-1.6-.2-.5-1-.6-1.2-1.1-.2-.4-.2-1.1-.4-1.5-.3-.4-1.1-.4-1.5-.7-.3-.4,0-1.3-.4-1.7-.3-.3-1.2-.2-1.6-.5-.4-.3-.9-.4-1.3-.7-.4-.3-.6-.9-1-1.1-.4-.2-1-.1-1.5-.3-.5-.2-.7-.8-1.2-.9-.5-.1-1,0-1.5-.1-.5,0-.9-.7-1.4-.8-.5,0-1,.2-1.5.2-.7,0-.7-.2-1.4-.2s-.7-.3-1.4-.3-.7,1-1.4,1-.7-.2-1.4-.2-.7-.5-1.4-.5-.7.3-1.4.3-.7.4-1.4.4-.7-.6-1.4-.6-.7.3-1.4.3-.7.3-1.4.3-.7-.1-1.4-.1-.7-.4-1.4-.4-.7,0-1.4,0-.7.3-1.4.3-.7.4-1.4.4-.7,0-1.4,0-.7-.5-1.4-.5-.7.1-1.4.1-.7-.2-1.4-.2-.7.3-1.4.3-.7-.6-1.4-.6-.7.3-1.4.3-.7-.1-1.4-.1-.7.8-1.4.8-.7-.1-1.4-.1-.7-.8-1.4-.8-.7.5-1.4.5-.7-.3-1.4-.3-.7,0-1.4,0-.7.9-1.4.9-.7-.5-1.4-.5-.7.5-1.4.5-.7-.2-1.4-.2-.7-.7-1.4-.7-.7.5-1.4.5-.7.2-1.4.2-.7-.7-1.4-.7-.7.5-1.4.5-.7,0-1.4,0-.7-.5-1.4-.5-.7,0-1.4,0-.7.7-1.4.7-.7,0-1.4,0-.7-.1-1.4-.1-.7.3-1.4.3-.7,0-1.4,0-.7-.1-1.4-.1-.7-.1-1.4-.1-.7-.6-1.4-.6-.7.3-1.4.3-.7.9-1.4.9-.7-.4-1.4-.4-.7-.4-1.4-.4-.7,0-1.4,0-.7.2-1.4.2-.7.5-1.4.5-.7-.6-1.4-.6-.7-.6-1.4-.6-.7.5-1.4.5-.7.7-1.4.7-.7-.6-1.4-.6-.7.2-1.4.2-.7.1-1.4.1-.7,0-1.4,0-.7-.7-1.4-.7-.7,0-1.4,0-.7-.1-1.4-.1-.7.6-1.4.6-.7-.3-1.4-.3-.7.4-1.4.4-.7.3-1.4.3-.7-.2-1.4-.2-.7.2-1.4.2-.7-.6-1.4-.6-.7.7-1.4.7-.7-.5-1.4-.5-.7.3-1.4.3-.7-.7-1.4-.7-.7.4-1.4.4-.7.5-1.4.5-.7-1-1.4-1-.7.8-1.4.8-.7-.6-1.4-.6-.7.7-1.4.7-.7-.7-1.4-.7-.7-.1-1.4-.1-.7,1-1.4,1-.7-.4-1.4-.4-.7,0-1.4,0-.7-.9-1.4-.9-.7.1-1.4.1-.7,1.1-1.4,1.1-.7-.1-1.4-.1-.7-.5-1.4-.5-.7.3-1.4.3-.7,0-1.4,0-.7-.1-1.4-.1-.7-.6-1.4-.6-.7,0-1.4,0-.7.6-1.4.6-.7.4-1.4.4-.7-.8-1.4-.8-.7,0-1.4,0-.7.4-1.4.4-.7-.3-1.4-.3-.7.2-1.4.2-.7-.3-1.4-.3-.7,1-1.4,1-.7-.4-1.4-.4-.7,0-1.4,0-.7-.5-1.4-.5-.7.6-1.4.6-.7-.2-1.4-.2-.7.3-1.4.3-.7-.6-1.4-.6-.7.4-1.4.4-.7-.7-1.4-.7-.7.8-1.4.8-.7-.6-1.4-.6-.7.4-1.4.4-.7.5-1.4.5-.7,0-1.4,0-.7-1-1.4-1-.7.8-1.4.8-.7-.1-1.4-.1-.7,0-1.4,0-.7-.4-1.4-.4-.7.1-1.4.1-.7-.4-1.4-.4-.7.5-1.4.5-.7,0-1.4,0-.7-.5-1.4-.5-.7,1.1-1.4,1.1-.7-.5-1.4-.5-.7-.5-1.4-.5-.7,1-1.4,1-.7-.4-1.4-.4-.7-.7-1.4-.7-.7,0-1.4,0-.7.5-1.4.5-1.2.5-1.7.4c-.5-.2-1.1-.5-1.5-.9-.4-.3-.7-.9-1.1-1.3-.3-.4-.6-1-.7-1.5-.2-.5-.5-1.1-.5-1.6s.8-1,.9-1.5c.2-.5.7-.7,1-1.1.3-.4.4-.9.8-1.2.4-.3.9-.4,1.4-.6.5-.2.9-1.1,1.4-1.1s.7.8,1.4.8.7,0,1.4,0,.7.2,1.4.2.7-.3,1.4-.3.7.1,1.4.1.7.3,1.4.3.7-.8,1.4-.8.7-.2,1.4-.2.7,1,1.4,1,.7-.3,1.4-.3.7-.8,1.4-.8.7.4,1.4.4.7-.2,1.4-.2.7,0,1.4,0,.7.2,1.4.2.7-.2,1.4-.2.7,0,1.4,0,.7.1,1.4.1.7.7,1.4.7.7,0,1.4,0,.7-.3,1.4-.3.7-.2,1.4-.2.7-.2,1.4-.2.7.4,1.4.4.7.3,1.4.3.7-.5,1.4-.5.7.8,1.4.8.7.2,1.4.2.7-.2,1.4-.2.7-.9,1.4-.9.7.9,1.4.9.7-.9,1.4-.9.7,0,1.4,0,.7.7,1.4.7.7,0,1.4,0,.7,0,1.4,0,.7-.9,1.4-.9.7,0,1.4,0,.7.1,1.4.1.7.3,1.4.3.7-.3,1.4-.3.7.2,1.4.2.7-.2,1.4-.2.7-.1,1.4-.1.7.5,1.4.5.7,0,1.4,0,.7.2,1.4.2.7,0,1.4,0,.7-.6,1.4-.6.7-.2,1.4-.2.7,0,1.4,0,.7.4,1.4.4.7.4,1.4.4.7.2,1.4.2.7-.5,1.4-.5.7-.4,1.4-.4.7.7,1.4.7.7-.5,1.4-.5.7.2,1.4.2.7.2,1.4.2.7-.7,1.4-.7.7.2,1.4.2.7-.5,1.4-.5.7,0,1.4,0,.7,0,1.4,0,.7,0,1.4,0,.7.1,1.4.1.7.9,1.4.9.7-.8,1.4-.8.7.3,1.4.3.7-.6,1.4-.6.7.8,1.4.8.7-.7,1.4-.7.7.6,1.4.6.7.3,1.4.3.7-.8,1.4-.8.7.8,1.4.8.7-.9,1.4-.9.7.1,1.4.1.7.4,1.4.4.7-.4,1.4-.4.7-.2,1.4-.2.7.7,1.4.7.7.3,1.4.3.7-1,1.4-1,.7,0,1.4,0,.7.8,1.4.8.7.3,1.4.3.7-.2,1.4-.2.7-.3,1.4-.3.7-.4,1.4-.4.7.5,1.4.5.7-.9,1.4-.9.7.5,1.4.5.7.5,1.4.5.7-.8,1.4-.8.7.1,1.4.1.7-.1,1.4-.1.7,0,1.4,0,.7,1,1.4,1,.7-1,1.4-1,.7.4,1.4.4.7.3,1.4.3.7-.5,1.4-.5.7-.2,1.4-.2.7.7,1.4.7.7-.5,1.4-.5.7.2,1.4.2.7-.3,1.4-.3.7,0,1.4,0,.7.5,1.4.5.7,0,1.4,0,.7.5,1.4.5.7,0,1.4,0,.7-.6,1.4-.6.7.3,1.4.3.7-.9,1.4-.9.7.2,1.4.2.7.4,1.4.4.7,0,1.4,0,.7.4,1.4.4.7-.4,1.4-.4.7,0,1.4,0,.7-.2,1.4-.2.7,0,1.4,0,.7.2,1.4.2.7-.5,1.4-.5.7.2,1.4.2.7-.2,1.4-.2.7,0,1.4,0,.7.9,1.4.9.7-.7,1.4-.7.7,0,1.4,0,.7-.1,1.4-.1.7.7,1.4.7.7-.3,1.4-.3.7.6,1.4.6.7-1.1,1.4-1.1.7.4,1.4.4.7-.4,1.4-.4.9-.2,1.4-.2c.5,0,1,.2,1.5.1.5,0,1.1.3,1.6.2.5-.1.7-1,1.1-1.2.5-.2,1.1,0,1.5-.2.4-.2.8-.5,1.3-.8.4-.3.7-.6,1.1-1,.4-.3.8-.5,1.2-.9.3-.3,1-.5,1.3-.9.3-.4-.2-1.4,0-1.8.3-.4.4-.8.7-1.3.2-.4.8-.7,1-1.1.2-.5,0-1,.2-1.5.1-.5.6-.8.7-1.3,0-.5.6-.9.6-1.4,0-.5-.7-1-.7-1.5,0-.7,1.1-.7,1.1-1.4s-.5-.7-.5-1.4.2-.7.2-1.4-.6-.7-.6-1.4.2-.7.2-1.4.1-.7.1-1.4.5-.7.5-1.4,0-.7,0-1.4-.2-.7-.2-1.4-.2-.7-.2-1.4.4-1,.4-1.5c0-.5-.1-1-.2-1.5,0-.5-.7-.8-.9-1.3-.1-.5-.3-.9-.4-1.4-.2-.5-.5-.8-.8-1.2-.2-.4,0-1.2-.2-1.6-.3-.4-1-.5-1.3-.9-.3-.4-.2-1.2-.6-1.5-.3-.3-.8-.6-1.2-1-.4-.3-1.3,0-1.7-.2-.4-.3-.8-.5-1.2-.7-.4-.2-.5-1.3-.9-1.5-.5-.2-1.2.3-1.6.1-.5-.1-1,.2-1.5,0-.5,0-.8-.8-1.3-.9-.5,0-1,0-1.5,0-.7,0-.7,0-1.4,0s-.7.6-1.4.6-.7-.8-1.4-.8-.7.5-1.4.5-.7,0-1.4,0-.7-.2-1.4-.2-.7.1-1.4.1-.7-.2-1.4-.2-.7.4-1.4.4-.7-.6-1.4-.6-.7.2-1.4.2-.7-.4-1.4-.4-.7.8-1.4.8-.7-.9-1.4-.9-.7,1-1.4,1-.7-1.1-1.4-1.1-.7,1-1.4,1-.7-.3-1.4-.3-.7.2-1.4.2-.7-.5-1.4-.5-.7,0-1.4,0-.7-.4-1.4-.4-.7,0-1.4,0-.7,0-1.4,0-.7.8-1.4.8-.7-.5-1.4-.5-.7-.2-1.4-.2-.7.6-1.4.6-.7-.4-1.4-.4-.7.1-1.4.1-.7.2-1.4.2-.7-.5-1.4-.5-.7,0-1.4,0-.7,1.2-1.4,1.2-.7-.2-1.4-.2-.7-.7-1.4-.7-.7.7-1.4.7-.7-.6-1.4-.6-.7.5-1.4.5-.7-.3-1.4-.3-.7.7-1.4.7-.7-.4-1.4-.4-.7,0-1.4,0-.7.2-1.4.2-.7-.9-1.4-.9-.7.7-1.4.7-.7-.4-1.4-.4-.7-.3-1.4-.3-.7,1.1-1.4,1.1-.7-.7-1.4-.7-.7.3-1.4.3-.7-.4-1.4-.4-.7-.2-1.4-.2-.7,0-1.4,0-.7.9-1.4.9-.7-.5-1.4-.5-.7.4-1.4.4-.7-.6-1.4-.6-.7.6-1.4.6-.7-.4-1.4-.4-.7.6-1.4.6-.7.1-1.4.1-.7-1-1.4-1-.7.5-1.4.5-.7,0-1.4,0-.7.4-1.4.4-.7,0-1.4,0-.7-.7-1.4-.7-.7-.1-1.4-.1-.7.2-1.4.2-.7-.2-1.4-.2-.7.5-1.4.5-.7-.4-1.4-.4-.7.5-1.4.5-.7-.6-1.4-.6-.7.2-1.4.2-.7-.2-1.4-.2-.7.5-1.4.5-.7-.2-1.4-.2-.7.1-1.4.1-.7-.1-1.4-.1-.7-.1-1.4-.1-.7-.4-1.4-.4-.7,1-1.4,1-.7-.7-1.4-.7-.7.6-1.4.6-.7-.7-1.4-.7-.7.8-1.4.8-.7-.9-1.4-.9-.7.6-1.4.6-.7-.2-1.4-.2-.7.6-1.4.6-.7-.6-1.4-.6-.7,0-1.4,0-.7.5-1.4.5-.7.2-1.4.2-.7-.4-1.4-.4-.7,0-1.4,0-.7-.5-1.4-.5-.7.1-1.4.1-.7.1-1.4.1-.7.6-1.4.6-.7-.5-1.4-.5-.7.2-1.4.2-.7.2-1.4.2-.7-.9-1.4-.9-.7,0-1.4,0-.7.4-1.4.4-.7,0-1.4,0-.7-.1-1.4-.1-.7,0-1.4,0-.7-.3-1.4-.3-.7.7-1.4.7-.7-.3-1.4-.3-.7-.3-1.4-.3-.7.8-1.4.8-.7,0-1.4,0-.7,0-1.4,0-.7-.4-1.4-.4-.7-.8-1.4-.8-.7.3-1.4.3-.7.4-1.4.4-.7,0-1.4,0-.7.4-1.4.4-.7-.5-1.4-.5-.7-.5-1.4-.5-.7.1-1.4.1-.7.7-1.4.7-.7-.5-1.4-.5-.7,0-1.4,0-.7.5-1.4.5-.7,0-1.4,0-.7-.5-1.4-.5-.7-.5-1.4-.5-.7.4-1.4.4-.7.1-1.4.1-.7-.2-1.4-.2-.7.8-1.4.8-.7-.7-1.4-.7-.7.1-1.4.1-.7-.2-1.4-.2-.7.2-1.4.2-.7-.2-1.4-.2-.7.4-1.4.4-.7-.3-1.4-.3-.7-.4-1.4-.4-.7.3-1.4.3-.7-.4-1.4-.4-.7.5-1.4.5-.7-.5-1.4-.5-.7,0-1.4,0-.7,1-1.4,1-.7-.9-1.4-.9-.7,0-1.4,0-.7.6-1.4.6-.7-.2-1.4-.2-.7,0-1.4,0-.7.3-1.4.3-.7-.2-1.4-.2-.7.3-1.4.3-.7,0-1.4,0-.7-.8-1.4-.8-.7,0-1.4,0-.7.6-1.4.6-.7.4-1.4.4-.7,0-1.4,0-.7-.2-1.4-.2-.7.2-1.4.2-.7.1-1.4.1-.7-.4-1.4-.4-.7,0-1.4,0-.7-.1-1.4-.1-.7-.4-1.4-.4-.7,0-1.4,0-.7-.1-1.4-.1-.7.5-1.4.5-.7,0-1.4,0-.7,0-1.4,0-.7.2-1.4.2-.7.2-1.4.2-.7-.6-1.4-.6-.7.9-1.4.9-.7-.2-1.4-.2-.7-.2-1.4-.2-.7-.2-1.4-.2-.7-.1-1.4-.1-.7.5-1.4.5-.7.2-1.4.2-.7-1-1.4-1-.7.6-1.4.6-.7-.5-1.4-.5-.7.6-1.4.6-.7.4-1.4.4-.7,0-1.4,0-.7-1.1-1.4-1.1-.7,1-1.4,1-.7-.8-1.4-.8-.7.6-1.4.6-.7-.7-1.4-.7-.7.5-1.4.5-.7-.7-1.4-.7-.7.5-1.4.5-.7.6-1.4.6-.7-.2-1.4-.2-.7-.8-1.4-.8-.7.7-1.4.7-.7-.4-1.4-.4-.7.3-1.4.3-.7-.3-1.4-.3-.7,0-1.4,0-.7,0-1.4,0-.7.5-1.4.5-.7-.4-1.4-.4-.7,0-1.4,0-.7.3-1.4.3-.7.4-1.4.4-.7-.4-1.4-.4-.7-.3-1.4-.3-.7-.2-1.4-.2-.7.7-1.4.7-.7-.8-1.4-.8-.7.5-1.4.5-.7-.4-1.4-.4-.7.8-1.4.8-.7-.5-1.4-.5-.7-.5-1.4-.5-.7,1-1.4,1-.7-1-1.4-1-.7.4-1.4.4-.7.3-1.4.3-.7,0-1.4,0-.7-.7-1.4-.7-.7,1-1.4,1-.7,0-1.4,0-.7-.4-1.5-.4-.7.2-1.4.2-.7,0-1.5,0-.7-.9-1.5-.9-.7.3-1.5.3-1,0-1.5.1c-.5,0-.9.4-1.4.5-.2,0-.5.1-.7.2,38.8,87.7,126.6,148.9,228.7,148.9s99.1-15.5,138.8-42.1c-.2.1-.4.3-.9.3Z"/>
</svg>