<?xml version="1.0" encoding="UTF-8"?>
<svg id="_アイコン" data-name="アイコン" xmlns="http://www.w3.org/2000/svg" version="1.1" viewBox="0 0 500 500">
  <defs>
    <style>
      .cls-1 {
        fill: #fff;
        stroke-width: 0px;
      }
    </style>
  </defs>
  <path class="cls-1" d="M172.3,209.2c-.7,0-.7-.6-1.4-.6s-.7.2-1.4.2-.7.6-1.4.6-.7-1.1-1.4-1.1-.7,0-1.4,0-.7.2-1.4.2-.7.3-1.4.3-.7.6-1.4.6-.7-.6-1.4-.6-.7,0-1.4,0-.7.7-1.4.7-.7-.8-1.4-.8-.7,0-1.4,0-.7.5-1.4.5-.7-.5-1.4-.5-.7.7-1.4.7-.7-.6-1.4-.6-.7-.3-1.4-.3-.7.2-1.4.2-.7,0-1.4,0-.7.6-1.4.6-.7-.3-1.4-.3-.7.6-1.4.6-.7-.1-1.4-.1-.7-.3-1.4-.3-.7-.4-1.4-.4-.7.7-1.4.7-.7,0-1.4,0-.7-.7-1.4-.7-.7,0-1.4,0-.7-.1-1.4-.1-.7.2-1.4.2-.7.2-1.4.2-.7-.6-1.4-.6-.7,1-1.4,1-.7-.5-1.4-.5-.7.4-1.4.4-.7,0-1.4,0-.7-.6-1.4-.6-.7.2-1.4.2-.7-.3-1.4-.3-.7.7-1.4.7-.7,0-1.4,0-.7.3-1.4.3-.7-.8-1.4-.8-.7.7-1.4.7-.7-.5-1.4-.5-.7,0-1.4,0-.7.2-1.4.2-.7-.5-1.4-.5-.7.8-1.4.8-.7,0-1.4,0-.7-.6-1.4-.6-.7-.3-1.4-.3-.7,1-1.4,1-.7,0-1.4,0-.7-.1-1.4-.1-.7-.9-1.4-.9-.7,0-1.4,0-.7.6-1.4.6-.7,0-1.4,0-.7-.4-1.4-.4-.7.2-1.4.2-.7,0-1.4,0-.7.4-1.4.4-.7-.3-1.4-.3-.7-.3-1.4-.3-.7,0-1.4,0-.7-.2-1.4-.2-.7.3-1.4.3-.7.4-1.4.4-.7.1-1.4.1-.7,0-1.4,0-.7.1-1.4.1-.7,0-1.4,0-.7-.6-1.4-.6-.7.2-1.4.2-.7,0-1.4,0-.7,0-1.4,0-.7.7-1.4.7-.7-.5-1.4-.5-.7.5-1.4.5-.7-.5-1.4-.5-.7.5-1.4.5-.7-.5-1.4-.5-.7-.5-1.4-.5-.7.4-1.4.4-.7-.5-1.4-.5-.7.3-1.4.3-.7-.3-1.4-.3-.7,1-1.4,1-.7-.4-1.4-.4-.7-.3-1.4-.3-.7.7-1.4.7-.7-1.1-1.4-1.1-.7.5-1.4.5-.7,0-1.4,0-.7-.3-1.4-.3-.7.3-1.4.3-.7.3-1.4.3-.7-.4-1.4-.4-.7,0-1.4,0-.7.9-1.4.9-.7-.5-1.4-.5-.7.2-1.4.2-.7-.5-1.4-.5-.7.6-1.4.6-.7.1-1.4.1-.7-1-1.4-1-.7-.1-1.4-.1-.7.2-1.4.2-.7-.1-1.4-.1-.7.8-1.4.8-.7-.5-1.4-.5-.7.6-1.4.6-.7-.4-1.4-.4-.7.3-1.4.3-.3,0-.4,0c-2.2,13.3-3.4,27-3.4,40.9s0,3.4,0,5.1c.1,0,.3,0,.6,0,.7,0,.7-.6,1.4-.6s.7.5,1.4.5.7.3,1.4.3.7-.5,1.4-.5.7.3,1.4.3.7-.8,1.4-.8.7,1.1,1.4,1.1.7,0,1.4,0,.7-.5,1.4-.5.7,0,1.4,0,.7.4,1.4.4.7-.7,1.4-.7.7-.1,1.4-.1.7.8,1.4.8.7-.3,1.4-.3.7,0,1.4,0,.7,0,1.4,0,.7.4,1.4.4.7,0,1.4,0,.7-.7,1.4-.7.7.1,1.4.1.7-.4,1.4-.4.7,0,1.4,0,.7.5,1.4.5.7-.6,1.4-.6.7,0,1.4,0,.7.3,1.4.3.7.7,1.4.7.7-.5,1.4-.5.7.2,1.4.2.7.1,1.4.1.7-.1,1.4-.1.7-.3,1.4-.3.7-.3,1.4-.3.7.3,1.4.3.7-.2,1.4-.2.7,0,1.4,0,.7-.1,1.4-.1.7.2,1.4.2.7.2,1.4.2.7-.5,1.4-.5.7.4,1.4.4.7,0,1.4,0,.7-.2,1.4-.2.7.5,1.4.5.7-.4,1.4-.4.7-.3,1.4-.3.7,1,1.4,1,.7-.8,1.4-.8.7.6,1.4.6.7-.8,1.4-.8.7.3,1.4.3.7.5,1.4.5.7-.6,1.4-.6.7.3,1.4.3.7-.4,1.4-.4.7.4,1.4.4.7.4,1.4.4.7,0,1.4,0,.7-.2,1.4-.2.7-.7,1.4-.7.7.7,1.4.7.7.1,1.4.1.7-.1,1.4-.1.7-.4,1.4-.4.7-.1,1.4-.1.7.2,1.4.2.7-.3,1.4-.3.7.3,1.4.3.7-.5,1.4-.5.7.6,1.4.6.7-.6,1.4-.6.7.6,1.4.6.7-.6,1.4-.6.7.5,1.4.5.7.3,1.4.3.7.1,1.4.1.7-.4,1.4-.4.7-.3,1.4-.3.7,0,1.4,0,.7,0,1.4,0,.7.3,1.4.3.7,0,1.4,0,.7.6,1.4.6.7-.7,1.4-.7.7.1,1.4.1.7-.3,1.4-.3.7.5,1.4.5.7-.6,1.4-.6.7,0,1.4,0,.7.9,1.4.9.7.2,1.4.2.7-.5,1.4-.5.7-.6,1.4-.6.7.4,1.4.4.7,0,1.4,0,.7.6,1.4.6.7-.8,1.4-.8.7.2,1.4.2.7-.3,1.4-.3.7.8,1.4.8.7-.2,1.4-.2.7-.2,1.4-.2.7.2,1.4.2.7,0,1.4,0,.7.2,1.4.2.7-.7,1.4-.7.7.9,1.4.9.7-.4,1.4-.4.7-.2,1.4-.2.7-.3,1.4-.3.7.7,1.4.7.7,0,1.4,0,.7-.4,1.4-.4.7.5,1.4.5.7-.2,1.4-.2.7-.3,1.4-.3.7.4,1.4.4.7-.5,1.4-.5.7-.1,1.4-.1.7.5,1.4.5.7-.8,1.4-.8.7,1,1.4,1,.7-.4,1.4-.4.7-.5,1.4-.5.7.6,1.4.6.7,0,1.4,0,.7-.6,1.4-.6.7.4,1.4.4.7.6,1.4.6.7,0,1.4,0,.7-.3,1.4-.3.7,0,1.4,0,.7,0,1.4,0,.7-.3,1.4-.3.7.7,1.4.7.7-.6,1.4-.6.7.4,1.4.4.7-.6,1.4-.6.7.7,1.4.7.7-.7,1.4-.7.7.5,1.4.5.7-.7,1.4-.7.7.2,1.4.2.7.5,1.4.5.7-.3,1.4-.3h1.4c.7,0,.7,0,1.4,0s.7-.4,1.4-.4.7.4,1.4.4.7-.3,1.4-.3.7.8,1.4.8.7-.7,1.4-.7.7.6,1.4.6.7,0,1.4,0,.7-.3,1.4-.3.7-.4,1.4-.4.7.8,1.4.8.7.2,1.4.2.7-.1,1.4-.1.7-.6,1.4-.6.7,0,1.4,0,.7.2,1.4.2.7-.6,1.4-.6.7,0,1.4,0,.7,0,1.4,0,.7.3,1.4.3.7.3,1.4.3.7-.2,1.4-.2.7-.3,1.4-.3.7.8,1.4.8.7-.8,1.4-.8.7.7,1.4.7.7,0,1.4,0,.7,0,1.4,0,.7-1,1.4-1,.7.3,1.4.3.7-.3,1.4-.3.7.4,1.4.4.7-.1,1.4-.1.7.2,1.4.2.7.3,1.4.3.7-.5,1.4-.5.7.2,1.4.2.7,0,1.4,0,.7.2,1.4.2.7-.7,1.4-.7.7,0,1.4,0,.7.9,1.4.9.7-.2,1.4-.2.7-.6,1.4-.6.7,1,1.4,1,.7-.8,1.4-.8.7-.2,1.4-.2.7.9,1.4.9.7.1,1.4.1.7-.2,1.4-.2.7-.5,1.4-.5.7.2,1.4.2.7-.2,1.4-.2.7-.4,1.4-.4.7.6,1.4.6.7-.3,1.4-.3.7.4,1.4.4.7-.4,1.4-.4.7.1,1.4.1.7.6,1.4.6.7-.9,1.4-.9.7.9,1.4.9.7,0,1.4,0,.7-.3,1.4-.3.7-.4,1.4-.4.7-.2,1.4-.2.7.6,1.4.6.7.2,1.4.2.7-.9,1.4-.9.7,1,1.4,1,.7-.2,1.4-.2.7-.7,1.4-.7.7.8,1.4.8.7-.9,1.4-.9.7.3,1.4.3.7.1,1.4.1.7.1,1.4.1.7.7,1.4.7.7-.5,1.4-.5.7.4,1.4.4.7-.5,1.4-.5.7-.4,1.4-.4.7.5,1.4.5.7-.1,1.4-.1.7,0,1.4,0,.7.2,1.4.2.7-.3,1.4-.3.7,0,1.4,0,.7.3,1.4.3.7,0,1.4,0,.7-.7,1.4-.7.7.5,1.4.5.7-.8,1.4-.8.7.4,1.4.4.7-.1,1.4-.1.7.4,1.4.4.7-.7,1.5-.7.7,1,1.4,1,.7-.5,1.5-.5.7.3,1.5.3.7-.5,1.5-.5.9-.3,1.4-.3c.5,0,1,.2,1.5.1.5,0,1.1.3,1.6.2.5-.1.9-.5,1.3-.7.5-.2,1-.2,1.5-.4.4-.2.9-.5,1.3-.7.4-.3.8-.7,1.1-1,.4-.3.3-1.1.6-1.5.3-.3,1.2-.2,1.6-.6.3-.4.1-1.1.4-1.6.3-.4.9-.6,1.1-1.1.2-.4.7-.8.9-1.2.2-.5-.1-1.1,0-1.6.1-.5,0-1,0-1.5,0-.5.7-.9.7-1.4,0-.5-.2-1-.2-1.5,0-.7.2-.7.2-1.5s-.1-.7-.1-1.4.5-.7.5-1.4,0-.7,0-1.5-.5-.7-.5-1.4-.4-.7-.4-1.5,0-.7,0-1.5.2-.7.2-1.5.5-.7.5-1.5,0-.7,0-1.5-.3-.7-.3-1.5-.6-.9-.6-1.4c0-.5,0-.9-.2-1.4,0-.5-.2-.9-.4-1.4-.1-.5-.1-1-.3-1.4-.2-.5-.2-1-.5-1.4-.2-.4,0-1.2-.2-1.6-.3-.4-1.2-.4-1.5-.7-.3-.4-.7-.7-1-1-.3-.3-.6-.7-1-1.1-.4-.3-.5-1-.9-1.3-.4-.3-1-.2-1.4-.5-.4-.2-.7-.8-1.2-1-.5-.2-1-.2-1.5-.3-.5-.1-1,.2-1.5,0-.5,0-.9-.8-1.4-.9-.5,0-1,.4-1.5.4-.7,0-.7-.5-1.4-.5s-.7,1-1.4,1-.7-.8-1.4-.8-.7.7-1.4.7-.7,0-1.4,0-.7-.2-1.4-.2-.7-.3-1.4-.3-.7.4-1.4.4-.7-.4-1.4-.4-.7.2-1.4.2-.7.2-1.4.2-.7,0-1.4,0-.7.1-1.4.1-.7-.9-1.4-.9-.7-.2-1.4-.2-.7,1.1-1.4,1.1-.7-.5-1.4-.5-.7.3-1.4.3-.7-.6-1.4-.6-.7.2-1.4.2-.7-.1-1.4-.1-.7-.4-1.4-.4-.7,1.1-1.4,1.1-.7-.8-1.4-.8-.7.6-1.4.6-.7-.3-1.4-.3-.7.3-1.4.3-.7-.7-1.4-.7-.7.7-1.4.7-.7-.2-1.4-.2-.7-.2-1.4-.2-.7.3-1.4.3-.7-.8-1.4-.8-.7.5-1.4.5-.7.6-1.4.6-.7-.1-1.4-.1-.7,0-1.4,0-.7-.3-1.4-.3-.7-.4-1.4-.4-.7.2-1.4.2-.7-.4-1.4-.4-.7,0-1.4,0-.7,0-1.4,0-.7.4-1.4.4-.7.4-1.4.4-.7.2-1.4.2-.7,0-1.4,0-.7-.4-1.4-.4-.7-.7-1.4-.7-.7.9-1.4.9-.7,0-1.4,0-.7-.9-1.4-.9-.7.5-1.4.5-.7,0-1.4,0-.7.5-1.4.5-.7-.3-1.4-.3-.7-.2-1.4-.2-.7.4-1.4.4-.7-.8-1.4-.8-.7.7-1.4.7-.7-.5-1.4-.5-.7.4-1.4.4-.7-.7-1.4-.7-.7,0-1.4,0-.7.6-1.4.6-.7.1-1.4.1-.7-.7-1.4-.7-.7.7-1.4.7-.7-.9-1.4-.9-.7,1.1-1.4,1.1-.7-1.1-1.4-1.1-.7.2-1.4.2-.7-.2-1.4-.2-.7.3-1.4.3-.7.7-1.4.7-.7-.4-1.4-.4-.7.3-1.4.3-.7-1-1.4-1-.7.4-1.4.4-.7,0-1.4,0-.7.3-1.4.3-.7,0-1.4,0-.7-.3-1.4-.3-.7-.3-1.4-.3-.7.1-1.4.1-.7.8-1.4.8-.7,0-1.4,0-.7-.9-1.4-.9-.7.9-1.4.9-.7-.2-1.4-.2-.7-.3-1.4-.3-.7,0-1.4,0-.7-.2-1.4-.2-.7.2-1.4.2-.7.7-1.4.7-.7,0-1.4,0-.7-.8-1.4-.8-.7.6-1.4.6-.7-.6-1.4-.6-.7.2-1.4.2-.7,0-1.4,0-.7,0-1.4,0-.7.3-1.4.3-.7-.1-1.4-.1-.7,0-1.4,0-.7.5-1.4.5-.7-.3-1.4-.3-.7-.5-1.4-.5-.7.5-1.4.5-.7-.6-1.4-.6-.7-.1-1.4-.1-.7,1.1-1.4,1.1-.7-.9-1.4-.9-.7.6-1.4.6-.7-.8-1.4-.8-.7-.2-1.4-.2-.7.6-1.4.6-.7-.2-1.4-.2-.7.3-1.4.3-.7,0-1.4,0-.7,0-1.4,0-.7-.1-1.4-.1-.7.6-1.4.6-.7-.6-1.4-.6-.7-.2-1.4-.2-.7.6-1.4.6-.7-.4-1.4-.4-.7-.5-1.4-.5-.7,1-1.4,1Z"/>
  <path class="cls-1" d="M25.1,143.3c.7,0,.7-.8,1.4-.8s.7.2,1.4.2.7-.3,1.4-.3.7.6,1.4.6.7-.2,1.4-.2.7-.7,1.4-.7.7.9,1.4.9.7-.6,1.4-.6.7,0,1.4,0,.7,0,1.4,0,.7-.5,1.4-.5.7.2,1.4.2.7.2,1.4.2.7.5,1.4.5.7-1,1.4-1,.7,1,1.4,1,.7,0,1.4,0,.7-.5,1.4-.5.7.5,1.4.5.7-.6,1.4-.6.7,0,1.4,0,.7.4,1.4.4.7,0,1.4,0,.7-.4,1.4-.4.7.7,1.4.7.7-.6,1.4-.6.7-.2,1.4-.2.7.3,1.4.3.7,0,1.4,0,.7.2,1.4.2.7,0,1.4,0,.7,0,1.4,0,.7-.1,1.4-.1.7,0,1.4,0,.7,0,1.4,0,.7,0,1.4,0,.7.6,1.4.6.7-.2,1.4-.2.7-.1,1.4-.1.7-.8,1.4-.8.7,1,1.4,1,.7-.5,1.4-.5.7.5,1.4.5.7-.5,1.4-.5.7,0,1.4,0,.7,0,1.4,0,.7,0,1.4,0,.7-.2,1.4-.2.7.5,1.4.5.7-.7,1.4-.7.7.1,1.4.1.7-.1,1.4-.1.7-.1,1.4-.1.7.1,1.4.1.7-.2,1.4-.2.7,1,1.4,1,.7-.2,1.4-.2.7-.2,1.4-.2.7-.7,1.4-.7.7.8,1.4.8.7-.1,1.4-.1.7-.4,1.4-.4.7.1,1.4.1.7.6,1.4.6.7-.2,1.4-.2.7-.9,1.4-.9.7.4,1.4.4.7,0,1.4,0,.7,0,1.4,0,.7-.4,1.4-.4.7.7,1.4.7.7,0,1.4,0,.7.2,1.4.2.7-.9,1.4-.9.7.1,1.4.1.7.3,1.4.3.7-.3,1.4-.3.7,0,1.4,0,.7,0,1.4,0,.7.1,1.4.1.7,0,1.4,0,.7-.2,1.4-.2.7.9,1.4.9.7-.4,1.4-.4.7.3,1.4.3.7-.5,1.4-.5.7.4,1.4.4.7-.4,1.4-.4.7.4,1.5.4.7.3,1.4.3.7-.6,1.5-.6.7,0,1.5,0,.7-.4,1.5-.4,1,.9,1.5.8c.5,0,.9-.9,1.3-1,.5,0,1,0,1.4-.2.5-.1,1-.2,1.4-.4.5-.2.9-.3,1.4-.5.4-.2,1.1-.2,1.5-.4.4-.3,1-.4,1.3-.7.4-.3.5-1,.8-1.3.3-.3.5-.8.8-1.2.3-.4,1-.5,1.3-.9.3-.4.2-1,.4-1.5.2-.4.5-.9.7-1.3.2-.5,0-1,.2-1.5.1-.5,1-.8,1.1-1.3,0-.5-.4-1.1-.3-1.6,0-.5.3-1,.3-1.5,0-.7.1-.7.1-1.5s.2-.7.2-1.4-1.1-.7-1.1-1.4.8-.7.8-1.5-.1-.7-.1-1.4-.6-.7-.6-1.5.7-.7.7-1.5-.6-.7-.6-1.5.3-.7.3-1.5-.4-.7-.4-1.5.9-.7.9-1.5,0-1,0-1.5c0-.5-1.2-.8-1.3-1.3,0-.5.3-1.1.1-1.5-.1-.5-.7-.8-.9-1.2-.2-.5-.3-.9-.5-1.4-.2-.4-.5-.8-.8-1.2-.3-.4-.1-1.1-.4-1.5-.3-.4-.9-.5-1.2-.9-.3-.3-.9-.4-1.3-.7-.4-.3-.4-1.1-.8-1.4-.4-.3-1-.2-1.5-.4-.4-.2-.9-.2-1.4-.4-.5-.2-.6-1.3-1.1-1.4-.5-.1-1.1,0-1.6,0-.5,0-1-.3-1.5-.4-.5,0-1,.6-1.5.6-.7,0-.7-.5-1.4-.5s-.7-.3-1.4-.3-.7.1-1.4.1-.7.9-1.4.9-.7-.5-1.4-.5-.7.4-1.4.4-.7-.3-1.4-.3-.7.2-1.4.2-.7-.6-1.4-.6-.7.9-1.4.9-.7-.7-1.4-.7-.7.8-1.4.8-.7-.2-1.4-.2-.7-.6-1.4-.6-.7-.2-1.4-.2-.7.7-1.4.7-.7-.1-1.4-.1-.7-.6-1.4-.6-.7.2-1.4.2-.7,0-1.4,0-.7.8-1.4.8-.7-.4-1.4-.4-.7.4-1.4.4-.7-.8-1.4-.8-.7.3-1.4.3-.7,0-1.4,0-.7-.2-1.4-.2-.7.3-1.4.3-.7-.3-1.4-.3-.7-.4-1.4-.4-.7.6-1.4.6-.7.2-1.4.2-.7-.6-1.4-.6-.7.3-1.4.3-.7,0-1.4,0-.7,0-1.4,0-.7.7-1.4.7-.7-.7-1.4-.7-.7.2-1.4.2-.7-.3-1.4-.3-.7.4-1.4.4-.7-.3-1.4-.3-.7.5-1.4.5-.7-.1-1.4-.1-.7.3-1.4.3-.7-.2-1.4-.2-.7-.3-1.4-.3-.7-.5-1.4-.5-.7.2-1.4.2-.7-.2-1.4-.2-.7.8-1.4.8-.7.1-1.4.1-.7-.5-1.4-.5-.7.3-1.4.3-.7,0-1.4,0-.7,0-1.4,0-.7-.7-1.4-.7-.7.6-1.4.6-.7.2-1.4.2-.7-.6-1.4-.6-.7.7-1.4.7-.7-.5-1.4-.5-.7.4-1.4.4-.7-.1-1.4-.1-.7.3-1.4.3-.7-.8-1.4-.8-.7.8-1.4.8-.7.2-1.4.2-.7-.6-1.4-.6-.7.5-1.4.5-.7-.8-1.4-.8-.7.6-1.4.6-.7-.7-1.4-.7-.7.2-1.4.2-.2,0-.3,0c-11.1,14.2-20.6,29.7-28.4,46.1.3.2.5.5,1,.5Z"/>
  <path class="cls-1" d="M184,127.8c0,.5,1,.9,1,1.4,0,.5,0,.9,0,1.4,0,.5-.2,1,0,1.5.1.5.2,1,.4,1.4.2.5.2,1,.4,1.4.2.4.4.9.7,1.4.3.4,1.1.4,1.4.8.3.4.4.9.8,1.3.3.3.7.7,1.1,1,.4.3.6.8,1,1.1.4.3,1.1.1,1.5.4.4.2.7.8,1.2,1,.5.2,1,.2,1.5.3.5.1.9.4,1.4.5.5,0,1-.3,1.5-.3.5,0,.9.2,1.4.2.7,0,.7,0,1.4,0s.7-.4,1.4-.4.7.2,1.4.2.7.8,1.4.8.7-.9,1.4-.9.7,0,1.4,0,.7-.1,1.4-.1.7.5,1.4.5.7,0,1.4,0,.7-.3,1.4-.3.7-.3,1.4-.3.7.4,1.4.4.7,0,1.4,0,.7-.2,1.4-.2.7.5,1.4.5.7-.1,1.4-.1.7-.5,1.4-.5.7.3,1.4.3.7,0,1.4,0,.7.1,1.4.1.7.6,1.4.6.7-1,1.4-1,.7.9,1.4.9.7-.4,1.4-.4.7.2,1.4.2.7.3,1.4.3.7-.5,1.4-.5.7-.4,1.4-.4.7,0,1.4,0,.7.5,1.4.5.7-.3,1.4-.3.7.4,1.4.4.7-.6,1.4-.6.7.3,1.4.3.7-.1,1.4-.1.7.8,1.4.8.7-.5,1.4-.5.7-.3,1.4-.3.7-.1,1.4-.1.7-.2,1.4-.2.7.3,1.4.3.7.2,1.4.2.7.3,1.4.3.7-.3,1.4-.3.7.2,1.4.2.7-.6,1.4-.6.7.6,1.4.6.7.3,1.4.3.7-.6,1.4-.6.7-.2,1.4-.2.7.3,1.4.3.7.6,1.4.6.7-.6,1.4-.6.7.3,1.4.3.7-.3,1.4-.3.7.5,1.4.5.7-.8,1.4-.8.7.9,1.4.9.7-.6,1.4-.6.7-.2,1.4-.2.7.1,1.4.1.7.1,1.4.1.7-.3,1.4-.3.7.2,1.4.2.7-.1,1.4-.1.7.2,1.4.2.7.5,1.4.5.7-.2,1.4-.2.7-.5,1.4-.5.7,0,1.4,0,.7.9,1.4.9.7-.4,1.4-.4.7,0,1.4,0,.7-.3,1.4-.3.7.2,1.4.2.7-.2,1.4-.2.7.4,1.4.4.7-.8,1.4-.8.7.6,1.4.6.7-.4,1.4-.4.7.1,1.4.1.7,0,1.4,0,.7-.1,1.4-.1.7.8,1.4.8.7-.3,1.4-.3.7.4,1.4.4.7,0,1.4,0,.7,0,1.4,0,.7-.4,1.4-.4.7-.2,1.4-.2.7,0,1.4,0,.7.7,1.4.7.7,0,1.4,0,.7-.1,1.4-.1.7-.3,1.4-.3.7,0,1.4,0,.7.2,1.4.2.7-.5,1.4-.5.7.4,1.4.4.7.4,1.4.4.7-.8,1.4-.8.7-.2,1.4-.2.7.3,1.4.3.7.1,1.4.1.7,0,1.4,0,.7,0,1.4,0,.7-.7,1.4-.7.7.4,1.5.4.7,0,1.5,0,.7.5,1.5.5,1-.4,1.4-.5c.5,0,1,.2,1.5.1.5,0,1-.2,1.5-.3.5-.1.7-.8,1.2-1,.5-.2,1.3.4,1.7.1.4-.2.7-.8,1.1-1.1.4-.3.8-.6,1.2-.9.4-.3.8-.6,1.1-.9.3-.3.8-.6,1.1-1,.3-.4.2-1,.5-1.5.3-.4,1-.6,1.2-1,.2-.4-.2-1.2,0-1.6.2-.5.2-.9.4-1.4.1-.5.6-.8.7-1.3,0-.5-.3-1-.2-1.5,0-.5.2-.9.2-1.4,0-.7,0-.7,0-1.5s.8-.7.8-1.4-.7-.7-.7-1.4.8-.7.8-1.5-.3-.7-.3-1.4,0-.7,0-1.5,0-.7,0-1.5-.7-.7-.7-1.5.1-.7.1-1.5.2-.7.2-1.5,0-.7,0-1.5.3-1,.3-1.5c0-.5-.3-1-.4-1.4,0-.5.2-1.1,0-1.6-.1-.5-.9-.8-1.1-1.2-.2-.5-.1-1-.3-1.5-.2-.4-.3-1-.6-1.4-.3-.4-.6-.9-.9-1.2-.3-.4-.8-.6-1.2-1-.3-.3-1-.3-1.4-.6-.4-.3-1-.3-1.4-.5-.4-.3-.7-.7-1.1-.9-.4-.2-.8-.5-1.3-.7-.5-.2-1,0-1.5-.2-.5-.1-.9-.4-1.3-.5-.5,0-.8-1.1-1.3-1.2-.5,0-1,0-1.5,0-.7,0-.7,0-1.4,0s-.7.8-1.4.8-.7-.2-1.4-.2-.7-.3-1.4-.3-.7.4-1.4.4-.7,0-1.4,0-.7,0-1.4,0-.7.4-1.4.4-.7-1.2-1.4-1.2-.7.6-1.4.6-.7-.4-1.4-.4-.7.8-1.4.8-.7-.4-1.4-.4-.7-.2-1.4-.2-.7.7-1.4.7-.7-1-1.4-1-.7,1-1.4,1-.7-.6-1.4-.6-.7.1-1.4.1-.7.3-1.4.3-.7-.2-1.4-.2-.7.4-1.4.4-.7-.4-1.4-.4-.7-.2-1.4-.2-.7-.2-1.4-.2-.7.2-1.4.2-.7-.5-1.4-.5-.7-.1-1.4-.1-.7.9-1.4.9-.7-.9-1.4-.9-.7,1.1-1.4,1.1-.7-1.1-1.4-1.1-.7.5-1.4.5-.7-.3-1.4-.3-.7.3-1.4.3-.7-.1-1.4-.1-.7-.2-1.4-.2-.7-.1-1.4-.1-.7.9-1.4.9-.7-.4-1.4-.4-.7.2-1.4.2-.7-1-1.4-1-.7.7-1.4.7-.7-.7-1.4-.7-.7.2-1.4.2-.7.6-1.4.6-.7.1-1.4.1-.7-.8-1.4-.8-.7,1-1.4,1-.7-.6-1.4-.6-.7-.4-1.4-.4-.7.6-1.4.6-.7,0-1.4,0-.7-.6-1.4-.6-.7,1-1.4,1-.7,0-1.4,0-.7,0-1.4,0-.7-.4-1.4-.4-.7-.3-1.4-.3-.7,0-1.4,0-.7,0-1.4,0-.7.8-1.4.8-.7-.3-1.4-.3-.7.3-1.4.3-.7,0-1.4,0-.7,0-1.4,0-.7-.4-1.4-.4-.7-.7-1.4-.7-.7.3-1.4.3-.7.1-1.4.1-.7-.2-1.4-.2-.7.3-1.4.3-.7,0-1.4,0-.7.1-1.4.1-.7.1-1.4.1-.7-.6-1.4-.6-.7.4-1.4.4-.7-.3-1.4-.3-.7.6-1.4.6-.7-.8-1.4-.8-.7.8-1.4.8-.7-.3-1.4-.3-.7.2-1.4.2-.7.3-1.4.3-.7-.3-1.4-.3-.7-.6-1.4-.6-.7.9-1.4.9-.7-.2-1.4-.2-.7,0-1.4,0-.7-.7-1.4-.7-.7.9-1.4.9-.7-.2-1.4-.2-.7-.5-1.4-.5-.7.1-1.4.1-.7-.1-1.4-.1-.7-.3-1.4-.3-.7.5-1.4.5-.7.3-1.4.3-.7,0-1.4,0-.7-.2-1.4-.2-.7-.2-1.4-.2-.7-.3-1.4-.3-.7.8-1.4.8-.7-.5-1.4-.5-.7-.2-1.4-.2-.7-.2-1.4-.2-.7,1-1.4,1-.7,0-1.5,0-.8-.2-1.5-.3c-.8-.2-.7-.7-1.4-.7s-1,.5-1.5.6c-.5,0-1-.2-1.5,0-.5,0-.8,1-1.2,1.1-.5.1-.9.3-1.3.5-.5.2-1.4-.6-1.8-.4-.4.2-.8.6-1.2.9-.4.3-.5,1-.9,1.3-.4.3-.6.8-.9,1.1-.3.3-.9.5-1.2.9-.3.4-1,.5-1.3.9-.3.4-.2,1-.5,1.5-.2.4-.3,1-.5,1.4-.2.5-.8.8-1,1.2-.1.5.3,1.1.2,1.6,0,.5-.5.9-.5,1.4,0,.5.7,1,.7,1.5,0,.7,0,.7,0,1.5s-.4.7-.4,1.4.3.7.3,1.4-.7.7-.7,1.5.4.7.4,1.4-.1.7-.1,1.5.4.7.4,1.5-.5.7-.5,1.5,0,.7,0,1.5-.3.7-.3,1.5,0,.7,0,1.5Z"/>
  <path class="cls-1" d="M480.6,153.3c0,0-.1,0-.2,0-.7,0-.7-.1-1.4-.1s-.7-.5-1.4-.5-.7.4-1.4.4-.7-.7-1.4-.7-.7,0-1.4,0-.7.5-1.4.5-.7-.4-1.4-.4-.7-.1-1.4-.1-.7.2-1.4.2-.7-.2-1.4-.2-.7.7-1.4.7-.7.3-1.4.3-.7-.4-1.4-.4-.7.3-1.4.3-.7-.5-1.4-.5-.7.6-1.4.6-.7-.1-1.4-.1-.7-.3-1.4-.3-.7.1-1.4.1-.7-.5-1.4-.5-.7.4-1.4.4-.7-.4-1.4-.4-.7.9-1.4.9-.7-.2-1.4-.2-.7.1-1.4.1-.7-.6-1.4-.6-.7.2-1.4.2-.7.3-1.4.3-.7-.6-1.4-.6-.7,0-1.4,0-.7.7-1.4.7-.7-.2-1.4-.2-.7-.7-1.4-.7-.7,1-1.4,1-.7-.4-1.4-.4-.7.2-1.4.2-.7,0-1.4,0-.7-.4-1.4-.4-.7,0-1.4,0-.7-.3-1.4-.3-.7.8-1.4.8-.7-.7-1.4-.7-.7.5-1.4.5-.7-.1-1.4-.1-.7-.8-1.4-.8-.7.6-1.4.6-.7-.3-1.4-.3-.7.6-1.4.6-.7-.7-1.4-.7-.7.2-1.4.2-.7.5-1.4.5-.7-.8-1.4-.8-.7.9-1.5.9-.7-.1-1.4-.1-.7-.6-1.5-.6-.7.4-1.5.4-.7,0-1.5,0-1,0-1.5,0c-.5,0-.9.5-1.4.6-.5,0-1-.2-1.5,0-.5.1-.7.8-1.2,1-.5.2-.9.3-1.3.5-.4.2-1,.2-1.4.5-.4.3-1.2,0-1.6.4-.4.3-.4,1-.8,1.4s-.7.7-1,1.1c-.3.4-1,.5-1.3.9-.3.4,0,1.2-.2,1.6-.2.4-1,.6-1.2,1.1-.2.5-.5.9-.7,1.4-.1.5.7,1.2.6,1.7,0,.5-.5.9-.6,1.4,0,.5.4,1,.4,1.5,0,.7-.9.7-.9,1.4s.9.7.9,1.4-.6.7-.6,1.4.6.7.6,1.4-1.2.7-1.2,1.4.3.7.3,1.4,0,.7,0,1.4,0,.7,0,1.4.2.7.2,1.4-.2.7-.2,1.4,0,.7,0,1.4.5.7.5,1.4-.7.7-.7,1.4.3.7.3,1.4.2.7.2,1.4.1.7.1,1.4-.3.7-.3,1.4-.4.7-.4,1.4.3.7.3,1.4.7.7.7,1.4-.4.7-.4,1.4-.6.7-.6,1.4.4.7.4,1.4.4.7.4,1.4-.6.7-.6,1.4,0,.7,0,1.4.3.7.3,1.4-.6.7-.6,1.4.5.7.5,1.4.6.7.6,1.4-.3.7-.3,1.4-.7.7-.7,1.4.8.7.8,1.4-.2.7-.2,1.4-.7.7-.7,1.4.3.7.3,1.4.6.7.6,1.4,0,.7,0,1.4.2.7.2,1.4-.6.7-.6,1.4.7.7.7,1.4-1.1.7-1.1,1.4.5.7.5,1.4.2.7.2,1.4.2.7.2,1.4,0,.7,0,1.4-.6.7-.6,1.4.6.7.6,1.4-.6.7-.6,1.4.3.7.3,1.4.3.7.3,1.4.1.7.1,1.4-.8.7-.8,1.4-.3.7-.3,1.4.9.7.9,1.4,0,.7,0,1.4-.1.7-.1,1.4.3.7.3,1.4,0,.7,0,1.4,0,.7,0,1.4-.2.7-.2,1.4-.4.7-.4,1.4.1.7.1,1.4-.1.7-.1,1.4c0,.2-.4.6-.4.7,0,0,.6.2.6.3,0,0-.4.3-.4.4,0,.2-.5.2-.5.3,0,.2.5.6.5.7-.1.2-.4,0-.6.3-.1.2-.2.2-.3.4-.1.2.4.6.3.8,0,0-.7-.3-.9,0,0,0-.2.4-.2.4,0,0,0,.2,0,.3-.1,0-.5-.3-.5-.2-.1,0-.2.2-.4.3-.6.4-.6.4-1.2.8-.6.4-.4.7-1,1.1s-.7.2-1.3.5c-.6.4-.7.3-1.3.6s-.3.9-.9,1.2c-.6.4-.8.1-1.4.5-.6.4-.4.7-1,1.1-.6.4-.6.4-1.2.8-.6.4-.9,0-1.5.3-.6.4-.3.9-.9,1.2-.6.4-.9-.2-1.5.2-.6.4-.4.7-1,1.1-.6.4-1.1-.4-1.7,0s-.3.8-1,1.2c-.6.4-.8,0-1.5.4s-.4.7-1,1.1c-.6.4-.4.7-1,1.1-.6.4-.8,0-1.5.4-.6.4-.8,0-1.4.4-.6.4-.3.9-.9,1.2-.6.4-.7.2-1.4.5-.6.4-.2,1-.9,1.3-.6.4-1-.2-1.6.2-.6.4-.7.2-1.3.6-.6.4-.6.5-1.2.8-.6.4-.4.7-1,1.1-.6.4-.7.1-1.4.5-.6.4-.4.7-1,1.1s-.9-.1-1.5.3-.7.2-1.3.6c-.6.4-.5.6-1.1,1s-.8,0-1.4.5-.5.6-1.1.9c-.6.4-.3.9-.9,1.2-.6.4-.7.3-1.3.6-.6.4-.4.6-1.1,1s-1.1-.5-1.7,0c-.6.4-.2,1.1-.8,1.4s-1.1-.4-1.7,0-.2,1-.8,1.4c-.6.4-.8,0-1.4.4s-.3.8-.9,1.2-1.1-.4-1.7,0c-.6.4-.6.4-1.2.8s-.6.3-1.2.7,0,1.3-.7,1.7c-.6.4-1-.3-1.6,0s-.5.5-1.2.9-.6.3-1.3.7c-.6.4-.5.5-1.2.8-.6.4-.7.3-1.3.6-.6.4-.7.2-1.3.6-.6.4-.5.5-1.1.9-.6.4-.7.2-1.3.6-.6.4-.2,1-.8,1.4-.6.4-.9,0-1.5.3-.6.4-.9,0-1.5.3-.6.4-.6.5-1.2.8-.6.4-.2,1-.8,1.4-.6.4-.7.3-1.3.6-.6.4-.6.4-1.2.8-.6.4-.8,0-1.4.4-.6.4-.4.7-1,1.1-.6.4-.7.2-1.3.6-.6.4-.9,0-1.5.3-.6.4-.2,1.1-.8,1.5-.6.4-.6.4-1.2.8-.6.4-.6.4-1.2.8-.6.4-1-.2-1.6.2-.6.4-.6.3-1.2.7-.6.4-.7.3-1.3.6-.6.4-.6.4-1.2.8-.6.4-.7.3-1.3.6s-.4.7-1,1.1-.5.6-1.1,1c-.6.4-.5.5-1.1.9s-.6.4-1.2.8c-.6.4-.7.2-1.4.5-.6.4-1-.2-1.6.2-.6.4-.5.5-1.1.9-.6.4-.4.7-1,1.1-.6.4-.5.6-1.1,1-.6.4-.6.3-1.3.7s-.9,0-1.5.3c-.6.4-.3.8-.9,1.2-.6.4-1-.3-1.6,0-.6.4-.2,1.1-.8,1.4-.6.4-.6.4-1.2.8-.6.4-.8,0-1.4.4-.6.4-.7.2-1.3.6-.6.4-.4.7-1,1.1-.6.4-.8,0-1.4.4-.6.4-.7.2-1.3.6-.6.4-.6.5-1.2.8-.6.4-.4.7-1,1.1-.6.4-.7.2-1.3.5-.6.4-.3.9-.9,1.3-.6.4-.8,0-1.4.4s-.6.3-1.2.7c-.6.4-.4.7-1,1.1-.6.4-.7.2-1.3.6-.6.4-1-.3-1.7,0s-.6.4-1.2.7c-.6.4,0,1.2-.7,1.6-.6.4-.8,0-1.4.4-.6.4-.7.2-1.4.5-.6.4-.8.1-1.4.5-.6.4-.3.8-1,1.2-.6.4-.5.6-1.1,1-.6.4-.5.6-1.1,1-.6.4-.9,0-1.5.3-.6.4-.4.8-1,1.1-.6.4-.8,0-1.4.4s-.9,0-1.5.3c-.6.4-.2,1.1-.8,1.5s-1.1-.4-1.7,0c-.6.4-.7.3-1.3.7-.6.4-.2,1-.8,1.4s-1-.3-1.6,0c-.6.4-.4.8-1,1.1-.6.4-.3.9-.9,1.3-.6.4-1.2-.6-1.8-.2-.6.4-.4.7-1.1,1-.6.4-.6.4-1.2.7-.6.4-.3.9-.9,1.2-.6.4-.6.5-1.2.8-.6.4-.6.5-1.2.8-.6.4-.6.4-1.2.7-.6.4-1.2-.5-1.8-.2-.6.4-.1,1.2-.8,1.5-.6.4-.8,0-1.4.4-.6.4-.4.7-1,1-.6.4-1-.3-1.7,0-.6.4-.5.6-1.1,1-.6.4-.3.8-1,1.2-.6.4-.8,0-1.4.4-.6.4-.8,0-1.5.4-.6.4-.5.6-1.1,1-.6.4-.4.7-1,1.1-.6.4-.7.2-1.3.6-.6.4-.7.2-1.3.6-.6.4-.4.7-1,1.1-.6.4-.8.1-1.4.5-.6.4-.9,0-1.5.4-.6.4-.3.9-.9,1.2-.6.4-.9,0-1.5.3-.6.4-.3.8-.9,1.2-.6.4-1-.2-1.6.2-.6.4-.5.5-1.1.9-.6.4-.4.8-1,1.2-.6.4-.8,0-1.4.4-.6.4-.3,1-.9,1.3-.6.4-1-.2-1.6.2-.6.4-.5.6-1.1,1-.6.4-.4.7-1.1,1-.6.4-.6.4-1.2.8-.6.4-.6.3-1.3.7-.6.4-.8.1-1.4.5-.6.4-.7.3-1.3.6-.6.4-.8,0-1.5.4-.6.4-.4.8-1,1.2-.6.4-.3.8-1,1.2-.6.4-.9,0-1.5.3-.6.4-.7.2-1.3.6-.6.4-.6.4-1.2.8-.6.4-.4.7-1,1.1-.6.4-.9,0-1.5.3-.6.4-.6.4-1.2.7-.6.4-.7.3-1.3.7-.6.4-.7.3-1.3.7-.6.4-.6.4-1.2.8s-.7.3-1.3.6c-.6.4-.3.9-.9,1.3-.6.4-.6.4-1.2.8-.6.4-.9,0-1.5.3-.6.4-.3.8-1,1.2-.6.4-.8,0-1.4.5-.6.4-.3.9-.9,1.3-.6.4-.8.1-1.4.5-.6.4-.9,0-1.5.3-.4.2-.7.6-1.1.9-.4.3-.8.5-1.1.8-.3.3-.4.9-.7,1.3-.3.3-1,.3-1.3.7-.3.4-.4.9-.6,1.3-.2.4.1,1.1-.1,1.5-.2.4-.9.6-1,1-.2.4-.3.9-.4,1.3-.1.4-.7.8-.8,1.3,0,.5-.2.9-.3,1.4,0,.5.3,1,.3,1.4,0,.5-.2,1-.2,1.4,0,.5.2.9.3,1.4,0,.5.1.9.2,1.4.1.5.8.7,1,1.1.2.4.1.9.3,1.3.2.4.2.9.5,1.3.2.4.5.8.7,1.2.3.4.8.6,1.1.9.3.3.7.7,1,1,.3.3.7.6,1,.9s.9.4,1.3.6c.4.2.9.2,1.3.4.4.2.5,1.2.9,1.4.4.2,1,0,1.4.2.4.1.9,0,1.4.2.5,0,.9.5,1.3.6.5,0,1-.5,1.4-.5.7,0,.7.4,1.4.4s.7-.6,1.4-.6.7.5,1.4.5.7.2,1.4.2.7-.2,1.4-.2.7.5,1.4.5.7-.2,1.4-.2.7,0,1.4,0,.7,0,1.4,0,.7-.3,1.4-.3.7.4,1.4.4.7-1,1.4-1h1.4c.7,0,.7.7,1.4.7s.7-.5,1.4-.5.7.6,1.4.6.7-.2,1.4-.2.7-.4,1.4-.4.7.5,1.4.5.7.1,1.4.1.7-.7,1.4-.7.7-.2,1.4-.2.7.8,1.4.8.7,0,1.4,0,.7-.7,1.4-.7.7,0,1.4,0,.7.3,1.4.3.7-.3,1.4-.3.7.7,1.4.7.7-.4,1.4-.4.7-.4,1.4-.4.7,0,1.4,0,.7,0,1.4,0,.7.3,1.4.3.7.8,1.4.8.7-.4,1.4-.4.7,0,1.4,0,.7-.6,1.4-.6.7.7,1.4.7.7-.6,1.4-.6.7.9,1.4.9.7-.3,1.4-.3.7-.7,1.4-.7.7.7,1.4.7.7-.4,1.4-.4.7.3,1.4.3.7-.6,1.4-.6.7.6,1.4.6.7,0,1.4,0,.7.5,1.4.5.7-.5,1.4-.5.7.4,1.4.4.7-.9,1.4-.9.7.9,1.4.9.7-.4,1.4-.4.7,0,1.4,0,.7,0,1.4,0,.7.6,1.4.6.7-.8,1.4-.8.7-.3,1.4-.3.7.3,1.4.3.7-.3,1.4-.3.7,0,1.4,0,.7.7,1.4.7.7.3,1.4.3.7,0,1.4,0,.7-.8,1.4-.8.7.9,1.4.9.7-.9,1.4-.9.7.3,1.4.3.7.3,1.4.3.7.4,1.4.4.7-1.1,1.4-1.1.7.5,1.4.5.7.5,1.4.5.7-.5,1.4-.5.7,0,1.4,0,.7.5,1.4.5.7-.5,1.4-.5.7-.7,1.4-.7.7.8,1.4.8.7-.8,1.4-.8.7.2,1.4.2.7.5,1.4.5.7-.2,1.4-.2.7-.1,1.4-.1.7-.3,1.4-.3.7.1,1.4.1.7.2,1.4.2.7-.3,1.4-.3.7.6,1.4.6.7-.5,1.4-.5.7.8,1.4.8.7-.3,1.4-.3.7.2,1.4.2.7.2,1.4.2.7-.4,1.4-.4.7-.4,1.4-.4.7.3,1.4.3.7-.4,1.4-.4.7.2,1.4.2.7-.2,1.4-.2.7.9,1.4.9.7-.9,1.4-.9.7.8,1.4.8.7.2,1.4.2.7-.5,1.4-.5.7-.5,1.4-.5.7.3,1.4.3.7-.2,1.4-.2.7-.2,1.4-.2.7.8,1.4.8.7-.3,1.4-.3.7-.3,1.4-.3.7-.2,1.4-.2.7,0,1.4,0,.7,0,1.4,0,.7.5,1.4.5.7-.2,1.4-.2.7.5,1.4.5.7,0,1.4,0,.7-.3,1.4-.3.7,0,1.4,0,.7.3,1.4.3.7.2,1.4.2.7-.9,1.4-.9.7,0,1.4,0,.7-.3,1.4-.3.7.4,1.4.4.7-.1,1.4-.1.7,0,1.4,0,.7.8,1.4.8.7-.2,1.4-.2.7-.7,1.4-.7.7.9,1.4.9.7-.2,1.4-.2.7,0,1.4,0,.7.2,1.4.2.7-.1,1.4-.1.7,0,1.4,0,.7.2,1.4.2.7-1,1.4-1,.7.9,1.4.9.7-.2,1.4-.2.7-.2,1.4-.2.7.1,1.4.1.7-.1,1.4-.1.7-.1,1.4-.1.7.4,1.4.4.7-.5,1.4-.5.7.3,1.4.3.7.4,1.4.4.7-.8,1.4-.8.7.1,1.4.1.7.3,1.4.3.7-.3,1.4-.3.7,0,1.4,0,.7.2,1.4.2.7,0,1.4,0,.7.5,1.4.5.7-.9,1.4-.9.7,0,1.4,0,.7.7,1.4.7.7,0,1.4,0,.7,0,1.4,0,.7.3,1.4.3.7-.7,1.4-.7.7,0,1.4,0,.7,0,1.4,0,.7,0,1.4,0,.7-.2,1.4-.2.7.5,1.4.5.7.2,1.4.2.7-.8,1.4-.8.7.5,1.4.5.7-.6,1.4-.6.7,0,1.4,0,.7.9,1.4.9.7-.8,1.4-.8.7,0,1.4,0,.7-.1,1.4-.1.5.1.6.3c44.6-45.2,72.2-107.2,72.2-175.7s-6.9-66.9-19.4-96.7Z"/>
  <path class="cls-1" d="M84.4,425.9c.7,0,.7.6,1.4.6s.7-.6,1.5-.6.7.3,1.4.3.7-.3,1.5-.3.7.5,1.5.5.7-.8,1.5-.8,1,.9,1.5.8c.5,0,.9-.7,1.4-.8.5,0,.9-.4,1.4-.6.5-.1,1-.2,1.4-.4.5-.2.9-.3,1.4-.5.4-.2.7-.7,1.1-1,.4-.3.9-.4,1.3-.7.4-.3.6-.7,1-1.1.3-.3.8-.6,1.1-1,.3-.4,1-.5,1.2-.9.2-.3.3-.7.5-1,.3-.3.3-.9.6-1.1.6-.4.6-.4,1.2-.8.6-.4,1.1.4,1.7,0,.6-.4.4-.7,1-1.1.6-.4.7-.3,1.3-.7.6-.4.5-.6,1.1-1,.6-.4.7-.2,1.3-.5.6-.4.5-.5,1.1-.9.6-.4.8,0,1.4-.4.6-.4.2-1,.8-1.4.6-.4.9.1,1.5-.2.6-.4.4-.7,1-1.1.6-.4.7-.2,1.3-.6.6-.4.6-.3,1.2-.7.6-.4.6-.5,1.2-.8.6-.4,1,.3,1.6,0,.6-.4.4-.7,1-1,.6-.4.8,0,1.4-.4.6-.4.6-.4,1.2-.8.6-.4.6-.3,1.3-.7.6-.4.4-.7,1-1.1.6-.4.5-.5,1.1-.9.6-.4.6-.4,1.2-.8.6-.4,1,.2,1.6-.2.6-.4.6-.4,1.2-.8.6-.4.6-.5,1.2-.8.6-.4.5-.6,1.1-1,.6-.4.6-.4,1.2-.8.6-.4.7-.2,1.3-.6.6-.4.4-.8,1-1.1.6-.4.8,0,1.5-.4.6-.4.8,0,1.4-.4.6-.4.2-1.1.8-1.5.6-.4.5-.5,1.1-.9.6-.4.8,0,1.4-.5.6-.4.7-.3,1.3-.6.6-.4.6-.3,1.2-.7.6-.4.7-.3,1.3-.7.6-.4.3-1,.9-1.3.6-.4.8,0,1.4-.4.6-.4.6-.4,1.2-.8.6-.4.9,0,1.5-.3.6-.4.4-.7,1-1.1.6-.4.8,0,1.4-.4.6-.4.6-.3,1.3-.7.6-.4.3-.9.9-1.2.6-.4,1.1.4,1.7,0,.6-.4.4-.7,1-1.1.6-.4.6-.4,1.2-.8s.6-.3,1.3-.7c.4-.2.9-.4,1.3-.6.4-.3.5-.9.8-1.2.3-.3,1-.3,1.4-.6.3-.3,0-1.1.4-1.5.3-.4.4-.8.7-1.2.2-.4.8-.6,1-1,.2-.4,0-1,.2-1.4.2-.4.4-.8.6-1.2.1-.4.3-.9.4-1.3,0-.5.9-.8,1-1.3,0-.5-.7-1-.7-1.4,0-.7.8-.7.8-1.4s-.3-.7-.3-1.4,0-.7,0-1.4,0-.7,0-1.4-.7-.7-.7-1.4.1-.7.1-1.4.2-.7.2-1.4,0-.7,0-1.4.3-.7.3-1.4-.2-.7-.2-1.4.4-.7.4-1.4-.6-.7-.6-1.4.3-.7.3-1.4.3-.7.3-1.4,0-.7,0-1.4-.2-.7-.2-1.4-.5-.7-.5-1.4-.4-.7-.4-1.4.2-.7.2-1.4.1-.7.1-1.4-.3-.7-.3-1.4.1-.7.1-1.4,1-.7,1-1.4,0-.7,0-1.4,0-.7,0-1.4-.8-.7-.8-1.4.2-.7.2-1.4.3-.7.3-1.4-.4-.7-.4-1.4,0-.7,0-1.4,0-.7,0-1.4-.4-.7-.4-1.4,1.2-.7,1.2-1.4-.6-.7-.6-1.4.4-.7.4-1.4-.8-.7-.8-1.4.4-.7.4-1.4.2-.7.2-1.4-.7-.7-.7-1.4,1-.7,1-1.4-1-.7-1-1.4.6-.7.6-1.4-.1-.7-.1-1.4-.3-.7-.3-1.4.2-.7.2-1.4-.4-.7-.4-1.4.4-.7.4-1.4.2-.7.2-1.4.2-.7.2-1.4-.2-.7-.2-1.4.5-.7.5-1.4.1-.7.1-1.4-.9-.7-.9-1.4.9-.7.9-1.4-1.1-.7-1.1-1.4,1.1-.7,1.1-1.4-.5-.7-.5-1.4.3-.7.3-1.4-.3-.7-.3-1.4.1-.7.1-1.4.2-.7.2-1.4.1-.7.1-1.4-1-.9-1-1.4c0-.5.2-1,.1-1.5,0-.5-.4-.9-.6-1.3-.1-.5.6-1.3.4-1.7-.2-.5-1-.6-1.3-1.1-.2-.4,0-1.2-.2-1.6-.3-.4-.8-.7-1.1-1.1-.3-.4-1.1-.4-1.4-.7-.3-.3-.8-.6-1.1-.9-.4-.3-.3-1.2-.7-1.5-.4-.3-1.3.3-1.8,0-.4-.2-.6-1-1-1.2-.5-.2-.8-.7-1.3-.9-.5-.1-1.1.3-1.6.2-.5,0-1-.2-1.4-.2-.5,0-1-.7-1.5-.7-.7,0-.7,1-1.4,1s-.7,0-1.4,0-.7,0-1.4,0-.7-.4-1.4-.4-.7-.3-1.4-.3-.7,0-1.4,0-.7,0-1.4,0-.7.8-1.4.8-.7-.3-1.4-.3-.7.3-1.4.3-.7,0-1.4,0-.7,0-1.4,0-.7-.4-1.4-.4-.7-.7-1.4-.7-.7.3-1.4.3-.7.1-1.4.1-.7-.2-1.4-.2-.7.3-1.4.3-.7,0-1.4,0-.7.1-1.4.1-.7.1-1.4.1-.7-.6-1.4-.6-.7.4-1.4.4-.7-.3-1.4-.3-.7.6-1.4.6-.7-.8-1.4-.8-.7.8-1.4.8-.7-.3-1.4-.3-.7.2-1.4.2-.7.3-1.4.3-.7-.3-1.4-.3-.7-.6-1.4-.6-.7.9-1.4.9-.7-.2-1.4-.2-.7,0-1.4,0-.7-.7-1.4-.7-.7.9-1.4.9-.7-.2-1.4-.2-.7-.5-1.4-.5-.7.1-1.4.1-.7-.1-1.4-.1-.7-.3-1.4-.3-.7.5-1.4.5-.7.3-1.4.3-.7,0-1.4,0-.7-.2-1.4-.2-.7-.2-1.4-.2-.7-.3-1.4-.3-.7.8-1.4.8-.7-.5-1.4-.5-.7-.2-1.4-.2-.7-.2-1.4-.2-.7,1-1.4,1-.7,0-1.4,0-.7-.3-1.4-.3-.7.3-1.4.3-.7-.7-1.4-.7-.7-.2-1.4-.2-.7.8-1.4.8-.7,0-1.4,0-.7-.2-1.4-.2-.7-.7-1.4-.7-.7,0-1.4,0-.7.8-1.4.8-.7,0-1.4,0-.7.2-1.4.2-.7-.3-1.4-.3-.7,0-1.4,0-.7-.6-1.4-.6-.7,0-1.4,0-.7-.2-1.4-.2-.7.2-1.4.2-.7.4-1.4.4-.7-.4-1.4-.4-.7.8-1.4.8-.7-.2-1.4-.2-.7,0-1.4,0-.7-.6-1.4-.6-.7,0-1.4,0-.7.1-1.4.1-.7.2-1.4.2-.7-.1-1.4-.1-.7.8-1.4.8-.7-.1-1.4-.1-.7-.2-1.4-.2-.7.2-1.4.2-.7.2-1.4.2-.7-.4-1.4-.4-.7-.2-1.4-.2-.7.5-1.4.5-.7-.5-1.4-.5-.7.6-1.4.6-.7-.8-1.4-.8-.7-.2-1.4-.2-.7,1-1.4,1-.7,0-1.4,0-.7-.3-1.4-.3-.7-.2-1.4-.2-.7,0-1.4,0-.7,0-1.4,0-.7.1-1.4.1-.7.3-1.4.3-.7-.6-1.4-.6-.7.4-1.4.4-.7,0-1.4,0-.7,0-1.4,0-.7.3-1.4.3-.7.2-1.4.2-.7-1.1-1.4-1.1-.7.8-1.4.8-.3,0-.4,0c3.7,62.8,30.6,119.4,72.2,161.3,0,0,.1,0,.2,0,.7,0,.7-.3,1.4-.3s.7.2,1.4.2.7-.6,1.4-.6.7.6,1.4.6.7.3,1.4.3.7-.6,1.4-.6.7-.2,1.4-.2.7.3,1.4.3Z"/>
  <path class="cls-1" d="M417.6,435.4c-.7,0-.7.6-1.4.6s-.7.1-1.4.1-.7-.2-1.4-.2-.7-.4-1.4-.4-.7.9-1.4.9-.7,0-1.4,0-.7-.6-1.4-.6-.7.3-1.4.3-.7-.2-1.4-.2-.7-.5-1.4-.5-.7.8-1.4.8-.7-.2-1.4-.2-.7-.2-1.4-.2-.7.6-1.4.6-.7-.8-1.4-.8-.7.8-1.4.8-.7,0-1.4,0-.7-1-1.4-1-.7.3-1.4.3-.7-.2-1.4-.2-.7-.2-1.4-.2-.7,1-1.4,1-.7-.3-1.4-.3-.7-.5-1.4-.5-.7.2-1.4.2-.7,0-1.4,0-.7.4-1.4.4-.7-.2-1.4-.2-.7,0-1.4,0-.7,0-1.4,0-.7-.1-1.4-.1-.7-.5-1.4-.5-.7.2-1.4.2-.7.4-1.4.4-.7-.8-1.4-.8-.7.4-1.4.4-.7.2-1.4.2-.7.5-1.4.5-.7,0-1.4,0-.7-.4-1.4-.4-.7-.3-1.4-.3-.7.3-1.4.3-.7-.3-1.4-.3-.7-.3-1.4-.3-.7.5-1.4.5-.7.3-1.4.3-.7-.6-1.4-.6-.7.6-1.4.6-.7-.4-1.4-.4-.7.6-1.4.6-.7-.8-1.4-.8-.7.2-1.4.2-.7.4-1.4.4-.7-.7-1.4-.7-.7,0-1.4,0-.7-.2-1.4-.2-.7,1.1-1.4,1.1-.7-.6-1.4-.6-.7.4-1.4.4-.7-.2-1.4-.2-.7-.5-1.4-.5-.7.7-1.4.7-.7.1-1.4.1-.7,0-1.4,0-.7-.2-1.4-.2-.7-.7-1.4-.7-.7.9-1.4.9-.7-.2-1.4-.2-.7,0-1.4,0-.7,0-1.4,0-.7-.5-1.4-.5-.7-.3-1.4-.3-.7.4-1.4.4-.7-.5-1.4-.5-.7.2-1.4.2-.7-.4-1.4-.4-.7.6-1.4.6-.7,0-1.4,0-.7.2-1.4.2-.7-.6-1.4-.6-.7.2-1.4.2-.7-.2-1.4-.2-.7-.2-1.4-.2-.7.9-1.4.9-.7-.9-1.4-.9-.7.8-1.4.8-.7-.3-1.4-.3-.7-.2-1.4-.2-.7.9-1.4.9-.7-.7-1.4-.7-.7-.3-1.4-.3-.7.4-1.4.4-.7-.2-1.4-.2-.7-.1-1.4-.1-.7.8-1.4.8-.7-.9-1.4-.9-.7.8-1.4.8-.7-.8-1.4-.8-.7.7-1.4.7-.7-.4-1.4-.4-.7.1-1.4.1-.7.2-1.4.2-.7,0-1.4,0-.7-.5-1.4-.5-.7,0-1.4,0-.7-.1-1.4-.1-.7.3-1.4.3-.7,0-1.4,0-.7.6-1.4.6-.7-.6-1.4-.6-.7-.3-1.4-.3-.7.3-1.4.3-.7-.3-1.4-.3-.7.7-1.4.7-.7-.1-1.4-.1-.7.1-1.4.1-.7.4-1.4.4-.7-.6-1.4-.6-.7-.5-1.4-.5-.7.6-1.4.6-.7,0-1.4,0-.7.4-1.4.4-.7-.8-1.4-.8-.7.7-1.4.7-.7-.9-1.4-.9-.7.4-1.4.4-.7.6-1.4.6-.7,0-1.4,0-.7-.9-1.4-.9-.7,0-1.4,0-.7.7-1.4.7-.7,0-1.4,0-.7-.5-1.4-.5-.7,0-1.4,0-.7.6-1.4.6-.7,0-1.4,0-.7.1-1.4.1-.7-.9-1.4-.9-.7.5-1.4.5-.7,0-1.4,0-.7.2-1.4.2-.7-.5-1.4-.5-.7-.1-1.4-.1-.7,0-1.4,0-.7.3-1.4.3-.7,0-1.4,0-.7,0-1.4,0-.7-.8-1.4-.8-.7.2-1.4.2-.7.3-1.4.3-.7.6-1.4.6-.7-.4-1.4-.4-.7-.6-1.4-.6-.7,0-1.4,0-.7.4-1.4.4-.7-.1-1.4-.1-.7-.1-1.4-.1-.7.2-1.4.2-.7,0-1.4,0-.7.5-1.4.5-.7-.7-1.4-.7-.7.1-1.4.1-.7-.1-1.4-.1-.7,0-1.4,0-.7.2-1.4.2-.7.4-1.4.4-.7-.1-1.4-.1-.7,0-1.4,0-.7-.2-1.4-.2-.7.6-1.4.6-.7-.3-1.4-.3-.7-.2-1.4-.2-.7-.4-1.4-.4-.7.1-1.4.1-.7.7-1.4.7-.7-.9-1.4-.9-.7.7-1.4.7-.7-.6-1.4-.6-.7.1-1.4.1-.7.5-1.4.5-.7-.7-1.4-.7-.7.5-1.4.5-.7-.1-1.4-.1-.7.1-1.4.1-.7-.6-1.4-.6-.7.8-1.4.8-.7-.5-1.4-.5-.7.2-1.4.2-.7.1-1.4.1-.7-.6-1.4-.6-.7.9-1.4.9-.7-.2-1.4-.2-.7-.7-1.4-.7-.7.4-1.4.4-.7,0-1.4,0-.7-.2-1.4-.2-.7.8-1.4.8-.7-1-1.4-1-.7.3-1.4.3-.7-.2-1.4-.2-.7.5-1.4.5-.7-.4-1.4-.4-.7.8-1.4.8-.7-.7-1.4-.7-.7.6-1.4.6-.7-.5-1.4-.5-.7.3-1.4.3-.7-.3-1.4-.3-.7.5-1.4.5-.7-.1-1.4-.1-.7.3-1.4.3-.7-.5-1.4-.5-.7.3-1.4.3-.7-.8-1.4-.8-.7.6-1.4.6-.7.4-1.4.4-.7-.6-1.4-.6-.7-.4-1.4-.4-.7.1-1.4.1-.7.6-1.4.6-.7-.5-1.4-.5-.7.5-1.4.5-.7,0-1.4,0-.7,0-1.4,0-.7,0-1.4,0-.7.2-1.4.2-.7-.2-1.4-.2-.7.3-1.4.3-.7-.7-1.4-.7-.7.2-1.4.2-.7,0-1.4,0-.7.3-1.4.3-.2,0-.3,0c44.3,39.8,102.9,64.1,167.1,64.1s123.3-24.5,167.7-64.6c0,0,0,0-.1,0Z"/>
  <path class="cls-1" d="M61.2,86.7c.7,0,.7.5,1.4.5s.7-.8,1.4-.8.7.7,1.4.7.7-.1,1.4-.1.7-.6,1.4-.6.7.6,1.4.6.7-.6,1.4-.6.7.1,1.4.1.7,0,1.4,0,.7.7,1.4.7.7-.5,1.4-.5.7.6,1.4.6.7-.6,1.4-.6.7.7,1.4.7.7-1.1,1.4-1.1.7.8,1.4.8.7,0,1.4,0,.7-.1,1.4-.1.7,0,1.4,0,.7-.2,1.4-.2.7,0,1.4,0,.7.2,1.4.2.7,0,1.4,0,.7.4,1.4.4.7-.1,1.4-.1.7-.7,1.4-.7.7-.2,1.4-.2.7.1,1.4.1.7,0,1.4,0,.7.4,1.4.4.7.1,1.4.1.7-.4,1.4-.4.7,0,1.4,0,.7,0,1.4,0,.7.2,1.4.2.7-.4,1.4-.4.7,0,1.4,0,.7.6,1.4.6.7,0,1.4,0,.7-.4,1.4-.4.7.7,1.4.7.7,0,1.4,0,.7-.1,1.4-.1.7-.9,1.4-.9.7.5,1.4.5.7-.4,1.4-.4.7.8,1.4.8.7-.7,1.4-.7.7,0,1.4,0,.7.2,1.4.2.7-.4,1.4-.4.7.2,1.4.2.7.8,1.4.8.7-.6,1.4-.6.7.3,1.4.3.7.1,1.4.1.7-.3,1.4-.3.7.7,1.4.7.7-.3,1.4-.3.7,0,1.4,0,.7-.5,1.4-.5.7-.3,1.4-.3.7.2,1.4.2.7.9,1.5.9.7-.4,1.4-.4.7,0,1.5,0,.7.2,1.5.2.7-.3,1.5-.3,1-.2,1.5-.2c.5,0,1,.2,1.5.1.5,0,.9-.7,1.3-.8.5-.1.9-.4,1.4-.5.5-.2.9-.3,1.4-.5.4-.2,1-.3,1.4-.6.4-.3.8-.6,1.2-.9.4-.3.4-1,.8-1.3.3-.3,1.2-.2,1.5-.6.3-.4,0-1.2.3-1.6.3-.4.8-.6,1-1.1.2-.4.3-.9.4-1.4.2-.5.1-1,.3-1.4.1-.5.7-.8.8-1.3,0-.5.2-1,.3-1.5,0-.5,0-1,0-1.5,0-.7-.1-.7-.1-1.4s-.4-.7-.4-1.4,1-.7,1-1.4-.1-.7-.1-1.4-.1-.7-.1-1.4-.2-.7-.2-1.4-.1-.7-.1-1.4.2-.7.2-1.4.2-.7.2-1.4-.2-.7-.2-1.4-.2-.7-.2-1.4-.4-.7-.4-1.4.6-.7.6-1.4.3-.7.3-1.4-.3-.7-.3-1.4-.6-.7-.6-1.4,0-.7,0-1.4.4-.7.4-1.4,0-.7,0-1.4-.2-.7-.2-1.4.7-.7.7-1.4-.8-.7-.8-1.4.3-.7.3-1.4.1-.7.1-1.4.3-.7.3-1.4,0-.7,0-1.4.1-.7.1-1.4-.5-.7-.5-1.4.5-.7.5-1.4-.2-.7-.2-1.4-.7-.7-.7-1.4.2-.7.2-1.4,0-.7,0-1.4-.4-.7-.4-1.4.7-.7.7-1.4.2-.7.2-1.4,0-.7,0-1.4-.5-.7-.5-1.4.8-.7.8-1.4-1-.7-1-1.4.6-.7.6-1.4.1-.7.2-1.1c-44.8,14.1-84.2,40.5-114.2,75.3.1,0,.3-.2.5-.2Z"/>
  <path class="cls-1" d="M185,185.1c0,.5,0,.9,0,1.4,0,.5-.2,1,0,1.5.1.5.2,1,.4,1.4.2.5.2,1,.4,1.4.2.4.4.9.7,1.4.3.4,1.1.4,1.4.8.3.4.4.9.8,1.3.3.3.7.7,1.1,1,.4.3.6.8,1,1.1.4.3,1.1.1,1.5.4.4.2.7.8,1.2,1,.5.2,1,.2,1.5.3.5.1.9.4,1.4.5.5,0,1-.3,1.5-.3.5,0,.9.2,1.4.2.7,0,.7,0,1.4,0s.7-.4,1.4-.4.7.2,1.4.2.7.8,1.4.8.7-.9,1.4-.9.7,0,1.4,0,.7-.1,1.4-.1.7.5,1.4.5.7,0,1.4,0,.7-.3,1.4-.3.7-.3,1.4-.3.7.4,1.4.4.7,0,1.4,0,.7-.2,1.4-.2.7.5,1.4.5.7-.1,1.4-.1.7-.5,1.4-.5.7.3,1.4.3.7,0,1.4,0,.7.1,1.4.1.7.6,1.4.6.7-1,1.4-1,.7.9,1.4.9.7-.4,1.4-.4.7.2,1.4.2.7.3,1.4.3.7-.5,1.4-.5.7-.4,1.4-.4.7,0,1.4,0,.7.5,1.4.5.7-.3,1.4-.3.7.4,1.4.4.7-.6,1.4-.6.7.3,1.4.3.7-.1,1.4-.1.7.8,1.4.8.7-.5,1.4-.5.7-.3,1.4-.3.7-.1,1.4-.1.7-.2,1.4-.2.7.3,1.4.3.7.2,1.4.2.7.3,1.4.3.7-.3,1.4-.3.7.2,1.4.2.7-.6,1.4-.6.7.6,1.4.6.7.3,1.4.3.7-.6,1.4-.6.7-.2,1.4-.2.7.3,1.4.3.7.6,1.4.6.7-.6,1.4-.6.7.3,1.4.3.7-.3,1.4-.3.7.5,1.4.5.7-.8,1.4-.8.7.9,1.4.9.7-.6,1.4-.6.7-.2,1.4-.2.7.1,1.4.1.7.1,1.4.1.7-.3,1.4-.3.7.2,1.4.2.7-.1,1.4-.1.7.2,1.4.2.7.5,1.4.5.7-.2,1.4-.2.7-.5,1.4-.5.7,0,1.4,0,.7.9,1.4.9.7-.4,1.4-.4.7,0,1.4,0,.7-.3,1.4-.3.7.2,1.4.2.7-.2,1.4-.2.7.4,1.4.4.7-.8,1.4-.8.7.6,1.4.6.7-.4,1.4-.4.7.1,1.4.1.7,0,1.4,0,.7-.1,1.4-.1.7.8,1.4.8.7-.3,1.4-.3.7.4,1.4.4.7,0,1.4,0,.7,0,1.4,0,.7-.4,1.4-.4.7-.2,1.4-.2.7,0,1.4,0,.7.7,1.4.7.7,0,1.4,0,.7-.1,1.4-.1.7-.3,1.4-.3.7,0,1.4,0,.7.2,1.4.2.7-.5,1.4-.5.7.4,1.4.4.7.4,1.4.4.7-.8,1.4-.8.7-.2,1.4-.2.7.3,1.4.3.7.1,1.4.1.7,0,1.4,0,.7,0,1.4,0,.7-.7,1.4-.7.7.4,1.5.4.7,0,1.5,0,.7.5,1.5.5,1-.4,1.4-.5c.5,0,1,.2,1.5.1.5,0,1-.2,1.5-.3.5-.1.7-.8,1.2-1,.5-.2,1.3.4,1.7.1.4-.2.7-.8,1.1-1.1.4-.3.8-.6,1.2-.9.4-.3.8-.6,1.1-.9.3-.3.8-.6,1.1-1,.3-.4.2-1,.5-1.5.3-.4,1-.6,1.2-1,.2-.4-.2-1.2,0-1.6.2-.5.2-.9.4-1.4.1-.5.6-.8.7-1.3,0-.5-.3-1-.2-1.5,0-.5.2-.9.2-1.4,0-.7,0-.7,0-1.5s.8-.7.8-1.4-.7-.7-.7-1.4.8-.7.8-1.5-.3-.7-.3-1.4,0-.7,0-1.5,0-.7,0-1.5-.7-.7-.7-1.5.1-.7.1-1.5.2-.7.2-1.5,0-.7,0-1.5.3-1,.3-1.5c0-.5-.3-1-.4-1.4,0-.5.2-1.1,0-1.6-.1-.5-.9-.8-1.1-1.2-.2-.5-.1-1-.3-1.5-.2-.4-.3-1-.6-1.4-.3-.4-.6-.9-.9-1.2-.3-.4-.8-.6-1.2-1-.3-.3-1-.3-1.4-.6-.4-.3-1-.3-1.4-.5-.4-.3-.7-.7-1.1-.9-.4-.2-.8-.5-1.3-.7-.5-.2-1,0-1.5-.2-.5-.1-.9-.4-1.3-.5-.5,0-.8-1.1-1.3-1.2-.5,0-1,0-1.5,0-.7,0-.7,0-1.4,0s-.7.8-1.4.8-.7-.2-1.4-.2-.7-.3-1.4-.3-.7.4-1.4.4-.7,0-1.4,0-.7,0-1.4,0-.7.4-1.4.4-.7-1.2-1.4-1.2-.7.6-1.4.6-.7-.4-1.4-.4-.7.8-1.4.8-.7-.4-1.4-.4-.7-.2-1.4-.2-.7.7-1.4.7-.7-1-1.4-1-.7,1-1.4,1-.7-.6-1.4-.6-.7.1-1.4.1-.7.3-1.4.3-.7-.2-1.4-.2-.7.4-1.4.4-.7-.4-1.4-.4-.7-.2-1.4-.2-.7-.2-1.4-.2-.7.2-1.4.2-.7-.5-1.4-.5-.7-.1-1.4-.1-.7.9-1.4.9-.7-.9-1.4-.9-.7,1.1-1.4,1.1-.7-1.1-1.4-1.1-.7.5-1.4.5-.7-.3-1.4-.3-.7.3-1.4.3-.7-.1-1.4-.1-.7-.2-1.4-.2-.7-.1-1.4-.1-.7.9-1.4.9-.7-.4-1.4-.4-.7.2-1.4.2-.7-1-1.4-1-.7.7-1.4.7-.7-.7-1.4-.7-.7.2-1.4.2-.7.6-1.4.6-.7.1-1.4.1-.7-.8-1.4-.8-.7,1-1.4,1-.7-.6-1.4-.6-.7-.4-1.4-.4-.7.6-1.4.6-.7,0-1.4,0-.7-.6-1.4-.6-.7,1-1.4,1-.7,0-1.4,0-.7,0-1.4,0-.7-.4-1.4-.4-.7-.3-1.4-.3-.7,0-1.4,0-.7,0-1.4,0-.7.8-1.4.8-.7-.3-1.4-.3-.7.3-1.4.3-.7,0-1.4,0-.7,0-1.4,0-.7-.4-1.4-.4-.7-.7-1.4-.7-.7.3-1.4.3-.7.1-1.4.1-.7-.2-1.4-.2-.7.3-1.4.3-.7,0-1.4,0-.7.1-1.4.1-.7.1-1.4.1-.7-.6-1.4-.6-.7.4-1.4.4-.7-.3-1.4-.3-.7.6-1.4.6-.7-.8-1.4-.8-.7.8-1.4.8-.7-.3-1.4-.3-.7.2-1.4.2-.7.3-1.4.3-.7-.3-1.4-.3-.7-.6-1.4-.6-.7.9-1.4.9-.7-.2-1.4-.2-.7,0-1.4,0-.7-.7-1.4-.7-.7.9-1.4.9-.7-.2-1.4-.2-.7-.5-1.4-.5-.7.1-1.4.1-.7-.1-1.4-.1-.7-.3-1.4-.3-.7.5-1.4.5-.7.3-1.4.3-.7,0-1.4,0-.7-.2-1.4-.2-.7-.2-1.4-.2-.7-.3-1.4-.3-.7.8-1.4.8-.7-.5-1.4-.5-.7-.2-1.4-.2-.7-.2-1.4-.2-.7,1-1.4,1-.7,0-1.5,0-.8-.2-1.5-.3c-.8-.2-.7-.7-1.4-.7s-1,.5-1.5.6c-.5,0-1-.2-1.5,0-.5,0-.8,1-1.2,1.1-.5.1-.9.3-1.3.5-.5.2-1.4-.6-1.8-.4-.4.2-.8.6-1.2.9-.4.3-.5,1-.9,1.3-.4.3-.6.8-.9,1.1-.3.3-.9.5-1.2.9-.3.4-1,.5-1.3.9-.3.4-.2,1-.5,1.5-.2.4-.3,1-.5,1.4-.2.5-.8.8-1,1.2-.1.5.3,1.1.2,1.6,0,.5-.5.9-.5,1.4,0,.5.7,1,.7,1.5,0,.7,0,.7,0,1.5s-.4.7-.4,1.4.3.7.3,1.4-.7.7-.7,1.5.4.7.4,1.4-.1.7-.1,1.5.4.7.4,1.5-.5.7-.5,1.5,0,.7,0,1.5-.3.7-.3,1.5,0,.7,0,1.5,1,.9,1,1.4Z"/>
  <path class="cls-1" d="M184.7,9.5c0,.7-.2.7-.2,1.4s.1.7.1,1.4-.9.7-.9,1.4.4.7.4,1.4.4.7.4,1.4-.7.7-.7,1.4.6.7.6,1.4-.2.7-.2,1.4-.4.7-.4,1.4.5.7.5,1.4.1.7.1,1.4-.8.7-.8,1.4.7.7.7,1.4-.2.7-.2,1.4.5.7.5,1.4-.3.7-.3,1.4-.1.7-.1,1.4.3.7.3,1.4.2.7.2,1.4-.2.7-.2,1.4-.8.7-.8,1.4.7.7.7,1.4,0,.7,0,1.4,0,.7,0,1.4-.7.7-.7,1.4.7.7.7,1.4-.2.7-.2,1.4-.6.7-.6,1.4.6.7.6,1.5.2.7.2,1.4-.2.7-.2,1.5.2.7.2,1.4-.4.7-.4,1.5-.2.7-.2,1.4-.3.7-.3,1.4,1,.7,1,1.5-.7.7-.7,1.4.8.7.8,1.5-.9.7-.9,1.5.2.7.2,1.5.7.7.7,1.5-.1.7-.1,1.5-.1.7-.1,1.5-.5,1-.5,1.5c0,.5.2,1,.3,1.5,0,.5,0,1.1,0,1.5.1.5,1.3.6,1.5,1,.2.5-.4,1.3-.2,1.7.2.4.8.7,1.1,1.1.3.4.5.9.8,1.2.3.4,1,.3,1.4.7.3.3.4,1,.7,1.3.4.3.6.9,1,1.1.4.3,1,.2,1.4.5.4.2.7,1,1.1,1.2.5.2,1,.2,1.5.3.5.1,1,0,1.5.1.5,0,1,.1,1.5.2.5,0,1,.4,1.5.4.7,0,.7-.4,1.4-.4s.7.3,1.4.3.7-.9,1.4-.9.7.4,1.4.4.7,0,1.4,0,.7-.2,1.4-.2.7.6,1.4.6.7-.5,1.4-.5.7-.2,1.4-.2.7.4,1.4.4.7,0,1.4,0,.7.3,1.4.3.7-1.1,1.4-1.1.7,1.1,1.4,1.1.7-.2,1.4-.2.7-.7,1.4-.7.7.9,1.4.9.7-.2,1.4-.2.7-.8,1.4-.8.7,0,1.4,0,.7.3,1.4.3.7.2,1.4.2.7.4,1.4.4.7-.4,1.4-.4.7-.3,1.4-.3.7.6,1.4.6.7-.2,1.4-.2.7-.5,1.4-.5.7.7,1.4.7.7,0,1.4,0,.7-.3,1.4-.3.7,0,1.4,0,.7,0,1.4,0,.7.3,1.4.3.7.1,1.4.1.7-.6,1.4-.6.7-.3,1.4-.3.7,0,1.4,0,.7.7,1.4.7.7-.7,1.4-.7.7-.3,1.4-.3.7.1,1.4.1.7,0,1.4,0,.7.7,1.4.7.7-.9,1.4-.9.7.1,1.4.1.7,0,1.4,0,.7.3,1.4.3.7.3,1.4.3.7.3,1.4.3.7-.2,1.4-.2.7-.8,1.4-.8.7.4,1.4.4.7.5,1.4.5.7.2,1.4.2.7-.1,1.4-.1.7-.3,1.4-.3.7-.2,1.4-.2.7.1,1.4.1.7-.4,1.4-.4.7,0,1.4,0,.7.6,1.4.6.7.1,1.4.1.7-.2,1.4-.2.7,0,1.4,0,.7,0,1.4,0,.7-.2,1.4-.2.7.4,1.4.4.7,0,1.4,0,.7.2,1.4.2.7.2,1.4.2.7-.9,1.4-.9.7,0,1.4,0,.7.9,1.4.9.7-.6,1.4-.6.7-.1,1.4-.1.7.8,1.4.8.7-.4,1.4-.4.7,0,1.4,0,.7-.1,1.4-.1.7,0,1.4,0,.7.4,1.4.4.7.1,1.4.1.7-.6,1.4-.6.7.8,1.4.8.7-.2,1.4-.2.7-.7,1.4-.7.7.3,1.4.3.7,0,1.4,0,.7.5,1.4.5.7,0,1.4,0,.7-.5,1.4-.5.7,0,1.4,0,.7-.4,1.4-.4.7.5,1.4.5.7-.5,1.4-.5.7,1,1.4,1,.7-.3,1.4-.3.7-.1,1.4-.1.7.3,1.4.3.7-.3,1.4-.3.7,0,1.4,0,.7.2,1.4.2.7-.2,1.4-.2.7-.4,1.4-.4.7.9,1.4.9.7-.9,1.4-.9.7-.2,1.4-.2.7.9,1.4.9.7,0,1.4,0,.7,0,1.4,0,.7-.9,1.4-.9.7.8,1.4.8.7-.5,1.4-.5.7-.2,1.4-.2.7-.2,1.4-.2.7-.1,1.4-.1.7.6,1.4.6.7.3,1.4.3.7-.7,1.4-.7.7.3,1.4.3.7,0,1.4,0,.7.4,1.5.4.7,0,1.5,0,1.1-.3,1.6-.2c.5.2,1,.4,1.5.7.4.3.6.9.9,1.3.3.4.4.9.5,1.4.2.5,0,.9,0,1.5s.6.7.6,1.4,0,.7,0,1.4-.2.7-.2,1.4.4.7.4,1.4.4.7.4,1.4-.8.7-.8,1.4.3.7.3,1.4-.2.7-.2,1.4-.1.7-.1,1.4,0,.7,0,1.4,0,.7,0,1.4-.3.7-.3,1.4,1,.7,1,1.4,0,.7,0,1.4-.9.7-.9,1.4.3.7.3,1.4-.3.7-.3,1.4.2.7.2,1.4-.1.7-.1,1.4,0,.7,0,1.4,0,.7,0,1.4.5.7.5,1.4,0,.7,0,1.4-.5.7-.5,1.4,0,.7,0,1.4.4,1,.5,1.5c0,.5,0,1,.2,1.5,0,.5,0,1,.2,1.5.1.5.5.9.7,1.3.2.5.2,1,.5,1.4.2.4.8.6,1.1,1.1.3.4.6.7.9,1.1.3.4.7.6,1.1.9.3.3.7.6,1.1.9.4.3.2,1.4.6,1.6.4.3.9.5,1.3.8.4.2,1.2-.2,1.6,0,.5.2.9.3,1.4.4.5.1.8.6,1.3.7.5,0,.9.3,1.4.3.5,0,1-.5,1.5-.5.7,0,.7.4,1.4.4s.7.2,1.4.2.7-.2,1.4-.2.7-.3,1.4-.3.7.4,1.4.4.7-.5,1.4-.5.7.3,1.4.3.7.3,1.4.3.7-.3,1.4-.3.7-.4,1.4-.4.7,0,1.4,0,.7,1,1.4,1,.7-.3,1.4-.3.7-.3,1.4-.3.7-.4,1.4-.4.7.6,1.4.6.7,0,1.4,0,.7-.4,1.4-.4.7.8,1.4.8.7-.9,1.4-.9.7,0,1.4,0,.7.1,1.4.1.7.8,1.4.8.7-.1,1.4-.1.7-.4,1.4-.4.7.4,1.4.4.7-.7,1.4-.7.7.9,1.4.9.7.2,1.4.2.7-.9,1.4-.9.7-.1,1.4-.1.7.5,1.4.5.7.6,1.4.6.7-.9,1.4-.9.7.4,1.4.4.7.1,1.4.1.7.1,1.4.1.7.3,1.4.3.7-.5,1.4-.5.7,0,1.4,0,.7-.4,1.4-.4.7.7,1.4.7.7,0,1.4,0,.7-.2,1.4-.2.7.2,1.4.2.7-.7,1.4-.7.7,0,1.4,0,.7,0,1.4,0,.7.2,1.4.2.7.2,1.4.2.7-.2,1.4-.2.7-.3,1.4-.3.7.8,1.4.8.7,0,1.4,0,.1,0,.2,0C436,58.5,349.8,0,250,0s-44.5,3-65.3,8.6c0,.3,0,.4,0,.9Z"/>
  <path class="cls-1" d="M174.9,179.4c0-.7-.7-.7-.7-1.5s.3-.7.3-1.4-.5-.7-.5-1.5.7-.7.7-1.5-.7-.7-.7-1.5.1-.7.1-1.5.2-.7.2-1.5.4-.7.4-1.5-.6-1-.6-1.4c0-.5-.3-.9-.4-1.4,0-.5-.3-.9-.4-1.4-.1-.5.3-1.2.2-1.6-.2-.5-.4-.9-.6-1.4-.2-.4-.4-1-.6-1.4-.3-.4-.7-.8-1-1.1-.3-.4-1.1-.3-1.5-.6-.3-.3-.1-1.3-.5-1.6-.4-.3-1.3,0-1.7-.2-.4-.3-.4-1.3-.8-1.5-.4-.2-1.1,0-1.5-.3-.5-.2-1.1.1-1.5,0-.5-.1-.9-.5-1.4-.6-.5,0-.9-.9-1.4-1-.5,0-1,1.1-1.5,1.1-.7,0-.7-.8-1.4-.8s-.7.3-1.4.3-.7.5-1.4.5-.7-.1-1.4-.1-.7-.6-1.4-.6-.7,0-1.4,0-.7-.5-1.4-.5-.7.2-1.4.2-.7,0-1.4,0-.7.5-1.4.5-.7-.3-1.4-.3-.7.3-1.4.3-.7.4-1.4.4-.7,0-1.4,0-.7-1-1.4-1-.7.4-1.4.4-.7.5-1.4.5-.7-.1-1.4-.1-.7-.2-1.4-.2-.7-.3-1.4-.3-.7.8-1.4.8-.7-.5-1.4-.5-.7.6-1.4.6-.7-.1-1.4-.1-.7-.3-1.4-.3-.7-.1-1.4-.1-.7,0-1.4,0-.7-.5-1.4-.5-.7.4-1.4.4-.7.3-1.4.3-.7,0-1.4,0-.7,0-1.4,0-.7.2-1.4.2-.7-.8-1.4-.8-.7.7-1.4.7-.7-.5-1.4-.5-.7.6-1.4.6-.7-.5-1.4-.5-.7.4-1.4.4-.7-.2-1.4-.2-.7-.7-1.4-.7-.7.7-1.4.7-.7-.8-1.4-.8-.7.3-1.4.3-.7.8-1.4.8-.7-.9-1.4-.9-.7.9-1.4.9-.7-.5-1.4-.5-.7.2-1.4.2-.7.3-1.4.3-.7-.3-1.4-.3-.7-.1-1.4-.1-.7-.3-1.4-.3-.7.6-1.4.6-.7-.5-1.4-.5-.7.3-1.4.3-.7,0-1.4,0-.7,0-1.4,0-.7-.7-1.4-.7-.7.9-1.4.9-.7-1.1-1.4-1.1-.7.2-1.4.2-.7.8-1.4.8-.7-.3-1.4-.3-.7.2-1.4.2-.7-.2-1.4-.2-.7.1-1.4.1-.7-.3-1.4-.3-.7-.5-1.4-.5-.7.6-1.4.6-.7-.3-1.4-.3-.7.2-1.4.2-.7.2-1.4.2-.7.2-1.4.2-.7-.4-1.4-.4-.7,0-1.4,0-.7.6-1.4.6-.7-.3-1.4-.3-.7,0-1.4,0-.7,0-1.4,0-.7.1-1.4.1-.7-.4-1.4-.4-.7-.3-1.4-.3-.7.8-1.4.8-.7,0-1.4,0-.7-.3-1.4-.3-.7.3-1.4.3-.7,0-1.4,0-.7-.2-1.4-.2-.7.1-1.4.1-.7-.7-1.4-.7-.7,0-1.4,0-.7.4-1.4.4-.7-.6-1.4-.6-.7.8-1.4.8-.7-.6-1.4-.6-.7.3-1.4.3c-6.2,14.6-11,30-14.3,45.9.4,0,.5,0,1.1,0s.7-.3,1.4-.3.7.9,1.4.9.7-.1,1.4-.1.7.1,1.4.1.7-.1,1.4-.1.7-.3,1.4-.3.7-.5,1.4-.5.7.2,1.4.2.7.7,1.4.7.7-1,1.4-1,.7.3,1.4.3.7.8,1.4.8.7-1,1.4-1,.7.5,1.4.5.7.1,1.4.1.7.3,1.4.3.7,0,1.4,0,.7-.5,1.4-.5.7.1,1.4.1.7-.4,1.4-.4.7.2,1.4.2.7.4,1.4.4.7-.2,1.4-.2.7-.6,1.4-.6.7.6,1.4.6.7-.5,1.4-.5.7,0,1.4,0,.7.4,1.4.4.7-.4,1.4-.4.7.9,1.4.9.7,0,1.4,0,.7-.8,1.4-.8.7,0,1.4,0,.7.1,1.4.1.7.5,1.4.5.7-1,1.4-1,.7.5,1.4.5.7-.2,1.4-.2.7.7,1.4.7.7-.6,1.4-.6.7.2,1.4.2.7,0,1.4,0,.7-.3,1.4-.3.7.5,1.4.5.7-.2,1.4-.2.7-.3,1.4-.3.7.7,1.4.7.7-.6,1.4-.6.7.1,1.4.1.7,0,1.4,0,.7-.3,1.4-.3.7-.1,1.4-.1.7,0,1.4,0,.7.9,1.4.9.7-.9,1.4-.9.7,1,1.4,1,.7-.8,1.4-.8.7,0,1.4,0,.7.1,1.4.1.7.5,1.4.5.7,0,1.4,0,.7.1,1.4.1.7-1,1.4-1,.7.5,1.4.5.7.5,1.4.5.7-.4,1.4-.4.7-.5,1.4-.5.7.5,1.4.5.7-.4,1.4-.4.7.2,1.4.2.7.3,1.4.3.7-.3,1.4-.3.7,0,1.4,0,.7-.5,1.4-.5.7.7,1.4.7.7-.8,1.4-.8.7.6,1.4.6.7-.4,1.4-.4.7.3,1.4.3.7.7,1.4.7.7-.9,1.4-.9.7,0,1.4,0,.7.7,1.4.7.7-.5,1.4-.5.7,0,1.4,0h1.4c.7,0,.7.3,1.4.3s.7-.3,1.4-.3.7-.5,1.4-.5.7.3,1.4.3.7.2,1.4.2.7-.4,1.4-.4.7.7,1.4.7.7.3,1.4.3.7-.3,1.4-.3.7,0,1.4,0,.7-.1,1.4-.1.7,0,1.4,0,.7-.1,1.4-.1.7.2,1.4.2.7.4,1.4.4.7-.2,1.5-.2.7-.4,1.4-.4.7-.2,1.5-.2.7-.2,1.5-.2.7,1,1.5,1,1-.6,1.5-.7c.5,0,1,0,1.5,0,.5,0,1.1.2,1.5,0,.5-.1.9-.5,1.4-.7.5-.2.7-.9,1.1-1.1.4-.2,1-.2,1.4-.5.4-.3.7-.7,1.1-1,.4-.3.5-.8.9-1.2.3-.3.7-.6,1-1,.3-.4,1.2-.4,1.4-.8.3-.4.1-1.1.3-1.5.2-.4.8-.7,1-1.2.2-.5.4-.9.6-1.4.1-.5.2-1,.3-1.5,0-.5-.2-1-.2-1.5,0-.5.7-1,.7-1.5,0-.7-.2-.7-.2-1.5s-.9-.7-.9-1.4,1.1-.7,1.1-1.4Z"/>
  <path class="cls-1" d="M320.5,283.8c.1-.4.5-.8.5-1.3,0-.5.1-.9.2-1.4,0-.5.4-.9.4-1.4,0-.5-.2-.9-.2-1.4,0-.5.3-1,.2-1.5,0-.5-.8-.8-.9-1.2-.1-.5,0-1-.1-1.4-.2-.4-.1-1-.3-1.4-.2-.4-.4-.9-.7-1.3-.2-.4-.7-.7-1-1.1-.3-.4-1-.4-1.3-.8-.3-.3-.9-.4-1.2-.7-.3-.3-.5-.7-.9-1-.4-.3-.7-.6-1.1-.9-.4-.2-.9-.2-1.3-.4-.4-.2-.7-.5-1.2-.7-.4-.2-.6-1.2-1-1.4-.4-.1-.9-.3-1.4-.4-.5,0-1-.1-1.4-.1-.5,0-1,.8-1.4.8-.7,0-.7-.2-1.4-.2s-.7-.3-1.4-.3-.7.4-1.4.4-.7,0-1.4,0-.7,0-1.4,0-.7.4-1.4.4-.7-1.2-1.4-1.2-.7.6-1.4.6-.7-.4-1.4-.4-.7.8-1.4.8-.7-.4-1.4-.4-.7-.2-1.4-.2-.7.7-1.4.7-.7-1-1.4-1-.7,1-1.4,1-.7-.6-1.4-.6-.7.1-1.4.1-.7.3-1.4.3-.7-.2-1.4-.2-.7.4-1.4.4-.7-.4-1.4-.4-.7-.2-1.4-.2-.7-.2-1.4-.2-.7.2-1.4.2-.7-.5-1.4-.5-.7-.1-1.4-.1-.7.9-1.4.9-.7-.9-1.4-.9-.7,1.1-1.4,1.1-.7-1.1-1.4-1.1-.7.5-1.4.5-.7-.3-1.4-.3-.7.3-1.4.3-.7-.1-1.4-.1-.7-.2-1.4-.2-.7-.1-1.4-.1-.7.9-1.4.9-.7-.4-1.4-.4-.7.2-1.4.2-.7-1-1.4-1-.7.7-1.4.7-.7-.7-1.4-.7-.7.2-1.4.2-.7.6-1.4.6-.7.1-1.4.1-.7-.8-1.4-.8-.7,1-1.4,1-.7-.6-1.4-.6-.7-.4-1.4-.4-.7.6-1.4.6-.7,0-1.4,0-.7-.6-1.4-.6-.7,1-1.4,1-.7,0-1.4,0-.7,0-1.4,0-.7-.4-1.4-.4-.7-.3-1.4-.3-.7,0-1.4,0-.7,0-1.4,0-.7.8-1.4.8-.7-.3-1.4-.3-.7.3-1.4.3-.7,0-1.4,0-.7,0-1.4,0-.7-.4-1.4-.4-.7-.7-1.4-.7-.7.3-1.4.3-.7.1-1.4.1-.7-.2-1.4-.2-.7.3-1.5.3-.7,0-1.4,0-.7.1-1.5.1-.8.3-1.5,0c-.8-.2-.7-.8-1.4-.8s-1,.5-1.5.6c-.5,0-1-.2-1.5,0-.5,0-.8,1-1.2,1.1-.5.1-.9.3-1.3.5-.5.2-1.4-.6-1.8-.4-.4.2-.8.6-1.2.9-.4.3-.5,1-.9,1.3-.4.3-.6.8-.9,1.1-.3.3-.9.5-1.2.9-.3.4-1,.5-1.3.9-.3.4-.2,1-.5,1.5-.2.4-.3,1-.5,1.4-.2.5-.8.8-1,1.2-.1.5.3,1.1.2,1.6,0,.5-.5.9-.5,1.4,0,.5.7,1,.7,1.5,0,.7,0,.7,0,1.4s-.4.7-.4,1.4.3.7.3,1.4-.7.7-.7,1.4.4.7.4,1.4-.1.7-.1,1.4.4.7.4,1.4-.5.7-.5,1.4,0,.7,0,1.4-.3.7-.3,1.4,0,.7,0,1.4,1,.7,1,1.4-.1.7-.1,1.4-.4.7-.4,1.4-.2.7-.2,1.4-.2.7-.2,1.4-.1.7-.1,1.4.7.7.7,1.4-.3.7-.3,1.4,0,.7,0,1.4-.3.7-.3,1.4.5.7.5,1.4-.4.7-.4,1.4.2.7.2,1.4-.2.7-.2,1.4.5.7.5,1.4-.1.7-.1,1.4,0,.7,0,1.4.4.7.4,1.4-.2.7-.2,1.4-.8.7-.8,1.4.9.7.9,1.4,0,.7,0,1.4.1.7.1,1.4-.5.7-.5,1.4,0,.7,0,1.4.3.7.3,1.4.3.7.3,1.4-.4.7-.4,1.4,0,.7,0,1.4.2.7.2,1.4-.5.7-.5,1.4.1.7.1,1.4.5.7.5,1.4-.3.7-.3,1.4,0,.9,0,1.4c0,.5,0,1,0,1.4,0,.5-.3,1.1-.2,1.6.1.5,1.2.6,1.4,1,.2.4-.4,1.3-.2,1.7.2.4.8.6,1.1,1,.3.4.4.9.7,1.3.3.4.4,1,.7,1.3.3.3,1,.3,1.4.7.4.3,1,.3,1.4.6.4.3.8.5,1.2.8.5.3.7.9,1.1,1.1.5.2,1.1,0,1.6.2.5.2.9.7,1.4.8.5.1,1.1-.4,1.6-.4.5,0,1,.4,1.5.4s.9-.1,1.3-.2c.5,0,1,.7,1.5.6.4,0,.8-.6,1.3-.8.4-.1.8-.5,1.2-.7.4-.2.8-.4,1.2-.6.4-.2.7-.6,1.1-.8.6-.4.8-.1,1.4-.5.6-.4.7-.2,1.3-.6.6-.4.8-.1,1.4-.5.6-.4.4-.7,1.1-1,.6-.4.7-.2,1.3-.6.6-.4.3-.9.9-1.3s.9.1,1.5-.2.8-.1,1.4-.5c.6-.4.3-.9.9-1.3.6-.4.5-.5,1.1-.9s.8-.1,1.4-.5c.6-.4.9.1,1.5-.2.6-.4.3-.9.9-1.3.6-.4.8-.1,1.4-.5.6-.4.5-.6,1.1-1,.6-.4.9,0,1.5-.3.6-.4.2-1.1.8-1.4.6-.4,1.1.4,1.7,0,.6-.4.3-.9.9-1.3.6-.4.5-.6,1.1-.9.6-.4.7-.3,1.3-.6.6-.4.7-.3,1.3-.6.6-.4.4-.6,1.1-1,.6-.4.7-.2,1.3-.6.6-.4.5-.5,1.2-.9.6-.4.7-.2,1.3-.6.6-.4.8,0,1.5-.4.6-.4.5-.5,1.1-.9.6-.4.4-.8,1-1.2.6-.4.6-.5,1.2-.8.6-.4,1.1.4,1.7,0,.6-.4.4-.7,1-1.1.6-.4.7-.3,1.3-.7s.5-.6,1.1-1c.6-.4.7-.2,1.3-.5.6-.4.5-.5,1.1-.9s.8,0,1.4-.4c.6-.4.2-1,.8-1.4.6-.4.9.1,1.5-.2.6-.4.4-.7,1-1.1.6-.4.7-.3,1.3-.6.6-.4.6-.3,1.3-.7.6-.4.6-.5,1.2-.8s1,.3,1.6,0c.6-.4.4-.7,1-1,.6-.4.8,0,1.4-.4.6-.4.6-.4,1.2-.8.6-.4.6-.3,1.3-.7.6-.4.4-.7,1-1.1.6-.4.5-.5,1.1-.9.6-.4.6-.4,1.2-.8.6-.4,1,.2,1.6-.2.6-.4.6-.4,1.2-.8s.6-.5,1.2-.8c.6-.4.5-.6,1.1-1,.6-.4.6-.4,1.2-.8.6-.4.7-.2,1.3-.6.6-.4.4-.8,1-1.2.6-.4.8,0,1.5-.4.6-.4.8,0,1.4-.4.6-.4.2-1.1.8-1.5.6-.4.5-.6,1.1-.9.6-.4.8,0,1.4-.5.6-.4.7-.3,1.3-.6.6-.4.6-.3,1.2-.7.6-.4.7-.3,1.3-.7.6-.4.3-1,.9-1.3.6-.4.8,0,1.4-.4.6-.4.6-.4,1.2-.8.6-.4.9,0,1.5-.3.6-.4.4-.7,1-1.1.6-.4.8,0,1.4-.4.6-.4.6-.3,1.3-.7.6-.4.3-.9.9-1.2.6-.4,1.1.4,1.7,0,.6-.4.4-.7,1-1.1.6-.4.6-.4,1.2-.8.6-.4.6-.3,1.3-.7.6-.4.7-.2,1.3-.6.6-.4.4-.8,1-1.1.6-.4.9,0,1.5-.3.6-.4.3-1,.9-1.3.6-.4.6-.5,1.2-.8.6-.4.8,0,1.4-.4.6-.4.4-.7,1-1.1.6-.4.7-.3,1.3-.6.6-.4.7-.3,1.3-.7.4-.2,1.2.1,1.6-.1.4-.3.3-1.2.6-1.5.3-.3,1.2,0,1.5-.4.3-.3.4-.9.7-1.3.3-.4.6-.8.8-1.2.2-.4.6-.8.8-1.2.2-.4-.2-1.1,0-1.5.2-.4.4-.8.6-1.3Z"/>
</svg>