<?xml version="1.0" encoding="UTF-8"?>
<svg id="_アイコン" data-name="アイコン" xmlns="http://www.w3.org/2000/svg" version="1.1" viewBox="0 0 500 500">
  <defs>
    <style>
      .cls-1 {
        fill: #fff;
        stroke-width: 0px;
      }
    </style>
  </defs>
  <path class="cls-1" d="M130.1,67c.7,0,.7-.2,1.4-.2s.7.3,1.4.3.7-.3,1.4-.3.7.8,1.4.8.7-.9,1.4-.9.7.3,1.4.3.7.3,1.4.3.7-.6,1.4-.6.7.3,1.4.3.7-.5,1.4-.5.7,0,1.4,0,.7.2,1.4.2.7.9,1.4.9.7-.3,1.4-.3.7-.6,1.4-.6.7.1,1.4.1.7.7,1.4.7.7-.1,1.4-.1.7-.4,1.4-.4.7.1,1.4.1.7,0,1.4,0,.7.1,1.4.1.7-.5,1.4-.5.7,0,1.4,0,.7.7,1.4.7.7-.4,1.4-.4.7,0,1.4,0,.7-.2,1.4-.2.7.3,1.4.3.7-.6,1.4-.6.7,0,1.4,0,.7,0,1.4,0,.7,0,1.4,0,.7,0,1.4,0,.7.6,1.4.6.7-.5,1.4-.5.7-.1,1.4-.1.7.9,1.4.9.7-.6,1.4-.6.7,0,1.5,0,.7-.3,1.4-.3.7.2,1.4.2.7,0,1.4,0,.7.4,1.4.4.7.1,1.4.1.7-1,1.4-1,.7,0,1.5,0,.7.2,1.4.2.7,0,1.4,0,.7.6,1.4.6.7,0,1.5,0,.7-.3,1.5-.3.7-.2,1.4-.2.7,0,1.4,0,.7-.3,1.5-.3.7,1.1,1.4,1.1.7-.5,1.5-.5.7,0,1.5,0,.7,0,1.5,0,.7.5,1.4.5.7-.2,1.4-.2.7.2,1.5.2.7-.2,1.5-.2.7-.3,1.5-.3.7.1,1.5.1.7-.5,1.5-.5.7,0,1.5,0,.7.2,1.5.2.7.3,1.5.3.9-.5,1.4-.6c.5,0,1,.2,1.5.1.5,0,1.1.3,1.6.2.5-.1,1-.2,1.5-.4.5-.2.6-1.1,1-1.3.4-.2.8-.6,1.2-.8.4-.3,1.1-.1,1.5-.4.4-.3,1-.4,1.3-.8s.5-.9.8-1.3c.3-.4.8-.7,1-1.1.3-.4.5-.9.7-1.3.2-.4-.2-1.2,0-1.6.2-.5,1-.7,1.2-1.1.1-.5-.5-1.1-.4-1.6,0-.5.8-.8.8-1.3,0-.5.5-1,.5-1.5,0-.7-.4-.7-.4-1.4s.4-.7.4-1.4-.6-.7-.6-1.4,0-.7,0-1.4.2-.7.2-1.4-.5-.7-.5-1.4.9-.7.9-1.4-.3-.7-.3-1.4-.5-.7-.5-1.4,0-.7,0-1.4.7-.7.7-1.4-.6-.7-.6-1.4.4-.7.4-1.4-.7-.7-.7-1.4.8-.7.8-1.4-.1-.7-.1-1.4-.1-.7-.1-1.4.4-.7.4-1.4,0-.7,0-1.4-.5-.7-.5-1.4-.1-.7-.1-1.4-.2-.7-.2-1.4.6-.7.6-1.4,0-.7,0-1.4,0-.7,0-1.4.1-.7.1-1.4-.3-.7-.3-1.4-.5-.7-.5-1.4.8-.7.8-1.4,0-.7,0-1.4-.6-.7-.6-1.4.6-.7.6-1.4-.7-.7-.7-1.4,0-.7,0-1.4.4-.7.4-1.4.1-.7.1-1.4,0-.4-.2-.5c-64,1.2-122.1,26.5-165.7,67.2h.2c.7,0,.7-.4,1.4-.4s.7.2,1.4.2.7.3,1.4.3.7-.4,1.4-.4.7.4,1.4.4.7-.4,1.4-.4.7.3,1.4.3.7.1,1.4.1.7-.4,1.4-.4.7.5,1.4.5.7,0,1.4,0,.7-.8,1.4-.8.7,0,1.4,0,.7,0,1.4,0,.7-.1,1.4-.1.7.2,1.4.2.7.2,1.4.2.7.2,1.4.2.7-.5,1.4-.5.7.2,1.4.2.7.7,1.4.7.7-.2,1.4-.2.7,0,1.4,0,.7.5,1.4.5.7-.7,1.4-.7.7,0,1.4,0,.7.2,1.4.2.7.3,1.4.3.7-.4,1.4-.4.7.5,1.4.5.7-.6,1.4-.6.7-.4,1.4-.4.7,0,1.4,0,.7,0,1.4,0,.7.4,1.4.4Z"/>
  <path class="cls-1" d="M82.8,124.2c0,.7-.2.7-.2,1.5s.2.7.2,1.5,0,1,0,1.5c0,.5.1,1,.2,1.5,0,.5.9.8,1,1.3.1.5-.2,1.1,0,1.6.2.5,1.1.6,1.3,1,.2.4.2,1,.5,1.4.3.4.1,1.1.5,1.5.3.4,1,.4,1.3.8.3.3.5.9.9,1.2.4.3,1,.4,1.4.6.4.3.5,1.1,1,1.3.4.2,1,.2,1.5.4.5.2.9.6,1.3.8.5.1,1,.3,1.5.4.5,0,1.1-.8,1.6-.8.5,0,.9.8,1.4.8.7,0,.7-.7,1.4-.7s.7.6,1.4.6.7.3,1.4.3.7,0,1.4,0,.7-.9,1.4-.9.7.7,1.4.7.7.2,1.4.2.7,0,1.4,0,.7,0,1.4,0,.7-.9,1.4-.9,1,.8,1.5.8c.5,0,.9-.7,1.4-.8.5,0,1-.2,1.4-.3.5-.1,1,0,1.5-.3.5-.2.7-.8,1.1-1.1.4-.2,1.1,0,1.5-.4.4-.3.4-1.1.8-1.4.4-.3.7-.6,1.1-.9.3-.3,1.1-.3,1.4-.7.3-.4.8-.7,1-1.1.3-.4.3-1,.6-1.4.2-.4.8-.7,1-1.2.2-.5-.6-1.3-.5-1.7.1-.5.7-.8.8-1.3,0-.5.2-1,.2-1.5,0-.5,0-1,0-1.5,0-.7.7-.7.7-1.5s-.8-.7-.8-1.5.4-.7.4-1.5.3-.7.3-1.5-.2-.7-.2-1.5-.3-.7-.3-1.5.5-.7.5-1.5-.3-.7-.3-1.5.3-.7.3-1.5,0-.7,0-1.5-.2-.7-.2-1.5,0-.7,0-1.5,0-.7,0-1.5.2-.7.2-1.5-.6-.7-.6-1.5.8-.7.8-1.5,0-.7,0-1.5-1-.7-1-1.5.7-.7.7-1.5.3-.7.3-1.5-.4-.7-.4-1.5,0-.7,0-1.5.4-.7.4-1.5-.5-.7-.5-1.5-.5-.9-.5-1.4c0-.5.2-1,.1-1.5,0-.5.2-1.1,0-1.5-.1-.5-.1-1-.3-1.5-.2-.5-1-.6-1.3-1-.2-.4.2-1.3,0-1.7-.3-.4-1.1-.4-1.4-.8-.3-.4-.2-1.2-.5-1.6s-1.4.1-1.8-.2c-.4-.3-.1-1.5-.5-1.8-.4-.3-.9-.5-1.4-.7-.4-.2-.9-.4-1.4-.6-.5-.2-.9-.4-1.4-.5-.5-.1-1,0-1.5,0-.5,0-1-.3-1.4-.4-.5,0-1,.6-1.5.6-.7,0-.7-.6-1.4-.6s-.7.4-1.4.4-.7.1-1.4.1-.7-.3-1.4-.3-.7-.2-1.4-.2-.7,0-1.4,0-.7-.5-1.4-.5-.7.2-1.4.2-.7,0-1.4,0c-.7,0-.8.2-1.5.2s-.9.7-1.4.7c-.5,0-1-.3-1.5-.2-.5,0-1,0-1.5.1-.5.1-1,.2-1.5.3-.5.2-.7.9-1.1,1.2-.4.2-1.2,0-1.6.2-.4.3-.4,1.2-.8,1.5-.4.3-.5.9-.8,1.2-.3.3-.9.5-1.2.8-.3.4-.6.7-.9,1.1-.3.4-.7.7-1,1.1-.2.4-.4.9-.5,1.4-.2.5-.7.8-.9,1.3-.1.5.5,1.1.4,1.6,0,.5-1,.8-1.1,1.3,0,.5-.1,1-.1,1.5,0,.7.7.7.7,1.5s0,.7,0,1.5.2.7.2,1.5,0,.7,0,1.5-.6.7-.6,1.5,0,.7,0,1.5.6.7.6,1.5-.8.7-.8,1.5.9.7.9,1.5,0,.7,0,1.5-.5.7-.5,1.5.4.7.4,1.5-.4.7-.4,1.5.3.7.3,1.5-.6.7-.6,1.5.9.7.9,1.5-.8.7-.8,1.5.4.7.4,1.5,0,.7,0,1.5.4.7.4,1.5-.5.7-.5,1.5-.1.7-.1,1.5Z"/>
  <path class="cls-1" d="M127.3,175.9c0-.7-.4-.7-.4-1.5s0-.7,0-1.5.3-.7.3-1.5-.1-.7-.1-1.5,0-.7,0-1.5.7-.7.7-1.5-.7-1-.8-1.4c0-.5,0-1-.2-1.4,0-.5.4-1.1.2-1.6-.1-.5-.8-.8-1-1.2-.2-.5-.5-.8-.8-1.3-.2-.4.1-1.2-.1-1.7-.3-.4-.9-.6-1.2-1-.3-.4-.8-.6-1.1-1s-.9-.4-1.3-.7c-.4-.3-.6-.8-1-1.1-.4-.3-.7-.8-1.1-1-.4-.2-1-.2-1.5-.3-.5-.2-1-.1-1.4-.3-.5-.1-.9-.2-1.4-.3-.5,0-.9-.7-1.4-.7-.5,0-1,0-1.5,0-.7,0-.7,0-1.4,0s-.7,0-1.4,0-.7-.1-1.4-.1-.7.4-1.4.4-.7,0-1.4,0-.7.2-1.4.2-.7-.2-1.4-.2-.7.4-1.4.4-.7,0-1.4,0-.7,0-1.4,0-.7-.8-1.4-.8-.7.5-1.4.5-.7-.7-1.4-.7-.7.7-1.4.7-.7-.5-1.4-.5-.7.8-1.4.8-.7-.6-1.4-.6-.7-.1-1.4-.1-.7-.1-1.4-.1-.7.5-1.4.5-.7-.2-1.4-.2-.7.3-1.4.3-.7-.4-1.4-.4-.7.6-1.4.6-1-.9-1.5-1.1c-.5-.2-1.2,0-1.6-.3-.4-.3-.7-.8-1-1.3-.3-.4-.6-.9-.8-1.4-.2-.5-.3-1-.3-1.6s-.2-.7-.2-1.4.8-.7.8-1.4-.6-.7-.6-1.4-.1-.7-.1-1.4-.1-.7-.1-1.4.7-.7.7-1.4-.7-.7-.7-1.4.8-.7.8-1.4-.2-.7-.2-1.4,0-.7,0-1.4.2-.7.2-1.4-.2-.7-.2-1.4-.7-.7-.7-1.4.3-.7.3-1.4-.2-.7-.2-1.4.4-.7.4-1.4.5-.7.5-1.4,0-.7,0-1.4,0-.7,0-1.4-.2-.7-.2-1.4-.6-.7-.6-1.4.3-.7.3-1.4,0-.7,0-1.4-.1-.7-.1-1.4.2-.7.2-1.4.1-.7.1-1.4.1-.7.1-1.4-.4-.7-.4-1.4.1-.7.1-1.4.4-.7.4-1.4-.9-.7-.9-1.4.3-.7.3-1.4.4-.7.4-1.4.2-.7.2-1.4-.3-.7-.3-1.4-.4-.7-.4-1.4.8-.7.8-1.4-.3-.7-.3-1.4-.4-.7-.4-1.4,0-.7,0-1.4-.3-.7-.3-1.4.6-.7.6-1.4.4-.7.4-1.4-1.1-.7-1.1-1.4.3-.7.3-1.4,0-.7,0-1.4.7-.7.7-1.4-.6-.7-.6-1.4.6-.7.6-1.4-.6-.7-.6-1.4-.2-.7-.3-1.3C35,111.6,9.5,161.5,2.2,217.1c0,0,.2,0,.3,0,.7,0,.7-.3,1.4-.3s.7.4,1.4.4.7.2,1.4.2.7,0,1.4,0,.7,0,1.4,0,.7-.8,1.4-.8.7.5,1.4.5.7.4,1.4.4.7-.3,1.4-.3.7-.4,1.4-.4.7.3,1.4.3.7-.3,1.4-.3.7-.2,1.4-.2.7,0,1.4,0,.7.3,1.4.3.7.5,1.4.5.7-.5,1.4-.5.7,0,1.4,0,.7.5,1.4.5.7-.3,1.4-.3.7-.6,1.4-.6.7.4,1.4.4.7-.3,1.4-.3.7.3,1.4.3.7.1,1.4.1.7.4,1.4.4.7-.6,1.4-.6.7,0,1.4,0,.7-.3,1.4-.3.7.8,1.4.8.7-.2,1.4-.2.7-.5,1.4-.5.7-.3,1.4-.3.7.2,1.4.2.7.8,1.4.8.7,0,1.4,0,.7-.7,1.4-.7.7-.1,1.4-.1.7-.1,1.4-.1.7.1,1.4.1.7,0,1.4,0,.7,0,1.4,0,.7.8,1.4.8.7-.5,1.4-.5.7.4,1.4.4.7-.7,1.4-.7.7.6,1.4.6.7-.2,1.4-.2.7.3,1.4.3.7-.4,1.4-.4.7.4,1.4.4.7,0,1.4,0,.7-.3,1.4-.3.7.4,1.4.4.7.1,1.4.1.7-.2,1.4-.2.7-.2,1.4-.2.7.2,1.4.2.7-.3,1.4-.3.7-.3,1.4-.3.7,0,1.4,0,.7.9,1.5.9.7-.6,1.4-.6.7,0,1.5,0,.7.6,1.4.6.7-.4,1.5-.4.7,0,1.4,0,.7.4,1.4.4.7,0,1.5,0,.7-.8,1.4-.8.7.9,1.5.9.7-.5,1.5-.5.7,0,1.5,0,.7.2,1.5.2.7-.2,1.5-.2.7.5,1.5.5,1-.2,1.5-.3c.5,0,1,0,1.5-.1.5,0,1-.2,1.5-.3.5-.1.8-.8,1.2-1,.5-.2.8-.7,1.2-.9.4-.2.8-.5,1.2-.8.4-.3,1.2,0,1.5-.4.4-.3.3-1.1.6-1.5s1.1-.3,1.4-.7c.3-.4,1-.5,1.2-.9.3-.4.4-.9.7-1.4.2-.4.5-.9.6-1.4.2-.5,0-1.1.2-1.5.1-.5.3-.9.4-1.4,0-.5-.1-1,0-1.5,0-.5.6-1,.6-1.5,0-.7-.8-.7-.8-1.5s0-.7,0-1.5.3-.7.3-1.5-.1-.7-.1-1.5.6-.7.6-1.5-1-.7-1-1.5,1-.7,1-1.5-.6-.7-.6-1.5.4-.7.4-1.5-.5-.7-.5-1.5.3-.7.3-1.5.4-.7.4-1.5-1.1-.7-1.1-1.5,0-.7,0-1.5.6-.7.6-1.5,0-.7,0-1.5.5-.7.5-1.5-.6-.7-.6-1.5Z"/>
  <path class="cls-1" d="M417.4,266.9c0-.7-.6-.7-.6-1.5s.5-.7.5-1.5-.5-.7-.5-1.5.5-.7.5-1.5-.4-.7-.4-1.5.3-.7.3-1.5-.7-.7-.7-1.5.2-.7.2-1.5.3-.7.3-1.5-.2-.7-.2-1.5-.6-.7-.6-1.5,0-.7,0-1.5,0-.7,0-1.5,0-.7,0-1.5.5-.7.5-1.5.4-.7.4-1.5,0-.7,0-1.5-.3-1-.4-1.5c0-.5.3-1.1.2-1.6,0-.5-.6-.9-.7-1.4-.1-.5-.3-1-.4-1.4-.2-.5-.5-.8-.8-1.3-.2-.4-.7-.7-1-1.1-.3-.4-.2-1-.6-1.4-.3-.4-1.2-.2-1.6-.5-.3-.3-.7-.7-1-1-.4-.3-.4-1-.9-1.3-.4-.3-.7-.8-1.1-1.1-.4-.2-.9-.5-1.4-.7-.5-.2-.9-.5-1.4-.7-.5-.1-1.1.2-1.6.1-.5,0-.9-.4-1.4-.4-.5,0-1-.2-1.5-.2-.7,0-.7,0-1.4,0s-.7,0-1.4,0-.7,0-1.4,0-.7,0-1.4,0-.7.3-1.4.3-.7-.5-1.4-.5-.7.7-1.4.7-.7-.8-1.4-.8-.7.2-1.4.2-.7-.4-1.4-.4-.7,0-1.4,0-.7.4-1.4.4-.7-.4-1.4-.4-.7.5-1.4.5-.7.2-1.4.2-.7-.2-1.4-.2-.7-.6-1.4-.6-.7.8-1.4.8-.7.2-1.4.2-.7-.6-1.4-.6-.7.4-1.4.4-.7,0-1.4,0-.7-.8-1.4-.8-.7.1-1.4.1-.7.2-1.4.2-.7-.4-1.4-.4-.7,0-1.4,0-.7.4-1.4.4-.7.4-1.4.4-.7-.8-1.4-.8-.7.9-1.4.9-.7-.4-1.4-.4-.7,0-1.4,0-.7-.6-1.4-.6-.7,0-1.4,0-.7.9-1.4.9-.7-.2-1.4-.2-.7-.8-1.4-.8-.7,0-1.4,0-.7.9-1.4.9-.7-.4-1.4-.4-.7,0-1.4,0-.7,0-1.4,0-.7-.5-1.4-.5-.7.4-1.4.4-.7,0-1.4,0-.7-.1-1.4-.1-.7.4-1.4.4-.7,0-1.4,0-.7-.2-1.4-.2-.7-.1-1.4-.1-.7.3-1.4.3-.7.2-1.4.2-.7-.2-1.4-.2-.7.1-1.4.1-.7-.1-1.4-.1-.7,0-1.4,0-.7.3-1.4.3-.7-.5-1.4-.5-.7-.1-1.4-.1-.7.5-1.4.5-.7,0-1.4,0-.7-.2-1.4-.2-.7-.6-1.4-.6-.7.4-1.4.4-.7,0-1.5,0-.7.3-1.4.3-.7-.3-1.4-.3-.7.2-1.4.2-.7-.7-1.4-.7-.7.6-1.4.6-.7.3-1.4.3-.7,0-1.5,0-.7,0-1.4,0-.7-.6-1.4-.6-.7-.3-1.4-.3-.7,0-1.5,0-.7.9-1.5.9-.7-.9-1.4-.9-.7.4-1.4.4-.7,0-1.5,0-.7,0-1.4,0-.7.6-1.5.6-.7-.4-1.5-.4-.7-.2-1.5-.2-.7.7-1.4.7-.7-.7-1.4-.7-.7.6-1.5.6-.7-.6-1.5-.6-.7.8-1.5.8-.7-.3-1.5-.3-.7-.1-1.5-.1-.7-.5-1.5-.5-.7.6-1.5.6-.7-.7-1.5-.7-1,.2-1.5.3c-.5,0-.9.7-1.4.8-.5.1-1.2-.5-1.6-.3-.5.2-1,.3-1.5.5-.5.2-.9.6-1.3.8-.4.2-.9.6-1.3.8-.4.3-.4,1.2-.7,1.5-.4.3-1.2.1-1.6.5-.1.1.2.7,0,.8-.5.5-.6.4-1.1.9s-.8.2-1.3.7-.7.3-1.2.9c-.5.5-.1.9-.6,1.4s-1,0-1.5.5c-.5.5-.2.9-.7,1.4-.5.5-.3.8-.8,1.3-.5.5-.5.5-1,1-.5.5-.9.1-1.4.6-.5.5-.1.9-.7,1.4-.5.5-.5.5-1,1-.5.5-.4.6-.9,1.1-.5.5-1.1,0-1.6.4-.5.5-.4.7-.9,1.2-.5.5-.3.8-.8,1.3-.5.5-.6.4-1.1.9-.5.5-.3.7-.8,1.2-.5.5-.9,0-1.4.6-.5.5-.5.5-1,1-.5.5-.5.5-1,1q-.5.5-1,1c-.5.5-.2.8-.7,1.3-.5.5-.8.2-1.3.7-.5.5-.2.8-.7,1.3-.5.5-.3.7-.8,1.2-.5.5-1,0-1.5.6-.5.5-.6.4-1.1.9-.5.5-.5.5-1,1-.5.5-.6.4-1.1.9-.5.5-.2.9-.7,1.4s-.7.3-1.2.8c-.5.5-.2.8-.7,1.3-.5.5-.2.8-.7,1.3-.5.5-1,0-1.5.5-.5.5-.3.7-.8,1.2-.5.5-.8.2-1.3.7-.5.5-.2.9-.7,1.4-.5.5-.4.6-.9,1.2-.5.5-.9,0-1.4.6-.5.5-.6.4-1.1.9-.5.5,0,1.1-.5,1.6-.5.5-.6.5-1.1,1-.5.5-.5.6-1,1.1-.5.5-.7.3-1.2.8-.5.5-.8.2-1.3.7-.5.5-.2.8-.7,1.3-.5.5-.4.6-.9,1.1s-.6.4-1.1,1c-.5.5-.4.6-.9,1.1-.5.5-.7.3-1.2.8-.5.5-.2.9-.7,1.4-.5.5-.9,0-1.4.6-.5.5-.5.5-1,1-.5.5-.2.8-.7,1.3-.5.5-.8.2-1.3.8-.5.5-.8.2-1.3.7-.5.5-.6.4-1.1.9-.5.5,0,1-.5,1.5-.5.5-.7.3-1.2.8-.5.5-.3.7-.8,1.3-.5.5-.4.7-.9,1.2-.5.5-.9,0-1.5.6-.5.5,0,1-.5,1.6-.5.5-1,0-1.6.5-.5.5,0,1-.6,1.5-.5.5-.7.4-1.2.9-.5.5-.5.5-1,1-.5.5-.9,0-1.4.6-.5.5,0,1.1-.5,1.6-.5.5-.9.1-1.4.6-.5.5,0,1-.5,1.5-.5.5-.6.4-1.1.9-.5.5-1,0-1.6.5-.5.5-.1.9-.6,1.4-.5.5-.3.7-.8,1.3-.5.5-.6.4-1.1.9-.5.5-.8.2-1.3.8-.5.5-.7.3-1.2.8-.5.5,0,1.1-.4,1.6-.5.5-1,0-1.5.5-.5.5-.6.3-1.2.8-.6.5-.4.7-.9,1.3-.3.4-.2,1.1-.5,1.5-.3.4-.9.5-1.2.9-.3.4-.7.7-1,1.2-.2.4-.6.8-.8,1.3-.2.5.2,1.1,0,1.6-.1.5-.9.8-1,1.3,0,.5.5,1.1.5,1.6,0,.5.2,1,.2,1.4,0,.5-.3,1-.3,1.5,0,.5,0,1,.2,1.4,0,.5,0,1,.1,1.5.1.5.4.9.6,1.4s0,1.1.3,1.5c.2.4,1.2.5,1.4.9.3.4-.1,1.3.2,1.7.3.4.7.8,1,1.1.3.3,1.2.1,1.6.4.4.3.7.7,1.1.9.4.3.9.3,1.3.6.4.2.9.4,1.3.6.5.2.7.9,1.2,1.1.5.1,1,.3,1.4.4.5,0,1-.4,1.5-.3.5,0,.9.9,1.4.9.7,0,.7-.9,1.4-.9s.7,0,1.4,0,.7.5,1.4.5.7-.4,1.4-.4.7.4,1.4.4.7-.3,1.4-.3.7.6,1.4.6.7-.9,1.4-.9.7.8,1.4.8.7-.4,1.4-.4.7,0,1.4,0,.7-.4,1.4-.4.7.5,1.4.5.7.1,1.4.1.7.2,1.4.2.7-.2,1.4-.2.7,0,1.4,0,.7,0,1.4,0,.7-.7,1.4-.7.7.5,1.4.5.7-.7,1.4-.7.7.3,1.4.3.7.5,1.4.5.7-.5,1.4-.5.7.3,1.4.3.7-.3,1.4-.3.7.6,1.4.6.7-.3,1.4-.3.7.3,1.4.3.7,0,1.4,0,.7-1,1.4-1,.7.7,1.4.7.7-.7,1.4-.7.7.6,1.4.6.7.3,1.4.3.7,0,1.4,0,.7-.9,1.4-.9.7.7,1.4.7.7.2,1.4.2.7,0,1.4,0,.7,0,1.4,0,.7-.9,1.4-.9.7.8,1.4.8.7-.5,1.4-.5.7,0,1.4,0,.7.2,1.4.2.7-.5,1.4-.5.7.5,1.4.5.7-.6,1.4-.6.7,0,1.4,0,.7.6,1.4.6.7.2,1.4.2.7-.2,1.4-.2.7.4,1.4.4.7-1.1,1.4-1.1.7.5,1.4.5.7,0,1.4,0,.7-.2,1.4-.2.7.7,1.4.7.7-.8,1.4-.8.7.4,1.4.4.7.3,1.4.3.7-.2,1.4-.2.7-.3,1.4-.3.7.5,1.4.5.7-.3,1.4-.3.7.3,1.4.3.7,0,1.4,0,.7-.2,1.4-.2.7,0,1.4,0,.7,0,1.4,0,.7.2,1.4.2.7-.6,1.4-.6.7.8,1.4.8.7,0,1.4,0,.7-1,1.4-1,.7.7,1.4.7.7.3,1.4.3.7-.4,1.4-.4.7,0,1.4,0,.7.4,1.4.4.7-.5,1.4-.5.7-.5,1.4-.5.7.3,1.4.3.7.4,1.4.4.7.2,1.4.2.7-.7,1.4-.7.7.8,1.4.8.7-.7,1.4-.7.7.7,1.4.7.7-1.1,1.4-1.1.7,1.1,1.4,1.1.7,0,1.4,0,.7,0,1.4,0,1,0,1.5,0c.5,0,1-.4,1.4-.5.5,0,1,0,1.5-.2.5-.1.7-.9,1.2-1.1.5-.2,1.1.1,1.6,0,.4-.2.7-.8,1.1-1.1.4-.3.7-.7,1.1-1,.4-.3.9-.4,1.3-.8.3-.3.8-.6,1.1-1,.3-.4.6-.8.8-1.2.3-.4,1-.6,1.2-1,.2-.4.2-1,.4-1.5.2-.5.5-.9.6-1.4.1-.5,0-1.1,0-1.5,0-.5.3-1,.4-1.4,0-.5-.2-1-.2-1.5,0-.7.3-.7.3-1.5s.3-.7.3-1.5-.7-.7-.7-1.5,0-.7,0-1.5,0-.7,0-1.5.3-.7.3-1.5-.8-.9-.8-1.4c0-.5.5-1.1.4-1.5,0-.5-.3-.9-.5-1.4-.1-.5-.6-.8-.7-1.3-.2-.5-.5-.8-.8-1.2-.2-.4-.2-1-.5-1.4-.3-.4-.9-.5-1.2-.9-.3-.4-.5-.8-.9-1.1-.3-.3-.2-1.3-.5-1.6-.4-.3-.8-.6-1.2-.9-.4-.3-.9-.4-1.4-.6-.4-.2-1.2.2-1.6,0-.5-.2-.6-1.1-1.1-1.3-.5-.1-1-.1-1.5-.2-.5,0-1,0-1.5-.1-.5,0-1,.3-1.5.3-.7,0-.7-.4-1.4-.4s-.7.4-1.4.4-.7-.6-1.4-.6-.7.5-1.4.5-.7-.4-1.4-.4-.7.7-1.4.7-.7,0-1.4,0-.7-.9-1.4-.9-.7,1-1.4,1-.7-.4-1.4-.4-.7.2-1.4.2-.7-.3-1.4-.3-.7.5-1.4.5-.7-.2-1.4-.2-.7,0-1.4,0-.7-.6-1.4-.6-.7.3-1.4.3-.7.5-1.4.5-.7-.8-1.4-.8-.7.1-1.4.1-.7.7-1.4.7-.7-.4-1.4-.4-.7-.5-1.4-.5-.7.8-1.4.8-.7-.1-1.4-.1-.7-.6-1.4-.6-.7,1-1.4,1-.7-.7-1.4-.7-.7-.2-1.4-.2-.7.9-1.4.9-.7,0-1.4,0-.7-.7-1.4-.7-.7-.1-1.4-.1-.7.4-1.4.4-.7-.5-1.4-.5-.7.4-1.4.4-.7.1-1.4.1-.7-.6-1.4-.6-.7.5-1.4.5-.7,0-1.4,0-.7.4-1.4.4-.7-.9-1.4-.9-.7.7-1.4.7-.7.2-1.4.2-.7-.7-1.4-.7-.7.2-1.4.2-.9-.4-1.4-.6c-.5-.2-1-.1-1.4-.4-.4-.3-.6-.7-.9-1.2-.3-.4-.5-.7-.7-1.3-.2-.5-.8-.9-.8-1.4s-.3-1.2,0-1.7c.2-.5,1.1-.7,1.4-1.1.3-.4.2-1.3.6-1.6.4-.3,1.2,0,1.7,0,.5-.2.9,0,1.4,0s.7-1,1.4-1,.7.1,1.4.1.7.2,1.4.2.7.6,1.4.6.7,0,1.4,0,.7-.1,1.4-.1.7-.4,1.4-.4.7.2,1.4.2.7-.6,1.4-.6.7,1,1.4,1,.7,0,1.4,0,.7-.5,1.4-.5.7-.4,1.4-.4.7.4,1.4.4.7-.2,1.4-.2.7,0,1.4,0,.7-.3,1.4-.3.7,0,1.4,0,.7.8,1.4.8.7.2,1.4.2.7,0,1.4,0,.7-.2,1.4-.2.7-.8,1.4-.8.7.8,1.4.8.7-.2,1.4-.2.7.2,1.4.2.7-.4,1.4-.4.7-.3,1.4-.3.7,0,1.4,0,.7,0,1.4,0,.7.7,1.4.7.7-.5,1.4-.5.7.3,1.4.3.7,0,1.4,0,.7,0,1.4,0,.7-.7,1.4-.7.7.5,1.4.5.7.3,1.4.3.7-.4,1.4-.4.7,0,1.4,0,.7.6,1.4.6.7-1,1.4-1,.7.9,1.4.9.7.2,1.4.2.7-.3,1.4-.3.7,0,1.4,0,.7-.5,1.4-.5.7-.3,1.4-.3.7.7,1.4.7.7,0,1.4,0,.7,0,1.4,0,.7-.6,1.4-.6.7.8,1.4.8.7-.9,1.4-.9.7,0,1.4,0,.7.4,1.4.4.7.5,1.4.5.7-.7,1.4-.7.7.2,1.4.2.7-.1,1.4-.1.7.2,1.4.2.7.1,1.4.1.7-.4,1.4-.4.7.4,1.4.4.7-.1,1.4-.1.7-.1,1.4-.1.7.3,1.4.3.7.3,1.4.3.7-.8,1.4-.8.7-.1,1.4-.1.7.5,1.4.5.7.3,1.4.3.7-.1,1.4-.1.7.2,1.4.2.7,0,1.4,0,.7-.8,1.5-.8.7.9,1.4.9.7-1.1,1.4-1.1.7.5,1.4.5.7,0,1.4,0,.7.4,1.4.4.7,0,1.4,0,.7-.9,1.5-.9.7.2,1.4.2.7.4,1.4.4.7.1,1.4.1.7,0,1.5,0,.7-.6,1.5-.6.7.6,1.4.6.7,0,1.4,0,.7-.5,1.5-.5.7,0,1.4,0,.7-.1,1.5-.1.7.7,1.5.7.7-.7,1.5-.7.7.7,1.4.7.7-.2,1.4-.2.7-.6,1.5-.6.7.2,1.5.2.7-.2,1.5-.2.7,0,1.5,0,.7.7,1.5.7.7-.2,1.5-.2.7,0,1.5,0,.7-.2,1.5-.2,1,0,1.4,0c.5,0,.9-.3,1.4-.4.5,0,.9-.3,1.4-.4.5-.1,1,0,1.4-.3.5-.2.8-.6,1.2-.8.4-.2,1.1,0,1.5-.3.4-.3,1-.4,1.3-.7.4-.3.6-.8.9-1.2.3-.3.7-.7,1-1,.3-.4.6-.8.8-1.2.3-.4.2-1,.4-1.4.2-.4.6-.8.8-1.2.2-.5.2-.9.4-1.4.1-.5,1-.8,1.1-1.2,0-.5-.5-1.1-.4-1.6,0-.5.4-1,.4-1.4,0-.7-.3-.7-.3-1.5s0-.7,0-1.5,0-.7,0-1.5.3-.7.3-1.5-.5-.7-.5-1.5.4-.7.4-1.5.5-.7.5-1.5Z"/>
  <path class="cls-1" d="M137.9,302c.1.5,0,1.1.2,1.5.2.5.4,1,.6,1.4.2.4,1.3.4,1.5.8.3.4,0,1.2.3,1.6.3.4.5.9.9,1.2.3.3.7.7,1.1,1,.4.3.8.7,1.2,1,.4.3,1.3-.2,1.7,0,.4.2.5,1.2,1,1.4.5.2,1.1-.1,1.6,0,.5.1.9.3,1.4.4.5,0,.9.4,1.4.5.5,0,1-.4,1.5-.4.5,0,1,.4,1.5.4.5,0,.9-.7,1.4-.8s.9-.2,1.4-.3c.5-.1,1.1.3,1.6,0,.5-.2,1-.3,1.4-.5.4-.2.8-.7,1.2-1,.4-.3,1-.3,1.4-.6.4-.3,0-1.4.4-1.8.5-.5.9-.1,1.4-.7.5-.5.5-.5,1-1,.5-.5.4-.6.9-1.1.5-.5,1,0,1.5-.5.5-.5,0-1.1.5-1.6.5-.5.8-.2,1.3-.7.5-.5.7-.3,1.3-.8.5-.5.3-.7.8-1.2.5-.5.3-.7.8-1.2.5-.5.9-.1,1.4-.6.5-.5.3-.7.8-1.2.5-.5.7-.3,1.2-.8.5-.5.4-.6.9-1.1.5-.5.4-.6.9-1.1.5-.5.5-.5,1-1,.5-.5.5-.5,1-1,.5-.5.7-.3,1.2-.8.5-.5,0-1,.5-1.5.5-.5,1,0,1.5-.5.5-.5.5-.5,1-1s-.2-1.2.3-1.7c.5-.5,1,0,1.5-.5.5-.5.7-.3,1.2-.8.5-.5.2-.8.7-1.3.5-.5.5-.5,1-1,.5-.5.8-.2,1.3-.7.5-.5.1-.9.6-1.4.5-.5.2-.8.7-1.3.5-.5.7-.3,1.2-.8.5-.5.8-.2,1.3-.7.5-.5.6-.4,1.1-.9.5-.5,0-1,.5-1.5.5-.5,1.1,0,1.6-.4.5-.5,0-1,.5-1.5.5-.5,1,0,1.5-.5.5-.5-.2-1.3.3-1.8.5-.5,1.3.3,1.8-.2.5-.5.4-.6.9-1.1.5-.5.5-.6,1-1.1q.5-.5,1-1c.5-.5.3-.7.8-1.2.5-.5.6-.4,1.1-.9.5-.5,0-.9.6-1.5.5-.5.9,0,1.4-.6.5-.5.2-.8.7-1.3.5-.5.4-.6.9-1.1.5-.5.7-.3,1.2-.8.5-.5.6-.4,1.1-.9.5-.5.5-.5,1-1,.5-.5.9-.2,1.4-.7.5-.5.3-.7.8-1.2.5-.5.6-.4,1.1-.9.5-.5.3-.8.8-1.3.5-.5.6-.4,1.1-.9.5-.5.3-.7.8-1.2.3-.3.9-.5,1.2-.9.3-.4.9-.6,1.2-1,.3-.4,0-1.2.2-1.6.2-.4.5-.9.6-1.3.2-.5.4-.9.5-1.4.1-.5.5-.9.6-1.4,0-.5-.6-1.1-.5-1.5,0-.5.7-.9.7-1.4,0-.5-.1-1-.2-1.5,0-.5-.4-.9-.5-1.4,0-.5-.4-.9-.5-1.4-.1-.5,0-1-.2-1.5s-.8-.7-1-1.1c-.2-.4-.3-.9-.6-1.3-.3-.4,0-1.3-.2-1.7-.3-.4-.7-.7-1.1-1.1-.3-.3-.8-.6-1.2-.9-.4-.3-1.2,0-1.6-.3-.4-.3-.4-1.2-.8-1.5-.4-.2-1-.3-1.4-.5-.5-.2-1-.3-1.4-.4-.5-.1-1,0-1.5,0-.5,0-.9-.6-1.4-.6-.5,0-1,.4-1.5.4-.7,0-.7-.6-1.4-.6s-.7.5-1.4.5-.7-.4-1.4-.4-.7.7-1.4.7-.7,0-1.4,0-.7-.9-1.4-.9-.7,1-1.4,1-.7-.4-1.4-.4-.7.2-1.4.2-.7-.3-1.4-.3-.7.5-1.4.5-.7-.2-1.4-.2-.7,0-1.4,0-.7-.6-1.4-.6-.7.3-1.4.3-.7.5-1.4.5-.7-.8-1.4-.8-.7.1-1.4.1-.7.7-1.4.7-.7-.4-1.4-.4-.7-.5-1.4-.5-.7.8-1.4.8-.7-.1-1.4-.1-.7-.6-1.4-.6-.7,1-1.4,1-.7-.7-1.4-.7-.7-.2-1.4-.2-.7.9-1.4.9-.7,0-1.4,0-.7-.7-1.4-.7-.7-.1-1.4-.1-.7.4-1.4.4-.7-.5-1.4-.5-.7.4-1.4.4-.7.1-1.4.1-.7-.6-1.4-.6-.7.5-1.4.5-.7.1-1.4,0c-.7,0-.7-.3-1.4-.3s-.9.7-1.4.7c-.5,0-1-.3-1.5-.2-.5,0-1,0-1.5.1-.5.1-1,.2-1.5.3-.5.2-.7.9-1.1,1.2-.4.2-1.2,0-1.6.2-.4.3-.4,1.2-.8,1.5-.4.3-.5.9-.8,1.2-.3.3-.9.5-1.2.8-.3.4-.6.7-.9,1.1-.3.4-.7.7-1,1.1-.2.4-.4.9-.5,1.4-.2.5-.7.8-.9,1.3-.1.5.5,1.1.4,1.6,0,.5-1,.8-1.1,1.3,0,.5-.1,1-.1,1.5,0,.7.7.7.7,1.4s0,.7,0,1.4.2.7.2,1.4,0,.7,0,1.4-.6.7-.6,1.4,0,.7,0,1.4.6.7.6,1.4-.8.7-.8,1.4.9.7.9,1.4,0,.7,0,1.4-.5.7-.5,1.4.4.7.4,1.4-.4.7-.4,1.4.3.7.3,1.4-.6.7-.6,1.4.9.7.9,1.4-.8.7-.8,1.4.4.7.4,1.4,0,.7,0,1.4.4.7.4,1.4-.5.7-.5,1.4-.1.7-.1,1.4-.2.7-.2,1.4.2.7.2,1.4,0,.7,0,1.4,0,.7,0,1.4.7.7.7,1.4-.5.7-.5,1.4.7.7.7,1.4-.3.7-.3,1.4-.5.7-.5,1.4.5.7.5,1.4-.3.7-.3,1.4.3.7.3,1.4-.6.7-.6,1.4.3.7.3,1.4-.3.7-.3,1.4,0,.7,0,1.4,1,.7,1,1.4-.7,1-.7,1.5c0,.5.8.9.9,1.3,0,.5-.4,1.1-.3,1.6Z"/>
  <path class="cls-1" d="M110.2,456.9c.7,0,.7.5,1.4.5s.7-.4,1.4-.4.7.4,1.4.4.7-.3,1.4-.3.7.6,1.4.6.7-.9,1.4-.9.7.8,1.4.8.7-.4,1.4-.4.7,0,1.4,0,.7-.4,1.4-.4.7.5,1.4.5.7.1,1.4.1.7.2,1.4.2.7-.2,1.4-.2.7,0,1.4,0,.7,0,1.4,0,.7-.7,1.4-.7.7.5,1.4.5.7-.7,1.4-.7.7.3,1.4.3.7.5,1.4.5.7-.5,1.4-.5.7.3,1.4.3.7-.3,1.4-.3.7.6,1.4.6.7-.3,1.4-.3.7.3,1.4.3.7,0,1.4,0,.7-1,1.4-1,.7.7,1.4.7.7-.7,1.4-.7.7.6,1.4.6.7.3,1.4.3.7,0,1.4,0,.7-.9,1.4-.9.7.7,1.4.7.7.2,1.4.2.7,0,1.4,0,.7,0,1.4,0,.7-.9,1.4-.9.7.8,1.4.8.7-.5,1.4-.5.7,0,1.4,0,.7.2,1.4.2.7-.5,1.4-.5.7.5,1.4.5.7-.6,1.4-.6.7,0,1.4,0,.7.6,1.4.6.7.2,1.4.2.7-.2,1.4-.2.7.4,1.4.4.7-1.1,1.4-1.1.7.5,1.4.5.7,0,1.4,0,.7-.2,1.4-.2.7.7,1.4.7.7-.8,1.4-.8.7.4,1.4.4.7.3,1.4.3.7-.2,1.4-.2.7-.3,1.4-.3.7.5,1.4.5.7-.3,1.4-.3.7.3,1.4.3.7,0,1.4,0,.7-.2,1.4-.2.7,0,1.4,0,.7,0,1.4,0,.7.2,1.4.2.7-.6,1.4-.6.7.8,1.4.8.7,0,1.4,0,.7-1,1.4-1,.7.7,1.4.7.7.3,1.4.3.7-.4,1.4-.4.7,0,1.4,0,.7.4,1.4.4.7-.5,1.4-.5.7-.5,1.4-.5.7.3,1.4.3.7.4,1.4.4.7.2,1.4.2.7-.7,1.4-.7.7.8,1.4.8.7-.7,1.4-.7.7.7,1.4.7.7-1.1,1.4-1.1.7,1.1,1.4,1.1.7,0,1.4,0,.7,0,1.4,0,.7,0,1.4,0,.7-.3,1.4-.3.7.2,1.4.2.7-.6,1.4-.6.7.6,1.4.6.7-.4,1.4-.4.7-.1,1.4-.1.7.3,1.4.3.7.2,1.4.2.7,0,1.4,0,.7.5,1.4.5.7-.2,1.4-.2.7,0,1.4,0,.7-.4,1.4-.4.7.2,1.4.2.7-.3,1.4-.3.7.3,1.4.3.7.3,1.4.3.7-.7,1.4-.7.7,0,1.4,0,.7,0,1.4,0,.7.3,1.4.3.7-.7,1.4-.7.7.7,1.4.7.7-.1,1.4-.1.7-.3,1.4-.3.7-.2,1.4-.2.7.3,1.4.3.7-.5,1.4-.5.7.1,1.4.1.7.8,1.4.8.7,0,1.4,0,.7-.2,1.4-.2.7-.7,1.4-.7.7.8,1.4.8.7-.1,1.4-.1.7,0,1.4,0,.7-.3,1.4-.3.7.4,1.4.4.7-.4,1.4-.4.7.6,1.4.6.7-.5,1.4-.5.7.4,1.4.4.7-.7,1.4-.7.7,0,1.4,0,.7.9,1.4.9.7-1,1.4-1,.7.4,1.4.4.7-.2,1.4-.2.7.3,1.4.3.7-.5,1.4-.5.7.2,1.4.2.7,0,1.4,0,.7.6,1.4.6.7-.3,1.4-.3.7-.5,1.4-.5.7.8,1.4.8.7-.1,1.4-.1.7-.7,1.4-.7.7.4,1.4.4.7.5,1.4.5,1-.8,1.4-.9c.5,0,1,0,1.5,0,.5,0,1.1.4,1.6.3.5-.1.6-1.2,1.1-1.4s1.2.3,1.6,0c.4-.2,1-.4,1.4-.6.4-.3.3-1.2.7-1.6.4-.3.7-.7,1-1,.5-.5,1,0,1.5-.5.5-.5.6-.4,1.1-.9.5-.5.2-.8.7-1.3.5-.5.9-.1,1.4-.7.5-.5.2-.8.7-1.3.5-.5.4-.6.9-1.1.5-.5,1,0,1.5-.6.5-.5.2-.8.7-1.3.5-.5.5-.5,1-1,.5-.5.3-.8.8-1.3.5-.5,1.1.1,1.7-.4s0-1,.5-1.5c.5-.5.4-.6.9-1.1.5-.5,1,0,1.5-.5.5-.5.4-.6.9-1.1.5-.5.8-.2,1.3-.7.5-.5.3-.7.8-1.2.5-.5.6-.4,1.2-.9s.5-.5,1-1c.5-.5.1-.9.6-1.4.5-.5.3-.8.8-1.3.5-.5,1,0,1.5-.5.5-.5,0-1,.5-1.5.5-.5,1,0,1.5-.5.5-.5.7-.4,1.2-.9.5-.5-.2-1.2.3-1.7.5-.5.6-.4,1.1-.9.5-.5.7-.4,1.2-.9.5-.5,1,0,1.5-.6.5-.5.5-.5,1-1,.5-.5.4-.6.9-1.1.5-.5.2-.8.7-1.3.5-.5.6-.4,1.1-.9.5-.5,0-.9.6-1.4.5-.5,1.2.2,1.7-.3.5-.5.5-.5,1-1,.5-.5.2-.9.7-1.4.5-.5.2-.8.8-1.3.5-.5.8-.2,1.3-.7.5-.5.4-.7.9-1.2s.5-.5,1-1c.5-.5.3-.7.8-1.3.5-.5.5-.5,1-1,.5-.5,1,0,1.6-.5.5-.5.7-.4,1.2-.9.5-.5.5-.5,1-1,.5-.5.4-.7.9-1.2.5-.5,0-1,.5-1.6.5-.5,1.1,0,1.6-.4.5-.5.3-.7.8-1.2.5-.5.7-.4,1.2-.9.5-.5.3-.8.8-1.3.5-.5.3-.7.8-1.2.5-.5.5-.6,1-1.1.5-.5.5-.5,1-1,.5-.5,1,0,1.5-.5.5-.5.2-.9.7-1.4.5-.5.7-.3,1.2-.8.5-.5.5-.5,1-1,.5-.5.5-.5,1-1,.5-.5,0-1,.5-1.5.5-.5.8-.2,1.4-.7.5-.5.7-.3,1.2-.8.5-.5.2-.8.8-1.3.5-.5.5-.5,1.1-1,.5-.5.9,0,1.4-.6.5-.5-.2-1.2.3-1.8.5-.5,1.1,0,1.6-.4.5-.5.7-.4,1.2-.9.5-.5.3-.7.8-1.2.5-.5.6-.4,1.1-1,.5-.5.2-.8.7-1.3.5-.5.3-.7.8-1.3.5-.5,1,0,1.5-.6s.5-.5,1.1-1c.3-.3.7-.8,1-1.1.3-.4.1-1.1.4-1.5.3-.4,1.2-.4,1.4-.9.2-.4-.4-1.3-.2-1.7.2-.5.4-.9.5-1.3.1-.5.6-.8.7-1.3,0-.5.7-.9.7-1.4,0-.5-.6-1-.6-1.5,0-.5.1-1,.1-1.5,0-.5-.2-.9-.3-1.4,0-.5,0-1-.2-1.5-.1-.5-.2-1-.4-1.4-.2-.5-.8-.7-1-1.1-.2-.4-.1-1.1-.4-1.5-.3-.4-.7-.7-1-1.1-.3-.4-.7-.7-1.1-1-.3-.3-.5-.9-.9-1.2-.4-.3-.6-.9-1-1.2-.4-.3-1.2.2-1.7,0-.4-.2-.9-.3-1.3-.5-.5-.2-.7-.8-1.2-.9-.5-.1-.9-.6-1.4-.7-.5,0-1,0-1.5-.1-.5,0-1-.2-1.5-.2-.7,0-.7,0-1.4,0s-.7.8-1.4.8-.7-.9-1.4-.9-.7,1.1-1.4,1.1-.7-.5-1.4-.5-.7,0-1.4,0-.7-.4-1.4-.4-.7,0-1.4,0-.7.9-1.4.9-.7-.2-1.4-.2-.7-.4-1.4-.4-.7-.1-1.4-.1-.7,0-1.4,0-.7.6-1.4.6-.7-.6-1.4-.6-.7,0-1.4,0-.7.5-1.4.5-.7,0-1.4,0-.7.1-1.4.1-.7-.7-1.4-.7-.7.7-1.4.7-.7-.7-1.4-.7-.7.2-1.4.2-.7.6-1.4.6-.7-.2-1.4-.2-.7.2-1.4.2-.7,0-1.4,0-.7-.7-1.4-.7-.7.2-1.4.2-.7,0-1.4,0-.7.2-1.4.2-.7,0-1.4,0-.7.2-1.4.2-.7.1-1.4.1-.7-.2-1.4-.2-.7.2-1.4.2-.7-.5-1.4-.5-.7-.2-1.4-.2-.7.3-1.4.3-.7,0-1.4,0-.7,0-1.4,0-.7.4-1.4.4-.7-.2-1.4-.2-.7.1-1.4.1-.7-.8-1.4-.8-.7.6-1.4.6-.7-.3-1.4-.3-.7.3-1.4.3-.7,0-1.4,0-.7,0-1.4,0-.7-.3-1.4-.3-.7.5-1.4.5-.7-.4-1.4-.4-.7-.5-1.4-.5-.7.6-1.4.6-.7-.5-1.4-.5-.7.5-1.4.5-.7-.5-1.4-.5-.7.4-1.4.4-.7-.3-1.4-.3-.7.7-1.4.7-.7-.2-1.4-.2-.7-.3-1.4-.3-.7.2-1.4.2-.7.6-1.4.6-.7,0-1.4,0-.7,0-1.4,0-.7,0-1.4,0-.7-.5-1.4-.5-.7-.4-1.4-.4-.7,0-1.4,0-.7.3-1.4.3-.7-.4-1.4-.4-.7.4-1.4.4-.7,0-1.4,0-.7.2-1.4.2-.7.2-1.4.2-.7-.4-1.4-.4-.7.8-1.4.8-.7,0-1.4,0-.7-.5-1.4-.5-.7-.4-1.4-.4-.7,0-1.4,0-.7-.2-1.4-.2-.7.5-1.4.5-.7-.2-1.4-.2-.7,0-1.4,0-.7,0-1.4,0-.7,0-1.4,0-.7,0-1.4,0-.7,0-1.4,0-.7.3-1.4.3-.7-.5-1.4-.5-.7.7-1.4.7-.7-.8-1.4-.8-.7.2-1.4.2-.7-.4-1.4-.4-.7,0-1.4,0-.7.4-1.4.4-.7-.4-1.4-.4-.7.5-1.4.5-.7.2-1.4.2-.7-.2-1.4-.2-.7-.6-1.4-.6-.7.8-1.4.8-.7.2-1.4.2-.7-.6-1.4-.6-.7.4-1.4.4-.7,0-1.4,0-.7-.8-1.4-.8-.7.1-1.4.1-.7.2-1.4.2-.7-.4-1.4-.4-.7,0-1.4,0-.7.4-1.4.4-.7.4-1.4.4-.7-.8-1.4-.8-.7.9-1.4.9-.7-.4-1.4-.4-.7,0-1.4,0-.7-.6-1.4-.6-.7,0-1.4,0-.7.9-1.4.9-.7-.2-1.4-.2-.7-.8-1.4-.8-.7,0-1.4,0-.7.9-1.4.9-.7-.4-1.4-.4-.7,0-1.4,0-.7,0-1.4,0-.7-.5-1.4-.5-.7.4-1.4.4-.7,0-1.4,0-.7-.1-1.4-.1-.7.4-1.4.4-.7,0-1.4,0-.7-.2-1.4-.2-.7-.1-1.4-.1-.7.3-1.4.3-.7.2-1.4.2-.7-.2-1.4-.2-.7.1-1.4.1-.7-.1-1.4-.1-.7,0-1.4,0-.7.3-1.4.3-.7-.5-1.4-.5-.7-.1-1.4-.1-.7.5-1.4.5-.7,0-1.4,0-.7-.2-1.4-.2-.7-.6-1.4-.6-.7.4-1.4.4-.7,0-1.4,0-.7.3-1.4.3-.7-.3-1.4-.3-.7.2-1.4.2-.7-.7-1.4-.7-.7.6-1.4.6-.7.3-1.4.3-.7,0-1.4,0-.7,0-1.4,0-.7-.6-1.4-.6-.7-.3-1.4-.3-.7,0-1.4,0-.7.9-1.4.9-.7-.9-1.4-.9-.7.4-1.4.4-.7,0-1.4,0-.7,0-1.4,0-.7.6-1.4.6-.7-.4-1.4-.4-.7-.2-1.4-.2-.7.7-1.4.7-.7-.7-1.4-.7-.7.6-1.4.6-.7-.6-1.4-.6-.7.8-1.4.8-.7-.3-1.4-.3-.7-.1-1.4-.1-.7-.5-1.4-.5-.7.6-1.4.6-.7-.7-1.4-.7-.7.2-1.4.2-.7.6-1.4.6-.7-.7-1.4-.7-1,0-1.5,0c-.5,0-1,.3-1.5.4-.5,0-1,.3-1.4.4-.5.1-.7,1-1.1,1.2-.5.2-1.2-.3-1.6,0-.4.2-.5,1-1,1.3-.4.3-.9.4-1.2.8-.4.3-1,.4-1.3.7-.5.5-.7.3-1.2.9-.5.5-.1.9-.6,1.4-.5.5-1,0-1.5.5-.5.5-.2.9-.7,1.4-.5.5-.3.8-.8,1.3-.5.5-.5.5-1,1-.5.5-.9.1-1.4.6-.5.5-.1.9-.7,1.4-.5.5-.5.5-1,1-.5.5-.4.6-.9,1.1-.5.5-1.1,0-1.6.4-.5.5-.4.7-.9,1.2-.5.5-.3.8-.8,1.3-.5.5-.6.4-1.1.9-.5.5-.3.7-.8,1.2-.5.5-.9,0-1.4.6-.5.5-.5.5-1,1s-.5.5-1,1q-.5.5-1,1c-.5.5-.2.8-.7,1.3-.5.5-.8.2-1.3.7-.5.5-.2.8-.7,1.3-.5.5-.3.7-.8,1.2-.5.5-1,0-1.5.6-.5.5-.6.4-1.1.9-.5.5-.5.5-1,1-.5.5-.6.4-1.1.9-.5.5-.2.9-.7,1.4-.5.5-.7.3-1.2.8-.5.5-.2.8-.7,1.3-.5.5-.2.8-.7,1.3-.5.5-1,0-1.5.5-.5.5-.3.7-.8,1.2-.5.5-.8.2-1.3.7-.5.5-.2.9-.7,1.4-.5.5-.4.6-.9,1.2s-.9,0-1.4.6c-.5.5-.6.4-1.1.9-.5.5,0,1.1-.5,1.6-.5.5-.6.5-1.1,1-.5.5-.5.6-1,1.1-.5.5-.7.3-1.2.8-.5.5-.8.2-1.3.7-.5.5-.2.8-.7,1.3-.5.5-.4.6-.9,1.1s-.6.4-1.1,1c-.5.5-.4.6-.9,1.1-.5.5-.7.3-1.2.8-.5.5-.2.9-.7,1.4-.5.5-.9,0-1.4.6-.5.5-.5.5-1,1-.5.5-.2.8-.7,1.3-.5.5-.8.2-1.3.8-.5.5-.8.2-1.3.7-.5.5-.6.4-1.1.9-.5.5,0,1-.5,1.5-.5.5-.7.3-1.2.8-.5.5-.3.7-.8,1.3-.5.5-.4.7-.9,1.2-.5.5-.9,0-1.5.6-.5.5,0,1-.5,1.6-.5.5-1,0-1.6.5-.5.5,0,1-.6,1.5,0,0,0,0,0,0,13,14,27.5,26.6,43.3,37.3.1,0,.3,0,.5,0Z"/>
  <path class="cls-1" d="M426.6,73c-.1.1-.2.3-.2.6,0,.7.6.7.6,1.4s.3.7.3,1.4-.3.7-.3,1.4-.3.7-.3,1.4,0,.7,0,1.4.4.7.4,1.4-.4.7-.4,1.4,0,.7,0,1.4,0,.7,0,1.4.4.7.4,1.4-.5.7-.5,1.4-.3.7-.3,1.4.8.7.8,1.4-.9.7-.9,1.4,0,.7,0,1.4.3.7.3,1.4-.2.7-.2,1.4.7.7.7,1.4-.3.7-.3,1.4.3.7.3,1.4-.7.7-.7,1.4,0,.7,0,1.4-.1.7-.1,1.4-.2.7-.2,1.4.7.7.7,1.4,0,.7,0,1.4.1.7.1,1.4-.3.7-.3,1.4-.5.7-.5,1.4.6.7.6,1.4.4.7.4,1.4-.4.7-.4,1.4-.6.7-.6,1.4.3.7.3,1.4-.1.7-.1,1.4.7.7.7,1.4-.8.7-.8,1.4.4.7.4,1.4,0,.7,0,1.4,0,.7,0,1.4-.2.7-.2,1.4.7.7.7,1.4-.6.7-.6,1.4-.3.7-.3,1.4.7.7.7,1.4-.5.7-.5,1.4.6.7.6,1.4-1,.7-1,1.4.1.7.1,1.4.6.7.6,1.4-.4.7-.4,1.4.4.7.4,1.4-.6.7-.6,1.4.4.7.4,1.4-.5.7-.5,1.4,1,.7,1,1.4-.8.7-.8,1.4.2.7.2,1.4.2.7.2,1.4.3.7.3,1.4-.7.7-.7,1.4.6.7.6,1.4-.6.7-.6,1.4.4.7.4,1.4.3.7.3,1.4-.1.7-.1,1.4,0,.7,0,1.4-.2.7-.2,1.4.4.7.4,1.4-.5.7-.5,1.4.6.7.6,1.4-.8.7-.8,1.4.4.7.4,1.4.2.7.2,1.4,0,.7,0,1.4-.5.7-.5,1.4.8.7.8,1.4-.9.7-.9,1.4.2.7.2,1.4-.4.7-.4,1.4.2.7.2,1.4-.1.7-.1,1.4.1.7.1,1.4-.2.7-.2,1.4.9.7.9,1.4-.3.7-.3,1.4,0,.7,0,1.4-.3.7-.3,1.4,0,.7,0,1.4.3.7.3,1.4-.3.7-.3,1.4,0,.7,0,1.4,0,.7,0,1.4.4.7.4,1.4-.7.7-.7,1.4.7.7.7,1.4.1.7.1,1.4-1,.7-1,1.4.5.7.5,1.4.5.7.5,1.4-.2.7-.2,1.4-.6.7-.6,1.4,0,.7,0,1.4-.2.7-.2,1.4.7.7.7,1.4-.2.7-.2,1.4.1.7.1,1.4.2.7.2,1.4,0,.7,0,1.4-.9.7-.9,1.4.9.7.9,1.4-.7.7-.7,1.4,0,.7,0,1.4.6.7.6,1.4-.5.7-.5,1.4.3.7.3,1.4-.2.7-.2,1.4.7.7.7,1.4-1,.7-1,1.4.3.7.3,1.4.6.7.6,1.4-.9.7-.9,1.4.9.7.9,1.4-.5.7-.5,1.4,0,.7,0,1.4,0,.7,0,1.4,0,.7,0,1.4.4.7.4,1.4-.4.7-.4,1.4-.2.7-.2,1.4.6.7.6,1.4-.2.7-.2,1.4,0,.7,0,1.4-.5.7-.5,1.4.5.7.5,1.4,0,.7,0,1.4.1.7.1,1.4-.6.7-.6,1.4.8.7.8,1.4-.4.7-.4,1.4-.1.7-.1,1.4.6.7.6,1.4-.8.7-.8,1.4.8.7.8,1.4-.2.7-.2,1.4-.8.7-.8,1.4.6.7.6,1.4.4.7.4,1.4-.9.7-.9,1.4.3.7.3,1.4-.2.7-.2,1.5,0,.7,0,1.4-.1.7-.1,1.5.8.7.8,1.5-.5.7-.5,1.5,0,1.1-.1,1.6c-.2.5-.7.9-1,1.3-.3.4-.4,1.1-.8,1.4-.4.3-1.2-.1-1.7,0-.5.2-.9.8-1.4.8s-.7-.1-1.4-.1-.7-.3-1.4-.3-.7.3-1.4.3-.7,0-1.4,0-.7.3-1.4.3-.7.2-1.4.2-.7,0-1.4,0-.7-.4-1.4-.4-.7-.5-1.4-.5-.7.8-1.4.8-.7-.8-1.4-.8-.7.7-1.4.7-.7-.7-1.4-.7-.7,1-1.4,1-.7-.9-1.4-.9-.7.8-1.4.8-.7-.8-1.4-.8-.7.8-1.4.8-.7-.8-1.4-.8-.7.6-1.4.6-.7-.8-1.4-.8-.7.1-1.4.1-.7.9-1.4.9-.7-.6-1.4-.6-.7-.4-1.4-.4-.7.5-1.4.5-.7-.3-1.4-.3-.7,0-1.4,0-.7.8-1.4.8-.7.2-1.4.2-.7-1-1.4-1-.7.6-1.4.6-.7,0-1.4,0-.7-.7-1.4-.7-.7-.1-1.4-.1-.7.9-1.4.9-.7-.5-1.4-.5-.7.6-1.4.6-.7-.8-1.4-.8-.7-.1-1.4-.1-.7.2-1.4.2-.7.3-1.4.3-.7-.2-1.4-.2-.7.9-1.4.9-.7-.5-1.4-.5-.7,0-1.4,0-1,.2-1.5.2c-.5,0-1-.2-1.5,0-.5,0-.9.6-1.3.8-.5.1-1.1-.3-1.6,0-.5.2-.8.6-1.3.8-.4.2-.8.6-1.2.9-.4.3-1.1.2-1.5.5-.4.3-.6.8-1,1.2-.3.3-.9.5-1.2.9-.3.4-.7.8-1,1.2-.3.4.1,1.3,0,1.7-.2.4-.7.8-.8,1.2-.2.5,0,1-.2,1.5-.1.5-.2.9-.3,1.4,0,.5-.4.9-.4,1.4,0,.5-.1,1-.1,1.5,0,.7.4.7.4,1.5s-.9.7-.9,1.5,0,.7,0,1.5.3.7.3,1.5,0,.7,0,1.5,0,.7,0,1.5,0,1,.1,1.5c0,.5-.3,1.1-.2,1.5,0,.5.7.8.9,1.3.1.5-.3,1.2-.1,1.6.2.5.8.7,1.1,1.2.2.4.8.6,1.1,1.1.3.4,0,1.2.3,1.6.3.4,1.1.3,1.5.6.3.3.8.6,1.2.9.4.3.3,1.2.7,1.5.4.3,1.1.1,1.5.4.4.2.7.8,1.2,1,.5.2,1.1-.2,1.6,0,.5.1.9.4,1.4.5.5,0,1,.1,1.5.2.5,0,1,.6,1.5.6.7,0,.7,0,1.4,0s.7-.6,1.4-.6.7,0,1.4,0,.7.4,1.4.4.7-.3,1.4-.3.7-.2,1.4-.2.7.3,1.4.3.7-.5,1.4-.5.7.8,1.4.8.7-.2,1.4-.2.7-.3,1.4-.3.7.2,1.4.2.7.5,1.4.5.7-.8,1.4-.8.7.4,1.4.4.7.6,1.4.6.7-.5,1.4-.5.7-.5,1.4-.5.7,0,1.4,0,.7.2,1.4.2.7.8,1.4.8.7-.4,1.4-.4.7.4,1.4.4.7-.6,1.4-.6.7,0,1.4,0,.7-.4,1.4-.4.7.6,1.4.6.7-.4,1.4-.4.7.6,1.4.6.7-.2,1.4-.2.7,0,1.4,0,.7.4,1.4.4.7.1,1.4.1.7,0,1.4,0,.7-.3,1.4-.3.7-.8,1.4-.8.7.2,1.4.2.7,0,1.4,0,.7.1,1.4.1.7,0,1.4,0,.7.1,1.4.1.7-.4,1.4-.4.7.4,1.4.4.7.2,1.4.2.7-.4,1.4-.4.7,0,1.4,0,.7-.2,1.4-.2.7.4,1.4.4.7.3,1.4.3.7-.9,1.4-.9.7.4,1.4.4.7.3,1.4.3.7-.2,1.4-.2.7-.6,1.4-.6.7.4,1.4.4.7.3,1.4.3.7-.6,1.4-.6.7.7,1.4.7.7-.2,1.4-.2.7.5,1.4.5.7-.5,1.4-.5.7-.6,1.4-.6.7.2,1.4.2.7.4,1.4.4.7,0,1.4,0,.7-.5,1.4-.5.7.7,1.4.7.7,0,1.4,0,.7-.6,1.4-.6.2,0,.3,0c.3,0,.3.3.6.3.2,0,.3-.2.5-.1.2,0,0,.5.3.6.2,0,.5-.4.7-.3.2.1,0,.5.2.7.3.2.4,0,.7.2,0,0,.5,0,.5,0,0,0,.2.2.3.3.2.3-.4.7-.2,1,.1.2,0,.3.1.5.1.2.4,0,.5.3,0,.2.5,0,.6.3,0,.2-.4.4-.3.6,0,.3.6.3.6.6,0,0-.5.5-.5.5,0,0-.1.1-.1.2,0,.3-.4.2-.5.6,0,.2.5.3.4.6,0,.2.4.4.3.6,0,.2-.6,0-.7.2-.1.2-.2.2-.3.4-.2.3-.2.3-.4.5,0,0-.5.2-.5.2q-.5.5-1,1c-.5.5-.3.7-.8,1.2-.5.5-.3.7-.8,1.2-.5.5-.4.7-.9,1.2-.5.5-1,0-1.5.5-.5.5.1,1.1-.4,1.6-.5.5-.9.1-1.4.6-.5.5-.8.3-1.3.8-.5.5,0,1-.6,1.5-.5.5-.4.6-.9,1.1-.5.5-.6.4-1.1.9-.5.5-.7.3-1.2.8-.5.5-.6.4-1.1.9-.5.5-.1.9-.6,1.4-.5.5-1.1,0-1.6.4-.5.5-.2.8-.7,1.4-.5.5-.6.4-1.1.9-.5.5-.2.8-.7,1.3-.5.5-.9.1-1.4.6-.5.5-.6.4-1.1.9-.5.5,0,1.1-.4,1.6-.5.5-1,0-1.5.5-.5.5-.2.8-.7,1.3-.5.5-.8.2-1.3.7-.5.5-.3.7-.8,1.3-.5.5-1,0-1.5.6-.5.5,0,1.1-.5,1.6-.5.5-.6.4-1.1.9-.5.5-.7.3-1.2.9-.5.5-.3.7-.8,1.2-.5.5-.4.6-1,1.1-.5.5-.8.2-1.3.7-.5.5-.1.9-.6,1.4-.5.5-.7.3-1.2.8-.5.5-.3.7-.9,1.2s-.4.6-.9,1.1c-.5.5-1.1,0-1.6.4-.5.5-.3.7-.8,1.2-.5.5-.6.4-1.1.9-.5.5-.5.5-1,1-.5.5-.2.8-.7,1.3-.5.5-.8.2-1.3.7-.5.5-.2.8-.7,1.3-.5.5-.3.7-.8,1.2-.5.5-1,0-1.5.5-.5.5-.3.7-.8,1.2-.5.5-.7.3-1.2.8-.5.5-.2.8-.7,1.3-.5.5-.2.8-.7,1.3-.5.5-.7.3-1.2.8-.5.5-.7.3-1.2.8-.5.5-.8.2-1.3.7-.5.5-.2.8-.7,1.3-.5.5-.5.5-1,1-.5.5,0,1-.5,1.5-.5.5-.7.3-1.2.8-.5.5-.8.2-1.3.7-.5.5-.4.6-1,1.1-.5.5-.3.7-.8,1.2-.5.5-.3.7-.8,1.2-.5.5-1.2-.1-1.7.4-.5.5-.3.7-.8,1.2s-.3.7-.9,1.2c-.5.5-.5.5-1,1-.5.5-.7.3-1.2.8-.5.5-.6.4-1.1.9-.5.5-.4.7-.9,1.2-.5.5-.1.9-.6,1.4-.5.5-.8.2-1.3.7-.5.5-.7.4-1.2.9-.5.5,0,1.1-.5,1.6-.5.5-.8.2-1.3.7-.5.5-.4.6-.9,1.1-.5.5-.7.3-1.2.8-.5.5-.5.5-1,1-.5.5-.3.7-.8,1.2-.5.5-.6.4-1.1.9-.5.5-.5.6-1,1.1-.5.5-.9.2-1.4.7-.5.5-.4.6-.9,1.2-.5.5-.3.7-.8,1.2-.5.5-.3.7-.8,1.2-.5.5-.8.2-1.3.7-.5.5-.5.5-1.1,1-.5.5-.9.1-1.4.6-.5.5,0,1.1-.5,1.6-.5.5-.4.6-.9,1.1-.5.5-.7.3-1.2.8-.5.5-.9.1-1.4.6-.5.5-.4.6-.9,1.1-.5.5-.5.5-1,1.1-.5.5-.2.8-.7,1.3-.5.5-.9,0-1.5.6-.5.5-.3.7-.8,1.2-.5.5-.8.2-1.3.7-.5.5,0,1.1-.4,1.6-.5.5-1,0-1.5.5-.5.5.1,1.2-.4,1.7-.5.5-.8.2-1.3.7-.5.5-.9.2-1.4.7-.5.5,0,1-.5,1.6-.5.5-.5.5-1,1.1-.5.5-1,0-1.5.6-.5.5-.5.6-1,1.1-.5.5,0,.9-.6,1.4s-1.2-.2-1.7.3c-.5.5-.5.5-1,1.1-.5.5-.4.6-.9,1.1-.5.5-.5.6-1,1.1-.5.5-.1.9-.6,1.4-.5.5-1,0-1.5.5-.5.5-.5.6-1,1.1-.5.5-.4.6-.9,1.1s-.3.7-.9,1.2c0,0-.2.2-.3.3-.2.2-.7.4-1.1.7-.3.2-.6.9-1.1,1-.4.1-.9-.7-1.4-.7-.7,0-.7,1-1.4,1s-.7-.2-1.4-.2-.7-.5-1.4-.5-.7.4-1.4.4-.7-.5-1.4-.5-.7.7-1.4.7-.7-.8-1.4-.8-.7.1-1.4.1-.7.5-1.4.5-.7-.3-1.4-.3-.7,0-1.4,0-.7,0-1.4,0-.7,0-1.4,0-.7-.2-1.4-.2-.7.6-1.4.6-.7-.2-1.4-.2-.7.5-1.4.5-.7.2-1.4.2-.7-1.1-1.4-1.1-.7.9-1.4.9-.7-.6-1.4-.6-.7,0-1.4,0-.7.7-1.4.7-.7-.5-1.4-.5-.7-.3-1.4-.3-.7.9-1.4.9-.7-.8-1.4-.8-.7.3-1.4.3-.7-.3-1.4-.3-.7.6-1.4.6-.7-.9-1.4-.9-.7.6-1.4.6-.7-.3-1.4-.3-.7.5-1.4.5-.7.1-1.4.1-.7,0-1.4,0-.7-.7-1.4-.7-.7.4-1.4.4-.7.1-1.4.1-.7,0-1.4,0-.7-.4-1.4-.4-.7.5-1.4.5-.7-.1-1.4-.1-.7.3-1.4.3-.7-.8-1.4-.8-.7.3-1.4.3-.7.2-1.4.2-.7-.8-1.4-.8-.7,1.1-1.4,1.1-.7-1-1.4-1-.7,0-1.4,0-.7.1-1.4.1-.7.4-1.4.4-.7,0-1.4,0-.7-.1-1.4-.1-.7-.5-1.4-.5-.7,0-1.4,0-.7.5-1.4.5-.7.3-1.4.3-.7-.6-1.4-.6-.7.6-1.4.6-.7-.5-1.4-.5-.7-.3-1.4-.3-.7.1-1.4.1-.7.2-1.4.2-.7-.4-1.4-.4-.7.7-1.4.7-.7-.4-1.4-.4-.7,0-1.4,0-.7-.2-1.4-.2-.7.5-1.4.5-.7.3-1.4.3-.7.2-1.4.2-.7-.5-1.4-.5-.7-.6-1.4-.6-.7.8-1.4.8-.7-.2-1.4-.2-.7.3-1.4.3-.7-.5-1.4-.5-.7.2-1.4.2-.7,0-1.4,0-.7-.5-1.4-.5-.7.8-1.4.8-.7,0-1.4,0-.7-.7-1.4-.7-.7-.1-1.4-.1-.7.4-1.4.4-.7.2-1.4.2-.7-.3-1.4-.3-.7.5-1.4.5-.7.2-1.4.2-.7-1-1.4-1-.7.9-1.4.9-.7,0-1.4,0-.7-.2-1.4-.2-.7-.2-1.4-.2-.7-.1-1.4-.1-.7-.4-1.4-.4-.7,0-1.4,0-.7.5-1.4.5-.7-.6-1.4-.6-.7.1-1.4.1-.7.7-1.4.7-.7,0-1.4,0-.7-.3-1.4-.3-.7.4-1.4.4-.7-.3-1.4-.3-.7,0-1.4,0-.7-.5-1.4-.5-.7.4-1.4.4-.7.4-1.4.4-.7-.6-1.4-.6-.7-.4-1.4-.4-.7.5-1.4.5-.7.3-1.4.3-.7-.7-1.4-.7-.7.4-1.4.4-.7-.4-1.4-.4-.7.2-1.4.2-.7-.4-1.4-.4-.7.9-1.4.9-.7-.4-1.4-.4-.7.1-1.4.1-.7.1-1.4.1-.7.1-1.4.1-.7-.7-1.4-.7-.7.3-1.4.3-.7-.3-1.4-.3-.7.2-1.4.2-.7.1-1.4.1-.7-.4-1.4-.4-.7.6-1.4.6-.7,0-1.4,0-.7.1-1.4.1-.7-.4-1.4-.4-.7.5-1.4.5-.7,0-1.4,0-.7-.8-1.4-.8-.7.9-1.4.9-.7-1-1.4-1-.7.3-1.4.3-.7.8-1.4.8-.7-.9-1.4-.9-.7.6-1.4.6-.7-.4-1.4-.4-.7.3-1.4.3-.7-.4-1.4-.4-.4,0-.5,0c36.6,21,79,33,124.2,33,138.1,0,250-111.9,250-250s-28.1-131.7-73.4-177Z"/>
  <path class="cls-1" d="M415.5,84.9c-.2-.4-1-.6-1.2-1-.3-.4-.8-.6-1.1-1-.3-.4-.5-.8-.9-1.1-.3-.3-.4-.9-.8-1.3-.4-.3-.6-.9-1-1.1-.4-.3-1.2.2-1.7,0-.4-.2-.6-1.1-1-1.3-.5-.2-.8-.6-1.3-.8-.5-.1-1.2.7-1.7.6-.5,0-.8-1-1.3-1.1-.5,0-1,.7-1.5.7-.7,0-.7-.4-1.4-.4s-.7-.3-1.4-.3-.7.5-1.4.5-.7.3-1.4.3-.7-.3-1.4-.3-.7-.4-1.4-.4-.7,0-1.4,0-.7.8-1.4.8-.7-1-1.4-1-.7.8-1.4.8-.7.2-1.4.2-.7,0-1.4,0-.7-.4-1.4-.4-.7.1-1.4.1-.7,0-1.4,0-.7-.4-1.4-.4-.7-.4-1.4-.4-.7.4-1.4.4-.7-.4-1.4-.4-.7.5-1.4.5-.7.2-1.4.2-.7-.5-1.4-.5-.7.3-1.4.3-.7.4-1.4.4-.7.1-1.4.1-.7-.2-1.4-.2-.7,0-1.4,0-.7,0-1.4,0-.7-.6-1.4-.6-.7.8-1.4.8-.7-.7-1.4-.7-.7.4-1.4.4-.7-.2-1.4-.2-.7,0-1.4,0-.7-.3-1.4-.3-.7.7-1.4.7-.7-.1-1.4-.1-.7-.3-1.4-.3-.7.2-1.4.2-.7.2-1.4.2-.7,0-1.4,0-.7-.4-1.4-.4-.7,0-1.4,0-.7.6-1.4.6-.7-.8-1.4-.8-.7-.3-1.4-.3-.7.5-1.4.5-.7.3-1.4.3-.7-.3-1.4-.3-.7-.1-1.4-.1-.7.5-1.4.5-.7.1-1.4.1-.7-.3-1.4-.3-.7,0-1.4,0-.7.3-1.4.3-.7-1-1.4-1-.7.7-1.4.7-.7-.2-1.4-.2-.7-.3-1.4-.3-.7.3-1.4.3-.7.7-1.4.7-.7-.8-1.4-.8-.7.7-1.4.7-.7,0-1.4,0-.7-.8-1.4-.8-.7.3-1.4.3-.7.4-1.4.4-.7-.4-1.4-.4-.7-.6-1.4-.6-.7.3-1.4.3-.7.7-1.4.7-.7,0-1.4,0-.7-.4-1.4-.4-.7,0-1.4,0-.7-.3-1.4-.3-.7.5-1.4.5-.7-.6-1.4-.6-.7.5-1.4.5-.7-.2-1.4-.2-.7-.4-1.4-.4-.7.2-1.4.2-.7-.2-1.4-.2-.7.6-1.4.6-.7.1-1.4.1-.7-.4-1.4-.4-.7,0-1.4,0-.7.8-1.4.8-.7-.2-1.4-.2-.7-.6-1.4-.6-.7.2-1.4.2-.7-.6-1.4-.6-.7.8-1.4.8-.7-.7-1.4-.7-.7.3-1.4.3-.7-.3-1.4-.3-.7-.2-1.4-.2-.7,1-1.4,1-.7-.3-1.4-.3-.7-.2-1.4-.2-.7-.3-1.4-.3-.7.5-1.4.5-.7.2-1.4.2-.7-.5-1.4-.5-.7-.2-1.4-.2-.7.2-1.4.2-.7.2-1.4.2-.7,0-1.4,0-.7-.6-1.4-.6-.7.8-1.4.8-.7-.4-1.4-.4-.7-.1-1.4-.1-.7.6-1.4.6-.7,0-1.4,0-.7-.9-1.4-.9-.7.5-1.4.5-.7-.2-1.4-.2-.7.1-1.4.1-.7,0-1.4,0-.7.6-1.4.6-.7-.8-1.4-.8-.7.3-1.4.3-.7-.2-1.4-.2-.7-.3-1.4-.3-.7.5-1.4.5-.7,0-1.4,0-.7-.5-1.4-.5-.7.5-1.4.5-.7,0-1.4,0-.7,0-1.4,0-.7.2-1.4.2-.7-.4-1.4-.4-.7.3-1.4.3-.7-.5-1.4-.5-.7.9-1.4.9-.7-.1-1.4-.1-.7-.3-1.4-.3-.7.3-1.4.3-.7-.6-1.4-.6-.7.5-1.4.5-.7,0-1.4,0-.7-.5-1.4-.5-.7.9-1.4.9-.7-.9-1.4-.9-.7.2-1.4.2-.7.4-1.4.4-.7-.7-1.4-.7-.7.8-1.4.8-.7,0-1.4,0-.7-.6-1.4-.6-.7,0-1.4,0-.7-.1-1.4-.1-.7.8-1.4.8-.7,0-1.4,0-.7,0-1.4,0-.7,0-1.4,0-.7-.1-1.4-.1-.7.2-1.4.2-.7-.8-1.4-.8-.7,0-1.4,0-.7,0-1.4,0-.7.3-1.4.3-.7.6-1.4.6-.7-1.1-1.4-1.1-.7.6-1.4.6-.7-.6-1.4-.6-.7.7-1.4.7-.7-.4-1.4-.4-.7.1-1.4.1-.7.6-1.5.6-.7-.2-1.4-.2-.7,0-1.5,0-.7-.6-1.5-.6-.7.4-1.5.4-1-.2-1.5-.1c-.5,0-.9.4-1.4.4-.5,0-.9.3-1.4.4-.5.1-.9.3-1.4.5-.5.2-.8.5-1.2.8-.4.2-1.2,0-1.6.2-.4.3-.8.6-1.2.9-.4.3-.9.5-1.3.8s-.4,1-.7,1.4c-.3.4-1,.5-1.2.9-.3.4.3,1.3,0,1.7-.2.4-.5.8-.7,1.3-.2.5-1.2.6-1.3,1.1-.1.5,0,1,0,1.5,0,.5-.5.9-.5,1.4,0,.5-.2,1-.2,1.5,0,.7.3.7.3,1.5s0,.7,0,1.5.3.7.3,1.5-.2.7-.2,1.5.5.7.5,1.5-.7.7-.7,1.5.7.7.7,1.5-.3.7-.3,1.5-.2.7-.2,1.5-.3.7-.3,1.5.9.7.9,1.5-.5.7-.5,1.5-.4.7-.4,1.5,0,.7,0,1.5,0,.7,0,1.5.5.7.5,1.5.2.7.2,1.5-1,.7-1,1.5.1.7.1,1.5.8.7.8,1.5-.4.7-.4,1.5-.2.7-.2,1.5.4.7.4,1.5.1.7.1,1.5-.2,1-.1,1.5c0,.5.6.9.7,1.4,0,.5-.4,1.1-.2,1.5.1.5.2,1,.4,1.4.2.5,1,.6,1.2,1,.2.4.3.9.6,1.3.3.4-.1,1.3.2,1.7.3.4,1.4,0,1.7.4.3.3.3,1.1.7,1.4.4.3,1.1.2,1.5.4.4.3.3,1.4.7,1.6.4.2,1.3-.4,1.8-.3.5.2.7.8,1.2.9.5.1.9.7,1.3.8.5,0,1.1-.4,1.6-.4.5,0,1,.3,1.4.3.7,0,.7.5,1.4.5s.7-.9,1.4-.9.7,0,1.4,0,.7.3,1.4.3.7.4,1.4.4.7-.8,1.4-.8.7.1,1.4.1.7,0,1.4,0,.7.4,1.4.4.7-.2,1.4-.2.7-.6,1.4-.6.7,1,1.4,1,.7-.4,1.4-.4.7,0,1.4,0,.7.1,1.4.1.7-.2,1.4-.2.7-.4,1.4-.4.7,0,1.4,0,.7,1,1.4,1,.7-1,1.4-1,.7.7,1.4.7.7-.8,1.4-.8.7,0,1.4,0,.7.4,1.4.4,1.2-.3,1.7-.1c.5.2.8.8,1.2,1.1.4.3.6.8,1,1.2.3.4,1.1.6,1.3,1.1.2.5-.5,1.1-.5,1.7s.8,1.2.7,1.7c-.2.5-1.1.7-1.4,1.1-.3.4-.7.7-1.1,1-.4.3-.5,1.3-1,1.4-.5.2-1.2-.5-1.7-.5s-.7.3-1.4.3-.7.4-1.4.4-.7-.3-1.4-.3-.7-.3-1.4-.3-.7-.2-1.4-.2-.7.9-1.4.9-.7-1-1.4-1-.7.4-1.4.4-.7,0-1.4,0-.7-.2-1.4-.2-.7.2-1.4.2-.7-.4-1.4-.4-.7,0-1.4,0-.7,1-1.4,1-.7-.6-1.4-.6-.7-.1-1.4-.1-.7.6-1.4.6-.7-.6-1.4-.6-.7.4-1.4.4-.7-.4-1.4-.4-.7-.3-1.4-.3-.7.7-1.4.7-.7-.4-1.4-.4c-.7,0-.7,0-1.5,0s-.9.7-1.4.7c-.5,0-1-.3-1.5-.2-.5,0-1,0-1.5.1-.5.1-1,.2-1.5.3-.5.2-.7.9-1.1,1.2-.4.2-1.2,0-1.6.2-.4.3-.4,1.2-.8,1.5-.4.3-.5.9-.8,1.2-.3.3-.9.5-1.2.8-.3.4-.6.7-.9,1.1-.3.4-.7.7-1,1.1-.2.4-.4.9-.5,1.4-.2.5-.7.8-.9,1.3-.1.5.5,1.1.4,1.6,0,.5-1,.8-1.1,1.3,0,.5-.1,1-.1,1.5,0,.7.7.7.7,1.5s0,.7,0,1.5.2.7.2,1.5,0,.7,0,1.5-.6.7-.6,1.5,0,.7,0,1.5.6.7.6,1.5-.8.7-.8,1.5.9.7.9,1.5,0,.7,0,1.5-.5.7-.5,1.5.4.7.4,1.5-.4.7-.4,1.5.3.7.3,1.5-.6.7-.6,1.5.9.7.9,1.5-.8.7-.8,1.5.4.7.4,1.5,0,.7,0,1.5.4.7.4,1.5-.5.7-.5,1.5-.1.7-.1,1.5-.2.7-.2,1.5.2.7.2,1.5,0,1,0,1.5c0,.5.1,1,.2,1.5,0,.5.9.8,1,1.3.1.5-.2,1.1,0,1.6.2.5,1.1.6,1.3,1,.2.4.2,1,.5,1.4.3.4.1,1.1.5,1.5.3.4,1,.4,1.3.8.3.3.5.9.9,1.2.4.3,1,.4,1.4.6.4.3.5,1.1,1,1.3.4.2,1,.2,1.5.4.5.2.9.6,1.3.8.5.1,1,.3,1.5.4.5,0,1.1-.8,1.6-.8.5,0,.9.8,1.4.8.7,0,.7-.7,1.4-.7s.7.6,1.4.6.7.3,1.4.3.7,0,1.4,0,.7-.9,1.4-.9.7.7,1.4.7.7.2,1.4.2.7,0,1.4,0,.7,0,1.4,0,.7-.9,1.4-.9.7.8,1.4.8.7-.5,1.4-.5.7,0,1.4,0,.7.2,1.4.2.7-.5,1.4-.5.7.5,1.4.5.7-.6,1.4-.6.7,0,1.4,0,.7.6,1.4.6.7.2,1.4.2.7-.2,1.4-.2.7.4,1.4.4.7-1.1,1.4-1.1.7.5,1.4.5.7,0,1.4,0,.7-.2,1.4-.2.7.7,1.4.7.7-.8,1.4-.8.7.4,1.4.4.7.3,1.4.3.7-.2,1.4-.2.7-.3,1.4-.3.7.5,1.4.5.7-.3,1.4-.3.7.3,1.4.3.7,0,1.4,0,.7-.2,1.4-.2.7,0,1.4,0,.7,0,1.4,0,.7.2,1.4.2.7-.6,1.4-.6.7.8,1.4.8.7,0,1.4,0,.7-1,1.4-1,.7.7,1.4.7.7.3,1.4.3.7-.4,1.4-.4.7,0,1.4,0,.7.4,1.4.4.7-.5,1.4-.5.7-.5,1.4-.5.7.3,1.4.3.7.4,1.4.4.7.2,1.4.2.7-.7,1.4-.7.7.8,1.4.8.7-.7,1.4-.7.7.7,1.4.7.7-1.1,1.4-1.1.7,1.1,1.4,1.1.7,0,1.4,0,.7,0,1.4,0,.7,0,1.4,0,.7-.3,1.4-.3.7.2,1.4.2.7-.6,1.4-.6.7.6,1.4.6.7-.4,1.4-.4.7-.1,1.4-.1.7.3,1.4.3.7.2,1.4.2.7,0,1.4,0,.7.5,1.4.5.7-.2,1.4-.2.7,0,1.4,0,.7-.4,1.4-.4.7.2,1.4.2.7-.3,1.4-.3.7.3,1.4.3.7.3,1.4.3.7-.7,1.4-.7.7,0,1.4,0,.7,0,1.4,0,.7.3,1.4.3.7-.7,1.4-.7.7.7,1.4.7.7-.1,1.4-.1.7-.3,1.4-.3.7-.2,1.4-.2.7.3,1.4.3.7-.5,1.4-.5.7.1,1.4.1.7.8,1.4.8.7,0,1.4,0,.7-.2,1.4-.2.7-.7,1.4-.7.7.8,1.4.8.7-.1,1.4-.1.7,0,1.4,0,.7-.3,1.4-.3.7.4,1.4.4.7-.4,1.4-.4.7.6,1.4.6.7-.5,1.4-.5.7.4,1.4.4.7-.7,1.4-.7.7,0,1.4,0,.7.9,1.4.9.7-1,1.4-1,.7.4,1.4.4.7-.2,1.4-.2.7.3,1.4.3.7-.5,1.4-.5.7.2,1.4.2.7,0,1.4,0,.7.6,1.4.6.7-.3,1.4-.3.7-.5,1.4-.5.7.8,1.4.8.7-.1,1.4-.1.7-.7,1.4-.7.7.4,1.4.4.7.5,1.4.5.7-.8,1.4-.8.7.1,1.4.1.7.6,1.4.6.7-1,1.4-1,.7.7,1.4.7.7.2,1.4.2.7-.9,1.4-.9.7,0,1.4,0,.7.7,1.4.7.7.1,1.4.1.7-.4,1.4-.4.7.5,1.4.5.7-.4,1.4-.4.7-.1,1.4-.1.7.6,1.4.6.7-.5,1.4-.5.7,0,1.4,0,.7-.4,1.4-.4.7.9,1.4.9.7-.7,1.4-.7.7-.2,1.4-.2.7.7,1.4.7.7-.2,1.4-.2.7.4,1.4.4.7-.2,1.4-.2.7.2,1.4.2.7,0,1.4,0,.7-.5,1.4-.5.7-.4,1.4-.4.7.7,1.4.7.7-.7,1.4-.7.7.7,1.4.7.7.2,1.4.2.7-1,1.4-1,.7.1,1.4.1.7.2,1.4.2.7.6,1.4.6.7,0,1.4,0,.7-.1,1.4-.1.7-.4,1.4-.4.7.2,1.4.2.7-.6,1.4-.6.7,1,1.4,1,.7,0,1.4,0,.7-.5,1.4-.5.7-.4,1.5-.4.7.4,1.4.4.7-.2,1.5-.2.7,0,1.5,0,.7-.3,1.5-.3.9,0,1.4,0c.5,0,1.1.6,1.6.5.5,0,1,0,1.5-.2.5-.1,1-.3,1.4-.5.5-.2.8-.6,1.3-.8.4-.2.5-1.1.9-1.4.4-.3,1.3.1,1.7-.2.4-.3.6-.8.9-1.2.3-.3.8-.6,1.2-1,.3-.4.3-1,.6-1.4.3-.4.3-1,.5-1.4.2-.4.4-.9.6-1.3.2-.5.4-.9.5-1.3.1-.5.9-.8,1-1.3,0-.5-.3-1-.3-1.5,0-.5.4-1,.4-1.5,0-.7,0-.7,0-1.5s0-.7,0-1.5-.7-.7-.7-1.5.5-.7.5-1.5.3-.7.3-1.5-.4-.7-.4-1.5,0-.7,0-1.5.6-.7.6-1.5-1-.7-1-1.5.9-.7.9-1.5.2-.7.2-1.5-.3-.7-.3-1.5,0-.7,0-1.5-.5-.7-.5-1.5-.3-.7-.3-1.5.7-.7.7-1.5,0-.7,0-1.5,0-.7,0-1.5-.6-.7-.6-1.5.8-.7.8-1.5-.9-.7-.9-1.5,0-.7,0-1.5.4-.7.4-1.5.5-.7.5-1.5-.7-1-.7-1.4c0-.5,0-1,0-1.5,0-.5-.3-.9-.5-1.4-.1-.5-.1-1-.3-1.4-.2-.5-.3-1-.5-1.4-.2-.4-.9-.6-1.1-1-.3-.4-.2-1-.5-1.4-.3-.4-.7-.7-1.1-1s-.8-.6-1.2-.9c-.4-.3-.6-.8-1-1.1-.4-.3-.7-.8-1.1-1.1-.4-.2-1.2.3-1.7.1-.5-.2-.9-.2-1.4-.4-.5-.1-.8-.7-1.3-.8-.5,0-.9-.5-1.4-.5-.5,0-1,0-1.5,0-.7,0-.7-.2-1.4-.2s-.7,0-1.4,0-.7.8-1.4.8-.7-.9-1.4-.9-.7,1.1-1.4,1.1-.7-.5-1.4-.5-.7,0-1.4,0-.7-.4-1.4-.4-.7,0-1.4,0-.7.9-1.4.9-.7-.2-1.4-.2-.7-.4-1.4-.4-.7-.1-1.4-.1-.7,0-1.4,0-.7.6-1.4.6-.7-.6-1.4-.6-.7,0-1.4,0-.7.5-1.4.5-.7,0-1.4,0-.7.1-1.4.1-.7-.7-1.4-.7-.7.7-1.4.7-.7-.7-1.4-.7-.7.2-1.4.2-.7.6-1.4.6-.7-.2-1.4-.2-.7.2-1.4.2-.7,0-1.4,0-.7-.7-1.4-.7-.7.2-1.4.2-.7,0-1.4,0-.7.2-1.4.2-.7,0-1.4,0-.7.2-1.4.2-.7.1-1.4.1-.7-.2-1.4-.2-.7.2-1.4.2-.7-.5-1.4-.5-.7-.2-1.4-.2-.7.3-1.4.3-.7,0-1.4,0-.7,0-1.4,0-.7.4-1.4.4-.7-.2-1.4-.2-.7.1-1.4.1-.7-.8-1.4-.8-.7.6-1.4.6-.7-.3-1.4-.3-.7.3-1.4.3-.7,0-1.4,0-.7,0-1.4,0-.7-.3-1.4-.3-.7.5-1.4.5-.7-.4-1.4-.4-.7-.5-1.4-.5-.7.6-1.4.6-.7-.5-1.4-.5-.7.5-1.4.5-.7-.5-1.4-.5-.7.4-1.4.4-.7-.3-1.4-.3-.7.7-1.4.7-.7-.2-1.4-.2-.7-.3-1.4-.3-.7.2-1.4.2-.7.6-1.4.6-.7,0-1.4,0-.7,0-1.4,0-.7,0-1.4,0-.7-.5-1.4-.5-.7-.4-1.4-.4-.7,0-1.4,0-.7.3-1.4.3-.7-.4-1.4-.4-.7.4-1.4.4-.7,0-1.5,0-.7.2-1.4.2-.7.2-1.4.2-.7-.4-1.4-.4-.7.8-1.4.8-.7,0-1.4,0-.7-.5-1.4-.5-.7-.4-1.5-.4-.7,0-1.4,0-.7-.2-1.4-.2-.7.5-1.4.5-.7-.2-1.5-.2-.7,0-1.5,0-.7,0-1.4,0-.7,0-1.4,0-.7,0-1.5,0-.7,0-1.5,0-.7.3-1.5.3-.7-.5-1.5-.5-.7.7-1.5.7-.7-.8-1.4-.8-.7.2-1.4.2-.7-.4-1.5-.4-.7,0-1.5,0-.7.4-1.5.4-.7-.4-1.5-.4-.7.5-1.5.5-.7.2-1.5.2-.7-.2-1.5-.2-.7-.6-1.5-.6-1.2.7-1.6.5c-.5-.2-1.2-.3-1.6-.6-.4-.3-.4-1.1-.7-1.6-.3-.4-.9-.7-1.1-1.2-.2-.5-.3-1.1-.3-1.6s.8-.9,1-1.4c.2-.5.3-.9.6-1.4.3-.4.5-.9.9-1.2.4-.3,1-.2,1.5-.4.5-.2.9-.3,1.4-.3s.7-.4,1.4-.4.7-.4,1.4-.4.7.8,1.4.8.7-.9,1.4-.9.7.4,1.4.4.7,0,1.4,0,.7.6,1.4.6.7,0,1.4,0,.7-.9,1.4-.9.7.2,1.4.2.7.8,1.4.8.7,0,1.4,0,.7-.9,1.4-.9.7.4,1.4.4.7,0,1.4,0,.7,0,1.4,0,.7.5,1.4.5.7-.4,1.4-.4.7,0,1.4,0,.7.1,1.4.1.7-.4,1.4-.4.7,0,1.4,0,.7.2,1.4.2.7.1,1.4.1.7-.3,1.4-.3.7-.2,1.4-.2.7.2,1.4.2.7-.1,1.4-.1.7.1,1.4.1.7,0,1.4,0,.7-.3,1.4-.3.7.5,1.4.5.7.1,1.4.1.7-.5,1.4-.5.7,0,1.4,0,.7.2,1.4.2.7.6,1.4.6.7-.4,1.4-.4.7,0,1.4,0,.7-.3,1.4-.3.7.3,1.4.3.7-.2,1.4-.2.7.7,1.4.7.7-.6,1.4-.6.7-.3,1.4-.3.7,0,1.4,0,.7,0,1.4,0,.7.6,1.4.6.7.3,1.4.3.7,0,1.4,0,.7-.9,1.4-.9.7.9,1.4.9.7-.4,1.4-.4.7,0,1.4,0,.7,0,1.4,0,.7-.6,1.4-.6.7.4,1.4.4.7.2,1.4.2.7-.7,1.4-.7.7.7,1.4.7.7-.6,1.4-.6.7.6,1.4.6.7-.8,1.4-.8.7.3,1.4.3.7.1,1.4.1.7.5,1.4.5.7-.6,1.4-.6.7.7,1.4.7.7-.2,1.4-.2.7-.6,1.4-.6.7.7,1.4.7.7,0,1.4,0,.7-.2,1.4-.2.7,0,1.4,0,.7-.7,1.4-.7.7.7,1.5.7.7-.6,1.4-.6.7.1,1.4.1.7.4,1.4.4.7.2,1.4.2.7-.5,1.4-.5.7.7,1.4.7.7-.5,1.5-.5.7-.4,1.4-.4.7,0,1.4,0,.7.5,1.4.5.7-.5,1.5-.5.7,0,1.5,0,.7-.1,1.4-.1.7.8,1.4.8.7-.2,1.5-.2.7-.4,1.4-.4.7.2,1.5.2.7-.3,1.5-.3.7.6,1.5.6.7,0,1.4,0,.7,0,1.4,0,.7,0,1.5,0,.7-.4,1.5-.4.7.4,1.5.4.7-.4,1.5-.4.7-.3,1.5-.3.7.7,1.5.7.7.1,1.5.1.7,0,1.5,0,1,0,1.5,0c.5,0,.9-.6,1.4-.7.5,0,1.1,0,1.5,0,.5-.1.8-.8,1.2-.9.5-.2.7-.7,1.1-1,.4-.2,1.2.1,1.6-.1.4-.3.6-.8,1-1.1.4-.3,1-.3,1.4-.7s.3-1.1.6-1.4c.3-.4.4-.9.7-1.3.3-.4,1.1-.5,1.3-.9.2-.4.6-.8.8-1.3.2-.5-.4-1.2-.3-1.7.1-.5.3-.9.4-1.4,0-.5.1-.9.1-1.4,0-.5.4-.9.4-1.4,0-.7.4-.7.4-1.5s-.5-.7-.5-1.5-.1-.7-.1-1.5,0-.7,0-1.5-.2-.7-.2-1.5.3-.7.3-1.5-.5-.7-.5-1.5.6-.7.6-1.5,0-.7,0-1.5-.4-.7-.4-1.5.4-.7.4-1.5.4-.7.4-1.5.1-.7.1-1.5-.7-.7-.7-1.5.3-.7.3-1.5-.3-.7-.3-1.5-.2-.7-.2-1.5.6-.7.6-1.5-.8-.7-.8-1.5.8-.7.8-1.5-.7-.7-.7-1.5.2-.7.2-1.5,0-.7,0-1.5.6-.7.6-1.5-.8-1-.9-1.4c0-.5.4-1,.3-1.5,0-.5-.9-.8-1-1.2-.1-.5-.2-.9-.4-1.4-.2-.5.3-1.2,0-1.7Z"/>
  <path class="cls-1" d="M59.8,411.1c.5-.5.5-.5,1-1.1.5-.5,1,0,1.5-.6.5-.5,0-1.1.4-1.6.5-.5,1,0,1.5-.5.5-.5.2-.8.7-1.3.5-.5.7-.4,1.2-.9.5-.5.5-.6,1-1.1.5-.5.7-.3,1.2-.8.5-.5,0-1,.5-1.5.5-.5.6-.4,1.1-.9.5-.5.7-.3,1.3-.8.5-.5.3-.7.8-1.2.5-.5.4-.7.9-1.2.5-.5.5-.5,1-1,.5-.5.8-.2,1.3-.7.5-.5.6-.5,1.1-1,.5-.5,0-.9.6-1.4.5-.5,1.1,0,1.6-.5.5-.5.7-.3,1.2-.8.5-.5.2-.8.7-1.3.5-.5.3-.7.8-1.2.5-.5.7-.3,1.2-.8.5-.5.6-.4,1.1-.9.5-.5.2-.8.7-1.4.5-.5.4-.6.9-1.1.5-.5.7-.3,1.2-.8.5-.5.5-.5,1-1,.5-.5.3-.7.8-1.2.5-.5,1.2.2,1.7-.3.5-.5,0-1,.6-1.5.5-.5.7-.3,1.2-.8.5-.5.7-.3,1.2-.8.5-.5.3-.7.8-1.2.5-.5,0-1,.5-1.5.5-.5,1,0,1.5-.5.5-.5,0-1,.5-1.5.5-.5.6-.4,1.1-.9.5-.5,1,0,1.6-.5.5-.5.3-.7.8-1.2.5-.5.2-.8.7-1.3.5-.5.8-.3,1.3-.8.5-.5.9-.1,1.4-.6.5-.5.3-.7.8-1.2.5-.5,0-1,.5-1.5.5-.5.5-.5,1-1,.5-.5.8-.3,1.3-.8.5-.5.5-.6,1-1.1.5-.5.7-.3,1.2-.8.5-.5.2-.8.7-1.3.5-.5.9,0,1.4-.6.5-.5.1-.9.6-1.4.5-.5.7-.3,1.2-.9.5-.5.8-.2,1.3-.7.5-.5.4-.6.9-1.1.5-.5.6-.4,1.1-.9.5-.5,0-.9.6-1.4.5-.5.4-.6.9-1.1.5-.5.8-.2,1.3-.7.5-.5.6-.4,1.1-1,.5-.5,0-1.1.5-1.6.5-.5.6-.4,1.1-.9.5-.5.9-.1,1.4-.6.3-.3.5-.9.8-1.2.3-.4,1.1-.4,1.4-.9.3-.4-.2-1.3,0-1.7.2-.4,1-.6,1.2-1,.2-.5,0-1,.2-1.5.1-.5.5-.9.6-1.4,0-.5.4-1,.4-1.5,0-.5-.9-1-.9-1.5,0-.7.3-.7.3-1.4s.2-.7.2-1.4.3-.7.3-1.4-.5-.7-.5-1.4-.2-.7-.2-1.4.5-.7.5-1.4.2-.7.2-1.4-.2-.7-.2-1.4-.2-.7-.2-1.4,0-.7,0-1.4.6-.7.6-1.4-.8-.7-.8-1.4.4-.7.4-1.4.1-.7.1-1.4-.6-.7-.6-1.4,0-.7,0-1.4.9-.7.9-1.4-.5-.7-.5-1.4.2-.7.2-1.4-.1-.7-.1-1.4,0-.7,0-1.4-.6-.7-.6-1.4.8-.7.8-1.4-.3-.7-.3-1.4.2-.7.2-1.4.3-.7.3-1.4-.5-.7-.5-1.4,0-.7,0-1.4.5-.7.5-1.4-.5-.7-.5-1.4,0-.7,0-1.4,0-.7,0-1.4-.2-.7-.2-1.4.4-.7.4-1.4-.3-.7-.3-1.4.5-.7.5-1.4-.9-.7-.9-1.4.1-.7.1-1.4.3-.7.3-1.4-.3-.7-.3-1.4.6-.7.6-1.4-.5-.7-.5-1.4,0-.7,0-1.4.5-.7.5-1.4-.9-.7-.9-1.4.9-.7.9-1.4-.2-.7-.2-1.4-.4-.7-.4-1.4.7-.7.7-1.4-.8-.7-.8-1.4,0-.7,0-1.4.6-.7.6-1.5,0-.7,0-1.4.1-.7.1-1.5-.8-.7-.8-1.4,0-.7,0-1.5,0-.7,0-1.4,0-.7,0-1.4.1-.7.1-1.5-.2-.7-.2-1.4.8-.7.8-1.5,0-.7,0-1.5,0-.7,0-1.5-.3-.7-.3-1.5-.6-.7-.6-1.5,1.1-.7,1.1-1.5-.6-1-.6-1.5c0-.5.5-1.1.4-1.6,0-.5-.9-.8-1.1-1.3-.1-.5,0-1.1-.2-1.5-.2-.5-.5-.9-.7-1.3-.2-.4-1-.5-1.2-1-.3-.4-.4-.9-.7-1.3-.3-.4-.6-.7-1-1.1-.3-.3-.3-1.1-.7-1.4-.4-.3-1-.3-1.4-.5-.4-.3-.7-.7-1.2-.9-.4-.2-1-.2-1.4-.4-.5-.2-.9-.2-1.4-.4-.5-.1-.9-.3-1.4-.4-.5,0-1,0-1.4,0-.5,0-.9-.7-1.4-.7-.7,0-.7,0-1.4,0s-.7-.2-1.4-.2-.7.4-1.4.4-.7-.4-1.4-.4-.7.9-1.4.9-.7,0-1.4,0-.7-.9-1.4-.9-.7.3-1.4.3-.7-.3-1.4-.3-.7,0-1.4,0-.7.3-1.4.3-.7,0-1.4,0-.7.3-1.4.3-.7-.2-1.4-.2-.7.5-1.4.5-.7-.7-1.4-.7-.7.7-1.4.7-.7-.3-1.4-.3-.7-.2-1.4-.2-.7-.3-1.4-.3-.7.9-1.4.9-.7-.5-1.4-.5-.7-.4-1.4-.4-.7,0-1.4,0-.7,0-1.4,0-.7.5-1.4.5-.7.2-1.4.2-.7-1-1.4-1-.7.1-1.4.1-.7.8-1.4.8-.7-.4-1.4-.4-.7-.2-1.4-.2-.7.4-1.4.4-.7.1-1.4.1-.7-.2-1.4-.2-.7.5-1.4.5-.7-.6-1.4-.6-.7,0-1.4,0-.7.6-1.4.6-.7-.2-1.4-.2-.7-.8-1.4-.8-.7,1-1.4,1-.7-.6-1.4-.6-.7.5-1.4.5-.7-1-1.4-1-.7,1-1.4,1-.7-.4-1.4-.4-.7-.4-1.4-.4-.7.6-1.4.6-1-.2-1.5-.2c-.5,0-1.1-.4-1.6-.3-.5,0-.8,1.1-1.2,1.2-.5.1-.9.3-1.3.5-.5.2-1,0-1.5.3-.4.2-1.1.1-1.5.4-.4.3-.3,1.2-.7,1.5-.4.3-.8.5-1.2.9-.3.3-.7.6-1,1-.3.4-1,.5-1.2.9-.3.4-.3,1-.6,1.4-.2.4.1,1.1,0,1.6-.2.5-1.3.6-1.4,1.1-.1.5,0,1.1,0,1.5,0,.5-.2,1-.3,1.5,0,.5-.2,1-.2,1.5,0,.5.3,1,.3,1.5,0,.5.5.9.6,1.4,0,.5.2.9.4,1.4.1.5-.6,1.3-.4,1.7.2.5,1.3.5,1.5.9.2.4-.1,1.2.1,1.6.3.4,1.2.3,1.5.7.3.4.6.8.9,1.1.5.5.2.8.7,1.3s.8.2,1.3.7c.5.5.2.8.7,1.3.5.5.4.6.9,1.1.5.5.9,0,1.5.6.5.5,0,1.1.5,1.6.5.5,1.2-.1,1.7.4.5.5,0,1,.5,1.6.5.5.4.6.9,1.1.5.5,1.1,0,1.6.4.5.5,0,1.1.5,1.6.5.5.8.3,1.3.8.5.5.8.2,1.3.8.5.5.3.7.8,1.3.5.5.3.7.8,1.2.5.5.4.6.9,1.1.5.5,1.2-.1,1.7.4.5.5-.2,1.2.3,1.7.5.5.8.2,1.3.7.5.5.6.5,1.1,1,.5.5.3.7.9,1.2.5.5.7.4,1.2.9.5.5.2.8.7,1.3q.5.5,1,1c.5.5,1.2-.2,1.7.3.5.5,0,.9.6,1.5.5.5.4.6.9,1.1.5.5.9.1,1.4.6.5.5,0,.9.6,1.5.5.5.8.2,1.3.7.5.5.2.8.7,1.3.5.5.3.7.8,1.2.5.5,1,0,1.5.5.5.5.2.8.7,1.3.5.5.8.2,1.3.8.5.5.8.2,1.3.7.4.4.5,1.1.8,1.5.2.5.6,1,.6,1.5,0,.5-.2,1.1-.3,1.6,0,.5-.8.8-1,1.3-.2.5-.2,1-.6,1.3-.3.3-.4,1-.8,1.2-.4.2-.9.2-1.3.3-.5.1-1-.3-1.3-.3s-.8.6-1.3.4c-.4-.1-.5-.9-.9-1.1-.3-.2-.6-.4-.9-.7-.5-.5-.5-.5-1-1-.5-.5-.5-.5-1-1-.5-.5-.7-.3-1.2-.9-.5-.5-1,0-1.5-.5-.5-.5-.2-.8-.7-1.3-.5-.5-.5-.5-1-1-.5-.5,0-1-.6-1.5-.5-.5-1.1,0-1.6-.4-.5-.5,0-1-.5-1.5-.5-.5-1.1,0-1.6-.5-.5-.5-.4-.6-.9-1.1-.5-.5,0-1-.5-1.5-.5-.5-1.1,0-1.6-.4-.5-.5,0-1.1-.5-1.6-.5-.5-1,0-1.5-.5-.5-.5,0-1-.6-1.5-.5-.5-.4-.6-.9-1.1-.5-.5-.6-.4-1.2-.9-.5-.5-.9-.1-1.4-.6-.5-.5-.1-.9-.7-1.4-.5-.5-.4-.6-.9-1.1-.5-.5-.8-.3-1.3-.8-.5-.5-.5-.5-1-1.1-.5-.5-.6-.4-1.1-.9-.5-.5-.4-.6-1-1.1-.5-.5-.4-.6-.9-1.1-.5-.5-.6-.4-1.1-.9-.5-.5-.2-.8-.7-1.3s-.6-.4-1.1-.9c-.5-.5-.8-.2-1.3-.7-.5-.5,0-1-.6-1.5-.5-.5-.7-.3-1.2-.8-.5-.5-.4-.6-.9-1.1-.5-.5-.7-.3-1.2-.8-.5-.5-.3-.7-.8-1.2-.5-.5-1.1,0-1.6-.4-.5-.5-.3-.7-.8-1.2-.5-.5-.6-.4-1.1-1-.5-.5-.3-.8-.8-1.3-.5-.5-.4-.6-.9-1.2-.5-.5-.6-.4-1.2-.9-.5-.5-.6-.4-1.1-.9-.5-.5-.4-.6-.9-1.1-.5-.5-.3-.7-.9-1.2-.5-.5-.8-.3-1.3-.8-.5-.5-.4-.6-.9-1.1-.5-.5-.3-.7-.8-1.2-.5-.5-1.1,0-1.6-.5-.5-.5.2-1.2-.3-1.7-.5-.5-.9-.1-1.4-.6-.5-.5,0-.9-.6-1.4-.5-.5-.5-.5-1-1.1-.5-.5-.5-.5-1-1-.5-.5-1.2.2-1.7-.3-.5-.5.1-1.2-.4-1.7-.5-.5-1,0-1.5-.6-.5-.5-.4-.6-.9-1.1-.5-.5-.3-.7-.8-1.2-.5-.5-.3-.7-.8-1.2-.4-.4-.5-.5-.7-.8-.3,4.9-.5,9.9-.5,14.9,0,61.6,22.3,118.1,59.3,161.6.1-.1.3-.3.5-.5Z"/>
  <path class="cls-1" d="M419,67.5c.6,0,.7-.5,1.2-.7C376.6,26.3,318.5,1.2,254.6,0c0,0,0,.2,0,.3,0,.7.5.7.5,1.4s-.5.7-.5,1.4.2.7.2,1.4.8.7.8,1.4-.9.7-.9,1.4,0,.7,0,1.4,0,.7,0,1.4.7.7.7,1.4.2.7.2,1.4-1,.7-1,1.4.2.7.2,1.4.8.7.8,1.4-.8.7-.8,1.4.3.7.3,1.4-.3.7-.3,1.4.7.7.7,1.4-.6.7-.6,1.4.4.7.4,1.4-.2.7-.2,1.4,0,.7,0,1.4.2.7.2,1.4.3.7.3,1.4-.7.7-.7,1.4.5.7.5,1.4.1.7.1,1.4.2.7.2,1.4-.5.7-.5,1.4-.5.7-.5,1.4.9.7.9,1.4-.3.7-.3,1.4.3.7.3,1.4-.7.7-.7,1.4-.3.7-.3,1.4.6.7.6,1.4.1.7.1,1.4,0,.7,0,1.4-.4,1-.4,1.5c0,.5-.3,1.1-.2,1.5,0,.5.7.9.8,1.3.1.5.7.8.9,1.2.2.5-.4,1.3-.1,1.7.2.4.4.9.7,1.3.3.4.7.8,1,1.1.3.4,1.2.2,1.5.6s.5.9.9,1.2c.4.3.5,1.1.9,1.3.4.3,1.4-.4,1.8-.2.4.2.5,1.1,1,1.3.5.2,1,.2,1.4.4.5.1,1,.2,1.5.3.5,0,1,0,1.5,0,.5,0,1,.8,1.5.8.7,0,.7-.9,1.4-.9s.7.1,1.4.1.7.6,1.4.6.7,0,1.4,0,.7-.7,1.4-.7.7.3,1.4.3.7-.2,1.4-.2.7,0,1.4,0,.7.6,1.4.6.7-1,1.4-1,.7.3,1.4.3.7-.2,1.4-.2.7.7,1.4.7.7-.2,1.4-.2.7-.5,1.4-.5.7.1,1.4.1.7,0,1.4,0,.7-.3,1.4-.3.7.3,1.4.3.7.3,1.4.3.7.3,1.4.3.7.1,1.4.1.7,0,1.4,0,.7-.8,1.4-.8.7.2,1.4.2.7.7,1.4.7.7-.1,1.4-.1.7-.3,1.4-.3.7,0,1.4,0,.7-.5,1.4-.5.7.2,1.4.2.7.3,1.4.3.7.5,1.4.5.7-.1,1.4-.1.7-.3,1.4-.3.7-.4,1.4-.4.7.4,1.4.4.7,0,1.4,0,.7-.3,1.4-.3.7-.3,1.4-.3.7.1,1.4.1.7.6,1.4.6.7-.3,1.4-.3.7-.4,1.4-.4.7.9,1.4.9.7,0,1.4,0,.7-.8,1.4-.8.7.5,1.4.5.7,0,1.4,0,.7-.2,1.4-.2.7,0,1.4,0,.7-.6,1.4-.6.7,0,1.4,0,.7.3,1.4.3.7.5,1.4.5.7,0,1.4,0,.7-.2,1.4-.2.7.2,1.4.2.7.2,1.4.2.7-.8,1.4-.8.7.2,1.4.2.7-.3,1.4-.3.7,0,1.4,0,.7-.1,1.4-.1.7.2,1.4.2.7.7,1.4.7.7-.3,1.4-.3.7.3,1.4.3.7-.5,1.4-.5.7,0,1.4,0,.7,0,1.4,0,.7-.5,1.4-.5.7.5,1.4.5.7.3,1.4.3.7,0,1.4,0,.7.1,1.5.1.7-.8,1.4-.8.7,0,1.4,0,.7.5,1.4.5.7.3,1.4.3.7,0,1.4,0,.7,0,1.4,0,.7-.8,1.5-.8.7-.1,1.4-.1.7.2,1.4.2.7.5,1.4.5.7-.8,1.5-.8.7,1,1.5,1,.7-.3,1.4-.3.7,0,1.4,0,.7-.6,1.5-.6.7.9,1.4.9.7,0,1.5,0,.7-.7,1.5-.7.7.6,1.5.6.7.1,1.4.1.7-.1,1.4-.1.7-.6,1.5-.6.7.6,1.5.6.7-.4,1.5-.4.7.1,1.5.1.7.3,1.5.3.7,0,1.5,0Z"/>
</svg>