<svg width="1520" height="1520" viewBox="0 0 1520 1520" fill="none" xmlns="http://www.w3.org/2000/svg">
<g filter="url(#filter0_f_2238_1456)">
<path fill-rule="evenodd" clip-rule="evenodd" d="M1480 40H40V1480H1480V40ZM797.159 838.237C795.521 838.558 794.157 840.272 789.565 845.83C786.598 849.422 784.246 849.33 781.641 849.229C779.33 849.139 776.819 849.042 773.5 851.501C771.663 852.863 770.234 852.349 768.695 851.795C767.335 851.305 765.889 850.785 764 851.501C761.414 852.482 759.921 854.171 758.59 855.677C756.743 857.767 755.208 859.503 751.5 858.501C748.45 857.678 746.154 857.575 743.74 857.467C740.639 857.329 737.342 857.181 732 855.486C730.884 855.132 729.814 854.809 728.791 854.5C720.867 852.109 715.748 850.564 713.433 841.787C712.136 836.867 712.162 833.016 712.186 829.527C712.223 824.179 712.255 819.684 707.5 813.501C706.215 811.83 704.971 810.292 703.745 808.776C700.201 804.396 696.808 800.201 693 793.499C690.153 788.487 688.688 783.67 687.264 778.99C685.368 772.756 683.546 766.763 678.626 760.87C673.772 755.054 675.139 753.021 676.517 750.97C677.893 748.923 679.281 746.859 674.5 740.999C670.749 736.402 671.338 734.333 672.023 731.926C672.64 729.757 673.335 727.315 671 722.502C668.925 718.224 669.759 716.746 670.959 714.621C671.8 713.13 672.822 711.321 673.145 708.002C673.518 704.163 673.056 703.646 673.136 703.54C673.223 703.426 673.938 703.788 677 700.999C680.767 697.568 681.189 696.55 681.95 696.015C682.689 695.497 683.748 695.433 688.5 694.06C694.996 692.181 695.648 691.266 696.091 691.358C696.487 691.44 696.715 692.329 700.805 694.057C708.336 697.237 713.454 695.95 718.499 694.681C722.623 693.643 726.698 692.618 732 694.058C739.365 696.058 743.402 691.667 747.526 687.184C751.537 682.822 755.629 678.373 762.943 679.633C768.274 680.551 772.35 680.12 776.452 679.685C780.414 679.266 784.4 678.844 789.565 679.633C794.398 680.371 794.892 685.39 795.41 690.65C795.895 695.571 796.4 700.705 800.5 702.744C809.788 707.363 820.279 713.613 829.372 719.03C829.92 719.357 830.463 719.68 831 720C837.33 723.769 838.193 723.684 839.592 723.548C840.809 723.429 842.431 723.271 848.406 725.571C851.974 726.945 853.58 730.108 855.25 733.397C856.437 735.736 857.656 738.138 859.636 740.005C864.056 744.175 864.042 746.004 864.012 749.848C864 751.332 863.986 753.117 864.224 755.453C864.377 756.953 864.646 758.321 864.902 759.617C865.568 763.002 866.139 765.898 864.286 769.363C862.874 772.006 862.828 774.037 862.788 775.782C862.735 778.159 862.693 780.008 859.227 782.152C856.016 784.138 854.982 783.761 854.045 783.42C853.072 783.065 852.203 782.748 849.108 785.158C843.032 789.888 839.99 793.071 835.011 798.951C832.383 802.054 833.13 804.698 834.001 807.781C834.487 809.499 835.011 811.354 835.011 813.501C835.011 819.178 828.009 832.057 823.5 835.501C819.574 838.501 818 839.001 806.5 839.001C800.732 839.001 798.807 837.914 797.159 838.237Z" fill="black"/>
</g>
<defs>
<filter id="filter0_f_2238_1456" x="0" y="0" width="1520" height="1520" filterUnits="userSpaceOnUse" color-interpolation-filters="sRGB">
<feFlood flood-opacity="0" result="BackgroundImageFix"/>
<feBlend mode="normal" in="SourceGraphic" in2="BackgroundImageFix" result="shape"/>
<feGaussianBlur stdDeviation="20" result="effect1_foregroundBlur_2238_1456"/>
</filter>
</defs>
</svg>
