<svg width="209" height="85" viewBox="0 0 209 85" fill="none" xmlns="http://www.w3.org/2000/svg">
<path d="M50.2027 80.4831C48.6551 79.8015 48.251 78.5555 48.3844 77.0786C48.5293 75.4728 48.9029 73.8823 49.0134 72.2766C49.0782 71.345 49.0248 70.2959 48.6475 69.4704C48.11 68.2888 47.7784 67.3648 48.7656 66.2097C49.6119 65.2175 49.4556 64.0473 48.3501 63.2331C47.2256 62.4037 45.983 62.4757 45.1063 63.5285C44.2867 64.5131 44.4849 65.6379 45.4074 66.577C45.8648 67.0429 46.3184 67.5162 47.0846 68.3077C45.3998 68.997 44.1037 69.6029 42.7543 70.046C42.133 70.2505 41.2372 70.3944 40.7569 70.099C39.3847 69.2583 38.2716 69.4704 37.1014 70.3906C36.6249 70.7655 36.0417 71.0079 35.0849 71.5495C35.2679 69.6256 34.4826 69.3605 33.1599 69.4855C30.9033 69.6976 28.6276 69.7847 26.3634 69.7885C25.9517 69.7885 25.2046 69.1371 25.1893 68.7622C25.1284 67.3307 25.1703 65.8651 25.4562 64.4714C25.5743 63.892 26.4091 63.4565 26.9161 62.9566C27.0572 63.093 27.1982 63.2331 27.3392 63.3694C27.2249 63.714 26.9733 64.0814 27.0267 64.3957C27.1715 65.2478 27.2325 66.2741 27.7585 66.8421C28.0597 67.1716 29.6187 67.005 29.8512 66.6149C30.2515 65.9446 30.2248 64.8918 30.0571 64.0624C29.9542 63.5512 29.3214 63.0361 28.803 62.737C25.0369 60.5518 20.6342 63.1157 20.5618 67.4897C20.5503 68.1714 20.4207 68.8531 20.3788 69.2356C19.7346 69.9021 19.2657 70.383 18.7969 70.864C19.2848 71.326 19.8375 71.7426 20.2454 72.2652C20.6075 72.7234 20.9963 73.2915 21.0459 73.8368C21.1678 75.2115 21.1373 76.6052 21.0954 77.9912C21.0611 79.0781 20.901 80.0893 19.5745 80.5172C19.2124 80.6346 19.0523 81.3845 18.8007 81.8427C19.342 82.0283 19.8833 82.3691 20.4245 82.3691C23.1233 82.3577 25.8183 82.1835 28.5133 82.2062C31.0825 82.2252 33.6516 82.4562 36.2208 82.4903C36.6478 82.4941 37.0823 81.9639 37.5131 81.6836C37.1738 81.286 36.8879 80.8278 36.48 80.5172C36.2246 80.3203 35.7939 80.3506 35.3708 80.2673C35.3708 78.2601 35.2336 76.359 35.428 74.4958C35.5233 73.5793 36.1675 72.678 36.724 71.8827C36.865 71.682 37.9209 71.7426 38.062 71.9736C39.4495 74.3026 39.8878 74.3595 41.7595 72.6591C42.2626 72.2046 43.2499 72.0077 43.936 72.1289C44.2867 72.1933 44.626 73.212 44.6793 73.8255C44.8013 75.1964 44.6755 76.5862 44.7822 77.9572C44.8775 79.1614 44.6641 80.0022 43.3604 80.4566C42.9526 80.5967 42.7658 81.3617 42.4761 81.8389C42.9335 82.0926 43.3795 82.5509 43.8445 82.566C45.7848 82.6304 47.7364 82.6115 49.6729 82.4978C50.115 82.4713 50.6792 82.0131 50.8926 81.6003C51.0032 81.392 50.5458 80.6422 50.1913 80.4869L50.2027 80.4831ZM30.8118 80.3316H25.3914V71.9433C27.2897 72.0531 28.9326 72.1516 30.8118 72.2614V80.3316Z" fill="#DDDDDD"/>
<path d="M76.0401 18.0165C71.5535 18.5694 67.147 18.8913 62.6414 18.0165C59.611 17.4295 56.4586 17.4787 53.3672 17.172C52.7954 17.1152 51.8501 16.7743 51.7929 16.4448C51.6976 15.8957 52.0178 15.0701 52.4524 14.6687C53.6569 13.5629 55.1054 12.7146 56.2833 11.586C58.456 9.50317 60.6516 7.40892 62.5233 5.07231C63.137 4.30732 62.7787 2.77356 62.8663 1.592C61.7228 1.64502 60.3315 1.29661 59.489 1.81922C56.7102 3.54234 53.9161 5.34876 51.5223 7.54904C45.6215 12.9721 40.8948 19.4025 36.3282 25.9428C35.8327 26.651 35.1542 27.2304 34.5634 27.8704L29.89 33.4184C29.7604 33.5699 29.5127 33.479 29.5165 33.2783C29.6118 26.2155 23.6767 24.7234 18.1838 22.4814C19.5066 21.8376 20.3985 21.4173 21.2753 20.9742C27.7783 17.6794 28.8342 9.34032 23.3565 4.54969C18.7251 0.512687 8.14344 1.05045 3.97709 5.53812C1.14107 8.59427 1.28211 11.5065 3.63021 14.9906C4.82713 16.7667 5.60475 19.2056 5.55519 21.3226C5.50183 23.5797 6.41667 24.197 8.17393 24.4734C9.00111 24.606 9.87021 24.587 10.7088 24.5037C17.7188 23.822 21.5078 31.0515 20.692 35.9331C19.6057 42.443 15.1306 46.2263 9.2908 44.9235C7.808 44.5941 6.07742 43.5905 5.29599 42.3711C4.27441 40.7767 5.89064 39.5005 7.03419 38.3341C8.69234 36.645 8.27304 34.3387 6.18796 33.2291C3.4968 31.7976 0.0928152 33.3768 0.00514271 36.3951C-0.052035 38.3568 0.367268 40.5495 1.2783 42.2726C3.39006 46.2642 9.05447 48.3243 13.9413 47.2071C15.6032 46.8284 17.2233 46.2679 18.8585 45.7643C18.9538 45.734 19.0263 45.8552 18.9538 45.9233C16.8688 47.9077 14.7837 49.8959 12.7863 51.9637C9.22982 55.6447 5.84489 59.4999 2.52859 63.3968C1.58706 64.5026 0.958105 65.9796 0.538801 67.3884C0.0546967 69.0168 0.668404 69.5356 2.4028 69.4296C5.87539 69.2175 8.59324 67.5399 10.625 64.8813C16.1483 57.6518 21.4963 50.286 27.054 43.0792C31.3347 37.5274 35.8098 32.1233 40.2506 26.6926C40.6204 26.242 41.3637 26.0905 41.9355 25.7989C42.1032 26.4389 42.3167 27.0713 42.4272 27.7189C42.4768 28.0105 42.3548 28.34 42.2671 28.6392C41.3561 31.6953 40.3574 34.725 39.5798 37.8152C39.4197 38.4552 39.8771 39.686 40.4031 39.9587C41.3637 40.451 42.3815 40.0193 42.736 38.7923C43.0981 37.5236 43.4412 36.2474 43.7995 34.9749C44.7524 31.5704 46.8261 29.1353 50.272 28.1317C53.108 27.3061 55.9593 27.3402 58.8982 28.0863C61.1167 28.6505 63.4915 28.677 65.8053 28.749C67.3109 28.7944 68.8281 28.3817 70.3414 28.3741C72.171 28.3665 73.5433 29.5367 73.3146 31.3053C73.0935 33.0246 72.4341 34.8159 71.5116 36.2928C68.8052 40.6214 65.2868 44.541 63.156 49.112C59.4928 56.9664 56.47 65.1351 53.5616 73.3038C52.8412 75.3223 53.2719 77.9278 53.7522 80.1394C54.2897 82.6199 56.0812 83.1501 58.2578 81.7906C60.8575 80.1697 62.7863 77.8747 63.5906 74.9398C64.433 71.8571 64.9705 68.6835 65.5117 65.5289C66.3275 60.761 66.743 55.9098 67.8598 51.2176C69.3388 45.0031 71.7784 39.2013 76.0286 34.1456C78.2929 31.4492 80.0158 28.1241 81.2814 24.8218C82.9319 20.5084 80.4656 17.4711 76.0553 18.0127L76.0401 18.0165ZM16.3847 18.2058C15.6871 20.7204 10.0189 22.7049 7.90329 21.3605C6.18034 20.2698 6.02786 16.9031 7.60978 14.9414C10.1447 11.8019 10.0608 11.1733 7.2934 8.36326C6.87028 7.93532 6.75974 6.63258 7.09899 6.13268C8.24255 4.44744 11.7647 3.80364 14.0937 4.62165C16.7353 5.54948 17.9437 7.23472 17.8675 10.9536C17.5206 12.7108 17.128 15.5057 16.3808 18.2058H16.3847Z" fill="#DDDDDD"/>
<path d="M208.988 40.6135C208.9 35.4666 207.874 30.5598 204.959 26.1596C200.018 18.7041 193.669 14.2469 184.198 15.9307C182.993 16.1441 181.859 15.7821 181.081 14.685C180.753 14.2202 180.86 13.5725 181.321 13.2411C181.978 12.7763 182.645 12.3039 183.241 11.7515C185.412 9.73241 187.693 7.7933 189.563 5.51513C190.334 4.57795 190.803 2.45598 190.257 1.58737C189.33 0.105419 187.464 1.09593 186.346 1.83881C183.614 3.65602 180.875 5.5456 178.486 7.78187C172.858 13.0582 168.291 19.2527 163.911 25.5768C163.327 26.4187 162.56 27.1311 161.721 28.0759L158.111 32.1217C157.848 32.4151 157.359 32.2665 157.31 31.8741C156.718 27.3902 156.592 26.4225 146.115 21.7443C147.359 21.1004 148.24 20.6547 149.114 20.1937C155.162 17.0165 156.352 9.60669 152.063 4.31128C147.588 -1.20891 134.153 0.406382 131.028 4.95511C128.788 8.21236 128.846 10.8296 131.085 14.0983C132.241 15.7898 132.921 18.0298 133.134 20.0909C133.462 23.2529 133.749 23.8319 136.954 23.9158C137.572 23.931 138.19 23.9424 138.808 23.9196C141.754 23.8167 144.57 25.2034 146.336 27.554C148.79 30.815 149.041 34.2285 147.782 38.0077C146.023 43.2916 141.727 45.9698 136.351 44.5946C134.943 44.2364 133.287 43.0593 132.726 41.8173C132.364 41.0135 133.581 39.2306 134.462 38.202C136.107 36.2781 136.023 34.2171 133.936 32.9065C131.448 31.3408 128.487 32.4265 127.552 35.2457C126.327 38.9372 128.578 43.6345 132.654 45.7184C136.648 47.7604 140.727 47.6994 144.856 46.0727C145.169 45.947 145.497 45.8517 145.844 45.7641C146.142 45.6879 146.351 46.0536 146.134 46.2746C141.231 51.2957 136.313 56.3016 131.524 61.4332C130.002 63.0676 128.838 65.1248 127.873 67.1591C127.071 68.8506 127.812 69.6164 129.674 69.5897C133.455 69.5364 136.156 67.4829 138.301 64.6829C142.04 59.7951 145.562 54.7435 149.293 49.8519C154.681 42.7888 161.362 34.5066 166.841 27.5083C168.116 25.1806 169.829 23.9881 170.664 23.3481C170.832 23.2186 171.073 23.2529 171.199 23.4205C172.324 24.9063 171.557 26.3006 171.412 27.6645C171.054 31.0512 170.058 36.9714 170.119 40.3544C170.18 43.7602 171.923 48.6937 175.026 50.7509C177.609 52.4615 180.36 53.9701 182.737 55.9283C186.942 59.3912 188.903 57.936 193.657 55.8978C194.584 55.5016 194.416 56.6292 195.397 56.355C195.328 57.3378 195.382 58.3474 195.168 59.296C193.89 64.9952 192.867 71.1135 187.854 74.668C185.125 76.6033 178.063 80.592 175.129 81.9939C175.094 82.0015 175.033 82.0092 174.961 81.9977C174.839 81.9787 174.758 81.9063 174.736 81.8796V81.8873C174.736 81.8873 174.72 81.8606 174.709 81.853C173.434 80.8091 173.602 79.4567 173.576 78.0395C173.534 75.9785 173.362 73.8946 172.958 71.8755C172.832 71.2545 171.756 70.3821 171.126 70.3897C169.565 70.4126 168.013 70.8812 166.368 71.1859C165.651 69.6697 164.342 69.1516 162.331 70.0926C161.675 70.4011 161.293 71.2964 160.79 71.9212C161.358 72.2869 161.93 72.6526 162.903 73.2774C162.903 74.847 162.911 76.9728 162.903 79.1024C162.896 80.8434 161.923 81.7044 160.263 81.5596C158.626 81.4149 158.329 80.0624 158.363 78.7519C158.405 77.1138 158.725 75.487 158.775 73.8489C158.905 69.4373 159.115 69.9783 154.742 70.3973C154.357 70.4354 153.769 70.885 153.712 71.2164C153.647 71.5936 153.975 72.2831 154.311 72.4355C155.826 73.125 156.009 74.3441 155.871 75.7575C155.745 77.0566 155.65 78.3633 155.49 79.6586C155.307 81.1329 154.254 82.0815 152.964 81.9825C152.178 81.9215 151.132 80.8777 150.827 80.0434C150.411 78.9157 150.43 77.5519 150.568 76.3252C150.728 74.8965 151.251 73.5098 151.552 72.0888C151.876 70.5688 151.22 69.6316 150.06 70.0621C147.366 71.0564 144.734 70.584 142.063 70.0888C139.873 69.6811 137.732 70.8126 137.263 72.5536C136.668 74.767 137.816 76.7976 140.098 77.6319C141.048 77.9785 142.047 78.2909 142.875 78.8395C144.028 79.6053 144.039 80.8129 143.326 81.8568C142.566 82.9692 141.475 82.8511 140.556 82.0206C139.911 81.4339 139.438 80.6605 138.861 79.99C138.499 79.5672 138.098 79.1786 137.316 78.3519V83.0492C138.468 83.3349 139.506 83.594 140.544 83.853C142.902 84.4397 145.317 83.4416 146.226 81.5025C147.225 79.3729 146.569 77.2661 144.295 75.8109C143.352 75.2089 142.261 74.7822 141.181 74.4737C140.3 74.2222 139.38 73.9365 139.796 72.9346C140.071 72.2793 140.964 71.7193 141.696 71.4678C142.177 71.304 142.875 71.7574 143.471 71.9517C144.428 72.2603 145.363 72.7517 146.344 72.8469C147.458 72.9574 148.049 73.3193 147.889 74.4622C147.706 75.7728 147.435 77.0757 147.21 78.3824C146.573 82.0815 148.942 84.8016 152.281 83.8226C154.013 83.3159 155.349 83.1597 157.234 83.4721C160.519 84.013 164.002 83.3311 167.822 83.1444C167.291 82.352 166.937 81.8301 166.589 81.3006C166.368 80.9577 165.983 80.6072 165.979 80.2529C165.944 78.2262 165.738 76.1423 166.139 74.1879C166.341 73.2089 167.62 71.8831 168.551 71.7536C169.882 71.5707 170.424 73.0298 170.42 74.3327C170.413 75.9137 170.42 77.5176 170.176 79.0719C170.035 79.971 169.39 80.7863 169.001 81.651C168.86 81.9711 168.612 82.4854 168.737 82.6301C169.024 82.9578 169.493 83.2663 169.92 83.3121C171.229 83.4568 172.553 83.5178 173.873 83.514C174.03 83.514 174.22 83.4759 174.4 83.4073C174.468 83.3806 174.537 83.3616 174.61 83.3578C174.907 83.3311 175.243 83.293 175.625 83.2435C177.712 82.9616 178.189 83.8911 181.684 82.4625C187.964 80.371 192.882 77.5366 197.522 72.4812C205.806 63.4561 209.194 52.6596 208.992 40.602L208.988 40.6135ZM145.638 9.24859C145.226 11.6068 144.924 13.9916 144.383 16.3231C143.616 19.6108 138.903 22.2395 135.927 20.7233C134.867 20.1823 134.275 18.1022 134.115 16.6546C134.012 15.7174 134.931 14.525 135.656 13.6716C137.64 11.3439 137.587 9.67908 135.248 7.77044C133.604 6.43325 133.565 5.57608 135.279 4.45604C137.679 2.88647 140.224 2.78361 142.799 4.05222C144.951 5.1113 145.806 6.86755 145.638 9.24859ZM194.046 45.7832C193.638 46.8003 192.787 47.7604 191.906 48.4804C189.956 50.0766 188.079 49.7871 186.56 47.848C185.457 46.4422 184.034 45.1508 183.37 43.5736C182.451 41.3906 182.367 40.0534 181.775 37.7448C181.936 37.7067 181.615 35.8704 181.775 35.8323C181.73 32.1675 182.386 29.3178 183.912 25.9082C184.923 23.6529 186.663 22.6014 189.307 22.689C191.62 22.7652 193.169 23.7938 193.813 26.1673C195.58 32.6741 196.679 39.2382 194.042 45.7794L194.046 45.7832Z" fill="#DDDDDD"/>
<path d="M104.891 43.8446C105.891 44.422 105.891 45.8654 104.891 46.4427L97.5157 50.7006C96.5157 51.278 95.2657 50.5563 95.2657 49.4016L95.2657 40.8858C95.2657 39.7311 96.5157 39.0094 97.5157 39.5867L104.891 43.8446Z" fill="#DDDDDD"/>
</svg>
