<svg width="21" height="68" viewBox="0 0 21 68" fill="none" xmlns="http://www.w3.org/2000/svg">
<path d="M18.0519 60.3879C17.6656 60.3879 17.2794 60.3774 16.8931 60.3958C16.7865 60.401 16.6849 60.4942 16.5808 60.5467C16.6448 60.6333 16.6924 60.7515 16.7765 60.8026C17.1891 61.0572 17.613 61.2922 18.0281 61.5415C18.1535 61.6176 18.2827 61.7029 18.3755 61.8158C18.5724 62.056 18.7731 62.3053 18.6502 62.6676C18.5335 63.0061 18.2626 63.1125 17.9666 63.1597C17.1176 63.2949 16.2648 63.2555 15.4533 62.9917C14.3998 62.6505 13.3727 62.2213 12.3343 61.8276C12.1875 61.7725 12.0458 61.6819 11.8953 61.6583C11.7762 61.6399 11.6018 61.6583 11.5328 61.7371C11.4639 61.8171 11.44 62.0258 11.4915 62.119C11.6244 62.3604 11.7937 62.5875 11.9793 62.7883C12.9814 63.8776 14.2343 64.4682 15.6139 64.8527C16.8755 65.2031 18.1535 65.2136 19.4378 65.2175C19.7601 65.2175 19.8153 65.2831 19.6347 65.5666C19.4277 65.8908 19.1644 66.1769 18.9348 66.4853C18.6928 66.8095 18.4357 67.1271 18.2363 67.4788C18.1109 67.7006 17.9767 67.7846 17.7409 67.7806C15.7995 67.7478 14.1302 67.0562 12.7945 65.5561C12.5261 65.2543 12.2088 65.1283 11.8351 65.2517C11.2883 65.4314 10.7465 65.6322 10.2072 65.8383C8.95306 66.3186 7.70142 66.8068 6.44978 67.2924C6.15756 67.4066 5.87287 67.5483 5.57438 67.6376C4.97991 67.8134 4.68017 67.6756 4.38419 67.1126C4.18353 66.7307 3.99415 66.3409 3.81355 65.9472C3.70695 65.7149 3.56774 65.5364 3.30688 65.5233C3.03222 65.5102 2.87545 65.6874 2.73498 65.9105C2.38006 66.4748 2.0151 67.0339 1.64889 67.5903C1.56611 67.7163 1.47331 67.8384 1.36545 67.9394C1.31528 67.9867 1.21871 67.9801 1.14347 67.9972C1.13092 67.9289 1.09581 67.8541 1.1096 67.7924C1.34789 66.7058 1.5912 65.6204 1.8345 64.5351C2.1355 63.1899 2.32613 61.8381 2.28098 60.4457C2.24461 59.3223 2.31484 58.1949 2.3161 57.0702C2.3161 55.8365 2.3023 54.6016 2.27346 53.3679C2.25339 52.4834 2.19068 51.6001 2.16058 50.7156C2.14177 50.1552 2.26593 50.0135 2.79267 50.062C3.27928 50.1066 3.76339 50.1998 4.24498 50.2983C4.40175 50.3298 4.5698 50.4164 4.68644 50.5292C4.95357 50.7865 5.26084 50.8718 5.60699 50.8508C6.79467 50.7786 7.98109 50.6683 9.16877 50.6408C10.305 50.6132 11.4438 50.6644 12.5813 50.6907C13.0817 50.7025 13.5821 50.7327 14.0825 50.7628C14.4851 50.7865 14.82 50.6395 15.0896 50.3363C15.4859 49.8901 15.9449 49.7733 16.4792 50.0253C17.0774 50.3074 17.6845 50.5712 18.2676 50.8849C18.7254 51.1316 18.7091 51.3429 18.3454 51.7235C18.1961 51.8797 18.0732 52.1264 18.0519 52.343C18.0068 52.797 18.0218 53.259 18.0406 53.717C18.0544 54.0491 17.9804 54.305 17.7033 54.5045C17.5177 54.6383 17.3659 54.8273 17.2079 55.0006C17.0047 55.225 17.0285 55.4507 17.2342 55.6581C17.5578 55.9835 17.8939 56.2946 18.2074 56.6305C18.5799 57.0321 18.5749 57.1791 18.2275 57.5965C17.9554 57.9246 18.0168 58.2212 18.3855 58.4994C18.7568 58.7789 19.1154 59.0782 19.4716 59.3774C19.6735 59.5467 19.7776 59.7619 19.6786 60.0428C19.5857 60.3039 19.3851 60.3577 19.1506 60.3564C18.7843 60.3551 18.4194 60.3564 18.0532 60.3564C18.0532 60.3656 18.0532 60.3748 18.0532 60.384L18.0519 60.3879ZM10.1182 51.3547C10.1157 51.2996 10.1144 51.2458 10.1119 51.1907C8.59688 51.339 7.08061 51.4768 5.56685 51.6408C5.02632 51.6999 4.83568 52.0359 4.90592 52.6855C4.96612 53.2459 5.13668 53.3797 5.73366 53.3391C5.83775 53.3325 5.94184 53.3259 6.04594 53.3154C8.64956 53.0346 11.2544 53.049 13.8593 53.2918C14.8413 53.3837 14.9517 53.2748 14.9178 52.2406C14.9028 51.7931 14.7322 51.5805 14.3033 51.5227C13.7966 51.4545 13.2874 51.377 12.7782 51.3613C11.8928 51.335 11.0061 51.3534 10.1194 51.3534L10.1182 51.3547ZM12.4659 60.4654C12.4659 60.4654 12.4659 60.4575 12.4659 60.4522C11.7147 60.4522 10.9635 60.4273 10.2135 60.4601C9.65162 60.485 9.23148 60.8748 9.13491 61.4273C8.98567 62.2712 8.98818 63.1216 9.12613 63.9681C9.17254 64.2542 9.33307 64.4721 9.6303 64.4445C10.2599 64.3855 10.8882 64.3015 11.514 64.2096C11.7022 64.1821 11.731 64.0246 11.6545 63.8566C11.5241 63.5705 11.366 63.2962 11.2632 63.0009C11.1466 62.6675 11.0049 62.3158 11.0036 61.9707C11.0011 61.489 11.4124 61.2502 11.9505 61.3775C12.6114 61.535 13.2598 61.7476 13.922 61.8932C14.4814 62.0153 15.0507 62.1137 15.6201 62.1478C16.1582 62.1806 16.3488 61.7764 16.0453 61.304C15.6803 60.737 15.1461 60.4759 14.5002 60.468C13.8217 60.4601 13.1444 60.4667 12.4659 60.4667V60.4654ZM6.63664 62.7332C6.65295 62.7332 6.668 62.7332 6.6843 62.7332C6.6843 62.1216 6.69935 61.51 6.67929 60.8998C6.66549 60.489 6.54133 60.3827 6.15881 60.3512C5.94059 60.3328 5.72237 60.3144 5.50289 60.3079C4.7805 60.2882 4.5673 60.4798 4.49706 61.2344C4.40551 62.2082 4.17976 63.1466 3.85494 64.0626C3.64299 64.6598 3.71071 64.8684 4.31396 64.9524C4.90466 65.0338 5.51543 64.9708 6.11617 64.9459C6.51625 64.9288 6.63163 64.7858 6.63664 64.3723C6.64166 63.8264 6.6379 63.2804 6.6379 62.7332H6.63664ZM4.84446 55.4494C4.84446 55.4494 4.857 55.4494 4.86328 55.4494C4.86328 55.6673 4.86202 55.8864 4.86328 56.1043C4.86829 56.6463 5.05642 56.8694 5.57689 56.8812C5.96191 56.8904 6.34944 56.8655 6.73321 56.83C7.06556 56.7985 7.21732 56.5794 7.20101 56.2224C7.17969 55.7539 7.15837 55.2853 7.14583 54.8168C7.12325 53.9625 6.93764 53.7538 6.12746 53.8181C5.19939 53.8916 4.70776 54.053 4.83443 55.2525C4.8407 55.3182 4.8407 55.3838 4.84321 55.4494H4.84446ZM15.4006 57.1936V57.2237C15.1599 57.2237 14.9203 57.2172 14.6808 57.2251C14.0976 57.2447 13.8091 57.6148 13.8944 58.2199C13.9208 58.4023 13.9095 58.5978 13.9684 58.7671C14.0349 58.9587 14.1177 59.2173 14.2656 59.2908C14.7284 59.5217 15.2752 59.5926 15.7054 59.3196C16.1105 59.0637 16.4441 58.6438 16.7326 58.2369C17.0473 57.7933 16.8003 57.3025 16.2748 57.2395C15.9851 57.2041 15.6916 57.208 15.4006 57.1936ZM6.06851 59.5152C6.22528 59.5152 6.3808 59.5178 6.53757 59.5139C6.98906 59.5007 7.24742 59.2291 7.25243 58.7553C7.25494 58.5598 7.24867 58.3629 7.23487 58.1674C7.20603 57.7526 6.98655 57.5348 6.58773 57.5374C6.22403 57.54 5.86033 57.5571 5.49662 57.5794C5.21695 57.5965 5.02506 57.7487 4.96361 58.0414C4.92097 58.2422 4.88836 58.4456 4.86829 58.6503C4.81813 59.1858 5.08902 59.5021 5.60197 59.5152C5.75749 59.5191 5.91425 59.5152 6.07102 59.5152H6.06851ZM10.512 57.2552C10.512 57.2552 10.512 57.2618 10.512 57.2644C10.4493 57.2644 10.3866 57.2644 10.3251 57.2644C9.80338 57.271 9.56759 57.544 9.60898 58.0912C9.62152 58.2645 9.62654 58.439 9.63657 58.6123C9.67796 59.3039 10.295 59.7094 10.9258 59.4601C11.262 59.3275 11.4137 59.0782 11.4074 58.7094C11.4037 58.4718 11.4137 58.2343 11.4363 57.9981C11.4714 57.6424 11.2858 57.3484 10.9459 57.2802C10.8054 57.2526 10.6575 57.2631 10.512 57.2552ZM13.9182 55.9009C13.9182 56.3418 14.0411 56.5452 14.3823 56.6529C14.6783 56.746 14.9429 56.6699 15.1435 56.4192C15.3568 56.1528 15.5612 55.8772 15.7631 55.6016C16.0378 55.2263 15.9061 54.7551 15.4834 54.5845C15.1222 54.4375 14.7485 54.5609 14.519 54.8916C14.44 55.0045 14.3572 55.1265 14.2493 55.2027C13.996 55.3825 13.9007 55.6253 13.9195 55.9009H13.9182ZM10.4881 56.6896C11.06 56.767 11.4676 56.4101 11.3309 55.8379C11.3021 55.7145 11.3247 55.578 11.3222 55.4468C11.3096 54.8877 10.838 54.5714 10.3677 54.8352C10.1357 54.9664 9.86232 55.137 9.75823 55.3641C9.63657 55.6318 9.61525 55.9927 9.66542 56.2919C9.71558 56.5885 10.0191 56.6555 10.2912 56.6765C10.364 56.6817 10.4367 56.6857 10.4881 56.6883V56.6896Z" fill="white"/>
<path d="M1.94214 6.75642C3.15616 6.6278 4.37394 6.52544 5.5842 6.36007C6.28778 6.26427 6.4157 6.02804 6.32916 5.2826C6.30157 5.04506 6.25893 4.80752 6.20249 4.57522C6.06705 4.0227 5.65318 3.64211 5.11765 3.66836C4.14819 3.7156 3.1825 3.81535 2.2143 3.89278C2.09013 3.90328 1.95092 3.9479 1.84558 3.90328C1.72768 3.85341 1.6424 3.72085 1.54332 3.62505C1.64993 3.52268 1.74399 3.36126 1.86564 3.33239C2.11647 3.27333 2.38361 3.2917 2.64321 3.26939C4.50688 3.10797 6.3693 2.94654 8.23296 2.77856C8.74716 2.73262 8.82241 2.65125 8.83621 2.11186C8.84248 1.8402 8.81363 1.56591 8.79357 1.29424C8.75845 0.821779 8.86129 0.65773 9.30526 0.702351C10.0101 0.774533 10.7087 0.907085 11.4085 1.02782C11.6844 1.07638 11.9666 1.1315 12.2224 1.24174C12.5485 1.38217 12.5962 1.60659 12.4281 1.93206C12.3829 2.01868 12.3253 2.09874 12.2876 2.18798C12.1534 2.51214 12.2613 2.77199 12.5974 2.81924C13.3524 2.92554 14.1112 3.02266 14.8712 3.07384C15.2951 3.10272 15.586 2.75625 15.9096 2.52133C16.2683 2.26016 16.622 1.98587 17.007 1.77326C17.1512 1.69321 17.4071 1.70371 17.5563 1.78639C18.1596 2.11974 18.5998 2.65519 18.9936 3.22214C19.2557 3.60011 19.1566 3.83503 18.7402 3.98071C18.4129 4.09489 18.3101 4.33243 18.4969 4.63428C18.6136 4.82195 18.7741 4.99519 18.9484 5.1238C19.5905 5.59495 20.0069 6.26296 20.4145 6.9349C20.5939 7.2315 20.4835 7.52154 20.1537 7.58191C19.9041 7.62785 19.6344 7.6016 19.3798 7.56485C18.7089 7.46773 18.0404 7.34306 17.3707 7.23807C17.239 7.21707 17.0722 7.19213 16.9719 7.25644C16.8151 7.35749 16.6282 7.51367 16.5906 7.68034C16.5543 7.84308 16.6571 8.06881 16.7574 8.22761C16.844 8.36541 17.0133 8.44678 17.1437 8.55702C17.4046 8.7775 17.4648 9.09641 17.2541 9.36152C17.0296 9.64237 16.9606 9.96128 16.9694 10.3051C16.9844 10.9062 17.0083 11.506 17.0446 12.1057C17.0622 12.3984 17.0384 12.6569 16.8628 12.9089C16.5793 13.3158 16.6646 13.6649 17.0935 13.909C17.3218 14.0389 17.5651 14.1439 17.8122 14.2279C18.5496 14.4798 19.1604 14.9182 19.6206 15.5678C20.0069 16.1138 20.0834 16.7332 19.9066 17.3776C19.7523 17.9393 19.3184 18.1979 18.8142 18.2858C18.1207 18.4065 17.4886 18.2556 16.997 17.6677C16.6784 17.2871 16.247 17.3487 16.03 17.7871C15.6939 18.4682 15.122 18.8121 14.4322 18.9157C13.7424 19.0194 13.0439 19.0627 12.3466 19.1021C11.6693 19.1402 10.9908 19.169 10.3136 19.1507C9.42691 19.127 8.53772 19.0903 7.65731 18.9866C7.21083 18.9341 6.76686 18.7582 6.35048 18.5706C6.02189 18.4223 5.79489 18.144 5.73219 17.7254C5.67199 17.3212 5.19165 17.0994 4.80662 17.2897C4.60972 17.3868 4.41407 17.5561 4.29242 17.7438C3.9676 18.249 3.52614 18.5391 2.96428 18.6336C2.71721 18.6756 2.46513 18.6743 2.21555 18.7018C1.44048 18.7897 0.704298 17.8894 0.91625 17.0338C1.04041 16.5311 1.38405 16.2516 1.78788 16.0245C1.98102 15.9156 2.1842 15.829 2.38737 15.7411C2.86645 15.535 3.12732 15.1321 3.22765 14.6321C3.30415 14.2528 3.46719 13.9601 3.76317 13.7462C4.02403 13.5572 4.09427 13.3105 4.08173 12.9837C4.05539 12.2645 4.06918 11.5427 4.06793 10.8222C4.06542 9.83923 4.07295 8.85625 4.05539 7.87326C4.04535 7.34568 3.84093 7.15932 3.34554 7.21313C2.75358 7.27744 2.16664 7.38899 1.57468 7.4533C1.31005 7.48217 1.02787 7.48873 0.774531 7.4218C0.654132 7.3903 0.512413 7.16851 0.501126 7.02283C0.483568 6.8076 0.674199 6.72361 0.873609 6.7223C1.22853 6.7223 1.58346 6.7223 1.93838 6.7223L1.94465 6.75642H1.94214ZM10.5519 10.1398C11.6367 10.1398 12.7228 10.1424 13.8077 10.1385C14.2378 10.1371 14.4109 9.99147 14.4761 9.61087C14.5551 9.15022 14.4046 8.83131 14.0171 8.69745C13.8415 8.63708 13.6509 8.5977 13.4678 8.5977C11.4963 8.59114 9.52348 8.59114 7.55196 8.59508C7.36509 8.59508 7.17571 8.61739 6.99386 8.65939C6.56369 8.75782 6.3555 9.12397 6.46085 9.56888C6.54989 9.95209 6.81076 10.1358 7.29862 10.1385C8.38346 10.1437 9.4683 10.1398 10.5531 10.1398H10.5519ZM10.4892 10.7658C10.4892 10.7658 10.4892 10.7658 10.4892 10.7645C10.291 10.7645 10.0929 10.7645 9.89471 10.7645C8.97667 10.7618 8.05738 10.7435 7.13934 10.7618C6.64145 10.7723 6.43451 11.0388 6.45834 11.5335C6.48091 11.9876 6.72798 12.2212 7.19453 12.2212C9.29523 12.2212 11.3947 12.2252 13.4954 12.216C13.696 12.216 13.913 12.1674 14.0949 12.0808C14.4498 11.9128 14.5677 11.6438 14.4962 11.2894C14.426 10.9403 14.2504 10.775 13.839 10.7697C12.7228 10.7566 11.6054 10.7645 10.4892 10.7645V10.7658ZM12.1911 15.8474C12.1873 16.4839 12.704 16.9248 13.2358 16.8002C13.7525 16.6794 14.1488 16.3605 14.3231 15.8592C14.5363 15.2502 14.663 14.6058 14.806 13.972C14.8637 13.716 14.7069 13.5651 14.4786 13.4942C14.224 13.4142 14.0522 13.2554 13.9469 12.9877C13.898 12.8643 13.7537 12.7042 13.6459 12.6963C13.1304 12.6648 12.6037 12.6215 12.0957 12.6963C11.6806 12.758 11.579 13.1924 11.8236 13.5585C11.9126 13.6924 11.9866 13.8407 12.092 13.9588C12.4068 14.3145 12.4707 14.7226 12.3604 15.1754C12.3014 15.4182 12.2375 15.6584 12.1898 15.846L12.1911 15.8474ZM10.6058 3.35995C10.1807 3.41375 9.7718 3.43082 9.378 3.524C8.80862 3.65786 8.72083 3.96627 8.97416 4.51354C9.13846 4.8692 9.26387 5.26029 9.32157 5.65007C9.36671 5.9598 9.47583 6.12516 9.75299 6.19996C10.2885 6.34433 10.8291 6.35351 11.3608 6.21309C11.4975 6.17765 11.6656 6.0346 11.712 5.89943C11.8938 5.37841 12.0431 4.84426 12.1835 4.30881C12.2864 3.91771 12.1384 3.62899 11.7596 3.53581C11.3784 3.44263 10.9821 3.41507 10.6046 3.35995H10.6058ZM16.2771 3.69461C15.6814 3.70904 15.5058 3.86915 15.4732 4.46367C15.4493 4.90069 15.354 4.99387 14.959 5.1238C14.6668 5.21961 14.362 5.33247 14.1199 5.52014C13.9858 5.62251 13.8992 5.90468 13.9256 6.08447C13.9444 6.21571 14.1676 6.37057 14.3244 6.41388C14.727 6.52412 15.1408 6.60943 15.5547 6.64224C15.7792 6.66061 16.0413 6.60418 16.2344 6.48606C16.4991 6.32595 16.7098 6.07004 16.9506 5.8653C17.2616 5.60151 17.5638 5.31804 17.9025 5.09624C18.1821 4.91251 18.132 4.66184 18.1345 4.40724C18.137 4.17888 18.0291 4.03845 17.8109 3.99646C17.3005 3.89671 16.7888 3.79566 16.2783 3.69461H16.2771ZM8.14266 15.7712C8.15771 15.9156 8.17527 16.1321 8.20663 16.3487C8.25052 16.6492 8.38973 16.934 8.66815 16.9918C9.0143 17.0626 9.39932 17.0928 9.73669 17.0062C10.2634 16.8697 10.4202 16.3159 10.1919 15.8146C10.0615 15.5284 9.9825 15.2056 9.93735 14.8893C9.87966 14.4864 9.77306 14.3342 9.40559 14.2974C8.63304 14.22 8.11006 14.8001 8.14266 15.7726V15.7712ZM5.84381 14.9326C5.86136 14.9313 5.87892 14.93 5.89648 14.9287C5.8576 14.5717 5.8275 14.2147 5.77608 13.8604C5.76229 13.7607 5.70585 13.6491 5.63562 13.5822C5.42492 13.3814 4.92201 13.3696 4.62352 13.5389C4.33883 13.7003 4.05915 14.1478 4.13315 14.4247C4.26609 14.9156 4.42662 15.4011 4.61474 15.8723C4.73137 16.1636 5.15152 16.3264 5.45126 16.249C5.76605 16.1676 5.82876 15.9012 5.8413 15.6164C5.85133 15.3893 5.84381 15.161 5.84381 14.9326ZM16.6772 15.497C16.7386 14.9969 16.3172 14.4825 15.8657 14.4575C15.482 14.4365 15.2035 14.7751 15.1621 15.3329C15.1082 16.056 15.3829 16.623 15.9861 16.9629C16.1479 17.0534 16.4339 16.9996 16.622 16.9143C16.8527 16.8093 16.8954 16.5626 16.8264 16.2949C16.7587 16.0337 16.7261 15.7634 16.6772 15.497ZM9.23503 7.0622C8.63429 7.05696 8.28564 7.45855 8.46749 7.90476C8.64307 8.33391 9.47332 8.4599 9.7693 8.10424C9.93735 7.90214 9.97498 7.68034 9.87465 7.43624C9.74672 7.12258 9.47833 7.08058 9.23503 7.06352V7.0622ZM7.98088 12.6005C7.57077 12.5821 7.29611 12.8052 7.27981 13.1688C7.26476 13.5205 7.5645 13.7751 8.01474 13.7922C8.35838 13.8053 8.67317 13.5533 8.68697 13.2541C8.70452 12.8748 8.43112 12.6215 7.97962 12.6005H7.98088Z" fill="white"/>
<path d="M1.75183 38.5708C1.75183 37.2597 1.73678 35.9473 1.75685 34.6363C1.76939 33.7767 1.87223 32.917 1.86596 32.0574C1.85216 30.2778 1.79196 28.4969 1.75559 26.7173C1.75058 26.4443 1.76437 26.1713 1.7882 25.8997C1.81078 25.6333 1.94873 25.4928 2.22339 25.4955C3.00974 25.5033 3.71458 25.7553 4.37301 26.2015C4.57994 26.3419 4.84833 26.4588 5.08913 26.4614C8.31731 26.4955 11.5455 26.506 14.7724 26.527C15.3054 26.5309 15.5751 26.128 15.8899 25.7802C16.1256 25.5204 16.3664 25.2632 16.6323 25.0401C16.8819 24.8301 17.1892 24.8248 17.4563 24.9994C18.1085 25.4285 18.7569 25.8669 19.3814 26.3367C19.5081 26.4312 19.6159 26.7173 19.5708 26.8564C19.5181 27.0191 19.2961 27.2068 19.1306 27.2265C18.6766 27.2777 18.2138 27.2423 17.7548 27.2488C17.3585 27.2554 16.9584 27.2383 16.5684 27.2987C16.3928 27.3262 16.1708 27.4824 16.1006 27.6438C16.0491 27.7606 16.1721 28.0179 16.2849 28.1452C16.4354 28.3158 16.6474 28.4313 16.8443 28.5507C16.9872 28.6373 17.1503 28.6911 17.3033 28.7594C17.9943 29.0704 18.0395 29.2135 17.6432 29.867C17.3183 30.4038 17.4124 30.7253 17.9479 31.0298C18.4646 31.3251 18.9299 31.6873 19.2548 32.2215C19.3237 32.3356 19.4792 32.3947 19.5457 32.5102C19.6335 32.6651 19.7351 32.8606 19.7125 33.0194C19.6962 33.1349 19.4993 33.2622 19.3601 33.3108C19.1657 33.3777 18.9475 33.4052 18.7418 33.3961C17.7811 33.3527 16.9183 33.6769 16.073 34.1074C15.1035 34.6008 14.1516 35.1271 13.3602 35.9027C13.137 36.1219 12.9652 36.4474 12.8787 36.7571C12.8222 36.9605 12.9037 37.2676 13.0279 37.45C13.2185 37.7283 13.4844 37.9579 13.744 38.1745C14.351 38.6797 14.6106 39.3031 14.4175 40.1076C14.3999 40.1811 14.3937 40.2586 14.3723 40.332C14.2871 40.6339 14.2093 40.9397 14.5065 41.1654C14.721 41.3282 15.2277 41.2704 15.4747 41.0211C15.9087 40.5827 16.3175 40.1168 16.7364 39.6601C16.9496 39.4278 17.1854 39.2414 17.5077 39.3871C17.7372 39.4895 17.9843 39.5932 18.1624 39.7651C18.6515 40.2389 19.1281 40.7297 19.5633 41.256C19.6862 41.4043 19.7376 41.735 19.6649 41.9095C19.6047 42.0552 19.3137 42.1694 19.1243 42.1694C16.0015 42.1799 12.8774 42.2285 9.75707 42.1392C8.29473 42.0972 6.83741 42.155 5.37758 42.1222C5.2321 42.1195 5.08536 42.1353 4.93988 42.1497C4.66648 42.1773 4.50218 42.3348 4.36548 42.5894C4.24884 42.8059 4.07703 43.0526 3.87135 43.1406C3.30196 43.386 2.69495 43.5212 2.07289 43.3794C1.6515 43.2836 1.54615 43.1274 1.55744 42.6615C1.5775 41.8754 1.61388 41.0893 1.63018 40.3032C1.64147 39.7244 1.63269 39.1456 1.63269 38.5682C1.67157 38.5682 1.71044 38.5682 1.74932 38.5682L1.75183 38.5708ZM4.22752 33.8462C4.22752 35.6494 4.22752 37.4527 4.22752 39.2559C4.22752 39.3753 4.23003 39.4961 4.24007 39.6155C4.26264 39.8793 4.40311 40.0249 4.65268 40.0761C5.23084 40.1956 5.86419 39.9081 6.06987 39.3254C6.27053 38.7572 6.46493 38.1535 6.49503 37.5577C6.57404 36.0038 6.58031 34.4447 6.5778 32.8882C6.57529 31.665 6.51635 30.4432 6.47872 29.22C6.45991 28.6347 6.58533 28.4365 7.12963 28.5179C7.74165 28.6084 8.3612 28.7633 8.93184 29.0087C9.4937 29.2502 10.0104 29.3644 10.5898 29.1242C11.2871 28.8355 11.9982 28.5822 12.7006 28.3053C12.8448 28.2475 13.0053 28.1806 13.1057 28.0677C13.2148 27.9457 13.3314 27.7606 13.3226 27.611C13.3101 27.3932 13.137 27.2698 12.9 27.2632C12.3569 27.2501 11.8151 27.1989 11.2733 27.2029C9.36327 27.2134 7.45194 27.2436 5.54187 27.2593C4.43195 27.2685 4.22752 27.4745 4.22752 28.6321C4.22752 30.3697 4.22752 32.1073 4.22752 33.8462ZM8.95567 41.445C8.95567 41.4318 8.95567 41.4187 8.95567 41.4043C9.6442 41.4043 10.3352 41.4463 11.02 41.3938C11.8879 41.3282 12.2541 40.4672 11.7662 39.7034C11.5756 39.4055 11.3636 39.1207 11.1429 38.8451C10.6312 38.206 10.5535 37.4973 10.8871 36.7663C11.0401 36.4303 11.2771 36.1153 11.5342 35.8529C12.4397 34.9316 13.5208 34.3095 14.7172 33.8987C14.9141 33.8318 15.1073 33.7452 15.2941 33.652C15.5362 33.5312 15.5563 33.3488 15.3456 33.1743C15.1148 32.984 14.8602 32.9026 14.5555 32.959C12.7695 33.295 11.1567 34.0496 9.66552 35.1205C9.25541 35.4145 9.0397 35.7885 8.94814 36.2899C8.88795 36.618 8.81019 36.971 8.63712 37.2414C7.94608 38.3175 7.21867 39.3688 6.49628 40.4239C6.25548 40.7743 6.30941 41.1379 6.68942 41.3032C6.90388 41.3964 7.15346 41.4305 7.38924 41.4384C7.91096 41.4581 8.43269 41.445 8.95567 41.445ZM8.96069 33.1913C8.96069 33.1913 8.95316 33.1913 8.94814 33.1913C8.95316 33.2674 8.95567 33.3436 8.96319 33.4197C9.04095 34.1874 9.30307 34.3502 9.98282 34.0352C10.4682 33.8095 10.9347 33.5378 11.4289 33.3383C12.2052 33.026 12.9802 32.6624 13.7892 32.4971C14.6483 32.3225 15.4597 32.0627 16.2649 31.7201C16.8255 31.4813 16.9998 30.8277 16.8969 30.3395C16.833 30.0337 16.6599 29.9012 16.3627 29.909C14.7762 29.9497 13.1909 29.9943 11.6044 30.0166C11.0112 30.0245 10.4155 29.976 9.82229 29.9484C9.39086 29.9287 9.23535 30.0166 9.13376 30.4314C9.05224 30.7673 8.98326 31.1151 8.96696 31.4603C8.93937 32.0351 8.95943 32.6126 8.95943 33.19L8.96069 33.1913Z" fill="white"/>
</svg>
