<svg width="64" height="216" viewBox="0 0 64 216" fill="none" xmlns="http://www.w3.org/2000/svg">
<path d="M56.163 191.016C54.9269 191.016 53.6908 190.983 52.4548 191.042C52.1136 191.058 51.7886 191.357 51.4554 191.525C51.6601 191.802 51.8126 192.18 52.0815 192.343C53.4019 193.158 54.7584 193.91 56.0868 194.708C56.4881 194.951 56.9015 195.224 57.1984 195.586C57.8285 196.354 58.4707 197.152 58.0774 198.311C57.7041 199.395 56.8373 199.735 55.8901 199.886C53.1731 200.319 50.4441 200.193 47.8475 199.348C44.4764 198.257 41.1895 196.883 37.8665 195.623C37.3969 195.447 36.9434 195.157 36.4618 195.082C36.0806 195.023 35.5227 195.082 35.302 195.334C35.0813 195.59 35.005 196.258 35.1696 196.556C35.595 197.328 36.1368 198.055 36.7307 198.698C39.9373 202.183 43.9466 204.073 48.3612 205.304C52.3986 206.425 56.4881 206.458 60.5977 206.471C61.6291 206.471 61.8057 206.681 61.2278 207.588C60.5656 208.626 59.7228 209.541 58.9884 210.528C58.2138 211.565 57.3911 212.582 56.753 213.707C56.3516 214.417 55.9222 214.686 55.1677 214.673C48.9552 214.568 43.6135 212.355 39.3394 207.555C38.4805 206.589 37.4651 206.186 36.2692 206.58C34.5194 207.156 32.7857 207.798 31.06 208.458C27.0467 209.995 23.0414 211.557 19.0362 213.111C18.1011 213.476 17.1901 213.93 16.2349 214.215C14.3326 214.778 13.3734 214.337 12.4263 212.535C11.7842 211.313 11.1782 210.066 10.6002 208.806C10.2591 208.063 9.81364 207.492 8.97888 207.45C8.09997 207.408 7.59831 207.975 7.14882 208.689C6.01306 210.494 4.8452 212.283 3.67332 214.064C3.40844 214.467 3.11146 214.858 2.76632 215.181C2.60578 215.332 2.29676 215.311 2.05597 215.366C2.01583 215.148 1.90346 214.908 1.94761 214.711C2.71013 211.233 3.48871 207.76 4.26728 204.287C5.23047 199.983 5.84049 195.657 5.69601 191.201C5.57963 187.606 5.80437 183.999 5.80838 180.4C5.80838 176.452 5.76424 172.5 5.67193 168.552C5.60772 165.722 5.40706 162.895 5.31074 160.065C5.25054 158.272 5.64785 157.818 7.33343 157.973C8.89058 158.116 10.4397 158.414 11.9808 158.729C12.4825 158.83 13.0202 159.107 13.3935 159.469C14.2483 160.292 15.2316 160.565 16.3392 160.497C20.1398 160.266 23.9364 159.914 27.737 159.826C31.373 159.737 35.017 159.901 38.6571 159.985C40.2584 160.023 41.8597 160.119 43.461 160.216C44.7493 160.292 45.8208 159.821 46.6837 158.851C47.9519 157.423 49.4207 157.05 51.1304 157.856C53.0447 158.759 54.9871 159.603 56.8533 160.607C58.3182 161.396 58.266 162.072 57.1021 163.29C56.6246 163.79 56.2312 164.58 56.163 165.272C56.0185 166.726 56.0667 168.204 56.1269 169.67C56.1711 170.732 55.9343 171.551 55.0473 172.189C54.4534 172.618 53.9678 173.222 53.4621 173.777C52.8119 174.495 52.8882 175.217 53.5464 175.881C54.5818 176.922 55.6574 177.918 56.6607 178.993C57.8526 180.278 57.8366 180.748 56.7249 182.084C55.854 183.134 56.0507 184.083 57.2306 184.973C58.4185 185.868 59.5663 186.825 60.7061 187.783C61.3522 188.324 61.6853 189.013 61.3682 189.912C61.0713 190.748 60.4291 190.92 59.6787 190.916C58.5068 190.911 57.3389 190.916 56.167 190.916C56.167 190.945 56.167 190.974 56.167 191.004L56.163 191.016ZM30.775 162.11C30.767 161.934 30.763 161.762 30.7549 161.585C25.9069 162.06 21.0548 162.501 16.2108 163.026C14.4811 163.215 13.8711 164.29 14.0958 166.369C14.2884 168.162 14.8343 168.59 16.7446 168.46C17.0777 168.439 17.4108 168.418 17.7439 168.384C26.0755 167.486 34.411 167.532 42.7466 168.309C45.889 168.603 46.2422 168.254 46.1338 164.945C46.0857 163.513 45.5399 162.832 44.1673 162.648C42.546 162.429 40.9166 162.182 39.2872 162.131C36.4538 162.047 33.6164 162.106 30.779 162.106L30.775 162.11ZM38.2879 191.264C38.2879 191.264 38.2879 191.239 38.2879 191.222C35.8839 191.222 33.48 191.142 31.08 191.247C29.2821 191.327 27.9376 192.574 27.6286 194.342C27.151 197.043 27.159 199.764 27.6005 202.473C27.749 203.389 28.2627 204.086 29.2138 203.997C31.2285 203.808 33.2392 203.54 35.2418 203.246C35.8438 203.158 35.9361 202.654 35.6913 202.116C35.2739 201.201 34.7682 200.323 34.4391 199.378C34.0659 198.311 33.6124 197.186 33.6084 196.081C33.6004 194.54 34.9167 193.776 36.6384 194.183C38.7534 194.687 40.8283 195.367 42.9473 195.833C44.7372 196.224 46.5592 196.539 48.3813 196.648C50.103 196.753 50.713 195.46 49.7418 193.948C48.5739 192.133 46.8643 191.298 44.7974 191.273C42.6262 191.247 40.4591 191.268 38.2879 191.268V191.264ZM19.6341 198.521C19.6863 198.521 19.7345 198.521 19.7866 198.521C19.7866 196.564 19.8348 194.607 19.7706 192.654C19.7264 191.34 19.3291 191 18.1051 190.899C17.4068 190.84 16.7085 190.781 16.0061 190.76C13.6945 190.697 13.0122 191.31 12.7875 193.725C12.4945 196.841 11.7721 199.844 10.7327 202.775C10.0544 204.686 10.2712 205.354 12.2015 205.623C14.0918 205.883 16.0463 205.682 17.9686 205.602C19.2489 205.547 19.6181 205.089 19.6341 203.767C19.6502 202.019 19.6382 200.272 19.6382 198.521H19.6341ZM13.8992 175.213C13.8992 175.213 13.9393 175.213 13.9594 175.213C13.9594 175.91 13.9553 176.612 13.9594 177.309C13.9754 179.043 14.5774 179.757 16.2429 179.795C17.475 179.824 18.7151 179.744 19.9432 179.631C21.0067 179.53 21.4923 178.829 21.4401 177.687C21.3719 176.187 21.3037 174.688 21.2635 173.189C21.1913 170.455 20.5973 169.787 18.0047 169.993C15.0349 170.228 13.4617 170.745 13.8671 174.583C13.8871 174.793 13.8871 175.003 13.8951 175.213H13.8992ZM47.679 180.794V180.891C46.9084 180.891 46.1419 180.87 45.3753 180.895C43.5092 180.958 42.5861 182.142 42.859 184.079C42.9433 184.662 42.9072 185.288 43.0958 185.83C43.3085 186.443 43.5734 187.27 44.0469 187.505C45.5278 188.245 47.2776 188.471 48.6542 187.598C49.9505 186.779 51.018 185.435 51.9411 184.133C52.9484 182.714 52.1578 181.143 50.4762 180.941C49.5491 180.828 48.61 180.841 47.679 180.794ZM17.8161 188.224C18.3178 188.224 18.8154 188.232 19.3171 188.219C20.7619 188.177 21.5886 187.308 21.6047 185.792C21.6127 185.166 21.5926 184.536 21.5485 183.911C21.4562 182.583 20.7538 181.886 19.4776 181.895C18.3138 181.903 17.1499 181.958 15.9861 182.029C15.0911 182.084 14.4771 182.571 14.2804 183.507C14.144 184.15 14.0396 184.801 13.9754 185.456C13.8149 187.169 14.6817 188.182 16.3232 188.224C16.8208 188.236 17.3225 188.224 17.8241 188.224H17.8161ZM32.0352 180.992C32.0352 180.992 32.0352 181.013 32.0352 181.021C31.8345 181.021 31.6339 181.021 31.4372 181.021C29.7677 181.042 29.0132 181.916 29.1456 183.667C29.1858 184.221 29.2018 184.78 29.2339 185.334C29.3663 187.547 31.3409 188.845 33.3596 188.047C34.4351 187.623 34.9207 186.825 34.9007 185.645C34.8886 184.885 34.9207 184.125 34.993 183.369C35.1053 182.231 34.5114 181.29 33.4238 181.072C32.9743 180.983 32.5007 181.017 32.0352 180.992ZM42.9353 176.658C42.9353 178.069 43.3286 178.72 44.4202 179.064C45.3673 179.362 46.2141 179.119 46.8562 178.317C47.5385 177.464 48.1926 176.582 48.8388 175.7C49.7177 174.499 49.2963 172.991 47.9438 172.445C46.788 171.975 45.592 172.37 44.8576 173.428C44.6048 173.789 44.3399 174.18 43.9948 174.424C43.1841 174.999 42.8791 175.776 42.9393 176.658H42.9353ZM31.9589 179.182C33.789 179.43 35.0933 178.287 34.6558 176.456C34.5635 176.061 34.6358 175.625 34.6278 175.205C34.5876 173.416 33.0786 172.403 31.5737 173.248C30.8312 173.668 29.9563 174.214 29.6232 174.94C29.2339 175.797 29.1657 176.952 29.3262 177.909C29.4867 178.858 30.458 179.073 31.3288 179.14C31.5616 179.157 31.7944 179.169 31.9589 179.178V179.182Z" fill="white"/>
<path d="M4.61486 19.3955C8.49972 18.984 12.3966 18.6564 16.2694 18.1272C18.5209 17.8207 18.9302 17.0647 18.6533 14.6793C18.565 13.9192 18.4286 13.159 18.248 12.4157C17.8145 10.6477 16.4902 9.42975 14.7765 9.51375C11.6742 9.66493 8.584 9.98411 5.48574 10.2319C5.08843 10.2655 4.64296 10.4083 4.30584 10.2655C3.92859 10.1059 3.65569 9.68173 3.33864 9.37516C3.67977 9.04758 3.98076 8.53103 4.37005 8.43863C5.17271 8.24965 6.02754 8.30844 6.85829 8.23705C12.822 7.72049 18.7817 7.20394 24.7455 6.66638C26.3909 6.51939 26.6317 6.25901 26.6759 4.53295C26.6959 3.66363 26.6036 2.7859 26.5394 1.91657C26.427 0.404693 26.7561 -0.120264 28.1768 0.0225241C30.4323 0.253505 32.6677 0.67767 34.9071 1.06404C35.79 1.21943 36.693 1.39581 37.5117 1.74858C38.5552 2.19795 38.7077 2.91609 38.1699 3.9576C38.0254 4.23478 37.8408 4.49096 37.7204 4.77653C37.291 5.81385 37.6361 6.64538 38.7117 6.79657C41.1277 7.13674 43.5557 7.44752 45.9878 7.6113C47.3443 7.70369 48.2753 6.59499 49.3108 5.84325C50.4586 5.00752 51.5903 4.12979 52.8224 3.44944C53.2839 3.19326 54.1026 3.22686 54.5802 3.49144C56.5106 4.55815 57.9193 6.27161 59.1794 8.08586C60.0182 9.29536 59.7012 10.0471 58.3687 10.5133C57.3213 10.8786 56.9922 11.6388 57.5902 12.6047C57.9634 13.2052 58.4771 13.7596 59.0349 14.1712C61.0897 15.6788 62.4222 17.8165 63.7265 19.9667C64.3004 20.9158 63.9472 21.8439 62.8917 22.0371C62.0931 22.1841 61.2302 22.1001 60.4155 21.9825C58.2684 21.6717 56.1293 21.2728 53.9862 20.9368C53.5648 20.8696 53.0311 20.7898 52.71 20.9956C52.2084 21.319 51.6104 21.8187 51.49 22.3521C51.3736 22.8729 51.7027 23.5952 52.0237 24.1033C52.3007 24.5443 52.8425 24.8047 53.2598 25.1575C54.0946 25.863 54.2872 26.8835 53.613 27.7319C52.8946 28.6306 52.6739 29.6511 52.702 30.7514C52.7501 32.6748 52.8264 34.5941 52.9428 36.5133C52.999 37.4499 52.9227 38.2772 52.3609 39.0835C51.4539 40.3854 51.7268 41.5025 53.0993 42.2837C53.8297 42.6994 54.6083 43.0354 55.3989 43.3042C57.7587 44.1105 59.7132 45.5132 61.1861 47.592C62.4222 49.3391 62.667 51.3213 62.1011 53.3833C61.6075 55.1808 60.2189 56.0081 58.6055 56.2895C56.3862 56.6759 54.3635 56.1929 52.7903 54.3115C51.7709 53.0936 50.3903 53.291 49.696 54.6936C48.6205 56.8733 46.7904 57.9736 44.5831 58.3053C42.3758 58.6371 40.1404 58.7757 37.909 58.9017C35.7419 59.0235 33.5707 59.1159 31.4035 59.0571C28.5661 58.9815 25.7207 58.8639 22.9034 58.5321C21.4747 58.3641 20.054 57.8014 18.7215 57.2008C17.6701 56.7263 16.9437 55.8359 16.743 54.4963C16.5504 53.2028 15.0133 52.493 13.7812 53.102C13.1511 53.4127 12.525 53.9545 12.1358 54.555C11.0963 56.1719 9.68364 57.1 7.88569 57.4024C7.09507 57.5368 6.2884 57.5326 5.48976 57.6208C3.00955 57.9022 0.653755 55.0212 1.332 52.283C1.72931 50.6746 2.82895 49.78 4.12123 49.0535C4.73927 48.7049 5.38943 48.4278 6.03958 48.1464C7.57265 47.487 8.40741 46.1977 8.72848 44.5977C8.97329 43.384 9.49501 42.4474 10.4421 41.7629C11.2769 41.1581 11.5017 40.3686 11.4615 39.3229C11.3772 37.0215 11.4214 34.7117 11.4174 32.4061C11.4093 29.2605 11.4334 26.115 11.3772 22.9694C11.3451 21.2812 10.691 20.6848 9.10572 20.857C7.21146 21.0628 5.33324 21.4198 3.43897 21.6256C2.59217 21.7179 1.68918 21.7389 0.878499 21.5248C0.493224 21.424 0.0397228 20.7142 0.00360329 20.2481C-0.0525826 19.5593 0.557436 19.2905 1.19555 19.2863C2.33131 19.2863 3.46706 19.2863 4.60282 19.2863L4.62289 19.3955H4.61486ZM32.166 30.2222C35.6375 30.2222 39.113 30.2306 42.5845 30.218C43.9611 30.2138 44.5149 29.7477 44.7236 28.5298C44.9764 27.0557 44.4948 26.0352 43.2547 25.6068C42.6929 25.4136 42.0829 25.2877 41.4969 25.2877C35.188 25.2667 28.8751 25.2667 22.5663 25.2793C21.9683 25.2793 21.3623 25.3506 20.7804 25.485C19.4038 25.8 18.7376 26.9717 19.0747 28.3954C19.3597 29.6217 20.1944 30.2096 21.7556 30.218C25.2271 30.2348 28.6986 30.2222 32.1701 30.2222H32.166ZM31.9654 32.2255C31.9654 32.2255 31.9654 32.2255 31.9654 32.2213C31.3313 32.2213 30.6972 32.2213 30.0631 32.2213C27.1254 32.2129 24.1836 32.1541 21.2459 32.2129C19.6526 32.2465 18.9904 33.099 19.0667 34.6823C19.1389 36.1354 19.9295 36.8829 21.4225 36.8829C28.1447 36.8829 34.863 36.8955 41.5852 36.8661C42.2273 36.8661 42.9216 36.7107 43.5036 36.4335C44.6393 35.896 45.0166 35.0351 44.7878 33.9011C44.5631 32.784 44.0012 32.2549 42.6848 32.2381C39.113 32.1961 35.5372 32.2213 31.9654 32.2213V32.2255ZM37.4114 48.4865C37.3994 50.5234 39.0528 51.9345 40.7545 51.5355C42.4079 51.1491 43.6761 50.1286 44.234 48.5243C44.9162 46.5757 45.3216 44.5137 45.7791 42.4852C45.9637 41.6663 45.462 41.1833 44.7316 40.9566C43.9169 40.7004 43.3671 40.1922 43.03 39.3355C42.8735 38.9407 42.4119 38.4284 42.0668 38.4032C40.4173 38.3024 38.7318 38.1638 37.1064 38.4032C35.778 38.6006 35.4529 39.9906 36.2355 41.1623C36.5204 41.5907 36.7572 42.0653 37.0943 42.4432C38.1017 43.5814 38.3064 44.8874 37.9532 46.3363C37.7646 47.1133 37.5599 47.8818 37.4074 48.4823L37.4114 48.4865ZM32.3386 8.52683C30.9781 8.69901 29.6698 8.75361 28.4096 9.05178C26.5876 9.48015 26.3066 10.4671 27.1173 12.2183C27.6431 13.3564 28.0444 14.6079 28.229 15.8552C28.3735 16.8463 28.7226 17.3755 29.6096 17.6149C31.3232 18.0768 33.053 18.1062 34.7546 17.6569C35.1921 17.5435 35.7298 17.0857 35.8783 16.6532C36.4602 14.9859 36.9378 13.2766 37.3873 11.5632C37.7164 10.3117 37.2428 9.38776 36.0308 9.08958C34.8108 8.7914 33.5426 8.70321 32.3346 8.52683H32.3386ZM50.4867 9.59774C48.5804 9.64394 48.0185 10.1563 47.9142 12.0587C47.8379 13.4572 47.5329 13.7554 46.2687 14.1712C45.3336 14.4777 44.3584 14.8389 43.5838 15.4395C43.1544 15.767 42.8775 16.67 42.9618 17.2453C43.022 17.6653 43.7363 18.1608 44.238 18.2994C45.5262 18.6522 46.8506 18.9252 48.175 19.0302C48.8934 19.089 49.7322 18.9084 50.3502 18.5304C51.197 18.018 51.8712 17.1991 52.6418 16.544C53.6371 15.6998 54.6043 14.7927 55.6879 14.083C56.5828 13.495 56.4223 12.6929 56.4303 11.8782C56.4384 11.1474 56.0932 10.698 55.3949 10.5637C53.7615 10.2445 52.1241 9.92111 50.4907 9.59774H50.4867ZM24.4565 48.243C24.5047 48.7049 24.5609 49.3979 24.6612 50.0908C24.8017 51.0525 25.2471 51.9639 26.1381 52.1486C27.2458 52.3754 28.4778 52.472 29.5574 52.1948C31.243 51.7581 31.7446 49.9858 31.0142 48.3816C30.5968 47.466 30.344 46.4329 30.1995 45.4208C30.0149 44.1315 29.6738 43.6443 28.4979 43.5268C26.0257 43.279 24.3522 45.1352 24.4565 48.2472V48.243ZM17.1002 45.5594C17.1564 45.5552 17.2126 45.551 17.2687 45.5468C17.1443 44.4045 17.048 43.2622 16.8835 42.1283C16.8393 41.8091 16.6587 41.4521 16.434 41.2379C15.7597 40.5954 14.1504 40.5576 13.1953 41.0994C12.2842 41.6159 11.3893 43.048 11.6261 43.9341C12.0515 45.5048 12.5652 47.0587 13.1672 48.5663C13.5404 49.4987 14.8848 50.0194 15.844 49.7716C16.8514 49.5113 17.052 48.6587 17.0922 47.7474C17.1243 47.0209 17.1002 46.2901 17.1002 45.5594ZM51.7669 47.3652C51.9635 45.7652 50.6151 44.1189 49.1703 44.0391C47.9422 43.9719 47.0513 45.0554 46.9189 46.8403C46.7463 49.1543 47.6252 50.9685 49.5556 52.0563C50.0733 52.346 50.9883 52.1738 51.5903 51.9009C52.3288 51.5649 52.4652 50.7754 52.2445 49.9186C52.0278 49.0829 51.9234 48.2178 51.7669 47.3652ZM27.9521 20.3741C26.0297 20.3573 24.914 21.6424 25.496 23.0702C26.0578 24.4435 28.7146 24.8467 29.6618 23.7086C30.1995 23.0618 30.3199 22.3521 29.9989 21.571C29.5895 20.5672 28.7307 20.4328 27.9521 20.3783V20.3741ZM23.9388 38.0966C22.6265 38.0378 21.7476 38.7517 21.6954 39.9151C21.6472 41.0406 22.6064 41.8553 24.0472 41.9099C25.1468 41.9519 26.1541 41.1456 26.1983 40.188C26.2545 38.9743 25.3796 38.1638 23.9348 38.0966H23.9388Z" fill="white"/>
<path d="M4.00297 121.202C4.00297 117.006 3.95481 112.807 4.01902 108.611C4.05915 105.86 4.38824 103.11 4.36818 100.359C4.32403 94.664 4.13139 88.9651 4.01501 83.2703C3.99896 82.3968 4.0431 81.5233 4.11935 80.654C4.19159 79.8014 4.63305 79.3521 5.51196 79.3605C8.02829 79.3857 10.2838 80.192 12.3907 81.6199C13.0529 82.0692 13.9118 82.443 14.6823 82.4514C25.0125 82.5606 35.3427 82.5942 45.6688 82.6614C47.3745 82.674 48.2373 81.3847 49.2447 80.2718C49.9992 79.4403 50.7697 78.6171 51.6205 77.9032C52.4192 77.2312 53.4024 77.2144 54.2573 77.773C56.3442 79.1463 58.419 80.549 60.4177 82.0524C60.823 82.3548 61.1681 83.2703 61.0237 83.7155C60.8551 84.2363 60.1447 84.8368 59.615 84.8998C58.1622 85.0636 56.6813 84.9502 55.2124 84.9712C53.9442 84.9922 52.664 84.9376 51.4159 85.1308C50.854 85.219 50.1437 85.7187 49.9189 86.2353C49.7544 86.6091 50.1477 87.4322 50.5089 87.8396C50.9905 88.3855 51.6687 88.7551 52.2988 89.1373C52.7563 89.4144 53.278 89.5866 53.7677 89.805C55.979 90.8003 56.1234 91.2581 54.8552 93.3495C53.8158 95.0672 54.1168 96.0961 55.8305 97.0704C57.4839 98.0153 58.9729 99.1744 60.0123 100.884C60.233 101.249 60.7307 101.438 60.9434 101.808C61.2243 102.303 61.5494 102.929 61.4772 103.437C61.425 103.807 60.7949 104.214 60.3494 104.369C59.7274 104.584 59.0291 104.672 58.3709 104.642C55.2967 104.504 52.5356 105.541 49.8306 106.919C46.7284 108.498 43.6823 110.182 41.1499 112.664C40.4355 113.365 39.8857 114.407 39.6088 115.398C39.4282 116.049 39.6891 117.031 40.0864 117.615C40.6964 118.505 41.5472 119.24 42.378 119.933C44.3204 121.55 45.1511 123.545 44.5331 126.119C44.4769 126.355 44.4568 126.602 44.3886 126.838C44.1157 127.803 43.8669 128.782 44.818 129.504C45.5043 130.025 47.1257 129.84 47.9163 129.042C49.3049 127.64 50.6132 126.149 51.9536 124.687C52.6359 123.944 53.3904 123.348 54.4218 123.814C55.1562 124.141 55.9469 124.473 56.5168 125.023C58.0819 126.539 59.607 128.11 60.9996 129.794C61.3929 130.269 61.5574 131.327 61.3247 131.886C61.132 132.352 60.2009 132.717 59.5949 132.717C49.6019 132.751 39.6048 132.906 29.6197 132.62C24.9403 132.486 20.2768 132.671 15.6054 132.566C15.1398 132.557 14.6703 132.608 14.2047 132.654C13.3298 132.742 12.8041 133.246 12.3666 134.061C11.9934 134.754 11.4436 135.543 10.7854 135.825C8.96338 136.61 7.02096 137.043 5.03037 136.589C3.68191 136.283 3.34479 135.783 3.38091 134.292C3.44512 131.776 3.56151 129.261 3.61368 126.745C3.6498 124.893 3.62171 123.041 3.62171 121.193C3.74612 121.193 3.87053 121.193 3.99494 121.193L4.00297 121.202ZM11.9252 106.083C11.9252 111.853 11.9252 117.624 11.9252 123.394C11.9252 123.776 11.9332 124.162 11.9653 124.545C12.0376 125.389 12.487 125.855 13.2857 126.019C15.1358 126.401 17.1625 125.481 17.8207 123.616C18.4628 121.798 19.0849 119.866 19.1812 117.959C19.434 112.987 19.4541 107.998 19.4461 103.017C19.438 99.103 19.2494 95.1932 19.129 91.2791C19.0688 89.406 19.4701 88.7719 21.2119 89.0323C23.1704 89.322 25.153 89.8176 26.979 90.6029C28.7769 91.3757 30.4304 91.741 32.2846 90.9725C34.5159 90.0486 36.7915 89.238 39.0389 88.3519C39.5004 88.1671 40.0141 87.9529 40.3352 87.5918C40.6844 87.2012 41.0576 86.6091 41.0295 86.1303C40.9894 85.4332 40.4355 85.0384 39.677 85.0174C37.9393 84.9754 36.2055 84.8116 34.4718 84.8242C28.3596 84.8578 22.2433 84.9544 16.1311 85.0048C12.5793 85.0342 11.9252 85.6935 11.9252 89.3976C11.9252 94.958 11.9252 100.518 11.9252 106.083ZM27.0553 130.399C27.0553 130.357 27.0553 130.315 27.0553 130.269C29.2585 130.269 31.4699 130.403 33.6611 130.235C36.4383 130.025 37.6102 127.27 36.049 124.826C35.439 123.873 34.7608 122.961 34.0544 122.079C32.417 120.034 32.1682 117.766 33.2357 115.427C33.7253 114.352 34.4838 113.344 35.3066 112.504C38.2041 109.556 41.6636 107.565 45.4923 106.251C46.1223 106.037 46.7404 105.759 47.3384 105.461C48.1129 105.075 48.1772 104.491 47.5029 103.933C46.7645 103.324 45.9498 103.063 44.9745 103.244C39.2596 104.319 34.0986 106.734 29.3268 110.161C28.0144 111.101 27.3241 112.298 27.0312 113.903C26.8385 114.953 26.5897 116.082 26.0359 116.947C23.8246 120.391 21.4969 123.755 19.1852 127.132C18.4147 128.253 18.5872 129.416 19.8033 129.945C20.4895 130.243 21.2882 130.353 22.0427 130.378C23.7122 130.441 25.3817 130.399 27.0553 130.399ZM27.0713 103.987C27.0713 103.987 27.0472 103.987 27.0312 103.987C27.0472 104.231 27.0553 104.474 27.0793 104.718C27.3282 107.175 28.1669 107.696 30.3421 106.688C31.8953 105.965 33.3882 105.096 34.9694 104.458C37.4537 103.458 39.9339 102.295 42.5224 101.766C45.2715 101.207 47.8681 100.376 50.4447 99.2794C52.2386 98.5151 52.7964 96.4237 52.4673 94.8614C52.2627 93.8829 51.7088 93.4587 50.7577 93.4839C45.6809 93.6141 40.6081 93.7569 35.5313 93.8283C33.633 93.8535 31.7267 93.6981 29.8284 93.6099C28.4479 93.5469 27.9502 93.8283 27.6251 95.1554C27.3643 96.2305 27.1435 97.3434 27.0914 98.4479C27.0031 100.287 27.0673 102.135 27.0673 103.983L27.0713 103.987Z" fill="white"/>
</svg>
