<svg width="32" height="32" viewBox="0 0 32 32" fill="none" xmlns="http://www.w3.org/2000/svg">
<path d="M16 18.25C18.8995 18.25 21.25 15.8995 21.25 13C21.25 10.1005 18.8995 7.75 16 7.75C13.1005 7.75 10.75 10.1005 10.75 13C10.75 15.8995 13.1005 18.25 16 18.25Z" stroke="#DDDDDD" stroke-width="1.5"/>
<path d="M16.5 9.75C16.8611 9.75 17.2187 9.82113 17.5524 9.95933C17.886 10.0975 18.1892 10.3001 18.4445 10.5555C18.6999 10.8108 18.9025 11.114 19.0407 11.4476C19.1789 11.7813 19.25 12.1389 19.25 12.5" stroke="#DDDDDD" stroke-width="1.5" stroke-linecap="round"/>
<path d="M15.25 25C15.25 25.4142 15.5858 25.75 16 25.75C16.4142 25.75 16.75 25.4142 16.75 25H15.25ZM15.25 19V25H16.75V19H15.25Z" fill="#DDDDDD"/>
</svg>
