<svg width="32" height="32" viewBox="0 0 32 32" fill="none" xmlns="http://www.w3.org/2000/svg">
<g clip-path="url(#clip0_1120_718)">
<path d="M16.0026 2.66675C10.6693 2.66675 5.33594 3.33341 5.33594 8.00008V20.6667C5.33594 23.2401 7.42927 25.3334 10.0026 25.3334L8.0026 27.3334V28.0001H10.9759L13.6426 25.3334H18.6693L21.3359 28.0001H24.0026V27.3334L22.0026 25.3334C24.5759 25.3334 26.6693 23.2401 26.6693 20.6667V8.00008C26.6693 3.33341 21.8959 2.66675 16.0026 2.66675ZM10.0026 22.6667C8.89594 22.6667 8.0026 21.7734 8.0026 20.6667C8.0026 19.5601 8.89594 18.6667 10.0026 18.6667C11.1093 18.6667 12.0026 19.5601 12.0026 20.6667C12.0026 21.7734 11.1093 22.6667 10.0026 22.6667ZM14.6693 13.3334H8.0026V8.00008H14.6693V13.3334ZM17.3359 13.3334V8.00008H24.0026V13.3334H17.3359ZM22.0026 22.6667C20.8959 22.6667 20.0026 21.7734 20.0026 20.6667C20.0026 19.5601 20.8959 18.6667 22.0026 18.6667C23.1093 18.6667 24.0026 19.5601 24.0026 20.6667C24.0026 21.7734 23.1093 22.6667 22.0026 22.6667Z" fill="white"/>
</g>
<defs>
<clipPath id="clip0_1120_718">
<rect width="32" height="32" fill="white"/>
</clipPath>
</defs>
</svg>
