<svg width="48" height="48" viewBox="0 0 48 48" fill="none" xmlns="http://www.w3.org/2000/svg">
<g clip-path="url(#clip0_1846_1456)">
<path d="M40.6107 47.9898C38.5024 47.9898 36.3941 47.9753 34.2887 48.0015C33.8443 48.0073 33.5782 47.8621 33.3326 47.5051C31.6541 45.0555 29.9581 42.6175 28.268 40.1766C25.8059 36.6182 23.3409 33.0628 20.8846 29.5015C20.6975 29.2287 20.5981 29.31 20.4314 29.5073C19.5337 30.5754 18.6506 31.6551 17.7178 32.6913C15.6505 34.9929 13.6533 37.3525 11.6211 39.6832C9.31978 42.3273 7.03313 44.9801 4.74648 47.6387C4.53886 47.8796 4.31956 47.9986 3.99498 47.9927C2.92183 47.9782 1.85161 47.9869 0.778461 47.9869C0.687814 47.9869 0.570849 48.0218 0.518216 47.9086C0.480202 47.8244 0.567925 47.7838 0.614711 47.7315C1.78728 46.3732 2.96277 45.0149 4.13534 43.6595C6.6413 40.76 9.14726 37.8633 11.6561 34.9667C13.6241 32.6942 15.5978 30.4245 17.5687 28.1519C17.9254 27.7398 18.2705 27.316 18.6389 26.9155C18.8231 26.7152 18.8173 26.5614 18.6682 26.3495C17.5511 24.7503 16.4458 23.1423 15.3347 21.5373C13.1474 18.3795 10.9602 15.2217 8.77005 12.0668C6.08572 8.18334 3.38677 4.30282 0.690738 0.419402C0.626408 0.323622 0.497747 0.233648 0.556229 0.103039C0.623483 -0.0449834 0.772613 0.050796 0.886653 0.050796C2.74931 0.050796 4.61489 0.050796 6.47755 0.050796C8.95134 0.050796 11.4222 0.0536984 13.896 0.0449912C14.2206 0.0449912 14.4399 0.146575 14.627 0.416499C17.2704 4.24768 19.9226 8.07014 22.5718 11.8955C23.8351 13.7182 25.1041 15.538 26.3556 17.3666C26.534 17.6278 26.6217 17.7003 26.8674 17.4159C29.3499 14.5309 31.8471 11.6546 34.3414 8.77833C36.7011 6.05878 39.0784 3.35083 41.4148 0.61096C41.7891 0.169795 42.1663 0.0217719 42.7219 0.036284C43.6927 0.0566008 44.6693 0.105942 45.6401 0.00435749C45.7132 -0.00434973 45.7922 -0.00725214 45.8331 0.0682104C45.8828 0.16399 45.8097 0.227843 45.7571 0.291696C45.4208 0.692228 45.0992 1.10147 44.7453 1.48458C42.9821 3.40888 41.3154 5.41154 39.6018 7.37937C36.8093 10.5923 34.0256 13.8111 31.2389 17.027C30.4055 17.9906 29.5926 18.9687 28.7359 19.912C28.4551 20.2225 28.4785 20.4402 28.7008 20.7537C30.0517 22.678 31.3851 24.6139 32.7243 26.5469C37.0052 32.7203 41.2861 38.8966 45.5699 45.07C46.1694 45.9378 46.7688 46.8028 47.3683 47.6706C47.4209 47.746 47.5262 47.8128 47.4794 47.9202C47.4297 48.0392 47.3127 47.9869 47.2191 47.9869C45.0144 47.9869 42.8096 47.9869 40.6048 47.9869L40.6107 47.9898ZM38.3971 44.8378V44.832C39.286 44.832 40.175 44.832 41.0639 44.832C41.1926 44.832 41.3622 44.9075 41.4382 44.7769C41.5113 44.6463 41.3592 44.536 41.2891 44.4344C39.9323 42.4724 38.5696 40.5103 37.2099 38.5483C34.2975 34.3456 31.3822 30.1429 28.4727 25.9403C25.5807 21.7666 22.6917 17.5929 19.7998 13.4193C17.5073 10.1134 15.2148 6.8076 12.9252 3.49885C12.7995 3.316 12.662 3.20861 12.4223 3.20861C10.5713 3.21442 8.72034 3.20861 6.86645 3.20281C6.57989 3.20281 6.5448 3.29569 6.69686 3.51627C7.03313 4.00387 7.36648 4.49728 7.70275 4.98489C10.2409 8.65063 12.779 12.3164 15.3201 15.9821C18.6769 20.8204 22.0396 25.6558 25.3965 30.497C28.6423 35.1757 31.888 39.8573 35.128 44.5418C35.2859 44.7711 35.4642 44.8494 35.7332 44.8465C36.6222 44.832 37.5111 44.8407 38.4 44.8407L38.3971 44.8378Z" fill="white"/>
</g>
<defs>
<clipPath id="clip0_1846_1456">
<rect width="48" height="48.0016" fill="white"/>
</clipPath>
</defs>
</svg>
